G04 #@! TF.GenerationSoftware,KiCad,Pcbnew,6.0.0-unknown-f08d040~86~ubuntu18.04.1*
G04 #@! TF.CreationDate,2019-05-16T22:23:00+01:00*
G04 #@! TF.ProjectId,mouse8,6d6f7573-6538-42e6-9b69-6361645f7063,rev?*
G04 #@! TF.SameCoordinates,Original*
G04 #@! TF.FileFunction,Paste,Top*
G04 #@! TF.FilePolarity,Positive*
%FSLAX46Y46*%
G04 Gerber Fmt 4.6, Leading zero omitted, Abs format (unit mm)*
G04 Created by KiCad (PCBNEW 6.0.0-unknown-f08d040~86~ubuntu18.04.1) date 2019-05-16 22:23:00*
%MOMM*%
%LPD*%
G04 APERTURE LIST*
%ADD10C,0.050000*%
%ADD11C,0.100000*%
%ADD12C,1.425000*%
%ADD13R,0.550000X1.500000*%
%ADD14R,1.500000X0.550000*%
%ADD15R,1.700000X1.000000*%
%ADD16R,1.060000X0.650000*%
%ADD17R,0.650000X1.060000*%
G04 APERTURE END LIST*
D10*
X159308800Y-70916800D02*
X159308800Y-73914000D01*
X171653200Y-70916800D02*
X159308800Y-70916800D01*
X171653200Y-73914000D02*
X171653200Y-70916800D01*
X159308800Y-73914000D02*
X171653200Y-73914000D01*
X154940000Y-80010000D02*
X179705000Y-80010000D01*
X181483000Y-90170000D02*
X181483000Y-81280000D01*
X197993000Y-90170000D02*
X181483000Y-90170000D01*
X197993000Y-81280000D02*
X197993000Y-90170000D01*
X181483000Y-81280000D02*
X197993000Y-81280000D01*
X177800000Y-106680000D02*
X177800000Y-107950000D01*
X152400000Y-106680000D02*
X177800000Y-106680000D01*
X170180000Y-64770000D02*
X152400000Y-64770000D01*
X170180000Y-63500000D02*
X170180000Y-64770000D01*
X154940000Y-91440000D02*
X154940000Y-90805000D01*
X179705000Y-91440000D02*
X179705000Y-90805000D01*
X179705000Y-80010000D02*
X179705000Y-90805000D01*
X239395000Y-71755000D02*
X246380000Y-71755000D01*
X239395000Y-63500000D02*
X239395000Y-71755000D01*
X239395000Y-99695000D02*
X239395000Y-107950000D01*
X246380000Y-99695000D02*
X239395000Y-99695000D01*
X154940000Y-90805000D02*
X154940000Y-80010000D01*
X179705000Y-91440000D02*
X154940000Y-91440000D01*
X152400000Y-106680000D02*
X152400000Y-64770000D01*
X239395000Y-107950000D02*
X177800000Y-107950000D01*
X246380000Y-71755000D02*
X246380000Y-99695000D01*
X170180000Y-63500000D02*
X239395000Y-63500000D01*
D11*
G36*
X214853004Y-83589204D02*
G01*
X214877273Y-83592804D01*
X214901071Y-83598765D01*
X214924171Y-83607030D01*
X214946349Y-83617520D01*
X214967393Y-83630133D01*
X214987098Y-83644747D01*
X215005277Y-83661223D01*
X215021753Y-83679402D01*
X215036367Y-83699107D01*
X215048980Y-83720151D01*
X215059470Y-83742329D01*
X215067735Y-83765429D01*
X215073696Y-83789227D01*
X215077296Y-83813496D01*
X215078500Y-83838000D01*
X215078500Y-85088000D01*
X215077296Y-85112504D01*
X215073696Y-85136773D01*
X215067735Y-85160571D01*
X215059470Y-85183671D01*
X215048980Y-85205849D01*
X215036367Y-85226893D01*
X215021753Y-85246598D01*
X215005277Y-85264777D01*
X214987098Y-85281253D01*
X214967393Y-85295867D01*
X214946349Y-85308480D01*
X214924171Y-85318970D01*
X214901071Y-85327235D01*
X214877273Y-85333196D01*
X214853004Y-85336796D01*
X214828500Y-85338000D01*
X213903500Y-85338000D01*
X213878996Y-85336796D01*
X213854727Y-85333196D01*
X213830929Y-85327235D01*
X213807829Y-85318970D01*
X213785651Y-85308480D01*
X213764607Y-85295867D01*
X213744902Y-85281253D01*
X213726723Y-85264777D01*
X213710247Y-85246598D01*
X213695633Y-85226893D01*
X213683020Y-85205849D01*
X213672530Y-85183671D01*
X213664265Y-85160571D01*
X213658304Y-85136773D01*
X213654704Y-85112504D01*
X213653500Y-85088000D01*
X213653500Y-83838000D01*
X213654704Y-83813496D01*
X213658304Y-83789227D01*
X213664265Y-83765429D01*
X213672530Y-83742329D01*
X213683020Y-83720151D01*
X213695633Y-83699107D01*
X213710247Y-83679402D01*
X213726723Y-83661223D01*
X213744902Y-83644747D01*
X213764607Y-83630133D01*
X213785651Y-83617520D01*
X213807829Y-83607030D01*
X213830929Y-83598765D01*
X213854727Y-83592804D01*
X213878996Y-83589204D01*
X213903500Y-83588000D01*
X214828500Y-83588000D01*
X214853004Y-83589204D01*
X214853004Y-83589204D01*
G37*
D12*
X214366000Y-84463000D03*
D11*
G36*
X217828004Y-83589204D02*
G01*
X217852273Y-83592804D01*
X217876071Y-83598765D01*
X217899171Y-83607030D01*
X217921349Y-83617520D01*
X217942393Y-83630133D01*
X217962098Y-83644747D01*
X217980277Y-83661223D01*
X217996753Y-83679402D01*
X218011367Y-83699107D01*
X218023980Y-83720151D01*
X218034470Y-83742329D01*
X218042735Y-83765429D01*
X218048696Y-83789227D01*
X218052296Y-83813496D01*
X218053500Y-83838000D01*
X218053500Y-85088000D01*
X218052296Y-85112504D01*
X218048696Y-85136773D01*
X218042735Y-85160571D01*
X218034470Y-85183671D01*
X218023980Y-85205849D01*
X218011367Y-85226893D01*
X217996753Y-85246598D01*
X217980277Y-85264777D01*
X217962098Y-85281253D01*
X217942393Y-85295867D01*
X217921349Y-85308480D01*
X217899171Y-85318970D01*
X217876071Y-85327235D01*
X217852273Y-85333196D01*
X217828004Y-85336796D01*
X217803500Y-85338000D01*
X216878500Y-85338000D01*
X216853996Y-85336796D01*
X216829727Y-85333196D01*
X216805929Y-85327235D01*
X216782829Y-85318970D01*
X216760651Y-85308480D01*
X216739607Y-85295867D01*
X216719902Y-85281253D01*
X216701723Y-85264777D01*
X216685247Y-85246598D01*
X216670633Y-85226893D01*
X216658020Y-85205849D01*
X216647530Y-85183671D01*
X216639265Y-85160571D01*
X216633304Y-85136773D01*
X216629704Y-85112504D01*
X216628500Y-85088000D01*
X216628500Y-83838000D01*
X216629704Y-83813496D01*
X216633304Y-83789227D01*
X216639265Y-83765429D01*
X216647530Y-83742329D01*
X216658020Y-83720151D01*
X216670633Y-83699107D01*
X216685247Y-83679402D01*
X216701723Y-83661223D01*
X216719902Y-83644747D01*
X216739607Y-83630133D01*
X216760651Y-83617520D01*
X216782829Y-83607030D01*
X216805929Y-83598765D01*
X216829727Y-83592804D01*
X216853996Y-83589204D01*
X216878500Y-83588000D01*
X217803500Y-83588000D01*
X217828004Y-83589204D01*
X217828004Y-83589204D01*
G37*
D12*
X217341000Y-84463000D03*
D13*
X228156000Y-79613000D03*
X228956000Y-79613000D03*
X229756000Y-79613000D03*
X230556000Y-79613000D03*
X231356000Y-79613000D03*
X232156000Y-79613000D03*
X232956000Y-79613000D03*
X233756000Y-79613000D03*
X234556000Y-79613000D03*
X235356000Y-79613000D03*
X236156000Y-79613000D03*
D14*
X237856000Y-81313000D03*
X237856000Y-82113000D03*
X237856000Y-82913000D03*
X237856000Y-83713000D03*
X237856000Y-84513000D03*
X237856000Y-85313000D03*
X237856000Y-86113000D03*
X237856000Y-86913000D03*
X237856000Y-87713000D03*
X237856000Y-88513000D03*
X237856000Y-89313000D03*
D13*
X236156000Y-91013000D03*
X235356000Y-91013000D03*
X234556000Y-91013000D03*
X233756000Y-91013000D03*
X232956000Y-91013000D03*
X232156000Y-91013000D03*
X231356000Y-91013000D03*
X230556000Y-91013000D03*
X229756000Y-91013000D03*
X228956000Y-91013000D03*
X228156000Y-91013000D03*
D14*
X226456000Y-89313000D03*
X226456000Y-88513000D03*
X226456000Y-87713000D03*
X226456000Y-86913000D03*
X226456000Y-86113000D03*
X226456000Y-85313000D03*
X226456000Y-84513000D03*
X226456000Y-83713000D03*
X226456000Y-82913000D03*
X226456000Y-82113000D03*
X226456000Y-81313000D03*
D11*
G36*
X209437504Y-102920704D02*
G01*
X209461773Y-102924304D01*
X209485571Y-102930265D01*
X209508671Y-102938530D01*
X209530849Y-102949020D01*
X209551893Y-102961633D01*
X209571598Y-102976247D01*
X209589777Y-102992723D01*
X209606253Y-103010902D01*
X209620867Y-103030607D01*
X209633480Y-103051651D01*
X209643970Y-103073829D01*
X209652235Y-103096929D01*
X209658196Y-103120727D01*
X209661796Y-103144996D01*
X209663000Y-103169500D01*
X209663000Y-104094500D01*
X209661796Y-104119004D01*
X209658196Y-104143273D01*
X209652235Y-104167071D01*
X209643970Y-104190171D01*
X209633480Y-104212349D01*
X209620867Y-104233393D01*
X209606253Y-104253098D01*
X209589777Y-104271277D01*
X209571598Y-104287753D01*
X209551893Y-104302367D01*
X209530849Y-104314980D01*
X209508671Y-104325470D01*
X209485571Y-104333735D01*
X209461773Y-104339696D01*
X209437504Y-104343296D01*
X209413000Y-104344500D01*
X208163000Y-104344500D01*
X208138496Y-104343296D01*
X208114227Y-104339696D01*
X208090429Y-104333735D01*
X208067329Y-104325470D01*
X208045151Y-104314980D01*
X208024107Y-104302367D01*
X208004402Y-104287753D01*
X207986223Y-104271277D01*
X207969747Y-104253098D01*
X207955133Y-104233393D01*
X207942520Y-104212349D01*
X207932030Y-104190171D01*
X207923765Y-104167071D01*
X207917804Y-104143273D01*
X207914204Y-104119004D01*
X207913000Y-104094500D01*
X207913000Y-103169500D01*
X207914204Y-103144996D01*
X207917804Y-103120727D01*
X207923765Y-103096929D01*
X207932030Y-103073829D01*
X207942520Y-103051651D01*
X207955133Y-103030607D01*
X207969747Y-103010902D01*
X207986223Y-102992723D01*
X208004402Y-102976247D01*
X208024107Y-102961633D01*
X208045151Y-102949020D01*
X208067329Y-102938530D01*
X208090429Y-102930265D01*
X208114227Y-102924304D01*
X208138496Y-102920704D01*
X208163000Y-102919500D01*
X209413000Y-102919500D01*
X209437504Y-102920704D01*
X209437504Y-102920704D01*
G37*
D12*
X208788000Y-103632000D03*
D11*
G36*
X209437504Y-105895704D02*
G01*
X209461773Y-105899304D01*
X209485571Y-105905265D01*
X209508671Y-105913530D01*
X209530849Y-105924020D01*
X209551893Y-105936633D01*
X209571598Y-105951247D01*
X209589777Y-105967723D01*
X209606253Y-105985902D01*
X209620867Y-106005607D01*
X209633480Y-106026651D01*
X209643970Y-106048829D01*
X209652235Y-106071929D01*
X209658196Y-106095727D01*
X209661796Y-106119996D01*
X209663000Y-106144500D01*
X209663000Y-107069500D01*
X209661796Y-107094004D01*
X209658196Y-107118273D01*
X209652235Y-107142071D01*
X209643970Y-107165171D01*
X209633480Y-107187349D01*
X209620867Y-107208393D01*
X209606253Y-107228098D01*
X209589777Y-107246277D01*
X209571598Y-107262753D01*
X209551893Y-107277367D01*
X209530849Y-107289980D01*
X209508671Y-107300470D01*
X209485571Y-107308735D01*
X209461773Y-107314696D01*
X209437504Y-107318296D01*
X209413000Y-107319500D01*
X208163000Y-107319500D01*
X208138496Y-107318296D01*
X208114227Y-107314696D01*
X208090429Y-107308735D01*
X208067329Y-107300470D01*
X208045151Y-107289980D01*
X208024107Y-107277367D01*
X208004402Y-107262753D01*
X207986223Y-107246277D01*
X207969747Y-107228098D01*
X207955133Y-107208393D01*
X207942520Y-107187349D01*
X207932030Y-107165171D01*
X207923765Y-107142071D01*
X207917804Y-107118273D01*
X207914204Y-107094004D01*
X207913000Y-107069500D01*
X207913000Y-106144500D01*
X207914204Y-106119996D01*
X207917804Y-106095727D01*
X207923765Y-106071929D01*
X207932030Y-106048829D01*
X207942520Y-106026651D01*
X207955133Y-106005607D01*
X207969747Y-105985902D01*
X207986223Y-105967723D01*
X208004402Y-105951247D01*
X208024107Y-105936633D01*
X208045151Y-105924020D01*
X208067329Y-105913530D01*
X208090429Y-105905265D01*
X208114227Y-105899304D01*
X208138496Y-105895704D01*
X208163000Y-105894500D01*
X209413000Y-105894500D01*
X209437504Y-105895704D01*
X209437504Y-105895704D01*
G37*
D12*
X208788000Y-106607000D03*
D11*
G36*
X201817504Y-71932704D02*
G01*
X201841773Y-71936304D01*
X201865571Y-71942265D01*
X201888671Y-71950530D01*
X201910849Y-71961020D01*
X201931893Y-71973633D01*
X201951598Y-71988247D01*
X201969777Y-72004723D01*
X201986253Y-72022902D01*
X202000867Y-72042607D01*
X202013480Y-72063651D01*
X202023970Y-72085829D01*
X202032235Y-72108929D01*
X202038196Y-72132727D01*
X202041796Y-72156996D01*
X202043000Y-72181500D01*
X202043000Y-73106500D01*
X202041796Y-73131004D01*
X202038196Y-73155273D01*
X202032235Y-73179071D01*
X202023970Y-73202171D01*
X202013480Y-73224349D01*
X202000867Y-73245393D01*
X201986253Y-73265098D01*
X201969777Y-73283277D01*
X201951598Y-73299753D01*
X201931893Y-73314367D01*
X201910849Y-73326980D01*
X201888671Y-73337470D01*
X201865571Y-73345735D01*
X201841773Y-73351696D01*
X201817504Y-73355296D01*
X201793000Y-73356500D01*
X200543000Y-73356500D01*
X200518496Y-73355296D01*
X200494227Y-73351696D01*
X200470429Y-73345735D01*
X200447329Y-73337470D01*
X200425151Y-73326980D01*
X200404107Y-73314367D01*
X200384402Y-73299753D01*
X200366223Y-73283277D01*
X200349747Y-73265098D01*
X200335133Y-73245393D01*
X200322520Y-73224349D01*
X200312030Y-73202171D01*
X200303765Y-73179071D01*
X200297804Y-73155273D01*
X200294204Y-73131004D01*
X200293000Y-73106500D01*
X200293000Y-72181500D01*
X200294204Y-72156996D01*
X200297804Y-72132727D01*
X200303765Y-72108929D01*
X200312030Y-72085829D01*
X200322520Y-72063651D01*
X200335133Y-72042607D01*
X200349747Y-72022902D01*
X200366223Y-72004723D01*
X200384402Y-71988247D01*
X200404107Y-71973633D01*
X200425151Y-71961020D01*
X200447329Y-71950530D01*
X200470429Y-71942265D01*
X200494227Y-71936304D01*
X200518496Y-71932704D01*
X200543000Y-71931500D01*
X201793000Y-71931500D01*
X201817504Y-71932704D01*
X201817504Y-71932704D01*
G37*
D12*
X201168000Y-72644000D03*
D11*
G36*
X201817504Y-74907704D02*
G01*
X201841773Y-74911304D01*
X201865571Y-74917265D01*
X201888671Y-74925530D01*
X201910849Y-74936020D01*
X201931893Y-74948633D01*
X201951598Y-74963247D01*
X201969777Y-74979723D01*
X201986253Y-74997902D01*
X202000867Y-75017607D01*
X202013480Y-75038651D01*
X202023970Y-75060829D01*
X202032235Y-75083929D01*
X202038196Y-75107727D01*
X202041796Y-75131996D01*
X202043000Y-75156500D01*
X202043000Y-76081500D01*
X202041796Y-76106004D01*
X202038196Y-76130273D01*
X202032235Y-76154071D01*
X202023970Y-76177171D01*
X202013480Y-76199349D01*
X202000867Y-76220393D01*
X201986253Y-76240098D01*
X201969777Y-76258277D01*
X201951598Y-76274753D01*
X201931893Y-76289367D01*
X201910849Y-76301980D01*
X201888671Y-76312470D01*
X201865571Y-76320735D01*
X201841773Y-76326696D01*
X201817504Y-76330296D01*
X201793000Y-76331500D01*
X200543000Y-76331500D01*
X200518496Y-76330296D01*
X200494227Y-76326696D01*
X200470429Y-76320735D01*
X200447329Y-76312470D01*
X200425151Y-76301980D01*
X200404107Y-76289367D01*
X200384402Y-76274753D01*
X200366223Y-76258277D01*
X200349747Y-76240098D01*
X200335133Y-76220393D01*
X200322520Y-76199349D01*
X200312030Y-76177171D01*
X200303765Y-76154071D01*
X200297804Y-76130273D01*
X200294204Y-76106004D01*
X200293000Y-76081500D01*
X200293000Y-75156500D01*
X200294204Y-75131996D01*
X200297804Y-75107727D01*
X200303765Y-75083929D01*
X200312030Y-75060829D01*
X200322520Y-75038651D01*
X200335133Y-75017607D01*
X200349747Y-74997902D01*
X200366223Y-74979723D01*
X200384402Y-74963247D01*
X200404107Y-74948633D01*
X200425151Y-74936020D01*
X200447329Y-74925530D01*
X200470429Y-74917265D01*
X200494227Y-74911304D01*
X200518496Y-74907704D01*
X200543000Y-74906500D01*
X201793000Y-74906500D01*
X201817504Y-74907704D01*
X201817504Y-74907704D01*
G37*
D12*
X201168000Y-75619000D03*
D11*
G36*
X166765504Y-68376704D02*
G01*
X166789773Y-68380304D01*
X166813571Y-68386265D01*
X166836671Y-68394530D01*
X166858849Y-68405020D01*
X166879893Y-68417633D01*
X166899598Y-68432247D01*
X166917777Y-68448723D01*
X166934253Y-68466902D01*
X166948867Y-68486607D01*
X166961480Y-68507651D01*
X166971970Y-68529829D01*
X166980235Y-68552929D01*
X166986196Y-68576727D01*
X166989796Y-68600996D01*
X166991000Y-68625500D01*
X166991000Y-69550500D01*
X166989796Y-69575004D01*
X166986196Y-69599273D01*
X166980235Y-69623071D01*
X166971970Y-69646171D01*
X166961480Y-69668349D01*
X166948867Y-69689393D01*
X166934253Y-69709098D01*
X166917777Y-69727277D01*
X166899598Y-69743753D01*
X166879893Y-69758367D01*
X166858849Y-69770980D01*
X166836671Y-69781470D01*
X166813571Y-69789735D01*
X166789773Y-69795696D01*
X166765504Y-69799296D01*
X166741000Y-69800500D01*
X165491000Y-69800500D01*
X165466496Y-69799296D01*
X165442227Y-69795696D01*
X165418429Y-69789735D01*
X165395329Y-69781470D01*
X165373151Y-69770980D01*
X165352107Y-69758367D01*
X165332402Y-69743753D01*
X165314223Y-69727277D01*
X165297747Y-69709098D01*
X165283133Y-69689393D01*
X165270520Y-69668349D01*
X165260030Y-69646171D01*
X165251765Y-69623071D01*
X165245804Y-69599273D01*
X165242204Y-69575004D01*
X165241000Y-69550500D01*
X165241000Y-68625500D01*
X165242204Y-68600996D01*
X165245804Y-68576727D01*
X165251765Y-68552929D01*
X165260030Y-68529829D01*
X165270520Y-68507651D01*
X165283133Y-68486607D01*
X165297747Y-68466902D01*
X165314223Y-68448723D01*
X165332402Y-68432247D01*
X165352107Y-68417633D01*
X165373151Y-68405020D01*
X165395329Y-68394530D01*
X165418429Y-68386265D01*
X165442227Y-68380304D01*
X165466496Y-68376704D01*
X165491000Y-68375500D01*
X166741000Y-68375500D01*
X166765504Y-68376704D01*
X166765504Y-68376704D01*
G37*
D12*
X166116000Y-69088000D03*
D11*
G36*
X166765504Y-65401704D02*
G01*
X166789773Y-65405304D01*
X166813571Y-65411265D01*
X166836671Y-65419530D01*
X166858849Y-65430020D01*
X166879893Y-65442633D01*
X166899598Y-65457247D01*
X166917777Y-65473723D01*
X166934253Y-65491902D01*
X166948867Y-65511607D01*
X166961480Y-65532651D01*
X166971970Y-65554829D01*
X166980235Y-65577929D01*
X166986196Y-65601727D01*
X166989796Y-65625996D01*
X166991000Y-65650500D01*
X166991000Y-66575500D01*
X166989796Y-66600004D01*
X166986196Y-66624273D01*
X166980235Y-66648071D01*
X166971970Y-66671171D01*
X166961480Y-66693349D01*
X166948867Y-66714393D01*
X166934253Y-66734098D01*
X166917777Y-66752277D01*
X166899598Y-66768753D01*
X166879893Y-66783367D01*
X166858849Y-66795980D01*
X166836671Y-66806470D01*
X166813571Y-66814735D01*
X166789773Y-66820696D01*
X166765504Y-66824296D01*
X166741000Y-66825500D01*
X165491000Y-66825500D01*
X165466496Y-66824296D01*
X165442227Y-66820696D01*
X165418429Y-66814735D01*
X165395329Y-66806470D01*
X165373151Y-66795980D01*
X165352107Y-66783367D01*
X165332402Y-66768753D01*
X165314223Y-66752277D01*
X165297747Y-66734098D01*
X165283133Y-66714393D01*
X165270520Y-66693349D01*
X165260030Y-66671171D01*
X165251765Y-66648071D01*
X165245804Y-66624273D01*
X165242204Y-66600004D01*
X165241000Y-66575500D01*
X165241000Y-65650500D01*
X165242204Y-65625996D01*
X165245804Y-65601727D01*
X165251765Y-65577929D01*
X165260030Y-65554829D01*
X165270520Y-65532651D01*
X165283133Y-65511607D01*
X165297747Y-65491902D01*
X165314223Y-65473723D01*
X165332402Y-65457247D01*
X165352107Y-65442633D01*
X165373151Y-65430020D01*
X165395329Y-65419530D01*
X165418429Y-65411265D01*
X165442227Y-65405304D01*
X165466496Y-65401704D01*
X165491000Y-65400500D01*
X166741000Y-65400500D01*
X166765504Y-65401704D01*
X166765504Y-65401704D01*
G37*
D12*
X166116000Y-66113000D03*
D11*
G36*
X173877504Y-68340204D02*
G01*
X173901773Y-68343804D01*
X173925571Y-68349765D01*
X173948671Y-68358030D01*
X173970849Y-68368520D01*
X173991893Y-68381133D01*
X174011598Y-68395747D01*
X174029777Y-68412223D01*
X174046253Y-68430402D01*
X174060867Y-68450107D01*
X174073480Y-68471151D01*
X174083970Y-68493329D01*
X174092235Y-68516429D01*
X174098196Y-68540227D01*
X174101796Y-68564496D01*
X174103000Y-68589000D01*
X174103000Y-69514000D01*
X174101796Y-69538504D01*
X174098196Y-69562773D01*
X174092235Y-69586571D01*
X174083970Y-69609671D01*
X174073480Y-69631849D01*
X174060867Y-69652893D01*
X174046253Y-69672598D01*
X174029777Y-69690777D01*
X174011598Y-69707253D01*
X173991893Y-69721867D01*
X173970849Y-69734480D01*
X173948671Y-69744970D01*
X173925571Y-69753235D01*
X173901773Y-69759196D01*
X173877504Y-69762796D01*
X173853000Y-69764000D01*
X172603000Y-69764000D01*
X172578496Y-69762796D01*
X172554227Y-69759196D01*
X172530429Y-69753235D01*
X172507329Y-69744970D01*
X172485151Y-69734480D01*
X172464107Y-69721867D01*
X172444402Y-69707253D01*
X172426223Y-69690777D01*
X172409747Y-69672598D01*
X172395133Y-69652893D01*
X172382520Y-69631849D01*
X172372030Y-69609671D01*
X172363765Y-69586571D01*
X172357804Y-69562773D01*
X172354204Y-69538504D01*
X172353000Y-69514000D01*
X172353000Y-68589000D01*
X172354204Y-68564496D01*
X172357804Y-68540227D01*
X172363765Y-68516429D01*
X172372030Y-68493329D01*
X172382520Y-68471151D01*
X172395133Y-68450107D01*
X172409747Y-68430402D01*
X172426223Y-68412223D01*
X172444402Y-68395747D01*
X172464107Y-68381133D01*
X172485151Y-68368520D01*
X172507329Y-68358030D01*
X172530429Y-68349765D01*
X172554227Y-68343804D01*
X172578496Y-68340204D01*
X172603000Y-68339000D01*
X173853000Y-68339000D01*
X173877504Y-68340204D01*
X173877504Y-68340204D01*
G37*
D12*
X173228000Y-69051500D03*
D11*
G36*
X173877504Y-65365204D02*
G01*
X173901773Y-65368804D01*
X173925571Y-65374765D01*
X173948671Y-65383030D01*
X173970849Y-65393520D01*
X173991893Y-65406133D01*
X174011598Y-65420747D01*
X174029777Y-65437223D01*
X174046253Y-65455402D01*
X174060867Y-65475107D01*
X174073480Y-65496151D01*
X174083970Y-65518329D01*
X174092235Y-65541429D01*
X174098196Y-65565227D01*
X174101796Y-65589496D01*
X174103000Y-65614000D01*
X174103000Y-66539000D01*
X174101796Y-66563504D01*
X174098196Y-66587773D01*
X174092235Y-66611571D01*
X174083970Y-66634671D01*
X174073480Y-66656849D01*
X174060867Y-66677893D01*
X174046253Y-66697598D01*
X174029777Y-66715777D01*
X174011598Y-66732253D01*
X173991893Y-66746867D01*
X173970849Y-66759480D01*
X173948671Y-66769970D01*
X173925571Y-66778235D01*
X173901773Y-66784196D01*
X173877504Y-66787796D01*
X173853000Y-66789000D01*
X172603000Y-66789000D01*
X172578496Y-66787796D01*
X172554227Y-66784196D01*
X172530429Y-66778235D01*
X172507329Y-66769970D01*
X172485151Y-66759480D01*
X172464107Y-66746867D01*
X172444402Y-66732253D01*
X172426223Y-66715777D01*
X172409747Y-66697598D01*
X172395133Y-66677893D01*
X172382520Y-66656849D01*
X172372030Y-66634671D01*
X172363765Y-66611571D01*
X172357804Y-66587773D01*
X172354204Y-66563504D01*
X172353000Y-66539000D01*
X172353000Y-65614000D01*
X172354204Y-65589496D01*
X172357804Y-65565227D01*
X172363765Y-65541429D01*
X172372030Y-65518329D01*
X172382520Y-65496151D01*
X172395133Y-65475107D01*
X172409747Y-65455402D01*
X172426223Y-65437223D01*
X172444402Y-65420747D01*
X172464107Y-65406133D01*
X172485151Y-65393520D01*
X172507329Y-65383030D01*
X172530429Y-65374765D01*
X172554227Y-65368804D01*
X172578496Y-65365204D01*
X172603000Y-65364000D01*
X173853000Y-65364000D01*
X173877504Y-65365204D01*
X173877504Y-65365204D01*
G37*
D12*
X173228000Y-66076500D03*
D11*
G36*
X209275004Y-98694204D02*
G01*
X209299273Y-98697804D01*
X209323071Y-98703765D01*
X209346171Y-98712030D01*
X209368349Y-98722520D01*
X209389393Y-98735133D01*
X209409098Y-98749747D01*
X209427277Y-98766223D01*
X209443753Y-98784402D01*
X209458367Y-98804107D01*
X209470980Y-98825151D01*
X209481470Y-98847329D01*
X209489735Y-98870429D01*
X209495696Y-98894227D01*
X209499296Y-98918496D01*
X209500500Y-98943000D01*
X209500500Y-100193000D01*
X209499296Y-100217504D01*
X209495696Y-100241773D01*
X209489735Y-100265571D01*
X209481470Y-100288671D01*
X209470980Y-100310849D01*
X209458367Y-100331893D01*
X209443753Y-100351598D01*
X209427277Y-100369777D01*
X209409098Y-100386253D01*
X209389393Y-100400867D01*
X209368349Y-100413480D01*
X209346171Y-100423970D01*
X209323071Y-100432235D01*
X209299273Y-100438196D01*
X209275004Y-100441796D01*
X209250500Y-100443000D01*
X208325500Y-100443000D01*
X208300996Y-100441796D01*
X208276727Y-100438196D01*
X208252929Y-100432235D01*
X208229829Y-100423970D01*
X208207651Y-100413480D01*
X208186607Y-100400867D01*
X208166902Y-100386253D01*
X208148723Y-100369777D01*
X208132247Y-100351598D01*
X208117633Y-100331893D01*
X208105020Y-100310849D01*
X208094530Y-100288671D01*
X208086265Y-100265571D01*
X208080304Y-100241773D01*
X208076704Y-100217504D01*
X208075500Y-100193000D01*
X208075500Y-98943000D01*
X208076704Y-98918496D01*
X208080304Y-98894227D01*
X208086265Y-98870429D01*
X208094530Y-98847329D01*
X208105020Y-98825151D01*
X208117633Y-98804107D01*
X208132247Y-98784402D01*
X208148723Y-98766223D01*
X208166902Y-98749747D01*
X208186607Y-98735133D01*
X208207651Y-98722520D01*
X208229829Y-98712030D01*
X208252929Y-98703765D01*
X208276727Y-98697804D01*
X208300996Y-98694204D01*
X208325500Y-98693000D01*
X209250500Y-98693000D01*
X209275004Y-98694204D01*
X209275004Y-98694204D01*
G37*
D12*
X208788000Y-99568000D03*
D11*
G36*
X206300004Y-98694204D02*
G01*
X206324273Y-98697804D01*
X206348071Y-98703765D01*
X206371171Y-98712030D01*
X206393349Y-98722520D01*
X206414393Y-98735133D01*
X206434098Y-98749747D01*
X206452277Y-98766223D01*
X206468753Y-98784402D01*
X206483367Y-98804107D01*
X206495980Y-98825151D01*
X206506470Y-98847329D01*
X206514735Y-98870429D01*
X206520696Y-98894227D01*
X206524296Y-98918496D01*
X206525500Y-98943000D01*
X206525500Y-100193000D01*
X206524296Y-100217504D01*
X206520696Y-100241773D01*
X206514735Y-100265571D01*
X206506470Y-100288671D01*
X206495980Y-100310849D01*
X206483367Y-100331893D01*
X206468753Y-100351598D01*
X206452277Y-100369777D01*
X206434098Y-100386253D01*
X206414393Y-100400867D01*
X206393349Y-100413480D01*
X206371171Y-100423970D01*
X206348071Y-100432235D01*
X206324273Y-100438196D01*
X206300004Y-100441796D01*
X206275500Y-100443000D01*
X205350500Y-100443000D01*
X205325996Y-100441796D01*
X205301727Y-100438196D01*
X205277929Y-100432235D01*
X205254829Y-100423970D01*
X205232651Y-100413480D01*
X205211607Y-100400867D01*
X205191902Y-100386253D01*
X205173723Y-100369777D01*
X205157247Y-100351598D01*
X205142633Y-100331893D01*
X205130020Y-100310849D01*
X205119530Y-100288671D01*
X205111265Y-100265571D01*
X205105304Y-100241773D01*
X205101704Y-100217504D01*
X205100500Y-100193000D01*
X205100500Y-98943000D01*
X205101704Y-98918496D01*
X205105304Y-98894227D01*
X205111265Y-98870429D01*
X205119530Y-98847329D01*
X205130020Y-98825151D01*
X205142633Y-98804107D01*
X205157247Y-98784402D01*
X205173723Y-98766223D01*
X205191902Y-98749747D01*
X205211607Y-98735133D01*
X205232651Y-98722520D01*
X205254829Y-98712030D01*
X205277929Y-98703765D01*
X205301727Y-98697804D01*
X205325996Y-98694204D01*
X205350500Y-98693000D01*
X206275500Y-98693000D01*
X206300004Y-98694204D01*
X206300004Y-98694204D01*
G37*
D12*
X205813000Y-99568000D03*
D11*
G36*
X187085504Y-67324204D02*
G01*
X187109773Y-67327804D01*
X187133571Y-67333765D01*
X187156671Y-67342030D01*
X187178849Y-67352520D01*
X187199893Y-67365133D01*
X187219598Y-67379747D01*
X187237777Y-67396223D01*
X187254253Y-67414402D01*
X187268867Y-67434107D01*
X187281480Y-67455151D01*
X187291970Y-67477329D01*
X187300235Y-67500429D01*
X187306196Y-67524227D01*
X187309796Y-67548496D01*
X187311000Y-67573000D01*
X187311000Y-68498000D01*
X187309796Y-68522504D01*
X187306196Y-68546773D01*
X187300235Y-68570571D01*
X187291970Y-68593671D01*
X187281480Y-68615849D01*
X187268867Y-68636893D01*
X187254253Y-68656598D01*
X187237777Y-68674777D01*
X187219598Y-68691253D01*
X187199893Y-68705867D01*
X187178849Y-68718480D01*
X187156671Y-68728970D01*
X187133571Y-68737235D01*
X187109773Y-68743196D01*
X187085504Y-68746796D01*
X187061000Y-68748000D01*
X185811000Y-68748000D01*
X185786496Y-68746796D01*
X185762227Y-68743196D01*
X185738429Y-68737235D01*
X185715329Y-68728970D01*
X185693151Y-68718480D01*
X185672107Y-68705867D01*
X185652402Y-68691253D01*
X185634223Y-68674777D01*
X185617747Y-68656598D01*
X185603133Y-68636893D01*
X185590520Y-68615849D01*
X185580030Y-68593671D01*
X185571765Y-68570571D01*
X185565804Y-68546773D01*
X185562204Y-68522504D01*
X185561000Y-68498000D01*
X185561000Y-67573000D01*
X185562204Y-67548496D01*
X185565804Y-67524227D01*
X185571765Y-67500429D01*
X185580030Y-67477329D01*
X185590520Y-67455151D01*
X185603133Y-67434107D01*
X185617747Y-67414402D01*
X185634223Y-67396223D01*
X185652402Y-67379747D01*
X185672107Y-67365133D01*
X185693151Y-67352520D01*
X185715329Y-67342030D01*
X185738429Y-67333765D01*
X185762227Y-67327804D01*
X185786496Y-67324204D01*
X185811000Y-67323000D01*
X187061000Y-67323000D01*
X187085504Y-67324204D01*
X187085504Y-67324204D01*
G37*
D12*
X186436000Y-68035500D03*
D11*
G36*
X187085504Y-64349204D02*
G01*
X187109773Y-64352804D01*
X187133571Y-64358765D01*
X187156671Y-64367030D01*
X187178849Y-64377520D01*
X187199893Y-64390133D01*
X187219598Y-64404747D01*
X187237777Y-64421223D01*
X187254253Y-64439402D01*
X187268867Y-64459107D01*
X187281480Y-64480151D01*
X187291970Y-64502329D01*
X187300235Y-64525429D01*
X187306196Y-64549227D01*
X187309796Y-64573496D01*
X187311000Y-64598000D01*
X187311000Y-65523000D01*
X187309796Y-65547504D01*
X187306196Y-65571773D01*
X187300235Y-65595571D01*
X187291970Y-65618671D01*
X187281480Y-65640849D01*
X187268867Y-65661893D01*
X187254253Y-65681598D01*
X187237777Y-65699777D01*
X187219598Y-65716253D01*
X187199893Y-65730867D01*
X187178849Y-65743480D01*
X187156671Y-65753970D01*
X187133571Y-65762235D01*
X187109773Y-65768196D01*
X187085504Y-65771796D01*
X187061000Y-65773000D01*
X185811000Y-65773000D01*
X185786496Y-65771796D01*
X185762227Y-65768196D01*
X185738429Y-65762235D01*
X185715329Y-65753970D01*
X185693151Y-65743480D01*
X185672107Y-65730867D01*
X185652402Y-65716253D01*
X185634223Y-65699777D01*
X185617747Y-65681598D01*
X185603133Y-65661893D01*
X185590520Y-65640849D01*
X185580030Y-65618671D01*
X185571765Y-65595571D01*
X185565804Y-65571773D01*
X185562204Y-65547504D01*
X185561000Y-65523000D01*
X185561000Y-64598000D01*
X185562204Y-64573496D01*
X185565804Y-64549227D01*
X185571765Y-64525429D01*
X185580030Y-64502329D01*
X185590520Y-64480151D01*
X185603133Y-64459107D01*
X185617747Y-64439402D01*
X185634223Y-64421223D01*
X185652402Y-64404747D01*
X185672107Y-64390133D01*
X185693151Y-64377520D01*
X185715329Y-64367030D01*
X185738429Y-64358765D01*
X185762227Y-64352804D01*
X185786496Y-64349204D01*
X185811000Y-64348000D01*
X187061000Y-64348000D01*
X187085504Y-64349204D01*
X187085504Y-64349204D01*
G37*
D12*
X186436000Y-65060500D03*
D11*
G36*
X162193504Y-65401704D02*
G01*
X162217773Y-65405304D01*
X162241571Y-65411265D01*
X162264671Y-65419530D01*
X162286849Y-65430020D01*
X162307893Y-65442633D01*
X162327598Y-65457247D01*
X162345777Y-65473723D01*
X162362253Y-65491902D01*
X162376867Y-65511607D01*
X162389480Y-65532651D01*
X162399970Y-65554829D01*
X162408235Y-65577929D01*
X162414196Y-65601727D01*
X162417796Y-65625996D01*
X162419000Y-65650500D01*
X162419000Y-66575500D01*
X162417796Y-66600004D01*
X162414196Y-66624273D01*
X162408235Y-66648071D01*
X162399970Y-66671171D01*
X162389480Y-66693349D01*
X162376867Y-66714393D01*
X162362253Y-66734098D01*
X162345777Y-66752277D01*
X162327598Y-66768753D01*
X162307893Y-66783367D01*
X162286849Y-66795980D01*
X162264671Y-66806470D01*
X162241571Y-66814735D01*
X162217773Y-66820696D01*
X162193504Y-66824296D01*
X162169000Y-66825500D01*
X160919000Y-66825500D01*
X160894496Y-66824296D01*
X160870227Y-66820696D01*
X160846429Y-66814735D01*
X160823329Y-66806470D01*
X160801151Y-66795980D01*
X160780107Y-66783367D01*
X160760402Y-66768753D01*
X160742223Y-66752277D01*
X160725747Y-66734098D01*
X160711133Y-66714393D01*
X160698520Y-66693349D01*
X160688030Y-66671171D01*
X160679765Y-66648071D01*
X160673804Y-66624273D01*
X160670204Y-66600004D01*
X160669000Y-66575500D01*
X160669000Y-65650500D01*
X160670204Y-65625996D01*
X160673804Y-65601727D01*
X160679765Y-65577929D01*
X160688030Y-65554829D01*
X160698520Y-65532651D01*
X160711133Y-65511607D01*
X160725747Y-65491902D01*
X160742223Y-65473723D01*
X160760402Y-65457247D01*
X160780107Y-65442633D01*
X160801151Y-65430020D01*
X160823329Y-65419530D01*
X160846429Y-65411265D01*
X160870227Y-65405304D01*
X160894496Y-65401704D01*
X160919000Y-65400500D01*
X162169000Y-65400500D01*
X162193504Y-65401704D01*
X162193504Y-65401704D01*
G37*
D12*
X161544000Y-66113000D03*
D11*
G36*
X162193504Y-68376704D02*
G01*
X162217773Y-68380304D01*
X162241571Y-68386265D01*
X162264671Y-68394530D01*
X162286849Y-68405020D01*
X162307893Y-68417633D01*
X162327598Y-68432247D01*
X162345777Y-68448723D01*
X162362253Y-68466902D01*
X162376867Y-68486607D01*
X162389480Y-68507651D01*
X162399970Y-68529829D01*
X162408235Y-68552929D01*
X162414196Y-68576727D01*
X162417796Y-68600996D01*
X162419000Y-68625500D01*
X162419000Y-69550500D01*
X162417796Y-69575004D01*
X162414196Y-69599273D01*
X162408235Y-69623071D01*
X162399970Y-69646171D01*
X162389480Y-69668349D01*
X162376867Y-69689393D01*
X162362253Y-69709098D01*
X162345777Y-69727277D01*
X162327598Y-69743753D01*
X162307893Y-69758367D01*
X162286849Y-69770980D01*
X162264671Y-69781470D01*
X162241571Y-69789735D01*
X162217773Y-69795696D01*
X162193504Y-69799296D01*
X162169000Y-69800500D01*
X160919000Y-69800500D01*
X160894496Y-69799296D01*
X160870227Y-69795696D01*
X160846429Y-69789735D01*
X160823329Y-69781470D01*
X160801151Y-69770980D01*
X160780107Y-69758367D01*
X160760402Y-69743753D01*
X160742223Y-69727277D01*
X160725747Y-69709098D01*
X160711133Y-69689393D01*
X160698520Y-69668349D01*
X160688030Y-69646171D01*
X160679765Y-69623071D01*
X160673804Y-69599273D01*
X160670204Y-69575004D01*
X160669000Y-69550500D01*
X160669000Y-68625500D01*
X160670204Y-68600996D01*
X160673804Y-68576727D01*
X160679765Y-68552929D01*
X160688030Y-68529829D01*
X160698520Y-68507651D01*
X160711133Y-68486607D01*
X160725747Y-68466902D01*
X160742223Y-68448723D01*
X160760402Y-68432247D01*
X160780107Y-68417633D01*
X160801151Y-68405020D01*
X160823329Y-68394530D01*
X160846429Y-68386265D01*
X160870227Y-68380304D01*
X160894496Y-68376704D01*
X160919000Y-68375500D01*
X162169000Y-68375500D01*
X162193504Y-68376704D01*
X162193504Y-68376704D01*
G37*
D12*
X161544000Y-69088000D03*
D11*
G36*
X170321504Y-65401704D02*
G01*
X170345773Y-65405304D01*
X170369571Y-65411265D01*
X170392671Y-65419530D01*
X170414849Y-65430020D01*
X170435893Y-65442633D01*
X170455598Y-65457247D01*
X170473777Y-65473723D01*
X170490253Y-65491902D01*
X170504867Y-65511607D01*
X170517480Y-65532651D01*
X170527970Y-65554829D01*
X170536235Y-65577929D01*
X170542196Y-65601727D01*
X170545796Y-65625996D01*
X170547000Y-65650500D01*
X170547000Y-66575500D01*
X170545796Y-66600004D01*
X170542196Y-66624273D01*
X170536235Y-66648071D01*
X170527970Y-66671171D01*
X170517480Y-66693349D01*
X170504867Y-66714393D01*
X170490253Y-66734098D01*
X170473777Y-66752277D01*
X170455598Y-66768753D01*
X170435893Y-66783367D01*
X170414849Y-66795980D01*
X170392671Y-66806470D01*
X170369571Y-66814735D01*
X170345773Y-66820696D01*
X170321504Y-66824296D01*
X170297000Y-66825500D01*
X169047000Y-66825500D01*
X169022496Y-66824296D01*
X168998227Y-66820696D01*
X168974429Y-66814735D01*
X168951329Y-66806470D01*
X168929151Y-66795980D01*
X168908107Y-66783367D01*
X168888402Y-66768753D01*
X168870223Y-66752277D01*
X168853747Y-66734098D01*
X168839133Y-66714393D01*
X168826520Y-66693349D01*
X168816030Y-66671171D01*
X168807765Y-66648071D01*
X168801804Y-66624273D01*
X168798204Y-66600004D01*
X168797000Y-66575500D01*
X168797000Y-65650500D01*
X168798204Y-65625996D01*
X168801804Y-65601727D01*
X168807765Y-65577929D01*
X168816030Y-65554829D01*
X168826520Y-65532651D01*
X168839133Y-65511607D01*
X168853747Y-65491902D01*
X168870223Y-65473723D01*
X168888402Y-65457247D01*
X168908107Y-65442633D01*
X168929151Y-65430020D01*
X168951329Y-65419530D01*
X168974429Y-65411265D01*
X168998227Y-65405304D01*
X169022496Y-65401704D01*
X169047000Y-65400500D01*
X170297000Y-65400500D01*
X170321504Y-65401704D01*
X170321504Y-65401704D01*
G37*
D12*
X169672000Y-66113000D03*
D11*
G36*
X170321504Y-68376704D02*
G01*
X170345773Y-68380304D01*
X170369571Y-68386265D01*
X170392671Y-68394530D01*
X170414849Y-68405020D01*
X170435893Y-68417633D01*
X170455598Y-68432247D01*
X170473777Y-68448723D01*
X170490253Y-68466902D01*
X170504867Y-68486607D01*
X170517480Y-68507651D01*
X170527970Y-68529829D01*
X170536235Y-68552929D01*
X170542196Y-68576727D01*
X170545796Y-68600996D01*
X170547000Y-68625500D01*
X170547000Y-69550500D01*
X170545796Y-69575004D01*
X170542196Y-69599273D01*
X170536235Y-69623071D01*
X170527970Y-69646171D01*
X170517480Y-69668349D01*
X170504867Y-69689393D01*
X170490253Y-69709098D01*
X170473777Y-69727277D01*
X170455598Y-69743753D01*
X170435893Y-69758367D01*
X170414849Y-69770980D01*
X170392671Y-69781470D01*
X170369571Y-69789735D01*
X170345773Y-69795696D01*
X170321504Y-69799296D01*
X170297000Y-69800500D01*
X169047000Y-69800500D01*
X169022496Y-69799296D01*
X168998227Y-69795696D01*
X168974429Y-69789735D01*
X168951329Y-69781470D01*
X168929151Y-69770980D01*
X168908107Y-69758367D01*
X168888402Y-69743753D01*
X168870223Y-69727277D01*
X168853747Y-69709098D01*
X168839133Y-69689393D01*
X168826520Y-69668349D01*
X168816030Y-69646171D01*
X168807765Y-69623071D01*
X168801804Y-69599273D01*
X168798204Y-69575004D01*
X168797000Y-69550500D01*
X168797000Y-68625500D01*
X168798204Y-68600996D01*
X168801804Y-68576727D01*
X168807765Y-68552929D01*
X168816030Y-68529829D01*
X168826520Y-68507651D01*
X168839133Y-68486607D01*
X168853747Y-68466902D01*
X168870223Y-68448723D01*
X168888402Y-68432247D01*
X168908107Y-68417633D01*
X168929151Y-68405020D01*
X168951329Y-68394530D01*
X168974429Y-68386265D01*
X168998227Y-68380304D01*
X169022496Y-68376704D01*
X169047000Y-68375500D01*
X170297000Y-68375500D01*
X170321504Y-68376704D01*
X170321504Y-68376704D01*
G37*
D12*
X169672000Y-69088000D03*
D11*
G36*
X211977504Y-102957204D02*
G01*
X212001773Y-102960804D01*
X212025571Y-102966765D01*
X212048671Y-102975030D01*
X212070849Y-102985520D01*
X212091893Y-102998133D01*
X212111598Y-103012747D01*
X212129777Y-103029223D01*
X212146253Y-103047402D01*
X212160867Y-103067107D01*
X212173480Y-103088151D01*
X212183970Y-103110329D01*
X212192235Y-103133429D01*
X212198196Y-103157227D01*
X212201796Y-103181496D01*
X212203000Y-103206000D01*
X212203000Y-104131000D01*
X212201796Y-104155504D01*
X212198196Y-104179773D01*
X212192235Y-104203571D01*
X212183970Y-104226671D01*
X212173480Y-104248849D01*
X212160867Y-104269893D01*
X212146253Y-104289598D01*
X212129777Y-104307777D01*
X212111598Y-104324253D01*
X212091893Y-104338867D01*
X212070849Y-104351480D01*
X212048671Y-104361970D01*
X212025571Y-104370235D01*
X212001773Y-104376196D01*
X211977504Y-104379796D01*
X211953000Y-104381000D01*
X210703000Y-104381000D01*
X210678496Y-104379796D01*
X210654227Y-104376196D01*
X210630429Y-104370235D01*
X210607329Y-104361970D01*
X210585151Y-104351480D01*
X210564107Y-104338867D01*
X210544402Y-104324253D01*
X210526223Y-104307777D01*
X210509747Y-104289598D01*
X210495133Y-104269893D01*
X210482520Y-104248849D01*
X210472030Y-104226671D01*
X210463765Y-104203571D01*
X210457804Y-104179773D01*
X210454204Y-104155504D01*
X210453000Y-104131000D01*
X210453000Y-103206000D01*
X210454204Y-103181496D01*
X210457804Y-103157227D01*
X210463765Y-103133429D01*
X210472030Y-103110329D01*
X210482520Y-103088151D01*
X210495133Y-103067107D01*
X210509747Y-103047402D01*
X210526223Y-103029223D01*
X210544402Y-103012747D01*
X210564107Y-102998133D01*
X210585151Y-102985520D01*
X210607329Y-102975030D01*
X210630429Y-102966765D01*
X210654227Y-102960804D01*
X210678496Y-102957204D01*
X210703000Y-102956000D01*
X211953000Y-102956000D01*
X211977504Y-102957204D01*
X211977504Y-102957204D01*
G37*
D12*
X211328000Y-103668500D03*
D11*
G36*
X211977504Y-105932204D02*
G01*
X212001773Y-105935804D01*
X212025571Y-105941765D01*
X212048671Y-105950030D01*
X212070849Y-105960520D01*
X212091893Y-105973133D01*
X212111598Y-105987747D01*
X212129777Y-106004223D01*
X212146253Y-106022402D01*
X212160867Y-106042107D01*
X212173480Y-106063151D01*
X212183970Y-106085329D01*
X212192235Y-106108429D01*
X212198196Y-106132227D01*
X212201796Y-106156496D01*
X212203000Y-106181000D01*
X212203000Y-107106000D01*
X212201796Y-107130504D01*
X212198196Y-107154773D01*
X212192235Y-107178571D01*
X212183970Y-107201671D01*
X212173480Y-107223849D01*
X212160867Y-107244893D01*
X212146253Y-107264598D01*
X212129777Y-107282777D01*
X212111598Y-107299253D01*
X212091893Y-107313867D01*
X212070849Y-107326480D01*
X212048671Y-107336970D01*
X212025571Y-107345235D01*
X212001773Y-107351196D01*
X211977504Y-107354796D01*
X211953000Y-107356000D01*
X210703000Y-107356000D01*
X210678496Y-107354796D01*
X210654227Y-107351196D01*
X210630429Y-107345235D01*
X210607329Y-107336970D01*
X210585151Y-107326480D01*
X210564107Y-107313867D01*
X210544402Y-107299253D01*
X210526223Y-107282777D01*
X210509747Y-107264598D01*
X210495133Y-107244893D01*
X210482520Y-107223849D01*
X210472030Y-107201671D01*
X210463765Y-107178571D01*
X210457804Y-107154773D01*
X210454204Y-107130504D01*
X210453000Y-107106000D01*
X210453000Y-106181000D01*
X210454204Y-106156496D01*
X210457804Y-106132227D01*
X210463765Y-106108429D01*
X210472030Y-106085329D01*
X210482520Y-106063151D01*
X210495133Y-106042107D01*
X210509747Y-106022402D01*
X210526223Y-106004223D01*
X210544402Y-105987747D01*
X210564107Y-105973133D01*
X210585151Y-105960520D01*
X210607329Y-105950030D01*
X210630429Y-105941765D01*
X210654227Y-105935804D01*
X210678496Y-105932204D01*
X210703000Y-105931000D01*
X211953000Y-105931000D01*
X211977504Y-105932204D01*
X211977504Y-105932204D01*
G37*
D12*
X211328000Y-106643500D03*
D11*
G36*
X177433504Y-65401704D02*
G01*
X177457773Y-65405304D01*
X177481571Y-65411265D01*
X177504671Y-65419530D01*
X177526849Y-65430020D01*
X177547893Y-65442633D01*
X177567598Y-65457247D01*
X177585777Y-65473723D01*
X177602253Y-65491902D01*
X177616867Y-65511607D01*
X177629480Y-65532651D01*
X177639970Y-65554829D01*
X177648235Y-65577929D01*
X177654196Y-65601727D01*
X177657796Y-65625996D01*
X177659000Y-65650500D01*
X177659000Y-66575500D01*
X177657796Y-66600004D01*
X177654196Y-66624273D01*
X177648235Y-66648071D01*
X177639970Y-66671171D01*
X177629480Y-66693349D01*
X177616867Y-66714393D01*
X177602253Y-66734098D01*
X177585777Y-66752277D01*
X177567598Y-66768753D01*
X177547893Y-66783367D01*
X177526849Y-66795980D01*
X177504671Y-66806470D01*
X177481571Y-66814735D01*
X177457773Y-66820696D01*
X177433504Y-66824296D01*
X177409000Y-66825500D01*
X176159000Y-66825500D01*
X176134496Y-66824296D01*
X176110227Y-66820696D01*
X176086429Y-66814735D01*
X176063329Y-66806470D01*
X176041151Y-66795980D01*
X176020107Y-66783367D01*
X176000402Y-66768753D01*
X175982223Y-66752277D01*
X175965747Y-66734098D01*
X175951133Y-66714393D01*
X175938520Y-66693349D01*
X175928030Y-66671171D01*
X175919765Y-66648071D01*
X175913804Y-66624273D01*
X175910204Y-66600004D01*
X175909000Y-66575500D01*
X175909000Y-65650500D01*
X175910204Y-65625996D01*
X175913804Y-65601727D01*
X175919765Y-65577929D01*
X175928030Y-65554829D01*
X175938520Y-65532651D01*
X175951133Y-65511607D01*
X175965747Y-65491902D01*
X175982223Y-65473723D01*
X176000402Y-65457247D01*
X176020107Y-65442633D01*
X176041151Y-65430020D01*
X176063329Y-65419530D01*
X176086429Y-65411265D01*
X176110227Y-65405304D01*
X176134496Y-65401704D01*
X176159000Y-65400500D01*
X177409000Y-65400500D01*
X177433504Y-65401704D01*
X177433504Y-65401704D01*
G37*
D12*
X176784000Y-66113000D03*
D11*
G36*
X177433504Y-68376704D02*
G01*
X177457773Y-68380304D01*
X177481571Y-68386265D01*
X177504671Y-68394530D01*
X177526849Y-68405020D01*
X177547893Y-68417633D01*
X177567598Y-68432247D01*
X177585777Y-68448723D01*
X177602253Y-68466902D01*
X177616867Y-68486607D01*
X177629480Y-68507651D01*
X177639970Y-68529829D01*
X177648235Y-68552929D01*
X177654196Y-68576727D01*
X177657796Y-68600996D01*
X177659000Y-68625500D01*
X177659000Y-69550500D01*
X177657796Y-69575004D01*
X177654196Y-69599273D01*
X177648235Y-69623071D01*
X177639970Y-69646171D01*
X177629480Y-69668349D01*
X177616867Y-69689393D01*
X177602253Y-69709098D01*
X177585777Y-69727277D01*
X177567598Y-69743753D01*
X177547893Y-69758367D01*
X177526849Y-69770980D01*
X177504671Y-69781470D01*
X177481571Y-69789735D01*
X177457773Y-69795696D01*
X177433504Y-69799296D01*
X177409000Y-69800500D01*
X176159000Y-69800500D01*
X176134496Y-69799296D01*
X176110227Y-69795696D01*
X176086429Y-69789735D01*
X176063329Y-69781470D01*
X176041151Y-69770980D01*
X176020107Y-69758367D01*
X176000402Y-69743753D01*
X175982223Y-69727277D01*
X175965747Y-69709098D01*
X175951133Y-69689393D01*
X175938520Y-69668349D01*
X175928030Y-69646171D01*
X175919765Y-69623071D01*
X175913804Y-69599273D01*
X175910204Y-69575004D01*
X175909000Y-69550500D01*
X175909000Y-68625500D01*
X175910204Y-68600996D01*
X175913804Y-68576727D01*
X175919765Y-68552929D01*
X175928030Y-68529829D01*
X175938520Y-68507651D01*
X175951133Y-68486607D01*
X175965747Y-68466902D01*
X175982223Y-68448723D01*
X176000402Y-68432247D01*
X176020107Y-68417633D01*
X176041151Y-68405020D01*
X176063329Y-68394530D01*
X176086429Y-68386265D01*
X176110227Y-68380304D01*
X176134496Y-68376704D01*
X176159000Y-68375500D01*
X177409000Y-68375500D01*
X177433504Y-68376704D01*
X177433504Y-68376704D01*
G37*
D12*
X176784000Y-69088000D03*
D15*
X215290000Y-101224000D03*
X221590000Y-101224000D03*
X215290000Y-105024000D03*
X221590000Y-105024000D03*
D11*
G36*
X220613504Y-84669204D02*
G01*
X220637773Y-84672804D01*
X220661571Y-84678765D01*
X220684671Y-84687030D01*
X220706849Y-84697520D01*
X220727893Y-84710133D01*
X220747598Y-84724747D01*
X220765777Y-84741223D01*
X220782253Y-84759402D01*
X220796867Y-84779107D01*
X220809480Y-84800151D01*
X220819970Y-84822329D01*
X220828235Y-84845429D01*
X220834196Y-84869227D01*
X220837796Y-84893496D01*
X220839000Y-84918000D01*
X220839000Y-85843000D01*
X220837796Y-85867504D01*
X220834196Y-85891773D01*
X220828235Y-85915571D01*
X220819970Y-85938671D01*
X220809480Y-85960849D01*
X220796867Y-85981893D01*
X220782253Y-86001598D01*
X220765777Y-86019777D01*
X220747598Y-86036253D01*
X220727893Y-86050867D01*
X220706849Y-86063480D01*
X220684671Y-86073970D01*
X220661571Y-86082235D01*
X220637773Y-86088196D01*
X220613504Y-86091796D01*
X220589000Y-86093000D01*
X219339000Y-86093000D01*
X219314496Y-86091796D01*
X219290227Y-86088196D01*
X219266429Y-86082235D01*
X219243329Y-86073970D01*
X219221151Y-86063480D01*
X219200107Y-86050867D01*
X219180402Y-86036253D01*
X219162223Y-86019777D01*
X219145747Y-86001598D01*
X219131133Y-85981893D01*
X219118520Y-85960849D01*
X219108030Y-85938671D01*
X219099765Y-85915571D01*
X219093804Y-85891773D01*
X219090204Y-85867504D01*
X219089000Y-85843000D01*
X219089000Y-84918000D01*
X219090204Y-84893496D01*
X219093804Y-84869227D01*
X219099765Y-84845429D01*
X219108030Y-84822329D01*
X219118520Y-84800151D01*
X219131133Y-84779107D01*
X219145747Y-84759402D01*
X219162223Y-84741223D01*
X219180402Y-84724747D01*
X219200107Y-84710133D01*
X219221151Y-84697520D01*
X219243329Y-84687030D01*
X219266429Y-84678765D01*
X219290227Y-84672804D01*
X219314496Y-84669204D01*
X219339000Y-84668000D01*
X220589000Y-84668000D01*
X220613504Y-84669204D01*
X220613504Y-84669204D01*
G37*
D12*
X219964000Y-85380500D03*
D11*
G36*
X220613504Y-87644204D02*
G01*
X220637773Y-87647804D01*
X220661571Y-87653765D01*
X220684671Y-87662030D01*
X220706849Y-87672520D01*
X220727893Y-87685133D01*
X220747598Y-87699747D01*
X220765777Y-87716223D01*
X220782253Y-87734402D01*
X220796867Y-87754107D01*
X220809480Y-87775151D01*
X220819970Y-87797329D01*
X220828235Y-87820429D01*
X220834196Y-87844227D01*
X220837796Y-87868496D01*
X220839000Y-87893000D01*
X220839000Y-88818000D01*
X220837796Y-88842504D01*
X220834196Y-88866773D01*
X220828235Y-88890571D01*
X220819970Y-88913671D01*
X220809480Y-88935849D01*
X220796867Y-88956893D01*
X220782253Y-88976598D01*
X220765777Y-88994777D01*
X220747598Y-89011253D01*
X220727893Y-89025867D01*
X220706849Y-89038480D01*
X220684671Y-89048970D01*
X220661571Y-89057235D01*
X220637773Y-89063196D01*
X220613504Y-89066796D01*
X220589000Y-89068000D01*
X219339000Y-89068000D01*
X219314496Y-89066796D01*
X219290227Y-89063196D01*
X219266429Y-89057235D01*
X219243329Y-89048970D01*
X219221151Y-89038480D01*
X219200107Y-89025867D01*
X219180402Y-89011253D01*
X219162223Y-88994777D01*
X219145747Y-88976598D01*
X219131133Y-88956893D01*
X219118520Y-88935849D01*
X219108030Y-88913671D01*
X219099765Y-88890571D01*
X219093804Y-88866773D01*
X219090204Y-88842504D01*
X219089000Y-88818000D01*
X219089000Y-87893000D01*
X219090204Y-87868496D01*
X219093804Y-87844227D01*
X219099765Y-87820429D01*
X219108030Y-87797329D01*
X219118520Y-87775151D01*
X219131133Y-87754107D01*
X219145747Y-87734402D01*
X219162223Y-87716223D01*
X219180402Y-87699747D01*
X219200107Y-87685133D01*
X219221151Y-87672520D01*
X219243329Y-87662030D01*
X219266429Y-87653765D01*
X219290227Y-87647804D01*
X219314496Y-87644204D01*
X219339000Y-87643000D01*
X220589000Y-87643000D01*
X220613504Y-87644204D01*
X220613504Y-87644204D01*
G37*
D12*
X219964000Y-88355500D03*
D11*
G36*
X221503504Y-79390204D02*
G01*
X221527773Y-79393804D01*
X221551571Y-79399765D01*
X221574671Y-79408030D01*
X221596849Y-79418520D01*
X221617893Y-79431133D01*
X221637598Y-79445747D01*
X221655777Y-79462223D01*
X221672253Y-79480402D01*
X221686867Y-79500107D01*
X221699480Y-79521151D01*
X221709970Y-79543329D01*
X221718235Y-79566429D01*
X221724196Y-79590227D01*
X221727796Y-79614496D01*
X221729000Y-79639000D01*
X221729000Y-80889000D01*
X221727796Y-80913504D01*
X221724196Y-80937773D01*
X221718235Y-80961571D01*
X221709970Y-80984671D01*
X221699480Y-81006849D01*
X221686867Y-81027893D01*
X221672253Y-81047598D01*
X221655777Y-81065777D01*
X221637598Y-81082253D01*
X221617893Y-81096867D01*
X221596849Y-81109480D01*
X221574671Y-81119970D01*
X221551571Y-81128235D01*
X221527773Y-81134196D01*
X221503504Y-81137796D01*
X221479000Y-81139000D01*
X220554000Y-81139000D01*
X220529496Y-81137796D01*
X220505227Y-81134196D01*
X220481429Y-81128235D01*
X220458329Y-81119970D01*
X220436151Y-81109480D01*
X220415107Y-81096867D01*
X220395402Y-81082253D01*
X220377223Y-81065777D01*
X220360747Y-81047598D01*
X220346133Y-81027893D01*
X220333520Y-81006849D01*
X220323030Y-80984671D01*
X220314765Y-80961571D01*
X220308804Y-80937773D01*
X220305204Y-80913504D01*
X220304000Y-80889000D01*
X220304000Y-79639000D01*
X220305204Y-79614496D01*
X220308804Y-79590227D01*
X220314765Y-79566429D01*
X220323030Y-79543329D01*
X220333520Y-79521151D01*
X220346133Y-79500107D01*
X220360747Y-79480402D01*
X220377223Y-79462223D01*
X220395402Y-79445747D01*
X220415107Y-79431133D01*
X220436151Y-79418520D01*
X220458329Y-79408030D01*
X220481429Y-79399765D01*
X220505227Y-79393804D01*
X220529496Y-79390204D01*
X220554000Y-79389000D01*
X221479000Y-79389000D01*
X221503504Y-79390204D01*
X221503504Y-79390204D01*
G37*
D12*
X221016500Y-80264000D03*
D11*
G36*
X224478504Y-79390204D02*
G01*
X224502773Y-79393804D01*
X224526571Y-79399765D01*
X224549671Y-79408030D01*
X224571849Y-79418520D01*
X224592893Y-79431133D01*
X224612598Y-79445747D01*
X224630777Y-79462223D01*
X224647253Y-79480402D01*
X224661867Y-79500107D01*
X224674480Y-79521151D01*
X224684970Y-79543329D01*
X224693235Y-79566429D01*
X224699196Y-79590227D01*
X224702796Y-79614496D01*
X224704000Y-79639000D01*
X224704000Y-80889000D01*
X224702796Y-80913504D01*
X224699196Y-80937773D01*
X224693235Y-80961571D01*
X224684970Y-80984671D01*
X224674480Y-81006849D01*
X224661867Y-81027893D01*
X224647253Y-81047598D01*
X224630777Y-81065777D01*
X224612598Y-81082253D01*
X224592893Y-81096867D01*
X224571849Y-81109480D01*
X224549671Y-81119970D01*
X224526571Y-81128235D01*
X224502773Y-81134196D01*
X224478504Y-81137796D01*
X224454000Y-81139000D01*
X223529000Y-81139000D01*
X223504496Y-81137796D01*
X223480227Y-81134196D01*
X223456429Y-81128235D01*
X223433329Y-81119970D01*
X223411151Y-81109480D01*
X223390107Y-81096867D01*
X223370402Y-81082253D01*
X223352223Y-81065777D01*
X223335747Y-81047598D01*
X223321133Y-81027893D01*
X223308520Y-81006849D01*
X223298030Y-80984671D01*
X223289765Y-80961571D01*
X223283804Y-80937773D01*
X223280204Y-80913504D01*
X223279000Y-80889000D01*
X223279000Y-79639000D01*
X223280204Y-79614496D01*
X223283804Y-79590227D01*
X223289765Y-79566429D01*
X223298030Y-79543329D01*
X223308520Y-79521151D01*
X223321133Y-79500107D01*
X223335747Y-79480402D01*
X223352223Y-79462223D01*
X223370402Y-79445747D01*
X223390107Y-79431133D01*
X223411151Y-79418520D01*
X223433329Y-79408030D01*
X223456429Y-79399765D01*
X223480227Y-79393804D01*
X223504496Y-79390204D01*
X223529000Y-79389000D01*
X224454000Y-79389000D01*
X224478504Y-79390204D01*
X224478504Y-79390204D01*
G37*
D12*
X223991500Y-80264000D03*
D11*
G36*
X223027504Y-92598204D02*
G01*
X223051773Y-92601804D01*
X223075571Y-92607765D01*
X223098671Y-92616030D01*
X223120849Y-92626520D01*
X223141893Y-92639133D01*
X223161598Y-92653747D01*
X223179777Y-92670223D01*
X223196253Y-92688402D01*
X223210867Y-92708107D01*
X223223480Y-92729151D01*
X223233970Y-92751329D01*
X223242235Y-92774429D01*
X223248196Y-92798227D01*
X223251796Y-92822496D01*
X223253000Y-92847000D01*
X223253000Y-94097000D01*
X223251796Y-94121504D01*
X223248196Y-94145773D01*
X223242235Y-94169571D01*
X223233970Y-94192671D01*
X223223480Y-94214849D01*
X223210867Y-94235893D01*
X223196253Y-94255598D01*
X223179777Y-94273777D01*
X223161598Y-94290253D01*
X223141893Y-94304867D01*
X223120849Y-94317480D01*
X223098671Y-94327970D01*
X223075571Y-94336235D01*
X223051773Y-94342196D01*
X223027504Y-94345796D01*
X223003000Y-94347000D01*
X222078000Y-94347000D01*
X222053496Y-94345796D01*
X222029227Y-94342196D01*
X222005429Y-94336235D01*
X221982329Y-94327970D01*
X221960151Y-94317480D01*
X221939107Y-94304867D01*
X221919402Y-94290253D01*
X221901223Y-94273777D01*
X221884747Y-94255598D01*
X221870133Y-94235893D01*
X221857520Y-94214849D01*
X221847030Y-94192671D01*
X221838765Y-94169571D01*
X221832804Y-94145773D01*
X221829204Y-94121504D01*
X221828000Y-94097000D01*
X221828000Y-92847000D01*
X221829204Y-92822496D01*
X221832804Y-92798227D01*
X221838765Y-92774429D01*
X221847030Y-92751329D01*
X221857520Y-92729151D01*
X221870133Y-92708107D01*
X221884747Y-92688402D01*
X221901223Y-92670223D01*
X221919402Y-92653747D01*
X221939107Y-92639133D01*
X221960151Y-92626520D01*
X221982329Y-92616030D01*
X222005429Y-92607765D01*
X222029227Y-92601804D01*
X222053496Y-92598204D01*
X222078000Y-92597000D01*
X223003000Y-92597000D01*
X223027504Y-92598204D01*
X223027504Y-92598204D01*
G37*
D12*
X222540500Y-93472000D03*
D11*
G36*
X226002504Y-92598204D02*
G01*
X226026773Y-92601804D01*
X226050571Y-92607765D01*
X226073671Y-92616030D01*
X226095849Y-92626520D01*
X226116893Y-92639133D01*
X226136598Y-92653747D01*
X226154777Y-92670223D01*
X226171253Y-92688402D01*
X226185867Y-92708107D01*
X226198480Y-92729151D01*
X226208970Y-92751329D01*
X226217235Y-92774429D01*
X226223196Y-92798227D01*
X226226796Y-92822496D01*
X226228000Y-92847000D01*
X226228000Y-94097000D01*
X226226796Y-94121504D01*
X226223196Y-94145773D01*
X226217235Y-94169571D01*
X226208970Y-94192671D01*
X226198480Y-94214849D01*
X226185867Y-94235893D01*
X226171253Y-94255598D01*
X226154777Y-94273777D01*
X226136598Y-94290253D01*
X226116893Y-94304867D01*
X226095849Y-94317480D01*
X226073671Y-94327970D01*
X226050571Y-94336235D01*
X226026773Y-94342196D01*
X226002504Y-94345796D01*
X225978000Y-94347000D01*
X225053000Y-94347000D01*
X225028496Y-94345796D01*
X225004227Y-94342196D01*
X224980429Y-94336235D01*
X224957329Y-94327970D01*
X224935151Y-94317480D01*
X224914107Y-94304867D01*
X224894402Y-94290253D01*
X224876223Y-94273777D01*
X224859747Y-94255598D01*
X224845133Y-94235893D01*
X224832520Y-94214849D01*
X224822030Y-94192671D01*
X224813765Y-94169571D01*
X224807804Y-94145773D01*
X224804204Y-94121504D01*
X224803000Y-94097000D01*
X224803000Y-92847000D01*
X224804204Y-92822496D01*
X224807804Y-92798227D01*
X224813765Y-92774429D01*
X224822030Y-92751329D01*
X224832520Y-92729151D01*
X224845133Y-92708107D01*
X224859747Y-92688402D01*
X224876223Y-92670223D01*
X224894402Y-92653747D01*
X224914107Y-92639133D01*
X224935151Y-92626520D01*
X224957329Y-92616030D01*
X224980429Y-92607765D01*
X225004227Y-92601804D01*
X225028496Y-92598204D01*
X225053000Y-92597000D01*
X225978000Y-92597000D01*
X226002504Y-92598204D01*
X226002504Y-92598204D01*
G37*
D12*
X225515500Y-93472000D03*
D11*
G36*
X194197504Y-73493204D02*
G01*
X194221773Y-73496804D01*
X194245571Y-73502765D01*
X194268671Y-73511030D01*
X194290849Y-73521520D01*
X194311893Y-73534133D01*
X194331598Y-73548747D01*
X194349777Y-73565223D01*
X194366253Y-73583402D01*
X194380867Y-73603107D01*
X194393480Y-73624151D01*
X194403970Y-73646329D01*
X194412235Y-73669429D01*
X194418196Y-73693227D01*
X194421796Y-73717496D01*
X194423000Y-73742000D01*
X194423000Y-74667000D01*
X194421796Y-74691504D01*
X194418196Y-74715773D01*
X194412235Y-74739571D01*
X194403970Y-74762671D01*
X194393480Y-74784849D01*
X194380867Y-74805893D01*
X194366253Y-74825598D01*
X194349777Y-74843777D01*
X194331598Y-74860253D01*
X194311893Y-74874867D01*
X194290849Y-74887480D01*
X194268671Y-74897970D01*
X194245571Y-74906235D01*
X194221773Y-74912196D01*
X194197504Y-74915796D01*
X194173000Y-74917000D01*
X192923000Y-74917000D01*
X192898496Y-74915796D01*
X192874227Y-74912196D01*
X192850429Y-74906235D01*
X192827329Y-74897970D01*
X192805151Y-74887480D01*
X192784107Y-74874867D01*
X192764402Y-74860253D01*
X192746223Y-74843777D01*
X192729747Y-74825598D01*
X192715133Y-74805893D01*
X192702520Y-74784849D01*
X192692030Y-74762671D01*
X192683765Y-74739571D01*
X192677804Y-74715773D01*
X192674204Y-74691504D01*
X192673000Y-74667000D01*
X192673000Y-73742000D01*
X192674204Y-73717496D01*
X192677804Y-73693227D01*
X192683765Y-73669429D01*
X192692030Y-73646329D01*
X192702520Y-73624151D01*
X192715133Y-73603107D01*
X192729747Y-73583402D01*
X192746223Y-73565223D01*
X192764402Y-73548747D01*
X192784107Y-73534133D01*
X192805151Y-73521520D01*
X192827329Y-73511030D01*
X192850429Y-73502765D01*
X192874227Y-73496804D01*
X192898496Y-73493204D01*
X192923000Y-73492000D01*
X194173000Y-73492000D01*
X194197504Y-73493204D01*
X194197504Y-73493204D01*
G37*
D12*
X193548000Y-74204500D03*
D11*
G36*
X194197504Y-76468204D02*
G01*
X194221773Y-76471804D01*
X194245571Y-76477765D01*
X194268671Y-76486030D01*
X194290849Y-76496520D01*
X194311893Y-76509133D01*
X194331598Y-76523747D01*
X194349777Y-76540223D01*
X194366253Y-76558402D01*
X194380867Y-76578107D01*
X194393480Y-76599151D01*
X194403970Y-76621329D01*
X194412235Y-76644429D01*
X194418196Y-76668227D01*
X194421796Y-76692496D01*
X194423000Y-76717000D01*
X194423000Y-77642000D01*
X194421796Y-77666504D01*
X194418196Y-77690773D01*
X194412235Y-77714571D01*
X194403970Y-77737671D01*
X194393480Y-77759849D01*
X194380867Y-77780893D01*
X194366253Y-77800598D01*
X194349777Y-77818777D01*
X194331598Y-77835253D01*
X194311893Y-77849867D01*
X194290849Y-77862480D01*
X194268671Y-77872970D01*
X194245571Y-77881235D01*
X194221773Y-77887196D01*
X194197504Y-77890796D01*
X194173000Y-77892000D01*
X192923000Y-77892000D01*
X192898496Y-77890796D01*
X192874227Y-77887196D01*
X192850429Y-77881235D01*
X192827329Y-77872970D01*
X192805151Y-77862480D01*
X192784107Y-77849867D01*
X192764402Y-77835253D01*
X192746223Y-77818777D01*
X192729747Y-77800598D01*
X192715133Y-77780893D01*
X192702520Y-77759849D01*
X192692030Y-77737671D01*
X192683765Y-77714571D01*
X192677804Y-77690773D01*
X192674204Y-77666504D01*
X192673000Y-77642000D01*
X192673000Y-76717000D01*
X192674204Y-76692496D01*
X192677804Y-76668227D01*
X192683765Y-76644429D01*
X192692030Y-76621329D01*
X192702520Y-76599151D01*
X192715133Y-76578107D01*
X192729747Y-76558402D01*
X192746223Y-76540223D01*
X192764402Y-76523747D01*
X192784107Y-76509133D01*
X192805151Y-76496520D01*
X192827329Y-76486030D01*
X192850429Y-76477765D01*
X192874227Y-76471804D01*
X192898496Y-76468204D01*
X192923000Y-76467000D01*
X194173000Y-76467000D01*
X194197504Y-76468204D01*
X194197504Y-76468204D01*
G37*
D12*
X193548000Y-77179500D03*
D11*
G36*
X197245504Y-73493204D02*
G01*
X197269773Y-73496804D01*
X197293571Y-73502765D01*
X197316671Y-73511030D01*
X197338849Y-73521520D01*
X197359893Y-73534133D01*
X197379598Y-73548747D01*
X197397777Y-73565223D01*
X197414253Y-73583402D01*
X197428867Y-73603107D01*
X197441480Y-73624151D01*
X197451970Y-73646329D01*
X197460235Y-73669429D01*
X197466196Y-73693227D01*
X197469796Y-73717496D01*
X197471000Y-73742000D01*
X197471000Y-74667000D01*
X197469796Y-74691504D01*
X197466196Y-74715773D01*
X197460235Y-74739571D01*
X197451970Y-74762671D01*
X197441480Y-74784849D01*
X197428867Y-74805893D01*
X197414253Y-74825598D01*
X197397777Y-74843777D01*
X197379598Y-74860253D01*
X197359893Y-74874867D01*
X197338849Y-74887480D01*
X197316671Y-74897970D01*
X197293571Y-74906235D01*
X197269773Y-74912196D01*
X197245504Y-74915796D01*
X197221000Y-74917000D01*
X195971000Y-74917000D01*
X195946496Y-74915796D01*
X195922227Y-74912196D01*
X195898429Y-74906235D01*
X195875329Y-74897970D01*
X195853151Y-74887480D01*
X195832107Y-74874867D01*
X195812402Y-74860253D01*
X195794223Y-74843777D01*
X195777747Y-74825598D01*
X195763133Y-74805893D01*
X195750520Y-74784849D01*
X195740030Y-74762671D01*
X195731765Y-74739571D01*
X195725804Y-74715773D01*
X195722204Y-74691504D01*
X195721000Y-74667000D01*
X195721000Y-73742000D01*
X195722204Y-73717496D01*
X195725804Y-73693227D01*
X195731765Y-73669429D01*
X195740030Y-73646329D01*
X195750520Y-73624151D01*
X195763133Y-73603107D01*
X195777747Y-73583402D01*
X195794223Y-73565223D01*
X195812402Y-73548747D01*
X195832107Y-73534133D01*
X195853151Y-73521520D01*
X195875329Y-73511030D01*
X195898429Y-73502765D01*
X195922227Y-73496804D01*
X195946496Y-73493204D01*
X195971000Y-73492000D01*
X197221000Y-73492000D01*
X197245504Y-73493204D01*
X197245504Y-73493204D01*
G37*
D12*
X196596000Y-74204500D03*
D11*
G36*
X197245504Y-76468204D02*
G01*
X197269773Y-76471804D01*
X197293571Y-76477765D01*
X197316671Y-76486030D01*
X197338849Y-76496520D01*
X197359893Y-76509133D01*
X197379598Y-76523747D01*
X197397777Y-76540223D01*
X197414253Y-76558402D01*
X197428867Y-76578107D01*
X197441480Y-76599151D01*
X197451970Y-76621329D01*
X197460235Y-76644429D01*
X197466196Y-76668227D01*
X197469796Y-76692496D01*
X197471000Y-76717000D01*
X197471000Y-77642000D01*
X197469796Y-77666504D01*
X197466196Y-77690773D01*
X197460235Y-77714571D01*
X197451970Y-77737671D01*
X197441480Y-77759849D01*
X197428867Y-77780893D01*
X197414253Y-77800598D01*
X197397777Y-77818777D01*
X197379598Y-77835253D01*
X197359893Y-77849867D01*
X197338849Y-77862480D01*
X197316671Y-77872970D01*
X197293571Y-77881235D01*
X197269773Y-77887196D01*
X197245504Y-77890796D01*
X197221000Y-77892000D01*
X195971000Y-77892000D01*
X195946496Y-77890796D01*
X195922227Y-77887196D01*
X195898429Y-77881235D01*
X195875329Y-77872970D01*
X195853151Y-77862480D01*
X195832107Y-77849867D01*
X195812402Y-77835253D01*
X195794223Y-77818777D01*
X195777747Y-77800598D01*
X195763133Y-77780893D01*
X195750520Y-77759849D01*
X195740030Y-77737671D01*
X195731765Y-77714571D01*
X195725804Y-77690773D01*
X195722204Y-77666504D01*
X195721000Y-77642000D01*
X195721000Y-76717000D01*
X195722204Y-76692496D01*
X195725804Y-76668227D01*
X195731765Y-76644429D01*
X195740030Y-76621329D01*
X195750520Y-76599151D01*
X195763133Y-76578107D01*
X195777747Y-76558402D01*
X195794223Y-76540223D01*
X195812402Y-76523747D01*
X195832107Y-76509133D01*
X195853151Y-76496520D01*
X195875329Y-76486030D01*
X195898429Y-76477765D01*
X195922227Y-76471804D01*
X195946496Y-76468204D01*
X195971000Y-76467000D01*
X197221000Y-76467000D01*
X197245504Y-76468204D01*
X197245504Y-76468204D01*
G37*
D12*
X196596000Y-77179500D03*
D11*
G36*
X242965504Y-91236704D02*
G01*
X242989773Y-91240304D01*
X243013571Y-91246265D01*
X243036671Y-91254530D01*
X243058849Y-91265020D01*
X243079893Y-91277633D01*
X243099598Y-91292247D01*
X243117777Y-91308723D01*
X243134253Y-91326902D01*
X243148867Y-91346607D01*
X243161480Y-91367651D01*
X243171970Y-91389829D01*
X243180235Y-91412929D01*
X243186196Y-91436727D01*
X243189796Y-91460996D01*
X243191000Y-91485500D01*
X243191000Y-92410500D01*
X243189796Y-92435004D01*
X243186196Y-92459273D01*
X243180235Y-92483071D01*
X243171970Y-92506171D01*
X243161480Y-92528349D01*
X243148867Y-92549393D01*
X243134253Y-92569098D01*
X243117777Y-92587277D01*
X243099598Y-92603753D01*
X243079893Y-92618367D01*
X243058849Y-92630980D01*
X243036671Y-92641470D01*
X243013571Y-92649735D01*
X242989773Y-92655696D01*
X242965504Y-92659296D01*
X242941000Y-92660500D01*
X241691000Y-92660500D01*
X241666496Y-92659296D01*
X241642227Y-92655696D01*
X241618429Y-92649735D01*
X241595329Y-92641470D01*
X241573151Y-92630980D01*
X241552107Y-92618367D01*
X241532402Y-92603753D01*
X241514223Y-92587277D01*
X241497747Y-92569098D01*
X241483133Y-92549393D01*
X241470520Y-92528349D01*
X241460030Y-92506171D01*
X241451765Y-92483071D01*
X241445804Y-92459273D01*
X241442204Y-92435004D01*
X241441000Y-92410500D01*
X241441000Y-91485500D01*
X241442204Y-91460996D01*
X241445804Y-91436727D01*
X241451765Y-91412929D01*
X241460030Y-91389829D01*
X241470520Y-91367651D01*
X241483133Y-91346607D01*
X241497747Y-91326902D01*
X241514223Y-91308723D01*
X241532402Y-91292247D01*
X241552107Y-91277633D01*
X241573151Y-91265020D01*
X241595329Y-91254530D01*
X241618429Y-91246265D01*
X241642227Y-91240304D01*
X241666496Y-91236704D01*
X241691000Y-91235500D01*
X242941000Y-91235500D01*
X242965504Y-91236704D01*
X242965504Y-91236704D01*
G37*
D12*
X242316000Y-91948000D03*
D11*
G36*
X242965504Y-88261704D02*
G01*
X242989773Y-88265304D01*
X243013571Y-88271265D01*
X243036671Y-88279530D01*
X243058849Y-88290020D01*
X243079893Y-88302633D01*
X243099598Y-88317247D01*
X243117777Y-88333723D01*
X243134253Y-88351902D01*
X243148867Y-88371607D01*
X243161480Y-88392651D01*
X243171970Y-88414829D01*
X243180235Y-88437929D01*
X243186196Y-88461727D01*
X243189796Y-88485996D01*
X243191000Y-88510500D01*
X243191000Y-89435500D01*
X243189796Y-89460004D01*
X243186196Y-89484273D01*
X243180235Y-89508071D01*
X243171970Y-89531171D01*
X243161480Y-89553349D01*
X243148867Y-89574393D01*
X243134253Y-89594098D01*
X243117777Y-89612277D01*
X243099598Y-89628753D01*
X243079893Y-89643367D01*
X243058849Y-89655980D01*
X243036671Y-89666470D01*
X243013571Y-89674735D01*
X242989773Y-89680696D01*
X242965504Y-89684296D01*
X242941000Y-89685500D01*
X241691000Y-89685500D01*
X241666496Y-89684296D01*
X241642227Y-89680696D01*
X241618429Y-89674735D01*
X241595329Y-89666470D01*
X241573151Y-89655980D01*
X241552107Y-89643367D01*
X241532402Y-89628753D01*
X241514223Y-89612277D01*
X241497747Y-89594098D01*
X241483133Y-89574393D01*
X241470520Y-89553349D01*
X241460030Y-89531171D01*
X241451765Y-89508071D01*
X241445804Y-89484273D01*
X241442204Y-89460004D01*
X241441000Y-89435500D01*
X241441000Y-88510500D01*
X241442204Y-88485996D01*
X241445804Y-88461727D01*
X241451765Y-88437929D01*
X241460030Y-88414829D01*
X241470520Y-88392651D01*
X241483133Y-88371607D01*
X241497747Y-88351902D01*
X241514223Y-88333723D01*
X241532402Y-88317247D01*
X241552107Y-88302633D01*
X241573151Y-88290020D01*
X241595329Y-88279530D01*
X241618429Y-88271265D01*
X241642227Y-88265304D01*
X241666496Y-88261704D01*
X241691000Y-88260500D01*
X242941000Y-88260500D01*
X242965504Y-88261704D01*
X242965504Y-88261704D01*
G37*
D12*
X242316000Y-88973000D03*
D11*
G36*
X236924504Y-95138204D02*
G01*
X236948773Y-95141804D01*
X236972571Y-95147765D01*
X236995671Y-95156030D01*
X237017849Y-95166520D01*
X237038893Y-95179133D01*
X237058598Y-95193747D01*
X237076777Y-95210223D01*
X237093253Y-95228402D01*
X237107867Y-95248107D01*
X237120480Y-95269151D01*
X237130970Y-95291329D01*
X237139235Y-95314429D01*
X237145196Y-95338227D01*
X237148796Y-95362496D01*
X237150000Y-95387000D01*
X237150000Y-96637000D01*
X237148796Y-96661504D01*
X237145196Y-96685773D01*
X237139235Y-96709571D01*
X237130970Y-96732671D01*
X237120480Y-96754849D01*
X237107867Y-96775893D01*
X237093253Y-96795598D01*
X237076777Y-96813777D01*
X237058598Y-96830253D01*
X237038893Y-96844867D01*
X237017849Y-96857480D01*
X236995671Y-96867970D01*
X236972571Y-96876235D01*
X236948773Y-96882196D01*
X236924504Y-96885796D01*
X236900000Y-96887000D01*
X235975000Y-96887000D01*
X235950496Y-96885796D01*
X235926227Y-96882196D01*
X235902429Y-96876235D01*
X235879329Y-96867970D01*
X235857151Y-96857480D01*
X235836107Y-96844867D01*
X235816402Y-96830253D01*
X235798223Y-96813777D01*
X235781747Y-96795598D01*
X235767133Y-96775893D01*
X235754520Y-96754849D01*
X235744030Y-96732671D01*
X235735765Y-96709571D01*
X235729804Y-96685773D01*
X235726204Y-96661504D01*
X235725000Y-96637000D01*
X235725000Y-95387000D01*
X235726204Y-95362496D01*
X235729804Y-95338227D01*
X235735765Y-95314429D01*
X235744030Y-95291329D01*
X235754520Y-95269151D01*
X235767133Y-95248107D01*
X235781747Y-95228402D01*
X235798223Y-95210223D01*
X235816402Y-95193747D01*
X235836107Y-95179133D01*
X235857151Y-95166520D01*
X235879329Y-95156030D01*
X235902429Y-95147765D01*
X235926227Y-95141804D01*
X235950496Y-95138204D01*
X235975000Y-95137000D01*
X236900000Y-95137000D01*
X236924504Y-95138204D01*
X236924504Y-95138204D01*
G37*
D12*
X236437500Y-96012000D03*
D11*
G36*
X233949504Y-95138204D02*
G01*
X233973773Y-95141804D01*
X233997571Y-95147765D01*
X234020671Y-95156030D01*
X234042849Y-95166520D01*
X234063893Y-95179133D01*
X234083598Y-95193747D01*
X234101777Y-95210223D01*
X234118253Y-95228402D01*
X234132867Y-95248107D01*
X234145480Y-95269151D01*
X234155970Y-95291329D01*
X234164235Y-95314429D01*
X234170196Y-95338227D01*
X234173796Y-95362496D01*
X234175000Y-95387000D01*
X234175000Y-96637000D01*
X234173796Y-96661504D01*
X234170196Y-96685773D01*
X234164235Y-96709571D01*
X234155970Y-96732671D01*
X234145480Y-96754849D01*
X234132867Y-96775893D01*
X234118253Y-96795598D01*
X234101777Y-96813777D01*
X234083598Y-96830253D01*
X234063893Y-96844867D01*
X234042849Y-96857480D01*
X234020671Y-96867970D01*
X233997571Y-96876235D01*
X233973773Y-96882196D01*
X233949504Y-96885796D01*
X233925000Y-96887000D01*
X233000000Y-96887000D01*
X232975496Y-96885796D01*
X232951227Y-96882196D01*
X232927429Y-96876235D01*
X232904329Y-96867970D01*
X232882151Y-96857480D01*
X232861107Y-96844867D01*
X232841402Y-96830253D01*
X232823223Y-96813777D01*
X232806747Y-96795598D01*
X232792133Y-96775893D01*
X232779520Y-96754849D01*
X232769030Y-96732671D01*
X232760765Y-96709571D01*
X232754804Y-96685773D01*
X232751204Y-96661504D01*
X232750000Y-96637000D01*
X232750000Y-95387000D01*
X232751204Y-95362496D01*
X232754804Y-95338227D01*
X232760765Y-95314429D01*
X232769030Y-95291329D01*
X232779520Y-95269151D01*
X232792133Y-95248107D01*
X232806747Y-95228402D01*
X232823223Y-95210223D01*
X232841402Y-95193747D01*
X232861107Y-95179133D01*
X232882151Y-95166520D01*
X232904329Y-95156030D01*
X232927429Y-95147765D01*
X232951227Y-95141804D01*
X232975496Y-95138204D01*
X233000000Y-95137000D01*
X233925000Y-95137000D01*
X233949504Y-95138204D01*
X233949504Y-95138204D01*
G37*
D12*
X233462500Y-96012000D03*
D11*
G36*
X200801504Y-105968704D02*
G01*
X200825773Y-105972304D01*
X200849571Y-105978265D01*
X200872671Y-105986530D01*
X200894849Y-105997020D01*
X200915893Y-106009633D01*
X200935598Y-106024247D01*
X200953777Y-106040723D01*
X200970253Y-106058902D01*
X200984867Y-106078607D01*
X200997480Y-106099651D01*
X201007970Y-106121829D01*
X201016235Y-106144929D01*
X201022196Y-106168727D01*
X201025796Y-106192996D01*
X201027000Y-106217500D01*
X201027000Y-107142500D01*
X201025796Y-107167004D01*
X201022196Y-107191273D01*
X201016235Y-107215071D01*
X201007970Y-107238171D01*
X200997480Y-107260349D01*
X200984867Y-107281393D01*
X200970253Y-107301098D01*
X200953777Y-107319277D01*
X200935598Y-107335753D01*
X200915893Y-107350367D01*
X200894849Y-107362980D01*
X200872671Y-107373470D01*
X200849571Y-107381735D01*
X200825773Y-107387696D01*
X200801504Y-107391296D01*
X200777000Y-107392500D01*
X199527000Y-107392500D01*
X199502496Y-107391296D01*
X199478227Y-107387696D01*
X199454429Y-107381735D01*
X199431329Y-107373470D01*
X199409151Y-107362980D01*
X199388107Y-107350367D01*
X199368402Y-107335753D01*
X199350223Y-107319277D01*
X199333747Y-107301098D01*
X199319133Y-107281393D01*
X199306520Y-107260349D01*
X199296030Y-107238171D01*
X199287765Y-107215071D01*
X199281804Y-107191273D01*
X199278204Y-107167004D01*
X199277000Y-107142500D01*
X199277000Y-106217500D01*
X199278204Y-106192996D01*
X199281804Y-106168727D01*
X199287765Y-106144929D01*
X199296030Y-106121829D01*
X199306520Y-106099651D01*
X199319133Y-106078607D01*
X199333747Y-106058902D01*
X199350223Y-106040723D01*
X199368402Y-106024247D01*
X199388107Y-106009633D01*
X199409151Y-105997020D01*
X199431329Y-105986530D01*
X199454429Y-105978265D01*
X199478227Y-105972304D01*
X199502496Y-105968704D01*
X199527000Y-105967500D01*
X200777000Y-105967500D01*
X200801504Y-105968704D01*
X200801504Y-105968704D01*
G37*
D12*
X200152000Y-106680000D03*
D11*
G36*
X200801504Y-102993704D02*
G01*
X200825773Y-102997304D01*
X200849571Y-103003265D01*
X200872671Y-103011530D01*
X200894849Y-103022020D01*
X200915893Y-103034633D01*
X200935598Y-103049247D01*
X200953777Y-103065723D01*
X200970253Y-103083902D01*
X200984867Y-103103607D01*
X200997480Y-103124651D01*
X201007970Y-103146829D01*
X201016235Y-103169929D01*
X201022196Y-103193727D01*
X201025796Y-103217996D01*
X201027000Y-103242500D01*
X201027000Y-104167500D01*
X201025796Y-104192004D01*
X201022196Y-104216273D01*
X201016235Y-104240071D01*
X201007970Y-104263171D01*
X200997480Y-104285349D01*
X200984867Y-104306393D01*
X200970253Y-104326098D01*
X200953777Y-104344277D01*
X200935598Y-104360753D01*
X200915893Y-104375367D01*
X200894849Y-104387980D01*
X200872671Y-104398470D01*
X200849571Y-104406735D01*
X200825773Y-104412696D01*
X200801504Y-104416296D01*
X200777000Y-104417500D01*
X199527000Y-104417500D01*
X199502496Y-104416296D01*
X199478227Y-104412696D01*
X199454429Y-104406735D01*
X199431329Y-104398470D01*
X199409151Y-104387980D01*
X199388107Y-104375367D01*
X199368402Y-104360753D01*
X199350223Y-104344277D01*
X199333747Y-104326098D01*
X199319133Y-104306393D01*
X199306520Y-104285349D01*
X199296030Y-104263171D01*
X199287765Y-104240071D01*
X199281804Y-104216273D01*
X199278204Y-104192004D01*
X199277000Y-104167500D01*
X199277000Y-103242500D01*
X199278204Y-103217996D01*
X199281804Y-103193727D01*
X199287765Y-103169929D01*
X199296030Y-103146829D01*
X199306520Y-103124651D01*
X199319133Y-103103607D01*
X199333747Y-103083902D01*
X199350223Y-103065723D01*
X199368402Y-103049247D01*
X199388107Y-103034633D01*
X199409151Y-103022020D01*
X199431329Y-103011530D01*
X199454429Y-103003265D01*
X199478227Y-102997304D01*
X199502496Y-102993704D01*
X199527000Y-102992500D01*
X200777000Y-102992500D01*
X200801504Y-102993704D01*
X200801504Y-102993704D01*
G37*
D12*
X200152000Y-103705000D03*
D11*
G36*
X234130504Y-73802204D02*
G01*
X234154773Y-73805804D01*
X234178571Y-73811765D01*
X234201671Y-73820030D01*
X234223849Y-73830520D01*
X234244893Y-73843133D01*
X234264598Y-73857747D01*
X234282777Y-73874223D01*
X234299253Y-73892402D01*
X234313867Y-73912107D01*
X234326480Y-73933151D01*
X234336970Y-73955329D01*
X234345235Y-73978429D01*
X234351196Y-74002227D01*
X234354796Y-74026496D01*
X234356000Y-74051000D01*
X234356000Y-75301000D01*
X234354796Y-75325504D01*
X234351196Y-75349773D01*
X234345235Y-75373571D01*
X234336970Y-75396671D01*
X234326480Y-75418849D01*
X234313867Y-75439893D01*
X234299253Y-75459598D01*
X234282777Y-75477777D01*
X234264598Y-75494253D01*
X234244893Y-75508867D01*
X234223849Y-75521480D01*
X234201671Y-75531970D01*
X234178571Y-75540235D01*
X234154773Y-75546196D01*
X234130504Y-75549796D01*
X234106000Y-75551000D01*
X233181000Y-75551000D01*
X233156496Y-75549796D01*
X233132227Y-75546196D01*
X233108429Y-75540235D01*
X233085329Y-75531970D01*
X233063151Y-75521480D01*
X233042107Y-75508867D01*
X233022402Y-75494253D01*
X233004223Y-75477777D01*
X232987747Y-75459598D01*
X232973133Y-75439893D01*
X232960520Y-75418849D01*
X232950030Y-75396671D01*
X232941765Y-75373571D01*
X232935804Y-75349773D01*
X232932204Y-75325504D01*
X232931000Y-75301000D01*
X232931000Y-74051000D01*
X232932204Y-74026496D01*
X232935804Y-74002227D01*
X232941765Y-73978429D01*
X232950030Y-73955329D01*
X232960520Y-73933151D01*
X232973133Y-73912107D01*
X232987747Y-73892402D01*
X233004223Y-73874223D01*
X233022402Y-73857747D01*
X233042107Y-73843133D01*
X233063151Y-73830520D01*
X233085329Y-73820030D01*
X233108429Y-73811765D01*
X233132227Y-73805804D01*
X233156496Y-73802204D01*
X233181000Y-73801000D01*
X234106000Y-73801000D01*
X234130504Y-73802204D01*
X234130504Y-73802204D01*
G37*
D12*
X233643500Y-74676000D03*
D11*
G36*
X231155504Y-73802204D02*
G01*
X231179773Y-73805804D01*
X231203571Y-73811765D01*
X231226671Y-73820030D01*
X231248849Y-73830520D01*
X231269893Y-73843133D01*
X231289598Y-73857747D01*
X231307777Y-73874223D01*
X231324253Y-73892402D01*
X231338867Y-73912107D01*
X231351480Y-73933151D01*
X231361970Y-73955329D01*
X231370235Y-73978429D01*
X231376196Y-74002227D01*
X231379796Y-74026496D01*
X231381000Y-74051000D01*
X231381000Y-75301000D01*
X231379796Y-75325504D01*
X231376196Y-75349773D01*
X231370235Y-75373571D01*
X231361970Y-75396671D01*
X231351480Y-75418849D01*
X231338867Y-75439893D01*
X231324253Y-75459598D01*
X231307777Y-75477777D01*
X231289598Y-75494253D01*
X231269893Y-75508867D01*
X231248849Y-75521480D01*
X231226671Y-75531970D01*
X231203571Y-75540235D01*
X231179773Y-75546196D01*
X231155504Y-75549796D01*
X231131000Y-75551000D01*
X230206000Y-75551000D01*
X230181496Y-75549796D01*
X230157227Y-75546196D01*
X230133429Y-75540235D01*
X230110329Y-75531970D01*
X230088151Y-75521480D01*
X230067107Y-75508867D01*
X230047402Y-75494253D01*
X230029223Y-75477777D01*
X230012747Y-75459598D01*
X229998133Y-75439893D01*
X229985520Y-75418849D01*
X229975030Y-75396671D01*
X229966765Y-75373571D01*
X229960804Y-75349773D01*
X229957204Y-75325504D01*
X229956000Y-75301000D01*
X229956000Y-74051000D01*
X229957204Y-74026496D01*
X229960804Y-74002227D01*
X229966765Y-73978429D01*
X229975030Y-73955329D01*
X229985520Y-73933151D01*
X229998133Y-73912107D01*
X230012747Y-73892402D01*
X230029223Y-73874223D01*
X230047402Y-73857747D01*
X230067107Y-73843133D01*
X230088151Y-73830520D01*
X230110329Y-73820030D01*
X230133429Y-73811765D01*
X230157227Y-73805804D01*
X230181496Y-73802204D01*
X230206000Y-73801000D01*
X231131000Y-73801000D01*
X231155504Y-73802204D01*
X231155504Y-73802204D01*
G37*
D12*
X230668500Y-74676000D03*
D11*
G36*
X227599504Y-95138204D02*
G01*
X227623773Y-95141804D01*
X227647571Y-95147765D01*
X227670671Y-95156030D01*
X227692849Y-95166520D01*
X227713893Y-95179133D01*
X227733598Y-95193747D01*
X227751777Y-95210223D01*
X227768253Y-95228402D01*
X227782867Y-95248107D01*
X227795480Y-95269151D01*
X227805970Y-95291329D01*
X227814235Y-95314429D01*
X227820196Y-95338227D01*
X227823796Y-95362496D01*
X227825000Y-95387000D01*
X227825000Y-96637000D01*
X227823796Y-96661504D01*
X227820196Y-96685773D01*
X227814235Y-96709571D01*
X227805970Y-96732671D01*
X227795480Y-96754849D01*
X227782867Y-96775893D01*
X227768253Y-96795598D01*
X227751777Y-96813777D01*
X227733598Y-96830253D01*
X227713893Y-96844867D01*
X227692849Y-96857480D01*
X227670671Y-96867970D01*
X227647571Y-96876235D01*
X227623773Y-96882196D01*
X227599504Y-96885796D01*
X227575000Y-96887000D01*
X226650000Y-96887000D01*
X226625496Y-96885796D01*
X226601227Y-96882196D01*
X226577429Y-96876235D01*
X226554329Y-96867970D01*
X226532151Y-96857480D01*
X226511107Y-96844867D01*
X226491402Y-96830253D01*
X226473223Y-96813777D01*
X226456747Y-96795598D01*
X226442133Y-96775893D01*
X226429520Y-96754849D01*
X226419030Y-96732671D01*
X226410765Y-96709571D01*
X226404804Y-96685773D01*
X226401204Y-96661504D01*
X226400000Y-96637000D01*
X226400000Y-95387000D01*
X226401204Y-95362496D01*
X226404804Y-95338227D01*
X226410765Y-95314429D01*
X226419030Y-95291329D01*
X226429520Y-95269151D01*
X226442133Y-95248107D01*
X226456747Y-95228402D01*
X226473223Y-95210223D01*
X226491402Y-95193747D01*
X226511107Y-95179133D01*
X226532151Y-95166520D01*
X226554329Y-95156030D01*
X226577429Y-95147765D01*
X226601227Y-95141804D01*
X226625496Y-95138204D01*
X226650000Y-95137000D01*
X227575000Y-95137000D01*
X227599504Y-95138204D01*
X227599504Y-95138204D01*
G37*
D12*
X227112500Y-96012000D03*
D11*
G36*
X230574504Y-95138204D02*
G01*
X230598773Y-95141804D01*
X230622571Y-95147765D01*
X230645671Y-95156030D01*
X230667849Y-95166520D01*
X230688893Y-95179133D01*
X230708598Y-95193747D01*
X230726777Y-95210223D01*
X230743253Y-95228402D01*
X230757867Y-95248107D01*
X230770480Y-95269151D01*
X230780970Y-95291329D01*
X230789235Y-95314429D01*
X230795196Y-95338227D01*
X230798796Y-95362496D01*
X230800000Y-95387000D01*
X230800000Y-96637000D01*
X230798796Y-96661504D01*
X230795196Y-96685773D01*
X230789235Y-96709571D01*
X230780970Y-96732671D01*
X230770480Y-96754849D01*
X230757867Y-96775893D01*
X230743253Y-96795598D01*
X230726777Y-96813777D01*
X230708598Y-96830253D01*
X230688893Y-96844867D01*
X230667849Y-96857480D01*
X230645671Y-96867970D01*
X230622571Y-96876235D01*
X230598773Y-96882196D01*
X230574504Y-96885796D01*
X230550000Y-96887000D01*
X229625000Y-96887000D01*
X229600496Y-96885796D01*
X229576227Y-96882196D01*
X229552429Y-96876235D01*
X229529329Y-96867970D01*
X229507151Y-96857480D01*
X229486107Y-96844867D01*
X229466402Y-96830253D01*
X229448223Y-96813777D01*
X229431747Y-96795598D01*
X229417133Y-96775893D01*
X229404520Y-96754849D01*
X229394030Y-96732671D01*
X229385765Y-96709571D01*
X229379804Y-96685773D01*
X229376204Y-96661504D01*
X229375000Y-96637000D01*
X229375000Y-95387000D01*
X229376204Y-95362496D01*
X229379804Y-95338227D01*
X229385765Y-95314429D01*
X229394030Y-95291329D01*
X229404520Y-95269151D01*
X229417133Y-95248107D01*
X229431747Y-95228402D01*
X229448223Y-95210223D01*
X229466402Y-95193747D01*
X229486107Y-95179133D01*
X229507151Y-95166520D01*
X229529329Y-95156030D01*
X229552429Y-95147765D01*
X229576227Y-95141804D01*
X229600496Y-95138204D01*
X229625000Y-95137000D01*
X230550000Y-95137000D01*
X230574504Y-95138204D01*
X230574504Y-95138204D01*
G37*
D12*
X230087500Y-96012000D03*
D11*
G36*
X217565504Y-90220704D02*
G01*
X217589773Y-90224304D01*
X217613571Y-90230265D01*
X217636671Y-90238530D01*
X217658849Y-90249020D01*
X217679893Y-90261633D01*
X217699598Y-90276247D01*
X217717777Y-90292723D01*
X217734253Y-90310902D01*
X217748867Y-90330607D01*
X217761480Y-90351651D01*
X217771970Y-90373829D01*
X217780235Y-90396929D01*
X217786196Y-90420727D01*
X217789796Y-90444996D01*
X217791000Y-90469500D01*
X217791000Y-91394500D01*
X217789796Y-91419004D01*
X217786196Y-91443273D01*
X217780235Y-91467071D01*
X217771970Y-91490171D01*
X217761480Y-91512349D01*
X217748867Y-91533393D01*
X217734253Y-91553098D01*
X217717777Y-91571277D01*
X217699598Y-91587753D01*
X217679893Y-91602367D01*
X217658849Y-91614980D01*
X217636671Y-91625470D01*
X217613571Y-91633735D01*
X217589773Y-91639696D01*
X217565504Y-91643296D01*
X217541000Y-91644500D01*
X216291000Y-91644500D01*
X216266496Y-91643296D01*
X216242227Y-91639696D01*
X216218429Y-91633735D01*
X216195329Y-91625470D01*
X216173151Y-91614980D01*
X216152107Y-91602367D01*
X216132402Y-91587753D01*
X216114223Y-91571277D01*
X216097747Y-91553098D01*
X216083133Y-91533393D01*
X216070520Y-91512349D01*
X216060030Y-91490171D01*
X216051765Y-91467071D01*
X216045804Y-91443273D01*
X216042204Y-91419004D01*
X216041000Y-91394500D01*
X216041000Y-90469500D01*
X216042204Y-90444996D01*
X216045804Y-90420727D01*
X216051765Y-90396929D01*
X216060030Y-90373829D01*
X216070520Y-90351651D01*
X216083133Y-90330607D01*
X216097747Y-90310902D01*
X216114223Y-90292723D01*
X216132402Y-90276247D01*
X216152107Y-90261633D01*
X216173151Y-90249020D01*
X216195329Y-90238530D01*
X216218429Y-90230265D01*
X216242227Y-90224304D01*
X216266496Y-90220704D01*
X216291000Y-90219500D01*
X217541000Y-90219500D01*
X217565504Y-90220704D01*
X217565504Y-90220704D01*
G37*
D12*
X216916000Y-90932000D03*
D11*
G36*
X217565504Y-87245704D02*
G01*
X217589773Y-87249304D01*
X217613571Y-87255265D01*
X217636671Y-87263530D01*
X217658849Y-87274020D01*
X217679893Y-87286633D01*
X217699598Y-87301247D01*
X217717777Y-87317723D01*
X217734253Y-87335902D01*
X217748867Y-87355607D01*
X217761480Y-87376651D01*
X217771970Y-87398829D01*
X217780235Y-87421929D01*
X217786196Y-87445727D01*
X217789796Y-87469996D01*
X217791000Y-87494500D01*
X217791000Y-88419500D01*
X217789796Y-88444004D01*
X217786196Y-88468273D01*
X217780235Y-88492071D01*
X217771970Y-88515171D01*
X217761480Y-88537349D01*
X217748867Y-88558393D01*
X217734253Y-88578098D01*
X217717777Y-88596277D01*
X217699598Y-88612753D01*
X217679893Y-88627367D01*
X217658849Y-88639980D01*
X217636671Y-88650470D01*
X217613571Y-88658735D01*
X217589773Y-88664696D01*
X217565504Y-88668296D01*
X217541000Y-88669500D01*
X216291000Y-88669500D01*
X216266496Y-88668296D01*
X216242227Y-88664696D01*
X216218429Y-88658735D01*
X216195329Y-88650470D01*
X216173151Y-88639980D01*
X216152107Y-88627367D01*
X216132402Y-88612753D01*
X216114223Y-88596277D01*
X216097747Y-88578098D01*
X216083133Y-88558393D01*
X216070520Y-88537349D01*
X216060030Y-88515171D01*
X216051765Y-88492071D01*
X216045804Y-88468273D01*
X216042204Y-88444004D01*
X216041000Y-88419500D01*
X216041000Y-87494500D01*
X216042204Y-87469996D01*
X216045804Y-87445727D01*
X216051765Y-87421929D01*
X216060030Y-87398829D01*
X216070520Y-87376651D01*
X216083133Y-87355607D01*
X216097747Y-87335902D01*
X216114223Y-87317723D01*
X216132402Y-87301247D01*
X216152107Y-87286633D01*
X216173151Y-87274020D01*
X216195329Y-87263530D01*
X216218429Y-87255265D01*
X216242227Y-87249304D01*
X216266496Y-87245704D01*
X216291000Y-87244500D01*
X217541000Y-87244500D01*
X217565504Y-87245704D01*
X217565504Y-87245704D01*
G37*
D12*
X216916000Y-87957000D03*
D11*
G36*
X195721504Y-105932204D02*
G01*
X195745773Y-105935804D01*
X195769571Y-105941765D01*
X195792671Y-105950030D01*
X195814849Y-105960520D01*
X195835893Y-105973133D01*
X195855598Y-105987747D01*
X195873777Y-106004223D01*
X195890253Y-106022402D01*
X195904867Y-106042107D01*
X195917480Y-106063151D01*
X195927970Y-106085329D01*
X195936235Y-106108429D01*
X195942196Y-106132227D01*
X195945796Y-106156496D01*
X195947000Y-106181000D01*
X195947000Y-107106000D01*
X195945796Y-107130504D01*
X195942196Y-107154773D01*
X195936235Y-107178571D01*
X195927970Y-107201671D01*
X195917480Y-107223849D01*
X195904867Y-107244893D01*
X195890253Y-107264598D01*
X195873777Y-107282777D01*
X195855598Y-107299253D01*
X195835893Y-107313867D01*
X195814849Y-107326480D01*
X195792671Y-107336970D01*
X195769571Y-107345235D01*
X195745773Y-107351196D01*
X195721504Y-107354796D01*
X195697000Y-107356000D01*
X194447000Y-107356000D01*
X194422496Y-107354796D01*
X194398227Y-107351196D01*
X194374429Y-107345235D01*
X194351329Y-107336970D01*
X194329151Y-107326480D01*
X194308107Y-107313867D01*
X194288402Y-107299253D01*
X194270223Y-107282777D01*
X194253747Y-107264598D01*
X194239133Y-107244893D01*
X194226520Y-107223849D01*
X194216030Y-107201671D01*
X194207765Y-107178571D01*
X194201804Y-107154773D01*
X194198204Y-107130504D01*
X194197000Y-107106000D01*
X194197000Y-106181000D01*
X194198204Y-106156496D01*
X194201804Y-106132227D01*
X194207765Y-106108429D01*
X194216030Y-106085329D01*
X194226520Y-106063151D01*
X194239133Y-106042107D01*
X194253747Y-106022402D01*
X194270223Y-106004223D01*
X194288402Y-105987747D01*
X194308107Y-105973133D01*
X194329151Y-105960520D01*
X194351329Y-105950030D01*
X194374429Y-105941765D01*
X194398227Y-105935804D01*
X194422496Y-105932204D01*
X194447000Y-105931000D01*
X195697000Y-105931000D01*
X195721504Y-105932204D01*
X195721504Y-105932204D01*
G37*
D12*
X195072000Y-106643500D03*
D11*
G36*
X195721504Y-102957204D02*
G01*
X195745773Y-102960804D01*
X195769571Y-102966765D01*
X195792671Y-102975030D01*
X195814849Y-102985520D01*
X195835893Y-102998133D01*
X195855598Y-103012747D01*
X195873777Y-103029223D01*
X195890253Y-103047402D01*
X195904867Y-103067107D01*
X195917480Y-103088151D01*
X195927970Y-103110329D01*
X195936235Y-103133429D01*
X195942196Y-103157227D01*
X195945796Y-103181496D01*
X195947000Y-103206000D01*
X195947000Y-104131000D01*
X195945796Y-104155504D01*
X195942196Y-104179773D01*
X195936235Y-104203571D01*
X195927970Y-104226671D01*
X195917480Y-104248849D01*
X195904867Y-104269893D01*
X195890253Y-104289598D01*
X195873777Y-104307777D01*
X195855598Y-104324253D01*
X195835893Y-104338867D01*
X195814849Y-104351480D01*
X195792671Y-104361970D01*
X195769571Y-104370235D01*
X195745773Y-104376196D01*
X195721504Y-104379796D01*
X195697000Y-104381000D01*
X194447000Y-104381000D01*
X194422496Y-104379796D01*
X194398227Y-104376196D01*
X194374429Y-104370235D01*
X194351329Y-104361970D01*
X194329151Y-104351480D01*
X194308107Y-104338867D01*
X194288402Y-104324253D01*
X194270223Y-104307777D01*
X194253747Y-104289598D01*
X194239133Y-104269893D01*
X194226520Y-104248849D01*
X194216030Y-104226671D01*
X194207765Y-104203571D01*
X194201804Y-104179773D01*
X194198204Y-104155504D01*
X194197000Y-104131000D01*
X194197000Y-103206000D01*
X194198204Y-103181496D01*
X194201804Y-103157227D01*
X194207765Y-103133429D01*
X194216030Y-103110329D01*
X194226520Y-103088151D01*
X194239133Y-103067107D01*
X194253747Y-103047402D01*
X194270223Y-103029223D01*
X194288402Y-103012747D01*
X194308107Y-102998133D01*
X194329151Y-102985520D01*
X194351329Y-102975030D01*
X194374429Y-102966765D01*
X194398227Y-102960804D01*
X194422496Y-102957204D01*
X194447000Y-102956000D01*
X195697000Y-102956000D01*
X195721504Y-102957204D01*
X195721504Y-102957204D01*
G37*
D12*
X195072000Y-103668500D03*
D16*
X197188000Y-99634000D03*
X197188000Y-101534000D03*
X194988000Y-101534000D03*
X194988000Y-100584000D03*
X194988000Y-99634000D03*
X200068000Y-99568000D03*
X200068000Y-100518000D03*
X200068000Y-98618000D03*
X202268000Y-98618000D03*
X202268000Y-99568000D03*
X202268000Y-100518000D03*
X199052000Y-94488000D03*
X199052000Y-95438000D03*
X199052000Y-93538000D03*
X201252000Y-93538000D03*
X201252000Y-94488000D03*
X201252000Y-95438000D03*
D17*
X202692000Y-87292000D03*
X201742000Y-87292000D03*
X203642000Y-87292000D03*
X203642000Y-89492000D03*
X202692000Y-89492000D03*
X201742000Y-89492000D03*
X187960000Y-95420000D03*
X187010000Y-95420000D03*
X188910000Y-95420000D03*
X188910000Y-97620000D03*
X187960000Y-97620000D03*
X187010000Y-97620000D03*
D11*
G36*
X214849504Y-81287204D02*
G01*
X214873773Y-81290804D01*
X214897571Y-81296765D01*
X214920671Y-81305030D01*
X214942849Y-81315520D01*
X214963893Y-81328133D01*
X214983598Y-81342747D01*
X215001777Y-81359223D01*
X215018253Y-81377402D01*
X215032867Y-81397107D01*
X215045480Y-81418151D01*
X215055970Y-81440329D01*
X215064235Y-81463429D01*
X215070196Y-81487227D01*
X215073796Y-81511496D01*
X215075000Y-81536000D01*
X215075000Y-82786000D01*
X215073796Y-82810504D01*
X215070196Y-82834773D01*
X215064235Y-82858571D01*
X215055970Y-82881671D01*
X215045480Y-82903849D01*
X215032867Y-82924893D01*
X215018253Y-82944598D01*
X215001777Y-82962777D01*
X214983598Y-82979253D01*
X214963893Y-82993867D01*
X214942849Y-83006480D01*
X214920671Y-83016970D01*
X214897571Y-83025235D01*
X214873773Y-83031196D01*
X214849504Y-83034796D01*
X214825000Y-83036000D01*
X213900000Y-83036000D01*
X213875496Y-83034796D01*
X213851227Y-83031196D01*
X213827429Y-83025235D01*
X213804329Y-83016970D01*
X213782151Y-83006480D01*
X213761107Y-82993867D01*
X213741402Y-82979253D01*
X213723223Y-82962777D01*
X213706747Y-82944598D01*
X213692133Y-82924893D01*
X213679520Y-82903849D01*
X213669030Y-82881671D01*
X213660765Y-82858571D01*
X213654804Y-82834773D01*
X213651204Y-82810504D01*
X213650000Y-82786000D01*
X213650000Y-81536000D01*
X213651204Y-81511496D01*
X213654804Y-81487227D01*
X213660765Y-81463429D01*
X213669030Y-81440329D01*
X213679520Y-81418151D01*
X213692133Y-81397107D01*
X213706747Y-81377402D01*
X213723223Y-81359223D01*
X213741402Y-81342747D01*
X213761107Y-81328133D01*
X213782151Y-81315520D01*
X213804329Y-81305030D01*
X213827429Y-81296765D01*
X213851227Y-81290804D01*
X213875496Y-81287204D01*
X213900000Y-81286000D01*
X214825000Y-81286000D01*
X214849504Y-81287204D01*
X214849504Y-81287204D01*
G37*
D12*
X214362500Y-82161000D03*
D11*
G36*
X217824504Y-81287204D02*
G01*
X217848773Y-81290804D01*
X217872571Y-81296765D01*
X217895671Y-81305030D01*
X217917849Y-81315520D01*
X217938893Y-81328133D01*
X217958598Y-81342747D01*
X217976777Y-81359223D01*
X217993253Y-81377402D01*
X218007867Y-81397107D01*
X218020480Y-81418151D01*
X218030970Y-81440329D01*
X218039235Y-81463429D01*
X218045196Y-81487227D01*
X218048796Y-81511496D01*
X218050000Y-81536000D01*
X218050000Y-82786000D01*
X218048796Y-82810504D01*
X218045196Y-82834773D01*
X218039235Y-82858571D01*
X218030970Y-82881671D01*
X218020480Y-82903849D01*
X218007867Y-82924893D01*
X217993253Y-82944598D01*
X217976777Y-82962777D01*
X217958598Y-82979253D01*
X217938893Y-82993867D01*
X217917849Y-83006480D01*
X217895671Y-83016970D01*
X217872571Y-83025235D01*
X217848773Y-83031196D01*
X217824504Y-83034796D01*
X217800000Y-83036000D01*
X216875000Y-83036000D01*
X216850496Y-83034796D01*
X216826227Y-83031196D01*
X216802429Y-83025235D01*
X216779329Y-83016970D01*
X216757151Y-83006480D01*
X216736107Y-82993867D01*
X216716402Y-82979253D01*
X216698223Y-82962777D01*
X216681747Y-82944598D01*
X216667133Y-82924893D01*
X216654520Y-82903849D01*
X216644030Y-82881671D01*
X216635765Y-82858571D01*
X216629804Y-82834773D01*
X216626204Y-82810504D01*
X216625000Y-82786000D01*
X216625000Y-81536000D01*
X216626204Y-81511496D01*
X216629804Y-81487227D01*
X216635765Y-81463429D01*
X216644030Y-81440329D01*
X216654520Y-81418151D01*
X216667133Y-81397107D01*
X216681747Y-81377402D01*
X216698223Y-81359223D01*
X216716402Y-81342747D01*
X216736107Y-81328133D01*
X216757151Y-81315520D01*
X216779329Y-81305030D01*
X216802429Y-81296765D01*
X216826227Y-81290804D01*
X216850496Y-81287204D01*
X216875000Y-81286000D01*
X217800000Y-81286000D01*
X217824504Y-81287204D01*
X217824504Y-81287204D01*
G37*
D12*
X217337500Y-82161000D03*
D11*
G36*
X244290504Y-77358204D02*
G01*
X244314773Y-77361804D01*
X244338571Y-77367765D01*
X244361671Y-77376030D01*
X244383849Y-77386520D01*
X244404893Y-77399133D01*
X244424598Y-77413747D01*
X244442777Y-77430223D01*
X244459253Y-77448402D01*
X244473867Y-77468107D01*
X244486480Y-77489151D01*
X244496970Y-77511329D01*
X244505235Y-77534429D01*
X244511196Y-77558227D01*
X244514796Y-77582496D01*
X244516000Y-77607000D01*
X244516000Y-78857000D01*
X244514796Y-78881504D01*
X244511196Y-78905773D01*
X244505235Y-78929571D01*
X244496970Y-78952671D01*
X244486480Y-78974849D01*
X244473867Y-78995893D01*
X244459253Y-79015598D01*
X244442777Y-79033777D01*
X244424598Y-79050253D01*
X244404893Y-79064867D01*
X244383849Y-79077480D01*
X244361671Y-79087970D01*
X244338571Y-79096235D01*
X244314773Y-79102196D01*
X244290504Y-79105796D01*
X244266000Y-79107000D01*
X243341000Y-79107000D01*
X243316496Y-79105796D01*
X243292227Y-79102196D01*
X243268429Y-79096235D01*
X243245329Y-79087970D01*
X243223151Y-79077480D01*
X243202107Y-79064867D01*
X243182402Y-79050253D01*
X243164223Y-79033777D01*
X243147747Y-79015598D01*
X243133133Y-78995893D01*
X243120520Y-78974849D01*
X243110030Y-78952671D01*
X243101765Y-78929571D01*
X243095804Y-78905773D01*
X243092204Y-78881504D01*
X243091000Y-78857000D01*
X243091000Y-77607000D01*
X243092204Y-77582496D01*
X243095804Y-77558227D01*
X243101765Y-77534429D01*
X243110030Y-77511329D01*
X243120520Y-77489151D01*
X243133133Y-77468107D01*
X243147747Y-77448402D01*
X243164223Y-77430223D01*
X243182402Y-77413747D01*
X243202107Y-77399133D01*
X243223151Y-77386520D01*
X243245329Y-77376030D01*
X243268429Y-77367765D01*
X243292227Y-77361804D01*
X243316496Y-77358204D01*
X243341000Y-77357000D01*
X244266000Y-77357000D01*
X244290504Y-77358204D01*
X244290504Y-77358204D01*
G37*
D12*
X243803500Y-78232000D03*
D11*
G36*
X241315504Y-77358204D02*
G01*
X241339773Y-77361804D01*
X241363571Y-77367765D01*
X241386671Y-77376030D01*
X241408849Y-77386520D01*
X241429893Y-77399133D01*
X241449598Y-77413747D01*
X241467777Y-77430223D01*
X241484253Y-77448402D01*
X241498867Y-77468107D01*
X241511480Y-77489151D01*
X241521970Y-77511329D01*
X241530235Y-77534429D01*
X241536196Y-77558227D01*
X241539796Y-77582496D01*
X241541000Y-77607000D01*
X241541000Y-78857000D01*
X241539796Y-78881504D01*
X241536196Y-78905773D01*
X241530235Y-78929571D01*
X241521970Y-78952671D01*
X241511480Y-78974849D01*
X241498867Y-78995893D01*
X241484253Y-79015598D01*
X241467777Y-79033777D01*
X241449598Y-79050253D01*
X241429893Y-79064867D01*
X241408849Y-79077480D01*
X241386671Y-79087970D01*
X241363571Y-79096235D01*
X241339773Y-79102196D01*
X241315504Y-79105796D01*
X241291000Y-79107000D01*
X240366000Y-79107000D01*
X240341496Y-79105796D01*
X240317227Y-79102196D01*
X240293429Y-79096235D01*
X240270329Y-79087970D01*
X240248151Y-79077480D01*
X240227107Y-79064867D01*
X240207402Y-79050253D01*
X240189223Y-79033777D01*
X240172747Y-79015598D01*
X240158133Y-78995893D01*
X240145520Y-78974849D01*
X240135030Y-78952671D01*
X240126765Y-78929571D01*
X240120804Y-78905773D01*
X240117204Y-78881504D01*
X240116000Y-78857000D01*
X240116000Y-77607000D01*
X240117204Y-77582496D01*
X240120804Y-77558227D01*
X240126765Y-77534429D01*
X240135030Y-77511329D01*
X240145520Y-77489151D01*
X240158133Y-77468107D01*
X240172747Y-77448402D01*
X240189223Y-77430223D01*
X240207402Y-77413747D01*
X240227107Y-77399133D01*
X240248151Y-77386520D01*
X240270329Y-77376030D01*
X240293429Y-77367765D01*
X240317227Y-77361804D01*
X240341496Y-77358204D01*
X240366000Y-77357000D01*
X241291000Y-77357000D01*
X241315504Y-77358204D01*
X241315504Y-77358204D01*
G37*
D12*
X240828500Y-78232000D03*
D11*
G36*
X240229420Y-73622404D02*
G01*
X240253689Y-73626004D01*
X240277487Y-73631965D01*
X240300587Y-73640230D01*
X240322765Y-73650720D01*
X240343809Y-73663333D01*
X240363514Y-73677947D01*
X240381693Y-73694423D01*
X241265577Y-74578307D01*
X241282053Y-74596486D01*
X241296667Y-74616191D01*
X241309280Y-74637235D01*
X241319770Y-74659413D01*
X241328035Y-74682513D01*
X241333996Y-74706311D01*
X241337596Y-74730580D01*
X241338800Y-74755084D01*
X241337596Y-74779588D01*
X241333996Y-74803857D01*
X241328035Y-74827655D01*
X241319770Y-74850755D01*
X241309280Y-74872933D01*
X241296667Y-74893977D01*
X241282053Y-74913682D01*
X241265577Y-74931861D01*
X240611503Y-75585935D01*
X240593324Y-75602411D01*
X240573619Y-75617025D01*
X240552575Y-75629638D01*
X240530397Y-75640128D01*
X240507297Y-75648393D01*
X240483499Y-75654354D01*
X240459230Y-75657954D01*
X240434726Y-75659158D01*
X240410222Y-75657954D01*
X240385953Y-75654354D01*
X240362155Y-75648393D01*
X240339055Y-75640128D01*
X240316877Y-75629638D01*
X240295833Y-75617025D01*
X240276128Y-75602411D01*
X240257949Y-75585935D01*
X239374065Y-74702051D01*
X239357589Y-74683872D01*
X239342975Y-74664167D01*
X239330362Y-74643123D01*
X239319872Y-74620945D01*
X239311607Y-74597845D01*
X239305646Y-74574047D01*
X239302046Y-74549778D01*
X239300842Y-74525274D01*
X239302046Y-74500770D01*
X239305646Y-74476501D01*
X239311607Y-74452703D01*
X239319872Y-74429603D01*
X239330362Y-74407425D01*
X239342975Y-74386381D01*
X239357589Y-74366676D01*
X239374065Y-74348497D01*
X240028139Y-73694423D01*
X240046318Y-73677947D01*
X240066023Y-73663333D01*
X240087067Y-73650720D01*
X240109245Y-73640230D01*
X240132345Y-73631965D01*
X240156143Y-73626004D01*
X240180412Y-73622404D01*
X240204916Y-73621200D01*
X240229420Y-73622404D01*
X240229420Y-73622404D01*
G37*
D12*
X240319821Y-74640179D03*
D11*
G36*
X238125778Y-75726046D02*
G01*
X238150047Y-75729646D01*
X238173845Y-75735607D01*
X238196945Y-75743872D01*
X238219123Y-75754362D01*
X238240167Y-75766975D01*
X238259872Y-75781589D01*
X238278051Y-75798065D01*
X239161935Y-76681949D01*
X239178411Y-76700128D01*
X239193025Y-76719833D01*
X239205638Y-76740877D01*
X239216128Y-76763055D01*
X239224393Y-76786155D01*
X239230354Y-76809953D01*
X239233954Y-76834222D01*
X239235158Y-76858726D01*
X239233954Y-76883230D01*
X239230354Y-76907499D01*
X239224393Y-76931297D01*
X239216128Y-76954397D01*
X239205638Y-76976575D01*
X239193025Y-76997619D01*
X239178411Y-77017324D01*
X239161935Y-77035503D01*
X238507861Y-77689577D01*
X238489682Y-77706053D01*
X238469977Y-77720667D01*
X238448933Y-77733280D01*
X238426755Y-77743770D01*
X238403655Y-77752035D01*
X238379857Y-77757996D01*
X238355588Y-77761596D01*
X238331084Y-77762800D01*
X238306580Y-77761596D01*
X238282311Y-77757996D01*
X238258513Y-77752035D01*
X238235413Y-77743770D01*
X238213235Y-77733280D01*
X238192191Y-77720667D01*
X238172486Y-77706053D01*
X238154307Y-77689577D01*
X237270423Y-76805693D01*
X237253947Y-76787514D01*
X237239333Y-76767809D01*
X237226720Y-76746765D01*
X237216230Y-76724587D01*
X237207965Y-76701487D01*
X237202004Y-76677689D01*
X237198404Y-76653420D01*
X237197200Y-76628916D01*
X237198404Y-76604412D01*
X237202004Y-76580143D01*
X237207965Y-76556345D01*
X237216230Y-76533245D01*
X237226720Y-76511067D01*
X237239333Y-76490023D01*
X237253947Y-76470318D01*
X237270423Y-76452139D01*
X237924497Y-75798065D01*
X237942676Y-75781589D01*
X237962381Y-75766975D01*
X237983425Y-75754362D01*
X238005603Y-75743872D01*
X238028703Y-75735607D01*
X238052501Y-75729646D01*
X238076770Y-75726046D01*
X238101274Y-75724842D01*
X238125778Y-75726046D01*
X238125778Y-75726046D01*
G37*
D12*
X238216179Y-76743821D03*
D11*
G36*
X236601778Y-73186046D02*
G01*
X236626047Y-73189646D01*
X236649845Y-73195607D01*
X236672945Y-73203872D01*
X236695123Y-73214362D01*
X236716167Y-73226975D01*
X236735872Y-73241589D01*
X236754051Y-73258065D01*
X237637935Y-74141949D01*
X237654411Y-74160128D01*
X237669025Y-74179833D01*
X237681638Y-74200877D01*
X237692128Y-74223055D01*
X237700393Y-74246155D01*
X237706354Y-74269953D01*
X237709954Y-74294222D01*
X237711158Y-74318726D01*
X237709954Y-74343230D01*
X237706354Y-74367499D01*
X237700393Y-74391297D01*
X237692128Y-74414397D01*
X237681638Y-74436575D01*
X237669025Y-74457619D01*
X237654411Y-74477324D01*
X237637935Y-74495503D01*
X236983861Y-75149577D01*
X236965682Y-75166053D01*
X236945977Y-75180667D01*
X236924933Y-75193280D01*
X236902755Y-75203770D01*
X236879655Y-75212035D01*
X236855857Y-75217996D01*
X236831588Y-75221596D01*
X236807084Y-75222800D01*
X236782580Y-75221596D01*
X236758311Y-75217996D01*
X236734513Y-75212035D01*
X236711413Y-75203770D01*
X236689235Y-75193280D01*
X236668191Y-75180667D01*
X236648486Y-75166053D01*
X236630307Y-75149577D01*
X235746423Y-74265693D01*
X235729947Y-74247514D01*
X235715333Y-74227809D01*
X235702720Y-74206765D01*
X235692230Y-74184587D01*
X235683965Y-74161487D01*
X235678004Y-74137689D01*
X235674404Y-74113420D01*
X235673200Y-74088916D01*
X235674404Y-74064412D01*
X235678004Y-74040143D01*
X235683965Y-74016345D01*
X235692230Y-73993245D01*
X235702720Y-73971067D01*
X235715333Y-73950023D01*
X235729947Y-73930318D01*
X235746423Y-73912139D01*
X236400497Y-73258065D01*
X236418676Y-73241589D01*
X236438381Y-73226975D01*
X236459425Y-73214362D01*
X236481603Y-73203872D01*
X236504703Y-73195607D01*
X236528501Y-73189646D01*
X236552770Y-73186046D01*
X236577274Y-73184842D01*
X236601778Y-73186046D01*
X236601778Y-73186046D01*
G37*
D12*
X236692179Y-74203821D03*
D11*
G36*
X238705420Y-71082404D02*
G01*
X238729689Y-71086004D01*
X238753487Y-71091965D01*
X238776587Y-71100230D01*
X238798765Y-71110720D01*
X238819809Y-71123333D01*
X238839514Y-71137947D01*
X238857693Y-71154423D01*
X239741577Y-72038307D01*
X239758053Y-72056486D01*
X239772667Y-72076191D01*
X239785280Y-72097235D01*
X239795770Y-72119413D01*
X239804035Y-72142513D01*
X239809996Y-72166311D01*
X239813596Y-72190580D01*
X239814800Y-72215084D01*
X239813596Y-72239588D01*
X239809996Y-72263857D01*
X239804035Y-72287655D01*
X239795770Y-72310755D01*
X239785280Y-72332933D01*
X239772667Y-72353977D01*
X239758053Y-72373682D01*
X239741577Y-72391861D01*
X239087503Y-73045935D01*
X239069324Y-73062411D01*
X239049619Y-73077025D01*
X239028575Y-73089638D01*
X239006397Y-73100128D01*
X238983297Y-73108393D01*
X238959499Y-73114354D01*
X238935230Y-73117954D01*
X238910726Y-73119158D01*
X238886222Y-73117954D01*
X238861953Y-73114354D01*
X238838155Y-73108393D01*
X238815055Y-73100128D01*
X238792877Y-73089638D01*
X238771833Y-73077025D01*
X238752128Y-73062411D01*
X238733949Y-73045935D01*
X237850065Y-72162051D01*
X237833589Y-72143872D01*
X237818975Y-72124167D01*
X237806362Y-72103123D01*
X237795872Y-72080945D01*
X237787607Y-72057845D01*
X237781646Y-72034047D01*
X237778046Y-72009778D01*
X237776842Y-71985274D01*
X237778046Y-71960770D01*
X237781646Y-71936501D01*
X237787607Y-71912703D01*
X237795872Y-71889603D01*
X237806362Y-71867425D01*
X237818975Y-71846381D01*
X237833589Y-71826676D01*
X237850065Y-71808497D01*
X238504139Y-71154423D01*
X238522318Y-71137947D01*
X238542023Y-71123333D01*
X238563067Y-71110720D01*
X238585245Y-71100230D01*
X238608345Y-71091965D01*
X238632143Y-71086004D01*
X238656412Y-71082404D01*
X238680916Y-71081200D01*
X238705420Y-71082404D01*
X238705420Y-71082404D01*
G37*
D12*
X238795821Y-72100179D03*
D11*
G36*
X189390004Y-75834204D02*
G01*
X189414273Y-75837804D01*
X189438071Y-75843765D01*
X189461171Y-75852030D01*
X189483349Y-75862520D01*
X189504393Y-75875133D01*
X189524098Y-75889747D01*
X189542277Y-75906223D01*
X189558753Y-75924402D01*
X189573367Y-75944107D01*
X189585980Y-75965151D01*
X189596470Y-75987329D01*
X189604735Y-76010429D01*
X189610696Y-76034227D01*
X189614296Y-76058496D01*
X189615500Y-76083000D01*
X189615500Y-77333000D01*
X189614296Y-77357504D01*
X189610696Y-77381773D01*
X189604735Y-77405571D01*
X189596470Y-77428671D01*
X189585980Y-77450849D01*
X189573367Y-77471893D01*
X189558753Y-77491598D01*
X189542277Y-77509777D01*
X189524098Y-77526253D01*
X189504393Y-77540867D01*
X189483349Y-77553480D01*
X189461171Y-77563970D01*
X189438071Y-77572235D01*
X189414273Y-77578196D01*
X189390004Y-77581796D01*
X189365500Y-77583000D01*
X188440500Y-77583000D01*
X188415996Y-77581796D01*
X188391727Y-77578196D01*
X188367929Y-77572235D01*
X188344829Y-77563970D01*
X188322651Y-77553480D01*
X188301607Y-77540867D01*
X188281902Y-77526253D01*
X188263723Y-77509777D01*
X188247247Y-77491598D01*
X188232633Y-77471893D01*
X188220020Y-77450849D01*
X188209530Y-77428671D01*
X188201265Y-77405571D01*
X188195304Y-77381773D01*
X188191704Y-77357504D01*
X188190500Y-77333000D01*
X188190500Y-76083000D01*
X188191704Y-76058496D01*
X188195304Y-76034227D01*
X188201265Y-76010429D01*
X188209530Y-75987329D01*
X188220020Y-75965151D01*
X188232633Y-75944107D01*
X188247247Y-75924402D01*
X188263723Y-75906223D01*
X188281902Y-75889747D01*
X188301607Y-75875133D01*
X188322651Y-75862520D01*
X188344829Y-75852030D01*
X188367929Y-75843765D01*
X188391727Y-75837804D01*
X188415996Y-75834204D01*
X188440500Y-75833000D01*
X189365500Y-75833000D01*
X189390004Y-75834204D01*
X189390004Y-75834204D01*
G37*
D12*
X188903000Y-76708000D03*
D11*
G36*
X186415004Y-75834204D02*
G01*
X186439273Y-75837804D01*
X186463071Y-75843765D01*
X186486171Y-75852030D01*
X186508349Y-75862520D01*
X186529393Y-75875133D01*
X186549098Y-75889747D01*
X186567277Y-75906223D01*
X186583753Y-75924402D01*
X186598367Y-75944107D01*
X186610980Y-75965151D01*
X186621470Y-75987329D01*
X186629735Y-76010429D01*
X186635696Y-76034227D01*
X186639296Y-76058496D01*
X186640500Y-76083000D01*
X186640500Y-77333000D01*
X186639296Y-77357504D01*
X186635696Y-77381773D01*
X186629735Y-77405571D01*
X186621470Y-77428671D01*
X186610980Y-77450849D01*
X186598367Y-77471893D01*
X186583753Y-77491598D01*
X186567277Y-77509777D01*
X186549098Y-77526253D01*
X186529393Y-77540867D01*
X186508349Y-77553480D01*
X186486171Y-77563970D01*
X186463071Y-77572235D01*
X186439273Y-77578196D01*
X186415004Y-77581796D01*
X186390500Y-77583000D01*
X185465500Y-77583000D01*
X185440996Y-77581796D01*
X185416727Y-77578196D01*
X185392929Y-77572235D01*
X185369829Y-77563970D01*
X185347651Y-77553480D01*
X185326607Y-77540867D01*
X185306902Y-77526253D01*
X185288723Y-77509777D01*
X185272247Y-77491598D01*
X185257633Y-77471893D01*
X185245020Y-77450849D01*
X185234530Y-77428671D01*
X185226265Y-77405571D01*
X185220304Y-77381773D01*
X185216704Y-77357504D01*
X185215500Y-77333000D01*
X185215500Y-76083000D01*
X185216704Y-76058496D01*
X185220304Y-76034227D01*
X185226265Y-76010429D01*
X185234530Y-75987329D01*
X185245020Y-75965151D01*
X185257633Y-75944107D01*
X185272247Y-75924402D01*
X185288723Y-75906223D01*
X185306902Y-75889747D01*
X185326607Y-75875133D01*
X185347651Y-75862520D01*
X185369829Y-75852030D01*
X185392929Y-75843765D01*
X185416727Y-75837804D01*
X185440996Y-75834204D01*
X185465500Y-75833000D01*
X186390500Y-75833000D01*
X186415004Y-75834204D01*
X186415004Y-75834204D01*
G37*
D12*
X185928000Y-76708000D03*
D11*
G36*
X242839504Y-80406204D02*
G01*
X242863773Y-80409804D01*
X242887571Y-80415765D01*
X242910671Y-80424030D01*
X242932849Y-80434520D01*
X242953893Y-80447133D01*
X242973598Y-80461747D01*
X242991777Y-80478223D01*
X243008253Y-80496402D01*
X243022867Y-80516107D01*
X243035480Y-80537151D01*
X243045970Y-80559329D01*
X243054235Y-80582429D01*
X243060196Y-80606227D01*
X243063796Y-80630496D01*
X243065000Y-80655000D01*
X243065000Y-81905000D01*
X243063796Y-81929504D01*
X243060196Y-81953773D01*
X243054235Y-81977571D01*
X243045970Y-82000671D01*
X243035480Y-82022849D01*
X243022867Y-82043893D01*
X243008253Y-82063598D01*
X242991777Y-82081777D01*
X242973598Y-82098253D01*
X242953893Y-82112867D01*
X242932849Y-82125480D01*
X242910671Y-82135970D01*
X242887571Y-82144235D01*
X242863773Y-82150196D01*
X242839504Y-82153796D01*
X242815000Y-82155000D01*
X241890000Y-82155000D01*
X241865496Y-82153796D01*
X241841227Y-82150196D01*
X241817429Y-82144235D01*
X241794329Y-82135970D01*
X241772151Y-82125480D01*
X241751107Y-82112867D01*
X241731402Y-82098253D01*
X241713223Y-82081777D01*
X241696747Y-82063598D01*
X241682133Y-82043893D01*
X241669520Y-82022849D01*
X241659030Y-82000671D01*
X241650765Y-81977571D01*
X241644804Y-81953773D01*
X241641204Y-81929504D01*
X241640000Y-81905000D01*
X241640000Y-80655000D01*
X241641204Y-80630496D01*
X241644804Y-80606227D01*
X241650765Y-80582429D01*
X241659030Y-80559329D01*
X241669520Y-80537151D01*
X241682133Y-80516107D01*
X241696747Y-80496402D01*
X241713223Y-80478223D01*
X241731402Y-80461747D01*
X241751107Y-80447133D01*
X241772151Y-80434520D01*
X241794329Y-80424030D01*
X241817429Y-80415765D01*
X241841227Y-80409804D01*
X241865496Y-80406204D01*
X241890000Y-80405000D01*
X242815000Y-80405000D01*
X242839504Y-80406204D01*
X242839504Y-80406204D01*
G37*
D12*
X242352500Y-81280000D03*
D11*
G36*
X245814504Y-80406204D02*
G01*
X245838773Y-80409804D01*
X245862571Y-80415765D01*
X245885671Y-80424030D01*
X245907849Y-80434520D01*
X245928893Y-80447133D01*
X245948598Y-80461747D01*
X245966777Y-80478223D01*
X245983253Y-80496402D01*
X245997867Y-80516107D01*
X246010480Y-80537151D01*
X246020970Y-80559329D01*
X246029235Y-80582429D01*
X246035196Y-80606227D01*
X246038796Y-80630496D01*
X246040000Y-80655000D01*
X246040000Y-81905000D01*
X246038796Y-81929504D01*
X246035196Y-81953773D01*
X246029235Y-81977571D01*
X246020970Y-82000671D01*
X246010480Y-82022849D01*
X245997867Y-82043893D01*
X245983253Y-82063598D01*
X245966777Y-82081777D01*
X245948598Y-82098253D01*
X245928893Y-82112867D01*
X245907849Y-82125480D01*
X245885671Y-82135970D01*
X245862571Y-82144235D01*
X245838773Y-82150196D01*
X245814504Y-82153796D01*
X245790000Y-82155000D01*
X244865000Y-82155000D01*
X244840496Y-82153796D01*
X244816227Y-82150196D01*
X244792429Y-82144235D01*
X244769329Y-82135970D01*
X244747151Y-82125480D01*
X244726107Y-82112867D01*
X244706402Y-82098253D01*
X244688223Y-82081777D01*
X244671747Y-82063598D01*
X244657133Y-82043893D01*
X244644520Y-82022849D01*
X244634030Y-82000671D01*
X244625765Y-81977571D01*
X244619804Y-81953773D01*
X244616204Y-81929504D01*
X244615000Y-81905000D01*
X244615000Y-80655000D01*
X244616204Y-80630496D01*
X244619804Y-80606227D01*
X244625765Y-80582429D01*
X244634030Y-80559329D01*
X244644520Y-80537151D01*
X244657133Y-80516107D01*
X244671747Y-80496402D01*
X244688223Y-80478223D01*
X244706402Y-80461747D01*
X244726107Y-80447133D01*
X244747151Y-80434520D01*
X244769329Y-80424030D01*
X244792429Y-80415765D01*
X244816227Y-80409804D01*
X244840496Y-80406204D01*
X244865000Y-80405000D01*
X245790000Y-80405000D01*
X245814504Y-80406204D01*
X245814504Y-80406204D01*
G37*
D12*
X245327500Y-81280000D03*
M02*
