G04 #@! TF.GenerationSoftware,KiCad,Pcbnew,6.0.0-unknown-f08d040~86~ubuntu18.04.1*
G04 #@! TF.CreationDate,2019-05-16T22:23:00+01:00*
G04 #@! TF.ProjectId,mouse8,6d6f7573-6538-42e6-9b69-6361645f7063,rev?*
G04 #@! TF.SameCoordinates,Original*
G04 #@! TF.FileFunction,Legend,Bot*
G04 #@! TF.FilePolarity,Positive*
%FSLAX46Y46*%
G04 Gerber Fmt 4.6, Leading zero omitted, Abs format (unit mm)*
G04 Created by KiCad (PCBNEW 6.0.0-unknown-f08d040~86~ubuntu18.04.1) date 2019-05-16 22:23:00*
%MOMM*%
%LPD*%
G04 APERTURE LIST*
%ADD10C,0.050000*%
%ADD11C,0.120000*%
%ADD12C,0.150000*%
G04 APERTURE END LIST*
D10*
X159308800Y-70916800D02*
X159308800Y-73914000D01*
X171653200Y-70916800D02*
X159308800Y-70916800D01*
X171653200Y-73914000D02*
X171653200Y-70916800D01*
X159308800Y-73914000D02*
X171653200Y-73914000D01*
X154940000Y-80010000D02*
X179705000Y-80010000D01*
X181483000Y-90170000D02*
X181483000Y-81280000D01*
X197993000Y-90170000D02*
X181483000Y-90170000D01*
X197993000Y-81280000D02*
X197993000Y-90170000D01*
X181483000Y-81280000D02*
X197993000Y-81280000D01*
X177800000Y-106680000D02*
X177800000Y-107950000D01*
X152400000Y-106680000D02*
X177800000Y-106680000D01*
X170180000Y-64770000D02*
X152400000Y-64770000D01*
X170180000Y-63500000D02*
X170180000Y-64770000D01*
X154940000Y-91440000D02*
X154940000Y-90805000D01*
X179705000Y-91440000D02*
X179705000Y-90805000D01*
X179705000Y-80010000D02*
X179705000Y-90805000D01*
X239395000Y-71755000D02*
X246380000Y-71755000D01*
X239395000Y-63500000D02*
X239395000Y-71755000D01*
X239395000Y-99695000D02*
X239395000Y-107950000D01*
X246380000Y-99695000D02*
X239395000Y-99695000D01*
X154940000Y-90805000D02*
X154940000Y-80010000D01*
X179705000Y-91440000D02*
X154940000Y-91440000D01*
X152400000Y-106680000D02*
X152400000Y-64770000D01*
X239395000Y-107950000D02*
X177800000Y-107950000D01*
X246380000Y-71755000D02*
X246380000Y-99695000D01*
X170180000Y-63500000D02*
X239395000Y-63500000D01*
D11*
X195710564Y-94890000D02*
X194506436Y-94890000D01*
X195710564Y-93070000D02*
X194506436Y-93070000D01*
D12*
X199302666Y-94432380D02*
X199636000Y-93956190D01*
X199874095Y-94432380D02*
X199874095Y-93432380D01*
X199493142Y-93432380D01*
X199397904Y-93480000D01*
X199350285Y-93527619D01*
X199302666Y-93622857D01*
X199302666Y-93765714D01*
X199350285Y-93860952D01*
X199397904Y-93908571D01*
X199493142Y-93956190D01*
X199874095Y-93956190D01*
X198921714Y-93527619D02*
X198874095Y-93480000D01*
X198778857Y-93432380D01*
X198540761Y-93432380D01*
X198445523Y-93480000D01*
X198397904Y-93527619D01*
X198350285Y-93622857D01*
X198350285Y-93718095D01*
X198397904Y-93860952D01*
X198969333Y-94432380D01*
X198350285Y-94432380D01*
M02*
