M48
; DRILL file {KiCad 6.0.0-unknown-f08d040~86~ubuntu18.04.1} date Thu 16 May 2019 10:23:03 PM IST
; FORMAT={-:-/ absolute / inch / decimal}
; #@! TF.CreationDate,2019-05-16T22:23:03+01:00
; #@! TF.GenerationSoftware,Kicad,Pcbnew,6.0.0-unknown-f08d040~86~ubuntu18.04.1
; #@! TF.FileFunction,Plated,1,2,PTH
FMAT,2
INCH
T1C0.0157
T2C0.0354
T3C0.0394
T4C0.0492
T5C0.0827
%
G90
G05
T1
X6.68Y-3.04
X6.8Y-2.54
X6.9Y-3.04
X6.9Y-3.86
X6.92Y-2.82
X7.22Y-2.7
X7.32Y-3.7
X7.34Y-3.64
X7.36Y-4.06
X7.4Y-3.68
X7.52Y-3.8
X7.54Y-2.94
X7.54Y-3.68
X7.56Y-4.16
X7.68Y-2.76
X7.78Y-3.82
X7.78Y-4.16
X7.7802Y-3.7798
X7.8Y-2.84
X7.8Y-3.12
X7.82Y-2.96
X7.82Y-4.02
X7.84Y-3.44
X7.94Y-3.64
X7.9596Y-3.82
X7.98Y-3.5744
X7.98Y-3.76
X7.98Y-4.1
X8.0Y-3.6972
X8.02Y-2.8
X8.02Y-3.32
X8.02Y-3.96
X8.04Y-3.86
X8.06Y-2.84
X8.08Y-4.02
X8.1057Y-2.9214
X8.144Y-4.204
X8.1459Y-3.2008
X8.18Y-2.76
X8.22Y-4.0
X8.26Y-3.54
X8.28Y-2.76
X8.3Y-3.88
X8.3486Y-3.9486
X8.4Y-3.14
X8.4Y-3.6987
X8.4Y-3.95
X8.4022Y-4.1978
X8.45Y-3.55
X8.46Y-3.62
X8.5Y-2.76
X8.6Y-2.76
X8.6052Y-4.1348
X8.64Y-3.14
X8.6707Y-3.7707
X8.7Y-2.76
X8.72Y-3.34
X8.74Y-3.76
X8.78Y-2.78
X8.8Y-3.06
X8.8Y-3.52
X8.8Y-3.78
X8.82Y-4.04
X8.82Y-4.14
X8.84Y-3.62
X8.8598Y-2.7602
X8.8907Y-3.7707
X8.9Y-3.56
X8.9Y-3.6
X8.9285Y-3.02
X8.93Y-3.15
X8.94Y-2.88
X8.96Y-2.7
X8.98Y-2.94
X8.9838Y-3.0562
X9.0Y-3.22
X9.0Y-3.28
X9.0Y-3.34
X9.0Y-3.4
X9.0Y-3.48
X9.02Y-2.66
X9.0554Y-3.0064
X9.06Y-2.8633
X9.06Y-3.22
X9.06Y-3.28
X9.06Y-3.34
X9.06Y-3.4
X9.06Y-3.483
X9.0678Y-3.6878
X9.0798Y-3.04
X9.14Y-3.22
X9.14Y-3.28
X9.14Y-3.34
X9.14Y-3.4
X9.14Y-3.48
X9.1567Y-2.8633
X9.1735Y-3.65
X9.2Y-3.0
X9.2Y-3.48
X9.2Y-3.7
X9.21Y-3.41
X9.22Y-3.04
X9.22Y-3.28
X9.22Y-3.34
X9.2205Y-3.2205
X9.24Y-2.86
X9.24Y-3.66
X9.26Y-3.06
X9.26Y-4.2
X9.27Y-3.48
X9.28Y-2.96
X9.28Y-3.22
X9.28Y-3.28
X9.28Y-3.34
X9.28Y-3.4
X9.32Y-2.64
X9.3531Y-2.7606
X9.3593Y-3.7807
X9.38Y-3.7
X9.4049Y-3.0951
X9.4328Y-3.5672
X9.46Y-3.46
X9.5Y-3.7
X9.52Y-3.84
X9.54Y-3.7
X9.5548Y-3.7548
X9.6448Y-3.6648
X9.66Y-2.9
T2
X7.2072Y-3.5856
X7.2422Y-3.1644
X7.2773Y-3.5856
X7.3123Y-3.1644
X7.3474Y-3.5856
X7.3824Y-3.1644
X7.4174Y-3.5856
X7.4525Y-3.1644
X7.4875Y-3.5856
X7.5226Y-3.1644
X7.5576Y-3.5856
X7.5926Y-3.1644
X7.6277Y-3.5856
X7.6627Y-3.1644
X7.6978Y-3.5856
X7.7328Y-3.1644
T3
X8.28Y-3.004
X8.28Y-3.0827
X8.28Y-3.1615
X8.28Y-3.2402
X8.28Y-3.3189
X9.62Y-3.84
X9.52Y-3.3
X9.52Y-3.4
X7.96Y-3.16
X6.86Y-4.1
X9.0279Y-3.94
X9.22Y-3.94
T4
X6.375Y-3.0289
X6.575Y-3.0289
X6.775Y-3.0289
X6.125Y-2.625
X6.125Y-2.825
X6.125Y-3.025
X7.15Y-2.625
X7.15Y-2.825
X7.15Y-3.025
X6.125Y-3.725
X6.125Y-3.925
X6.125Y-4.125
X6.4Y-3.8213
X6.5Y-3.8213
X6.6Y-3.8213
X7.15Y-3.725
X7.15Y-3.925
X7.15Y-4.125
T5
X6.3Y-3.9
X6.7Y-3.9
T0
M30
