G04 #@! TF.GenerationSoftware,KiCad,Pcbnew,5.99.0-unknown-d20d310~86~ubuntu18.04.1*
G04 #@! TF.CreationDate,2019-12-01T17:32:32+00:00*
G04 #@! TF.ProjectId,mouse8,6d6f7573-6538-42e6-9b69-6361645f7063,rev?*
G04 #@! TF.SameCoordinates,Original*
G04 #@! TF.FileFunction,Paste,Top*
G04 #@! TF.FilePolarity,Positive*
%FSLAX46Y46*%
G04 Gerber Fmt 4.6, Leading zero omitted, Abs format (unit mm)*
G04 Created by KiCad (PCBNEW 5.99.0-unknown-d20d310~86~ubuntu18.04.1) date 2019-12-01 17:32:32*
%MOMM*%
%LPD*%
G04 APERTURE LIST*
%ADD10C,0.050000*%
%ADD11R,1.060000X0.650000*%
%ADD12R,1.000000X1.700000*%
%ADD13R,0.550000X1.500000*%
%ADD14R,1.500000X0.550000*%
%ADD15R,0.650000X1.060000*%
G04 APERTURE END LIST*
D10*
X94150000Y89606250D02*
X58980000Y89606250D01*
X100075000Y87831250D02*
X94150000Y89606250D01*
X100075000Y87831250D02*
X100075000Y85581250D01*
X131400000Y81356250D02*
X135175000Y77656250D01*
X128195000Y81351250D02*
X131400000Y81356250D01*
X128200000Y82906250D02*
X128195000Y81351250D01*
X121475000Y85581250D02*
X128200000Y82906250D01*
X100075000Y85581250D02*
X121475000Y85581250D01*
X128195000Y45156250D02*
X66600000Y45156250D01*
X135175000Y77656250D02*
X135180000Y53411250D01*
X128325000Y53431250D02*
X135180000Y53411250D01*
X128200000Y51856250D02*
X128195000Y45156250D01*
X128325000Y56356250D02*
X128325000Y53431250D01*
X123825000Y51856250D02*
X128200000Y51856250D01*
X123825000Y51856250D02*
G75*
G02X128325000Y56356250I0J4500000D01*
G01*
X48108800Y82189450D02*
X48108800Y79192250D01*
X60453200Y82189450D02*
X48108800Y82189450D01*
X60453200Y79192250D02*
X60453200Y82189450D01*
X48108800Y79192250D02*
X60453200Y79192250D01*
X43740000Y73096250D02*
X68505000Y73096250D01*
X70283000Y62936250D02*
X70283000Y71826250D01*
X86793000Y62936250D02*
X70283000Y62936250D01*
X86793000Y71826250D02*
X86793000Y62936250D01*
X70283000Y71826250D02*
X86793000Y71826250D01*
X66600000Y46426250D02*
X66600000Y45156250D01*
X41200000Y46426250D02*
X66600000Y46426250D01*
X58980000Y88336250D02*
X41200000Y88336250D01*
X58980000Y89606250D02*
X58980000Y88336250D01*
X43740000Y61666250D02*
X43740000Y62301250D01*
X68505000Y61666250D02*
X68505000Y62301250D01*
X68505000Y73096250D02*
X68505000Y62301250D01*
X43740000Y62301250D02*
X43740000Y73096250D01*
X68505000Y61666250D02*
X43740000Y61666250D01*
X41200000Y46426250D02*
X41200000Y88336250D01*
G36*
X81056671Y60777370D02*
G01*
X81137777Y60723177D01*
X81191970Y60642071D01*
X81211000Y60546401D01*
X81211000Y59646399D01*
X81191970Y59550729D01*
X81137777Y59469623D01*
X81056671Y59415430D01*
X80961001Y59396400D01*
X80310999Y59396400D01*
X80215329Y59415430D01*
X80134223Y59469623D01*
X80080030Y59550729D01*
X80061000Y59646399D01*
X80061000Y60546401D01*
X80080030Y60642071D01*
X80134223Y60723177D01*
X80215329Y60777370D01*
X80310999Y60796400D01*
X80961001Y60796400D01*
X81056671Y60777370D01*
G37*
G36*
X83106671Y60777370D02*
G01*
X83187777Y60723177D01*
X83241970Y60642071D01*
X83261000Y60546401D01*
X83261000Y59646399D01*
X83241970Y59550729D01*
X83187777Y59469623D01*
X83106671Y59415430D01*
X83011001Y59396400D01*
X82360999Y59396400D01*
X82265329Y59415430D01*
X82184223Y59469623D01*
X82130030Y59550729D01*
X82111000Y59646399D01*
X82111000Y60546401D01*
X82130030Y60642071D01*
X82184223Y60723177D01*
X82265329Y60777370D01*
X82360999Y60796400D01*
X83011001Y60796400D01*
X83106671Y60777370D01*
G37*
G36*
X77863271Y48070370D02*
G01*
X77944377Y48016177D01*
X77998570Y47935071D01*
X78017600Y47839401D01*
X78017600Y47189399D01*
X77998570Y47093729D01*
X77944377Y47012623D01*
X77863271Y46958430D01*
X77767601Y46939400D01*
X76867599Y46939400D01*
X76771929Y46958430D01*
X76690823Y47012623D01*
X76636630Y47093729D01*
X76617600Y47189399D01*
X76617600Y47839401D01*
X76636630Y47935071D01*
X76690823Y48016177D01*
X76771929Y48070370D01*
X76867599Y48089400D01*
X77767601Y48089400D01*
X77863271Y48070370D01*
G37*
G36*
X77863271Y50120370D02*
G01*
X77944377Y50066177D01*
X77998570Y49985071D01*
X78017600Y49889401D01*
X78017600Y49239399D01*
X77998570Y49143729D01*
X77944377Y49062623D01*
X77863271Y49008430D01*
X77767601Y48989400D01*
X76867599Y48989400D01*
X76771929Y49008430D01*
X76690823Y49062623D01*
X76636630Y49143729D01*
X76617600Y49239399D01*
X76617600Y49889401D01*
X76636630Y49985071D01*
X76690823Y50066177D01*
X76771929Y50120370D01*
X76867599Y50139400D01*
X77767601Y50139400D01*
X77863271Y50120370D01*
G37*
G36*
X79659671Y50439570D02*
G01*
X79740777Y50385377D01*
X79794970Y50304271D01*
X79814000Y50208601D01*
X79814000Y49308599D01*
X79794970Y49212929D01*
X79740777Y49131823D01*
X79659671Y49077630D01*
X79564001Y49058600D01*
X78913999Y49058600D01*
X78818329Y49077630D01*
X78737223Y49131823D01*
X78683030Y49212929D01*
X78664000Y49308599D01*
X78664000Y50208601D01*
X78683030Y50304271D01*
X78737223Y50385377D01*
X78818329Y50439570D01*
X78913999Y50458600D01*
X79564001Y50458600D01*
X79659671Y50439570D01*
G37*
G36*
X81709671Y50439570D02*
G01*
X81790777Y50385377D01*
X81844970Y50304271D01*
X81864000Y50208601D01*
X81864000Y49308599D01*
X81844970Y49212929D01*
X81790777Y49131823D01*
X81709671Y49077630D01*
X81614001Y49058600D01*
X80963999Y49058600D01*
X80868329Y49077630D01*
X80787223Y49131823D01*
X80733030Y49212929D01*
X80714000Y49308599D01*
X80714000Y50208601D01*
X80733030Y50304271D01*
X80787223Y50385377D01*
X80868329Y50439570D01*
X80963999Y50458600D01*
X81614001Y50458600D01*
X81709671Y50439570D01*
G37*
D11*
X77452400Y53197800D03*
X77452400Y51297800D03*
X75252400Y51297800D03*
X75252400Y52247800D03*
X75252400Y53197800D03*
G36*
X75780471Y50094970D02*
G01*
X75861577Y50040777D01*
X75915770Y49959671D01*
X75934800Y49864001D01*
X75934800Y49213999D01*
X75915770Y49118329D01*
X75861577Y49037223D01*
X75780471Y48983030D01*
X75684801Y48964000D01*
X74784799Y48964000D01*
X74689129Y48983030D01*
X74608023Y49037223D01*
X74553830Y49118329D01*
X74534800Y49213999D01*
X74534800Y49864001D01*
X74553830Y49959671D01*
X74608023Y50040777D01*
X74689129Y50094970D01*
X74784799Y50114000D01*
X75684801Y50114000D01*
X75780471Y50094970D01*
G37*
G36*
X75780471Y48044970D02*
G01*
X75861577Y47990777D01*
X75915770Y47909671D01*
X75934800Y47814001D01*
X75934800Y47163999D01*
X75915770Y47068329D01*
X75861577Y46987223D01*
X75780471Y46933030D01*
X75684801Y46914000D01*
X74784799Y46914000D01*
X74689129Y46933030D01*
X74608023Y46987223D01*
X74553830Y47068329D01*
X74534800Y47163999D01*
X74534800Y47814001D01*
X74553830Y47909671D01*
X74608023Y47990777D01*
X74689129Y48044970D01*
X74784799Y48064000D01*
X75684801Y48064000D01*
X75780471Y48044970D01*
G37*
G36*
X81658871Y52420770D02*
G01*
X81739977Y52366577D01*
X81794170Y52285471D01*
X81813200Y52189801D01*
X81813200Y51289799D01*
X81794170Y51194129D01*
X81739977Y51113023D01*
X81658871Y51058830D01*
X81563201Y51039800D01*
X80913199Y51039800D01*
X80817529Y51058830D01*
X80736423Y51113023D01*
X80682230Y51194129D01*
X80663200Y51289799D01*
X80663200Y52189801D01*
X80682230Y52285471D01*
X80736423Y52366577D01*
X80817529Y52420770D01*
X80913199Y52439800D01*
X81563201Y52439800D01*
X81658871Y52420770D01*
G37*
G36*
X79608871Y52420770D02*
G01*
X79689977Y52366577D01*
X79744170Y52285471D01*
X79763200Y52189801D01*
X79763200Y51289799D01*
X79744170Y51194129D01*
X79689977Y51113023D01*
X79608871Y51058830D01*
X79513201Y51039800D01*
X78863199Y51039800D01*
X78767529Y51058830D01*
X78686423Y51113023D01*
X78632230Y51194129D01*
X78613200Y51289799D01*
X78613200Y52189801D01*
X78632230Y52285471D01*
X78686423Y52366577D01*
X78767529Y52420770D01*
X78863199Y52439800D01*
X79513201Y52439800D01*
X79608871Y52420770D01*
G37*
D12*
X127817800Y66750800D03*
X127817800Y73050800D03*
X131617800Y66750800D03*
X131617800Y73050800D03*
G36*
X82893671Y78995220D02*
G01*
X82974777Y78941027D01*
X83028970Y78859921D01*
X83048000Y78764251D01*
X83048000Y78114249D01*
X83028970Y78018579D01*
X82974777Y77937473D01*
X82893671Y77883280D01*
X82798001Y77864250D01*
X81897999Y77864250D01*
X81802329Y77883280D01*
X81721223Y77937473D01*
X81667030Y78018579D01*
X81648000Y78114249D01*
X81648000Y78764251D01*
X81667030Y78859921D01*
X81721223Y78941027D01*
X81802329Y78995220D01*
X81897999Y79014250D01*
X82798001Y79014250D01*
X82893671Y78995220D01*
G37*
G36*
X82893671Y76945220D02*
G01*
X82974777Y76891027D01*
X83028970Y76809921D01*
X83048000Y76714251D01*
X83048000Y76064249D01*
X83028970Y75968579D01*
X82974777Y75887473D01*
X82893671Y75833280D01*
X82798001Y75814250D01*
X81897999Y75814250D01*
X81802329Y75833280D01*
X81721223Y75887473D01*
X81667030Y75968579D01*
X81648000Y76064249D01*
X81648000Y76714251D01*
X81667030Y76809921D01*
X81721223Y76891027D01*
X81802329Y76945220D01*
X81897999Y76964250D01*
X82798001Y76964250D01*
X82893671Y76945220D01*
G37*
G36*
X85941671Y78995220D02*
G01*
X86022777Y78941027D01*
X86076970Y78859921D01*
X86096000Y78764251D01*
X86096000Y78114249D01*
X86076970Y78018579D01*
X86022777Y77937473D01*
X85941671Y77883280D01*
X85846001Y77864250D01*
X84945999Y77864250D01*
X84850329Y77883280D01*
X84769223Y77937473D01*
X84715030Y78018579D01*
X84696000Y78114249D01*
X84696000Y78764251D01*
X84715030Y78859921D01*
X84769223Y78941027D01*
X84850329Y78995220D01*
X84945999Y79014250D01*
X85846001Y79014250D01*
X85941671Y78995220D01*
G37*
G36*
X85941671Y76945220D02*
G01*
X86022777Y76891027D01*
X86076970Y76809921D01*
X86096000Y76714251D01*
X86096000Y76064249D01*
X86076970Y75968579D01*
X86022777Y75887473D01*
X85941671Y75833280D01*
X85846001Y75814250D01*
X84945999Y75814250D01*
X84850329Y75833280D01*
X84769223Y75887473D01*
X84715030Y75968579D01*
X84696000Y76064249D01*
X84696000Y76714251D01*
X84715030Y76809921D01*
X84769223Y76891027D01*
X84850329Y76945220D01*
X84945999Y76964250D01*
X85846001Y76964250D01*
X85941671Y76945220D01*
G37*
G36*
X98252471Y63952370D02*
G01*
X98333577Y63898177D01*
X98387770Y63817071D01*
X98406800Y63721401D01*
X98406800Y62821399D01*
X98387770Y62725729D01*
X98333577Y62644623D01*
X98252471Y62590430D01*
X98156801Y62571400D01*
X97506799Y62571400D01*
X97411129Y62590430D01*
X97330023Y62644623D01*
X97275830Y62725729D01*
X97256800Y62821399D01*
X97256800Y63721401D01*
X97275830Y63817071D01*
X97330023Y63898177D01*
X97411129Y63952370D01*
X97506799Y63971400D01*
X98156801Y63971400D01*
X98252471Y63952370D01*
G37*
G36*
X100302471Y63952370D02*
G01*
X100383577Y63898177D01*
X100437770Y63817071D01*
X100456800Y63721401D01*
X100456800Y62821399D01*
X100437770Y62725729D01*
X100383577Y62644623D01*
X100302471Y62590430D01*
X100206801Y62571400D01*
X99556799Y62571400D01*
X99461129Y62590430D01*
X99380023Y62644623D01*
X99325830Y62725729D01*
X99306800Y62821399D01*
X99306800Y63721401D01*
X99325830Y63817071D01*
X99380023Y63898177D01*
X99461129Y63952370D01*
X99556799Y63971400D01*
X100206801Y63971400D01*
X100302471Y63952370D01*
G37*
G36*
X111437671Y79055220D02*
G01*
X111518777Y79001027D01*
X111572970Y78919921D01*
X111592000Y78824251D01*
X111592000Y77924249D01*
X111572970Y77828579D01*
X111518777Y77747473D01*
X111437671Y77693280D01*
X111342001Y77674250D01*
X110691999Y77674250D01*
X110596329Y77693280D01*
X110515223Y77747473D01*
X110461030Y77828579D01*
X110442000Y77924249D01*
X110442000Y78824251D01*
X110461030Y78919921D01*
X110515223Y79001027D01*
X110596329Y79055220D01*
X110691999Y79074250D01*
X111342001Y79074250D01*
X111437671Y79055220D01*
G37*
G36*
X109387671Y79055220D02*
G01*
X109468777Y79001027D01*
X109522970Y78919921D01*
X109542000Y78824251D01*
X109542000Y77924249D01*
X109522970Y77828579D01*
X109468777Y77747473D01*
X109387671Y77693280D01*
X109292001Y77674250D01*
X108641999Y77674250D01*
X108546329Y77693280D01*
X108465223Y77747473D01*
X108411030Y77828579D01*
X108392000Y77924249D01*
X108392000Y78824251D01*
X108411030Y78919921D01*
X108465223Y79001027D01*
X108546329Y79055220D01*
X108641999Y79074250D01*
X109292001Y79074250D01*
X109387671Y79055220D01*
G37*
G36*
X89497671Y47444720D02*
G01*
X89578777Y47390527D01*
X89632970Y47309421D01*
X89652000Y47213751D01*
X89652000Y46563749D01*
X89632970Y46468079D01*
X89578777Y46386973D01*
X89497671Y46332780D01*
X89402001Y46313750D01*
X88501999Y46313750D01*
X88406329Y46332780D01*
X88325223Y46386973D01*
X88271030Y46468079D01*
X88252000Y46563749D01*
X88252000Y47213751D01*
X88271030Y47309421D01*
X88325223Y47390527D01*
X88406329Y47444720D01*
X88501999Y47463750D01*
X89402001Y47463750D01*
X89497671Y47444720D01*
G37*
G36*
X89497671Y49494720D02*
G01*
X89578777Y49440527D01*
X89632970Y49359421D01*
X89652000Y49263751D01*
X89652000Y48613749D01*
X89632970Y48518079D01*
X89578777Y48436973D01*
X89497671Y48382780D01*
X89402001Y48363750D01*
X88501999Y48363750D01*
X88406329Y48382780D01*
X88325223Y48436973D01*
X88271030Y48518079D01*
X88252000Y48613749D01*
X88252000Y49263751D01*
X88271030Y49359421D01*
X88325223Y49440527D01*
X88406329Y49494720D01*
X88501999Y49513750D01*
X89402001Y49513750D01*
X89497671Y49494720D01*
G37*
G36*
X83730671Y47409970D02*
G01*
X83811777Y47355777D01*
X83865970Y47274671D01*
X83885000Y47179001D01*
X83885000Y46528999D01*
X83865970Y46433329D01*
X83811777Y46352223D01*
X83730671Y46298030D01*
X83635001Y46279000D01*
X82734999Y46279000D01*
X82639329Y46298030D01*
X82558223Y46352223D01*
X82504030Y46433329D01*
X82485000Y46528999D01*
X82485000Y47179001D01*
X82504030Y47274671D01*
X82558223Y47355777D01*
X82639329Y47409970D01*
X82734999Y47429000D01*
X83635001Y47429000D01*
X83730671Y47409970D01*
G37*
G36*
X83730671Y49459970D02*
G01*
X83811777Y49405777D01*
X83865970Y49324671D01*
X83885000Y49229001D01*
X83885000Y48578999D01*
X83865970Y48483329D01*
X83811777Y48402223D01*
X83730671Y48348030D01*
X83635001Y48329000D01*
X82734999Y48329000D01*
X82639329Y48348030D01*
X82558223Y48402223D01*
X82504030Y48483329D01*
X82485000Y48578999D01*
X82485000Y49229001D01*
X82504030Y49324671D01*
X82558223Y49405777D01*
X82639329Y49459970D01*
X82734999Y49479000D01*
X83635001Y49479000D01*
X83730671Y49459970D01*
G37*
G36*
X99979671Y74387220D02*
G01*
X100060777Y74333027D01*
X100114970Y74251921D01*
X100134000Y74156251D01*
X100134000Y73256249D01*
X100114970Y73160579D01*
X100060777Y73079473D01*
X99979671Y73025280D01*
X99884001Y73006250D01*
X99233999Y73006250D01*
X99138329Y73025280D01*
X99057223Y73079473D01*
X99003030Y73160579D01*
X98984000Y73256249D01*
X98984000Y74156251D01*
X99003030Y74251921D01*
X99057223Y74333027D01*
X99138329Y74387220D01*
X99233999Y74406250D01*
X99884001Y74406250D01*
X99979671Y74387220D01*
G37*
G36*
X102029671Y74387220D02*
G01*
X102110777Y74333027D01*
X102164970Y74251921D01*
X102184000Y74156251D01*
X102184000Y73256249D01*
X102164970Y73160579D01*
X102110777Y73079473D01*
X102029671Y73025280D01*
X101934001Y73006250D01*
X101283999Y73006250D01*
X101188329Y73025280D01*
X101107223Y73079473D01*
X101053030Y73160579D01*
X101034000Y73256249D01*
X101034000Y74156251D01*
X101053030Y74251921D01*
X101107223Y74333027D01*
X101188329Y74387220D01*
X101283999Y74406250D01*
X101934001Y74406250D01*
X102029671Y74387220D01*
G37*
G36*
X101595671Y60187220D02*
G01*
X101676777Y60133027D01*
X101730970Y60051921D01*
X101750000Y59956251D01*
X101750000Y59056249D01*
X101730970Y58960579D01*
X101676777Y58879473D01*
X101595671Y58825280D01*
X101500001Y58806250D01*
X100849999Y58806250D01*
X100754329Y58825280D01*
X100673223Y58879473D01*
X100619030Y58960579D01*
X100600000Y59056249D01*
X100600000Y59956251D01*
X100619030Y60051921D01*
X100673223Y60133027D01*
X100754329Y60187220D01*
X100849999Y60206250D01*
X101500001Y60206250D01*
X101595671Y60187220D01*
G37*
G36*
X103645671Y60187220D02*
G01*
X103726777Y60133027D01*
X103780970Y60051921D01*
X103800000Y59956251D01*
X103800000Y59056249D01*
X103780970Y58960579D01*
X103726777Y58879473D01*
X103645671Y58825280D01*
X103550001Y58806250D01*
X102899999Y58806250D01*
X102804329Y58825280D01*
X102723223Y58879473D01*
X102669030Y58960579D01*
X102650000Y59056249D01*
X102650000Y59956251D01*
X102669030Y60051921D01*
X102723223Y60133027D01*
X102804329Y60187220D01*
X102899999Y60206250D01*
X103550001Y60206250D01*
X103645671Y60187220D01*
G37*
G36*
X121445671Y64187220D02*
G01*
X121526777Y64133027D01*
X121580970Y64051921D01*
X121600000Y63956251D01*
X121600000Y63056249D01*
X121580970Y62960579D01*
X121526777Y62879473D01*
X121445671Y62825280D01*
X121350001Y62806250D01*
X120699999Y62806250D01*
X120604329Y62825280D01*
X120523223Y62879473D01*
X120469030Y62960579D01*
X120450000Y63056249D01*
X120450000Y63956251D01*
X120469030Y64051921D01*
X120523223Y64133027D01*
X120604329Y64187220D01*
X120699999Y64206250D01*
X121350001Y64206250D01*
X121445671Y64187220D01*
G37*
G36*
X119395671Y64187220D02*
G01*
X119476777Y64133027D01*
X119530970Y64051921D01*
X119550000Y63956251D01*
X119550000Y63056249D01*
X119530970Y62960579D01*
X119476777Y62879473D01*
X119395671Y62825280D01*
X119300001Y62806250D01*
X118649999Y62806250D01*
X118554329Y62825280D01*
X118473223Y62879473D01*
X118419030Y62960579D01*
X118400000Y63056249D01*
X118400000Y63956251D01*
X118419030Y64051921D01*
X118473223Y64133027D01*
X118554329Y64187220D01*
X118649999Y64206250D01*
X119300001Y64206250D01*
X119395671Y64187220D01*
G37*
G36*
X114231671Y57719220D02*
G01*
X114312777Y57665027D01*
X114366970Y57583921D01*
X114386000Y57488251D01*
X114386000Y56588249D01*
X114366970Y56492579D01*
X114312777Y56411473D01*
X114231671Y56357280D01*
X114136001Y56338250D01*
X113485999Y56338250D01*
X113390329Y56357280D01*
X113309223Y56411473D01*
X113255030Y56492579D01*
X113236000Y56588249D01*
X113236000Y57488251D01*
X113255030Y57583921D01*
X113309223Y57665027D01*
X113390329Y57719220D01*
X113485999Y57738250D01*
X114136001Y57738250D01*
X114231671Y57719220D01*
G37*
G36*
X112181671Y57719220D02*
G01*
X112262777Y57665027D01*
X112316970Y57583921D01*
X112336000Y57488251D01*
X112336000Y56588249D01*
X112316970Y56492579D01*
X112262777Y56411473D01*
X112181671Y56357280D01*
X112086001Y56338250D01*
X111435999Y56338250D01*
X111340329Y56357280D01*
X111259223Y56411473D01*
X111205030Y56492579D01*
X111186000Y56588249D01*
X111186000Y57488251D01*
X111205030Y57583921D01*
X111259223Y57665027D01*
X111340329Y57719220D01*
X111435999Y57738250D01*
X112086001Y57738250D01*
X112181671Y57719220D01*
G37*
G36*
X105831671Y57719220D02*
G01*
X105912777Y57665027D01*
X105966970Y57583921D01*
X105986000Y57488251D01*
X105986000Y56588249D01*
X105966970Y56492579D01*
X105912777Y56411473D01*
X105831671Y56357280D01*
X105736001Y56338250D01*
X105085999Y56338250D01*
X104990329Y56357280D01*
X104909223Y56411473D01*
X104855030Y56492579D01*
X104836000Y56588249D01*
X104836000Y57488251D01*
X104855030Y57583921D01*
X104909223Y57665027D01*
X104990329Y57719220D01*
X105085999Y57738250D01*
X105736001Y57738250D01*
X105831671Y57719220D01*
G37*
G36*
X107881671Y57719220D02*
G01*
X107962777Y57665027D01*
X108016970Y57583921D01*
X108036000Y57488251D01*
X108036000Y56588249D01*
X108016970Y56492579D01*
X107962777Y56411473D01*
X107881671Y56357280D01*
X107786001Y56338250D01*
X107135999Y56338250D01*
X107040329Y56357280D01*
X106959223Y56411473D01*
X106905030Y56492579D01*
X106886000Y56588249D01*
X106886000Y57488251D01*
X106905030Y57583921D01*
X106959223Y57665027D01*
X107040329Y57719220D01*
X107135999Y57738250D01*
X107786001Y57738250D01*
X107881671Y57719220D01*
G37*
G36*
X99776471Y66847970D02*
G01*
X99857577Y66793777D01*
X99911770Y66712671D01*
X99930800Y66617001D01*
X99930800Y65716999D01*
X99911770Y65621329D01*
X99857577Y65540223D01*
X99776471Y65486030D01*
X99680801Y65467000D01*
X99030799Y65467000D01*
X98935129Y65486030D01*
X98854023Y65540223D01*
X98799830Y65621329D01*
X98780800Y65716999D01*
X98780800Y66617001D01*
X98799830Y66712671D01*
X98854023Y66793777D01*
X98935129Y66847970D01*
X99030799Y66867000D01*
X99680801Y66867000D01*
X99776471Y66847970D01*
G37*
G36*
X101826471Y66847970D02*
G01*
X101907577Y66793777D01*
X101961770Y66712671D01*
X101980800Y66617001D01*
X101980800Y65716999D01*
X101961770Y65621329D01*
X101907577Y65540223D01*
X101826471Y65486030D01*
X101730801Y65467000D01*
X101080799Y65467000D01*
X100985129Y65486030D01*
X100904023Y65540223D01*
X100849830Y65621329D01*
X100830800Y65716999D01*
X100830800Y66617001D01*
X100849830Y66712671D01*
X100904023Y66793777D01*
X100985129Y66847970D01*
X101080799Y66867000D01*
X101730801Y66867000D01*
X101826471Y66847970D01*
G37*
G36*
X50889671Y86886720D02*
G01*
X50970777Y86832527D01*
X51024970Y86751421D01*
X51044000Y86655751D01*
X51044000Y86005749D01*
X51024970Y85910079D01*
X50970777Y85828973D01*
X50889671Y85774780D01*
X50794001Y85755750D01*
X49893999Y85755750D01*
X49798329Y85774780D01*
X49717223Y85828973D01*
X49663030Y85910079D01*
X49644000Y86005749D01*
X49644000Y86655751D01*
X49663030Y86751421D01*
X49717223Y86832527D01*
X49798329Y86886720D01*
X49893999Y86905750D01*
X50794001Y86905750D01*
X50889671Y86886720D01*
G37*
G36*
X50889671Y84836720D02*
G01*
X50970777Y84782527D01*
X51024970Y84701421D01*
X51044000Y84605751D01*
X51044000Y83955749D01*
X51024970Y83860079D01*
X50970777Y83778973D01*
X50889671Y83724780D01*
X50794001Y83705750D01*
X49893999Y83705750D01*
X49798329Y83724780D01*
X49717223Y83778973D01*
X49663030Y83860079D01*
X49644000Y83955749D01*
X49644000Y84605751D01*
X49663030Y84701421D01*
X49717223Y84782527D01*
X49798329Y84836720D01*
X49893999Y84855750D01*
X50794001Y84855750D01*
X50889671Y84836720D01*
G37*
G36*
X75781671Y86089220D02*
G01*
X75862777Y86035027D01*
X75916970Y85953921D01*
X75936000Y85858251D01*
X75936000Y85208249D01*
X75916970Y85112579D01*
X75862777Y85031473D01*
X75781671Y84977280D01*
X75686001Y84958250D01*
X74785999Y84958250D01*
X74690329Y84977280D01*
X74609223Y85031473D01*
X74555030Y85112579D01*
X74536000Y85208249D01*
X74536000Y85858251D01*
X74555030Y85953921D01*
X74609223Y86035027D01*
X74690329Y86089220D01*
X74785999Y86108250D01*
X75686001Y86108250D01*
X75781671Y86089220D01*
G37*
G36*
X75781671Y88139220D02*
G01*
X75862777Y88085027D01*
X75916970Y88003921D01*
X75936000Y87908251D01*
X75936000Y87258249D01*
X75916970Y87162579D01*
X75862777Y87081473D01*
X75781671Y87027280D01*
X75686001Y87008250D01*
X74785999Y87008250D01*
X74690329Y87027280D01*
X74609223Y87081473D01*
X74555030Y87162579D01*
X74536000Y87258249D01*
X74536000Y87908251D01*
X74555030Y88003921D01*
X74609223Y88085027D01*
X74690329Y88139220D01*
X74785999Y88158250D01*
X75686001Y88158250D01*
X75781671Y88139220D01*
G37*
G36*
X98445671Y52387220D02*
G01*
X98526777Y52333027D01*
X98580970Y52251921D01*
X98600000Y52156251D01*
X98600000Y51256249D01*
X98580970Y51160579D01*
X98526777Y51079473D01*
X98445671Y51025280D01*
X98350001Y51006250D01*
X97699999Y51006250D01*
X97604329Y51025280D01*
X97523223Y51079473D01*
X97469030Y51160579D01*
X97450000Y51256249D01*
X97450000Y52156251D01*
X97469030Y52251921D01*
X97523223Y52333027D01*
X97604329Y52387220D01*
X97699999Y52406250D01*
X98350001Y52406250D01*
X98445671Y52387220D01*
G37*
G36*
X96395671Y52387220D02*
G01*
X96476777Y52333027D01*
X96530970Y52251921D01*
X96550000Y52156251D01*
X96550000Y51256249D01*
X96530970Y51160579D01*
X96476777Y51079473D01*
X96395671Y51025280D01*
X96300001Y51006250D01*
X95649999Y51006250D01*
X95554329Y51025280D01*
X95473223Y51079473D01*
X95419030Y51160579D01*
X95400000Y51256249D01*
X95400000Y52156251D01*
X95419030Y52251921D01*
X95473223Y52333027D01*
X95554329Y52387220D01*
X95649999Y52406250D01*
X96300001Y52406250D01*
X96395671Y52387220D01*
G37*
G36*
X62573671Y84873220D02*
G01*
X62654777Y84819027D01*
X62708970Y84737921D01*
X62728000Y84642251D01*
X62728000Y83992249D01*
X62708970Y83896579D01*
X62654777Y83815473D01*
X62573671Y83761280D01*
X62478001Y83742250D01*
X61577999Y83742250D01*
X61482329Y83761280D01*
X61401223Y83815473D01*
X61347030Y83896579D01*
X61328000Y83992249D01*
X61328000Y84642251D01*
X61347030Y84737921D01*
X61401223Y84819027D01*
X61482329Y84873220D01*
X61577999Y84892250D01*
X62478001Y84892250D01*
X62573671Y84873220D01*
G37*
G36*
X62573671Y86923220D02*
G01*
X62654777Y86869027D01*
X62708970Y86787921D01*
X62728000Y86692251D01*
X62728000Y86042249D01*
X62708970Y85946579D01*
X62654777Y85865473D01*
X62573671Y85811280D01*
X62478001Y85792250D01*
X61577999Y85792250D01*
X61482329Y85811280D01*
X61401223Y85865473D01*
X61347030Y85946579D01*
X61328000Y86042249D01*
X61328000Y86692251D01*
X61347030Y86787921D01*
X61401223Y86869027D01*
X61482329Y86923220D01*
X61577999Y86942250D01*
X62478001Y86942250D01*
X62573671Y86923220D01*
G37*
G36*
X55461671Y84836720D02*
G01*
X55542777Y84782527D01*
X55596970Y84701421D01*
X55616000Y84605751D01*
X55616000Y83955749D01*
X55596970Y83860079D01*
X55542777Y83778973D01*
X55461671Y83724780D01*
X55366001Y83705750D01*
X54465999Y83705750D01*
X54370329Y83724780D01*
X54289223Y83778973D01*
X54235030Y83860079D01*
X54216000Y83955749D01*
X54216000Y84605751D01*
X54235030Y84701421D01*
X54289223Y84782527D01*
X54370329Y84836720D01*
X54465999Y84855750D01*
X55366001Y84855750D01*
X55461671Y84836720D01*
G37*
G36*
X55461671Y86886720D02*
G01*
X55542777Y86832527D01*
X55596970Y86751421D01*
X55616000Y86655751D01*
X55616000Y86005749D01*
X55596970Y85910079D01*
X55542777Y85828973D01*
X55461671Y85774780D01*
X55366001Y85755750D01*
X54465999Y85755750D01*
X54370329Y85774780D01*
X54289223Y85828973D01*
X54235030Y85910079D01*
X54216000Y86005749D01*
X54216000Y86655751D01*
X54235030Y86751421D01*
X54289223Y86832527D01*
X54370329Y86886720D01*
X54465999Y86905750D01*
X55366001Y86905750D01*
X55461671Y86886720D01*
G37*
G36*
X90513671Y80555720D02*
G01*
X90594777Y80501527D01*
X90648970Y80420421D01*
X90668000Y80324751D01*
X90668000Y79674749D01*
X90648970Y79579079D01*
X90594777Y79497973D01*
X90513671Y79443780D01*
X90418001Y79424750D01*
X89517999Y79424750D01*
X89422329Y79443780D01*
X89341223Y79497973D01*
X89287030Y79579079D01*
X89268000Y79674749D01*
X89268000Y80324751D01*
X89287030Y80420421D01*
X89341223Y80501527D01*
X89422329Y80555720D01*
X89517999Y80574750D01*
X90418001Y80574750D01*
X90513671Y80555720D01*
G37*
G36*
X90513671Y78505720D02*
G01*
X90594777Y78451527D01*
X90648970Y78370421D01*
X90668000Y78274751D01*
X90668000Y77624749D01*
X90648970Y77529079D01*
X90594777Y77447973D01*
X90513671Y77393780D01*
X90418001Y77374750D01*
X89517999Y77374750D01*
X89422329Y77393780D01*
X89341223Y77447973D01*
X89287030Y77529079D01*
X89268000Y77624749D01*
X89268000Y78274751D01*
X89287030Y78370421D01*
X89341223Y78451527D01*
X89422329Y78505720D01*
X89517999Y78524750D01*
X90418001Y78524750D01*
X90513671Y78505720D01*
G37*
G36*
X121112471Y72105770D02*
G01*
X121193577Y72051577D01*
X121247770Y71970471D01*
X121266800Y71874801D01*
X121266800Y70974799D01*
X121247770Y70879129D01*
X121193577Y70798023D01*
X121112471Y70743830D01*
X121016801Y70724800D01*
X120366799Y70724800D01*
X120271129Y70743830D01*
X120190023Y70798023D01*
X120135830Y70879129D01*
X120116800Y70974799D01*
X120116800Y71874801D01*
X120135830Y71970471D01*
X120190023Y72051577D01*
X120271129Y72105770D01*
X120366799Y72124800D01*
X121016801Y72124800D01*
X121112471Y72105770D01*
G37*
G36*
X123162471Y72105770D02*
G01*
X123243577Y72051577D01*
X123297770Y71970471D01*
X123316800Y71874801D01*
X123316800Y70974799D01*
X123297770Y70879129D01*
X123243577Y70798023D01*
X123162471Y70743830D01*
X123066801Y70724800D01*
X122416799Y70724800D01*
X122321129Y70743830D01*
X122240023Y70798023D01*
X122185830Y70879129D01*
X122166800Y70974799D01*
X122166800Y71874801D01*
X122185830Y71970471D01*
X122240023Y72051577D01*
X122321129Y72105770D01*
X122416799Y72124800D01*
X123066801Y72124800D01*
X123162471Y72105770D01*
G37*
G36*
X75475671Y77577770D02*
G01*
X75556777Y77523577D01*
X75610970Y77442471D01*
X75630000Y77346801D01*
X75630000Y76696799D01*
X75610970Y76601129D01*
X75556777Y76520023D01*
X75475671Y76465830D01*
X75380001Y76446800D01*
X74479999Y76446800D01*
X74384329Y76465830D01*
X74303223Y76520023D01*
X74249030Y76601129D01*
X74230000Y76696799D01*
X74230000Y77346801D01*
X74249030Y77442471D01*
X74303223Y77523577D01*
X74384329Y77577770D01*
X74479999Y77596800D01*
X75380001Y77596800D01*
X75475671Y77577770D01*
G37*
G36*
X75475671Y75527770D02*
G01*
X75556777Y75473577D01*
X75610970Y75392471D01*
X75630000Y75296801D01*
X75630000Y74646799D01*
X75610970Y74551129D01*
X75556777Y74470023D01*
X75475671Y74415830D01*
X75380001Y74396800D01*
X74479999Y74396800D01*
X74384329Y74415830D01*
X74303223Y74470023D01*
X74249030Y74551129D01*
X74230000Y74646799D01*
X74230000Y75296801D01*
X74249030Y75392471D01*
X74303223Y75473577D01*
X74384329Y75527770D01*
X74479999Y75546800D01*
X75380001Y75546800D01*
X75475671Y75527770D01*
G37*
G36*
X115854914Y78094810D02*
G01*
X115936020Y78040617D01*
X116572417Y77404220D01*
X116626610Y77323114D01*
X116645640Y77227444D01*
X116626610Y77131774D01*
X116572417Y77050668D01*
X116112796Y76591047D01*
X116031690Y76536854D01*
X115936020Y76517824D01*
X115840350Y76536854D01*
X115759244Y76591047D01*
X115122847Y77227444D01*
X115068654Y77308550D01*
X115049624Y77404220D01*
X115068654Y77499890D01*
X115122847Y77580996D01*
X115582468Y78040617D01*
X115663574Y78094810D01*
X115759244Y78113840D01*
X115854914Y78094810D01*
G37*
G36*
X117304482Y79544378D02*
G01*
X117385588Y79490185D01*
X118021985Y78853788D01*
X118076178Y78772682D01*
X118095208Y78677012D01*
X118076178Y78581342D01*
X118021985Y78500236D01*
X117562364Y78040615D01*
X117481258Y77986422D01*
X117385588Y77967392D01*
X117289918Y77986422D01*
X117208812Y78040615D01*
X116572415Y78677012D01*
X116518222Y78758118D01*
X116499192Y78853788D01*
X116518222Y78949458D01*
X116572415Y79030564D01*
X117032036Y79490185D01*
X117113142Y79544378D01*
X117208812Y79563408D01*
X117304482Y79544378D01*
G37*
G36*
X98133671Y49567720D02*
G01*
X98214777Y49513527D01*
X98268970Y49432421D01*
X98288000Y49336751D01*
X98288000Y48686749D01*
X98268970Y48591079D01*
X98214777Y48509973D01*
X98133671Y48455780D01*
X98038001Y48436750D01*
X97137999Y48436750D01*
X97042329Y48455780D01*
X96961223Y48509973D01*
X96907030Y48591079D01*
X96888000Y48686749D01*
X96888000Y49336751D01*
X96907030Y49432421D01*
X96961223Y49513527D01*
X97042329Y49567720D01*
X97137999Y49586750D01*
X98038001Y49586750D01*
X98133671Y49567720D01*
G37*
G36*
X98133671Y47517720D02*
G01*
X98214777Y47463527D01*
X98268970Y47382421D01*
X98288000Y47286751D01*
X98288000Y46636749D01*
X98268970Y46541079D01*
X98214777Y46459973D01*
X98133671Y46405780D01*
X98038001Y46386750D01*
X97137999Y46386750D01*
X97042329Y46405780D01*
X96961223Y46459973D01*
X96907030Y46541079D01*
X96888000Y46636749D01*
X96888000Y47286751D01*
X96907030Y47382421D01*
X96961223Y47463527D01*
X97042329Y47517720D01*
X97137999Y47536750D01*
X98038001Y47536750D01*
X98133671Y47517720D01*
G37*
G36*
X59017671Y86886720D02*
G01*
X59098777Y86832527D01*
X59152970Y86751421D01*
X59172000Y86655751D01*
X59172000Y86005749D01*
X59152970Y85910079D01*
X59098777Y85828973D01*
X59017671Y85774780D01*
X58922001Y85755750D01*
X58021999Y85755750D01*
X57926329Y85774780D01*
X57845223Y85828973D01*
X57791030Y85910079D01*
X57772000Y86005749D01*
X57772000Y86655751D01*
X57791030Y86751421D01*
X57845223Y86832527D01*
X57926329Y86886720D01*
X58021999Y86905750D01*
X58922001Y86905750D01*
X59017671Y86886720D01*
G37*
G36*
X59017671Y84836720D02*
G01*
X59098777Y84782527D01*
X59152970Y84701421D01*
X59172000Y84605751D01*
X59172000Y83955749D01*
X59152970Y83860079D01*
X59098777Y83778973D01*
X59017671Y83724780D01*
X58922001Y83705750D01*
X58021999Y83705750D01*
X57926329Y83724780D01*
X57845223Y83778973D01*
X57791030Y83860079D01*
X57772000Y83955749D01*
X57772000Y84605751D01*
X57791030Y84701421D01*
X57845223Y84782527D01*
X57926329Y84836720D01*
X58021999Y84855750D01*
X58922001Y84855750D01*
X59017671Y84836720D01*
G37*
G36*
X100673671Y49531220D02*
G01*
X100754777Y49477027D01*
X100808970Y49395921D01*
X100828000Y49300251D01*
X100828000Y48650249D01*
X100808970Y48554579D01*
X100754777Y48473473D01*
X100673671Y48419280D01*
X100578001Y48400250D01*
X99677999Y48400250D01*
X99582329Y48419280D01*
X99501223Y48473473D01*
X99447030Y48554579D01*
X99428000Y48650249D01*
X99428000Y49300251D01*
X99447030Y49395921D01*
X99501223Y49477027D01*
X99582329Y49531220D01*
X99677999Y49550250D01*
X100578001Y49550250D01*
X100673671Y49531220D01*
G37*
G36*
X100673671Y47481220D02*
G01*
X100754777Y47427027D01*
X100808970Y47345921D01*
X100828000Y47250251D01*
X100828000Y46600249D01*
X100808970Y46504579D01*
X100754777Y46423473D01*
X100673671Y46369280D01*
X100578001Y46350250D01*
X99677999Y46350250D01*
X99582329Y46369280D01*
X99501223Y46423473D01*
X99447030Y46504579D01*
X99428000Y46600249D01*
X99428000Y47250251D01*
X99447030Y47345921D01*
X99501223Y47427027D01*
X99582329Y47481220D01*
X99677999Y47500250D01*
X100578001Y47500250D01*
X100673671Y47481220D01*
G37*
G36*
X66129671Y86886720D02*
G01*
X66210777Y86832527D01*
X66264970Y86751421D01*
X66284000Y86655751D01*
X66284000Y86005749D01*
X66264970Y85910079D01*
X66210777Y85828973D01*
X66129671Y85774780D01*
X66034001Y85755750D01*
X65133999Y85755750D01*
X65038329Y85774780D01*
X64957223Y85828973D01*
X64903030Y85910079D01*
X64884000Y86005749D01*
X64884000Y86655751D01*
X64903030Y86751421D01*
X64957223Y86832527D01*
X65038329Y86886720D01*
X65133999Y86905750D01*
X66034001Y86905750D01*
X66129671Y86886720D01*
G37*
G36*
X66129671Y84836720D02*
G01*
X66210777Y84782527D01*
X66264970Y84701421D01*
X66284000Y84605751D01*
X66284000Y83955749D01*
X66264970Y83860079D01*
X66210777Y83778973D01*
X66129671Y83724780D01*
X66034001Y83705750D01*
X65133999Y83705750D01*
X65038329Y83724780D01*
X64957223Y83778973D01*
X64903030Y83860079D01*
X64884000Y83955749D01*
X64884000Y84605751D01*
X64903030Y84701421D01*
X64957223Y84782527D01*
X65038329Y84836720D01*
X65133999Y84855750D01*
X66034001Y84855750D01*
X66129671Y84836720D01*
G37*
G36*
X117265498Y76711394D02*
G01*
X117346604Y76657201D01*
X117983001Y76020804D01*
X118037194Y75939698D01*
X118056224Y75844028D01*
X118037194Y75748358D01*
X117983001Y75667252D01*
X117523380Y75207631D01*
X117442274Y75153438D01*
X117346604Y75134408D01*
X117250934Y75153438D01*
X117169828Y75207631D01*
X116533431Y75844028D01*
X116479238Y75925134D01*
X116460208Y76020804D01*
X116479238Y76116474D01*
X116533431Y76197580D01*
X116993052Y76657201D01*
X117074158Y76711394D01*
X117169828Y76730424D01*
X117265498Y76711394D01*
G37*
G36*
X118715066Y78160962D02*
G01*
X118796172Y78106769D01*
X119432569Y77470372D01*
X119486762Y77389266D01*
X119505792Y77293596D01*
X119486762Y77197926D01*
X119432569Y77116820D01*
X118972948Y76657199D01*
X118891842Y76603006D01*
X118796172Y76583976D01*
X118700502Y76603006D01*
X118619396Y76657199D01*
X117982999Y77293596D01*
X117928806Y77374702D01*
X117909776Y77470372D01*
X117928806Y77566042D01*
X117982999Y77647148D01*
X118442620Y78106769D01*
X118523726Y78160962D01*
X118619396Y78179992D01*
X118715066Y78160962D01*
G37*
G36*
X120477471Y76118970D02*
G01*
X120558577Y76064777D01*
X120612770Y75983671D01*
X120631800Y75888001D01*
X120631800Y74987999D01*
X120612770Y74892329D01*
X120558577Y74811223D01*
X120477471Y74757030D01*
X120381801Y74738000D01*
X119731799Y74738000D01*
X119636129Y74757030D01*
X119555023Y74811223D01*
X119500830Y74892329D01*
X119481800Y74987999D01*
X119481800Y75888001D01*
X119500830Y75983671D01*
X119555023Y76064777D01*
X119636129Y76118970D01*
X119731799Y76138000D01*
X120381801Y76138000D01*
X120477471Y76118970D01*
G37*
G36*
X122527471Y76118970D02*
G01*
X122608577Y76064777D01*
X122662770Y75983671D01*
X122681800Y75888001D01*
X122681800Y74987999D01*
X122662770Y74892329D01*
X122608577Y74811223D01*
X122527471Y74757030D01*
X122431801Y74738000D01*
X121781799Y74738000D01*
X121686129Y74757030D01*
X121605023Y74811223D01*
X121550830Y74892329D01*
X121531800Y74987999D01*
X121531800Y75888001D01*
X121550830Y75983671D01*
X121605023Y76064777D01*
X121686129Y76118970D01*
X121781799Y76138000D01*
X122431801Y76138000D01*
X122527471Y76118970D01*
G37*
G36*
X99279671Y71574220D02*
G01*
X99360777Y71520027D01*
X99414970Y71438921D01*
X99434000Y71343251D01*
X99434000Y70443249D01*
X99414970Y70347579D01*
X99360777Y70266473D01*
X99279671Y70212280D01*
X99184001Y70193250D01*
X98533999Y70193250D01*
X98438329Y70212280D01*
X98357223Y70266473D01*
X98303030Y70347579D01*
X98284000Y70443249D01*
X98284000Y71343251D01*
X98303030Y71438921D01*
X98357223Y71520027D01*
X98438329Y71574220D01*
X98533999Y71593250D01*
X99184001Y71593250D01*
X99279671Y71574220D01*
G37*
G36*
X101329671Y71574220D02*
G01*
X101410777Y71520027D01*
X101464970Y71438921D01*
X101484000Y71343251D01*
X101484000Y70443249D01*
X101464970Y70347579D01*
X101410777Y70266473D01*
X101329671Y70212280D01*
X101234001Y70193250D01*
X100583999Y70193250D01*
X100488329Y70212280D01*
X100407223Y70266473D01*
X100353030Y70347579D01*
X100334000Y70443249D01*
X100334000Y71343251D01*
X100353030Y71438921D01*
X100407223Y71520027D01*
X100488329Y71574220D01*
X100583999Y71593250D01*
X101234001Y71593250D01*
X101329671Y71574220D01*
G37*
G36*
X99283171Y69272220D02*
G01*
X99364277Y69218027D01*
X99418470Y69136921D01*
X99437500Y69041251D01*
X99437500Y68141249D01*
X99418470Y68045579D01*
X99364277Y67964473D01*
X99283171Y67910280D01*
X99187501Y67891250D01*
X98537499Y67891250D01*
X98441829Y67910280D01*
X98360723Y67964473D01*
X98306530Y68045579D01*
X98287500Y68141249D01*
X98287500Y69041251D01*
X98306530Y69136921D01*
X98360723Y69218027D01*
X98441829Y69272220D01*
X98537499Y69291250D01*
X99187501Y69291250D01*
X99283171Y69272220D01*
G37*
G36*
X101333171Y69272220D02*
G01*
X101414277Y69218027D01*
X101468470Y69136921D01*
X101487500Y69041251D01*
X101487500Y68141249D01*
X101468470Y68045579D01*
X101414277Y67964473D01*
X101333171Y67910280D01*
X101237501Y67891250D01*
X100587499Y67891250D01*
X100491829Y67910280D01*
X100410723Y67964473D01*
X100356530Y68045579D01*
X100337500Y68141249D01*
X100337500Y69041251D01*
X100356530Y69136921D01*
X100410723Y69218027D01*
X100491829Y69272220D01*
X100587499Y69291250D01*
X101237501Y69291250D01*
X101333171Y69272220D01*
G37*
G36*
X77456871Y75527770D02*
G01*
X77537977Y75473577D01*
X77592170Y75392471D01*
X77611200Y75296801D01*
X77611200Y74646799D01*
X77592170Y74551129D01*
X77537977Y74470023D01*
X77456871Y74415830D01*
X77361201Y74396800D01*
X76461199Y74396800D01*
X76365529Y74415830D01*
X76284423Y74470023D01*
X76230230Y74551129D01*
X76211200Y74646799D01*
X76211200Y75296801D01*
X76230230Y75392471D01*
X76284423Y75473577D01*
X76365529Y75527770D01*
X76461199Y75546800D01*
X77361201Y75546800D01*
X77456871Y75527770D01*
G37*
G36*
X77456871Y77577770D02*
G01*
X77537977Y77523577D01*
X77592170Y77442471D01*
X77611200Y77346801D01*
X77611200Y76696799D01*
X77592170Y76601129D01*
X77537977Y76520023D01*
X77456871Y76465830D01*
X77361201Y76446800D01*
X76461199Y76446800D01*
X76365529Y76465830D01*
X76284423Y76520023D01*
X76230230Y76601129D01*
X76211200Y76696799D01*
X76211200Y77346801D01*
X76230230Y77442471D01*
X76284423Y77523577D01*
X76365529Y77577770D01*
X76461199Y77596800D01*
X77361201Y77596800D01*
X77456871Y77577770D01*
G37*
G36*
X114862498Y79952444D02*
G01*
X114943604Y79898251D01*
X115580001Y79261854D01*
X115634194Y79180748D01*
X115653224Y79085078D01*
X115634194Y78989408D01*
X115580001Y78908302D01*
X115120380Y78448681D01*
X115039274Y78394488D01*
X114943604Y78375458D01*
X114847934Y78394488D01*
X114766828Y78448681D01*
X114130431Y79085078D01*
X114076238Y79166184D01*
X114057208Y79261854D01*
X114076238Y79357524D01*
X114130431Y79438630D01*
X114590052Y79898251D01*
X114671158Y79952444D01*
X114766828Y79971474D01*
X114862498Y79952444D01*
G37*
G36*
X116312066Y81402012D02*
G01*
X116393172Y81347819D01*
X117029569Y80711422D01*
X117083762Y80630316D01*
X117102792Y80534646D01*
X117083762Y80438976D01*
X117029569Y80357870D01*
X116569948Y79898249D01*
X116488842Y79844056D01*
X116393172Y79825026D01*
X116297502Y79844056D01*
X116216396Y79898249D01*
X115579999Y80534646D01*
X115525806Y80615752D01*
X115506776Y80711422D01*
X115525806Y80807092D01*
X115579999Y80888198D01*
X116039620Y81347819D01*
X116120726Y81402012D01*
X116216396Y81421042D01*
X116312066Y81402012D01*
G37*
G36*
X81209071Y58770770D02*
G01*
X81290177Y58716577D01*
X81344370Y58635471D01*
X81363400Y58539801D01*
X81363400Y57639799D01*
X81344370Y57544129D01*
X81290177Y57463023D01*
X81209071Y57408830D01*
X81113401Y57389800D01*
X80463399Y57389800D01*
X80367729Y57408830D01*
X80286623Y57463023D01*
X80232430Y57544129D01*
X80213400Y57639799D01*
X80213400Y58539801D01*
X80232430Y58635471D01*
X80286623Y58716577D01*
X80367729Y58770770D01*
X80463399Y58789800D01*
X81113401Y58789800D01*
X81209071Y58770770D01*
G37*
G36*
X83259071Y58770770D02*
G01*
X83340177Y58716577D01*
X83394370Y58635471D01*
X83413400Y58539801D01*
X83413400Y57639799D01*
X83394370Y57544129D01*
X83340177Y57463023D01*
X83259071Y57408830D01*
X83163401Y57389800D01*
X82513399Y57389800D01*
X82417729Y57408830D01*
X82336623Y57463023D01*
X82282430Y57544129D01*
X82263400Y57639799D01*
X82263400Y58539801D01*
X82282430Y58635471D01*
X82336623Y58716577D01*
X82417729Y58770770D01*
X82513399Y58789800D01*
X83163401Y58789800D01*
X83259071Y58770770D01*
G37*
G36*
X122527471Y74086970D02*
G01*
X122608577Y74032777D01*
X122662770Y73951671D01*
X122681800Y73856001D01*
X122681800Y72955999D01*
X122662770Y72860329D01*
X122608577Y72779223D01*
X122527471Y72725030D01*
X122431801Y72706000D01*
X121781799Y72706000D01*
X121686129Y72725030D01*
X121605023Y72779223D01*
X121550830Y72860329D01*
X121531800Y72955999D01*
X121531800Y73856001D01*
X121550830Y73951671D01*
X121605023Y74032777D01*
X121686129Y74086970D01*
X121781799Y74106000D01*
X122431801Y74106000D01*
X122527471Y74086970D01*
G37*
G36*
X120477471Y74086970D02*
G01*
X120558577Y74032777D01*
X120612770Y73951671D01*
X120631800Y73856001D01*
X120631800Y72955999D01*
X120612770Y72860329D01*
X120558577Y72779223D01*
X120477471Y72725030D01*
X120381801Y72706000D01*
X119731799Y72706000D01*
X119636129Y72725030D01*
X119555023Y72779223D01*
X119500830Y72860329D01*
X119481800Y72955999D01*
X119481800Y73856001D01*
X119500830Y73951671D01*
X119555023Y74032777D01*
X119636129Y74086970D01*
X119731799Y74106000D01*
X120381801Y74106000D01*
X120477471Y74086970D01*
G37*
D13*
X105992000Y73437250D03*
X106792000Y73437250D03*
X107592000Y73437250D03*
X108392000Y73437250D03*
X109192000Y73437250D03*
X109992000Y73437250D03*
X110792000Y73437250D03*
X111592000Y73437250D03*
X112392000Y73437250D03*
X113192000Y73437250D03*
X113992000Y73437250D03*
D14*
X115692000Y71737250D03*
X115692000Y70937250D03*
X115692000Y70137250D03*
X115692000Y69337250D03*
X115692000Y68537250D03*
X115692000Y67737250D03*
X115692000Y66937250D03*
X115692000Y66137250D03*
X115692000Y65337250D03*
X115692000Y64537250D03*
X115692000Y63737250D03*
D13*
X113992000Y62037250D03*
X113192000Y62037250D03*
X112392000Y62037250D03*
X111592000Y62037250D03*
X110792000Y62037250D03*
X109992000Y62037250D03*
X109192000Y62037250D03*
X108392000Y62037250D03*
X107592000Y62037250D03*
X106792000Y62037250D03*
X105992000Y62037250D03*
D14*
X104292000Y63737250D03*
X104292000Y64537250D03*
X104292000Y65337250D03*
X104292000Y66137250D03*
X104292000Y66937250D03*
X104292000Y67737250D03*
X104292000Y68537250D03*
X104292000Y69337250D03*
X104292000Y70137250D03*
X104292000Y70937250D03*
X104292000Y71737250D03*
D11*
X88868000Y53538250D03*
X88868000Y52588250D03*
X88868000Y54488250D03*
X91068000Y54488250D03*
X91068000Y53538250D03*
X91068000Y52588250D03*
X87852000Y58618250D03*
X87852000Y57668250D03*
X87852000Y59568250D03*
X90052000Y59568250D03*
X90052000Y58618250D03*
X90052000Y57668250D03*
D15*
X89593999Y66026249D03*
X88643999Y66026249D03*
X90543999Y66026249D03*
X90543999Y63826249D03*
X89593999Y63826249D03*
X88643999Y63826249D03*
X76760000Y57686250D03*
X75810000Y57686250D03*
X77710000Y57686250D03*
X77710000Y55486250D03*
X76760000Y55486250D03*
X75810000Y55486250D03*
M02*
