G04 #@! TF.GenerationSoftware,KiCad,Pcbnew,5.99.0-unknown-d20d310~86~ubuntu18.04.1*
G04 #@! TF.CreationDate,2019-12-01T22:12:42+00:00*
G04 #@! TF.ProjectId,mouse8,6d6f7573-6538-42e6-9b69-6361645f7063,rev?*
G04 #@! TF.SameCoordinates,Original*
G04 #@! TF.FileFunction,Copper,L2,Bot*
G04 #@! TF.FilePolarity,Positive*
%FSLAX46Y46*%
G04 Gerber Fmt 4.6, Leading zero omitted, Abs format (unit mm)*
G04 Created by KiCad (PCBNEW 5.99.0-unknown-d20d310~86~ubuntu18.04.1) date 2019-12-01 22:12:42*
%MOMM*%
%LPD*%
G04 APERTURE LIST*
%ADD10C,0.050000*%
%ADD11R,1.000000X1.700000*%
%ADD12R,1.700000X1.700000*%
%ADD13O,1.700000X1.700000*%
%ADD14C,1.500000*%
%ADD15C,1.800000*%
%ADD16R,1.800000X1.800000*%
%ADD17C,2.000000*%
%ADD18C,1.300000*%
%ADD19C,3.000000*%
%ADD20O,1.750000X1.200000*%
%ADD21C,0.800000*%
%ADD22C,0.250000*%
%ADD23C,0.800000*%
%ADD24C,0.400000*%
%ADD25C,0.500000*%
%ADD26C,1.000000*%
%ADD27C,0.750000*%
%ADD28C,0.254000*%
G04 APERTURE END LIST*
D10*
X94150000Y89606250D02*
X58980000Y89606250D01*
X100075000Y87831250D02*
X94150000Y89606250D01*
X100075000Y87831250D02*
X100075000Y85581250D01*
X131400000Y81356250D02*
X135175000Y77656250D01*
X128195000Y81351250D02*
X131400000Y81356250D01*
X128200000Y82906250D02*
X128195000Y81351250D01*
X121475000Y85581250D02*
X128200000Y82906250D01*
X100075000Y85581250D02*
X121475000Y85581250D01*
X128195000Y45156250D02*
X66600000Y45156250D01*
X135175000Y77656250D02*
X135180000Y53411250D01*
X128325000Y53431250D02*
X135180000Y53411250D01*
X128200000Y51856250D02*
X128195000Y45156250D01*
X128325000Y56356250D02*
X128325000Y53431250D01*
X123825000Y51856250D02*
X128200000Y51856250D01*
X123825000Y51856250D02*
G75*
G02X128325000Y56356250I0J4500000D01*
G01*
X48108800Y82189450D02*
X48108800Y79192250D01*
X60453200Y82189450D02*
X48108800Y82189450D01*
X60453200Y79192250D02*
X60453200Y82189450D01*
X48108800Y79192250D02*
X60453200Y79192250D01*
X43740000Y73096250D02*
X68505000Y73096250D01*
X70283000Y62936250D02*
X70283000Y71826250D01*
X86793000Y62936250D02*
X70283000Y62936250D01*
X86793000Y71826250D02*
X86793000Y62936250D01*
X70283000Y71826250D02*
X86793000Y71826250D01*
X66600000Y46426250D02*
X66600000Y45156250D01*
X41200000Y46426250D02*
X66600000Y46426250D01*
X58980000Y88336250D02*
X41200000Y88336250D01*
X58980000Y89606250D02*
X58980000Y88336250D01*
X43740000Y61666250D02*
X43740000Y62301250D01*
X68505000Y61666250D02*
X68505000Y62301250D01*
X68505000Y73096250D02*
X68505000Y62301250D01*
X43740000Y62301250D02*
X43740000Y73096250D01*
X68505000Y61666250D02*
X43740000Y61666250D01*
X41200000Y46426250D02*
X41200000Y88336250D01*
D11*
X127817800Y70790200D03*
X127817800Y64490200D03*
X131617800Y70790200D03*
X131617800Y64490200D03*
D12*
X97800000Y58706250D03*
D13*
X93800000Y64246250D03*
D12*
X93800000Y61706250D03*
D13*
X97540000Y54706250D03*
D12*
X95000000Y54706250D03*
D13*
X101400000Y54846250D03*
D12*
X101400000Y52306250D03*
X89600000Y72656250D03*
X63044000Y48966250D03*
D14*
X107144000Y52974250D03*
X112024000Y52974250D03*
D15*
X119644000Y66690250D03*
D16*
X119644000Y69230250D03*
D17*
X70410000Y81351250D03*
X70410000Y86431250D03*
X70410000Y76271250D03*
D18*
X84323000Y62031250D03*
X82543000Y62031250D03*
X80763000Y62031250D03*
X78983000Y62031250D03*
X77203000Y62031250D03*
X75423000Y62031250D03*
X73643000Y62031250D03*
X71863000Y62031250D03*
X72753000Y72731250D03*
X74533000Y72731250D03*
X76313000Y72731250D03*
X78093000Y72731250D03*
X79873000Y72731250D03*
X81653000Y72731250D03*
X83433000Y72731250D03*
X85213000Y72731250D03*
D17*
X70410000Y53411250D03*
X70410000Y48331250D03*
X70410000Y58491250D03*
D19*
X58980000Y54046250D03*
X48820000Y54046250D03*
D17*
X51360000Y56046250D03*
X53900000Y56046250D03*
X56440000Y56046250D03*
D20*
X95175000Y68725250D03*
X95175000Y70725250D03*
X95175000Y72725250D03*
X95175000Y74725250D03*
G04 #@! TA.AperFunction,ComponentPad*
G36*
X95895918Y77306250D02*
G01*
X95976894Y77252144D01*
X96031000Y77171168D01*
X96050000Y77075650D01*
X96050000Y76374850D01*
X96031000Y76279332D01*
X95976894Y76198356D01*
X95895918Y76144250D01*
X95800400Y76125250D01*
X94549600Y76125250D01*
X94454082Y76144250D01*
X94373106Y76198356D01*
X94319000Y76279332D01*
X94300000Y76374850D01*
X94300000Y77075650D01*
X94319000Y77171168D01*
X94373106Y77252144D01*
X94454082Y77306250D01*
X94549600Y77325250D01*
X95800400Y77325250D01*
X95895918Y77306250D01*
G37*
G04 #@! TD.AperFunction*
D17*
X44375000Y81351250D03*
X44375000Y86431250D03*
X44375000Y76271250D03*
X55805000Y76171250D03*
X50725000Y76171250D03*
X60885000Y76171250D03*
X44375000Y53411250D03*
X44375000Y48331250D03*
X44375000Y58491250D03*
D21*
X103061674Y73742609D03*
X125069600Y70815200D03*
X101320600Y64236600D03*
X91200000Y69906250D03*
X88600000Y75906250D03*
X86600000Y74106250D03*
X90974673Y56078314D03*
X86614000Y57098903D03*
X92508000Y52522250D03*
X74728000Y59126250D03*
X104621000Y76342250D03*
X79375000Y55549800D03*
X93016000Y55062250D03*
X91492000Y57602250D03*
X92000000Y59197188D03*
X64568000Y81478250D03*
X64060000Y75890250D03*
X58472000Y75890250D03*
X94032000Y50998250D03*
X91492000Y48966250D03*
X87428000Y50998250D03*
X75236000Y60650250D03*
X108158990Y59379260D03*
X106025000Y75423250D03*
X113040000Y75326250D03*
X80824000Y47442250D03*
X86412000Y47442250D03*
X113548000Y71262250D03*
X113548000Y69738250D03*
X112024000Y69738250D03*
X112036000Y71250250D03*
X109992000Y69738250D03*
X107960000Y71262250D03*
X106436000Y68214250D03*
X107960000Y68214250D03*
X109992000Y68214250D03*
X113548000Y68214250D03*
X113548000Y66690250D03*
X107960000Y64582250D03*
X109992000Y64658250D03*
X111516000Y64658250D03*
X111770000Y66436250D03*
X113294000Y64658250D03*
X86412000Y56078250D03*
X76760000Y59634250D03*
X116720653Y74434903D03*
X113548000Y77866250D03*
X72188000Y84526250D03*
X118120000Y65166250D03*
X102216002Y46482252D03*
X112532000Y60086250D03*
X111582200Y59486800D03*
X108463347Y75834250D03*
X107844200Y76688644D03*
X112024000Y75834250D03*
X110842000Y60340250D03*
X95658353Y46323897D03*
X89600000Y62315248D03*
X87600000Y67906250D03*
X91800000Y81506250D03*
X109800000Y80506250D03*
X94800000Y49306250D03*
X116600000Y48306250D03*
X91800000Y50906250D03*
X102400000Y57506250D03*
X100400000Y57506250D03*
X102400000Y79506250D03*
X127800000Y78106250D03*
X121400000Y48506250D03*
X72400000Y50306250D03*
X79200000Y79506250D03*
X110236000Y76327000D03*
X96266000Y65735200D03*
X101803200Y48895000D03*
X125349000Y65989200D03*
D22*
X79375000Y55549800D02*
X78975001Y55949799D01*
X78975001Y55949799D02*
X78975001Y56381599D01*
X78975001Y56381599D02*
X78663800Y56692800D01*
X81579850Y55062250D02*
X79862550Y55062250D01*
X79862550Y55062250D02*
X79375000Y55549800D01*
X92508000Y55062250D02*
X81579850Y55062250D01*
X81579850Y55062250D02*
X81332000Y55062250D01*
X116459000Y56032400D02*
X116200000Y55773400D01*
X115479999Y58761799D02*
X116459000Y57782798D01*
X116200000Y55773400D02*
X116200000Y54986000D01*
X111234199Y58761799D02*
X115479999Y58761799D01*
X110842000Y60340250D02*
X110842000Y59153998D01*
X116459000Y57782798D02*
X116459000Y56032400D01*
X110842000Y59153998D02*
X111234199Y58761799D01*
X111582200Y59486800D02*
X111707751Y59361249D01*
X111707751Y59361249D02*
X114313001Y59361249D01*
X114313001Y59361249D02*
X115546002Y60594250D01*
X112532000Y60086250D02*
X112931999Y60486249D01*
X112931999Y60486249D02*
X113947999Y60486249D01*
X113947999Y60486249D02*
X114984000Y61522250D01*
D23*
X127817800Y64490200D02*
X127817800Y70790200D01*
D22*
X123954400Y66017000D02*
X124409200Y66040000D01*
D23*
X125349000Y65989200D02*
X124460000Y65989200D01*
X124460000Y65989200D02*
X124409200Y66040000D01*
X127817800Y64490200D02*
X126848000Y64490200D01*
X126848000Y64490200D02*
X125349000Y65989200D01*
D24*
X102077483Y74726800D02*
X102006400Y74726800D01*
D23*
X74898998Y74725250D02*
X102006400Y74726800D01*
D24*
X103061674Y73742609D02*
X102077483Y74726800D01*
D22*
X91800000Y81506250D02*
X78820000Y81506250D01*
X78820000Y81506250D02*
X77710000Y80396250D01*
X94792800Y79095600D02*
X99700000Y79006250D01*
X91800000Y81506250D02*
X94210650Y79095600D01*
X94210650Y79095600D02*
X94792800Y79095600D01*
X96656530Y83456280D02*
X110115772Y83456279D01*
X110115772Y83456279D02*
X119607251Y73964800D01*
X47499200Y84475450D02*
X64231650Y84475450D01*
X70427788Y84475450D02*
X72546617Y86594279D01*
X64231650Y84475450D02*
X64569200Y84475450D01*
X64231650Y84475450D02*
X70427788Y84475450D01*
X72546617Y86594279D02*
X93518531Y86594279D01*
X93518531Y86594279D02*
X96656530Y83456280D01*
X118059200Y74701400D02*
X118120000Y65166250D01*
X93332131Y86144269D02*
X96470130Y83006270D01*
X109929371Y83006270D02*
X118059200Y74876441D01*
X96470130Y83006270D02*
X109929371Y83006270D01*
X118059200Y74876441D02*
X118059200Y74701400D01*
X70410000Y83821252D02*
X72732874Y86144126D01*
X72732874Y86144126D02*
X73169466Y86144126D01*
X73169466Y86144126D02*
X73169609Y86144269D01*
X73169609Y86144269D02*
X93332131Y86144269D01*
X96234340Y82556260D02*
X109423675Y82556260D01*
X113548000Y78431935D02*
X113548000Y77866250D01*
X109423675Y82556260D02*
X113548000Y78431935D01*
X73356009Y85694259D02*
X93096341Y85694259D01*
X72188000Y84526250D02*
X73356009Y85694259D01*
X93096341Y85694259D02*
X96234340Y82556260D01*
D24*
X120253050Y63306250D02*
X124155200Y67208400D01*
X124155200Y67208400D02*
X124155200Y67233800D01*
X120200000Y63306250D02*
X120253050Y63306250D01*
X99384314Y59956251D02*
X101320600Y61892537D01*
X101320600Y61892537D02*
X101320600Y64236600D01*
D23*
X93192600Y68427600D02*
X93200000Y68235515D01*
X93200000Y69461600D02*
X93192600Y68427600D01*
X93192600Y74417850D02*
X93192600Y68427600D01*
X93500000Y74725250D02*
X93192600Y74417850D01*
D25*
X73432999Y73259251D02*
X74712074Y74538326D01*
D23*
X74898998Y74725250D02*
X74712074Y74538326D01*
D25*
X93200000Y68940312D02*
X93200000Y69461600D01*
X93200000Y69461600D02*
X93200000Y74125250D01*
D23*
X95700315Y65735200D02*
X96266000Y65735200D01*
X93200000Y68235515D02*
X95700315Y65735200D01*
D22*
X90974673Y56078314D02*
X87634589Y56078314D01*
X87634589Y56078314D02*
X86614000Y57098903D01*
X87600000Y60617750D02*
X86614000Y59690000D01*
X85888999Y58964999D02*
X86614000Y59690000D01*
X86412000Y56078250D02*
X85888999Y56601251D01*
X85888999Y56601251D02*
X85888999Y58964999D01*
X81661000Y56261000D02*
X78284000Y59634250D01*
X81840000Y56078250D02*
X81661000Y56261000D01*
X81843750Y56078250D02*
X81661000Y56261000D01*
D24*
X90551000Y56642000D02*
X90574674Y56478313D01*
D22*
X90551000Y56501987D02*
X90551000Y56642000D01*
D24*
X90574674Y57868926D02*
X90551000Y56642000D01*
D22*
X90974673Y56078314D02*
X90551000Y56501987D01*
X90574674Y57757926D02*
X91288936Y58472188D01*
X92000000Y53030250D02*
X93016000Y53030250D01*
X93016000Y53030250D02*
X93741001Y53755251D01*
X92508000Y52522250D02*
X93016000Y53030250D01*
X92508000Y52522250D02*
X92000000Y53030250D01*
X69084999Y49656251D02*
X70410000Y48331250D01*
X69084999Y59127251D02*
X69084999Y49656251D01*
X70099998Y60142250D02*
X69084999Y59127251D01*
D25*
X89460000Y50998250D02*
X91492000Y48966250D01*
X87428000Y50998250D02*
X89460000Y50998250D01*
X93524000Y50998250D02*
X91492000Y48966250D01*
X94032000Y50998250D02*
X93524000Y50998250D01*
X71044236Y73259251D02*
X73432999Y73259251D01*
X69807990Y72023005D02*
X71044236Y73259251D01*
X86920000Y74874250D02*
X86952000Y74906250D01*
D22*
X75236000Y60650250D02*
X75236000Y60085248D01*
X75236000Y60085248D02*
X75178998Y60085248D01*
X75236000Y60650250D02*
X74785002Y60199252D01*
X72663999Y60110249D02*
X72696000Y60142250D01*
X92508000Y55062250D02*
X92508000Y55570250D01*
X93016000Y55062250D02*
X92508000Y55062250D01*
X70099998Y60142250D02*
X75236000Y60142250D01*
X74474000Y47442250D02*
X73585000Y48331250D01*
X80824000Y47442250D02*
X74474000Y47442250D01*
X73585000Y48331250D02*
X70410000Y48331250D01*
X86412000Y47442250D02*
X80824000Y47442250D01*
X81840000Y56078250D02*
X86412000Y56078250D01*
X78284000Y59634250D02*
X76760000Y59634250D01*
D24*
X67092000Y58602250D02*
X67362000Y58872250D01*
X69140000Y60650250D02*
X69140000Y72334250D01*
X69140000Y72334250D02*
X71189010Y74383260D01*
X71189010Y74383260D02*
X73221010Y74383260D01*
D25*
X67092000Y58602250D02*
X69140000Y60650250D01*
X56456000Y58602250D02*
X67092000Y58602250D01*
X53900000Y56046250D02*
X56456000Y58602250D01*
X118293999Y65340249D02*
X118120000Y65166250D01*
X118120000Y70754250D02*
X118120000Y65166250D01*
D26*
X70410000Y50744250D02*
X70410000Y53411250D01*
D22*
X70410000Y51760250D02*
X70410000Y53411250D01*
X70410000Y50744250D02*
X72188000Y48966250D01*
X72188000Y48966250D02*
X74220000Y48966250D01*
X86760001Y48167251D02*
X88444000Y46483252D01*
X74220000Y48966250D02*
X75018999Y48167251D01*
X75018999Y48167251D02*
X86760001Y48167251D01*
X88444000Y46483252D02*
X94482998Y46483252D01*
X94482998Y46483252D02*
X95441996Y47442250D01*
D26*
X55805000Y76271250D02*
X57456000Y77922250D01*
X57964000Y77922250D02*
X57456000Y77922250D01*
D27*
X70410000Y76271250D02*
X72061000Y76271250D01*
D26*
X60885000Y76271250D02*
X62282000Y77668250D01*
X46254600Y78150850D02*
X44375000Y76271250D01*
D24*
X68124000Y74366250D02*
X68703999Y74946249D01*
D22*
X68703999Y74946249D02*
X71751999Y74946249D01*
D26*
X44375000Y58491250D02*
X44375000Y59905463D01*
X44375000Y59905463D02*
X43049999Y61230464D01*
D25*
X72347020Y75033270D02*
X71751999Y75033270D01*
D22*
X43049999Y72901237D02*
X43049999Y71644249D01*
X44515012Y74366250D02*
X43049999Y72901237D01*
X46280000Y74366250D02*
X44515012Y74366250D01*
D24*
X44408946Y74366250D02*
X46280000Y74366250D01*
X46280000Y74366250D02*
X68124000Y74366250D01*
D27*
X43049999Y61230464D02*
X43049999Y71644249D01*
D24*
X72696000Y46426250D02*
X73540990Y45581260D01*
X67108000Y48458250D02*
X69140000Y46426250D01*
D25*
X47296000Y50490250D02*
X65076000Y50490250D01*
D26*
X44375000Y53411250D02*
X47296000Y50490250D01*
D25*
X65076000Y50490250D02*
X67108000Y48458250D01*
D22*
X94711010Y45581260D02*
X94915716Y45581260D01*
X94915716Y45581260D02*
X95658353Y46323897D01*
D24*
X73540990Y45581260D02*
X94711010Y45581260D01*
D26*
X65049999Y50516251D02*
X47269999Y50516251D01*
X69140000Y46426250D02*
X65049999Y50516251D01*
X69140000Y46426250D02*
X72188000Y46426250D01*
D24*
X72188000Y46426250D02*
X72696000Y46426250D01*
D22*
X110842000Y59469252D02*
X110790999Y59418251D01*
X110842000Y60340250D02*
X110842000Y59469252D01*
X87600000Y67906250D02*
X87600000Y60617750D01*
X107844200Y77531052D02*
X107844200Y76688644D01*
D24*
X91800000Y51814250D02*
X92508000Y52522250D01*
X91800000Y50906250D02*
X91800000Y51814250D01*
X91972002Y58306250D02*
X91876001Y58402251D01*
X92612000Y58306250D02*
X91972002Y58306250D01*
X92800001Y58494251D02*
X92612000Y58306250D01*
X91876001Y58402251D02*
X91107999Y58402251D01*
X91107999Y58402251D02*
X90574674Y57868926D01*
X92384001Y58397187D02*
X91834062Y58397187D01*
X102400000Y57506250D02*
X101834315Y57506250D01*
X99384314Y59956251D02*
X93943065Y59956251D01*
X101834315Y57506250D02*
X99384314Y59956251D01*
X94431999Y51398249D02*
X94032000Y50998250D01*
X99600000Y53906250D02*
X97091999Y51398249D01*
X97091999Y51398249D02*
X94431999Y51398249D01*
X99600000Y56706250D02*
X99600000Y53906250D01*
X100400000Y57506250D02*
X99600000Y56706250D01*
D22*
X91143999Y58327251D02*
X91840001Y58327251D01*
X93741001Y53755251D02*
X93741001Y56426251D01*
X92800001Y58506251D02*
X92230501Y57936751D01*
X92800001Y59306251D02*
X92800001Y58506251D01*
X92230501Y57936751D02*
X93741001Y56426251D01*
X91840001Y58327251D02*
X92230501Y57936751D01*
D24*
X92800001Y59306251D02*
X92800001Y58494251D01*
D22*
X96224999Y45757251D02*
X95658353Y46323897D01*
X116200000Y50306250D02*
X117500000Y49006250D01*
D24*
X117288000Y60594250D02*
X117488000Y60594250D01*
D25*
X115546002Y60594250D02*
X117288000Y60594250D01*
D24*
X117488000Y60594250D02*
X120200000Y63306250D01*
D25*
X89600000Y61597188D02*
X92000000Y59197188D01*
X89600000Y62315248D02*
X89600000Y61597188D01*
X90574674Y56478313D02*
X90574674Y56880924D01*
D22*
X90574674Y56880924D02*
X90574674Y57757926D01*
D24*
X92384001Y58397187D02*
X93943065Y59956251D01*
X73221010Y74383260D02*
X76772000Y77934250D01*
D22*
X70410000Y83821252D02*
X70410000Y81351250D01*
D25*
X77710000Y80396250D02*
X72347020Y75033270D01*
D22*
X44375000Y81351250D02*
X47499200Y84475450D01*
X108765686Y82106250D02*
X109800000Y81071935D01*
X76462000Y85244250D02*
X92862000Y85244250D01*
X96000000Y82106250D02*
X108765686Y82106250D01*
X46254600Y78150850D02*
X46254600Y81808450D01*
X92862000Y85244250D02*
X96000000Y82106250D01*
X47753200Y83307050D02*
X61139000Y83307050D01*
X46254600Y81808450D02*
X47753200Y83307050D01*
X64419801Y80026249D02*
X71243999Y80026249D01*
X109800000Y81071935D02*
X109800000Y80506250D01*
X61139000Y83307050D02*
X64419801Y80026249D01*
X71243999Y80026249D02*
X76462000Y85244250D01*
X111298999Y75109249D02*
X112024000Y75834250D01*
X107669001Y75109249D02*
X111298999Y75109249D01*
X105672000Y77106250D02*
X107669001Y75109249D01*
X99700000Y79006250D02*
X101600000Y77106250D01*
X101600000Y77106250D02*
X105672000Y77106250D01*
X116088000Y73802250D02*
X116720653Y74434903D01*
X76772000Y77934250D02*
X76940000Y78102250D01*
X76940000Y78102250D02*
X98796000Y78102250D01*
X98796000Y78102250D02*
X100596000Y76302250D01*
X100596000Y76302250D02*
X103396000Y76302250D01*
X103396000Y76302250D02*
X105896000Y73802250D01*
X105896000Y73802250D02*
X116088000Y73802250D01*
X112220000Y74506250D02*
X113040000Y75326250D01*
X106882999Y75023251D02*
X107400000Y74506250D01*
X106424999Y75023251D02*
X106882999Y75023251D01*
X106025000Y75423250D02*
X106424999Y75023251D01*
X107400000Y74506250D02*
X112220000Y74506250D01*
X62536000Y77922250D02*
X62282000Y77668250D01*
X92600000Y82906250D02*
X76664000Y82906250D01*
X71680000Y77922250D02*
X62536000Y77922250D01*
X76664000Y82906250D02*
X71680000Y77922250D01*
X95000000Y80506250D02*
X92600000Y82906250D01*
X107580410Y75834250D02*
X108463347Y75834250D01*
X106954205Y76460455D02*
X107580410Y75834250D01*
X106000000Y77906250D02*
X106954205Y76952045D01*
X102400000Y77906250D02*
X106000000Y77906250D01*
X100500000Y79806250D02*
X102400000Y77906250D01*
X94573002Y79806250D02*
X100500000Y79806250D01*
X106954205Y76952045D02*
X106954205Y76460455D01*
X78021001Y82231251D02*
X92148001Y82231251D01*
X92148001Y82231251D02*
X94573002Y79806250D01*
X72061000Y76271250D02*
X78021001Y82231251D01*
X81308000Y50998250D02*
X87428000Y50998250D01*
X91492000Y56586250D02*
X91492000Y57602250D01*
X91492000Y56586250D02*
X93016000Y55062250D01*
D25*
X76108000Y50998250D02*
X87428000Y50998250D01*
X74200000Y52906250D02*
X76108000Y50998250D01*
D22*
X74728000Y58560565D02*
X75200000Y58088565D01*
X74728000Y59126250D02*
X74728000Y58560565D01*
X75200000Y58088565D02*
X75200000Y54106250D01*
X75200000Y54106250D02*
X76784000Y52522250D01*
X76784000Y52522250D02*
X92508000Y52522250D01*
D25*
X93200000Y74125250D02*
X93800000Y74725250D01*
D22*
X102400000Y79506250D02*
X105869002Y79506250D01*
X105869002Y79506250D02*
X107844200Y77531052D01*
D25*
X69807990Y61898260D02*
X69807990Y72023005D01*
X69807990Y61898260D02*
X74200000Y57506250D01*
X74200000Y57506250D02*
X74200000Y52906250D01*
X92850001Y58544251D02*
X92800001Y58494251D01*
D22*
X72800000Y54306250D02*
X71735001Y55371249D01*
X75800000Y50306250D02*
X72800000Y53306250D01*
X94800000Y49306250D02*
X93700000Y48206250D01*
X87046998Y50306250D02*
X75800000Y50306250D01*
X93700000Y48206250D02*
X90500000Y48206250D01*
X88600000Y50106250D02*
X87246998Y50106250D01*
X71735001Y57166249D02*
X70410000Y58491250D01*
X71735001Y55371249D02*
X71735001Y57166249D01*
X72800000Y53306250D02*
X72800000Y54306250D01*
X90500000Y48206250D02*
X88600000Y50106250D01*
X87246998Y50106250D02*
X87046998Y50306250D01*
X102216002Y46482252D02*
X97095998Y46482252D01*
X97095998Y46482252D02*
X96136000Y47442250D01*
X95441996Y47442250D02*
X96136000Y47442250D01*
X110236000Y76327000D02*
X109836001Y76726999D01*
X109836001Y76980999D02*
X106426000Y80391000D01*
X109836001Y76726999D02*
X109836001Y76980999D01*
X106426000Y80391000D02*
X95000000Y80506250D01*
X117016000Y61522250D02*
X114984000Y61522250D01*
X118000000Y62506250D02*
X117016000Y61522250D01*
X118000000Y63706250D02*
X118000000Y62506250D01*
X62510600Y78557250D02*
X62891600Y78938250D01*
X71680000Y78938250D02*
X76648000Y83906250D01*
X62891600Y78938250D02*
X71680000Y78938250D01*
X58878400Y77922250D02*
X59513400Y78557250D01*
X59513400Y78557250D02*
X62510600Y78557250D01*
X117104000Y64602250D02*
X118000000Y63706250D01*
X57964000Y77922250D02*
X58878400Y77922250D01*
X92800000Y83906250D02*
X95474999Y81231251D01*
X76648000Y83906250D02*
X92800000Y83906250D01*
X117612000Y73294250D02*
X117104000Y72786250D01*
X117104000Y72786250D02*
X117104000Y64602250D01*
X95474999Y81231251D02*
X107700001Y81231251D01*
X107700001Y81231251D02*
X112604252Y76327000D01*
X112604252Y76327000D02*
X115951000Y76327000D01*
X115951000Y76327000D02*
X117475000Y74803000D01*
X117475000Y74803000D02*
X117612000Y73294250D01*
X102368885Y48895000D02*
X103257885Y48006000D01*
X101803200Y48895000D02*
X102368885Y48895000D01*
X105918000Y48006000D02*
X106756200Y47167800D01*
X103257885Y48006000D02*
X105918000Y48006000D01*
X101601257Y48169999D02*
X101334401Y48169999D01*
X102941003Y46830253D02*
X101601257Y48169999D01*
X102477149Y45757251D02*
X96224999Y45757251D01*
X102477149Y45757251D02*
X102564003Y45757251D01*
X102564003Y45757251D02*
X102941003Y46134251D01*
X102941003Y46134251D02*
X102941003Y46830253D01*
X101334401Y48169999D02*
X100965000Y48539400D01*
X101455199Y49620001D02*
X102525999Y49620001D01*
X100965000Y49129802D02*
X101455199Y49620001D01*
X100965000Y48920400D02*
X100965000Y49129802D01*
X100965000Y48920400D02*
X100965000Y49072800D01*
X100965000Y48539400D02*
X100965000Y48920400D01*
X103689990Y48456010D02*
X106509390Y48456010D01*
X102525999Y49620001D02*
X103689990Y48456010D01*
X116999449Y47581249D02*
X117449600Y48031400D01*
X116020151Y47581249D02*
X116999449Y47581249D01*
X115681704Y47919696D02*
X116020151Y47581249D01*
X107071637Y47893764D02*
X115681704Y47919696D01*
X106509390Y48456010D02*
X107071637Y47893764D01*
X117500000Y49006250D02*
X117449600Y48031400D01*
X123954400Y66017000D02*
X117043200Y59105800D01*
X117043200Y50099460D02*
X117968260Y49174400D01*
X117043200Y59105800D02*
X117043200Y50099460D01*
X117899609Y47948009D02*
X117899609Y47592409D01*
X117968260Y49174400D02*
X117968260Y48016660D01*
X117968260Y48016660D02*
X117899609Y47948009D01*
X106792761Y47131239D02*
X105918000Y48006000D01*
X117438439Y47131239D02*
X106792761Y47131239D01*
X117899609Y47592409D02*
X117438439Y47131239D01*
X124155200Y65989200D02*
X123954400Y66017000D01*
D24*
X124155200Y67233800D02*
X126111000Y69189600D01*
D22*
X126034800Y71501000D02*
X123494800Y74041000D01*
X126111000Y71501000D02*
X126034800Y71501000D01*
X119607251Y73964800D02*
X123494800Y74041000D01*
X126111000Y69189600D02*
X126111000Y71501000D01*
X116200000Y55106250D02*
X116200000Y54986000D01*
X116200000Y54986000D02*
X116200000Y50306250D01*
X99449896Y49386496D02*
X94800000Y49306250D01*
X100457000Y50215800D02*
X99627696Y49386496D01*
X102566610Y50215800D02*
X100457000Y50215800D01*
X116600000Y48306250D02*
X116200450Y48306250D01*
X116200450Y48306250D02*
X116136436Y48370264D01*
X116136436Y48370264D02*
X107231545Y48370264D01*
X106695790Y48906020D02*
X103876390Y48906020D01*
X99627696Y49386496D02*
X99449896Y49386496D01*
X107231545Y48370264D02*
X106695790Y48906020D01*
X103876390Y48906020D02*
X102566610Y50215800D01*
X78734998Y56586250D02*
X78663800Y56692800D01*
X78746401Y56610199D02*
X78663800Y56692800D01*
X78663800Y56692800D02*
X75236000Y60085248D01*
G36*
X99441000Y87359344D02*
G01*
X99441001Y85589948D01*
X99440417Y85494323D01*
X99453494Y85448570D01*
X99460238Y85401480D01*
X99478319Y85361712D01*
X99490323Y85319710D01*
X99515713Y85279469D01*
X99535402Y85236163D01*
X99563916Y85203071D01*
X99587228Y85166124D01*
X99622894Y85134626D01*
X99653946Y85098587D01*
X99690598Y85074830D01*
X99723346Y85045908D01*
X99766426Y85025681D01*
X99806339Y84999811D01*
X99848182Y84987298D01*
X99888089Y84968561D01*
X99933545Y84961768D01*
X99980328Y84947777D01*
X100029168Y84947478D01*
X100030694Y84947250D01*
X100066462Y84947250D01*
X100161927Y84946667D01*
X100163967Y84947250D01*
X121353536Y84947250D01*
X127564617Y82476671D01*
X127561103Y81383714D01*
X127561102Y81383714D01*
X127560554Y81263334D01*
X127573281Y81219066D01*
X127579663Y81173458D01*
X127598241Y81132246D01*
X127610732Y81088799D01*
X127635368Y81049887D01*
X127654296Y81007899D01*
X127683698Y80973555D01*
X127707876Y80935364D01*
X127742447Y80904928D01*
X127772397Y80869943D01*
X127810249Y80845235D01*
X127844182Y80815360D01*
X127885907Y80795850D01*
X127924471Y80770678D01*
X127967733Y80757588D01*
X128009045Y80738271D01*
X128053109Y80731756D01*
X128098291Y80718085D01*
X128148756Y80717614D01*
X128151669Y80717183D01*
X128188788Y80717240D01*
X128279888Y80716391D01*
X128283419Y80717388D01*
X131141520Y80721847D01*
X134541055Y77389850D01*
X134545869Y54047102D01*
X128959000Y54063402D01*
X128959000Y56320712D01*
X128964233Y56367739D01*
X128963633Y56383746D01*
X128946101Y56785301D01*
X128943156Y56800964D01*
X128943497Y56817280D01*
X128941461Y56833167D01*
X128884823Y57254849D01*
X128880257Y57270984D01*
X128879030Y57288107D01*
X128875535Y57303738D01*
X128780187Y57718388D01*
X128774150Y57734033D01*
X128771346Y57750970D01*
X128766420Y57766213D01*
X128633179Y58170279D01*
X128625723Y58185298D01*
X128621369Y58201896D01*
X128615059Y58216619D01*
X128445061Y58606655D01*
X128436250Y58620922D01*
X128430379Y58637052D01*
X128422735Y58651129D01*
X128217437Y59023794D01*
X128207344Y59037188D01*
X128200006Y59052711D01*
X128191093Y59066020D01*
X127952255Y59418122D01*
X127940968Y59430526D01*
X127932232Y59445297D01*
X127922129Y59457728D01*
X127651783Y59786267D01*
X127639398Y59797577D01*
X127629333Y59811481D01*
X127618125Y59822924D01*
X127318591Y60125083D01*
X127305216Y60135199D01*
X127293908Y60148116D01*
X127281692Y60158474D01*
X126955525Y60431677D01*
X126941271Y60440515D01*
X126928821Y60452329D01*
X126915701Y60461515D01*
X126565691Y60703421D01*
X126550685Y60710903D01*
X126537194Y60721519D01*
X126523281Y60729454D01*
X126152420Y60937997D01*
X126136786Y60944060D01*
X126122381Y60953380D01*
X126107791Y60959998D01*
X125719255Y61133392D01*
X125703125Y61137987D01*
X125687912Y61145940D01*
X125672775Y61151180D01*
X125269887Y61287942D01*
X125253403Y61291027D01*
X125237532Y61297536D01*
X125221976Y61301358D01*
X124808167Y61400323D01*
X124791469Y61401872D01*
X124775061Y61406889D01*
X124759217Y61409257D01*
X124338039Y61469574D01*
X124321266Y61469574D01*
X124304467Y61473053D01*
X124288474Y61473947D01*
X123863527Y61495102D01*
X123846832Y61493553D01*
X123829771Y61495467D01*
X123813764Y61494879D01*
X123388684Y61476691D01*
X123372199Y61473606D01*
X123355037Y61473935D01*
X123339154Y61471871D01*
X122917572Y61414497D01*
X122901442Y61409902D01*
X122884322Y61408645D01*
X122868696Y61405123D01*
X122454214Y61309051D01*
X122438580Y61302986D01*
X122421654Y61300154D01*
X122406418Y61295203D01*
X122002582Y61161256D01*
X121987575Y61153773D01*
X121970983Y61149390D01*
X121956271Y61143053D01*
X121566534Y60972376D01*
X121552277Y60963536D01*
X121536170Y60957642D01*
X121522106Y60949975D01*
X121149794Y60744024D01*
X121136418Y60733908D01*
X121120918Y60726548D01*
X121107622Y60717614D01*
X120755930Y60478155D01*
X120743546Y60466847D01*
X120728787Y60458084D01*
X120716375Y60447958D01*
X120388309Y60177043D01*
X120377019Y60164635D01*
X120363137Y60154549D01*
X120351713Y60143322D01*
X120050073Y59843256D01*
X120039981Y59829864D01*
X120027084Y59818534D01*
X120016746Y59806298D01*
X119744115Y59479657D01*
X119735302Y59465387D01*
X119723508Y59452915D01*
X119714345Y59439777D01*
X119473053Y59089352D01*
X119465595Y59074330D01*
X119455005Y59060822D01*
X119447094Y59046896D01*
X119239199Y58675672D01*
X119233162Y58660027D01*
X119223866Y58645602D01*
X119217274Y58631002D01*
X119044558Y58242163D01*
X119039993Y58226030D01*
X119032067Y58210805D01*
X119026853Y58195659D01*
X118890793Y57792527D01*
X118887737Y57776038D01*
X118881254Y57760152D01*
X118877460Y57744590D01*
X118779219Y57330611D01*
X118777699Y57313911D01*
X118772711Y57297494D01*
X118770370Y57281646D01*
X118710789Y56860364D01*
X118710818Y56843592D01*
X118707368Y56826783D01*
X118706502Y56810789D01*
X118686088Y56385807D01*
X118687666Y56369111D01*
X118685783Y56352052D01*
X118686399Y56336046D01*
X118705328Y55910997D01*
X118708442Y55894517D01*
X118708143Y55877364D01*
X118710233Y55861483D01*
X118768345Y55439991D01*
X118772967Y55423874D01*
X118774254Y55406753D01*
X118777806Y55391132D01*
X118874599Y54976823D01*
X118880690Y54961202D01*
X118883554Y54944269D01*
X118888533Y54929043D01*
X119023182Y54525450D01*
X119030691Y54510454D01*
X119035103Y54493875D01*
X119041463Y54479174D01*
X119212823Y54089729D01*
X119221685Y54075492D01*
X119227612Y54059383D01*
X119235307Y54045332D01*
X119441902Y53673390D01*
X119452040Y53660034D01*
X119459430Y53644540D01*
X119468390Y53631260D01*
X119708458Y53279992D01*
X119719788Y53267627D01*
X119728573Y53252889D01*
X119738718Y53240493D01*
X120010214Y52912894D01*
X120022637Y52901630D01*
X120032749Y52887763D01*
X120043998Y52876357D01*
X120344586Y52575244D01*
X120357999Y52565172D01*
X120369344Y52552305D01*
X120381595Y52541987D01*
X120708720Y52269920D01*
X120723008Y52261130D01*
X120735494Y52249364D01*
X120748646Y52240223D01*
X121099502Y51999537D01*
X121114534Y51992108D01*
X121128051Y51981547D01*
X121141993Y51973658D01*
X121513583Y51766409D01*
X121529244Y51760397D01*
X121543685Y51751126D01*
X121558294Y51744561D01*
X121947432Y51572525D01*
X121963578Y51567986D01*
X121978812Y51560090D01*
X121993966Y51554902D01*
X122397336Y51419545D01*
X122413827Y51416518D01*
X122429734Y51410059D01*
X122445302Y51406294D01*
X122859447Y51308776D01*
X122876146Y51307286D01*
X122892587Y51302322D01*
X122908440Y51300013D01*
X123329811Y51241168D01*
X123346578Y51241226D01*
X123363399Y51237804D01*
X123379394Y51236966D01*
X123804412Y51217295D01*
X123855875Y51222250D01*
X127565527Y51222250D01*
X127561473Y45790250D01*
X103627289Y45790250D01*
X103644395Y45842893D01*
X103671853Y45896784D01*
X103681313Y45956516D01*
X103700003Y46014037D01*
X103700003Y46890497D01*
X103700002Y46890503D01*
X103700002Y46950467D01*
X103681315Y47007978D01*
X103671853Y47067721D01*
X103644394Y47121611D01*
X103625706Y47179128D01*
X103590157Y47228057D01*
X103580505Y47247000D01*
X105603614Y47247000D01*
X105818497Y47032117D01*
X106185175Y46665438D01*
X106341071Y46509541D01*
X106394957Y46482085D01*
X106443886Y46446536D01*
X106501403Y46427848D01*
X106555293Y46400389D01*
X106615036Y46390927D01*
X106672547Y46372240D01*
X106732511Y46372240D01*
X106732517Y46372239D01*
X117498683Y46372239D01*
X117498689Y46372240D01*
X117558652Y46372240D01*
X117616165Y46390927D01*
X117675907Y46400389D01*
X117729798Y46427849D01*
X117787312Y46446535D01*
X117836240Y46482083D01*
X117890129Y46509542D01*
X118060484Y46679896D01*
X118060485Y46679898D01*
X118471527Y47090939D01*
X118521307Y47140719D01*
X118548763Y47194605D01*
X118584312Y47243534D01*
X118603000Y47301051D01*
X118630459Y47354941D01*
X118639921Y47414684D01*
X118658608Y47472195D01*
X118658608Y47532160D01*
X118658609Y47532166D01*
X118658609Y47685163D01*
X118671650Y47725300D01*
X118699110Y47779192D01*
X118708572Y47838934D01*
X118727259Y47896447D01*
X118727259Y47956410D01*
X118727260Y47956416D01*
X118727260Y49234644D01*
X118727259Y49234650D01*
X118727259Y49294614D01*
X118708572Y49352125D01*
X118699110Y49411868D01*
X118671651Y49465758D01*
X118652963Y49523275D01*
X118617414Y49572204D01*
X118589958Y49626090D01*
X118505242Y49710805D01*
X117802200Y50413846D01*
X117802200Y58791414D01*
X124050439Y65039652D01*
X124190071Y64981814D01*
X124392229Y64955200D01*
X124392236Y64955200D01*
X124459999Y64946279D01*
X124527763Y64955200D01*
X124920705Y64955200D01*
X126068927Y63806977D01*
X126110543Y63752743D01*
X126164772Y63711131D01*
X126326538Y63587003D01*
X126379762Y63564957D01*
X126578071Y63482814D01*
X126718648Y63464307D01*
X126756595Y63322689D01*
X126903985Y63147035D01*
X127097614Y63035244D01*
X127306776Y62998363D01*
X128334388Y62998363D01*
X128635312Y63078995D01*
X128810965Y63226385D01*
X128922756Y63420014D01*
X128959637Y63629176D01*
X128959637Y64362200D01*
X130475963Y64362200D01*
X130475963Y63623612D01*
X130556595Y63322689D01*
X130703985Y63147035D01*
X130897614Y63035244D01*
X131106776Y62998363D01*
X131489800Y62998363D01*
X131489800Y64362200D01*
X131745800Y64362200D01*
X131745800Y62998363D01*
X132134388Y62998363D01*
X132435312Y63078995D01*
X132610965Y63226385D01*
X132722756Y63420014D01*
X132759637Y63629176D01*
X132759637Y64362200D01*
X131745800Y64362200D01*
X131489800Y64362200D01*
X130475963Y64362200D01*
X128959637Y64362200D01*
X128959637Y65351224D01*
X130475963Y65351224D01*
X130475963Y64618200D01*
X131489800Y64618200D01*
X131489800Y65982037D01*
X131745800Y65982037D01*
X131745800Y64618200D01*
X132759637Y64618200D01*
X132759637Y65356788D01*
X132679005Y65657712D01*
X132531615Y65833365D01*
X132337986Y65945156D01*
X132128824Y65982037D01*
X131745800Y65982037D01*
X131489800Y65982037D01*
X131101212Y65982037D01*
X130800289Y65901405D01*
X130624635Y65754015D01*
X130512844Y65560386D01*
X130475963Y65351224D01*
X128959637Y65351224D01*
X128959637Y65356788D01*
X128879005Y65657712D01*
X128851800Y65690133D01*
X128851800Y69597115D01*
X128922756Y69720014D01*
X128959637Y69929176D01*
X128959637Y70662200D01*
X130475963Y70662200D01*
X130475963Y69923612D01*
X130556595Y69622689D01*
X130703985Y69447035D01*
X130897614Y69335244D01*
X131106776Y69298363D01*
X131489800Y69298363D01*
X131489800Y70662200D01*
X131745800Y70662200D01*
X131745800Y69298363D01*
X132134388Y69298363D01*
X132435312Y69378995D01*
X132610965Y69526385D01*
X132722756Y69720014D01*
X132759637Y69929176D01*
X132759637Y70662200D01*
X131745800Y70662200D01*
X131489800Y70662200D01*
X130475963Y70662200D01*
X128959637Y70662200D01*
X128959637Y71651224D01*
X130475963Y71651224D01*
X130475963Y70918200D01*
X131489800Y70918200D01*
X131489800Y72282037D01*
X131745800Y72282037D01*
X131745800Y70918200D01*
X132759637Y70918200D01*
X132759637Y71656788D01*
X132679005Y71957712D01*
X132531615Y72133365D01*
X132337986Y72245156D01*
X132128824Y72282037D01*
X131745800Y72282037D01*
X131489800Y72282037D01*
X131101212Y72282037D01*
X130800289Y72201405D01*
X130624635Y72054015D01*
X130512844Y71860386D01*
X130475963Y71651224D01*
X128959637Y71651224D01*
X128959637Y71656788D01*
X128879005Y71957712D01*
X128731615Y72133365D01*
X128537986Y72245156D01*
X128328824Y72282037D01*
X127301212Y72282037D01*
X127000289Y72201405D01*
X126824635Y72054015D01*
X126748373Y71921925D01*
X126732698Y71952690D01*
X126562690Y72122698D01*
X126407328Y72201859D01*
X124111115Y74498071D01*
X124107526Y74504786D01*
X124026205Y74582981D01*
X123989257Y74619930D01*
X123983206Y74624327D01*
X123934219Y74671429D01*
X123886545Y74694555D01*
X123843674Y74725703D01*
X123779045Y74746702D01*
X123717900Y74776363D01*
X123665404Y74783626D01*
X123615013Y74799999D01*
X123547055Y74799999D01*
X123539646Y74801024D01*
X123487337Y74799999D01*
X123374582Y74799999D01*
X123367344Y74797647D01*
X119915451Y74729987D01*
X110617240Y84028197D01*
X110567462Y84077976D01*
X110513578Y84105430D01*
X110464647Y84140982D01*
X110407127Y84159671D01*
X110353239Y84187128D01*
X110293504Y84196589D01*
X110235985Y84215278D01*
X110165588Y84215278D01*
X96970918Y84215280D01*
X94140578Y87045618D01*
X94140576Y87045622D01*
X93970221Y87215976D01*
X93916332Y87243435D01*
X93867404Y87278983D01*
X93809890Y87297669D01*
X93755999Y87325129D01*
X93696257Y87334591D01*
X93638744Y87353278D01*
X93578781Y87353278D01*
X93578775Y87353279D01*
X72426403Y87353279D01*
X72368882Y87334589D01*
X72309150Y87325129D01*
X72255259Y87297671D01*
X72197742Y87278982D01*
X72148812Y87243432D01*
X72094927Y87215977D01*
X72051486Y87172536D01*
X72051479Y87172530D01*
X71926916Y87047966D01*
X71918994Y87071780D01*
X71797175Y87304800D01*
X71654838Y87495069D01*
X69394219Y85234450D01*
X47438956Y85234450D01*
X47438950Y85234449D01*
X47378986Y85234449D01*
X47321475Y85215762D01*
X47261732Y85206300D01*
X47207842Y85178841D01*
X47150325Y85160153D01*
X47101396Y85124604D01*
X47047510Y85097148D01*
X44861702Y82911339D01*
X44710233Y82955919D01*
X44449364Y82988875D01*
X44186582Y82979698D01*
X43928648Y82928625D01*
X43682197Y82836972D01*
X43453569Y82707093D01*
X43248649Y82542332D01*
X43072706Y82346929D01*
X42930269Y82125908D01*
X42825000Y81884958D01*
X42759608Y81630277D01*
X42735778Y81368416D01*
X42754120Y81106115D01*
X42814163Y80850120D01*
X42914362Y80607018D01*
X43052140Y80383063D01*
X43223952Y80184017D01*
X43425378Y80015001D01*
X43651234Y79880363D01*
X43895711Y79783568D01*
X44152520Y79727105D01*
X44415052Y79712428D01*
X44676554Y79739912D01*
X44930297Y79808853D01*
X45169754Y79917475D01*
X45388764Y80062985D01*
X45495601Y80161917D01*
X45495600Y78995569D01*
X44407444Y77907411D01*
X44186582Y77899698D01*
X43928648Y77848625D01*
X43682197Y77756972D01*
X43453569Y77627093D01*
X43248649Y77462332D01*
X43072706Y77266929D01*
X42930269Y77045908D01*
X42825000Y76804958D01*
X42759608Y76550277D01*
X42735778Y76288416D01*
X42754120Y76026115D01*
X42814163Y75770120D01*
X42914362Y75527018D01*
X43052140Y75303063D01*
X43223952Y75104017D01*
X43425378Y74935001D01*
X43651234Y74800363D01*
X43687168Y74786136D01*
X43644084Y74719666D01*
X43579677Y74504302D01*
X42598660Y73523284D01*
X42598656Y73523282D01*
X42428301Y73352926D01*
X42400845Y73299040D01*
X42365296Y73250111D01*
X42346608Y73192594D01*
X42319149Y73138704D01*
X42309687Y73078961D01*
X42291000Y73021450D01*
X42291000Y72961486D01*
X42290999Y72961480D01*
X42291000Y72312565D01*
X42168640Y72153102D01*
X42066971Y71907651D01*
X42041000Y71710379D01*
X42040999Y61754360D01*
X42011358Y61705990D01*
X41927911Y61444513D01*
X41909244Y61170680D01*
X41956433Y60900297D01*
X42066890Y60648669D01*
X42201098Y60475647D01*
X43128193Y59548553D01*
X43072706Y59486929D01*
X42930269Y59265908D01*
X42825000Y59024958D01*
X42759608Y58770277D01*
X42735778Y58508416D01*
X42754120Y58246115D01*
X42814163Y57990120D01*
X42914362Y57747018D01*
X43052140Y57523063D01*
X43223952Y57324017D01*
X43425378Y57155001D01*
X43651234Y57020363D01*
X43895711Y56923568D01*
X44152520Y56867105D01*
X44415052Y56852428D01*
X44676554Y56879912D01*
X44930297Y56948853D01*
X45169754Y57057475D01*
X45388764Y57202985D01*
X45481825Y57289161D01*
X50298108Y57289161D01*
X51360000Y56227269D01*
X52427194Y57294464D01*
X52184606Y57463067D01*
X51947477Y57576679D01*
X51695233Y57650919D01*
X51434364Y57683875D01*
X51171582Y57674698D01*
X50913648Y57623625D01*
X50667197Y57531972D01*
X50438570Y57402093D01*
X50298108Y57289161D01*
X45481825Y57289161D01*
X45581693Y57381639D01*
X45743577Y57588840D01*
X45870250Y57819258D01*
X45958454Y58066964D01*
X46006040Y58326240D01*
X46009138Y58622065D01*
X45966992Y58882280D01*
X45883994Y59131780D01*
X45762175Y59364800D01*
X45604666Y59575347D01*
X45509000Y59667730D01*
X45509000Y59866161D01*
X45515755Y59965248D01*
X45497269Y60071171D01*
X45484349Y60177946D01*
X45473729Y60206048D01*
X45468567Y60235631D01*
X45425347Y60334086D01*
X45387331Y60434695D01*
X45370316Y60459453D01*
X45358109Y60487260D01*
X45297519Y60565373D01*
X45231868Y60660894D01*
X45153157Y60731023D01*
X44851930Y61032250D01*
X68271836Y61032250D01*
X66725837Y59486250D01*
X56555030Y59486250D01*
X56527623Y59492452D01*
X56427661Y59486250D01*
X56392600Y59486250D01*
X56365808Y59482413D01*
X56274894Y59476773D01*
X56241013Y59464541D01*
X56205343Y59459432D01*
X56122398Y59421721D01*
X56036354Y59390658D01*
X56008102Y59369752D01*
X55974836Y59354628D01*
X55896850Y59287431D01*
X55874413Y59270828D01*
X55854684Y59251098D01*
X55783008Y59189338D01*
X55764741Y59161155D01*
X54250123Y57646537D01*
X54235233Y57650919D01*
X53974364Y57683875D01*
X53711582Y57674698D01*
X53453648Y57623625D01*
X53207197Y57531972D01*
X52978569Y57402093D01*
X52773649Y57237332D01*
X52629444Y57077177D01*
X52604838Y57110069D01*
X51541019Y56046250D01*
X52603509Y54983761D01*
X52629654Y55017225D01*
X52748952Y54879017D01*
X52950378Y54710001D01*
X53176234Y54575363D01*
X53420711Y54478568D01*
X53677520Y54422105D01*
X53940052Y54407428D01*
X54201554Y54434912D01*
X54455297Y54503853D01*
X54694754Y54612475D01*
X54913764Y54757985D01*
X55106693Y54936639D01*
X55169654Y55017225D01*
X55288952Y54879017D01*
X55490378Y54710001D01*
X55716234Y54575363D01*
X55960711Y54478568D01*
X56217520Y54422105D01*
X56480052Y54407428D01*
X56741554Y54434912D01*
X56889481Y54475103D01*
X56861608Y54343971D01*
X56840789Y54046250D01*
X56861608Y53748529D01*
X56923658Y53456604D01*
X57025734Y53176155D01*
X57165846Y52912641D01*
X57376052Y52623321D01*
X58798981Y54046250D01*
X59161019Y54046250D01*
X60577322Y52629947D01*
X60710658Y52788854D01*
X60868811Y53041951D01*
X60990200Y53314597D01*
X61072464Y53601483D01*
X61114000Y53897026D01*
X61114000Y54195474D01*
X61072464Y54491017D01*
X60990200Y54777903D01*
X60868811Y55050549D01*
X60710658Y55303646D01*
X60577322Y55462553D01*
X59161019Y54046250D01*
X58798981Y54046250D01*
X60409106Y55656375D01*
X60049606Y55898861D01*
X59781363Y56029691D01*
X59497522Y56121917D01*
X59203609Y56173742D01*
X58905343Y56184158D01*
X58608530Y56152961D01*
X58318948Y56080761D01*
X58072085Y55981021D01*
X58074138Y56177065D01*
X58031992Y56437280D01*
X57948994Y56686780D01*
X57827175Y56919800D01*
X57669666Y57130347D01*
X57480521Y57313001D01*
X57264606Y57463067D01*
X57027477Y57576679D01*
X56775233Y57650919D01*
X56757120Y57653207D01*
X56822163Y57718250D01*
X66992970Y57718250D01*
X67020377Y57712048D01*
X67120338Y57718250D01*
X67155400Y57718250D01*
X67182192Y57722087D01*
X67273105Y57727727D01*
X67306985Y57739959D01*
X67342657Y57745067D01*
X67425603Y57782780D01*
X67511643Y57813841D01*
X67539895Y57834746D01*
X67573166Y57849874D01*
X67651157Y57917076D01*
X67673584Y57933671D01*
X67693308Y57953395D01*
X67764992Y58015162D01*
X67783261Y58043348D01*
X68933806Y59193891D01*
X68860000Y59024958D01*
X68794608Y58770277D01*
X68770778Y58508416D01*
X68789120Y58246115D01*
X68849163Y57990120D01*
X68949362Y57747018D01*
X69087140Y57523063D01*
X69258952Y57324017D01*
X69460378Y57155001D01*
X69686234Y57020363D01*
X69930711Y56923568D01*
X70187520Y56867105D01*
X70450052Y56852428D01*
X70711554Y56879912D01*
X70897445Y56930418D01*
X70976002Y56851861D01*
X70976001Y55311006D01*
X70976002Y55311000D01*
X70976002Y55251036D01*
X70994689Y55193525D01*
X71004151Y55133782D01*
X71031610Y55079892D01*
X71050298Y55022375D01*
X71085847Y54973446D01*
X71113303Y54919560D01*
X71177376Y54855487D01*
X70997477Y54941679D01*
X70745233Y55015919D01*
X70484364Y55048875D01*
X70221582Y55039698D01*
X69963648Y54988625D01*
X69717197Y54896972D01*
X69488569Y54767093D01*
X69283649Y54602332D01*
X69107706Y54406929D01*
X68965269Y54185908D01*
X68860000Y53944958D01*
X68794608Y53690277D01*
X68770778Y53428416D01*
X68789120Y53166115D01*
X68849163Y52910120D01*
X68949362Y52667018D01*
X69087140Y52443063D01*
X69258952Y52244017D01*
X69276001Y52229711D01*
X69276000Y50675479D01*
X69300651Y50471769D01*
X69397670Y50215018D01*
X69553131Y49988819D01*
X69737523Y49824531D01*
X69717197Y49816972D01*
X69488570Y49687093D01*
X69348108Y49574161D01*
X70591020Y48331250D01*
X70410000Y48150230D01*
X69156927Y49403304D01*
X68965269Y49105908D01*
X68860000Y48864958D01*
X68794608Y48610277D01*
X68775013Y48394955D01*
X65879675Y51290291D01*
X65814362Y51365161D01*
X65726379Y51426997D01*
X65641753Y51493352D01*
X65614377Y51505713D01*
X65589803Y51522983D01*
X65489614Y51562046D01*
X65391599Y51606301D01*
X65362070Y51611773D01*
X65333771Y51622806D01*
X65235692Y51635196D01*
X65121725Y51656319D01*
X65016496Y51650251D01*
X47739718Y51650251D01*
X46943412Y52446557D01*
X47401326Y52446557D01*
X47623768Y52272764D01*
X47882231Y52123540D01*
X48158948Y52011739D01*
X48448530Y51939539D01*
X48745343Y51908342D01*
X49043609Y51918758D01*
X49337522Y51970583D01*
X49621363Y52062809D01*
X49889606Y52193639D01*
X50249106Y52436125D01*
X50238674Y52446557D01*
X57561326Y52446557D01*
X57783768Y52272764D01*
X58042231Y52123540D01*
X58318948Y52011739D01*
X58608530Y51939539D01*
X58905343Y51908342D01*
X59203609Y51918758D01*
X59497522Y51970583D01*
X59781363Y52062809D01*
X60049606Y52193639D01*
X60409106Y52436125D01*
X58980000Y53865231D01*
X57561326Y52446557D01*
X50238674Y52446557D01*
X48820000Y53865231D01*
X47401326Y52446557D01*
X46943412Y52446557D01*
X46007467Y53382500D01*
X46009138Y53542065D01*
X45966992Y53802280D01*
X45885834Y54046250D01*
X46680789Y54046250D01*
X46701608Y53748529D01*
X46763658Y53456604D01*
X46865734Y53176155D01*
X47005846Y52912641D01*
X47216052Y52623321D01*
X48638981Y54046250D01*
X47216052Y55469179D01*
X47005846Y55179859D01*
X46865734Y54916345D01*
X46763658Y54635896D01*
X46701608Y54343971D01*
X46680789Y54046250D01*
X45885834Y54046250D01*
X45883994Y54051780D01*
X45762175Y54284800D01*
X45604666Y54495347D01*
X45415521Y54678001D01*
X45199606Y54828067D01*
X44962477Y54941679D01*
X44710233Y55015919D01*
X44449364Y55048875D01*
X44186582Y55039698D01*
X43928648Y54988625D01*
X43682197Y54896972D01*
X43453569Y54767093D01*
X43248649Y54602332D01*
X43072706Y54406929D01*
X42930269Y54185908D01*
X42825000Y53944958D01*
X42759608Y53690277D01*
X42735778Y53428416D01*
X42754120Y53166115D01*
X42814163Y52910120D01*
X42914362Y52667018D01*
X43052140Y52443063D01*
X43223952Y52244017D01*
X43425378Y52075001D01*
X43651234Y51940363D01*
X43895711Y51843568D01*
X44152520Y51787105D01*
X44409812Y51772721D01*
X46440330Y49742203D01*
X46505636Y49667341D01*
X46537790Y49644742D01*
X46542770Y49639762D01*
X46704246Y49513148D01*
X46954398Y49400201D01*
X47224273Y49350182D01*
X47498287Y49365983D01*
X47551169Y49382251D01*
X61552163Y49382251D01*
X61552163Y49094250D01*
X64535837Y49094250D01*
X64535837Y49382251D01*
X64580282Y49382251D01*
X68172283Y45790250D01*
X67234000Y45790250D01*
X67234000Y46417711D01*
X67234583Y46513177D01*
X67221509Y46558922D01*
X67214764Y46606018D01*
X67196684Y46645783D01*
X67184677Y46687790D01*
X67159294Y46728021D01*
X67139598Y46771339D01*
X67111080Y46804434D01*
X67087773Y46841376D01*
X67052111Y46872872D01*
X67021053Y46908915D01*
X66984399Y46932672D01*
X66951654Y46961592D01*
X66908578Y46981816D01*
X66868661Y47007689D01*
X66826818Y47020202D01*
X66786911Y47038939D01*
X66741455Y47045732D01*
X66694672Y47059723D01*
X66645832Y47060022D01*
X66644306Y47060250D01*
X66608538Y47060250D01*
X66513073Y47060833D01*
X66511033Y47060250D01*
X45414751Y47060250D01*
X45444930Y47080301D01*
X44375000Y48150231D01*
X43296560Y47071791D01*
X43315920Y47060250D01*
X41834000Y47060250D01*
X41834000Y48348416D01*
X42735778Y48348416D01*
X42754120Y48086115D01*
X42814163Y47830120D01*
X42914362Y47587018D01*
X43118282Y47255551D01*
X44193981Y48331250D01*
X44556019Y48331250D01*
X45618509Y47268761D01*
X45743577Y47428840D01*
X45870250Y47659258D01*
X45958454Y47906964D01*
X46006040Y48166240D01*
X46009138Y48462065D01*
X45966992Y48722280D01*
X45928414Y48838250D01*
X61552163Y48838250D01*
X61552163Y48099662D01*
X61632795Y47798739D01*
X61780185Y47623085D01*
X61973814Y47511294D01*
X62182976Y47474413D01*
X62916000Y47474413D01*
X62916000Y48838250D01*
X63172000Y48838250D01*
X63172000Y47474413D01*
X63910588Y47474413D01*
X64211512Y47555045D01*
X64387165Y47702435D01*
X64498956Y47896064D01*
X64535837Y48105226D01*
X64535837Y48838250D01*
X63172000Y48838250D01*
X62916000Y48838250D01*
X61552163Y48838250D01*
X45928414Y48838250D01*
X45883994Y48971780D01*
X45762175Y49204800D01*
X45619838Y49395069D01*
X44556019Y48331250D01*
X44193981Y48331250D01*
X43121927Y49403304D01*
X42930269Y49105908D01*
X42825000Y48864958D01*
X42759608Y48610277D01*
X42735778Y48348416D01*
X41834000Y48348416D01*
X41834000Y49574161D01*
X43313108Y49574161D01*
X44375000Y48512269D01*
X45442194Y49579464D01*
X45199606Y49748067D01*
X44962477Y49861679D01*
X44710233Y49935919D01*
X44449364Y49968875D01*
X44186582Y49959698D01*
X43928648Y49908625D01*
X43682197Y49816972D01*
X43453570Y49687093D01*
X43313108Y49574161D01*
X41834000Y49574161D01*
X41834000Y55645943D01*
X47401326Y55645943D01*
X50417322Y52629947D01*
X50550658Y52788854D01*
X50708811Y53041951D01*
X50830200Y53314597D01*
X50912464Y53601483D01*
X50954000Y53897026D01*
X50954000Y54195474D01*
X50915282Y54470967D01*
X51137520Y54422105D01*
X51400052Y54407428D01*
X51661554Y54434912D01*
X51915297Y54503853D01*
X52154754Y54612475D01*
X52429930Y54795301D01*
X50106927Y57118304D01*
X49915269Y56820908D01*
X49810000Y56579958D01*
X49744608Y56325277D01*
X49720778Y56063416D01*
X49726730Y55978300D01*
X49621363Y56029691D01*
X49337522Y56121917D01*
X49043609Y56173742D01*
X48745343Y56184158D01*
X48448530Y56152961D01*
X48158948Y56080761D01*
X47882231Y55968960D01*
X47623768Y55819736D01*
X47401326Y55645943D01*
X41834000Y55645943D01*
X41834000Y85171791D01*
X43296560Y85171791D01*
X43651235Y84960363D01*
X43895711Y84863568D01*
X44152520Y84807105D01*
X44415052Y84792428D01*
X44676554Y84819912D01*
X44930297Y84888853D01*
X45169754Y84997475D01*
X45444930Y85180301D01*
X44375000Y86250231D01*
X43296560Y85171791D01*
X41834000Y85171791D01*
X41834000Y86448416D01*
X42735778Y86448416D01*
X42754120Y86186115D01*
X42814163Y85930120D01*
X42914362Y85687018D01*
X43118282Y85355551D01*
X44193981Y86431250D01*
X44556019Y86431250D01*
X45618509Y85368761D01*
X45743577Y85528840D01*
X45870250Y85759258D01*
X45958454Y86006964D01*
X46006040Y86266240D01*
X46007947Y86448416D01*
X68770778Y86448416D01*
X68789120Y86186115D01*
X68849163Y85930120D01*
X68949362Y85687018D01*
X69153282Y85355551D01*
X70228981Y86431250D01*
X69156927Y87503304D01*
X68965269Y87205908D01*
X68860000Y86964958D01*
X68794608Y86710277D01*
X68770778Y86448416D01*
X46007947Y86448416D01*
X46009138Y86562065D01*
X45966992Y86822280D01*
X45883994Y87071780D01*
X45762175Y87304800D01*
X45619838Y87495069D01*
X44556019Y86431250D01*
X44193981Y86431250D01*
X43121927Y87503304D01*
X42930269Y87205908D01*
X42825000Y86964958D01*
X42759608Y86710277D01*
X42735778Y86448416D01*
X41834000Y86448416D01*
X41834000Y87702250D01*
X43348044Y87702250D01*
X43313108Y87674161D01*
X44375000Y86612269D01*
X45436891Y87674161D01*
X69348108Y87674161D01*
X70410000Y86612269D01*
X71477194Y87679464D01*
X71234606Y87848067D01*
X70997477Y87961679D01*
X70745233Y88035919D01*
X70484364Y88068875D01*
X70221582Y88059698D01*
X69963648Y88008625D01*
X69717197Y87916972D01*
X69488570Y87787093D01*
X69348108Y87674161D01*
X45436891Y87674161D01*
X45442194Y87679464D01*
X45409409Y87702250D01*
X58971462Y87702250D01*
X59066927Y87701667D01*
X59112672Y87714741D01*
X59159768Y87721486D01*
X59199533Y87739566D01*
X59241540Y87751573D01*
X59281771Y87776956D01*
X59325089Y87796652D01*
X59358184Y87825170D01*
X59395126Y87848477D01*
X59426621Y87884139D01*
X59462664Y87915196D01*
X59486422Y87951851D01*
X59515342Y87984596D01*
X59535564Y88027666D01*
X59561439Y88067588D01*
X59573953Y88109433D01*
X59592689Y88149338D01*
X59599483Y88194796D01*
X59613473Y88241577D01*
X59613772Y88290418D01*
X59614000Y88291944D01*
X59614000Y88327711D01*
X59614583Y88423177D01*
X59614000Y88425217D01*
X59614000Y88972250D01*
X94057077Y88972250D01*
X99441000Y87359344D01*
G37*
D28*
X99441000Y87359344D02*
X99441001Y85589948D01*
X99440417Y85494323D01*
X99453494Y85448570D01*
X99460238Y85401480D01*
X99478319Y85361712D01*
X99490323Y85319710D01*
X99515713Y85279469D01*
X99535402Y85236163D01*
X99563916Y85203071D01*
X99587228Y85166124D01*
X99622894Y85134626D01*
X99653946Y85098587D01*
X99690598Y85074830D01*
X99723346Y85045908D01*
X99766426Y85025681D01*
X99806339Y84999811D01*
X99848182Y84987298D01*
X99888089Y84968561D01*
X99933545Y84961768D01*
X99980328Y84947777D01*
X100029168Y84947478D01*
X100030694Y84947250D01*
X100066462Y84947250D01*
X100161927Y84946667D01*
X100163967Y84947250D01*
X121353536Y84947250D01*
X127564617Y82476671D01*
X127561103Y81383714D01*
X127561102Y81383714D01*
X127560554Y81263334D01*
X127573281Y81219066D01*
X127579663Y81173458D01*
X127598241Y81132246D01*
X127610732Y81088799D01*
X127635368Y81049887D01*
X127654296Y81007899D01*
X127683698Y80973555D01*
X127707876Y80935364D01*
X127742447Y80904928D01*
X127772397Y80869943D01*
X127810249Y80845235D01*
X127844182Y80815360D01*
X127885907Y80795850D01*
X127924471Y80770678D01*
X127967733Y80757588D01*
X128009045Y80738271D01*
X128053109Y80731756D01*
X128098291Y80718085D01*
X128148756Y80717614D01*
X128151669Y80717183D01*
X128188788Y80717240D01*
X128279888Y80716391D01*
X128283419Y80717388D01*
X131141520Y80721847D01*
X134541055Y77389850D01*
X134545869Y54047102D01*
X128959000Y54063402D01*
X128959000Y56320712D01*
X128964233Y56367739D01*
X128963633Y56383746D01*
X128946101Y56785301D01*
X128943156Y56800964D01*
X128943497Y56817280D01*
X128941461Y56833167D01*
X128884823Y57254849D01*
X128880257Y57270984D01*
X128879030Y57288107D01*
X128875535Y57303738D01*
X128780187Y57718388D01*
X128774150Y57734033D01*
X128771346Y57750970D01*
X128766420Y57766213D01*
X128633179Y58170279D01*
X128625723Y58185298D01*
X128621369Y58201896D01*
X128615059Y58216619D01*
X128445061Y58606655D01*
X128436250Y58620922D01*
X128430379Y58637052D01*
X128422735Y58651129D01*
X128217437Y59023794D01*
X128207344Y59037188D01*
X128200006Y59052711D01*
X128191093Y59066020D01*
X127952255Y59418122D01*
X127940968Y59430526D01*
X127932232Y59445297D01*
X127922129Y59457728D01*
X127651783Y59786267D01*
X127639398Y59797577D01*
X127629333Y59811481D01*
X127618125Y59822924D01*
X127318591Y60125083D01*
X127305216Y60135199D01*
X127293908Y60148116D01*
X127281692Y60158474D01*
X126955525Y60431677D01*
X126941271Y60440515D01*
X126928821Y60452329D01*
X126915701Y60461515D01*
X126565691Y60703421D01*
X126550685Y60710903D01*
X126537194Y60721519D01*
X126523281Y60729454D01*
X126152420Y60937997D01*
X126136786Y60944060D01*
X126122381Y60953380D01*
X126107791Y60959998D01*
X125719255Y61133392D01*
X125703125Y61137987D01*
X125687912Y61145940D01*
X125672775Y61151180D01*
X125269887Y61287942D01*
X125253403Y61291027D01*
X125237532Y61297536D01*
X125221976Y61301358D01*
X124808167Y61400323D01*
X124791469Y61401872D01*
X124775061Y61406889D01*
X124759217Y61409257D01*
X124338039Y61469574D01*
X124321266Y61469574D01*
X124304467Y61473053D01*
X124288474Y61473947D01*
X123863527Y61495102D01*
X123846832Y61493553D01*
X123829771Y61495467D01*
X123813764Y61494879D01*
X123388684Y61476691D01*
X123372199Y61473606D01*
X123355037Y61473935D01*
X123339154Y61471871D01*
X122917572Y61414497D01*
X122901442Y61409902D01*
X122884322Y61408645D01*
X122868696Y61405123D01*
X122454214Y61309051D01*
X122438580Y61302986D01*
X122421654Y61300154D01*
X122406418Y61295203D01*
X122002582Y61161256D01*
X121987575Y61153773D01*
X121970983Y61149390D01*
X121956271Y61143053D01*
X121566534Y60972376D01*
X121552277Y60963536D01*
X121536170Y60957642D01*
X121522106Y60949975D01*
X121149794Y60744024D01*
X121136418Y60733908D01*
X121120918Y60726548D01*
X121107622Y60717614D01*
X120755930Y60478155D01*
X120743546Y60466847D01*
X120728787Y60458084D01*
X120716375Y60447958D01*
X120388309Y60177043D01*
X120377019Y60164635D01*
X120363137Y60154549D01*
X120351713Y60143322D01*
X120050073Y59843256D01*
X120039981Y59829864D01*
X120027084Y59818534D01*
X120016746Y59806298D01*
X119744115Y59479657D01*
X119735302Y59465387D01*
X119723508Y59452915D01*
X119714345Y59439777D01*
X119473053Y59089352D01*
X119465595Y59074330D01*
X119455005Y59060822D01*
X119447094Y59046896D01*
X119239199Y58675672D01*
X119233162Y58660027D01*
X119223866Y58645602D01*
X119217274Y58631002D01*
X119044558Y58242163D01*
X119039993Y58226030D01*
X119032067Y58210805D01*
X119026853Y58195659D01*
X118890793Y57792527D01*
X118887737Y57776038D01*
X118881254Y57760152D01*
X118877460Y57744590D01*
X118779219Y57330611D01*
X118777699Y57313911D01*
X118772711Y57297494D01*
X118770370Y57281646D01*
X118710789Y56860364D01*
X118710818Y56843592D01*
X118707368Y56826783D01*
X118706502Y56810789D01*
X118686088Y56385807D01*
X118687666Y56369111D01*
X118685783Y56352052D01*
X118686399Y56336046D01*
X118705328Y55910997D01*
X118708442Y55894517D01*
X118708143Y55877364D01*
X118710233Y55861483D01*
X118768345Y55439991D01*
X118772967Y55423874D01*
X118774254Y55406753D01*
X118777806Y55391132D01*
X118874599Y54976823D01*
X118880690Y54961202D01*
X118883554Y54944269D01*
X118888533Y54929043D01*
X119023182Y54525450D01*
X119030691Y54510454D01*
X119035103Y54493875D01*
X119041463Y54479174D01*
X119212823Y54089729D01*
X119221685Y54075492D01*
X119227612Y54059383D01*
X119235307Y54045332D01*
X119441902Y53673390D01*
X119452040Y53660034D01*
X119459430Y53644540D01*
X119468390Y53631260D01*
X119708458Y53279992D01*
X119719788Y53267627D01*
X119728573Y53252889D01*
X119738718Y53240493D01*
X120010214Y52912894D01*
X120022637Y52901630D01*
X120032749Y52887763D01*
X120043998Y52876357D01*
X120344586Y52575244D01*
X120357999Y52565172D01*
X120369344Y52552305D01*
X120381595Y52541987D01*
X120708720Y52269920D01*
X120723008Y52261130D01*
X120735494Y52249364D01*
X120748646Y52240223D01*
X121099502Y51999537D01*
X121114534Y51992108D01*
X121128051Y51981547D01*
X121141993Y51973658D01*
X121513583Y51766409D01*
X121529244Y51760397D01*
X121543685Y51751126D01*
X121558294Y51744561D01*
X121947432Y51572525D01*
X121963578Y51567986D01*
X121978812Y51560090D01*
X121993966Y51554902D01*
X122397336Y51419545D01*
X122413827Y51416518D01*
X122429734Y51410059D01*
X122445302Y51406294D01*
X122859447Y51308776D01*
X122876146Y51307286D01*
X122892587Y51302322D01*
X122908440Y51300013D01*
X123329811Y51241168D01*
X123346578Y51241226D01*
X123363399Y51237804D01*
X123379394Y51236966D01*
X123804412Y51217295D01*
X123855875Y51222250D01*
X127565527Y51222250D01*
X127561473Y45790250D01*
X103627289Y45790250D01*
X103644395Y45842893D01*
X103671853Y45896784D01*
X103681313Y45956516D01*
X103700003Y46014037D01*
X103700003Y46890497D01*
X103700002Y46890503D01*
X103700002Y46950467D01*
X103681315Y47007978D01*
X103671853Y47067721D01*
X103644394Y47121611D01*
X103625706Y47179128D01*
X103590157Y47228057D01*
X103580505Y47247000D01*
X105603614Y47247000D01*
X105818497Y47032117D01*
X106185175Y46665438D01*
X106341071Y46509541D01*
X106394957Y46482085D01*
X106443886Y46446536D01*
X106501403Y46427848D01*
X106555293Y46400389D01*
X106615036Y46390927D01*
X106672547Y46372240D01*
X106732511Y46372240D01*
X106732517Y46372239D01*
X117498683Y46372239D01*
X117498689Y46372240D01*
X117558652Y46372240D01*
X117616165Y46390927D01*
X117675907Y46400389D01*
X117729798Y46427849D01*
X117787312Y46446535D01*
X117836240Y46482083D01*
X117890129Y46509542D01*
X118060484Y46679896D01*
X118060485Y46679898D01*
X118471527Y47090939D01*
X118521307Y47140719D01*
X118548763Y47194605D01*
X118584312Y47243534D01*
X118603000Y47301051D01*
X118630459Y47354941D01*
X118639921Y47414684D01*
X118658608Y47472195D01*
X118658608Y47532160D01*
X118658609Y47532166D01*
X118658609Y47685163D01*
X118671650Y47725300D01*
X118699110Y47779192D01*
X118708572Y47838934D01*
X118727259Y47896447D01*
X118727259Y47956410D01*
X118727260Y47956416D01*
X118727260Y49234644D01*
X118727259Y49234650D01*
X118727259Y49294614D01*
X118708572Y49352125D01*
X118699110Y49411868D01*
X118671651Y49465758D01*
X118652963Y49523275D01*
X118617414Y49572204D01*
X118589958Y49626090D01*
X118505242Y49710805D01*
X117802200Y50413846D01*
X117802200Y58791414D01*
X124050439Y65039652D01*
X124190071Y64981814D01*
X124392229Y64955200D01*
X124392236Y64955200D01*
X124459999Y64946279D01*
X124527763Y64955200D01*
X124920705Y64955200D01*
X126068927Y63806977D01*
X126110543Y63752743D01*
X126164772Y63711131D01*
X126326538Y63587003D01*
X126379762Y63564957D01*
X126578071Y63482814D01*
X126718648Y63464307D01*
X126756595Y63322689D01*
X126903985Y63147035D01*
X127097614Y63035244D01*
X127306776Y62998363D01*
X128334388Y62998363D01*
X128635312Y63078995D01*
X128810965Y63226385D01*
X128922756Y63420014D01*
X128959637Y63629176D01*
X128959637Y64362200D01*
X130475963Y64362200D01*
X130475963Y63623612D01*
X130556595Y63322689D01*
X130703985Y63147035D01*
X130897614Y63035244D01*
X131106776Y62998363D01*
X131489800Y62998363D01*
X131489800Y64362200D01*
X131745800Y64362200D01*
X131745800Y62998363D01*
X132134388Y62998363D01*
X132435312Y63078995D01*
X132610965Y63226385D01*
X132722756Y63420014D01*
X132759637Y63629176D01*
X132759637Y64362200D01*
X131745800Y64362200D01*
X131489800Y64362200D01*
X130475963Y64362200D01*
X128959637Y64362200D01*
X128959637Y65351224D01*
X130475963Y65351224D01*
X130475963Y64618200D01*
X131489800Y64618200D01*
X131489800Y65982037D01*
X131745800Y65982037D01*
X131745800Y64618200D01*
X132759637Y64618200D01*
X132759637Y65356788D01*
X132679005Y65657712D01*
X132531615Y65833365D01*
X132337986Y65945156D01*
X132128824Y65982037D01*
X131745800Y65982037D01*
X131489800Y65982037D01*
X131101212Y65982037D01*
X130800289Y65901405D01*
X130624635Y65754015D01*
X130512844Y65560386D01*
X130475963Y65351224D01*
X128959637Y65351224D01*
X128959637Y65356788D01*
X128879005Y65657712D01*
X128851800Y65690133D01*
X128851800Y69597115D01*
X128922756Y69720014D01*
X128959637Y69929176D01*
X128959637Y70662200D01*
X130475963Y70662200D01*
X130475963Y69923612D01*
X130556595Y69622689D01*
X130703985Y69447035D01*
X130897614Y69335244D01*
X131106776Y69298363D01*
X131489800Y69298363D01*
X131489800Y70662200D01*
X131745800Y70662200D01*
X131745800Y69298363D01*
X132134388Y69298363D01*
X132435312Y69378995D01*
X132610965Y69526385D01*
X132722756Y69720014D01*
X132759637Y69929176D01*
X132759637Y70662200D01*
X131745800Y70662200D01*
X131489800Y70662200D01*
X130475963Y70662200D01*
X128959637Y70662200D01*
X128959637Y71651224D01*
X130475963Y71651224D01*
X130475963Y70918200D01*
X131489800Y70918200D01*
X131489800Y72282037D01*
X131745800Y72282037D01*
X131745800Y70918200D01*
X132759637Y70918200D01*
X132759637Y71656788D01*
X132679005Y71957712D01*
X132531615Y72133365D01*
X132337986Y72245156D01*
X132128824Y72282037D01*
X131745800Y72282037D01*
X131489800Y72282037D01*
X131101212Y72282037D01*
X130800289Y72201405D01*
X130624635Y72054015D01*
X130512844Y71860386D01*
X130475963Y71651224D01*
X128959637Y71651224D01*
X128959637Y71656788D01*
X128879005Y71957712D01*
X128731615Y72133365D01*
X128537986Y72245156D01*
X128328824Y72282037D01*
X127301212Y72282037D01*
X127000289Y72201405D01*
X126824635Y72054015D01*
X126748373Y71921925D01*
X126732698Y71952690D01*
X126562690Y72122698D01*
X126407328Y72201859D01*
X124111115Y74498071D01*
X124107526Y74504786D01*
X124026205Y74582981D01*
X123989257Y74619930D01*
X123983206Y74624327D01*
X123934219Y74671429D01*
X123886545Y74694555D01*
X123843674Y74725703D01*
X123779045Y74746702D01*
X123717900Y74776363D01*
X123665404Y74783626D01*
X123615013Y74799999D01*
X123547055Y74799999D01*
X123539646Y74801024D01*
X123487337Y74799999D01*
X123374582Y74799999D01*
X123367344Y74797647D01*
X119915451Y74729987D01*
X110617240Y84028197D01*
X110567462Y84077976D01*
X110513578Y84105430D01*
X110464647Y84140982D01*
X110407127Y84159671D01*
X110353239Y84187128D01*
X110293504Y84196589D01*
X110235985Y84215278D01*
X110165588Y84215278D01*
X96970918Y84215280D01*
X94140578Y87045618D01*
X94140576Y87045622D01*
X93970221Y87215976D01*
X93916332Y87243435D01*
X93867404Y87278983D01*
X93809890Y87297669D01*
X93755999Y87325129D01*
X93696257Y87334591D01*
X93638744Y87353278D01*
X93578781Y87353278D01*
X93578775Y87353279D01*
X72426403Y87353279D01*
X72368882Y87334589D01*
X72309150Y87325129D01*
X72255259Y87297671D01*
X72197742Y87278982D01*
X72148812Y87243432D01*
X72094927Y87215977D01*
X72051486Y87172536D01*
X72051479Y87172530D01*
X71926916Y87047966D01*
X71918994Y87071780D01*
X71797175Y87304800D01*
X71654838Y87495069D01*
X69394219Y85234450D01*
X47438956Y85234450D01*
X47438950Y85234449D01*
X47378986Y85234449D01*
X47321475Y85215762D01*
X47261732Y85206300D01*
X47207842Y85178841D01*
X47150325Y85160153D01*
X47101396Y85124604D01*
X47047510Y85097148D01*
X44861702Y82911339D01*
X44710233Y82955919D01*
X44449364Y82988875D01*
X44186582Y82979698D01*
X43928648Y82928625D01*
X43682197Y82836972D01*
X43453569Y82707093D01*
X43248649Y82542332D01*
X43072706Y82346929D01*
X42930269Y82125908D01*
X42825000Y81884958D01*
X42759608Y81630277D01*
X42735778Y81368416D01*
X42754120Y81106115D01*
X42814163Y80850120D01*
X42914362Y80607018D01*
X43052140Y80383063D01*
X43223952Y80184017D01*
X43425378Y80015001D01*
X43651234Y79880363D01*
X43895711Y79783568D01*
X44152520Y79727105D01*
X44415052Y79712428D01*
X44676554Y79739912D01*
X44930297Y79808853D01*
X45169754Y79917475D01*
X45388764Y80062985D01*
X45495601Y80161917D01*
X45495600Y78995569D01*
X44407444Y77907411D01*
X44186582Y77899698D01*
X43928648Y77848625D01*
X43682197Y77756972D01*
X43453569Y77627093D01*
X43248649Y77462332D01*
X43072706Y77266929D01*
X42930269Y77045908D01*
X42825000Y76804958D01*
X42759608Y76550277D01*
X42735778Y76288416D01*
X42754120Y76026115D01*
X42814163Y75770120D01*
X42914362Y75527018D01*
X43052140Y75303063D01*
X43223952Y75104017D01*
X43425378Y74935001D01*
X43651234Y74800363D01*
X43687168Y74786136D01*
X43644084Y74719666D01*
X43579677Y74504302D01*
X42598660Y73523284D01*
X42598656Y73523282D01*
X42428301Y73352926D01*
X42400845Y73299040D01*
X42365296Y73250111D01*
X42346608Y73192594D01*
X42319149Y73138704D01*
X42309687Y73078961D01*
X42291000Y73021450D01*
X42291000Y72961486D01*
X42290999Y72961480D01*
X42291000Y72312565D01*
X42168640Y72153102D01*
X42066971Y71907651D01*
X42041000Y71710379D01*
X42040999Y61754360D01*
X42011358Y61705990D01*
X41927911Y61444513D01*
X41909244Y61170680D01*
X41956433Y60900297D01*
X42066890Y60648669D01*
X42201098Y60475647D01*
X43128193Y59548553D01*
X43072706Y59486929D01*
X42930269Y59265908D01*
X42825000Y59024958D01*
X42759608Y58770277D01*
X42735778Y58508416D01*
X42754120Y58246115D01*
X42814163Y57990120D01*
X42914362Y57747018D01*
X43052140Y57523063D01*
X43223952Y57324017D01*
X43425378Y57155001D01*
X43651234Y57020363D01*
X43895711Y56923568D01*
X44152520Y56867105D01*
X44415052Y56852428D01*
X44676554Y56879912D01*
X44930297Y56948853D01*
X45169754Y57057475D01*
X45388764Y57202985D01*
X45481825Y57289161D01*
X50298108Y57289161D01*
X51360000Y56227269D01*
X52427194Y57294464D01*
X52184606Y57463067D01*
X51947477Y57576679D01*
X51695233Y57650919D01*
X51434364Y57683875D01*
X51171582Y57674698D01*
X50913648Y57623625D01*
X50667197Y57531972D01*
X50438570Y57402093D01*
X50298108Y57289161D01*
X45481825Y57289161D01*
X45581693Y57381639D01*
X45743577Y57588840D01*
X45870250Y57819258D01*
X45958454Y58066964D01*
X46006040Y58326240D01*
X46009138Y58622065D01*
X45966992Y58882280D01*
X45883994Y59131780D01*
X45762175Y59364800D01*
X45604666Y59575347D01*
X45509000Y59667730D01*
X45509000Y59866161D01*
X45515755Y59965248D01*
X45497269Y60071171D01*
X45484349Y60177946D01*
X45473729Y60206048D01*
X45468567Y60235631D01*
X45425347Y60334086D01*
X45387331Y60434695D01*
X45370316Y60459453D01*
X45358109Y60487260D01*
X45297519Y60565373D01*
X45231868Y60660894D01*
X45153157Y60731023D01*
X44851930Y61032250D01*
X68271836Y61032250D01*
X66725837Y59486250D01*
X56555030Y59486250D01*
X56527623Y59492452D01*
X56427661Y59486250D01*
X56392600Y59486250D01*
X56365808Y59482413D01*
X56274894Y59476773D01*
X56241013Y59464541D01*
X56205343Y59459432D01*
X56122398Y59421721D01*
X56036354Y59390658D01*
X56008102Y59369752D01*
X55974836Y59354628D01*
X55896850Y59287431D01*
X55874413Y59270828D01*
X55854684Y59251098D01*
X55783008Y59189338D01*
X55764741Y59161155D01*
X54250123Y57646537D01*
X54235233Y57650919D01*
X53974364Y57683875D01*
X53711582Y57674698D01*
X53453648Y57623625D01*
X53207197Y57531972D01*
X52978569Y57402093D01*
X52773649Y57237332D01*
X52629444Y57077177D01*
X52604838Y57110069D01*
X51541019Y56046250D01*
X52603509Y54983761D01*
X52629654Y55017225D01*
X52748952Y54879017D01*
X52950378Y54710001D01*
X53176234Y54575363D01*
X53420711Y54478568D01*
X53677520Y54422105D01*
X53940052Y54407428D01*
X54201554Y54434912D01*
X54455297Y54503853D01*
X54694754Y54612475D01*
X54913764Y54757985D01*
X55106693Y54936639D01*
X55169654Y55017225D01*
X55288952Y54879017D01*
X55490378Y54710001D01*
X55716234Y54575363D01*
X55960711Y54478568D01*
X56217520Y54422105D01*
X56480052Y54407428D01*
X56741554Y54434912D01*
X56889481Y54475103D01*
X56861608Y54343971D01*
X56840789Y54046250D01*
X56861608Y53748529D01*
X56923658Y53456604D01*
X57025734Y53176155D01*
X57165846Y52912641D01*
X57376052Y52623321D01*
X58798981Y54046250D01*
X59161019Y54046250D01*
X60577322Y52629947D01*
X60710658Y52788854D01*
X60868811Y53041951D01*
X60990200Y53314597D01*
X61072464Y53601483D01*
X61114000Y53897026D01*
X61114000Y54195474D01*
X61072464Y54491017D01*
X60990200Y54777903D01*
X60868811Y55050549D01*
X60710658Y55303646D01*
X60577322Y55462553D01*
X59161019Y54046250D01*
X58798981Y54046250D01*
X60409106Y55656375D01*
X60049606Y55898861D01*
X59781363Y56029691D01*
X59497522Y56121917D01*
X59203609Y56173742D01*
X58905343Y56184158D01*
X58608530Y56152961D01*
X58318948Y56080761D01*
X58072085Y55981021D01*
X58074138Y56177065D01*
X58031992Y56437280D01*
X57948994Y56686780D01*
X57827175Y56919800D01*
X57669666Y57130347D01*
X57480521Y57313001D01*
X57264606Y57463067D01*
X57027477Y57576679D01*
X56775233Y57650919D01*
X56757120Y57653207D01*
X56822163Y57718250D01*
X66992970Y57718250D01*
X67020377Y57712048D01*
X67120338Y57718250D01*
X67155400Y57718250D01*
X67182192Y57722087D01*
X67273105Y57727727D01*
X67306985Y57739959D01*
X67342657Y57745067D01*
X67425603Y57782780D01*
X67511643Y57813841D01*
X67539895Y57834746D01*
X67573166Y57849874D01*
X67651157Y57917076D01*
X67673584Y57933671D01*
X67693308Y57953395D01*
X67764992Y58015162D01*
X67783261Y58043348D01*
X68933806Y59193891D01*
X68860000Y59024958D01*
X68794608Y58770277D01*
X68770778Y58508416D01*
X68789120Y58246115D01*
X68849163Y57990120D01*
X68949362Y57747018D01*
X69087140Y57523063D01*
X69258952Y57324017D01*
X69460378Y57155001D01*
X69686234Y57020363D01*
X69930711Y56923568D01*
X70187520Y56867105D01*
X70450052Y56852428D01*
X70711554Y56879912D01*
X70897445Y56930418D01*
X70976002Y56851861D01*
X70976001Y55311006D01*
X70976002Y55311000D01*
X70976002Y55251036D01*
X70994689Y55193525D01*
X71004151Y55133782D01*
X71031610Y55079892D01*
X71050298Y55022375D01*
X71085847Y54973446D01*
X71113303Y54919560D01*
X71177376Y54855487D01*
X70997477Y54941679D01*
X70745233Y55015919D01*
X70484364Y55048875D01*
X70221582Y55039698D01*
X69963648Y54988625D01*
X69717197Y54896972D01*
X69488569Y54767093D01*
X69283649Y54602332D01*
X69107706Y54406929D01*
X68965269Y54185908D01*
X68860000Y53944958D01*
X68794608Y53690277D01*
X68770778Y53428416D01*
X68789120Y53166115D01*
X68849163Y52910120D01*
X68949362Y52667018D01*
X69087140Y52443063D01*
X69258952Y52244017D01*
X69276001Y52229711D01*
X69276000Y50675479D01*
X69300651Y50471769D01*
X69397670Y50215018D01*
X69553131Y49988819D01*
X69737523Y49824531D01*
X69717197Y49816972D01*
X69488570Y49687093D01*
X69348108Y49574161D01*
X70591020Y48331250D01*
X70410000Y48150230D01*
X69156927Y49403304D01*
X68965269Y49105908D01*
X68860000Y48864958D01*
X68794608Y48610277D01*
X68775013Y48394955D01*
X65879675Y51290291D01*
X65814362Y51365161D01*
X65726379Y51426997D01*
X65641753Y51493352D01*
X65614377Y51505713D01*
X65589803Y51522983D01*
X65489614Y51562046D01*
X65391599Y51606301D01*
X65362070Y51611773D01*
X65333771Y51622806D01*
X65235692Y51635196D01*
X65121725Y51656319D01*
X65016496Y51650251D01*
X47739718Y51650251D01*
X46943412Y52446557D01*
X47401326Y52446557D01*
X47623768Y52272764D01*
X47882231Y52123540D01*
X48158948Y52011739D01*
X48448530Y51939539D01*
X48745343Y51908342D01*
X49043609Y51918758D01*
X49337522Y51970583D01*
X49621363Y52062809D01*
X49889606Y52193639D01*
X50249106Y52436125D01*
X50238674Y52446557D01*
X57561326Y52446557D01*
X57783768Y52272764D01*
X58042231Y52123540D01*
X58318948Y52011739D01*
X58608530Y51939539D01*
X58905343Y51908342D01*
X59203609Y51918758D01*
X59497522Y51970583D01*
X59781363Y52062809D01*
X60049606Y52193639D01*
X60409106Y52436125D01*
X58980000Y53865231D01*
X57561326Y52446557D01*
X50238674Y52446557D01*
X48820000Y53865231D01*
X47401326Y52446557D01*
X46943412Y52446557D01*
X46007467Y53382500D01*
X46009138Y53542065D01*
X45966992Y53802280D01*
X45885834Y54046250D01*
X46680789Y54046250D01*
X46701608Y53748529D01*
X46763658Y53456604D01*
X46865734Y53176155D01*
X47005846Y52912641D01*
X47216052Y52623321D01*
X48638981Y54046250D01*
X47216052Y55469179D01*
X47005846Y55179859D01*
X46865734Y54916345D01*
X46763658Y54635896D01*
X46701608Y54343971D01*
X46680789Y54046250D01*
X45885834Y54046250D01*
X45883994Y54051780D01*
X45762175Y54284800D01*
X45604666Y54495347D01*
X45415521Y54678001D01*
X45199606Y54828067D01*
X44962477Y54941679D01*
X44710233Y55015919D01*
X44449364Y55048875D01*
X44186582Y55039698D01*
X43928648Y54988625D01*
X43682197Y54896972D01*
X43453569Y54767093D01*
X43248649Y54602332D01*
X43072706Y54406929D01*
X42930269Y54185908D01*
X42825000Y53944958D01*
X42759608Y53690277D01*
X42735778Y53428416D01*
X42754120Y53166115D01*
X42814163Y52910120D01*
X42914362Y52667018D01*
X43052140Y52443063D01*
X43223952Y52244017D01*
X43425378Y52075001D01*
X43651234Y51940363D01*
X43895711Y51843568D01*
X44152520Y51787105D01*
X44409812Y51772721D01*
X46440330Y49742203D01*
X46505636Y49667341D01*
X46537790Y49644742D01*
X46542770Y49639762D01*
X46704246Y49513148D01*
X46954398Y49400201D01*
X47224273Y49350182D01*
X47498287Y49365983D01*
X47551169Y49382251D01*
X61552163Y49382251D01*
X61552163Y49094250D01*
X64535837Y49094250D01*
X64535837Y49382251D01*
X64580282Y49382251D01*
X68172283Y45790250D01*
X67234000Y45790250D01*
X67234000Y46417711D01*
X67234583Y46513177D01*
X67221509Y46558922D01*
X67214764Y46606018D01*
X67196684Y46645783D01*
X67184677Y46687790D01*
X67159294Y46728021D01*
X67139598Y46771339D01*
X67111080Y46804434D01*
X67087773Y46841376D01*
X67052111Y46872872D01*
X67021053Y46908915D01*
X66984399Y46932672D01*
X66951654Y46961592D01*
X66908578Y46981816D01*
X66868661Y47007689D01*
X66826818Y47020202D01*
X66786911Y47038939D01*
X66741455Y47045732D01*
X66694672Y47059723D01*
X66645832Y47060022D01*
X66644306Y47060250D01*
X66608538Y47060250D01*
X66513073Y47060833D01*
X66511033Y47060250D01*
X45414751Y47060250D01*
X45444930Y47080301D01*
X44375000Y48150231D01*
X43296560Y47071791D01*
X43315920Y47060250D01*
X41834000Y47060250D01*
X41834000Y48348416D01*
X42735778Y48348416D01*
X42754120Y48086115D01*
X42814163Y47830120D01*
X42914362Y47587018D01*
X43118282Y47255551D01*
X44193981Y48331250D01*
X44556019Y48331250D01*
X45618509Y47268761D01*
X45743577Y47428840D01*
X45870250Y47659258D01*
X45958454Y47906964D01*
X46006040Y48166240D01*
X46009138Y48462065D01*
X45966992Y48722280D01*
X45928414Y48838250D01*
X61552163Y48838250D01*
X61552163Y48099662D01*
X61632795Y47798739D01*
X61780185Y47623085D01*
X61973814Y47511294D01*
X62182976Y47474413D01*
X62916000Y47474413D01*
X62916000Y48838250D01*
X63172000Y48838250D01*
X63172000Y47474413D01*
X63910588Y47474413D01*
X64211512Y47555045D01*
X64387165Y47702435D01*
X64498956Y47896064D01*
X64535837Y48105226D01*
X64535837Y48838250D01*
X63172000Y48838250D01*
X62916000Y48838250D01*
X61552163Y48838250D01*
X45928414Y48838250D01*
X45883994Y48971780D01*
X45762175Y49204800D01*
X45619838Y49395069D01*
X44556019Y48331250D01*
X44193981Y48331250D01*
X43121927Y49403304D01*
X42930269Y49105908D01*
X42825000Y48864958D01*
X42759608Y48610277D01*
X42735778Y48348416D01*
X41834000Y48348416D01*
X41834000Y49574161D01*
X43313108Y49574161D01*
X44375000Y48512269D01*
X45442194Y49579464D01*
X45199606Y49748067D01*
X44962477Y49861679D01*
X44710233Y49935919D01*
X44449364Y49968875D01*
X44186582Y49959698D01*
X43928648Y49908625D01*
X43682197Y49816972D01*
X43453570Y49687093D01*
X43313108Y49574161D01*
X41834000Y49574161D01*
X41834000Y55645943D01*
X47401326Y55645943D01*
X50417322Y52629947D01*
X50550658Y52788854D01*
X50708811Y53041951D01*
X50830200Y53314597D01*
X50912464Y53601483D01*
X50954000Y53897026D01*
X50954000Y54195474D01*
X50915282Y54470967D01*
X51137520Y54422105D01*
X51400052Y54407428D01*
X51661554Y54434912D01*
X51915297Y54503853D01*
X52154754Y54612475D01*
X52429930Y54795301D01*
X50106927Y57118304D01*
X49915269Y56820908D01*
X49810000Y56579958D01*
X49744608Y56325277D01*
X49720778Y56063416D01*
X49726730Y55978300D01*
X49621363Y56029691D01*
X49337522Y56121917D01*
X49043609Y56173742D01*
X48745343Y56184158D01*
X48448530Y56152961D01*
X48158948Y56080761D01*
X47882231Y55968960D01*
X47623768Y55819736D01*
X47401326Y55645943D01*
X41834000Y55645943D01*
X41834000Y85171791D01*
X43296560Y85171791D01*
X43651235Y84960363D01*
X43895711Y84863568D01*
X44152520Y84807105D01*
X44415052Y84792428D01*
X44676554Y84819912D01*
X44930297Y84888853D01*
X45169754Y84997475D01*
X45444930Y85180301D01*
X44375000Y86250231D01*
X43296560Y85171791D01*
X41834000Y85171791D01*
X41834000Y86448416D01*
X42735778Y86448416D01*
X42754120Y86186115D01*
X42814163Y85930120D01*
X42914362Y85687018D01*
X43118282Y85355551D01*
X44193981Y86431250D01*
X44556019Y86431250D01*
X45618509Y85368761D01*
X45743577Y85528840D01*
X45870250Y85759258D01*
X45958454Y86006964D01*
X46006040Y86266240D01*
X46007947Y86448416D01*
X68770778Y86448416D01*
X68789120Y86186115D01*
X68849163Y85930120D01*
X68949362Y85687018D01*
X69153282Y85355551D01*
X70228981Y86431250D01*
X69156927Y87503304D01*
X68965269Y87205908D01*
X68860000Y86964958D01*
X68794608Y86710277D01*
X68770778Y86448416D01*
X46007947Y86448416D01*
X46009138Y86562065D01*
X45966992Y86822280D01*
X45883994Y87071780D01*
X45762175Y87304800D01*
X45619838Y87495069D01*
X44556019Y86431250D01*
X44193981Y86431250D01*
X43121927Y87503304D01*
X42930269Y87205908D01*
X42825000Y86964958D01*
X42759608Y86710277D01*
X42735778Y86448416D01*
X41834000Y86448416D01*
X41834000Y87702250D01*
X43348044Y87702250D01*
X43313108Y87674161D01*
X44375000Y86612269D01*
X45436891Y87674161D01*
X69348108Y87674161D01*
X70410000Y86612269D01*
X71477194Y87679464D01*
X71234606Y87848067D01*
X70997477Y87961679D01*
X70745233Y88035919D01*
X70484364Y88068875D01*
X70221582Y88059698D01*
X69963648Y88008625D01*
X69717197Y87916972D01*
X69488570Y87787093D01*
X69348108Y87674161D01*
X45436891Y87674161D01*
X45442194Y87679464D01*
X45409409Y87702250D01*
X58971462Y87702250D01*
X59066927Y87701667D01*
X59112672Y87714741D01*
X59159768Y87721486D01*
X59199533Y87739566D01*
X59241540Y87751573D01*
X59281771Y87776956D01*
X59325089Y87796652D01*
X59358184Y87825170D01*
X59395126Y87848477D01*
X59426621Y87884139D01*
X59462664Y87915196D01*
X59486422Y87951851D01*
X59515342Y87984596D01*
X59535564Y88027666D01*
X59561439Y88067588D01*
X59573953Y88109433D01*
X59592689Y88149338D01*
X59599483Y88194796D01*
X59613473Y88241577D01*
X59613772Y88290418D01*
X59614000Y88291944D01*
X59614000Y88327711D01*
X59614583Y88423177D01*
X59614000Y88425217D01*
X59614000Y88972250D01*
X94057077Y88972250D01*
X99441000Y87359344D01*
G36*
X72067786Y48207250D02*
G01*
X73905613Y48207250D01*
X74411412Y47701450D01*
X74567309Y47545553D01*
X74621195Y47518097D01*
X74670124Y47482548D01*
X74727641Y47463860D01*
X74781531Y47436401D01*
X74841274Y47426939D01*
X74898785Y47408252D01*
X74958749Y47408252D01*
X74958755Y47408251D01*
X86445615Y47408251D01*
X87438605Y46415260D01*
X73886444Y46415260D01*
X73351795Y46949908D01*
X73337646Y46972333D01*
X73266799Y47034903D01*
X73243434Y47058269D01*
X73223016Y47073572D01*
X73158588Y47130472D01*
X73127817Y47144919D01*
X73100619Y47165303D01*
X73022723Y47194504D01*
X72952363Y47275160D01*
X72727805Y47432982D01*
X72471772Y47532805D01*
X72254527Y47560250D01*
X71850820Y47560250D01*
X71905250Y47659258D01*
X71993454Y47906964D01*
X72041040Y48166240D01*
X72041559Y48215772D01*
X72067786Y48207250D01*
G37*
X72067786Y48207250D02*
X73905613Y48207250D01*
X74411412Y47701450D01*
X74567309Y47545553D01*
X74621195Y47518097D01*
X74670124Y47482548D01*
X74727641Y47463860D01*
X74781531Y47436401D01*
X74841274Y47426939D01*
X74898785Y47408252D01*
X74958749Y47408252D01*
X74958755Y47408251D01*
X86445615Y47408251D01*
X87438605Y46415260D01*
X73886444Y46415260D01*
X73351795Y46949908D01*
X73337646Y46972333D01*
X73266799Y47034903D01*
X73243434Y47058269D01*
X73223016Y47073572D01*
X73158588Y47130472D01*
X73127817Y47144919D01*
X73100619Y47165303D01*
X73022723Y47194504D01*
X72952363Y47275160D01*
X72727805Y47432982D01*
X72471772Y47532805D01*
X72254527Y47560250D01*
X71850820Y47560250D01*
X71905250Y47659258D01*
X71993454Y47906964D01*
X72041040Y48166240D01*
X72041559Y48215772D01*
X72067786Y48207250D01*
G36*
X72041000Y53246007D02*
G01*
X72041001Y53246001D01*
X72041001Y53186037D01*
X72059688Y53128526D01*
X72069150Y53068783D01*
X72096609Y53014893D01*
X72115297Y52957376D01*
X72150846Y52908447D01*
X72178302Y52854561D01*
X72348657Y52684205D01*
X72348661Y52684203D01*
X75304862Y49727999D01*
X75304869Y49727993D01*
X75348310Y49684552D01*
X75402195Y49657097D01*
X75451125Y49621547D01*
X75508642Y49602858D01*
X75562533Y49575400D01*
X75622265Y49565940D01*
X75679786Y49547250D01*
X86732611Y49547250D01*
X86795308Y49484552D01*
X86849201Y49457092D01*
X86898125Y49421547D01*
X86955640Y49402859D01*
X87009531Y49375400D01*
X87069263Y49365940D01*
X87126784Y49347250D01*
X88285614Y49347250D01*
X89892414Y47740449D01*
X90048310Y47584552D01*
X90102196Y47557096D01*
X90151124Y47521547D01*
X90208648Y47502856D01*
X90262534Y47475400D01*
X90322267Y47465939D01*
X90379786Y47447250D01*
X93760244Y47447250D01*
X93760250Y47447251D01*
X93820213Y47447251D01*
X93877726Y47465938D01*
X93937468Y47475400D01*
X93991359Y47502860D01*
X94048873Y47521546D01*
X94097801Y47557094D01*
X94151690Y47584553D01*
X94322045Y47754907D01*
X94322046Y47754909D01*
X94839388Y48272250D01*
X94936128Y48272250D01*
X95199109Y48342716D01*
X95434891Y48478844D01*
X95515532Y48559486D01*
X99456419Y48627496D01*
X99687940Y48627496D01*
X99687946Y48627497D01*
X99747909Y48627497D01*
X99805422Y48646184D01*
X99865164Y48655646D01*
X99919055Y48683106D01*
X99976569Y48701792D01*
X100025497Y48737340D01*
X100079386Y48764799D01*
X100206000Y48891412D01*
X100206000Y48479157D01*
X100206001Y48479151D01*
X100206001Y48419187D01*
X100224688Y48361676D01*
X100234150Y48301933D01*
X100261609Y48248043D01*
X100280297Y48190526D01*
X100315846Y48141597D01*
X100343302Y48087711D01*
X100513657Y47917355D01*
X100513661Y47917353D01*
X100712354Y47718660D01*
X100712356Y47718656D01*
X100882711Y47548302D01*
X100936598Y47520844D01*
X100985526Y47485296D01*
X101043043Y47466608D01*
X101096933Y47439149D01*
X101156676Y47429687D01*
X101214187Y47411000D01*
X101274151Y47411000D01*
X101274157Y47410999D01*
X101286871Y47410999D01*
X101456618Y47241252D01*
X97410386Y47241252D01*
X96758046Y47893591D01*
X96758045Y47893593D01*
X96587690Y48063947D01*
X96533801Y48091406D01*
X96484873Y48126954D01*
X96427359Y48145640D01*
X96373468Y48173100D01*
X96313726Y48182562D01*
X96256213Y48201249D01*
X96196250Y48201249D01*
X96196244Y48201250D01*
X95381752Y48201250D01*
X95381746Y48201249D01*
X95321782Y48201249D01*
X95264271Y48182562D01*
X95204528Y48173100D01*
X95150638Y48145641D01*
X95093121Y48126953D01*
X95044192Y48091404D01*
X94990306Y48063948D01*
X94940527Y48014168D01*
X94168612Y47242252D01*
X88758387Y47242252D01*
X87382048Y48618590D01*
X87382046Y48618594D01*
X87211691Y48788948D01*
X87157802Y48816407D01*
X87108874Y48851955D01*
X87051360Y48870641D01*
X86997469Y48898101D01*
X86937727Y48907563D01*
X86880214Y48926250D01*
X86820251Y48926250D01*
X86820245Y48926251D01*
X75333387Y48926251D01*
X74842046Y49417591D01*
X74842045Y49417593D01*
X74671690Y49587947D01*
X74617801Y49615406D01*
X74568873Y49650954D01*
X74511359Y49669640D01*
X74457468Y49697100D01*
X74397726Y49706562D01*
X74340213Y49725249D01*
X74280250Y49725249D01*
X74280244Y49725250D01*
X72502389Y49725250D01*
X71544000Y50683637D01*
X71544000Y52234325D01*
X71616693Y52301639D01*
X71778577Y52508840D01*
X71905250Y52739258D01*
X71993454Y52986964D01*
X72041000Y53246022D01*
X72041000Y53246007D01*
G37*
X72041000Y53246007D02*
X72041001Y53246001D01*
X72041001Y53186037D01*
X72059688Y53128526D01*
X72069150Y53068783D01*
X72096609Y53014893D01*
X72115297Y52957376D01*
X72150846Y52908447D01*
X72178302Y52854561D01*
X72348657Y52684205D01*
X72348661Y52684203D01*
X75304862Y49727999D01*
X75304869Y49727993D01*
X75348310Y49684552D01*
X75402195Y49657097D01*
X75451125Y49621547D01*
X75508642Y49602858D01*
X75562533Y49575400D01*
X75622265Y49565940D01*
X75679786Y49547250D01*
X86732611Y49547250D01*
X86795308Y49484552D01*
X86849201Y49457092D01*
X86898125Y49421547D01*
X86955640Y49402859D01*
X87009531Y49375400D01*
X87069263Y49365940D01*
X87126784Y49347250D01*
X88285614Y49347250D01*
X89892414Y47740449D01*
X90048310Y47584552D01*
X90102196Y47557096D01*
X90151124Y47521547D01*
X90208648Y47502856D01*
X90262534Y47475400D01*
X90322267Y47465939D01*
X90379786Y47447250D01*
X93760244Y47447250D01*
X93760250Y47447251D01*
X93820213Y47447251D01*
X93877726Y47465938D01*
X93937468Y47475400D01*
X93991359Y47502860D01*
X94048873Y47521546D01*
X94097801Y47557094D01*
X94151690Y47584553D01*
X94322045Y47754907D01*
X94322046Y47754909D01*
X94839388Y48272250D01*
X94936128Y48272250D01*
X95199109Y48342716D01*
X95434891Y48478844D01*
X95515532Y48559486D01*
X99456419Y48627496D01*
X99687940Y48627496D01*
X99687946Y48627497D01*
X99747909Y48627497D01*
X99805422Y48646184D01*
X99865164Y48655646D01*
X99919055Y48683106D01*
X99976569Y48701792D01*
X100025497Y48737340D01*
X100079386Y48764799D01*
X100206000Y48891412D01*
X100206000Y48479157D01*
X100206001Y48479151D01*
X100206001Y48419187D01*
X100224688Y48361676D01*
X100234150Y48301933D01*
X100261609Y48248043D01*
X100280297Y48190526D01*
X100315846Y48141597D01*
X100343302Y48087711D01*
X100513657Y47917355D01*
X100513661Y47917353D01*
X100712354Y47718660D01*
X100712356Y47718656D01*
X100882711Y47548302D01*
X100936598Y47520844D01*
X100985526Y47485296D01*
X101043043Y47466608D01*
X101096933Y47439149D01*
X101156676Y47429687D01*
X101214187Y47411000D01*
X101274151Y47411000D01*
X101274157Y47410999D01*
X101286871Y47410999D01*
X101456618Y47241252D01*
X97410386Y47241252D01*
X96758046Y47893591D01*
X96758045Y47893593D01*
X96587690Y48063947D01*
X96533801Y48091406D01*
X96484873Y48126954D01*
X96427359Y48145640D01*
X96373468Y48173100D01*
X96313726Y48182562D01*
X96256213Y48201249D01*
X96196250Y48201249D01*
X96196244Y48201250D01*
X95381752Y48201250D01*
X95381746Y48201249D01*
X95321782Y48201249D01*
X95264271Y48182562D01*
X95204528Y48173100D01*
X95150638Y48145641D01*
X95093121Y48126953D01*
X95044192Y48091404D01*
X94990306Y48063948D01*
X94940527Y48014168D01*
X94168612Y47242252D01*
X88758387Y47242252D01*
X87382048Y48618590D01*
X87382046Y48618594D01*
X87211691Y48788948D01*
X87157802Y48816407D01*
X87108874Y48851955D01*
X87051360Y48870641D01*
X86997469Y48898101D01*
X86937727Y48907563D01*
X86880214Y48926250D01*
X86820251Y48926250D01*
X86820245Y48926251D01*
X75333387Y48926251D01*
X74842046Y49417591D01*
X74842045Y49417593D01*
X74671690Y49587947D01*
X74617801Y49615406D01*
X74568873Y49650954D01*
X74511359Y49669640D01*
X74457468Y49697100D01*
X74397726Y49706562D01*
X74340213Y49725249D01*
X74280250Y49725249D01*
X74280244Y49725250D01*
X72502389Y49725250D01*
X71544000Y50683637D01*
X71544000Y52234325D01*
X71616693Y52301639D01*
X71778577Y52508840D01*
X71905250Y52739258D01*
X71993454Y52986964D01*
X72041000Y53246022D01*
X72041000Y53246007D01*
G36*
X93695641Y77324582D02*
G01*
X93660776Y77082095D01*
X93660776Y76363871D01*
X93737655Y76010465D01*
X93877519Y75792831D01*
X94060058Y75634660D01*
X94045140Y75622942D01*
X93890814Y75445096D01*
X93772901Y75241277D01*
X93695656Y75018835D01*
X93671654Y74853250D01*
X96688489Y74853250D01*
X96622075Y75128828D01*
X96524615Y75343181D01*
X96388380Y75535238D01*
X96281275Y75637768D01*
X96382419Y75702769D01*
X96548809Y75894794D01*
X96654359Y76125918D01*
X96689224Y76368405D01*
X96689224Y77086629D01*
X96633399Y77343250D01*
X98481614Y77343250D01*
X99988414Y75836449D01*
X100144310Y75680552D01*
X100198196Y75653096D01*
X100247125Y75617547D01*
X100304642Y75598859D01*
X100358532Y75571400D01*
X100418275Y75561938D01*
X100475786Y75543251D01*
X100535750Y75543251D01*
X100535756Y75543250D01*
X103081614Y75543250D01*
X105288414Y73336449D01*
X105444310Y73180552D01*
X105498196Y73153096D01*
X105547125Y73117547D01*
X105604642Y73098859D01*
X105658532Y73071400D01*
X105718275Y73061938D01*
X105775786Y73043251D01*
X105835750Y73043251D01*
X105835756Y73043250D01*
X116148244Y73043250D01*
X116148250Y73043251D01*
X116208213Y73043251D01*
X116265726Y73061938D01*
X116325468Y73071400D01*
X116379359Y73098860D01*
X116410837Y73109087D01*
X116400609Y73077607D01*
X116373150Y73023717D01*
X116363688Y72963974D01*
X116345001Y72906463D01*
X116345001Y72846499D01*
X116345000Y72846493D01*
X116345001Y64702507D01*
X116345001Y64482037D01*
X116363690Y64424518D01*
X116373151Y64364783D01*
X116400608Y64310895D01*
X116419297Y64253375D01*
X116454849Y64204444D01*
X116482303Y64150560D01*
X116532082Y64100782D01*
X117241000Y63391863D01*
X117241001Y62820639D01*
X116701613Y62281250D01*
X114863786Y62281250D01*
X114806265Y62262560D01*
X114746533Y62253100D01*
X114692642Y62225642D01*
X114635125Y62206953D01*
X114586195Y62171403D01*
X114532310Y62143948D01*
X114488869Y62100507D01*
X114488862Y62100501D01*
X113633612Y61245249D01*
X112871755Y61245249D01*
X112871749Y61245248D01*
X112811785Y61245248D01*
X112754274Y61226561D01*
X112694531Y61217099D01*
X112640641Y61189640D01*
X112583124Y61170952D01*
X112534196Y61135404D01*
X112504456Y61120250D01*
X112395872Y61120250D01*
X112132891Y61049784D01*
X111897109Y60913656D01*
X111775256Y60791803D01*
X111669406Y60975141D01*
X111476891Y61167656D01*
X111241109Y61303784D01*
X110978128Y61374250D01*
X110705872Y61374250D01*
X110442891Y61303784D01*
X110207109Y61167656D01*
X110014594Y60975141D01*
X109878466Y60739359D01*
X109808000Y60476378D01*
X109808000Y60204122D01*
X109878466Y59941141D01*
X110014594Y59705359D01*
X110068660Y59651293D01*
X110032000Y59538464D01*
X110032000Y59298038D01*
X110083001Y59141072D01*
X110083001Y59033785D01*
X110101690Y58976266D01*
X110111151Y58916531D01*
X110138608Y58862643D01*
X110157297Y58805123D01*
X110192849Y58756192D01*
X110220303Y58702308D01*
X110612152Y58310460D01*
X110612154Y58310456D01*
X110782509Y58140102D01*
X110836396Y58112644D01*
X110885324Y58077096D01*
X110942841Y58058408D01*
X110996731Y58030949D01*
X111056474Y58021487D01*
X111113985Y58002800D01*
X111173949Y58002800D01*
X111173955Y58002799D01*
X115165612Y58002799D01*
X115700000Y57468410D01*
X115700001Y56346789D01*
X115578302Y56225089D01*
X115550846Y56171203D01*
X115515297Y56122274D01*
X115496609Y56064757D01*
X115469150Y56010867D01*
X115459688Y55951124D01*
X115441001Y55893613D01*
X115441001Y55833649D01*
X115441000Y55833643D01*
X115441000Y55035815D01*
X115441001Y50406507D01*
X115441001Y50186037D01*
X115459690Y50128518D01*
X115469151Y50068783D01*
X115496608Y50014895D01*
X115515297Y49957375D01*
X115550849Y49908444D01*
X115578303Y49854560D01*
X115628082Y49804782D01*
X116176919Y49255944D01*
X115965109Y49133656D01*
X115960717Y49129264D01*
X107545932Y49129264D01*
X107317837Y49357359D01*
X107317835Y49357363D01*
X107147480Y49527717D01*
X107093591Y49555176D01*
X107044663Y49590724D01*
X106987149Y49609410D01*
X106933258Y49636870D01*
X106873516Y49646332D01*
X106816003Y49665019D01*
X106756040Y49665019D01*
X106756034Y49665020D01*
X104190779Y49665020D01*
X103188656Y50667141D01*
X103188655Y50667143D01*
X103018300Y50837497D01*
X102964411Y50864956D01*
X102915483Y50900504D01*
X102857969Y50919190D01*
X102804078Y50946650D01*
X102744336Y50956112D01*
X102686823Y50974799D01*
X102662559Y50974799D01*
X102743165Y51042435D01*
X102854956Y51236064D01*
X102891837Y51445226D01*
X102891837Y53010625D01*
X105754892Y53010625D01*
X105770404Y52764060D01*
X105829334Y52524139D01*
X105929819Y52298446D01*
X106068684Y52094114D01*
X106241537Y51917601D01*
X106442916Y51774489D01*
X106666456Y51669299D01*
X106905090Y51605357D01*
X107151275Y51584684D01*
X107397232Y51607933D01*
X107635183Y51674372D01*
X107857609Y51781896D01*
X108057479Y51927110D01*
X108228474Y52105422D01*
X108365191Y52311197D01*
X108463307Y52537931D01*
X108520102Y52780076D01*
X108526139Y53010625D01*
X110634892Y53010625D01*
X110650404Y52764060D01*
X110709334Y52524139D01*
X110809819Y52298446D01*
X110948684Y52094114D01*
X111121537Y51917601D01*
X111322916Y51774489D01*
X111546456Y51669299D01*
X111785090Y51605357D01*
X112031275Y51584684D01*
X112277232Y51607933D01*
X112515183Y51674372D01*
X112737609Y51781896D01*
X112937479Y51927110D01*
X113108474Y52105422D01*
X113245191Y52311197D01*
X113343307Y52537931D01*
X113400102Y52780076D01*
X113408379Y53096138D01*
X113364334Y53340924D01*
X113278219Y53572482D01*
X113152459Y53785131D01*
X112991029Y53972148D01*
X112799034Y54127622D01*
X112582541Y54246641D01*
X112348392Y54325441D01*
X112103990Y54361531D01*
X111857060Y54353771D01*
X111615406Y54302406D01*
X111386667Y54209059D01*
X111178074Y54076682D01*
X110996220Y53909458D01*
X110846852Y53712673D01*
X110734693Y53492548D01*
X110663286Y53256040D01*
X110634892Y53010625D01*
X108526139Y53010625D01*
X108528379Y53096138D01*
X108484334Y53340924D01*
X108398219Y53572482D01*
X108272459Y53785131D01*
X108111029Y53972148D01*
X107919034Y54127622D01*
X107702541Y54246641D01*
X107468392Y54325441D01*
X107223990Y54361531D01*
X106977060Y54353771D01*
X106735406Y54302406D01*
X106506667Y54209059D01*
X106298074Y54076682D01*
X106116220Y53909458D01*
X105966852Y53712673D01*
X105854693Y53492548D01*
X105783286Y53256040D01*
X105754892Y53010625D01*
X102891837Y53010625D01*
X102891837Y53172838D01*
X102811205Y53473762D01*
X102663815Y53649415D01*
X102470186Y53761206D01*
X102424416Y53769277D01*
X102456807Y53796795D01*
X102618521Y53989859D01*
X102745393Y54207410D01*
X102833796Y54443228D01*
X102881318Y54691168D01*
X102884240Y54970276D01*
X102841922Y55219156D01*
X102758477Y55456774D01*
X102636188Y55676935D01*
X102478554Y55873343D01*
X102290080Y56040384D01*
X102076156Y56173281D01*
X101842899Y56268234D01*
X101596977Y56322529D01*
X101345424Y56334612D01*
X101095431Y56304137D01*
X100854147Y56231978D01*
X100628470Y56120197D01*
X100424854Y55971989D01*
X100249120Y55791594D01*
X100106293Y55584167D01*
X100000457Y55355641D01*
X99934639Y55112551D01*
X99910720Y54861846D01*
X99929384Y54610696D01*
X99990097Y54366280D01*
X100091123Y54135588D01*
X100229575Y53925217D01*
X100385384Y53758423D01*
X100232489Y53717455D01*
X100056835Y53570065D01*
X99945044Y53376436D01*
X99908163Y53167274D01*
X99908163Y51439662D01*
X99988795Y51138739D01*
X100136185Y50963085D01*
X100190380Y50931796D01*
X100165642Y50919191D01*
X100108125Y50900503D01*
X100059196Y50864954D01*
X100005310Y50837498D01*
X99311025Y50143212D01*
X95491255Y50077292D01*
X95434891Y50133656D01*
X95199109Y50269784D01*
X94936128Y50340250D01*
X94663872Y50340250D01*
X94400891Y50269784D01*
X94165109Y50133656D01*
X93972594Y49941141D01*
X93836466Y49705359D01*
X93766000Y49442378D01*
X93766000Y49345638D01*
X93385613Y48965250D01*
X90814387Y48965250D01*
X89222047Y50557589D01*
X89222045Y50557593D01*
X89051690Y50727947D01*
X88997801Y50755406D01*
X88948873Y50790954D01*
X88891359Y50809640D01*
X88837468Y50837100D01*
X88777726Y50846562D01*
X88720213Y50865249D01*
X88660250Y50865249D01*
X88660244Y50865250D01*
X87561385Y50865250D01*
X87498688Y50927947D01*
X87444799Y50955406D01*
X87395871Y50990954D01*
X87338357Y51009640D01*
X87284466Y51037100D01*
X87224724Y51046562D01*
X87167211Y51065249D01*
X87107248Y51065249D01*
X87107242Y51065250D01*
X76114388Y51065250D01*
X73559000Y53620636D01*
X73559000Y54366494D01*
X73558999Y54366500D01*
X73558999Y54426464D01*
X73540312Y54483975D01*
X73530850Y54543718D01*
X73503391Y54597608D01*
X73484703Y54655125D01*
X73449154Y54704054D01*
X73421698Y54757940D01*
X73265801Y54913836D01*
X72494001Y55685635D01*
X72494001Y57226493D01*
X72494000Y57226499D01*
X72494000Y57286463D01*
X72475313Y57343974D01*
X72465851Y57403717D01*
X72438392Y57457607D01*
X72419704Y57515124D01*
X72384155Y57564053D01*
X72356699Y57617939D01*
X71970929Y58003708D01*
X71993454Y58066964D01*
X72041040Y58326240D01*
X72044138Y58622065D01*
X72001992Y58882280D01*
X71918994Y59131780D01*
X71797175Y59364800D01*
X71639666Y59575347D01*
X71450521Y59758001D01*
X71234606Y59908067D01*
X70997477Y60021679D01*
X70745233Y60095919D01*
X70484364Y60128875D01*
X70221582Y60119698D01*
X69963648Y60068625D01*
X69717197Y59976972D01*
X69716479Y59976564D01*
X69809912Y60069997D01*
X69923360Y60221372D01*
X70012245Y60458473D01*
X70031011Y60710992D01*
X69978149Y60958628D01*
X69974000Y60966317D01*
X69974000Y62380882D01*
X69974416Y62380686D01*
X70014338Y62354811D01*
X70056183Y62342297D01*
X70096088Y62323561D01*
X70141546Y62316767D01*
X70188327Y62302777D01*
X70237168Y62302478D01*
X70238694Y62302250D01*
X70274461Y62302250D01*
X70369926Y62301667D01*
X70371966Y62302250D01*
X70607837Y62302250D01*
X70582580Y62183931D01*
X70576197Y61948037D01*
X70612909Y61714928D01*
X70691487Y61492414D01*
X70809299Y61287945D01*
X70962400Y61108371D01*
X71145661Y60959703D01*
X71352947Y60846922D01*
X71577315Y60773804D01*
X71811250Y60742798D01*
X72046919Y60754943D01*
X72276428Y60809831D01*
X72492090Y60905626D01*
X72686685Y61039116D01*
X72749936Y61102257D01*
X72925661Y60959703D01*
X73132947Y60846922D01*
X73357315Y60773804D01*
X73591250Y60742798D01*
X73826919Y60754943D01*
X74056428Y60809831D01*
X74272090Y60905626D01*
X74466685Y61039116D01*
X74529936Y61102257D01*
X74705661Y60959703D01*
X74912947Y60846922D01*
X75137315Y60773804D01*
X75371250Y60742798D01*
X75606919Y60754943D01*
X75836428Y60809831D01*
X76052090Y60905626D01*
X76246685Y61039116D01*
X76309936Y61102257D01*
X76485661Y60959703D01*
X76692947Y60846922D01*
X76917315Y60773804D01*
X77151250Y60742798D01*
X77386919Y60754943D01*
X77616428Y60809831D01*
X77832090Y60905626D01*
X78026685Y61039116D01*
X78089936Y61102257D01*
X78265661Y60959703D01*
X78472947Y60846922D01*
X78697315Y60773804D01*
X78931250Y60742798D01*
X79166919Y60754943D01*
X79396428Y60809831D01*
X79612090Y60905626D01*
X79806685Y61039116D01*
X79869936Y61102257D01*
X80045661Y60959703D01*
X80252947Y60846922D01*
X80477315Y60773804D01*
X80711250Y60742798D01*
X80946919Y60754943D01*
X81176428Y60809831D01*
X81392090Y60905626D01*
X81586685Y61039116D01*
X81649936Y61102257D01*
X81825661Y60959703D01*
X82032947Y60846922D01*
X82257315Y60773804D01*
X82491250Y60742798D01*
X82726919Y60754943D01*
X82956428Y60809831D01*
X83172090Y60905626D01*
X83366685Y61039116D01*
X83429936Y61102257D01*
X83605661Y60959703D01*
X83812947Y60846922D01*
X84037315Y60773804D01*
X84271250Y60742798D01*
X84506919Y60754943D01*
X84736428Y60809831D01*
X84952090Y60905626D01*
X85146685Y61039116D01*
X85313694Y61205834D01*
X85447526Y61400196D01*
X85543695Y61615692D01*
X85599375Y61846723D01*
X85607486Y62146482D01*
X85578756Y62302250D01*
X86784462Y62302250D01*
X86841001Y62301905D01*
X86841001Y60945755D01*
X86128935Y60275755D01*
X86119544Y60268932D01*
X86085481Y60234868D01*
X86050381Y60201841D01*
X86043280Y60192668D01*
X85423198Y59572585D01*
X85267302Y59416689D01*
X85239848Y59362805D01*
X85204296Y59313874D01*
X85185607Y59256354D01*
X85158150Y59202466D01*
X85148689Y59142731D01*
X85130000Y59085212D01*
X85130000Y59014815D01*
X85129999Y56837250D01*
X82158137Y56837250D01*
X82155306Y56840081D01*
X82155138Y56840203D01*
X78821166Y60170472D01*
X78735690Y60255948D01*
X78681610Y60283503D01*
X78632493Y60319148D01*
X78575166Y60337739D01*
X78521468Y60365100D01*
X78461516Y60374596D01*
X78403791Y60393316D01*
X78284482Y60393250D01*
X77463296Y60393250D01*
X77394891Y60461656D01*
X77159109Y60597784D01*
X76896128Y60668250D01*
X76623872Y60668250D01*
X76360891Y60597784D01*
X76125109Y60461656D01*
X75932594Y60269141D01*
X75796466Y60033359D01*
X75726000Y59770378D01*
X75726000Y59498122D01*
X75796466Y59235141D01*
X75932594Y58999359D01*
X76125109Y58806844D01*
X76360891Y58670716D01*
X76623872Y58600250D01*
X76896128Y58600250D01*
X77159109Y58670716D01*
X77394891Y58806844D01*
X77463296Y58875250D01*
X77969860Y58875250D01*
X81121737Y55726871D01*
X81216477Y55630147D01*
X81218308Y55626554D01*
X81300551Y55544312D01*
X81339569Y55504476D01*
X81342745Y55502118D01*
X81388310Y55456552D01*
X81438672Y55430891D01*
X81484048Y55397199D01*
X81545117Y55376655D01*
X81602533Y55347400D01*
X81658360Y55338558D01*
X81711925Y55320538D01*
X81719826Y55320456D01*
X81723539Y55319250D01*
X81836135Y55319250D01*
X81952338Y55318045D01*
X81956182Y55319250D01*
X85708704Y55319250D01*
X85777109Y55250844D01*
X86012891Y55114716D01*
X86275872Y55044250D01*
X86548128Y55044250D01*
X86811109Y55114716D01*
X87046891Y55250844D01*
X87229115Y55433068D01*
X87236785Y55429160D01*
X87285713Y55393611D01*
X87343237Y55374920D01*
X87397123Y55347464D01*
X87456856Y55338003D01*
X87514375Y55319314D01*
X90271377Y55319314D01*
X90339782Y55250908D01*
X90575564Y55114780D01*
X90838545Y55044314D01*
X91110801Y55044314D01*
X91373782Y55114780D01*
X91609564Y55250908D01*
X91802079Y55443423D01*
X91938207Y55679205D01*
X92008673Y55942186D01*
X92008673Y56214442D01*
X91938207Y56477423D01*
X91802079Y56713205D01*
X91609564Y56905720D01*
X91451100Y56997209D01*
X91431856Y57131582D01*
X91396118Y57210184D01*
X91401938Y57511803D01*
X91458386Y57568251D01*
X91525615Y57568251D01*
X91651569Y57442297D01*
X91687118Y57393368D01*
X91736044Y57357821D01*
X92982002Y56111861D01*
X92982001Y54069639D01*
X92701613Y53789250D01*
X91939756Y53789250D01*
X91939750Y53789249D01*
X91879787Y53789249D01*
X91822274Y53770562D01*
X91762532Y53761100D01*
X91708641Y53733640D01*
X91651127Y53714954D01*
X91602199Y53679406D01*
X91548310Y53651947D01*
X91505543Y53609180D01*
X91456617Y53573633D01*
X91421070Y53524707D01*
X91378303Y53481940D01*
X91350844Y53428051D01*
X91315296Y53379123D01*
X91296610Y53321609D01*
X91276045Y53281250D01*
X77098387Y53281250D01*
X75959000Y54420636D01*
X75959000Y58208779D01*
X75940311Y58266298D01*
X75930850Y58326031D01*
X75903394Y58379917D01*
X75884703Y58437441D01*
X75849154Y58486369D01*
X75821698Y58540255D01*
X75670772Y58691180D01*
X75691534Y58727141D01*
X75762000Y58990122D01*
X75762000Y59262378D01*
X75691534Y59525359D01*
X75555406Y59761141D01*
X75362891Y59953656D01*
X75127109Y60089784D01*
X74864128Y60160250D01*
X74591872Y60160250D01*
X74328891Y60089784D01*
X74093109Y59953656D01*
X73900594Y59761141D01*
X73764466Y59525359D01*
X73694000Y59262378D01*
X73694000Y58990122D01*
X73764466Y58727141D01*
X73900594Y58491359D01*
X73977375Y58414578D01*
X73987688Y58382839D01*
X73997150Y58323098D01*
X74024608Y58269207D01*
X74043297Y58211690D01*
X74078845Y58162764D01*
X74106303Y58108875D01*
X74156082Y58059097D01*
X74441000Y57774178D01*
X74441001Y54206507D01*
X74441001Y53986037D01*
X74459690Y53928518D01*
X74469151Y53868783D01*
X74496608Y53814895D01*
X74515297Y53757375D01*
X74550849Y53708444D01*
X74578303Y53654560D01*
X74628082Y53604782D01*
X76176414Y52056449D01*
X76332310Y51900552D01*
X76386196Y51873096D01*
X76435125Y51837547D01*
X76492642Y51818859D01*
X76546532Y51791400D01*
X76606275Y51781938D01*
X76663786Y51763251D01*
X76723750Y51763251D01*
X76723756Y51763250D01*
X90959855Y51763250D01*
X90959386Y51756942D01*
X90966001Y51725954D01*
X90966001Y51529722D01*
X90836466Y51305359D01*
X90766000Y51042378D01*
X90766000Y50770122D01*
X90836466Y50507141D01*
X90972594Y50271359D01*
X91165109Y50078844D01*
X91400891Y49942716D01*
X91663872Y49872250D01*
X91936128Y49872250D01*
X92199109Y49942716D01*
X92434891Y50078844D01*
X92627406Y50271359D01*
X92763534Y50507141D01*
X92834000Y50770122D01*
X92834000Y51042378D01*
X92763534Y51305359D01*
X92656299Y51491096D01*
X92656866Y51491663D01*
X92907109Y51558716D01*
X93142891Y51694844D01*
X93335406Y51887359D01*
X93471534Y52123141D01*
X93542000Y52386122D01*
X93542000Y52482863D01*
X93638045Y52578907D01*
X93638046Y52578909D01*
X94273551Y53214413D01*
X95866588Y53214413D01*
X96167512Y53295045D01*
X96343165Y53442435D01*
X96454956Y53636064D01*
X96463522Y53684646D01*
X96541493Y53601179D01*
X96741960Y53448740D01*
X96965246Y53332258D01*
X97204966Y53255060D01*
X97454266Y53219358D01*
X97706017Y53226170D01*
X97953022Y53275302D01*
X98188216Y53365349D01*
X98404877Y53493738D01*
X98596807Y53656795D01*
X98758521Y53849859D01*
X98885393Y54067410D01*
X98973796Y54303228D01*
X99021318Y54551168D01*
X99024240Y54830276D01*
X98981922Y55079156D01*
X98898477Y55316774D01*
X98776188Y55536935D01*
X98618554Y55733343D01*
X98430080Y55900384D01*
X98216156Y56033281D01*
X97982899Y56128234D01*
X97736977Y56182529D01*
X97485424Y56194612D01*
X97235431Y56164137D01*
X96994147Y56091978D01*
X96768470Y55980197D01*
X96564854Y55831989D01*
X96453129Y55717300D01*
X96411205Y55873762D01*
X96263815Y56049415D01*
X96070186Y56161206D01*
X95861024Y56198087D01*
X94500001Y56198087D01*
X94500001Y56546465D01*
X94481311Y56603986D01*
X94471851Y56663718D01*
X94444393Y56717609D01*
X94425704Y56775126D01*
X94390154Y56824056D01*
X94362699Y56877941D01*
X94319258Y56921382D01*
X94319252Y56921389D01*
X93398277Y57842363D01*
X93519914Y57964000D01*
X93633362Y58115375D01*
X93722246Y58352475D01*
X93738584Y58572316D01*
X94288519Y59122251D01*
X96308163Y59122251D01*
X96308163Y57839662D01*
X96388795Y57538739D01*
X96536185Y57363085D01*
X96729814Y57251294D01*
X96938976Y57214413D01*
X98666588Y57214413D01*
X98967512Y57295045D01*
X99143165Y57442435D01*
X99254956Y57636064D01*
X99291837Y57845226D01*
X99291837Y58869275D01*
X101178520Y56982592D01*
X101192669Y56960167D01*
X101263507Y56897605D01*
X101286881Y56874230D01*
X101307308Y56858921D01*
X101371726Y56802029D01*
X101402493Y56787583D01*
X101429695Y56767197D01*
X101510169Y56737029D01*
X101588329Y56700333D01*
X101621133Y56695431D01*
X101653386Y56683340D01*
X101750160Y56676148D01*
X101776241Y56672250D01*
X101776530Y56672250D01*
X102000891Y56542716D01*
X102263872Y56472250D01*
X102536128Y56472250D01*
X102799109Y56542716D01*
X103034891Y56678844D01*
X103227406Y56871359D01*
X103363534Y57107141D01*
X103434000Y57370122D01*
X103434000Y57642378D01*
X103363534Y57905359D01*
X103227406Y58141141D01*
X103034891Y58333656D01*
X102799109Y58469784D01*
X102536128Y58540250D01*
X102263872Y58540250D01*
X102039806Y58480212D01*
X100563767Y59956251D01*
X101844260Y61236744D01*
X101866682Y61250891D01*
X101929240Y61321724D01*
X101952620Y61345103D01*
X101967937Y61365539D01*
X102024821Y61429948D01*
X102039267Y61460715D01*
X102059653Y61487917D01*
X102089819Y61568387D01*
X102126517Y61646550D01*
X102131421Y61679362D01*
X102143509Y61711608D01*
X102150700Y61808363D01*
X102154600Y61834463D01*
X102154600Y61860854D01*
X102161214Y61949844D01*
X102154600Y61980828D01*
X102154600Y63613130D01*
X102284134Y63837491D01*
X102354600Y64100472D01*
X102354600Y64372728D01*
X102284134Y64635709D01*
X102148006Y64871491D01*
X101955491Y65064006D01*
X101719709Y65200134D01*
X101456728Y65270600D01*
X101184472Y65270600D01*
X100921491Y65200134D01*
X100685709Y65064006D01*
X100493194Y64871491D01*
X100357066Y64635709D01*
X100286600Y64372728D01*
X100286600Y64100472D01*
X100357066Y63837491D01*
X100486601Y63613129D01*
X100486600Y62237990D01*
X99038862Y60790251D01*
X95282143Y60790251D01*
X95291837Y60845226D01*
X95291837Y62572838D01*
X95211205Y62873762D01*
X95063815Y63049415D01*
X94870186Y63161206D01*
X94824416Y63169277D01*
X94856807Y63196795D01*
X95018521Y63389859D01*
X95145393Y63607410D01*
X95233796Y63843228D01*
X95281318Y64091168D01*
X95284240Y64370276D01*
X95241922Y64619156D01*
X95158477Y64856774D01*
X95036188Y65076935D01*
X94878554Y65273343D01*
X94690080Y65440384D01*
X94476156Y65573281D01*
X94242899Y65668234D01*
X93996977Y65722529D01*
X93745424Y65734612D01*
X93495431Y65704137D01*
X93254147Y65631978D01*
X93028470Y65520197D01*
X92824854Y65371989D01*
X92649120Y65191594D01*
X92506293Y64984167D01*
X92400457Y64755641D01*
X92334639Y64512551D01*
X92310720Y64261846D01*
X92329384Y64010696D01*
X92390097Y63766280D01*
X92491123Y63535588D01*
X92629575Y63325217D01*
X92785384Y63158423D01*
X92632489Y63117455D01*
X92456835Y62970065D01*
X92345044Y62776436D01*
X92308163Y62567274D01*
X92308163Y60839662D01*
X92388795Y60538739D01*
X92536185Y60363085D01*
X92729814Y60251294D01*
X92938976Y60214413D01*
X93021774Y60214413D01*
X92941769Y60134408D01*
X92924539Y60139561D01*
X92685651Y60141021D01*
X92455955Y60075374D01*
X92253917Y59947897D01*
X92095779Y59768838D01*
X91994084Y59552237D01*
X91966001Y59364325D01*
X91966001Y59231918D01*
X91960176Y59232350D01*
X91934078Y59236251D01*
X91907684Y59236251D01*
X91818694Y59242865D01*
X91787710Y59236251D01*
X91201427Y59236251D01*
X91175571Y59242102D01*
X91081272Y59236251D01*
X91048188Y59236251D01*
X91022894Y59232629D01*
X90937137Y59227309D01*
X90905172Y59215770D01*
X90871518Y59210950D01*
X90793270Y59175372D01*
X90712069Y59146058D01*
X90685409Y59126331D01*
X90654049Y59112072D01*
X90580544Y59048736D01*
X90559336Y59033042D01*
X90540693Y59014398D01*
X90473073Y58956133D01*
X90455839Y58929545D01*
X90056766Y58530471D01*
X90041071Y58520987D01*
X89971434Y58445138D01*
X89942654Y58416359D01*
X89932174Y58402376D01*
X89879508Y58345013D01*
X89860881Y58307251D01*
X89835620Y58273545D01*
X89808281Y58200614D01*
X89773653Y58130415D01*
X89766813Y58089996D01*
X89751765Y58049853D01*
X89745302Y57962887D01*
X89741950Y57943077D01*
X89741290Y57908900D01*
X89734060Y57811618D01*
X89738970Y57788621D01*
X89726746Y57155086D01*
X89720451Y57141680D01*
X89690674Y56942438D01*
X89690674Y56837314D01*
X87948977Y56837314D01*
X87648000Y57138290D01*
X87648000Y57235031D01*
X87577534Y57498012D01*
X87441406Y57733794D01*
X87248891Y57926309D01*
X87013109Y58062437D01*
X86750128Y58132903D01*
X86647999Y58132903D01*
X86647999Y58650612D01*
X87142523Y59145135D01*
X88041166Y59990689D01*
X88051688Y59996050D01*
X88128503Y60072866D01*
X88163619Y60105908D01*
X88170725Y60115087D01*
X88221698Y60166060D01*
X88243875Y60209585D01*
X88273771Y60248205D01*
X88298120Y60316047D01*
X88330850Y60380282D01*
X88338492Y60428530D01*
X88354991Y60474500D01*
X88357184Y60546553D01*
X88359000Y60558019D01*
X88359000Y60606224D01*
X88362305Y60714817D01*
X88359000Y60726151D01*
X88359000Y67202954D01*
X88427406Y67271359D01*
X88563534Y67507141D01*
X88634000Y67770122D01*
X88634000Y68042378D01*
X88563534Y68305359D01*
X88427406Y68541141D01*
X88234891Y68733656D01*
X87999109Y68869784D01*
X87736128Y68940250D01*
X87463872Y68940250D01*
X87427000Y68930370D01*
X87427000Y71817765D01*
X87427583Y71913177D01*
X87414509Y71958922D01*
X87407764Y72006018D01*
X87389684Y72045783D01*
X87377677Y72087790D01*
X87352294Y72128021D01*
X87332598Y72171339D01*
X87304080Y72204434D01*
X87280773Y72241376D01*
X87245111Y72272872D01*
X87214053Y72308915D01*
X87177399Y72332672D01*
X87144654Y72361592D01*
X87101578Y72381816D01*
X87061661Y72407689D01*
X87019818Y72420202D01*
X86979911Y72438939D01*
X86934455Y72445732D01*
X86887672Y72459723D01*
X86838832Y72460022D01*
X86837306Y72460250D01*
X86801538Y72460250D01*
X86706073Y72460833D01*
X86704033Y72460250D01*
X86468534Y72460250D01*
X86489375Y72546723D01*
X86497486Y72846482D01*
X86454382Y73080186D01*
X86370007Y73300568D01*
X86246882Y73501882D01*
X86233048Y73517274D01*
X88108163Y73517274D01*
X88108163Y71789662D01*
X88188795Y71488739D01*
X88336185Y71313085D01*
X88529814Y71201294D01*
X88738976Y71164413D01*
X90466588Y71164413D01*
X90767512Y71245045D01*
X90943165Y71392435D01*
X91054956Y71586064D01*
X91091837Y71795226D01*
X91091837Y73522838D01*
X91011205Y73823762D01*
X90863815Y73999415D01*
X90670186Y74111206D01*
X90461024Y74148087D01*
X88733412Y74148087D01*
X88432489Y74067455D01*
X88256835Y73920065D01*
X88145044Y73726436D01*
X88108163Y73517274D01*
X86233048Y73517274D01*
X86089133Y73677387D01*
X85902042Y73821208D01*
X85691876Y73928524D01*
X85465671Y73995744D01*
X85231004Y74020615D01*
X84995735Y74002306D01*
X84767741Y73941428D01*
X84554659Y73840022D01*
X84363627Y73701482D01*
X84324485Y73660307D01*
X84309133Y73677387D01*
X84122042Y73821208D01*
X83911876Y73928524D01*
X83685671Y73995744D01*
X83451004Y74020615D01*
X83215735Y74002306D01*
X82987741Y73941428D01*
X82774659Y73840022D01*
X82583627Y73701482D01*
X82544485Y73660307D01*
X82529133Y73677387D01*
X82342042Y73821208D01*
X82131876Y73928524D01*
X81905671Y73995744D01*
X81671004Y74020615D01*
X81435735Y74002306D01*
X81207741Y73941428D01*
X80994659Y73840022D01*
X80803627Y73701482D01*
X80764485Y73660307D01*
X80749133Y73677387D01*
X80562042Y73821208D01*
X80351876Y73928524D01*
X80125671Y73995744D01*
X79891004Y74020615D01*
X79655735Y74002306D01*
X79427741Y73941428D01*
X79214659Y73840022D01*
X79023627Y73701482D01*
X78984485Y73660307D01*
X78969133Y73677387D01*
X78782042Y73821208D01*
X78571876Y73928524D01*
X78345671Y73995744D01*
X78111004Y74020615D01*
X77875735Y74002306D01*
X77647741Y73941428D01*
X77434659Y73840022D01*
X77243627Y73701482D01*
X77204485Y73660307D01*
X77189133Y73677387D01*
X77002042Y73821208D01*
X76791876Y73928524D01*
X76565671Y73995744D01*
X76331004Y74020615D01*
X76095735Y74002306D01*
X75867741Y73941428D01*
X75654659Y73840022D01*
X75463627Y73701482D01*
X75424485Y73660307D01*
X75409133Y73677387D01*
X75222042Y73821208D01*
X75011876Y73928524D01*
X74785671Y73995744D01*
X74551004Y74020615D01*
X74315735Y74002306D01*
X74087741Y73941428D01*
X73874659Y73840022D01*
X73834429Y73810847D01*
X73855936Y73829378D01*
X73873172Y73855969D01*
X74614453Y74597250D01*
X93661511Y74597250D01*
X93727925Y74321672D01*
X93825385Y74107319D01*
X93961620Y73915262D01*
X94131715Y73752432D01*
X94174675Y73724693D01*
X94045140Y73622942D01*
X93890814Y73445096D01*
X93772901Y73241277D01*
X93695657Y73018837D01*
X93661869Y72785805D01*
X93672756Y72550587D01*
X93727925Y72321672D01*
X93825385Y72107319D01*
X93961620Y71915262D01*
X94131715Y71752432D01*
X94174675Y71724693D01*
X94045140Y71622942D01*
X93890814Y71445096D01*
X93772901Y71241277D01*
X93695657Y71018837D01*
X93661869Y70785805D01*
X93672756Y70550587D01*
X93727925Y70321672D01*
X93825385Y70107319D01*
X93961620Y69915262D01*
X94131715Y69752432D01*
X94174675Y69724693D01*
X94045140Y69622942D01*
X93890814Y69445096D01*
X93772901Y69241277D01*
X93695657Y69018837D01*
X93661869Y68785805D01*
X93672756Y68550587D01*
X93727925Y68321672D01*
X93825385Y68107319D01*
X93961620Y67915262D01*
X94131715Y67752432D01*
X94329532Y67624704D01*
X94550820Y67535522D01*
X94856159Y67491250D01*
X95508811Y67491250D01*
X95684405Y67508003D01*
X95910352Y67574289D01*
X96119688Y67682104D01*
X96304860Y67827558D01*
X96459186Y68005404D01*
X96577099Y68209223D01*
X96654343Y68431663D01*
X96688131Y68664695D01*
X96677244Y68899913D01*
X96622075Y69128828D01*
X96524615Y69343181D01*
X96388380Y69535238D01*
X96218285Y69698068D01*
X96175325Y69725807D01*
X96304860Y69827558D01*
X96459186Y70005404D01*
X96577099Y70209223D01*
X96654343Y70431663D01*
X96688131Y70664695D01*
X96677244Y70899913D01*
X96622075Y71128828D01*
X96524615Y71343181D01*
X96388380Y71535238D01*
X96218285Y71698068D01*
X96175325Y71725807D01*
X96304860Y71827558D01*
X96459186Y72005404D01*
X96577099Y72209223D01*
X96654343Y72431663D01*
X96688131Y72664695D01*
X96677244Y72899913D01*
X96622075Y73128828D01*
X96524615Y73343181D01*
X96388380Y73535238D01*
X96218285Y73698068D01*
X96175325Y73725807D01*
X96304860Y73827558D01*
X96459186Y74005404D01*
X96577099Y74209223D01*
X96654344Y74431665D01*
X96678346Y74597250D01*
X93661511Y74597250D01*
X74614453Y74597250D01*
X77360453Y77343250D01*
X93704166Y77343250D01*
X93695641Y77324582D01*
G37*
X93695641Y77324582D02*
X93660776Y77082095D01*
X93660776Y76363871D01*
X93737655Y76010465D01*
X93877519Y75792831D01*
X94060058Y75634660D01*
X94045140Y75622942D01*
X93890814Y75445096D01*
X93772901Y75241277D01*
X93695656Y75018835D01*
X93671654Y74853250D01*
X96688489Y74853250D01*
X96622075Y75128828D01*
X96524615Y75343181D01*
X96388380Y75535238D01*
X96281275Y75637768D01*
X96382419Y75702769D01*
X96548809Y75894794D01*
X96654359Y76125918D01*
X96689224Y76368405D01*
X96689224Y77086629D01*
X96633399Y77343250D01*
X98481614Y77343250D01*
X99988414Y75836449D01*
X100144310Y75680552D01*
X100198196Y75653096D01*
X100247125Y75617547D01*
X100304642Y75598859D01*
X100358532Y75571400D01*
X100418275Y75561938D01*
X100475786Y75543251D01*
X100535750Y75543251D01*
X100535756Y75543250D01*
X103081614Y75543250D01*
X105288414Y73336449D01*
X105444310Y73180552D01*
X105498196Y73153096D01*
X105547125Y73117547D01*
X105604642Y73098859D01*
X105658532Y73071400D01*
X105718275Y73061938D01*
X105775786Y73043251D01*
X105835750Y73043251D01*
X105835756Y73043250D01*
X116148244Y73043250D01*
X116148250Y73043251D01*
X116208213Y73043251D01*
X116265726Y73061938D01*
X116325468Y73071400D01*
X116379359Y73098860D01*
X116410837Y73109087D01*
X116400609Y73077607D01*
X116373150Y73023717D01*
X116363688Y72963974D01*
X116345001Y72906463D01*
X116345001Y72846499D01*
X116345000Y72846493D01*
X116345001Y64702507D01*
X116345001Y64482037D01*
X116363690Y64424518D01*
X116373151Y64364783D01*
X116400608Y64310895D01*
X116419297Y64253375D01*
X116454849Y64204444D01*
X116482303Y64150560D01*
X116532082Y64100782D01*
X117241000Y63391863D01*
X117241001Y62820639D01*
X116701613Y62281250D01*
X114863786Y62281250D01*
X114806265Y62262560D01*
X114746533Y62253100D01*
X114692642Y62225642D01*
X114635125Y62206953D01*
X114586195Y62171403D01*
X114532310Y62143948D01*
X114488869Y62100507D01*
X114488862Y62100501D01*
X113633612Y61245249D01*
X112871755Y61245249D01*
X112871749Y61245248D01*
X112811785Y61245248D01*
X112754274Y61226561D01*
X112694531Y61217099D01*
X112640641Y61189640D01*
X112583124Y61170952D01*
X112534196Y61135404D01*
X112504456Y61120250D01*
X112395872Y61120250D01*
X112132891Y61049784D01*
X111897109Y60913656D01*
X111775256Y60791803D01*
X111669406Y60975141D01*
X111476891Y61167656D01*
X111241109Y61303784D01*
X110978128Y61374250D01*
X110705872Y61374250D01*
X110442891Y61303784D01*
X110207109Y61167656D01*
X110014594Y60975141D01*
X109878466Y60739359D01*
X109808000Y60476378D01*
X109808000Y60204122D01*
X109878466Y59941141D01*
X110014594Y59705359D01*
X110068660Y59651293D01*
X110032000Y59538464D01*
X110032000Y59298038D01*
X110083001Y59141072D01*
X110083001Y59033785D01*
X110101690Y58976266D01*
X110111151Y58916531D01*
X110138608Y58862643D01*
X110157297Y58805123D01*
X110192849Y58756192D01*
X110220303Y58702308D01*
X110612152Y58310460D01*
X110612154Y58310456D01*
X110782509Y58140102D01*
X110836396Y58112644D01*
X110885324Y58077096D01*
X110942841Y58058408D01*
X110996731Y58030949D01*
X111056474Y58021487D01*
X111113985Y58002800D01*
X111173949Y58002800D01*
X111173955Y58002799D01*
X115165612Y58002799D01*
X115700000Y57468410D01*
X115700001Y56346789D01*
X115578302Y56225089D01*
X115550846Y56171203D01*
X115515297Y56122274D01*
X115496609Y56064757D01*
X115469150Y56010867D01*
X115459688Y55951124D01*
X115441001Y55893613D01*
X115441001Y55833649D01*
X115441000Y55833643D01*
X115441000Y55035815D01*
X115441001Y50406507D01*
X115441001Y50186037D01*
X115459690Y50128518D01*
X115469151Y50068783D01*
X115496608Y50014895D01*
X115515297Y49957375D01*
X115550849Y49908444D01*
X115578303Y49854560D01*
X115628082Y49804782D01*
X116176919Y49255944D01*
X115965109Y49133656D01*
X115960717Y49129264D01*
X107545932Y49129264D01*
X107317837Y49357359D01*
X107317835Y49357363D01*
X107147480Y49527717D01*
X107093591Y49555176D01*
X107044663Y49590724D01*
X106987149Y49609410D01*
X106933258Y49636870D01*
X106873516Y49646332D01*
X106816003Y49665019D01*
X106756040Y49665019D01*
X106756034Y49665020D01*
X104190779Y49665020D01*
X103188656Y50667141D01*
X103188655Y50667143D01*
X103018300Y50837497D01*
X102964411Y50864956D01*
X102915483Y50900504D01*
X102857969Y50919190D01*
X102804078Y50946650D01*
X102744336Y50956112D01*
X102686823Y50974799D01*
X102662559Y50974799D01*
X102743165Y51042435D01*
X102854956Y51236064D01*
X102891837Y51445226D01*
X102891837Y53010625D01*
X105754892Y53010625D01*
X105770404Y52764060D01*
X105829334Y52524139D01*
X105929819Y52298446D01*
X106068684Y52094114D01*
X106241537Y51917601D01*
X106442916Y51774489D01*
X106666456Y51669299D01*
X106905090Y51605357D01*
X107151275Y51584684D01*
X107397232Y51607933D01*
X107635183Y51674372D01*
X107857609Y51781896D01*
X108057479Y51927110D01*
X108228474Y52105422D01*
X108365191Y52311197D01*
X108463307Y52537931D01*
X108520102Y52780076D01*
X108526139Y53010625D01*
X110634892Y53010625D01*
X110650404Y52764060D01*
X110709334Y52524139D01*
X110809819Y52298446D01*
X110948684Y52094114D01*
X111121537Y51917601D01*
X111322916Y51774489D01*
X111546456Y51669299D01*
X111785090Y51605357D01*
X112031275Y51584684D01*
X112277232Y51607933D01*
X112515183Y51674372D01*
X112737609Y51781896D01*
X112937479Y51927110D01*
X113108474Y52105422D01*
X113245191Y52311197D01*
X113343307Y52537931D01*
X113400102Y52780076D01*
X113408379Y53096138D01*
X113364334Y53340924D01*
X113278219Y53572482D01*
X113152459Y53785131D01*
X112991029Y53972148D01*
X112799034Y54127622D01*
X112582541Y54246641D01*
X112348392Y54325441D01*
X112103990Y54361531D01*
X111857060Y54353771D01*
X111615406Y54302406D01*
X111386667Y54209059D01*
X111178074Y54076682D01*
X110996220Y53909458D01*
X110846852Y53712673D01*
X110734693Y53492548D01*
X110663286Y53256040D01*
X110634892Y53010625D01*
X108526139Y53010625D01*
X108528379Y53096138D01*
X108484334Y53340924D01*
X108398219Y53572482D01*
X108272459Y53785131D01*
X108111029Y53972148D01*
X107919034Y54127622D01*
X107702541Y54246641D01*
X107468392Y54325441D01*
X107223990Y54361531D01*
X106977060Y54353771D01*
X106735406Y54302406D01*
X106506667Y54209059D01*
X106298074Y54076682D01*
X106116220Y53909458D01*
X105966852Y53712673D01*
X105854693Y53492548D01*
X105783286Y53256040D01*
X105754892Y53010625D01*
X102891837Y53010625D01*
X102891837Y53172838D01*
X102811205Y53473762D01*
X102663815Y53649415D01*
X102470186Y53761206D01*
X102424416Y53769277D01*
X102456807Y53796795D01*
X102618521Y53989859D01*
X102745393Y54207410D01*
X102833796Y54443228D01*
X102881318Y54691168D01*
X102884240Y54970276D01*
X102841922Y55219156D01*
X102758477Y55456774D01*
X102636188Y55676935D01*
X102478554Y55873343D01*
X102290080Y56040384D01*
X102076156Y56173281D01*
X101842899Y56268234D01*
X101596977Y56322529D01*
X101345424Y56334612D01*
X101095431Y56304137D01*
X100854147Y56231978D01*
X100628470Y56120197D01*
X100424854Y55971989D01*
X100249120Y55791594D01*
X100106293Y55584167D01*
X100000457Y55355641D01*
X99934639Y55112551D01*
X99910720Y54861846D01*
X99929384Y54610696D01*
X99990097Y54366280D01*
X100091123Y54135588D01*
X100229575Y53925217D01*
X100385384Y53758423D01*
X100232489Y53717455D01*
X100056835Y53570065D01*
X99945044Y53376436D01*
X99908163Y53167274D01*
X99908163Y51439662D01*
X99988795Y51138739D01*
X100136185Y50963085D01*
X100190380Y50931796D01*
X100165642Y50919191D01*
X100108125Y50900503D01*
X100059196Y50864954D01*
X100005310Y50837498D01*
X99311025Y50143212D01*
X95491255Y50077292D01*
X95434891Y50133656D01*
X95199109Y50269784D01*
X94936128Y50340250D01*
X94663872Y50340250D01*
X94400891Y50269784D01*
X94165109Y50133656D01*
X93972594Y49941141D01*
X93836466Y49705359D01*
X93766000Y49442378D01*
X93766000Y49345638D01*
X93385613Y48965250D01*
X90814387Y48965250D01*
X89222047Y50557589D01*
X89222045Y50557593D01*
X89051690Y50727947D01*
X88997801Y50755406D01*
X88948873Y50790954D01*
X88891359Y50809640D01*
X88837468Y50837100D01*
X88777726Y50846562D01*
X88720213Y50865249D01*
X88660250Y50865249D01*
X88660244Y50865250D01*
X87561385Y50865250D01*
X87498688Y50927947D01*
X87444799Y50955406D01*
X87395871Y50990954D01*
X87338357Y51009640D01*
X87284466Y51037100D01*
X87224724Y51046562D01*
X87167211Y51065249D01*
X87107248Y51065249D01*
X87107242Y51065250D01*
X76114388Y51065250D01*
X73559000Y53620636D01*
X73559000Y54366494D01*
X73558999Y54366500D01*
X73558999Y54426464D01*
X73540312Y54483975D01*
X73530850Y54543718D01*
X73503391Y54597608D01*
X73484703Y54655125D01*
X73449154Y54704054D01*
X73421698Y54757940D01*
X73265801Y54913836D01*
X72494001Y55685635D01*
X72494001Y57226493D01*
X72494000Y57226499D01*
X72494000Y57286463D01*
X72475313Y57343974D01*
X72465851Y57403717D01*
X72438392Y57457607D01*
X72419704Y57515124D01*
X72384155Y57564053D01*
X72356699Y57617939D01*
X71970929Y58003708D01*
X71993454Y58066964D01*
X72041040Y58326240D01*
X72044138Y58622065D01*
X72001992Y58882280D01*
X71918994Y59131780D01*
X71797175Y59364800D01*
X71639666Y59575347D01*
X71450521Y59758001D01*
X71234606Y59908067D01*
X70997477Y60021679D01*
X70745233Y60095919D01*
X70484364Y60128875D01*
X70221582Y60119698D01*
X69963648Y60068625D01*
X69717197Y59976972D01*
X69716479Y59976564D01*
X69809912Y60069997D01*
X69923360Y60221372D01*
X70012245Y60458473D01*
X70031011Y60710992D01*
X69978149Y60958628D01*
X69974000Y60966317D01*
X69974000Y62380882D01*
X69974416Y62380686D01*
X70014338Y62354811D01*
X70056183Y62342297D01*
X70096088Y62323561D01*
X70141546Y62316767D01*
X70188327Y62302777D01*
X70237168Y62302478D01*
X70238694Y62302250D01*
X70274461Y62302250D01*
X70369926Y62301667D01*
X70371966Y62302250D01*
X70607837Y62302250D01*
X70582580Y62183931D01*
X70576197Y61948037D01*
X70612909Y61714928D01*
X70691487Y61492414D01*
X70809299Y61287945D01*
X70962400Y61108371D01*
X71145661Y60959703D01*
X71352947Y60846922D01*
X71577315Y60773804D01*
X71811250Y60742798D01*
X72046919Y60754943D01*
X72276428Y60809831D01*
X72492090Y60905626D01*
X72686685Y61039116D01*
X72749936Y61102257D01*
X72925661Y60959703D01*
X73132947Y60846922D01*
X73357315Y60773804D01*
X73591250Y60742798D01*
X73826919Y60754943D01*
X74056428Y60809831D01*
X74272090Y60905626D01*
X74466685Y61039116D01*
X74529936Y61102257D01*
X74705661Y60959703D01*
X74912947Y60846922D01*
X75137315Y60773804D01*
X75371250Y60742798D01*
X75606919Y60754943D01*
X75836428Y60809831D01*
X76052090Y60905626D01*
X76246685Y61039116D01*
X76309936Y61102257D01*
X76485661Y60959703D01*
X76692947Y60846922D01*
X76917315Y60773804D01*
X77151250Y60742798D01*
X77386919Y60754943D01*
X77616428Y60809831D01*
X77832090Y60905626D01*
X78026685Y61039116D01*
X78089936Y61102257D01*
X78265661Y60959703D01*
X78472947Y60846922D01*
X78697315Y60773804D01*
X78931250Y60742798D01*
X79166919Y60754943D01*
X79396428Y60809831D01*
X79612090Y60905626D01*
X79806685Y61039116D01*
X79869936Y61102257D01*
X80045661Y60959703D01*
X80252947Y60846922D01*
X80477315Y60773804D01*
X80711250Y60742798D01*
X80946919Y60754943D01*
X81176428Y60809831D01*
X81392090Y60905626D01*
X81586685Y61039116D01*
X81649936Y61102257D01*
X81825661Y60959703D01*
X82032947Y60846922D01*
X82257315Y60773804D01*
X82491250Y60742798D01*
X82726919Y60754943D01*
X82956428Y60809831D01*
X83172090Y60905626D01*
X83366685Y61039116D01*
X83429936Y61102257D01*
X83605661Y60959703D01*
X83812947Y60846922D01*
X84037315Y60773804D01*
X84271250Y60742798D01*
X84506919Y60754943D01*
X84736428Y60809831D01*
X84952090Y60905626D01*
X85146685Y61039116D01*
X85313694Y61205834D01*
X85447526Y61400196D01*
X85543695Y61615692D01*
X85599375Y61846723D01*
X85607486Y62146482D01*
X85578756Y62302250D01*
X86784462Y62302250D01*
X86841001Y62301905D01*
X86841001Y60945755D01*
X86128935Y60275755D01*
X86119544Y60268932D01*
X86085481Y60234868D01*
X86050381Y60201841D01*
X86043280Y60192668D01*
X85423198Y59572585D01*
X85267302Y59416689D01*
X85239848Y59362805D01*
X85204296Y59313874D01*
X85185607Y59256354D01*
X85158150Y59202466D01*
X85148689Y59142731D01*
X85130000Y59085212D01*
X85130000Y59014815D01*
X85129999Y56837250D01*
X82158137Y56837250D01*
X82155306Y56840081D01*
X82155138Y56840203D01*
X78821166Y60170472D01*
X78735690Y60255948D01*
X78681610Y60283503D01*
X78632493Y60319148D01*
X78575166Y60337739D01*
X78521468Y60365100D01*
X78461516Y60374596D01*
X78403791Y60393316D01*
X78284482Y60393250D01*
X77463296Y60393250D01*
X77394891Y60461656D01*
X77159109Y60597784D01*
X76896128Y60668250D01*
X76623872Y60668250D01*
X76360891Y60597784D01*
X76125109Y60461656D01*
X75932594Y60269141D01*
X75796466Y60033359D01*
X75726000Y59770378D01*
X75726000Y59498122D01*
X75796466Y59235141D01*
X75932594Y58999359D01*
X76125109Y58806844D01*
X76360891Y58670716D01*
X76623872Y58600250D01*
X76896128Y58600250D01*
X77159109Y58670716D01*
X77394891Y58806844D01*
X77463296Y58875250D01*
X77969860Y58875250D01*
X81121737Y55726871D01*
X81216477Y55630147D01*
X81218308Y55626554D01*
X81300551Y55544312D01*
X81339569Y55504476D01*
X81342745Y55502118D01*
X81388310Y55456552D01*
X81438672Y55430891D01*
X81484048Y55397199D01*
X81545117Y55376655D01*
X81602533Y55347400D01*
X81658360Y55338558D01*
X81711925Y55320538D01*
X81719826Y55320456D01*
X81723539Y55319250D01*
X81836135Y55319250D01*
X81952338Y55318045D01*
X81956182Y55319250D01*
X85708704Y55319250D01*
X85777109Y55250844D01*
X86012891Y55114716D01*
X86275872Y55044250D01*
X86548128Y55044250D01*
X86811109Y55114716D01*
X87046891Y55250844D01*
X87229115Y55433068D01*
X87236785Y55429160D01*
X87285713Y55393611D01*
X87343237Y55374920D01*
X87397123Y55347464D01*
X87456856Y55338003D01*
X87514375Y55319314D01*
X90271377Y55319314D01*
X90339782Y55250908D01*
X90575564Y55114780D01*
X90838545Y55044314D01*
X91110801Y55044314D01*
X91373782Y55114780D01*
X91609564Y55250908D01*
X91802079Y55443423D01*
X91938207Y55679205D01*
X92008673Y55942186D01*
X92008673Y56214442D01*
X91938207Y56477423D01*
X91802079Y56713205D01*
X91609564Y56905720D01*
X91451100Y56997209D01*
X91431856Y57131582D01*
X91396118Y57210184D01*
X91401938Y57511803D01*
X91458386Y57568251D01*
X91525615Y57568251D01*
X91651569Y57442297D01*
X91687118Y57393368D01*
X91736044Y57357821D01*
X92982002Y56111861D01*
X92982001Y54069639D01*
X92701613Y53789250D01*
X91939756Y53789250D01*
X91939750Y53789249D01*
X91879787Y53789249D01*
X91822274Y53770562D01*
X91762532Y53761100D01*
X91708641Y53733640D01*
X91651127Y53714954D01*
X91602199Y53679406D01*
X91548310Y53651947D01*
X91505543Y53609180D01*
X91456617Y53573633D01*
X91421070Y53524707D01*
X91378303Y53481940D01*
X91350844Y53428051D01*
X91315296Y53379123D01*
X91296610Y53321609D01*
X91276045Y53281250D01*
X77098387Y53281250D01*
X75959000Y54420636D01*
X75959000Y58208779D01*
X75940311Y58266298D01*
X75930850Y58326031D01*
X75903394Y58379917D01*
X75884703Y58437441D01*
X75849154Y58486369D01*
X75821698Y58540255D01*
X75670772Y58691180D01*
X75691534Y58727141D01*
X75762000Y58990122D01*
X75762000Y59262378D01*
X75691534Y59525359D01*
X75555406Y59761141D01*
X75362891Y59953656D01*
X75127109Y60089784D01*
X74864128Y60160250D01*
X74591872Y60160250D01*
X74328891Y60089784D01*
X74093109Y59953656D01*
X73900594Y59761141D01*
X73764466Y59525359D01*
X73694000Y59262378D01*
X73694000Y58990122D01*
X73764466Y58727141D01*
X73900594Y58491359D01*
X73977375Y58414578D01*
X73987688Y58382839D01*
X73997150Y58323098D01*
X74024608Y58269207D01*
X74043297Y58211690D01*
X74078845Y58162764D01*
X74106303Y58108875D01*
X74156082Y58059097D01*
X74441000Y57774178D01*
X74441001Y54206507D01*
X74441001Y53986037D01*
X74459690Y53928518D01*
X74469151Y53868783D01*
X74496608Y53814895D01*
X74515297Y53757375D01*
X74550849Y53708444D01*
X74578303Y53654560D01*
X74628082Y53604782D01*
X76176414Y52056449D01*
X76332310Y51900552D01*
X76386196Y51873096D01*
X76435125Y51837547D01*
X76492642Y51818859D01*
X76546532Y51791400D01*
X76606275Y51781938D01*
X76663786Y51763251D01*
X76723750Y51763251D01*
X76723756Y51763250D01*
X90959855Y51763250D01*
X90959386Y51756942D01*
X90966001Y51725954D01*
X90966001Y51529722D01*
X90836466Y51305359D01*
X90766000Y51042378D01*
X90766000Y50770122D01*
X90836466Y50507141D01*
X90972594Y50271359D01*
X91165109Y50078844D01*
X91400891Y49942716D01*
X91663872Y49872250D01*
X91936128Y49872250D01*
X92199109Y49942716D01*
X92434891Y50078844D01*
X92627406Y50271359D01*
X92763534Y50507141D01*
X92834000Y50770122D01*
X92834000Y51042378D01*
X92763534Y51305359D01*
X92656299Y51491096D01*
X92656866Y51491663D01*
X92907109Y51558716D01*
X93142891Y51694844D01*
X93335406Y51887359D01*
X93471534Y52123141D01*
X93542000Y52386122D01*
X93542000Y52482863D01*
X93638045Y52578907D01*
X93638046Y52578909D01*
X94273551Y53214413D01*
X95866588Y53214413D01*
X96167512Y53295045D01*
X96343165Y53442435D01*
X96454956Y53636064D01*
X96463522Y53684646D01*
X96541493Y53601179D01*
X96741960Y53448740D01*
X96965246Y53332258D01*
X97204966Y53255060D01*
X97454266Y53219358D01*
X97706017Y53226170D01*
X97953022Y53275302D01*
X98188216Y53365349D01*
X98404877Y53493738D01*
X98596807Y53656795D01*
X98758521Y53849859D01*
X98885393Y54067410D01*
X98973796Y54303228D01*
X99021318Y54551168D01*
X99024240Y54830276D01*
X98981922Y55079156D01*
X98898477Y55316774D01*
X98776188Y55536935D01*
X98618554Y55733343D01*
X98430080Y55900384D01*
X98216156Y56033281D01*
X97982899Y56128234D01*
X97736977Y56182529D01*
X97485424Y56194612D01*
X97235431Y56164137D01*
X96994147Y56091978D01*
X96768470Y55980197D01*
X96564854Y55831989D01*
X96453129Y55717300D01*
X96411205Y55873762D01*
X96263815Y56049415D01*
X96070186Y56161206D01*
X95861024Y56198087D01*
X94500001Y56198087D01*
X94500001Y56546465D01*
X94481311Y56603986D01*
X94471851Y56663718D01*
X94444393Y56717609D01*
X94425704Y56775126D01*
X94390154Y56824056D01*
X94362699Y56877941D01*
X94319258Y56921382D01*
X94319252Y56921389D01*
X93398277Y57842363D01*
X93519914Y57964000D01*
X93633362Y58115375D01*
X93722246Y58352475D01*
X93738584Y58572316D01*
X94288519Y59122251D01*
X96308163Y59122251D01*
X96308163Y57839662D01*
X96388795Y57538739D01*
X96536185Y57363085D01*
X96729814Y57251294D01*
X96938976Y57214413D01*
X98666588Y57214413D01*
X98967512Y57295045D01*
X99143165Y57442435D01*
X99254956Y57636064D01*
X99291837Y57845226D01*
X99291837Y58869275D01*
X101178520Y56982592D01*
X101192669Y56960167D01*
X101263507Y56897605D01*
X101286881Y56874230D01*
X101307308Y56858921D01*
X101371726Y56802029D01*
X101402493Y56787583D01*
X101429695Y56767197D01*
X101510169Y56737029D01*
X101588329Y56700333D01*
X101621133Y56695431D01*
X101653386Y56683340D01*
X101750160Y56676148D01*
X101776241Y56672250D01*
X101776530Y56672250D01*
X102000891Y56542716D01*
X102263872Y56472250D01*
X102536128Y56472250D01*
X102799109Y56542716D01*
X103034891Y56678844D01*
X103227406Y56871359D01*
X103363534Y57107141D01*
X103434000Y57370122D01*
X103434000Y57642378D01*
X103363534Y57905359D01*
X103227406Y58141141D01*
X103034891Y58333656D01*
X102799109Y58469784D01*
X102536128Y58540250D01*
X102263872Y58540250D01*
X102039806Y58480212D01*
X100563767Y59956251D01*
X101844260Y61236744D01*
X101866682Y61250891D01*
X101929240Y61321724D01*
X101952620Y61345103D01*
X101967937Y61365539D01*
X102024821Y61429948D01*
X102039267Y61460715D01*
X102059653Y61487917D01*
X102089819Y61568387D01*
X102126517Y61646550D01*
X102131421Y61679362D01*
X102143509Y61711608D01*
X102150700Y61808363D01*
X102154600Y61834463D01*
X102154600Y61860854D01*
X102161214Y61949844D01*
X102154600Y61980828D01*
X102154600Y63613130D01*
X102284134Y63837491D01*
X102354600Y64100472D01*
X102354600Y64372728D01*
X102284134Y64635709D01*
X102148006Y64871491D01*
X101955491Y65064006D01*
X101719709Y65200134D01*
X101456728Y65270600D01*
X101184472Y65270600D01*
X100921491Y65200134D01*
X100685709Y65064006D01*
X100493194Y64871491D01*
X100357066Y64635709D01*
X100286600Y64372728D01*
X100286600Y64100472D01*
X100357066Y63837491D01*
X100486601Y63613129D01*
X100486600Y62237990D01*
X99038862Y60790251D01*
X95282143Y60790251D01*
X95291837Y60845226D01*
X95291837Y62572838D01*
X95211205Y62873762D01*
X95063815Y63049415D01*
X94870186Y63161206D01*
X94824416Y63169277D01*
X94856807Y63196795D01*
X95018521Y63389859D01*
X95145393Y63607410D01*
X95233796Y63843228D01*
X95281318Y64091168D01*
X95284240Y64370276D01*
X95241922Y64619156D01*
X95158477Y64856774D01*
X95036188Y65076935D01*
X94878554Y65273343D01*
X94690080Y65440384D01*
X94476156Y65573281D01*
X94242899Y65668234D01*
X93996977Y65722529D01*
X93745424Y65734612D01*
X93495431Y65704137D01*
X93254147Y65631978D01*
X93028470Y65520197D01*
X92824854Y65371989D01*
X92649120Y65191594D01*
X92506293Y64984167D01*
X92400457Y64755641D01*
X92334639Y64512551D01*
X92310720Y64261846D01*
X92329384Y64010696D01*
X92390097Y63766280D01*
X92491123Y63535588D01*
X92629575Y63325217D01*
X92785384Y63158423D01*
X92632489Y63117455D01*
X92456835Y62970065D01*
X92345044Y62776436D01*
X92308163Y62567274D01*
X92308163Y60839662D01*
X92388795Y60538739D01*
X92536185Y60363085D01*
X92729814Y60251294D01*
X92938976Y60214413D01*
X93021774Y60214413D01*
X92941769Y60134408D01*
X92924539Y60139561D01*
X92685651Y60141021D01*
X92455955Y60075374D01*
X92253917Y59947897D01*
X92095779Y59768838D01*
X91994084Y59552237D01*
X91966001Y59364325D01*
X91966001Y59231918D01*
X91960176Y59232350D01*
X91934078Y59236251D01*
X91907684Y59236251D01*
X91818694Y59242865D01*
X91787710Y59236251D01*
X91201427Y59236251D01*
X91175571Y59242102D01*
X91081272Y59236251D01*
X91048188Y59236251D01*
X91022894Y59232629D01*
X90937137Y59227309D01*
X90905172Y59215770D01*
X90871518Y59210950D01*
X90793270Y59175372D01*
X90712069Y59146058D01*
X90685409Y59126331D01*
X90654049Y59112072D01*
X90580544Y59048736D01*
X90559336Y59033042D01*
X90540693Y59014398D01*
X90473073Y58956133D01*
X90455839Y58929545D01*
X90056766Y58530471D01*
X90041071Y58520987D01*
X89971434Y58445138D01*
X89942654Y58416359D01*
X89932174Y58402376D01*
X89879508Y58345013D01*
X89860881Y58307251D01*
X89835620Y58273545D01*
X89808281Y58200614D01*
X89773653Y58130415D01*
X89766813Y58089996D01*
X89751765Y58049853D01*
X89745302Y57962887D01*
X89741950Y57943077D01*
X89741290Y57908900D01*
X89734060Y57811618D01*
X89738970Y57788621D01*
X89726746Y57155086D01*
X89720451Y57141680D01*
X89690674Y56942438D01*
X89690674Y56837314D01*
X87948977Y56837314D01*
X87648000Y57138290D01*
X87648000Y57235031D01*
X87577534Y57498012D01*
X87441406Y57733794D01*
X87248891Y57926309D01*
X87013109Y58062437D01*
X86750128Y58132903D01*
X86647999Y58132903D01*
X86647999Y58650612D01*
X87142523Y59145135D01*
X88041166Y59990689D01*
X88051688Y59996050D01*
X88128503Y60072866D01*
X88163619Y60105908D01*
X88170725Y60115087D01*
X88221698Y60166060D01*
X88243875Y60209585D01*
X88273771Y60248205D01*
X88298120Y60316047D01*
X88330850Y60380282D01*
X88338492Y60428530D01*
X88354991Y60474500D01*
X88357184Y60546553D01*
X88359000Y60558019D01*
X88359000Y60606224D01*
X88362305Y60714817D01*
X88359000Y60726151D01*
X88359000Y67202954D01*
X88427406Y67271359D01*
X88563534Y67507141D01*
X88634000Y67770122D01*
X88634000Y68042378D01*
X88563534Y68305359D01*
X88427406Y68541141D01*
X88234891Y68733656D01*
X87999109Y68869784D01*
X87736128Y68940250D01*
X87463872Y68940250D01*
X87427000Y68930370D01*
X87427000Y71817765D01*
X87427583Y71913177D01*
X87414509Y71958922D01*
X87407764Y72006018D01*
X87389684Y72045783D01*
X87377677Y72087790D01*
X87352294Y72128021D01*
X87332598Y72171339D01*
X87304080Y72204434D01*
X87280773Y72241376D01*
X87245111Y72272872D01*
X87214053Y72308915D01*
X87177399Y72332672D01*
X87144654Y72361592D01*
X87101578Y72381816D01*
X87061661Y72407689D01*
X87019818Y72420202D01*
X86979911Y72438939D01*
X86934455Y72445732D01*
X86887672Y72459723D01*
X86838832Y72460022D01*
X86837306Y72460250D01*
X86801538Y72460250D01*
X86706073Y72460833D01*
X86704033Y72460250D01*
X86468534Y72460250D01*
X86489375Y72546723D01*
X86497486Y72846482D01*
X86454382Y73080186D01*
X86370007Y73300568D01*
X86246882Y73501882D01*
X86233048Y73517274D01*
X88108163Y73517274D01*
X88108163Y71789662D01*
X88188795Y71488739D01*
X88336185Y71313085D01*
X88529814Y71201294D01*
X88738976Y71164413D01*
X90466588Y71164413D01*
X90767512Y71245045D01*
X90943165Y71392435D01*
X91054956Y71586064D01*
X91091837Y71795226D01*
X91091837Y73522838D01*
X91011205Y73823762D01*
X90863815Y73999415D01*
X90670186Y74111206D01*
X90461024Y74148087D01*
X88733412Y74148087D01*
X88432489Y74067455D01*
X88256835Y73920065D01*
X88145044Y73726436D01*
X88108163Y73517274D01*
X86233048Y73517274D01*
X86089133Y73677387D01*
X85902042Y73821208D01*
X85691876Y73928524D01*
X85465671Y73995744D01*
X85231004Y74020615D01*
X84995735Y74002306D01*
X84767741Y73941428D01*
X84554659Y73840022D01*
X84363627Y73701482D01*
X84324485Y73660307D01*
X84309133Y73677387D01*
X84122042Y73821208D01*
X83911876Y73928524D01*
X83685671Y73995744D01*
X83451004Y74020615D01*
X83215735Y74002306D01*
X82987741Y73941428D01*
X82774659Y73840022D01*
X82583627Y73701482D01*
X82544485Y73660307D01*
X82529133Y73677387D01*
X82342042Y73821208D01*
X82131876Y73928524D01*
X81905671Y73995744D01*
X81671004Y74020615D01*
X81435735Y74002306D01*
X81207741Y73941428D01*
X80994659Y73840022D01*
X80803627Y73701482D01*
X80764485Y73660307D01*
X80749133Y73677387D01*
X80562042Y73821208D01*
X80351876Y73928524D01*
X80125671Y73995744D01*
X79891004Y74020615D01*
X79655735Y74002306D01*
X79427741Y73941428D01*
X79214659Y73840022D01*
X79023627Y73701482D01*
X78984485Y73660307D01*
X78969133Y73677387D01*
X78782042Y73821208D01*
X78571876Y73928524D01*
X78345671Y73995744D01*
X78111004Y74020615D01*
X77875735Y74002306D01*
X77647741Y73941428D01*
X77434659Y73840022D01*
X77243627Y73701482D01*
X77204485Y73660307D01*
X77189133Y73677387D01*
X77002042Y73821208D01*
X76791876Y73928524D01*
X76565671Y73995744D01*
X76331004Y74020615D01*
X76095735Y74002306D01*
X75867741Y73941428D01*
X75654659Y73840022D01*
X75463627Y73701482D01*
X75424485Y73660307D01*
X75409133Y73677387D01*
X75222042Y73821208D01*
X75011876Y73928524D01*
X74785671Y73995744D01*
X74551004Y74020615D01*
X74315735Y74002306D01*
X74087741Y73941428D01*
X73874659Y73840022D01*
X73834429Y73810847D01*
X73855936Y73829378D01*
X73873172Y73855969D01*
X74614453Y74597250D01*
X93661511Y74597250D01*
X93727925Y74321672D01*
X93825385Y74107319D01*
X93961620Y73915262D01*
X94131715Y73752432D01*
X94174675Y73724693D01*
X94045140Y73622942D01*
X93890814Y73445096D01*
X93772901Y73241277D01*
X93695657Y73018837D01*
X93661869Y72785805D01*
X93672756Y72550587D01*
X93727925Y72321672D01*
X93825385Y72107319D01*
X93961620Y71915262D01*
X94131715Y71752432D01*
X94174675Y71724693D01*
X94045140Y71622942D01*
X93890814Y71445096D01*
X93772901Y71241277D01*
X93695657Y71018837D01*
X93661869Y70785805D01*
X93672756Y70550587D01*
X93727925Y70321672D01*
X93825385Y70107319D01*
X93961620Y69915262D01*
X94131715Y69752432D01*
X94174675Y69724693D01*
X94045140Y69622942D01*
X93890814Y69445096D01*
X93772901Y69241277D01*
X93695657Y69018837D01*
X93661869Y68785805D01*
X93672756Y68550587D01*
X93727925Y68321672D01*
X93825385Y68107319D01*
X93961620Y67915262D01*
X94131715Y67752432D01*
X94329532Y67624704D01*
X94550820Y67535522D01*
X94856159Y67491250D01*
X95508811Y67491250D01*
X95684405Y67508003D01*
X95910352Y67574289D01*
X96119688Y67682104D01*
X96304860Y67827558D01*
X96459186Y68005404D01*
X96577099Y68209223D01*
X96654343Y68431663D01*
X96688131Y68664695D01*
X96677244Y68899913D01*
X96622075Y69128828D01*
X96524615Y69343181D01*
X96388380Y69535238D01*
X96218285Y69698068D01*
X96175325Y69725807D01*
X96304860Y69827558D01*
X96459186Y70005404D01*
X96577099Y70209223D01*
X96654343Y70431663D01*
X96688131Y70664695D01*
X96677244Y70899913D01*
X96622075Y71128828D01*
X96524615Y71343181D01*
X96388380Y71535238D01*
X96218285Y71698068D01*
X96175325Y71725807D01*
X96304860Y71827558D01*
X96459186Y72005404D01*
X96577099Y72209223D01*
X96654343Y72431663D01*
X96688131Y72664695D01*
X96677244Y72899913D01*
X96622075Y73128828D01*
X96524615Y73343181D01*
X96388380Y73535238D01*
X96218285Y73698068D01*
X96175325Y73725807D01*
X96304860Y73827558D01*
X96459186Y74005404D01*
X96577099Y74209223D01*
X96654344Y74431665D01*
X96678346Y74597250D01*
X93661511Y74597250D01*
X74614453Y74597250D01*
X77360453Y77343250D01*
X93704166Y77343250D01*
X93695641Y77324582D01*
G36*
X118990936Y73507728D02*
G01*
X118994525Y73501013D01*
X119075821Y73422843D01*
X119112792Y73385871D01*
X119118846Y73381472D01*
X119167832Y73334370D01*
X119215506Y73311245D01*
X119258375Y73280097D01*
X119323015Y73259094D01*
X119384154Y73229436D01*
X119436641Y73222176D01*
X119487036Y73205801D01*
X119554996Y73205801D01*
X119562405Y73204776D01*
X119614714Y73205801D01*
X119727468Y73205801D01*
X119734706Y73208153D01*
X123186600Y73275813D01*
X125352001Y71110412D01*
X125352000Y69610053D01*
X123631543Y67889595D01*
X123609118Y67875446D01*
X123546553Y67804605D01*
X123523180Y67781233D01*
X123507874Y67760810D01*
X123450978Y67696388D01*
X123439687Y67672340D01*
X119824941Y64057593D01*
X119804070Y64050059D01*
X119777403Y64030327D01*
X119746050Y64016071D01*
X119672553Y63952742D01*
X119651337Y63937042D01*
X119632687Y63918391D01*
X119565073Y63860132D01*
X119547839Y63833543D01*
X118759000Y63044703D01*
X118759000Y63766494D01*
X118758999Y63766500D01*
X118758999Y63826464D01*
X118740312Y63883975D01*
X118730850Y63943718D01*
X118703391Y63997608D01*
X118684703Y64055125D01*
X118649154Y64104054D01*
X118621698Y64157940D01*
X118555761Y64223877D01*
X118754891Y64338844D01*
X118947406Y64531359D01*
X119083534Y64767141D01*
X119154000Y65030122D01*
X119154000Y65115811D01*
X119166244Y65148472D01*
X119172342Y65230527D01*
X119297678Y65190165D01*
X119555378Y65153260D01*
X119815612Y65160301D01*
X120070938Y65211090D01*
X120314057Y65304171D01*
X120538017Y65436885D01*
X120736414Y65605435D01*
X120903576Y65805005D01*
X121034723Y66029886D01*
X121126105Y66273649D01*
X121175224Y66529923D01*
X121178245Y66818475D01*
X121134505Y67075720D01*
X121048248Y67321344D01*
X120921839Y67548923D01*
X120765762Y67743389D01*
X120861512Y67769045D01*
X121037165Y67916435D01*
X121148956Y68110064D01*
X121185837Y68319226D01*
X121185837Y70146838D01*
X121105205Y70447762D01*
X120957815Y70623415D01*
X120764186Y70735206D01*
X120555024Y70772087D01*
X119004000Y70772087D01*
X119004000Y70817650D01*
X118977182Y71004908D01*
X118872377Y71235415D01*
X118840076Y71272902D01*
X118824766Y73673898D01*
X118990936Y73507728D01*
G37*
X118990936Y73507728D02*
X118994525Y73501013D01*
X119075821Y73422843D01*
X119112792Y73385871D01*
X119118846Y73381472D01*
X119167832Y73334370D01*
X119215506Y73311245D01*
X119258375Y73280097D01*
X119323015Y73259094D01*
X119384154Y73229436D01*
X119436641Y73222176D01*
X119487036Y73205801D01*
X119554996Y73205801D01*
X119562405Y73204776D01*
X119614714Y73205801D01*
X119727468Y73205801D01*
X119734706Y73208153D01*
X123186600Y73275813D01*
X125352001Y71110412D01*
X125352000Y69610053D01*
X123631543Y67889595D01*
X123609118Y67875446D01*
X123546553Y67804605D01*
X123523180Y67781233D01*
X123507874Y67760810D01*
X123450978Y67696388D01*
X123439687Y67672340D01*
X119824941Y64057593D01*
X119804070Y64050059D01*
X119777403Y64030327D01*
X119746050Y64016071D01*
X119672553Y63952742D01*
X119651337Y63937042D01*
X119632687Y63918391D01*
X119565073Y63860132D01*
X119547839Y63833543D01*
X118759000Y63044703D01*
X118759000Y63766494D01*
X118758999Y63766500D01*
X118758999Y63826464D01*
X118740312Y63883975D01*
X118730850Y63943718D01*
X118703391Y63997608D01*
X118684703Y64055125D01*
X118649154Y64104054D01*
X118621698Y64157940D01*
X118555761Y64223877D01*
X118754891Y64338844D01*
X118947406Y64531359D01*
X119083534Y64767141D01*
X119154000Y65030122D01*
X119154000Y65115811D01*
X119166244Y65148472D01*
X119172342Y65230527D01*
X119297678Y65190165D01*
X119555378Y65153260D01*
X119815612Y65160301D01*
X120070938Y65211090D01*
X120314057Y65304171D01*
X120538017Y65436885D01*
X120736414Y65605435D01*
X120903576Y65805005D01*
X121034723Y66029886D01*
X121126105Y66273649D01*
X121175224Y66529923D01*
X121178245Y66818475D01*
X121134505Y67075720D01*
X121048248Y67321344D01*
X120921839Y67548923D01*
X120765762Y67743389D01*
X120861512Y67769045D01*
X121037165Y67916435D01*
X121148956Y68110064D01*
X121185837Y68319226D01*
X121185837Y70146838D01*
X121105205Y70447762D01*
X120957815Y70623415D01*
X120764186Y70735206D01*
X120555024Y70772087D01*
X119004000Y70772087D01*
X119004000Y70817650D01*
X118977182Y71004908D01*
X118872377Y71235415D01*
X118840076Y71272902D01*
X118824766Y73673898D01*
X118990936Y73507728D01*
G36*
X116014034Y75190581D02*
G01*
X115893247Y75069794D01*
X115757119Y74834012D01*
X115686653Y74571031D01*
X115686653Y74561250D01*
X111824387Y74561250D01*
X111921044Y74657906D01*
X111921046Y74657910D01*
X112063386Y74800250D01*
X112160128Y74800250D01*
X112423109Y74870716D01*
X112658891Y75006844D01*
X112851406Y75199359D01*
X112987534Y75435141D01*
X113023134Y75568000D01*
X115636614Y75568000D01*
X116014034Y75190581D01*
G37*
X116014034Y75190581D02*
X115893247Y75069794D01*
X115757119Y74834012D01*
X115686653Y74571031D01*
X115686653Y74561250D01*
X111824387Y74561250D01*
X111921044Y74657906D01*
X111921046Y74657910D01*
X112063386Y74800250D01*
X112160128Y74800250D01*
X112423109Y74870716D01*
X112658891Y75006844D01*
X112851406Y75199359D01*
X112987534Y75435141D01*
X113023134Y75568000D01*
X115636614Y75568000D01*
X116014034Y75190581D01*
G36*
X107061415Y74643448D02*
G01*
X107143612Y74561250D01*
X106210387Y74561250D01*
X104424386Y76347250D01*
X105357614Y76347250D01*
X107061415Y74643448D01*
G37*
X107061415Y74643448D02*
X107143612Y74561250D01*
X106210387Y74561250D01*
X104424386Y76347250D01*
X105357614Y76347250D01*
X107061415Y74643448D01*
G36*
X68965269Y77045908D02*
G01*
X68860000Y76804958D01*
X68794608Y76550277D01*
X68770778Y76288416D01*
X68789120Y76026115D01*
X68849163Y75770120D01*
X68849880Y75768380D01*
X68771571Y75786100D01*
X68533137Y75771307D01*
X68308069Y75690056D01*
X68155336Y75577040D01*
X67778547Y75200250D01*
X62199988Y75200250D01*
X62253577Y75268840D01*
X62380250Y75499258D01*
X62468454Y75746964D01*
X62516040Y76006240D01*
X62519134Y76301667D01*
X63132488Y76915020D01*
X63259101Y77076495D01*
X63298272Y77163250D01*
X69040890Y77163250D01*
X68965269Y77045908D01*
G37*
X68965269Y77045908D02*
X68860000Y76804958D01*
X68794608Y76550277D01*
X68770778Y76288416D01*
X68789120Y76026115D01*
X68849163Y75770120D01*
X68849880Y75768380D01*
X68771571Y75786100D01*
X68533137Y75771307D01*
X68308069Y75690056D01*
X68155336Y75577040D01*
X67778547Y75200250D01*
X62199988Y75200250D01*
X62253577Y75268840D01*
X62380250Y75499258D01*
X62468454Y75746964D01*
X62516040Y76006240D01*
X62519134Y76301667D01*
X63132488Y76915020D01*
X63259101Y77076495D01*
X63298272Y77163250D01*
X69040890Y77163250D01*
X68965269Y77045908D01*
G36*
X60438648Y77748625D02*
G01*
X60192197Y77656972D01*
X59963569Y77527093D01*
X59758649Y77362332D01*
X59582706Y77166929D01*
X59440269Y76945908D01*
X59335000Y76704958D01*
X59269608Y76450277D01*
X59245778Y76188416D01*
X59264120Y75926115D01*
X59324163Y75670120D01*
X59424362Y75427018D01*
X59562140Y75203063D01*
X59564568Y75200250D01*
X57119988Y75200250D01*
X57173577Y75268840D01*
X57300250Y75499258D01*
X57388454Y75746964D01*
X57436040Y76006240D01*
X57439134Y76301667D01*
X57925717Y76788250D01*
X58032772Y76788250D01*
X58236482Y76812901D01*
X58493233Y76909920D01*
X58719431Y77065382D01*
X58806629Y77163250D01*
X58938644Y77163250D01*
X58938650Y77163251D01*
X58998613Y77163251D01*
X59056126Y77181938D01*
X59115868Y77191400D01*
X59169759Y77218860D01*
X59227273Y77237546D01*
X59276201Y77273094D01*
X59330090Y77300553D01*
X59827787Y77798250D01*
X60689269Y77798250D01*
X60438648Y77748625D01*
G37*
X60438648Y77748625D02*
X60192197Y77656972D01*
X59963569Y77527093D01*
X59758649Y77362332D01*
X59582706Y77166929D01*
X59440269Y76945908D01*
X59335000Y76704958D01*
X59269608Y76450277D01*
X59245778Y76188416D01*
X59264120Y75926115D01*
X59324163Y75670120D01*
X59424362Y75427018D01*
X59562140Y75203063D01*
X59564568Y75200250D01*
X57119988Y75200250D01*
X57173577Y75268840D01*
X57300250Y75499258D01*
X57388454Y75746964D01*
X57436040Y76006240D01*
X57439134Y76301667D01*
X57925717Y76788250D01*
X58032772Y76788250D01*
X58236482Y76812901D01*
X58493233Y76909920D01*
X58719431Y77065382D01*
X58806629Y77163250D01*
X58938644Y77163250D01*
X58938650Y77163251D01*
X58998613Y77163251D01*
X59056126Y77181938D01*
X59115868Y77191400D01*
X59169759Y77218860D01*
X59227273Y77237546D01*
X59276201Y77273094D01*
X59330090Y77300553D01*
X59827787Y77798250D01*
X60689269Y77798250D01*
X60438648Y77748625D01*
G36*
X47474801Y79200949D02*
G01*
X47474217Y79105323D01*
X47487294Y79059570D01*
X47494038Y79012480D01*
X47512119Y78972712D01*
X47524123Y78930710D01*
X47549513Y78890469D01*
X47569202Y78847163D01*
X47597716Y78814071D01*
X47621028Y78777124D01*
X47656694Y78745626D01*
X47687746Y78709587D01*
X47724398Y78685830D01*
X47757146Y78656908D01*
X47800226Y78636681D01*
X47840139Y78610811D01*
X47881982Y78598298D01*
X47921889Y78579561D01*
X47967345Y78572768D01*
X48014128Y78558777D01*
X48062968Y78558478D01*
X48064494Y78558250D01*
X48100262Y78558250D01*
X48195727Y78557667D01*
X48197767Y78558250D01*
X56488283Y78558250D01*
X55733826Y77803793D01*
X55616582Y77799698D01*
X55358648Y77748625D01*
X55112197Y77656972D01*
X54883569Y77527093D01*
X54678649Y77362332D01*
X54502706Y77166929D01*
X54360269Y76945908D01*
X54255000Y76704958D01*
X54189608Y76450277D01*
X54165778Y76188416D01*
X54184120Y75926115D01*
X54244163Y75670120D01*
X54344362Y75427018D01*
X54482140Y75203063D01*
X54484568Y75200250D01*
X52039988Y75200250D01*
X52093577Y75268840D01*
X52220250Y75499258D01*
X52308454Y75746964D01*
X52356040Y76006240D01*
X52359138Y76302065D01*
X52316992Y76562280D01*
X52233994Y76811780D01*
X52112175Y77044800D01*
X51969838Y77235069D01*
X50725000Y75990230D01*
X49471927Y77243304D01*
X49280269Y76945908D01*
X49175000Y76704958D01*
X49109608Y76450277D01*
X49085778Y76188416D01*
X49104120Y75926115D01*
X49164163Y75670120D01*
X49264362Y75427018D01*
X49402140Y75203063D01*
X49404568Y75200250D01*
X45611859Y75200250D01*
X45743577Y75368840D01*
X45870250Y75599258D01*
X45958454Y75846964D01*
X46006040Y76106240D01*
X46008076Y76300609D01*
X47105088Y77397620D01*
X47118057Y77414161D01*
X49663108Y77414161D01*
X50725000Y76352269D01*
X51792194Y77419464D01*
X51549606Y77588067D01*
X51312477Y77701679D01*
X51060233Y77775919D01*
X50799364Y77808875D01*
X50536582Y77799698D01*
X50278648Y77748625D01*
X50032197Y77656972D01*
X49803570Y77527093D01*
X49663108Y77414161D01*
X47118057Y77414161D01*
X47231702Y77559096D01*
X47344649Y77809248D01*
X47394668Y78079123D01*
X47378867Y78353138D01*
X47298163Y78615474D01*
X47157211Y78850986D01*
X47013600Y78996110D01*
X47013600Y81494063D01*
X47474800Y81955262D01*
X47474801Y79200949D01*
G37*
X47474801Y79200949D02*
X47474217Y79105323D01*
X47487294Y79059570D01*
X47494038Y79012480D01*
X47512119Y78972712D01*
X47524123Y78930710D01*
X47549513Y78890469D01*
X47569202Y78847163D01*
X47597716Y78814071D01*
X47621028Y78777124D01*
X47656694Y78745626D01*
X47687746Y78709587D01*
X47724398Y78685830D01*
X47757146Y78656908D01*
X47800226Y78636681D01*
X47840139Y78610811D01*
X47881982Y78598298D01*
X47921889Y78579561D01*
X47967345Y78572768D01*
X48014128Y78558777D01*
X48062968Y78558478D01*
X48064494Y78558250D01*
X48100262Y78558250D01*
X48195727Y78557667D01*
X48197767Y78558250D01*
X56488283Y78558250D01*
X55733826Y77803793D01*
X55616582Y77799698D01*
X55358648Y77748625D01*
X55112197Y77656972D01*
X54883569Y77527093D01*
X54678649Y77362332D01*
X54502706Y77166929D01*
X54360269Y76945908D01*
X54255000Y76704958D01*
X54189608Y76450277D01*
X54165778Y76188416D01*
X54184120Y75926115D01*
X54244163Y75670120D01*
X54344362Y75427018D01*
X54482140Y75203063D01*
X54484568Y75200250D01*
X52039988Y75200250D01*
X52093577Y75268840D01*
X52220250Y75499258D01*
X52308454Y75746964D01*
X52356040Y76006240D01*
X52359138Y76302065D01*
X52316992Y76562280D01*
X52233994Y76811780D01*
X52112175Y77044800D01*
X51969838Y77235069D01*
X50725000Y75990230D01*
X49471927Y77243304D01*
X49280269Y76945908D01*
X49175000Y76704958D01*
X49109608Y76450277D01*
X49085778Y76188416D01*
X49104120Y75926115D01*
X49164163Y75670120D01*
X49264362Y75427018D01*
X49402140Y75203063D01*
X49404568Y75200250D01*
X45611859Y75200250D01*
X45743577Y75368840D01*
X45870250Y75599258D01*
X45958454Y75846964D01*
X46006040Y76106240D01*
X46008076Y76300609D01*
X47105088Y77397620D01*
X47118057Y77414161D01*
X49663108Y77414161D01*
X50725000Y76352269D01*
X51792194Y77419464D01*
X51549606Y77588067D01*
X51312477Y77701679D01*
X51060233Y77775919D01*
X50799364Y77808875D01*
X50536582Y77799698D01*
X50278648Y77748625D01*
X50032197Y77656972D01*
X49803570Y77527093D01*
X49663108Y77414161D01*
X47118057Y77414161D01*
X47231702Y77559096D01*
X47344649Y77809248D01*
X47394668Y78079123D01*
X47378867Y78353138D01*
X47298163Y78615474D01*
X47157211Y78850986D01*
X47013600Y78996110D01*
X47013600Y81494063D01*
X47474800Y81955262D01*
X47474801Y79200949D01*
G36*
X91165109Y80678844D02*
G01*
X91400891Y80542716D01*
X91663872Y80472250D01*
X91760614Y80472250D01*
X93371613Y78861250D01*
X77425164Y78861250D01*
X78379912Y79815997D01*
X78493361Y79967371D01*
X78576629Y80189492D01*
X79134388Y80747250D01*
X91096704Y80747250D01*
X91165109Y80678844D01*
G37*
X91165109Y80678844D02*
X91400891Y80542716D01*
X91663872Y80472250D01*
X91760614Y80472250D01*
X93371613Y78861250D01*
X77425164Y78861250D01*
X78379912Y79815997D01*
X78493361Y79967371D01*
X78576629Y80189492D01*
X79134388Y80747250D01*
X91096704Y80747250D01*
X91165109Y80678844D01*
G36*
X69651000Y82799367D02*
G01*
X69488569Y82707093D01*
X69283649Y82542332D01*
X69107706Y82346929D01*
X68965269Y82125908D01*
X68860000Y81884958D01*
X68794608Y81630277D01*
X68770778Y81368416D01*
X68789120Y81106115D01*
X68849163Y80850120D01*
X68875901Y80785249D01*
X64734188Y80785249D01*
X61802986Y83716450D01*
X69651000Y83716450D01*
X69651000Y82799367D01*
G37*
X69651000Y82799367D02*
X69488569Y82707093D01*
X69283649Y82542332D01*
X69107706Y82346929D01*
X68965269Y82125908D01*
X68860000Y81884958D01*
X68794608Y81630277D01*
X68770778Y81368416D01*
X68789120Y81106115D01*
X68849163Y80850120D01*
X68875901Y80785249D01*
X64734188Y80785249D01*
X61802986Y83716450D01*
X69651000Y83716450D01*
X69651000Y82799367D01*
M02*
