M48
; DRILL file {KiCad 5.99.0-unknown-d20d310~86~ubuntu18.04.1} date Sun 01 Dec 2019 10:12:40 PM GMT
; FORMAT={-:-/ absolute / inch / decimal}
; #@! TF.CreationDate,2019-12-01T22:12:40+00:00
; #@! TF.GenerationSoftware,Kicad,Pcbnew,5.99.0-unknown-d20d310~86~ubuntu18.04.1
; #@! TF.FileFunction,Plated,1,2,PTH
FMAT,2
INCH
T1C0.0157
T2C0.0354
T3C0.0394
T4C0.0492
T5C0.0827
%
G90
G05
T1
X2.302Y2.9878
X2.522Y2.9878
X2.542Y3.2078
X2.842Y3.3278
X2.8504Y1.9806
X2.942Y2.3278
X2.962Y2.3878
X3.022Y2.3478
X3.1181Y3.1302
X3.125Y2.187
X3.182Y1.8678
X3.402Y2.2078
X3.402Y1.8678
X3.4094Y2.9176
X3.41Y2.248
X3.442Y2.0078
X3.4488Y2.6735
X3.4882Y2.9884
X3.5276Y2.4534
X3.5817Y2.2078
X3.5906Y2.7522
X3.602Y2.2678
X3.602Y1.9278
X3.6142Y3.2089
X3.6142Y2.0042
X3.622Y2.3306
X3.642Y2.0678
X3.662Y2.1678
X3.702Y2.0078
X3.7323Y1.9412
X3.7661Y1.8238
X3.79Y2.588
X3.9528Y2.264
X3.989Y2.529
X4.008Y1.925
X4.0243Y1.83
X4.0315Y3.1302
X4.0315Y2.264
X4.0575Y2.9033
X4.1189Y3.0056
X4.1742Y2.9694
X4.1904Y2.6856
X4.2458Y3.0192
X4.2504Y2.8056
X4.2504Y2.6856
X4.2504Y2.5426
X4.2582Y2.3378
X4.2702Y2.9856
X4.3228Y3.1695
X4.3304Y2.7456
X4.3304Y2.6856
X4.3304Y2.5456
X4.34Y3.005
X4.3639Y2.3756
X4.3904Y2.5456
X4.393Y2.342
X4.4004Y2.6156
X4.4104Y2.9856
X4.4104Y2.7456
X4.4109Y2.8051
X4.4304Y2.3656
X4.4504Y2.9656
X4.4604Y2.5456
X4.4704Y3.0656
X4.4704Y2.8056
X4.4704Y2.7456
X4.4704Y2.6856
X4.4704Y2.6256
X4.5906Y1.9018
X4.5953Y2.9305
X4.6504Y2.5656
X4.7795Y1.9097
X4.924Y2.788
X4.935Y2.598
X5.0315Y3.075
T2
X2.8293Y2.4422
X2.8643Y2.8634
X2.8993Y2.4422
X2.9344Y2.8634
X2.9694Y2.4422
X3.0044Y2.8634
X3.0395Y2.4422
X3.0745Y2.8634
X3.1096Y2.4422
X3.1446Y2.8634
X3.1796Y2.4422
X3.2147Y2.8634
X3.2497Y2.4422
X3.2848Y2.8634
X3.3198Y2.4422
X3.3548Y2.8634
T3
X3.7402Y2.1538
X3.8402Y2.1538
X3.8504Y2.3113
X2.482Y1.9278
X3.9921Y2.1593
X3.9921Y2.0593
X3.747Y3.0207
X3.747Y2.9419
X3.747Y2.8632
X3.747Y2.7845
X3.747Y2.7057
X3.5276Y2.8605
X3.6929Y2.5294
X3.6929Y2.4294
X4.7104Y2.7256
X4.7104Y2.6256
X4.2183Y2.0856
X4.4104Y2.0856
T4
X1.747Y3.4028
X1.747Y3.2028
X1.747Y3.0028
X1.997Y2.9989
X2.197Y2.9989
X2.397Y2.9989
X2.022Y2.2065
X2.122Y2.2065
X2.222Y2.2065
X1.747Y2.3028
X1.747Y2.1028
X1.747Y1.9028
X2.772Y2.3028
X2.772Y2.1028
X2.772Y1.9028
X2.772Y3.4028
X2.772Y3.2028
X2.772Y3.0028
T5
X1.922Y2.1278
X2.322Y2.1278
T0
M30
