G04 #@! TF.GenerationSoftware,KiCad,Pcbnew,5.99.0-unknown-d20d310~86~ubuntu18.04.1*
G04 #@! TF.CreationDate,2019-12-01T22:12:42+00:00*
G04 #@! TF.ProjectId,mouse8,6d6f7573-6538-42e6-9b69-6361645f7063,rev?*
G04 #@! TF.SameCoordinates,Original*
G04 #@! TF.FileFunction,Legend,Top*
G04 #@! TF.FilePolarity,Positive*
%FSLAX46Y46*%
G04 Gerber Fmt 4.6, Leading zero omitted, Abs format (unit mm)*
G04 Created by KiCad (PCBNEW 5.99.0-unknown-d20d310~86~ubuntu18.04.1) date 2019-12-01 22:12:42*
%MOMM*%
%LPD*%
G04 APERTURE LIST*
%ADD10C,0.050000*%
%ADD11C,0.120000*%
%ADD12C,0.150000*%
%ADD13C,0.254000*%
%ADD14C,0.200000*%
G04 APERTURE END LIST*
D10*
X94150000Y89606250D02*
X58980000Y89606250D01*
X100075000Y87831250D02*
X94150000Y89606250D01*
X100075000Y87831250D02*
X100075000Y85581250D01*
X131400000Y81356250D02*
X135175000Y77656250D01*
X128195000Y81351250D02*
X131400000Y81356250D01*
X128200000Y82906250D02*
X128195000Y81351250D01*
X121475000Y85581250D02*
X128200000Y82906250D01*
X100075000Y85581250D02*
X121475000Y85581250D01*
X128195000Y45156250D02*
X66600000Y45156250D01*
X135175000Y77656250D02*
X135180000Y53411250D01*
X128325000Y53431250D02*
X135180000Y53411250D01*
X128200000Y51856250D02*
X128195000Y45156250D01*
X128325000Y56356250D02*
X128325000Y53431250D01*
X123825000Y51856250D02*
X128200000Y51856250D01*
X123825000Y51856250D02*
G75*
G02X128325000Y56356250I0J4500000D01*
G01*
X48108800Y82189450D02*
X48108800Y79192250D01*
X60453200Y82189450D02*
X48108800Y82189450D01*
X60453200Y79192250D02*
X60453200Y82189450D01*
X48108800Y79192250D02*
X60453200Y79192250D01*
X43740000Y73096250D02*
X68505000Y73096250D01*
X70283000Y62936250D02*
X70283000Y71826250D01*
X86793000Y62936250D02*
X70283000Y62936250D01*
X86793000Y71826250D02*
X86793000Y62936250D01*
X70283000Y71826250D02*
X86793000Y71826250D01*
X66600000Y46426250D02*
X66600000Y45156250D01*
X41200000Y46426250D02*
X66600000Y46426250D01*
X58980000Y88336250D02*
X41200000Y88336250D01*
X58980000Y89606250D02*
X58980000Y88336250D01*
X43740000Y61666250D02*
X43740000Y62301250D01*
X68505000Y61666250D02*
X68505000Y62301250D01*
X68505000Y73096250D02*
X68505000Y62301250D01*
X43740000Y62301250D02*
X43740000Y73096250D01*
X68505000Y61666250D02*
X43740000Y61666250D01*
X41200000Y46426250D02*
X41200000Y88336250D01*
D11*
X81922252Y60806400D02*
X81399748Y60806400D01*
X81922252Y59386400D02*
X81399748Y59386400D01*
X78027600Y48800652D02*
X78027600Y48278148D01*
X76607600Y48800652D02*
X76607600Y48278148D01*
X75452400Y50637800D02*
X77252400Y50637800D01*
X77252400Y53857800D02*
X74802400Y53857800D01*
X74524800Y48252748D02*
X74524800Y48775252D01*
X75944800Y48252748D02*
X75944800Y48775252D01*
X79951948Y52449800D02*
X80474452Y52449800D01*
X79951948Y51029800D02*
X80474452Y51029800D01*
X132467800Y68890200D02*
X132467800Y66390200D01*
X130717800Y70390200D02*
X128717800Y70390200D01*
X126967800Y68890200D02*
X126967800Y66390200D01*
X130717800Y64890200D02*
X128717800Y64890200D01*
X132017800Y69340200D02*
X132467800Y68890200D01*
X132017800Y65940200D02*
X132467800Y66390200D01*
X127417800Y65940200D02*
X126967800Y66390200D01*
X127417800Y69340200D02*
X126967800Y68890200D01*
X81638000Y77152998D02*
X81638000Y77675502D01*
X83058000Y77152998D02*
X83058000Y77675502D01*
X84686000Y77152998D02*
X84686000Y77675502D01*
X86106000Y77152998D02*
X86106000Y77675502D01*
X99118052Y62561400D02*
X98595548Y62561400D01*
X99118052Y63981400D02*
X98595548Y63981400D01*
X109730748Y79084250D02*
X110253252Y79084250D01*
X109730748Y77664250D02*
X110253252Y77664250D01*
X80034200Y48775252D02*
X80034200Y48252748D01*
X78614200Y48775252D02*
X78614200Y48252748D01*
X83895000Y48140252D02*
X83895000Y47617748D01*
X82475000Y48140252D02*
X82475000Y47617748D01*
X100845252Y72996250D02*
X100322748Y72996250D01*
X100845252Y74416250D02*
X100322748Y74416250D01*
X102461252Y58796250D02*
X101938748Y58796250D01*
X102461252Y60216250D02*
X101938748Y60216250D01*
X119738748Y64216250D02*
X120261252Y64216250D01*
X119738748Y62796250D02*
X120261252Y62796250D01*
X112524748Y57748250D02*
X113047252Y57748250D01*
X112524748Y56328250D02*
X113047252Y56328250D01*
X106697252Y56328250D02*
X106174748Y56328250D01*
X106697252Y57748250D02*
X106174748Y57748250D01*
X100642052Y65457000D02*
X100119548Y65457000D01*
X100642052Y66877000D02*
X100119548Y66877000D01*
X49634000Y85044498D02*
X49634000Y85567002D01*
X51054000Y85044498D02*
X51054000Y85567002D01*
X75946000Y86819502D02*
X75946000Y86296998D01*
X74526000Y86819502D02*
X74526000Y86296998D01*
X96738748Y52416250D02*
X97261252Y52416250D01*
X96738748Y50996250D02*
X97261252Y50996250D01*
X62738000Y85603502D02*
X62738000Y85080998D01*
X61318000Y85603502D02*
X61318000Y85080998D01*
X55626000Y85567002D02*
X55626000Y85044498D01*
X54206000Y85567002D02*
X54206000Y85044498D01*
X89258000Y78713498D02*
X89258000Y79236002D01*
X90678000Y78713498D02*
X90678000Y79236002D01*
X121978052Y70714800D02*
X121455548Y70714800D01*
X121978052Y72134800D02*
X121455548Y72134800D01*
X74220000Y75735548D02*
X74220000Y76258052D01*
X75640000Y75735548D02*
X75640000Y76258052D01*
X117259195Y77723303D02*
X116889729Y77353837D01*
X116255103Y78727395D02*
X115885637Y78357929D01*
X96878000Y47725498D02*
X96878000Y48248002D01*
X98298000Y47725498D02*
X98298000Y48248002D01*
X57762000Y85044498D02*
X57762000Y85567002D01*
X59182000Y85044498D02*
X59182000Y85567002D01*
X99418000Y47688998D02*
X99418000Y48211502D01*
X100838000Y47688998D02*
X100838000Y48211502D01*
X64874000Y85044498D02*
X64874000Y85567002D01*
X66294000Y85044498D02*
X66294000Y85567002D01*
X118669779Y76339887D02*
X118300313Y75970421D01*
X117665687Y77343979D02*
X117296221Y76974513D01*
X121343052Y74728000D02*
X120820548Y74728000D01*
X121343052Y76148000D02*
X120820548Y76148000D01*
X100145252Y70183250D02*
X99622748Y70183250D01*
X100145252Y71603250D02*
X99622748Y71603250D01*
X100148752Y67881250D02*
X99626248Y67881250D01*
X100148752Y69301250D02*
X99626248Y69301250D01*
X77621200Y76258052D02*
X77621200Y75735548D01*
X76201200Y76258052D02*
X76201200Y75735548D01*
X116266779Y79580937D02*
X115897313Y79211471D01*
X115262687Y80585029D02*
X114893221Y80215563D01*
X82074652Y57379800D02*
X81552148Y57379800D01*
X82074652Y58799800D02*
X81552148Y58799800D01*
X120820548Y74116000D02*
X121343052Y74116000D01*
X120820548Y72696000D02*
X121343052Y72696000D01*
X96470000Y60036250D02*
X97800000Y60036250D01*
X96470000Y58706250D02*
X96470000Y60036250D01*
X96470000Y57436250D02*
X99130000Y57436250D01*
X99130000Y57436250D02*
X99130000Y57376250D01*
X96470000Y57436250D02*
X96470000Y57376250D01*
X96470000Y57376250D02*
X99130000Y57376250D01*
X95130000Y60376250D02*
X93800000Y60376250D01*
X95130000Y61706250D02*
X95130000Y60376250D01*
X95130000Y62976250D02*
X92470000Y62976250D01*
X92470000Y62976250D02*
X92470000Y65576250D01*
X95130000Y62976250D02*
X95130000Y65576250D01*
X95130000Y65576250D02*
X92470000Y65576250D01*
X93670000Y53376250D02*
X93670000Y54706250D01*
X95000000Y53376250D02*
X93670000Y53376250D01*
X96270000Y53376250D02*
X96270000Y56036250D01*
X96270000Y56036250D02*
X98870000Y56036250D01*
X96270000Y53376250D02*
X98870000Y53376250D01*
X98870000Y53376250D02*
X98870000Y56036250D01*
X102730000Y50976250D02*
X101400000Y50976250D01*
X102730000Y52306250D02*
X102730000Y50976250D01*
X102730000Y53576250D02*
X100070000Y53576250D01*
X100070000Y53576250D02*
X100070000Y56176250D01*
X102730000Y53576250D02*
X102730000Y56176250D01*
X102730000Y56176250D02*
X100070000Y56176250D01*
D12*
X104817000Y72337250D02*
X103542000Y72337250D01*
X115167000Y72912250D02*
X114492000Y72912250D01*
X115167000Y62562250D02*
X114492000Y62562250D01*
X104817000Y62562250D02*
X105492000Y62562250D01*
X104817000Y72912250D02*
X105492000Y72912250D01*
X104817000Y62562250D02*
X104817000Y63237250D01*
X115167000Y62562250D02*
X115167000Y63237250D01*
X115167000Y72912250D02*
X115167000Y72237250D01*
X104817000Y72912250D02*
X104817000Y72337250D01*
D11*
X88270000Y73986250D02*
X89600000Y73986250D01*
X88270000Y72656250D02*
X88270000Y73986250D01*
X88270000Y71386250D02*
X90930000Y71386250D01*
X90930000Y71386250D02*
X90930000Y71326250D01*
X88270000Y71386250D02*
X88270000Y71326250D01*
X88270000Y71326250D02*
X90930000Y71326250D01*
X61714000Y50296250D02*
X63044000Y50296250D01*
X61714000Y48966250D02*
X61714000Y50296250D01*
X61714000Y47696250D02*
X64374000Y47696250D01*
X64374000Y47696250D02*
X64374000Y47636250D01*
X61714000Y47696250D02*
X61714000Y47636250D01*
X61714000Y47636250D02*
X64374000Y47636250D01*
X106459000Y55499250D02*
G75*
G03X106459000Y50449250I0J-2525000D01*
G01*
X112709000Y55499250D02*
G75*
G02X112709000Y50449250I0J-2525000D01*
G01*
X112709000Y55499250D02*
X106459000Y55499250D01*
X112709000Y50449250D02*
X106459000Y50449250D01*
X118564000Y69520250D02*
X118408000Y69520250D01*
X120880000Y69520250D02*
X120724000Y69520250D01*
X118564163Y66919120D02*
G75*
G02X118564000Y69001211I1079837J1041130D01*
G01*
X120723837Y66919120D02*
G75*
G03X120724000Y69001211I-1079837J1041130D01*
G01*
X118565392Y66287915D02*
G75*
G02X118408484Y69520250I1078608J1672335D01*
G01*
X120722608Y66287915D02*
G75*
G03X120879516Y69520250I-1078608J1672335D01*
G01*
X89068000Y51928250D02*
X91518000Y51928250D01*
X90868000Y55148250D02*
X89068000Y55148250D01*
X88052000Y57008250D02*
X90502000Y57008250D01*
X89852000Y60228250D02*
X88052000Y60228250D01*
X87983999Y65826249D02*
X87983999Y63376249D01*
X91203999Y64026249D02*
X91203999Y65826249D01*
X75150000Y57486250D02*
X75150000Y55036250D01*
X78370000Y55686250D02*
X78370000Y57486250D01*
D12*
X73310000Y74951250D02*
X73310000Y87751250D01*
X67510000Y74951250D02*
X73310000Y74951250D01*
X67510000Y87751250D02*
X67510000Y74951250D01*
X73310000Y87751250D02*
X67510000Y87751250D01*
X69140000Y83901250D02*
X71680000Y83901250D01*
X69140000Y82701250D02*
X69140000Y83901250D01*
X71680000Y82701250D02*
X69140000Y82701250D01*
X71680000Y83901250D02*
X71680000Y82701250D01*
D13*
X85239270Y73694250D02*
G75*
G03X85239270Y73694250I-67270J0D01*
G01*
D14*
X86638000Y71931250D02*
X70438000Y71931250D01*
X86638000Y62831250D02*
X86638000Y71931250D01*
X70438000Y62831250D02*
X86638000Y62831250D01*
X70438000Y71931250D02*
X70438000Y62831250D01*
D12*
X67510000Y59811250D02*
X67510000Y47011250D01*
X73310000Y59811250D02*
X67510000Y59811250D01*
X73310000Y47011250D02*
X73310000Y59811250D01*
X67510000Y47011250D02*
X73310000Y47011250D01*
X71680000Y50861250D02*
X69140000Y50861250D01*
X71680000Y52061250D02*
X71680000Y50861250D01*
X69140000Y52061250D02*
X71680000Y52061250D01*
X69140000Y50861250D02*
X69140000Y52061250D01*
D11*
X97285000Y79085250D02*
X96035000Y79085250D01*
X97285000Y77835250D02*
X97285000Y79085250D01*
X92875000Y69725250D02*
X93375000Y69725250D01*
X93375000Y69625250D02*
X92875000Y69625250D01*
X93375000Y69825250D02*
X93375000Y69625250D01*
X92875000Y69825250D02*
X93375000Y69825250D01*
X92875000Y71725250D02*
X93375000Y71725250D01*
X93375000Y71625250D02*
X92875000Y71625250D01*
X93375000Y71825250D02*
X93375000Y71625250D01*
X92875000Y71825250D02*
X93375000Y71825250D01*
X92875000Y73725250D02*
X93375000Y73725250D01*
X93375000Y73625250D02*
X92875000Y73625250D01*
X93375000Y73825250D02*
X93375000Y73625250D01*
X92875000Y73825250D02*
X93375000Y73825250D01*
X92875000Y75725250D02*
X93375000Y75725250D01*
X93375000Y75625250D02*
X92875000Y75625250D01*
X93375000Y75825250D02*
X93375000Y75625250D01*
X92875000Y75825250D02*
X93375000Y75825250D01*
X94375000Y66665250D02*
X94375000Y67275250D01*
X95675000Y66665250D02*
X95675000Y67275250D01*
X94375000Y78785250D02*
X94375000Y78175250D01*
X95675000Y78785250D02*
X95675000Y78175250D01*
X96375000Y69225250D02*
X96985000Y69225250D01*
X96375000Y67275250D02*
X96375000Y69225250D01*
X92875000Y67275250D02*
X96375000Y67275250D01*
X92875000Y78175250D02*
X92875000Y67275250D01*
X96375000Y78175250D02*
X92875000Y78175250D01*
X96375000Y76225250D02*
X96375000Y78175250D01*
X96985000Y76225250D02*
X96375000Y76225250D01*
X97085000Y77025250D02*
X97085000Y77325250D01*
X97185000Y77325250D02*
X96985000Y77325250D01*
X97185000Y77025250D02*
X97185000Y77325250D01*
X96985000Y77025250D02*
X97185000Y77025250D01*
X96985000Y66665250D02*
X96985000Y78785250D01*
X92265000Y66665250D02*
X96985000Y66665250D01*
X92265000Y78785250D02*
X92265000Y66665250D01*
X96985000Y78785250D02*
X92265000Y78785250D01*
D12*
X47275000Y74951250D02*
X47275000Y87751250D01*
X41475000Y74951250D02*
X47275000Y74951250D01*
X41475000Y87751250D02*
X41475000Y74951250D01*
X47275000Y87751250D02*
X41475000Y87751250D01*
X43105000Y83901250D02*
X45645000Y83901250D01*
X43105000Y82701250D02*
X43105000Y83901250D01*
X45645000Y82701250D02*
X43105000Y82701250D01*
X45645000Y83901250D02*
X45645000Y82701250D01*
X62205000Y79071250D02*
X49405000Y79071250D01*
X62205000Y73271250D02*
X62205000Y79071250D01*
X49405000Y73271250D02*
X62205000Y73271250D01*
X49405000Y79071250D02*
X49405000Y73271250D01*
X53255000Y74901250D02*
X53255000Y77441250D01*
X54455000Y74901250D02*
X53255000Y74901250D01*
X54455000Y77441250D02*
X54455000Y74901250D01*
X53255000Y77441250D02*
X54455000Y77441250D01*
X41475000Y59811250D02*
X41475000Y47011250D01*
X47275000Y59811250D02*
X41475000Y59811250D01*
X47275000Y47011250D02*
X47275000Y59811250D01*
X41475000Y47011250D02*
X47275000Y47011250D01*
X45645000Y50861250D02*
X43105000Y50861250D01*
X45645000Y52061250D02*
X45645000Y50861250D01*
X43105000Y52061250D02*
X45645000Y52061250D01*
X43105000Y50861250D02*
X43105000Y52061250D01*
X84243942Y60050419D02*
X83910609Y60526609D01*
X83672514Y60050419D02*
X83672514Y61050419D01*
X84053466Y61050419D01*
X84148704Y61002800D01*
X84196323Y60955180D01*
X84243942Y60859942D01*
X84243942Y60717085D01*
X84196323Y60621847D01*
X84148704Y60574228D01*
X84053466Y60526609D01*
X83672514Y60526609D01*
X85101085Y60717085D02*
X85101085Y60050419D01*
X84862990Y61098038D02*
X84624895Y60383752D01*
X85243942Y60383752D01*
X85815371Y61050419D02*
X85910609Y61050419D01*
X86005847Y61002800D01*
X86053466Y60955180D01*
X86101085Y60859942D01*
X86148704Y60669466D01*
X86148704Y60431371D01*
X86101085Y60240895D01*
X86053466Y60145657D01*
X86005847Y60098038D01*
X85910609Y60050419D01*
X85815371Y60050419D01*
X85720133Y60098038D01*
X85672514Y60145657D01*
X85624895Y60240895D01*
X85577276Y60431371D01*
X85577276Y60669466D01*
X85624895Y60859942D01*
X85672514Y60955180D01*
X85720133Y61002800D01*
X85815371Y61050419D01*
X77004942Y45616857D02*
X76957323Y45569238D01*
X76814466Y45521619D01*
X76719228Y45521619D01*
X76576371Y45569238D01*
X76481133Y45664476D01*
X76433514Y45759714D01*
X76385895Y45950190D01*
X76385895Y46093047D01*
X76433514Y46283523D01*
X76481133Y46378761D01*
X76576371Y46474000D01*
X76719228Y46521619D01*
X76814466Y46521619D01*
X76957323Y46474000D01*
X77004942Y46426380D01*
X77957323Y45521619D02*
X77385895Y45521619D01*
X77671609Y45521619D02*
X77671609Y46521619D01*
X77576371Y46378761D01*
X77481133Y46283523D01*
X77385895Y46235904D01*
X78814466Y46188285D02*
X78814466Y45521619D01*
X78576371Y46569238D02*
X78338276Y45854952D01*
X78957323Y45854952D01*
X75590495Y55695419D02*
X75590495Y54885895D01*
X75638114Y54790657D01*
X75685733Y54743038D01*
X75780971Y54695419D01*
X75971447Y54695419D01*
X76066685Y54743038D01*
X76114304Y54790657D01*
X76161923Y54885895D01*
X76161923Y55695419D01*
X77066685Y55362085D02*
X77066685Y54695419D01*
X76828590Y55743038D02*
X76590495Y55028752D01*
X77209542Y55028752D01*
X74134742Y45420019D02*
X73801409Y45896209D01*
X73563314Y45420019D02*
X73563314Y46420019D01*
X73944266Y46420019D01*
X74039504Y46372400D01*
X74087123Y46324780D01*
X74134742Y46229542D01*
X74134742Y46086685D01*
X74087123Y45991447D01*
X74039504Y45943828D01*
X73944266Y45896209D01*
X73563314Y45896209D01*
X74468076Y46420019D02*
X75087123Y46420019D01*
X74753790Y46039066D01*
X74896647Y46039066D01*
X74991885Y45991447D01*
X75039504Y45943828D01*
X75087123Y45848590D01*
X75087123Y45610495D01*
X75039504Y45515257D01*
X74991885Y45467638D01*
X74896647Y45420019D01*
X74610933Y45420019D01*
X74515695Y45467638D01*
X74468076Y45515257D01*
X75420457Y46420019D02*
X76039504Y46420019D01*
X75706171Y46039066D01*
X75849028Y46039066D01*
X75944266Y45991447D01*
X75991885Y45943828D01*
X76039504Y45848590D01*
X76039504Y45610495D01*
X75991885Y45515257D01*
X75944266Y45467638D01*
X75849028Y45420019D01*
X75563314Y45420019D01*
X75468076Y45467638D01*
X75420457Y45515257D01*
X79570342Y52937419D02*
X79237009Y53413609D01*
X78998914Y52937419D02*
X78998914Y53937419D01*
X79379866Y53937419D01*
X79475104Y53889800D01*
X79522723Y53842180D01*
X79570342Y53746942D01*
X79570342Y53604085D01*
X79522723Y53508847D01*
X79475104Y53461228D01*
X79379866Y53413609D01*
X78998914Y53413609D01*
X79951295Y53842180D02*
X79998914Y53889800D01*
X80094152Y53937419D01*
X80332247Y53937419D01*
X80427485Y53889800D01*
X80475104Y53842180D01*
X80522723Y53746942D01*
X80522723Y53651704D01*
X80475104Y53508847D01*
X79903676Y52937419D01*
X80522723Y52937419D01*
X81141771Y53937419D02*
X81237009Y53937419D01*
X81332247Y53889800D01*
X81379866Y53842180D01*
X81427485Y53746942D01*
X81475104Y53556466D01*
X81475104Y53318371D01*
X81427485Y53127895D01*
X81379866Y53032657D01*
X81332247Y52985038D01*
X81237009Y52937419D01*
X81141771Y52937419D01*
X81046533Y52985038D01*
X80998914Y53032657D01*
X80951295Y53127895D01*
X80903676Y53318371D01*
X80903676Y53556466D01*
X80951295Y53746942D01*
X80998914Y53842180D01*
X81046533Y53889800D01*
X81141771Y53937419D01*
X133872561Y66306866D02*
X133920180Y66449723D01*
X133920180Y66687819D01*
X133872561Y66783057D01*
X133824942Y66830676D01*
X133729704Y66878295D01*
X133634466Y66878295D01*
X133539228Y66830676D01*
X133491609Y66783057D01*
X133443990Y66687819D01*
X133396371Y66497342D01*
X133348752Y66402104D01*
X133301133Y66354485D01*
X133205895Y66306866D01*
X133110657Y66306866D01*
X133015419Y66354485D01*
X132967800Y66402104D01*
X132920180Y66497342D01*
X132920180Y66735438D01*
X132967800Y66878295D01*
X132920180Y67211628D02*
X133920180Y67449723D01*
X133205895Y67640200D01*
X133920180Y67830676D01*
X132920180Y68068771D01*
X133920180Y68973533D02*
X133920180Y68402104D01*
X133920180Y68687819D02*
X132920180Y68687819D01*
X133063038Y68592580D01*
X133158276Y68497342D01*
X133205895Y68402104D01*
X81055142Y77247583D02*
X81102761Y77199964D01*
X81150380Y77057107D01*
X81150380Y76961869D01*
X81102761Y76819011D01*
X81007523Y76723773D01*
X80912285Y76676154D01*
X80721809Y76628535D01*
X80578952Y76628535D01*
X80388476Y76676154D01*
X80293238Y76723773D01*
X80198000Y76819011D01*
X80150380Y76961869D01*
X80150380Y77057107D01*
X80198000Y77199964D01*
X80245619Y77247583D01*
X80150380Y77580916D02*
X80150380Y78199964D01*
X80531333Y77866630D01*
X80531333Y78009488D01*
X80578952Y78104726D01*
X80626571Y78152345D01*
X80721809Y78199964D01*
X80959904Y78199964D01*
X81055142Y78152345D01*
X81102761Y78104726D01*
X81150380Y78009488D01*
X81150380Y77723773D01*
X81102761Y77628535D01*
X81055142Y77580916D01*
X84103142Y77247583D02*
X84150761Y77199964D01*
X84198380Y77057107D01*
X84198380Y76961869D01*
X84150761Y76819011D01*
X84055523Y76723773D01*
X83960285Y76676154D01*
X83769809Y76628535D01*
X83626952Y76628535D01*
X83436476Y76676154D01*
X83341238Y76723773D01*
X83246000Y76819011D01*
X83198380Y76961869D01*
X83198380Y77057107D01*
X83246000Y77199964D01*
X83293619Y77247583D01*
X83531714Y78104726D02*
X84198380Y78104726D01*
X83150761Y77866630D02*
X83865047Y77628535D01*
X83865047Y78247583D01*
X98690133Y61264257D02*
X98642514Y61216638D01*
X98499657Y61169019D01*
X98404419Y61169019D01*
X98261561Y61216638D01*
X98166323Y61311876D01*
X98118704Y61407114D01*
X98071085Y61597590D01*
X98071085Y61740447D01*
X98118704Y61930923D01*
X98166323Y62026161D01*
X98261561Y62121400D01*
X98404419Y62169019D01*
X98499657Y62169019D01*
X98642514Y62121400D01*
X98690133Y62073780D01*
X99023466Y62169019D02*
X99690133Y62169019D01*
X99261561Y61169019D01*
X109825333Y79667107D02*
X109777714Y79619488D01*
X109634857Y79571869D01*
X109539619Y79571869D01*
X109396761Y79619488D01*
X109301523Y79714726D01*
X109253904Y79809964D01*
X109206285Y80000440D01*
X109206285Y80143297D01*
X109253904Y80333773D01*
X109301523Y80429011D01*
X109396761Y80524250D01*
X109539619Y80571869D01*
X109634857Y80571869D01*
X109777714Y80524250D01*
X109825333Y80476630D01*
X110682476Y80571869D02*
X110492000Y80571869D01*
X110396761Y80524250D01*
X110349142Y80476630D01*
X110253904Y80333773D01*
X110206285Y80143297D01*
X110206285Y79762345D01*
X110253904Y79667107D01*
X110301523Y79619488D01*
X110396761Y79571869D01*
X110587238Y79571869D01*
X110682476Y79619488D01*
X110730095Y79667107D01*
X110777714Y79762345D01*
X110777714Y80000440D01*
X110730095Y80095678D01*
X110682476Y80143297D01*
X110587238Y80190916D01*
X110396761Y80190916D01*
X110301523Y80143297D01*
X110253904Y80095678D01*
X110206285Y80000440D01*
X81331342Y47871142D02*
X81378961Y47823523D01*
X81426580Y47680666D01*
X81426580Y47585428D01*
X81378961Y47442571D01*
X81283723Y47347333D01*
X81188485Y47299714D01*
X80998009Y47252095D01*
X80855152Y47252095D01*
X80664676Y47299714D01*
X80569438Y47347333D01*
X80474200Y47442571D01*
X80426580Y47585428D01*
X80426580Y47680666D01*
X80474200Y47823523D01*
X80521819Y47871142D01*
X81426580Y48823523D02*
X81426580Y48252095D01*
X81426580Y48537809D02*
X80426580Y48537809D01*
X80569438Y48442571D01*
X80664676Y48347333D01*
X80712295Y48252095D01*
X80521819Y49204476D02*
X80474200Y49252095D01*
X80426580Y49347333D01*
X80426580Y49585428D01*
X80474200Y49680666D01*
X80521819Y49728285D01*
X80617057Y49775904D01*
X80712295Y49775904D01*
X80855152Y49728285D01*
X81426580Y49156857D01*
X81426580Y49775904D01*
X85192142Y47236142D02*
X85239761Y47188523D01*
X85287380Y47045666D01*
X85287380Y46950428D01*
X85239761Y46807571D01*
X85144523Y46712333D01*
X85049285Y46664714D01*
X84858809Y46617095D01*
X84715952Y46617095D01*
X84525476Y46664714D01*
X84430238Y46712333D01*
X84335000Y46807571D01*
X84287380Y46950428D01*
X84287380Y47045666D01*
X84335000Y47188523D01*
X84382619Y47236142D01*
X85287380Y48188523D02*
X85287380Y47617095D01*
X85287380Y47902809D02*
X84287380Y47902809D01*
X84430238Y47807571D01*
X84525476Y47712333D01*
X84573095Y47617095D01*
X85287380Y49140904D02*
X85287380Y48569476D01*
X85287380Y48855190D02*
X84287380Y48855190D01*
X84430238Y48759952D01*
X84525476Y48664714D01*
X84573095Y48569476D01*
X100417333Y71699107D02*
X100369714Y71651488D01*
X100226857Y71603869D01*
X100131619Y71603869D01*
X99988761Y71651488D01*
X99893523Y71746726D01*
X99845904Y71841964D01*
X99798285Y72032440D01*
X99798285Y72175297D01*
X99845904Y72365773D01*
X99893523Y72461011D01*
X99988761Y72556250D01*
X100131619Y72603869D01*
X100226857Y72603869D01*
X100369714Y72556250D01*
X100417333Y72508630D01*
X101322095Y72603869D02*
X100845904Y72603869D01*
X100798285Y72127678D01*
X100845904Y72175297D01*
X100941142Y72222916D01*
X101179238Y72222916D01*
X101274476Y72175297D01*
X101322095Y72127678D01*
X101369714Y72032440D01*
X101369714Y71794345D01*
X101322095Y71699107D01*
X101274476Y71651488D01*
X101179238Y71603869D01*
X100941142Y71603869D01*
X100845904Y71651488D01*
X100798285Y71699107D01*
X103465333Y57504057D02*
X103417714Y57456438D01*
X103274857Y57408819D01*
X103179619Y57408819D01*
X103036761Y57456438D01*
X102941523Y57551676D01*
X102893904Y57646914D01*
X102846285Y57837390D01*
X102846285Y57980247D01*
X102893904Y58170723D01*
X102941523Y58265961D01*
X103036761Y58361200D01*
X103179619Y58408819D01*
X103274857Y58408819D01*
X103417714Y58361200D01*
X103465333Y58313580D01*
X104036761Y57980247D02*
X103941523Y58027866D01*
X103893904Y58075485D01*
X103846285Y58170723D01*
X103846285Y58218342D01*
X103893904Y58313580D01*
X103941523Y58361200D01*
X104036761Y58408819D01*
X104227238Y58408819D01*
X104322476Y58361200D01*
X104370095Y58313580D01*
X104417714Y58218342D01*
X104417714Y58170723D01*
X104370095Y58075485D01*
X104322476Y58027866D01*
X104227238Y57980247D01*
X104036761Y57980247D01*
X103941523Y57932628D01*
X103893904Y57885009D01*
X103846285Y57789771D01*
X103846285Y57599295D01*
X103893904Y57504057D01*
X103941523Y57456438D01*
X104036761Y57408819D01*
X104227238Y57408819D01*
X104322476Y57456438D01*
X104370095Y57504057D01*
X104417714Y57599295D01*
X104417714Y57789771D01*
X104370095Y57885009D01*
X104322476Y57932628D01*
X104227238Y57980247D01*
X119833333Y64799107D02*
X119785714Y64751488D01*
X119642857Y64703869D01*
X119547619Y64703869D01*
X119404761Y64751488D01*
X119309523Y64846726D01*
X119261904Y64941964D01*
X119214285Y65132440D01*
X119214285Y65275297D01*
X119261904Y65465773D01*
X119309523Y65561011D01*
X119404761Y65656250D01*
X119547619Y65703869D01*
X119642857Y65703869D01*
X119785714Y65656250D01*
X119833333Y65608630D01*
X120309523Y64703869D02*
X120500000Y64703869D01*
X120595238Y64751488D01*
X120642857Y64799107D01*
X120738095Y64941964D01*
X120785714Y65132440D01*
X120785714Y65513392D01*
X120738095Y65608630D01*
X120690476Y65656250D01*
X120595238Y65703869D01*
X120404761Y65703869D01*
X120309523Y65656250D01*
X120261904Y65608630D01*
X120214285Y65513392D01*
X120214285Y65275297D01*
X120261904Y65180059D01*
X120309523Y65132440D01*
X120404761Y65084821D01*
X120595238Y65084821D01*
X120690476Y65132440D01*
X120738095Y65180059D01*
X120785714Y65275297D01*
X112619333Y58331107D02*
X112571714Y58283488D01*
X112428857Y58235869D01*
X112333619Y58235869D01*
X112190761Y58283488D01*
X112095523Y58378726D01*
X112047904Y58473964D01*
X112000285Y58664440D01*
X112000285Y58807297D01*
X112047904Y58997773D01*
X112095523Y59093011D01*
X112190761Y59188250D01*
X112333619Y59235869D01*
X112428857Y59235869D01*
X112571714Y59188250D01*
X112619333Y59140630D01*
X113571714Y58235869D02*
X113000285Y58235869D01*
X113286000Y58235869D02*
X113286000Y59235869D01*
X113190761Y59093011D01*
X113095523Y58997773D01*
X113000285Y58950154D01*
X106269333Y55031107D02*
X106221714Y54983488D01*
X106078857Y54935869D01*
X105983619Y54935869D01*
X105840761Y54983488D01*
X105745523Y55078726D01*
X105697904Y55173964D01*
X105650285Y55364440D01*
X105650285Y55507297D01*
X105697904Y55697773D01*
X105745523Y55793011D01*
X105840761Y55888250D01*
X105983619Y55935869D01*
X106078857Y55935869D01*
X106221714Y55888250D01*
X106269333Y55840630D01*
X106650285Y55840630D02*
X106697904Y55888250D01*
X106793142Y55935869D01*
X107031238Y55935869D01*
X107126476Y55888250D01*
X107174095Y55840630D01*
X107221714Y55745392D01*
X107221714Y55650154D01*
X107174095Y55507297D01*
X106602666Y54935869D01*
X107221714Y54935869D01*
X99737942Y64159857D02*
X99690323Y64112238D01*
X99547466Y64064619D01*
X99452228Y64064619D01*
X99309371Y64112238D01*
X99214133Y64207476D01*
X99166514Y64302714D01*
X99118895Y64493190D01*
X99118895Y64636047D01*
X99166514Y64826523D01*
X99214133Y64921761D01*
X99309371Y65017000D01*
X99452228Y65064619D01*
X99547466Y65064619D01*
X99690323Y65017000D01*
X99737942Y64969380D01*
X100690323Y64064619D02*
X100118895Y64064619D01*
X100404609Y64064619D02*
X100404609Y65064619D01*
X100309371Y64921761D01*
X100214133Y64826523D01*
X100118895Y64778904D01*
X101309371Y65064619D02*
X101404609Y65064619D01*
X101499847Y65017000D01*
X101547466Y64969380D01*
X101595085Y64874142D01*
X101642704Y64683666D01*
X101642704Y64445571D01*
X101595085Y64255095D01*
X101547466Y64159857D01*
X101499847Y64112238D01*
X101404609Y64064619D01*
X101309371Y64064619D01*
X101214133Y64112238D01*
X101166514Y64159857D01*
X101118895Y64255095D01*
X101071276Y64445571D01*
X101071276Y64683666D01*
X101118895Y64874142D01*
X101166514Y64969380D01*
X101214133Y65017000D01*
X101309371Y65064619D01*
X49146380Y84662892D02*
X48670190Y84329559D01*
X49146380Y84091464D02*
X48146380Y84091464D01*
X48146380Y84472416D01*
X48194000Y84567654D01*
X48241619Y84615273D01*
X48336857Y84662892D01*
X48479714Y84662892D01*
X48574952Y84615273D01*
X48622571Y84567654D01*
X48670190Y84472416D01*
X48670190Y84091464D01*
X48241619Y85043845D02*
X48194000Y85091464D01*
X48146380Y85186702D01*
X48146380Y85424797D01*
X48194000Y85520035D01*
X48241619Y85567654D01*
X48336857Y85615273D01*
X48432095Y85615273D01*
X48574952Y85567654D01*
X49146380Y84996226D01*
X49146380Y85615273D01*
X48241619Y85996226D02*
X48194000Y86043845D01*
X48146380Y86139083D01*
X48146380Y86377178D01*
X48194000Y86472416D01*
X48241619Y86520035D01*
X48336857Y86567654D01*
X48432095Y86567654D01*
X48574952Y86520035D01*
X49146380Y85948607D01*
X49146380Y86567654D01*
X77338380Y85915392D02*
X76862190Y85582059D01*
X77338380Y85343964D02*
X76338380Y85343964D01*
X76338380Y85724916D01*
X76386000Y85820154D01*
X76433619Y85867773D01*
X76528857Y85915392D01*
X76671714Y85915392D01*
X76766952Y85867773D01*
X76814571Y85820154D01*
X76862190Y85724916D01*
X76862190Y85343964D01*
X77338380Y86867773D02*
X77338380Y86296345D01*
X77338380Y86582059D02*
X76338380Y86582059D01*
X76481238Y86486821D01*
X76576476Y86391583D01*
X76624095Y86296345D01*
X76338380Y87772535D02*
X76338380Y87296345D01*
X76814571Y87248726D01*
X76766952Y87296345D01*
X76719333Y87391583D01*
X76719333Y87629678D01*
X76766952Y87724916D01*
X76814571Y87772535D01*
X76909809Y87820154D01*
X77147904Y87820154D01*
X77243142Y87772535D01*
X77290761Y87724916D01*
X77338380Y87629678D01*
X77338380Y87391583D01*
X77290761Y87296345D01*
X77243142Y87248726D01*
X96357142Y52903869D02*
X96023809Y53380059D01*
X95785714Y52903869D02*
X95785714Y53903869D01*
X96166666Y53903869D01*
X96261904Y53856250D01*
X96309523Y53808630D01*
X96357142Y53713392D01*
X96357142Y53570535D01*
X96309523Y53475297D01*
X96261904Y53427678D01*
X96166666Y53380059D01*
X95785714Y53380059D01*
X97309523Y52903869D02*
X96738095Y52903869D01*
X97023809Y52903869D02*
X97023809Y53903869D01*
X96928571Y53761011D01*
X96833333Y53665773D01*
X96738095Y53618154D01*
X98166666Y53570535D02*
X98166666Y52903869D01*
X97928571Y53951488D02*
X97690476Y53237202D01*
X98309523Y53237202D01*
X64130380Y84699392D02*
X63654190Y84366059D01*
X64130380Y84127964D02*
X63130380Y84127964D01*
X63130380Y84508916D01*
X63178000Y84604154D01*
X63225619Y84651773D01*
X63320857Y84699392D01*
X63463714Y84699392D01*
X63558952Y84651773D01*
X63606571Y84604154D01*
X63654190Y84508916D01*
X63654190Y84127964D01*
X64130380Y85651773D02*
X64130380Y85080345D01*
X64130380Y85366059D02*
X63130380Y85366059D01*
X63273238Y85270821D01*
X63368476Y85175583D01*
X63416095Y85080345D01*
X63130380Y85985107D02*
X63130380Y86604154D01*
X63511333Y86270821D01*
X63511333Y86413678D01*
X63558952Y86508916D01*
X63606571Y86556535D01*
X63701809Y86604154D01*
X63939904Y86604154D01*
X64035142Y86556535D01*
X64082761Y86508916D01*
X64130380Y86413678D01*
X64130380Y86127964D01*
X64082761Y86032726D01*
X64035142Y85985107D01*
X57018380Y84662892D02*
X56542190Y84329559D01*
X57018380Y84091464D02*
X56018380Y84091464D01*
X56018380Y84472416D01*
X56066000Y84567654D01*
X56113619Y84615273D01*
X56208857Y84662892D01*
X56351714Y84662892D01*
X56446952Y84615273D01*
X56494571Y84567654D01*
X56542190Y84472416D01*
X56542190Y84091464D01*
X57018380Y85615273D02*
X57018380Y85043845D01*
X57018380Y85329559D02*
X56018380Y85329559D01*
X56161238Y85234321D01*
X56256476Y85139083D01*
X56304095Y85043845D01*
X56113619Y85996226D02*
X56066000Y86043845D01*
X56018380Y86139083D01*
X56018380Y86377178D01*
X56066000Y86472416D01*
X56113619Y86520035D01*
X56208857Y86567654D01*
X56304095Y86567654D01*
X56446952Y86520035D01*
X57018380Y85948607D01*
X57018380Y86567654D01*
X88770380Y78331892D02*
X88294190Y77998559D01*
X88770380Y77760464D02*
X87770380Y77760464D01*
X87770380Y78141416D01*
X87818000Y78236654D01*
X87865619Y78284273D01*
X87960857Y78331892D01*
X88103714Y78331892D01*
X88198952Y78284273D01*
X88246571Y78236654D01*
X88294190Y78141416D01*
X88294190Y77760464D01*
X88770380Y79284273D02*
X88770380Y78712845D01*
X88770380Y78998559D02*
X87770380Y78998559D01*
X87913238Y78903321D01*
X88008476Y78808083D01*
X88056095Y78712845D01*
X88770380Y80236654D02*
X88770380Y79665226D01*
X88770380Y79950940D02*
X87770380Y79950940D01*
X87913238Y79855702D01*
X88008476Y79760464D01*
X88056095Y79665226D01*
X121550133Y69322419D02*
X121216800Y69798609D01*
X120978704Y69322419D02*
X120978704Y70322419D01*
X121359657Y70322419D01*
X121454895Y70274800D01*
X121502514Y70227180D01*
X121550133Y70131942D01*
X121550133Y69989085D01*
X121502514Y69893847D01*
X121454895Y69846228D01*
X121359657Y69798609D01*
X120978704Y69798609D01*
X121883466Y70322419D02*
X122550133Y70322419D01*
X122121561Y69322419D01*
X73732380Y75353942D02*
X73256190Y75020609D01*
X73732380Y74782514D02*
X72732380Y74782514D01*
X72732380Y75163466D01*
X72780000Y75258704D01*
X72827619Y75306323D01*
X72922857Y75353942D01*
X73065714Y75353942D01*
X73160952Y75306323D01*
X73208571Y75258704D01*
X73256190Y75163466D01*
X73256190Y74782514D01*
X72827619Y75734895D02*
X72780000Y75782514D01*
X72732380Y75877752D01*
X72732380Y76115847D01*
X72780000Y76211085D01*
X72827619Y76258704D01*
X72922857Y76306323D01*
X73018095Y76306323D01*
X73160952Y76258704D01*
X73732380Y75687276D01*
X73732380Y76306323D01*
X72732380Y77163466D02*
X72732380Y76972990D01*
X72780000Y76877752D01*
X72827619Y76830133D01*
X72970476Y76734895D01*
X73160952Y76687276D01*
X73541904Y76687276D01*
X73637142Y76734895D01*
X73684761Y76782514D01*
X73732380Y76877752D01*
X73732380Y77068228D01*
X73684761Y77163466D01*
X73637142Y77211085D01*
X73541904Y77258704D01*
X73303809Y77258704D01*
X73208571Y77211085D01*
X73160952Y77163466D01*
X73113333Y77068228D01*
X73113333Y76877752D01*
X73160952Y76782514D01*
X73208571Y76734895D01*
X73303809Y76687276D01*
X117604454Y76099439D02*
X117032035Y76200454D01*
X117200393Y75695378D02*
X116493287Y76402485D01*
X116762661Y76671859D01*
X116863676Y76705531D01*
X116931019Y76705531D01*
X117032035Y76671859D01*
X117133050Y76570844D01*
X117166722Y76469828D01*
X117166722Y76402485D01*
X117133050Y76301470D01*
X116863676Y76032096D01*
X117133050Y77042248D02*
X117570783Y77479981D01*
X117604454Y76974905D01*
X117705470Y77075920D01*
X117806485Y77109592D01*
X117873829Y77109592D01*
X117974844Y77075920D01*
X118143203Y76907561D01*
X118176874Y76806546D01*
X118176874Y76739202D01*
X118143203Y76638187D01*
X117941172Y76436157D01*
X117840157Y76402485D01*
X117772813Y76402485D01*
X118008516Y77917714D02*
X118075859Y77985057D01*
X118176874Y78018729D01*
X118244218Y78018729D01*
X118345233Y77985057D01*
X118513592Y77884042D01*
X118681951Y77715683D01*
X118782966Y77547325D01*
X118816638Y77446309D01*
X118816638Y77378966D01*
X118782966Y77277951D01*
X118715622Y77210607D01*
X118614607Y77176935D01*
X118547264Y77176935D01*
X118446248Y77210607D01*
X118277890Y77311622D01*
X118109531Y77479981D01*
X118008516Y77648340D01*
X117974844Y77749355D01*
X117974844Y77816699D01*
X118008516Y77917714D01*
X96390380Y47343892D02*
X95914190Y47010559D01*
X96390380Y46772464D02*
X95390380Y46772464D01*
X95390380Y47153416D01*
X95438000Y47248654D01*
X95485619Y47296273D01*
X95580857Y47343892D01*
X95723714Y47343892D01*
X95818952Y47296273D01*
X95866571Y47248654D01*
X95914190Y47153416D01*
X95914190Y46772464D01*
X95485619Y47724845D02*
X95438000Y47772464D01*
X95390380Y47867702D01*
X95390380Y48105797D01*
X95438000Y48201035D01*
X95485619Y48248654D01*
X95580857Y48296273D01*
X95676095Y48296273D01*
X95818952Y48248654D01*
X96390380Y47677226D01*
X96390380Y48296273D01*
X96390380Y49248654D02*
X96390380Y48677226D01*
X96390380Y48962940D02*
X95390380Y48962940D01*
X95533238Y48867702D01*
X95628476Y48772464D01*
X95676095Y48677226D01*
X57274380Y84662892D02*
X56798190Y84329559D01*
X57274380Y84091464D02*
X56274380Y84091464D01*
X56274380Y84472416D01*
X56322000Y84567654D01*
X56369619Y84615273D01*
X56464857Y84662892D01*
X56607714Y84662892D01*
X56702952Y84615273D01*
X56750571Y84567654D01*
X56798190Y84472416D01*
X56798190Y84091464D01*
X56369619Y85043845D02*
X56322000Y85091464D01*
X56274380Y85186702D01*
X56274380Y85424797D01*
X56322000Y85520035D01*
X56369619Y85567654D01*
X56464857Y85615273D01*
X56560095Y85615273D01*
X56702952Y85567654D01*
X57274380Y84996226D01*
X57274380Y85615273D01*
X56274380Y85948607D02*
X56274380Y86567654D01*
X56655333Y86234321D01*
X56655333Y86377178D01*
X56702952Y86472416D01*
X56750571Y86520035D01*
X56845809Y86567654D01*
X57083904Y86567654D01*
X57179142Y86520035D01*
X57226761Y86472416D01*
X57274380Y86377178D01*
X57274380Y86091464D01*
X57226761Y85996226D01*
X57179142Y85948607D01*
X102712780Y46626542D02*
X102236590Y46293209D01*
X102712780Y46055114D02*
X101712780Y46055114D01*
X101712780Y46436066D01*
X101760400Y46531304D01*
X101808019Y46578923D01*
X101903257Y46626542D01*
X102046114Y46626542D01*
X102141352Y46578923D01*
X102188971Y46531304D01*
X102236590Y46436066D01*
X102236590Y46055114D01*
X101808019Y47007495D02*
X101760400Y47055114D01*
X101712780Y47150352D01*
X101712780Y47388447D01*
X101760400Y47483685D01*
X101808019Y47531304D01*
X101903257Y47578923D01*
X101998495Y47578923D01*
X102141352Y47531304D01*
X102712780Y46959876D01*
X102712780Y47578923D01*
X102046114Y48436066D02*
X102712780Y48436066D01*
X101665161Y48197971D02*
X102379447Y47959876D01*
X102379447Y48578923D01*
X64386380Y84662892D02*
X63910190Y84329559D01*
X64386380Y84091464D02*
X63386380Y84091464D01*
X63386380Y84472416D01*
X63434000Y84567654D01*
X63481619Y84615273D01*
X63576857Y84662892D01*
X63719714Y84662892D01*
X63814952Y84615273D01*
X63862571Y84567654D01*
X63910190Y84472416D01*
X63910190Y84091464D01*
X63481619Y85043845D02*
X63434000Y85091464D01*
X63386380Y85186702D01*
X63386380Y85424797D01*
X63434000Y85520035D01*
X63481619Y85567654D01*
X63576857Y85615273D01*
X63672095Y85615273D01*
X63814952Y85567654D01*
X64386380Y84996226D01*
X64386380Y85615273D01*
X63386380Y86520035D02*
X63386380Y86043845D01*
X63862571Y85996226D01*
X63814952Y86043845D01*
X63767333Y86139083D01*
X63767333Y86377178D01*
X63814952Y86472416D01*
X63862571Y86520035D01*
X63957809Y86567654D01*
X64195904Y86567654D01*
X64291142Y86520035D01*
X64338761Y86472416D01*
X64386380Y86377178D01*
X64386380Y86139083D01*
X64338761Y86043845D01*
X64291142Y85996226D01*
X119351756Y75052741D02*
X118779336Y75153756D01*
X118947695Y74648680D02*
X118240588Y75355786D01*
X118509962Y75625161D01*
X118610977Y75658832D01*
X118678321Y75658832D01*
X118779336Y75625161D01*
X118880351Y75524145D01*
X118914023Y75423130D01*
X118914023Y75355786D01*
X118880351Y75254771D01*
X118610977Y74985397D01*
X119351756Y75860863D02*
X119250741Y75827191D01*
X119183397Y75827191D01*
X119082382Y75860863D01*
X119048710Y75894535D01*
X119015038Y75995550D01*
X119015038Y76062893D01*
X119048710Y76163909D01*
X119183397Y76298596D01*
X119284413Y76332267D01*
X119351756Y76332267D01*
X119452771Y76298596D01*
X119486443Y76264924D01*
X119520115Y76163909D01*
X119520115Y76096565D01*
X119486443Y75995550D01*
X119351756Y75860863D01*
X119318084Y75759848D01*
X119318084Y75692504D01*
X119351756Y75591489D01*
X119486443Y75456802D01*
X119587458Y75423130D01*
X119654802Y75423130D01*
X119755817Y75456802D01*
X119890504Y75591489D01*
X119924176Y75692504D01*
X119924176Y75759848D01*
X119890504Y75860863D01*
X119755817Y75995550D01*
X119654802Y76029222D01*
X119587458Y76029222D01*
X119486443Y75995550D01*
X120915133Y73335619D02*
X120581800Y73811809D01*
X120343704Y73335619D02*
X120343704Y74335619D01*
X120724657Y74335619D01*
X120819895Y74288000D01*
X120867514Y74240380D01*
X120915133Y74145142D01*
X120915133Y74002285D01*
X120867514Y73907047D01*
X120819895Y73859428D01*
X120724657Y73811809D01*
X120343704Y73811809D01*
X121391323Y73335619D02*
X121581800Y73335619D01*
X121677038Y73383238D01*
X121724657Y73430857D01*
X121819895Y73573714D01*
X121867514Y73764190D01*
X121867514Y74145142D01*
X121819895Y74240380D01*
X121772276Y74288000D01*
X121677038Y74335619D01*
X121486561Y74335619D01*
X121391323Y74288000D01*
X121343704Y74240380D01*
X121296085Y74145142D01*
X121296085Y73907047D01*
X121343704Y73811809D01*
X121391323Y73764190D01*
X121486561Y73716571D01*
X121677038Y73716571D01*
X121772276Y73764190D01*
X121819895Y73811809D01*
X121867514Y73907047D01*
X99717333Y68790869D02*
X99384000Y69267059D01*
X99145904Y68790869D02*
X99145904Y69790869D01*
X99526857Y69790869D01*
X99622095Y69743250D01*
X99669714Y69695630D01*
X99717333Y69600392D01*
X99717333Y69457535D01*
X99669714Y69362297D01*
X99622095Y69314678D01*
X99526857Y69267059D01*
X99145904Y69267059D01*
X100050666Y69790869D02*
X100669714Y69790869D01*
X100336380Y69409916D01*
X100479238Y69409916D01*
X100574476Y69362297D01*
X100622095Y69314678D01*
X100669714Y69219440D01*
X100669714Y68981345D01*
X100622095Y68886107D01*
X100574476Y68838488D01*
X100479238Y68790869D01*
X100193523Y68790869D01*
X100098285Y68838488D01*
X100050666Y68886107D01*
X99720833Y66488869D02*
X99387500Y66965059D01*
X99149404Y66488869D02*
X99149404Y67488869D01*
X99530357Y67488869D01*
X99625595Y67441250D01*
X99673214Y67393630D01*
X99720833Y67298392D01*
X99720833Y67155535D01*
X99673214Y67060297D01*
X99625595Y67012678D01*
X99530357Y66965059D01*
X99149404Y66965059D01*
X100577976Y67155535D02*
X100577976Y66488869D01*
X100339880Y67536488D02*
X100101785Y66822202D01*
X100720833Y66822202D01*
X79013580Y75830133D02*
X78537390Y75496800D01*
X79013580Y75258704D02*
X78013580Y75258704D01*
X78013580Y75639657D01*
X78061200Y75734895D01*
X78108819Y75782514D01*
X78204057Y75830133D01*
X78346914Y75830133D01*
X78442152Y75782514D01*
X78489771Y75734895D01*
X78537390Y75639657D01*
X78537390Y75258704D01*
X79013580Y76782514D02*
X79013580Y76211085D01*
X79013580Y76496800D02*
X78013580Y76496800D01*
X78156438Y76401561D01*
X78251676Y76306323D01*
X78299295Y76211085D01*
X116948756Y78293791D02*
X116376336Y78394806D01*
X116544695Y77889730D02*
X115837588Y78596836D01*
X116106962Y78866211D01*
X116207977Y78899882D01*
X116275321Y78899882D01*
X116376336Y78866211D01*
X116477351Y78765195D01*
X116511023Y78664180D01*
X116511023Y78596836D01*
X116477351Y78495821D01*
X116207977Y78226447D01*
X116847741Y79606989D02*
X116713054Y79472302D01*
X116679382Y79371287D01*
X116679382Y79303943D01*
X116713054Y79135585D01*
X116814069Y78967226D01*
X117083443Y78697852D01*
X117184458Y78664180D01*
X117251802Y78664180D01*
X117352817Y78697852D01*
X117487504Y78832539D01*
X117521176Y78933554D01*
X117521176Y79000898D01*
X117487504Y79101913D01*
X117319145Y79270272D01*
X117218130Y79303943D01*
X117150787Y79303943D01*
X117049771Y79270272D01*
X116915084Y79135585D01*
X116881413Y79034569D01*
X116881413Y78967226D01*
X116915084Y78866211D01*
X84440733Y57891419D02*
X84107400Y58367609D01*
X83869304Y57891419D02*
X83869304Y58891419D01*
X84250257Y58891419D01*
X84345495Y58843800D01*
X84393114Y58796180D01*
X84440733Y58700942D01*
X84440733Y58558085D01*
X84393114Y58462847D01*
X84345495Y58415228D01*
X84250257Y58367609D01*
X83869304Y58367609D01*
X84821685Y58796180D02*
X84869304Y58843800D01*
X84964542Y58891419D01*
X85202638Y58891419D01*
X85297876Y58843800D01*
X85345495Y58796180D01*
X85393114Y58700942D01*
X85393114Y58605704D01*
X85345495Y58462847D01*
X84774066Y57891419D01*
X85393114Y57891419D01*
X120438942Y74603619D02*
X120105609Y75079809D01*
X119867514Y74603619D02*
X119867514Y75603619D01*
X120248466Y75603619D01*
X120343704Y75556000D01*
X120391323Y75508380D01*
X120438942Y75413142D01*
X120438942Y75270285D01*
X120391323Y75175047D01*
X120343704Y75127428D01*
X120248466Y75079809D01*
X119867514Y75079809D01*
X120772276Y75603619D02*
X121391323Y75603619D01*
X121057990Y75222666D01*
X121200847Y75222666D01*
X121296085Y75175047D01*
X121343704Y75127428D01*
X121391323Y75032190D01*
X121391323Y74794095D01*
X121343704Y74698857D01*
X121296085Y74651238D01*
X121200847Y74603619D01*
X120915133Y74603619D01*
X120819895Y74651238D01*
X120772276Y74698857D01*
X122343704Y74603619D02*
X121772276Y74603619D01*
X122057990Y74603619D02*
X122057990Y75603619D01*
X121962752Y75460761D01*
X121867514Y75365523D01*
X121772276Y75317904D01*
X96948666Y61406019D02*
X96948666Y60691733D01*
X96901047Y60548876D01*
X96805809Y60453638D01*
X96662952Y60406019D01*
X96567714Y60406019D01*
X97853428Y61406019D02*
X97662952Y61406019D01*
X97567714Y61358400D01*
X97520095Y61310780D01*
X97424857Y61167923D01*
X97377238Y60977447D01*
X97377238Y60596495D01*
X97424857Y60501257D01*
X97472476Y60453638D01*
X97567714Y60406019D01*
X97758190Y60406019D01*
X97853428Y60453638D01*
X97901047Y60501257D01*
X97948666Y60596495D01*
X97948666Y60834590D01*
X97901047Y60929828D01*
X97853428Y60977447D01*
X97758190Y61025066D01*
X97567714Y61025066D01*
X97472476Y60977447D01*
X97424857Y60929828D01*
X97377238Y60834590D01*
X93466666Y59923869D02*
X93466666Y59209583D01*
X93419047Y59066726D01*
X93323809Y58971488D01*
X93180952Y58923869D01*
X93085714Y58923869D01*
X93847619Y59923869D02*
X94514285Y59923869D01*
X94085714Y58923869D01*
X92122380Y54372916D02*
X92836666Y54372916D01*
X92979523Y54325297D01*
X93074761Y54230059D01*
X93122380Y54087202D01*
X93122380Y53991964D01*
X92550952Y54991964D02*
X92503333Y54896726D01*
X92455714Y54849107D01*
X92360476Y54801488D01*
X92312857Y54801488D01*
X92217619Y54849107D01*
X92170000Y54896726D01*
X92122380Y54991964D01*
X92122380Y55182440D01*
X92170000Y55277678D01*
X92217619Y55325297D01*
X92312857Y55372916D01*
X92360476Y55372916D01*
X92455714Y55325297D01*
X92503333Y55277678D01*
X92550952Y55182440D01*
X92550952Y54991964D01*
X92598571Y54896726D01*
X92646190Y54849107D01*
X92741428Y54801488D01*
X92931904Y54801488D01*
X93027142Y54849107D01*
X93074761Y54896726D01*
X93122380Y54991964D01*
X93122380Y55182440D01*
X93074761Y55277678D01*
X93027142Y55325297D01*
X92931904Y55372916D01*
X92741428Y55372916D01*
X92646190Y55325297D01*
X92598571Y55277678D01*
X92550952Y55182440D01*
X101114266Y50839619D02*
X101114266Y50125333D01*
X101066647Y49982476D01*
X100971409Y49887238D01*
X100828552Y49839619D01*
X100733314Y49839619D01*
X101638076Y49839619D02*
X101828552Y49839619D01*
X101923790Y49887238D01*
X101971409Y49934857D01*
X102066647Y50077714D01*
X102114266Y50268190D01*
X102114266Y50649142D01*
X102066647Y50744380D01*
X102019028Y50792000D01*
X101923790Y50839619D01*
X101733314Y50839619D01*
X101638076Y50792000D01*
X101590457Y50744380D01*
X101542838Y50649142D01*
X101542838Y50411047D01*
X101590457Y50315809D01*
X101638076Y50268190D01*
X101733314Y50220571D01*
X101923790Y50220571D01*
X102019028Y50268190D01*
X102066647Y50315809D01*
X102114266Y50411047D01*
X109230095Y75734869D02*
X109230095Y74925345D01*
X109277714Y74830107D01*
X109325333Y74782488D01*
X109420571Y74734869D01*
X109611047Y74734869D01*
X109706285Y74782488D01*
X109753904Y74830107D01*
X109801523Y74925345D01*
X109801523Y75734869D01*
X110230095Y75639630D02*
X110277714Y75687250D01*
X110372952Y75734869D01*
X110611047Y75734869D01*
X110706285Y75687250D01*
X110753904Y75639630D01*
X110801523Y75544392D01*
X110801523Y75449154D01*
X110753904Y75306297D01*
X110182476Y74734869D01*
X110801523Y74734869D01*
X89266666Y75533869D02*
X89266666Y74819583D01*
X89219047Y74676726D01*
X89123809Y74581488D01*
X88980952Y74533869D01*
X88885714Y74533869D01*
X90171428Y75200535D02*
X90171428Y74533869D01*
X89933333Y75581488D02*
X89695238Y74867202D01*
X90314285Y74867202D01*
X62710666Y51843869D02*
X62710666Y51129583D01*
X62663047Y50986726D01*
X62567809Y50891488D01*
X62424952Y50843869D01*
X62329714Y50843869D01*
X63091619Y51843869D02*
X63710666Y51843869D01*
X63377333Y51462916D01*
X63520190Y51462916D01*
X63615428Y51415297D01*
X63663047Y51367678D01*
X63710666Y51272440D01*
X63710666Y51034345D01*
X63663047Y50939107D01*
X63615428Y50891488D01*
X63520190Y50843869D01*
X63234476Y50843869D01*
X63139238Y50891488D01*
X63091619Y50939107D01*
X109107809Y49473059D02*
X109107809Y48996869D01*
X108774476Y49996869D02*
X109107809Y49473059D01*
X109441142Y49996869D01*
X110298285Y48996869D02*
X109726857Y48996869D01*
X110012571Y48996869D02*
X110012571Y49996869D01*
X109917333Y49854011D01*
X109822095Y49758773D01*
X109726857Y49711154D01*
X123056380Y67222154D02*
X122056380Y67222154D01*
X122056380Y67460250D01*
X122104000Y67603107D01*
X122199238Y67698345D01*
X122294476Y67745964D01*
X122484952Y67793583D01*
X122627809Y67793583D01*
X122818285Y67745964D01*
X122913523Y67698345D01*
X123008761Y67603107D01*
X123056380Y67460250D01*
X123056380Y67222154D01*
X123056380Y68745964D02*
X123056380Y68174535D01*
X123056380Y68460250D02*
X122056380Y68460250D01*
X122199238Y68365011D01*
X122294476Y68269773D01*
X122342095Y68174535D01*
X89206095Y51545869D02*
X89206095Y50736345D01*
X89253714Y50641107D01*
X89301333Y50593488D01*
X89396571Y50545869D01*
X89587047Y50545869D01*
X89682285Y50593488D01*
X89729904Y50641107D01*
X89777523Y50736345D01*
X89777523Y51545869D01*
X90729904Y51545869D02*
X90253714Y51545869D01*
X90206095Y51069678D01*
X90253714Y51117297D01*
X90348952Y51164916D01*
X90587047Y51164916D01*
X90682285Y51117297D01*
X90729904Y51069678D01*
X90777523Y50974440D01*
X90777523Y50736345D01*
X90729904Y50641107D01*
X90682285Y50593488D01*
X90587047Y50545869D01*
X90348952Y50545869D01*
X90253714Y50593488D01*
X90206095Y50641107D01*
X88190095Y57053869D02*
X88190095Y56244345D01*
X88237714Y56149107D01*
X88285333Y56101488D01*
X88380571Y56053869D01*
X88571047Y56053869D01*
X88666285Y56101488D01*
X88713904Y56149107D01*
X88761523Y56244345D01*
X88761523Y57053869D01*
X89142476Y57053869D02*
X89809142Y57053869D01*
X89380571Y56053869D01*
X87052380Y64344345D02*
X87861904Y64344345D01*
X87957142Y64391964D01*
X88004761Y64439583D01*
X88052380Y64534821D01*
X88052380Y64725297D01*
X88004761Y64820535D01*
X87957142Y64868154D01*
X87861904Y64915773D01*
X87052380Y64915773D01*
X87480952Y65534821D02*
X87433333Y65439583D01*
X87385714Y65391964D01*
X87290476Y65344345D01*
X87242857Y65344345D01*
X87147619Y65391964D01*
X87100000Y65439583D01*
X87052380Y65534821D01*
X87052380Y65725297D01*
X87100000Y65820535D01*
X87147619Y65868154D01*
X87242857Y65915773D01*
X87290476Y65915773D01*
X87385714Y65868154D01*
X87433333Y65820535D01*
X87480952Y65725297D01*
X87480952Y65534821D01*
X87528571Y65439583D01*
X87576190Y65391964D01*
X87671428Y65344345D01*
X87861904Y65344345D01*
X87957142Y65391964D01*
X88004761Y65439583D01*
X88052380Y65534821D01*
X88052380Y65725297D01*
X88004761Y65820535D01*
X87957142Y65868154D01*
X87861904Y65915773D01*
X87671428Y65915773D01*
X87576190Y65868154D01*
X87528571Y65820535D01*
X87480952Y65725297D01*
X73672380Y55824345D02*
X74481904Y55824345D01*
X74577142Y55871964D01*
X74624761Y55919583D01*
X74672380Y56014821D01*
X74672380Y56205297D01*
X74624761Y56300535D01*
X74577142Y56348154D01*
X74481904Y56395773D01*
X73672380Y56395773D01*
X74672380Y56919583D02*
X74672380Y57110059D01*
X74624761Y57205297D01*
X74577142Y57252916D01*
X74434285Y57348154D01*
X74243809Y57395773D01*
X73862857Y57395773D01*
X73767619Y57348154D01*
X73720000Y57300535D01*
X73672380Y57205297D01*
X73672380Y57014821D01*
X73720000Y56919583D01*
X73767619Y56871964D01*
X73862857Y56824345D01*
X74100952Y56824345D01*
X74196190Y56871964D01*
X74243809Y56919583D01*
X74291428Y57014821D01*
X74291428Y57205297D01*
X74243809Y57300535D01*
X74196190Y57348154D01*
X74100952Y57395773D01*
X68814761Y79589345D02*
X68862380Y79732202D01*
X68862380Y79970297D01*
X68814761Y80065535D01*
X68767142Y80113154D01*
X68671904Y80160773D01*
X68576666Y80160773D01*
X68481428Y80113154D01*
X68433809Y80065535D01*
X68386190Y79970297D01*
X68338571Y79779821D01*
X68290952Y79684583D01*
X68243333Y79636964D01*
X68148095Y79589345D01*
X68052857Y79589345D01*
X67957619Y79636964D01*
X67910000Y79684583D01*
X67862380Y79779821D01*
X67862380Y80017916D01*
X67910000Y80160773D01*
X67862380Y80494107D02*
X68862380Y80732202D01*
X68148095Y80922678D01*
X68862380Y81113154D01*
X67862380Y81351250D01*
X68338571Y82065535D02*
X68338571Y81732202D01*
X68862380Y81732202D02*
X67862380Y81732202D01*
X67862380Y82208392D01*
X68862380Y83113154D02*
X68862380Y82541726D01*
X68862380Y82827440D02*
X67862380Y82827440D01*
X68005238Y82732202D01*
X68100476Y82636964D01*
X68148095Y82541726D01*
X72767142Y86740773D02*
X72814761Y86693154D01*
X72862380Y86550297D01*
X72862380Y86455059D01*
X72814761Y86312202D01*
X72719523Y86216964D01*
X72624285Y86169345D01*
X72433809Y86121726D01*
X72290952Y86121726D01*
X72100476Y86169345D01*
X72005238Y86216964D01*
X71910000Y86312202D01*
X71862380Y86455059D01*
X71862380Y86550297D01*
X71910000Y86693154D01*
X71957619Y86740773D01*
X72812380Y80541726D02*
X71812380Y80541726D01*
X72812380Y81113154D01*
X71812380Y81113154D01*
X71812380Y81779821D02*
X71812380Y81970297D01*
X71860000Y82065535D01*
X71955238Y82160773D01*
X72145714Y82208392D01*
X72479047Y82208392D01*
X72669523Y82160773D01*
X72764761Y82065535D01*
X72812380Y81970297D01*
X72812380Y81779821D01*
X72764761Y81684583D01*
X72669523Y81589345D01*
X72479047Y81541726D01*
X72145714Y81541726D01*
X71955238Y81589345D01*
X71860000Y81684583D01*
X71812380Y81779821D01*
X72832380Y75505535D02*
X71832380Y75505535D01*
X72832380Y76076964D01*
X71832380Y76076964D01*
X72737142Y77124583D02*
X72784761Y77076964D01*
X72832380Y76934107D01*
X72832380Y76838869D01*
X72784761Y76696011D01*
X72689523Y76600773D01*
X72594285Y76553154D01*
X72403809Y76505535D01*
X72260952Y76505535D01*
X72070476Y76553154D01*
X71975238Y76600773D01*
X71880000Y76696011D01*
X71832380Y76838869D01*
X71832380Y76934107D01*
X71880000Y77076964D01*
X71927619Y77124583D01*
D13*
X76300380Y68344726D02*
X76300380Y67316630D01*
X76360857Y67195678D01*
X76421333Y67135202D01*
X76542285Y67074726D01*
X76784190Y67074726D01*
X76905142Y67135202D01*
X76965619Y67195678D01*
X77026095Y67316630D01*
X77026095Y68344726D01*
X78296095Y67074726D02*
X77570380Y67074726D01*
X77933238Y67074726D02*
X77933238Y68344726D01*
X77812285Y68163297D01*
X77691333Y68042345D01*
X77570380Y67981869D01*
D12*
X72814761Y51577916D02*
X72862380Y51720773D01*
X72862380Y51958869D01*
X72814761Y52054107D01*
X72767142Y52101726D01*
X72671904Y52149345D01*
X72576666Y52149345D01*
X72481428Y52101726D01*
X72433809Y52054107D01*
X72386190Y51958869D01*
X72338571Y51768392D01*
X72290952Y51673154D01*
X72243333Y51625535D01*
X72148095Y51577916D01*
X72052857Y51577916D01*
X71957619Y51625535D01*
X71910000Y51673154D01*
X71862380Y51768392D01*
X71862380Y52006488D01*
X71910000Y52149345D01*
X71862380Y52482678D02*
X72862380Y52720773D01*
X72148095Y52911250D01*
X72862380Y53101726D01*
X71862380Y53339821D01*
X72338571Y54054107D02*
X72386190Y54196964D01*
X72433809Y54244583D01*
X72529047Y54292202D01*
X72671904Y54292202D01*
X72767142Y54244583D01*
X72814761Y54196964D01*
X72862380Y54101726D01*
X72862380Y53720773D01*
X71862380Y53720773D01*
X71862380Y54054107D01*
X71910000Y54149345D01*
X71957619Y54196964D01*
X72052857Y54244583D01*
X72148095Y54244583D01*
X72243333Y54196964D01*
X72290952Y54149345D01*
X72338571Y54054107D01*
X72338571Y53720773D01*
X72862380Y55244583D02*
X72862380Y54673154D01*
X72862380Y54958869D02*
X71862380Y54958869D01*
X72005238Y54863630D01*
X72100476Y54768392D01*
X72148095Y54673154D01*
X68767142Y48640773D02*
X68814761Y48593154D01*
X68862380Y48450297D01*
X68862380Y48355059D01*
X68814761Y48212202D01*
X68719523Y48116964D01*
X68624285Y48069345D01*
X68433809Y48021726D01*
X68290952Y48021726D01*
X68100476Y48069345D01*
X68005238Y48116964D01*
X67910000Y48212202D01*
X67862380Y48355059D01*
X67862380Y48450297D01*
X67910000Y48593154D01*
X67957619Y48640773D01*
X68912380Y52601726D02*
X67912380Y52601726D01*
X68912380Y53173154D01*
X67912380Y53173154D01*
X67912380Y53839821D02*
X67912380Y54030297D01*
X67960000Y54125535D01*
X68055238Y54220773D01*
X68245714Y54268392D01*
X68579047Y54268392D01*
X68769523Y54220773D01*
X68864761Y54125535D01*
X68912380Y54030297D01*
X68912380Y53839821D01*
X68864761Y53744583D01*
X68769523Y53649345D01*
X68579047Y53601726D01*
X68245714Y53601726D01*
X68055238Y53649345D01*
X67960000Y53744583D01*
X67912380Y53839821D01*
X68892380Y57685535D02*
X67892380Y57685535D01*
X68892380Y58256964D01*
X67892380Y58256964D01*
X68797142Y59304583D02*
X68844761Y59256964D01*
X68892380Y59114107D01*
X68892380Y59018869D01*
X68844761Y58876011D01*
X68749523Y58780773D01*
X68654285Y58733154D01*
X68463809Y58685535D01*
X68320952Y58685535D01*
X68130476Y58733154D01*
X68035238Y58780773D01*
X67940000Y58876011D01*
X67892380Y59018869D01*
X67892380Y59114107D01*
X67940000Y59256964D01*
X67987619Y59304583D01*
X53566666Y50783869D02*
X53566666Y50069583D01*
X53519047Y49926726D01*
X53423809Y49831488D01*
X53280952Y49783869D01*
X53185714Y49783869D01*
X53995238Y50688630D02*
X54042857Y50736250D01*
X54138095Y50783869D01*
X54376190Y50783869D01*
X54471428Y50736250D01*
X54519047Y50688630D01*
X54566666Y50593392D01*
X54566666Y50498154D01*
X54519047Y50355297D01*
X53947619Y49783869D01*
X54566666Y49783869D01*
X97527380Y72391916D02*
X98241666Y72391916D01*
X98384523Y72344297D01*
X98479761Y72249059D01*
X98527380Y72106202D01*
X98527380Y72010964D01*
X98527380Y73391916D02*
X98527380Y72820488D01*
X98527380Y73106202D02*
X97527380Y73106202D01*
X97670238Y73010964D01*
X97765476Y72915726D01*
X97813095Y72820488D01*
X42779761Y79517916D02*
X42827380Y79660773D01*
X42827380Y79898869D01*
X42779761Y79994107D01*
X42732142Y80041726D01*
X42636904Y80089345D01*
X42541666Y80089345D01*
X42446428Y80041726D01*
X42398809Y79994107D01*
X42351190Y79898869D01*
X42303571Y79708392D01*
X42255952Y79613154D01*
X42208333Y79565535D01*
X42113095Y79517916D01*
X42017857Y79517916D01*
X41922619Y79565535D01*
X41875000Y79613154D01*
X41827380Y79708392D01*
X41827380Y79946488D01*
X41875000Y80089345D01*
X41827380Y80422678D02*
X42827380Y80660773D01*
X42113095Y80851250D01*
X42827380Y81041726D01*
X41827380Y81279821D01*
X42827380Y82232202D02*
X42351190Y81898869D01*
X42827380Y81660773D02*
X41827380Y81660773D01*
X41827380Y82041726D01*
X41875000Y82136964D01*
X41922619Y82184583D01*
X42017857Y82232202D01*
X42160714Y82232202D01*
X42255952Y82184583D01*
X42303571Y82136964D01*
X42351190Y82041726D01*
X42351190Y81660773D01*
X42827380Y83184583D02*
X42827380Y82613154D01*
X42827380Y82898869D02*
X41827380Y82898869D01*
X41970238Y82803630D01*
X42065476Y82708392D01*
X42113095Y82613154D01*
X46732142Y86740773D02*
X46779761Y86693154D01*
X46827380Y86550297D01*
X46827380Y86455059D01*
X46779761Y86312202D01*
X46684523Y86216964D01*
X46589285Y86169345D01*
X46398809Y86121726D01*
X46255952Y86121726D01*
X46065476Y86169345D01*
X45970238Y86216964D01*
X45875000Y86312202D01*
X45827380Y86455059D01*
X45827380Y86550297D01*
X45875000Y86693154D01*
X45922619Y86740773D01*
X46777380Y80541726D02*
X45777380Y80541726D01*
X46777380Y81113154D01*
X45777380Y81113154D01*
X45777380Y81779821D02*
X45777380Y81970297D01*
X45825000Y82065535D01*
X45920238Y82160773D01*
X46110714Y82208392D01*
X46444047Y82208392D01*
X46634523Y82160773D01*
X46729761Y82065535D01*
X46777380Y81970297D01*
X46777380Y81779821D01*
X46729761Y81684583D01*
X46634523Y81589345D01*
X46444047Y81541726D01*
X46110714Y81541726D01*
X45920238Y81589345D01*
X45825000Y81684583D01*
X45777380Y81779821D01*
X46797380Y75505535D02*
X45797380Y75505535D01*
X46797380Y76076964D01*
X45797380Y76076964D01*
X46702142Y77124583D02*
X46749761Y77076964D01*
X46797380Y76934107D01*
X46797380Y76838869D01*
X46749761Y76696011D01*
X46654523Y76600773D01*
X46559285Y76553154D01*
X46368809Y76505535D01*
X46225952Y76505535D01*
X46035476Y76553154D01*
X45940238Y76600773D01*
X45845000Y76696011D01*
X45797380Y76838869D01*
X45797380Y76934107D01*
X45845000Y77076964D01*
X45892619Y77124583D01*
X53900238Y73766488D02*
X54043095Y73718869D01*
X54281190Y73718869D01*
X54376428Y73766488D01*
X54424047Y73814107D01*
X54471666Y73909345D01*
X54471666Y74004583D01*
X54424047Y74099821D01*
X54376428Y74147440D01*
X54281190Y74195059D01*
X54090714Y74242678D01*
X53995476Y74290297D01*
X53947857Y74337916D01*
X53900238Y74433154D01*
X53900238Y74528392D01*
X53947857Y74623630D01*
X53995476Y74671250D01*
X54090714Y74718869D01*
X54328809Y74718869D01*
X54471666Y74671250D01*
X54805000Y74718869D02*
X55043095Y73718869D01*
X55233571Y74433154D01*
X55424047Y73718869D01*
X55662142Y74718869D01*
X56043095Y73718869D02*
X56043095Y74718869D01*
X56376428Y74004583D01*
X56709761Y74718869D01*
X56709761Y73718869D01*
X57709761Y73718869D02*
X57138333Y73718869D01*
X57424047Y73718869D02*
X57424047Y74718869D01*
X57328809Y74576011D01*
X57233571Y74480773D01*
X57138333Y74433154D01*
X54995476Y77668869D02*
X54995476Y78668869D01*
X55566904Y77668869D01*
X55566904Y78668869D01*
X56233571Y78668869D02*
X56424047Y78668869D01*
X56519285Y78621250D01*
X56614523Y78526011D01*
X56662142Y78335535D01*
X56662142Y78002202D01*
X56614523Y77811726D01*
X56519285Y77716488D01*
X56424047Y77668869D01*
X56233571Y77668869D01*
X56138333Y77716488D01*
X56043095Y77811726D01*
X55995476Y78002202D01*
X55995476Y78335535D01*
X56043095Y78526011D01*
X56138333Y78621250D01*
X56233571Y78668869D01*
X60079285Y77688869D02*
X60079285Y78688869D01*
X60650714Y77688869D01*
X60650714Y78688869D01*
X61698333Y77784107D02*
X61650714Y77736488D01*
X61507857Y77688869D01*
X61412619Y77688869D01*
X61269761Y77736488D01*
X61174523Y77831726D01*
X61126904Y77926964D01*
X61079285Y78117440D01*
X61079285Y78260297D01*
X61126904Y78450773D01*
X61174523Y78546011D01*
X61269761Y78641250D01*
X61412619Y78688869D01*
X61507857Y78688869D01*
X61650714Y78641250D01*
X61698333Y78593630D01*
X46779761Y51673154D02*
X46827380Y51816011D01*
X46827380Y52054107D01*
X46779761Y52149345D01*
X46732142Y52196964D01*
X46636904Y52244583D01*
X46541666Y52244583D01*
X46446428Y52196964D01*
X46398809Y52149345D01*
X46351190Y52054107D01*
X46303571Y51863630D01*
X46255952Y51768392D01*
X46208333Y51720773D01*
X46113095Y51673154D01*
X46017857Y51673154D01*
X45922619Y51720773D01*
X45875000Y51768392D01*
X45827380Y51863630D01*
X45827380Y52101726D01*
X45875000Y52244583D01*
X45827380Y52577916D02*
X46827380Y52816011D01*
X46113095Y53006488D01*
X46827380Y53196964D01*
X45827380Y53435059D01*
X46827380Y54292202D02*
X46827380Y53816011D01*
X45827380Y53816011D01*
X46827380Y55149345D02*
X46827380Y54577916D01*
X46827380Y54863630D02*
X45827380Y54863630D01*
X45970238Y54768392D01*
X46065476Y54673154D01*
X46113095Y54577916D01*
X42732142Y48640773D02*
X42779761Y48593154D01*
X42827380Y48450297D01*
X42827380Y48355059D01*
X42779761Y48212202D01*
X42684523Y48116964D01*
X42589285Y48069345D01*
X42398809Y48021726D01*
X42255952Y48021726D01*
X42065476Y48069345D01*
X41970238Y48116964D01*
X41875000Y48212202D01*
X41827380Y48355059D01*
X41827380Y48450297D01*
X41875000Y48593154D01*
X41922619Y48640773D01*
X42877380Y52601726D02*
X41877380Y52601726D01*
X42877380Y53173154D01*
X41877380Y53173154D01*
X41877380Y53839821D02*
X41877380Y54030297D01*
X41925000Y54125535D01*
X42020238Y54220773D01*
X42210714Y54268392D01*
X42544047Y54268392D01*
X42734523Y54220773D01*
X42829761Y54125535D01*
X42877380Y54030297D01*
X42877380Y53839821D01*
X42829761Y53744583D01*
X42734523Y53649345D01*
X42544047Y53601726D01*
X42210714Y53601726D01*
X42020238Y53649345D01*
X41925000Y53744583D01*
X41877380Y53839821D01*
X42857380Y57685535D02*
X41857380Y57685535D01*
X42857380Y58256964D01*
X41857380Y58256964D01*
X42762142Y59304583D02*
X42809761Y59256964D01*
X42857380Y59114107D01*
X42857380Y59018869D01*
X42809761Y58876011D01*
X42714523Y58780773D01*
X42619285Y58733154D01*
X42428809Y58685535D01*
X42285952Y58685535D01*
X42095476Y58733154D01*
X42000238Y58780773D01*
X41905000Y58876011D01*
X41857380Y59018869D01*
X41857380Y59114107D01*
X41905000Y59256964D01*
X41952619Y59304583D01*
M02*
