M48
; DRILL file {KiCad 5.99.0-unknown-072ea9a~86~ubuntu18.04.1} date Wed 18 Sep 2019 12:12:14 AM IST
; FORMAT={-:-/ absolute / inch / decimal}
; #@! TF.CreationDate,2019-09-18T00:12:14+01:00
; #@! TF.GenerationSoftware,Kicad,Pcbnew,5.99.0-unknown-072ea9a~86~ubuntu18.04.1
; #@! TF.FileFunction,Plated,1,2,PTH
FMAT,2
INCH
T1C0.0157
T2C0.0354
T3C0.0394
T4C0.0492
T5C0.0827
%
G90
G05
T1
X6.68Y-3.04
X6.9Y-3.04
X6.92Y-2.82
X7.22Y-2.7
X7.2283Y-4.0472
X7.32Y-3.7
X7.34Y-3.64
X7.4Y-3.68
X7.4961Y-2.8976
X7.52Y-3.8
X7.56Y-4.16
X7.78Y-3.82
X7.78Y-4.16
X7.7802Y-3.7798
X7.7874Y-3.1102
X7.82Y-4.02
X7.8268Y-3.3543
X7.8661Y-3.0394
X7.9055Y-3.3228
X7.9055Y-3.5744
X7.9596Y-3.82
X7.9685Y-3.2756
X7.98Y-3.76
X7.98Y-4.1
X7.9921Y-2.8189
X7.9921Y-4.0236
X8.0Y-3.6972
X8.02Y-3.96
X8.04Y-3.86
X8.08Y-4.02
X8.1102Y-4.0866
X8.144Y-4.204
X8.2441Y-3.4016
X8.3307Y-3.7638
X8.4022Y-4.1978
X8.4094Y-2.8976
X8.4094Y-3.7638
X8.4969Y-3.0222
X8.4983Y-3.1522
X8.5522Y-3.0584
X8.5683Y-3.3422
X8.6238Y-3.0086
X8.6283Y-3.2222
X8.6283Y-3.3422
X8.6283Y-3.4852
X8.6299Y-2.8583
X8.6362Y-3.69
X8.6482Y-3.0422
X8.7008Y-2.8583
X8.7083Y-3.2822
X8.7083Y-3.3422
X8.7083Y-3.4822
X8.7418Y-3.6522
X8.7683Y-3.4822
X8.7683Y-3.7022
X8.7783Y-3.4122
X8.7883Y-3.0422
X8.7883Y-3.2822
X8.7888Y-3.2227
X8.8083Y-3.6622
X8.8283Y-3.0622
X8.8383Y-3.4822
X8.8483Y-2.9622
X8.8483Y-3.2222
X8.8483Y-3.2822
X8.8483Y-3.3422
X8.8483Y-3.4022
X8.9685Y-4.126
X8.9733Y-3.0973
X9.0283Y-3.4622
X9.1575Y-4.1181
X9.4094Y-2.9528
T2
X7.2072Y-3.5856
X7.2422Y-3.1644
X7.2773Y-3.5856
X7.3123Y-3.1644
X7.3474Y-3.5856
X7.3824Y-3.1644
X7.4174Y-3.5856
X7.4525Y-3.1644
X7.4875Y-3.5856
X7.5226Y-3.1644
X7.5576Y-3.5856
X7.5926Y-3.1644
X7.6277Y-3.5856
X7.6627Y-3.1644
X7.6978Y-3.5856
X7.7328Y-3.1644
T3
X8.0709Y-3.4984
X8.0709Y-3.5984
X8.2283Y-3.7165
X8.125Y-3.0071
X8.125Y-3.0859
X8.125Y-3.1646
X8.125Y-3.2433
X8.125Y-3.3221
X8.5962Y-3.9422
X8.7883Y-3.9422
X9.0883Y-3.3022
X9.0883Y-3.4022
X8.1181Y-3.874
X8.2181Y-3.874
X7.9055Y-3.1673
X6.86Y-4.1
X8.3701Y-3.8685
X8.3701Y-3.9685
T4
X6.4Y-3.8213
X6.5Y-3.8213
X6.6Y-3.8213
X6.375Y-3.0289
X6.575Y-3.0289
X6.775Y-3.0289
X6.125Y-2.625
X6.125Y-2.825
X6.125Y-3.025
X7.15Y-2.625
X7.15Y-2.825
X7.15Y-3.025
X6.125Y-3.725
X6.125Y-3.925
X6.125Y-4.125
X7.15Y-3.725
X7.15Y-3.925
X7.15Y-4.125
T5
X6.3Y-3.9
X6.7Y-3.9
T0
M30
