G04 #@! TF.GenerationSoftware,KiCad,Pcbnew,5.99.0-unknown-072ea9a~86~ubuntu18.04.1*
G04 #@! TF.CreationDate,2019-09-18T00:12:09+01:00*
G04 #@! TF.ProjectId,mouse8,6d6f7573-6538-42e6-9b69-6361645f7063,rev?*
G04 #@! TF.SameCoordinates,Original*
G04 #@! TF.FileFunction,Profile,NP*
%FSLAX46Y46*%
G04 Gerber Fmt 4.6, Leading zero omitted, Abs format (unit mm)*
G04 Created by KiCad (PCBNEW 5.99.0-unknown-072ea9a~86~ubuntu18.04.1) date 2019-09-18 00:12:09*
%MOMM*%
%LPD*%
G04 APERTURE LIST*
%ADD10C,0.050000*%
G04 APERTURE END LIST*
D10*
X205350000Y-63500000D02*
X170180000Y-63500000D01*
X211275000Y-65275000D02*
X205350000Y-63500000D01*
X211275000Y-65275000D02*
X211275000Y-67525000D01*
X242600000Y-71750000D02*
X246375000Y-75450000D01*
X239395000Y-71755000D02*
X242600000Y-71750000D01*
X239400000Y-70200000D02*
X239395000Y-71755000D01*
X232675000Y-67525000D02*
X239400000Y-70200000D01*
X211275000Y-67525000D02*
X232675000Y-67525000D01*
X239395000Y-107950000D02*
X177800000Y-107950000D01*
X246375000Y-75450000D02*
X246380000Y-99695000D01*
X239525000Y-99675000D02*
X246380000Y-99695000D01*
X239400000Y-101250000D02*
X239395000Y-107950000D01*
X239525000Y-96750000D02*
X239525000Y-99675000D01*
X235025000Y-101250000D02*
X239400000Y-101250000D01*
X235025000Y-101250000D02*
G75*
G02X239525000Y-96750000I0J4500000D01*
G01*
X159308800Y-70916800D02*
X159308800Y-73914000D01*
X171653200Y-70916800D02*
X159308800Y-70916800D01*
X171653200Y-73914000D02*
X171653200Y-70916800D01*
X159308800Y-73914000D02*
X171653200Y-73914000D01*
X154940000Y-80010000D02*
X179705000Y-80010000D01*
X181483000Y-90170000D02*
X181483000Y-81280000D01*
X197993000Y-90170000D02*
X181483000Y-90170000D01*
X197993000Y-81280000D02*
X197993000Y-90170000D01*
X181483000Y-81280000D02*
X197993000Y-81280000D01*
X177800000Y-106680000D02*
X177800000Y-107950000D01*
X152400000Y-106680000D02*
X177800000Y-106680000D01*
X170180000Y-64770000D02*
X152400000Y-64770000D01*
X170180000Y-63500000D02*
X170180000Y-64770000D01*
X154940000Y-91440000D02*
X154940000Y-90805000D01*
X179705000Y-91440000D02*
X179705000Y-90805000D01*
X179705000Y-80010000D02*
X179705000Y-90805000D01*
X154940000Y-90805000D02*
X154940000Y-80010000D01*
X179705000Y-91440000D02*
X154940000Y-91440000D01*
X152400000Y-106680000D02*
X152400000Y-64770000D01*
M02*
