G04 #@! TF.GenerationSoftware,KiCad,Pcbnew,5.99.0-unknown-072ea9a~86~ubuntu18.04.1*
G04 #@! TF.CreationDate,2019-09-18T00:12:08+01:00*
G04 #@! TF.ProjectId,mouse8,6d6f7573-6538-42e6-9b69-6361645f7063,rev?*
G04 #@! TF.SameCoordinates,Original*
G04 #@! TF.FileFunction,Copper,L2,Bot*
G04 #@! TF.FilePolarity,Positive*
%FSLAX46Y46*%
G04 Gerber Fmt 4.6, Leading zero omitted, Abs format (unit mm)*
G04 Created by KiCad (PCBNEW 5.99.0-unknown-072ea9a~86~ubuntu18.04.1) date 2019-09-18 00:12:08*
%MOMM*%
%LPD*%
G04 APERTURE LIST*
%ADD10C,0.050000*%
%ADD11R,1.700000X1.700000*%
%ADD12O,1.700000X1.700000*%
%ADD13C,1.500000*%
%ADD14C,1.800000*%
%ADD15R,1.800000X1.800000*%
%ADD16C,0.100000*%
%ADD17C,1.425000*%
%ADD18C,2.000000*%
%ADD19C,1.300000*%
%ADD20C,3.000000*%
%ADD21O,1.750000X1.200000*%
%ADD22C,1.200000*%
%ADD23C,0.800000*%
%ADD24C,0.250000*%
%ADD25C,0.500000*%
%ADD26C,0.400000*%
%ADD27C,1.000000*%
%ADD28C,0.750000*%
%ADD29C,0.800000*%
%ADD30C,0.254000*%
G04 APERTURE END LIST*
D10*
X205350000Y-63500000D02*
X170180000Y-63500000D01*
X211275000Y-65275000D02*
X205350000Y-63500000D01*
X211275000Y-65275000D02*
X211275000Y-67525000D01*
X242600000Y-71750000D02*
X246375000Y-75450000D01*
X239395000Y-71755000D02*
X242600000Y-71750000D01*
X239400000Y-70200000D02*
X239395000Y-71755000D01*
X232675000Y-67525000D02*
X239400000Y-70200000D01*
X211275000Y-67525000D02*
X232675000Y-67525000D01*
X239395000Y-107950000D02*
X177800000Y-107950000D01*
X246375000Y-75450000D02*
X246380000Y-99695000D01*
X239525000Y-99675000D02*
X246380000Y-99695000D01*
X239400000Y-101250000D02*
X239395000Y-107950000D01*
X239525000Y-96750000D02*
X239525000Y-99675000D01*
X235025000Y-101250000D02*
X239400000Y-101250000D01*
X235025000Y-101250000D02*
G75*
G02X239525000Y-96750000I0J4500000D01*
G01*
X159308800Y-70916800D02*
X159308800Y-73914000D01*
X171653200Y-70916800D02*
X159308800Y-70916800D01*
X171653200Y-73914000D02*
X171653200Y-70916800D01*
X159308800Y-73914000D02*
X171653200Y-73914000D01*
X154940000Y-80010000D02*
X179705000Y-80010000D01*
X181483000Y-90170000D02*
X181483000Y-81280000D01*
X197993000Y-90170000D02*
X181483000Y-90170000D01*
X197993000Y-81280000D02*
X197993000Y-90170000D01*
X181483000Y-81280000D02*
X197993000Y-81280000D01*
X177800000Y-106680000D02*
X177800000Y-107950000D01*
X152400000Y-106680000D02*
X177800000Y-106680000D01*
X170180000Y-64770000D02*
X152400000Y-64770000D01*
X170180000Y-63500000D02*
X170180000Y-64770000D01*
X154940000Y-91440000D02*
X154940000Y-90805000D01*
X179705000Y-91440000D02*
X179705000Y-90805000D01*
X179705000Y-80010000D02*
X179705000Y-90805000D01*
X154940000Y-90805000D02*
X154940000Y-80010000D01*
X179705000Y-91440000D02*
X154940000Y-91440000D01*
X152400000Y-106680000D02*
X152400000Y-64770000D01*
D11*
X209000000Y-94400000D03*
D12*
X205000000Y-88860000D03*
D11*
X205000000Y-91400000D03*
D12*
X208740000Y-98400000D03*
D11*
X206200000Y-98400000D03*
D12*
X212600000Y-98260000D03*
D11*
X212600000Y-100800000D03*
X200800000Y-80450000D03*
X174244000Y-104140000D03*
D13*
X218344000Y-100132000D03*
X223224000Y-100132000D03*
D14*
X230844000Y-86416000D03*
D15*
X230844000Y-83876000D03*
D16*
G36*
X194179171Y-93124030D02*
G01*
X194260277Y-93178223D01*
X194314470Y-93259329D01*
X194333500Y-93355000D01*
X194333500Y-94605000D01*
X194314470Y-94700671D01*
X194260277Y-94781777D01*
X194179171Y-94835970D01*
X194083500Y-94855000D01*
X193158500Y-94855000D01*
X193062829Y-94835970D01*
X192981723Y-94781777D01*
X192927530Y-94700671D01*
X192908500Y-94605000D01*
X192908500Y-93355000D01*
X192927530Y-93259329D01*
X192981723Y-93178223D01*
X193062829Y-93124030D01*
X193158500Y-93105000D01*
X194083500Y-93105000D01*
X194179171Y-93124030D01*
X194179171Y-93124030D01*
G37*
D17*
X193621000Y-93980000D03*
D16*
G36*
X197154171Y-93124030D02*
G01*
X197235277Y-93178223D01*
X197289470Y-93259329D01*
X197308500Y-93355000D01*
X197308500Y-94605000D01*
X197289470Y-94700671D01*
X197235277Y-94781777D01*
X197154171Y-94835970D01*
X197058500Y-94855000D01*
X196133500Y-94855000D01*
X196037829Y-94835970D01*
X195956723Y-94781777D01*
X195902530Y-94700671D01*
X195883500Y-94605000D01*
X195883500Y-93355000D01*
X195902530Y-93259329D01*
X195956723Y-93178223D01*
X196037829Y-93124030D01*
X196133500Y-93105000D01*
X197058500Y-93105000D01*
X197154171Y-93124030D01*
X197154171Y-93124030D01*
G37*
D17*
X196596000Y-93980000D03*
D18*
X181610000Y-71755000D03*
X181610000Y-66675000D03*
X181610000Y-76835000D03*
D19*
X195523000Y-91075000D03*
X193743000Y-91075000D03*
X191963000Y-91075000D03*
X190183000Y-91075000D03*
X188403000Y-91075000D03*
X186623000Y-91075000D03*
X184843000Y-91075000D03*
X183063000Y-91075000D03*
X183953000Y-80375000D03*
X185733000Y-80375000D03*
X187513000Y-80375000D03*
X189293000Y-80375000D03*
X191073000Y-80375000D03*
X192853000Y-80375000D03*
X194633000Y-80375000D03*
X196413000Y-80375000D03*
D18*
X181610000Y-99695000D03*
X181610000Y-104775000D03*
X181610000Y-94615000D03*
D20*
X170180000Y-99060000D03*
X160020000Y-99060000D03*
D18*
X162560000Y-97060000D03*
X165100000Y-97060000D03*
X167640000Y-97060000D03*
D21*
X206375000Y-84381000D03*
X206375000Y-82381000D03*
X206375000Y-80381000D03*
X206375000Y-78381000D03*
D16*
G36*
X207095918Y-75800000D02*
G01*
X207176894Y-75854106D01*
X207231000Y-75935082D01*
X207250000Y-76030600D01*
X207250000Y-76731400D01*
X207231000Y-76826918D01*
X207176894Y-76907894D01*
X207095918Y-76962000D01*
X207000400Y-76981000D01*
X205749600Y-76981000D01*
X205654082Y-76962000D01*
X205573106Y-76907894D01*
X205519000Y-76826918D01*
X205500000Y-76731400D01*
X205500000Y-76030600D01*
X205519000Y-75935082D01*
X205573106Y-75854106D01*
X205654082Y-75800000D01*
X205749600Y-75781000D01*
X207000400Y-75781000D01*
X207095918Y-75800000D01*
X207095918Y-75800000D01*
G37*
D22*
X206375000Y-76381000D03*
D18*
X155575000Y-71755000D03*
X155575000Y-66675000D03*
X155575000Y-76835000D03*
X167005000Y-76935000D03*
X161925000Y-76935000D03*
X172085000Y-76935000D03*
X155575000Y-99695000D03*
X155575000Y-104775000D03*
X155575000Y-94615000D03*
D23*
X202400000Y-83200000D03*
X199800000Y-77200000D03*
X197800000Y-79000000D03*
X202174673Y-97027936D03*
X197616653Y-96007347D03*
X203708000Y-100584000D03*
X185928000Y-93980000D03*
X215821000Y-76764000D03*
X191008000Y-96520000D03*
X204216000Y-98044000D03*
X202692000Y-95504000D03*
X203200000Y-93909062D03*
X175768000Y-71628000D03*
X175260000Y-77216000D03*
X169672000Y-77216000D03*
X205232000Y-102108000D03*
X202692000Y-104140000D03*
X198628000Y-102108000D03*
X186436000Y-92456000D03*
X219358990Y-93726990D03*
X217225000Y-77683000D03*
X215858000Y-80066000D03*
X224240000Y-77780000D03*
X192024000Y-105664000D03*
X197612000Y-105664000D03*
X224748000Y-81844000D03*
X224748000Y-83368000D03*
X223224000Y-83368000D03*
X223236000Y-81856000D03*
X221192000Y-83368000D03*
X219160000Y-81844000D03*
X217636000Y-84892000D03*
X219160000Y-84892000D03*
X221192000Y-84892000D03*
X224748000Y-84892000D03*
X224748000Y-86416000D03*
X219160000Y-88524000D03*
X221192000Y-88448000D03*
X222716000Y-88448000D03*
X222970000Y-86670000D03*
X224494000Y-88448000D03*
X197612000Y-97028000D03*
X187960000Y-93472000D03*
X227920653Y-78671347D03*
X224748000Y-75240000D03*
X183388000Y-68580000D03*
X229320000Y-87940000D03*
X213416002Y-106623998D03*
X223732000Y-93020000D03*
X222716000Y-94036000D03*
X219663347Y-77272000D03*
X219044200Y-76417606D03*
X223224000Y-77272000D03*
X222042000Y-92766000D03*
X206858353Y-106782353D03*
X200800000Y-90791002D03*
X198800000Y-85200000D03*
X203000000Y-71600000D03*
X219200000Y-72600000D03*
X221000000Y-72600000D03*
X206000000Y-103800000D03*
X227800000Y-104800000D03*
X203000000Y-102200000D03*
X213600000Y-95600000D03*
X211600000Y-95600000D03*
X209400000Y-86400000D03*
X213600000Y-73600000D03*
X200800000Y-84400000D03*
X239000000Y-75000000D03*
X232600000Y-104600000D03*
X183600000Y-102800000D03*
X190400000Y-73600000D03*
D24*
X220858003Y-73325001D02*
X223498003Y-75965001D01*
X173710600Y-74549000D02*
X174091600Y-74168000D01*
X220200000Y-73000000D02*
X220525001Y-73325001D01*
X220200000Y-72526998D02*
X220200000Y-73000000D01*
X228216000Y-91584000D02*
X226184000Y-91584000D01*
X219548001Y-71874999D02*
X220200000Y-72526998D01*
X206674999Y-71874999D02*
X219548001Y-71874999D01*
X187848000Y-69200000D02*
X204000000Y-69200000D01*
X223498003Y-75965001D02*
X225096001Y-75965001D01*
X174091600Y-74168000D02*
X182880000Y-74168000D01*
X204000000Y-69200000D02*
X206674999Y-71874999D01*
X182880000Y-74168000D02*
X187848000Y-69200000D01*
X228812000Y-77012000D02*
X228812000Y-79812000D01*
X169164000Y-75184000D02*
X170078400Y-75184000D01*
X170078400Y-75184000D02*
X170713400Y-74549000D01*
X170713400Y-74549000D02*
X173710600Y-74549000D01*
X220525001Y-73325001D02*
X220858003Y-73325001D01*
X225096001Y-75965001D02*
X225821002Y-75240000D01*
X225821002Y-75240000D02*
X227040000Y-75240000D01*
X227040000Y-75240000D02*
X228812000Y-77012000D01*
X228812000Y-79812000D02*
X228304000Y-80320000D01*
X228304000Y-80320000D02*
X228304000Y-88504000D01*
X228304000Y-88504000D02*
X229200000Y-89400000D01*
X229200000Y-89400000D02*
X229200000Y-90600000D01*
X229200000Y-90600000D02*
X228216000Y-91584000D01*
X226184000Y-91584000D02*
X224748000Y-93020000D01*
X224748000Y-93020000D02*
X223732000Y-93020000D01*
X201774674Y-95348324D02*
X202488936Y-94634062D01*
X203200000Y-100076000D02*
X204216000Y-100076000D01*
X204216000Y-100076000D02*
X204941001Y-99350999D01*
X203708000Y-100584000D02*
X204216000Y-100076000D01*
X203708000Y-100584000D02*
X203200000Y-100076000D01*
X192532000Y-98044000D02*
X191008000Y-96520000D01*
X180284999Y-103449999D02*
X181610000Y-104775000D01*
X180284999Y-93978999D02*
X180284999Y-103449999D01*
X181299998Y-92964000D02*
X180284999Y-93978999D01*
X189934998Y-96520000D02*
X186436000Y-93021002D01*
X191008000Y-96520000D02*
X189934998Y-96520000D01*
D25*
X200660000Y-102108000D02*
X202692000Y-104140000D01*
X198628000Y-102108000D02*
X200660000Y-102108000D01*
X204724000Y-102108000D02*
X202692000Y-104140000D01*
X205232000Y-102108000D02*
X204724000Y-102108000D01*
X184632999Y-79846999D02*
X186279998Y-78200000D01*
X182244236Y-79846999D02*
X184632999Y-79846999D01*
X181007990Y-81083245D02*
X182244236Y-79846999D01*
X198120000Y-78232000D02*
X198152000Y-78200000D01*
D24*
X186436000Y-92456000D02*
X186436000Y-93021002D01*
X186436000Y-93021002D02*
X186378998Y-93021002D01*
X186436000Y-92456000D02*
X185985002Y-92906998D01*
X183863999Y-92996001D02*
X183896000Y-92964000D01*
X203708000Y-98044000D02*
X192532000Y-98044000D01*
X203708000Y-98044000D02*
X203708000Y-97536000D01*
X204216000Y-98044000D02*
X203708000Y-98044000D01*
X181299998Y-92964000D02*
X186436000Y-92964000D01*
X185674000Y-105664000D02*
X184785000Y-104775000D01*
X192024000Y-105664000D02*
X185674000Y-105664000D01*
X184785000Y-104775000D02*
X181610000Y-104775000D01*
X197612000Y-105664000D02*
X192024000Y-105664000D01*
X196596000Y-93980000D02*
X196596000Y-96012000D01*
X196596000Y-96012000D02*
X197612000Y-97028000D01*
X196596000Y-96012000D02*
X195580000Y-97028000D01*
X193040000Y-97028000D02*
X195580000Y-97028000D01*
X193040000Y-97028000D02*
X189484000Y-93472000D01*
X189484000Y-93472000D02*
X187960000Y-93472000D01*
D26*
X178292000Y-94504000D02*
X178562000Y-94234000D01*
X180340000Y-92456000D02*
X180340000Y-80772000D01*
X180340000Y-80772000D02*
X182389010Y-78722990D01*
X182389010Y-78722990D02*
X184421010Y-78722990D01*
D25*
X178292000Y-94504000D02*
X180340000Y-92456000D01*
X167656000Y-94504000D02*
X178292000Y-94504000D01*
X165100000Y-97060000D02*
X167656000Y-94504000D01*
X229493999Y-87766001D02*
X229320000Y-87940000D01*
X229320000Y-82352000D02*
X229320000Y-87940000D01*
D27*
X181610000Y-102362000D02*
X181610000Y-99695000D01*
D24*
X181610000Y-101346000D02*
X181610000Y-99695000D01*
X181610000Y-102362000D02*
X183388000Y-104140000D01*
X183388000Y-104140000D02*
X185420000Y-104140000D01*
X197960001Y-104938999D02*
X199644000Y-106622998D01*
X185420000Y-104140000D02*
X186218999Y-104938999D01*
X186218999Y-104938999D02*
X197960001Y-104938999D01*
X199644000Y-106622998D02*
X205682998Y-106622998D01*
X205682998Y-106622998D02*
X206641996Y-105664000D01*
D27*
X167005000Y-76835000D02*
X168656000Y-75184000D01*
X169164000Y-75184000D02*
X168656000Y-75184000D01*
D24*
X225473001Y-75588001D02*
X225473001Y-75530999D01*
D25*
X225222002Y-94036000D02*
X222716000Y-94036000D01*
X225222002Y-94036000D02*
X226746002Y-92512000D01*
D28*
X181610000Y-76835000D02*
X183261000Y-76835000D01*
D27*
X172085000Y-76835000D02*
X173482000Y-75438000D01*
X157454600Y-74955400D02*
X155575000Y-76835000D01*
D26*
X179324000Y-78740000D02*
X179903999Y-78160001D01*
D24*
X179903999Y-78160001D02*
X182951999Y-78160001D01*
D27*
X155575000Y-94615000D02*
X155575000Y-93200787D01*
X155575000Y-93200787D02*
X154249999Y-91875786D01*
D25*
X183547020Y-78072980D02*
X182951999Y-78072980D01*
D24*
X154249999Y-80205013D02*
X154249999Y-81462001D01*
X155715012Y-78740000D02*
X154249999Y-80205013D01*
X157480000Y-78740000D02*
X155715012Y-78740000D01*
D26*
X155608946Y-78740000D02*
X157480000Y-78740000D01*
X157480000Y-78740000D02*
X179324000Y-78740000D01*
D28*
X154249999Y-91875786D02*
X154249999Y-81462001D01*
D26*
X183896000Y-106680000D02*
X184740990Y-107524990D01*
X178308000Y-104648000D02*
X180340000Y-106680000D01*
D25*
X158496000Y-102616000D02*
X176276000Y-102616000D01*
D27*
X155575000Y-99695000D02*
X158496000Y-102616000D01*
D25*
X176276000Y-102616000D02*
X178308000Y-104648000D01*
D24*
X205911010Y-107524990D02*
X206115716Y-107524990D01*
X206115716Y-107524990D02*
X206858353Y-106782353D01*
D26*
X184740990Y-107524990D02*
X205911010Y-107524990D01*
D27*
X176249999Y-102589999D02*
X158469999Y-102589999D01*
X180340000Y-106680000D02*
X176249999Y-102589999D01*
X180340000Y-106680000D02*
X183388000Y-106680000D01*
D26*
X183388000Y-106680000D02*
X183896000Y-106680000D01*
D24*
X221990999Y-94384001D02*
X222658998Y-95052000D01*
X222970000Y-95052000D02*
X222658998Y-95052000D01*
X221990999Y-93687999D02*
X221990999Y-94384001D01*
X222042000Y-93636998D02*
X221990999Y-93687999D01*
X222042000Y-92766000D02*
X222042000Y-93636998D01*
X193743000Y-91075000D02*
X193743000Y-93858000D01*
X197308500Y-93980000D02*
X196596000Y-93980000D01*
X198800000Y-92488500D02*
X197308500Y-93980000D01*
X198800000Y-85200000D02*
X198800000Y-92488500D01*
X203189009Y-71789009D02*
X203000000Y-71600000D01*
X203189009Y-72410991D02*
X203189009Y-71789009D01*
X219044200Y-75575198D02*
X219044200Y-76417606D01*
D26*
X203000000Y-101292000D02*
X203708000Y-100584000D01*
X203000000Y-102200000D02*
X203000000Y-101292000D01*
X203172002Y-94800000D02*
X203076001Y-94703999D01*
X203812000Y-94800000D02*
X203172002Y-94800000D01*
X204000001Y-94611999D02*
X203812000Y-94800000D01*
X201774674Y-95237324D02*
X201774674Y-96627937D01*
X203076001Y-94703999D02*
X202307999Y-94703999D01*
X202307999Y-94703999D02*
X201774674Y-95237324D01*
D29*
X214173000Y-78381000D02*
X206375000Y-78381000D01*
X215858000Y-80066000D02*
X214173000Y-78381000D01*
D26*
X203584001Y-94709063D02*
X203034062Y-94709063D01*
X213600000Y-95600000D02*
X213034315Y-95600000D01*
X210584314Y-93149999D02*
X205143065Y-93149999D01*
X213034315Y-95600000D02*
X210584314Y-93149999D01*
X205631999Y-101708001D02*
X205232000Y-102108000D01*
X210800000Y-99200000D02*
X208291999Y-101708001D01*
X208291999Y-101708001D02*
X205631999Y-101708001D01*
X210800000Y-96400000D02*
X210800000Y-99200000D01*
X211600000Y-95600000D02*
X210800000Y-96400000D01*
D24*
X202343999Y-94778999D02*
X203040001Y-94778999D01*
X204941001Y-99350999D02*
X204941001Y-96679999D01*
X204000001Y-94599999D02*
X203430501Y-95169499D01*
X204000001Y-93799999D02*
X204000001Y-94599999D01*
X203430501Y-95169499D02*
X204941001Y-96679999D01*
X203040001Y-94778999D02*
X203430501Y-95169499D01*
D26*
X204000001Y-93799999D02*
X204000001Y-94611999D01*
D24*
X226851001Y-107348999D02*
X207424999Y-107348999D01*
X222606998Y-95000000D02*
X224400000Y-95000000D01*
X227400000Y-98000000D02*
X227400000Y-102800000D01*
X228700000Y-105500000D02*
X226851001Y-107348999D01*
X224400000Y-95000000D02*
X227400000Y-98000000D01*
X228700000Y-104100000D02*
X228700000Y-105500000D01*
X207424999Y-107348999D02*
X206858353Y-106782353D01*
X227400000Y-102800000D02*
X228700000Y-104100000D01*
D26*
X228488000Y-92512000D02*
X228688000Y-92512000D01*
D25*
X226746002Y-92512000D02*
X228488000Y-92512000D01*
D26*
X228688000Y-92512000D02*
X231400000Y-89800000D01*
X231400000Y-88588002D02*
X232194001Y-87794001D01*
X231400000Y-89800000D02*
X231400000Y-88588002D01*
D25*
X232194001Y-87794001D02*
X232194001Y-82615999D01*
X204581000Y-78381000D02*
X206375000Y-78381000D01*
X186279998Y-78200000D02*
X204400000Y-78200000D01*
X204400000Y-78200000D02*
X204581000Y-78381000D01*
X200800000Y-91509062D02*
X203200000Y-93909062D01*
X200800000Y-90791002D02*
X200800000Y-91509062D01*
X201774674Y-96627937D02*
X201774674Y-96225326D01*
D24*
X201774674Y-96225326D02*
X201774674Y-95348324D01*
D25*
X201154084Y-96007347D02*
X202174673Y-97027936D01*
X197616653Y-96007347D02*
X201154084Y-96007347D01*
D26*
X203584001Y-94709063D02*
X205143065Y-93149999D01*
X184421010Y-78722990D02*
X187972000Y-75172000D01*
D24*
X181610000Y-69284998D02*
X181610000Y-71755000D01*
X189209009Y-72410991D02*
X188910000Y-72710000D01*
D25*
X188910000Y-72710000D02*
X183547020Y-78072980D01*
D24*
X189209009Y-72410991D02*
X203189009Y-72410991D01*
X232194001Y-77985591D02*
X232194001Y-82615999D01*
X227549991Y-73349991D02*
X227558401Y-73349991D01*
X158699200Y-68630800D02*
X175769200Y-68630800D01*
X222075010Y-67875010D02*
X227549991Y-73349991D01*
X155575000Y-71755000D02*
X158699200Y-68630800D01*
X209075010Y-67875010D02*
X222075010Y-67875010D01*
X175769200Y-68630800D02*
X180000000Y-64400000D01*
X227558401Y-73349991D02*
X232194001Y-77985591D01*
X180000000Y-64400000D02*
X205600000Y-64400000D01*
X205600000Y-64400000D02*
X209075010Y-67875010D01*
X229320000Y-76320000D02*
X229320000Y-87940000D01*
X222000000Y-69000000D02*
X229320000Y-76320000D01*
X208400000Y-69000000D02*
X222000000Y-69000000D01*
X205000000Y-65600000D02*
X208400000Y-69000000D01*
X185294998Y-65600000D02*
X205000000Y-65600000D01*
X181610000Y-69284998D02*
X185294998Y-65600000D01*
X224748000Y-73548000D02*
X224748000Y-75240000D01*
X221281795Y-70081795D02*
X224748000Y-73548000D01*
X204405990Y-66605990D02*
X207881795Y-70081795D01*
X185362010Y-66605990D02*
X204405990Y-66605990D01*
X207881795Y-70081795D02*
X221281795Y-70081795D01*
X183388000Y-68580000D02*
X185362010Y-66605990D01*
X219965686Y-71000000D02*
X221000000Y-72034315D01*
X187662000Y-67862000D02*
X204062000Y-67862000D01*
X207200000Y-71000000D02*
X219965686Y-71000000D01*
X157454600Y-74955400D02*
X157454600Y-71297800D01*
X204062000Y-67862000D02*
X207200000Y-71000000D01*
X158953200Y-69799200D02*
X172339000Y-69799200D01*
X157454600Y-71297800D02*
X158953200Y-69799200D01*
X175619801Y-73080001D02*
X182443999Y-73080001D01*
X221000000Y-72034315D02*
X221000000Y-72600000D01*
X172339000Y-69799200D02*
X175619801Y-73080001D01*
X182443999Y-73080001D02*
X187662000Y-67862000D01*
X222498999Y-77997001D02*
X223224000Y-77272000D01*
X218869001Y-77997001D02*
X222498999Y-77997001D01*
X203000000Y-71600000D02*
X203000000Y-72165685D01*
X203000000Y-72165685D02*
X204934315Y-74100000D01*
X216872000Y-76000000D02*
X218869001Y-77997001D01*
X210900000Y-74100000D02*
X212800000Y-76000000D01*
X204934315Y-74100000D02*
X210900000Y-74100000D01*
X212800000Y-76000000D02*
X216872000Y-76000000D01*
X227288000Y-79304000D02*
X227920653Y-78671347D01*
X187972000Y-75172000D02*
X188140000Y-75004000D01*
X188140000Y-75004000D02*
X209996000Y-75004000D01*
X209996000Y-75004000D02*
X211796000Y-76804000D01*
X211796000Y-76804000D02*
X214596000Y-76804000D01*
X214596000Y-76804000D02*
X217096000Y-79304000D01*
X217096000Y-79304000D02*
X227288000Y-79304000D01*
X223420000Y-78600000D02*
X224240000Y-77780000D01*
X218082999Y-78082999D02*
X218600000Y-78600000D01*
X217624999Y-78082999D02*
X218082999Y-78082999D01*
X217225000Y-77683000D02*
X217624999Y-78082999D01*
X218600000Y-78600000D02*
X223420000Y-78600000D01*
X173736000Y-75184000D02*
X173482000Y-75438000D01*
X203800000Y-70200000D02*
X187864000Y-70200000D01*
X182880000Y-75184000D02*
X173736000Y-75184000D01*
X187864000Y-70200000D02*
X182880000Y-75184000D01*
X206200000Y-72600000D02*
X203800000Y-70200000D01*
X219200000Y-72600000D02*
X206200000Y-72600000D01*
X218780410Y-77272000D02*
X219663347Y-77272000D01*
X218154205Y-76645795D02*
X218780410Y-77272000D01*
X217200000Y-75200000D02*
X218154205Y-76154205D01*
X213600000Y-75200000D02*
X217200000Y-75200000D01*
X211700000Y-73300000D02*
X213600000Y-75200000D01*
X205773002Y-73300000D02*
X211700000Y-73300000D01*
X218154205Y-76154205D02*
X218154205Y-76645795D01*
X189221001Y-70874999D02*
X203348001Y-70874999D01*
X203348001Y-70874999D02*
X205773002Y-73300000D01*
X183261000Y-76835000D02*
X189221001Y-70874999D01*
X192508000Y-102108000D02*
X198628000Y-102108000D01*
X202692000Y-96520000D02*
X202692000Y-95504000D01*
X202692000Y-96520000D02*
X204216000Y-98044000D01*
D25*
X187308000Y-102108000D02*
X198628000Y-102108000D01*
X185400000Y-100200000D02*
X187308000Y-102108000D01*
D24*
X185928000Y-94545685D02*
X186400000Y-95017685D01*
X185928000Y-93980000D02*
X185928000Y-94545685D01*
X186400000Y-95017685D02*
X186400000Y-99000000D01*
X186400000Y-99000000D02*
X187984000Y-100584000D01*
X187984000Y-100584000D02*
X203708000Y-100584000D01*
D25*
X204400000Y-78981000D02*
X205000000Y-78381000D01*
X204400000Y-84165938D02*
X204400000Y-78981000D01*
X206634062Y-86400000D02*
X204400000Y-84165938D01*
X209400000Y-86400000D02*
X206634062Y-86400000D01*
D24*
X213600000Y-73600000D02*
X217069002Y-73600000D01*
X217069002Y-73600000D02*
X219044200Y-75575198D01*
D25*
X181007990Y-90007990D02*
X181007990Y-81083245D01*
X181007990Y-90647992D02*
X181007990Y-90007990D01*
X181007990Y-91207990D02*
X185400000Y-95600000D01*
X181007990Y-90792010D02*
X181007990Y-91207990D01*
X185400000Y-95600000D02*
X185400000Y-100200000D01*
X181007990Y-90007990D02*
X181007990Y-90792010D01*
X204050001Y-93501061D02*
X204050001Y-94561999D01*
X203699999Y-93151059D02*
X204050001Y-93501061D01*
X204050001Y-94561999D02*
X204000001Y-94611999D01*
X202300000Y-91300000D02*
X203699999Y-92699999D01*
X202300000Y-85900000D02*
X202300000Y-91300000D01*
X203699999Y-92699999D02*
X203699999Y-93151059D01*
X200800000Y-84400000D02*
X202300000Y-85900000D01*
D24*
X184000000Y-98800000D02*
X182935001Y-97735001D01*
X187000000Y-102800000D02*
X184000000Y-99800000D01*
X206000000Y-103800000D02*
X204900000Y-104900000D01*
X198246998Y-102800000D02*
X187000000Y-102800000D01*
X204900000Y-104900000D02*
X201700000Y-104900000D01*
X199800000Y-103000000D02*
X198446998Y-103000000D01*
X182935001Y-95940001D02*
X181610000Y-94615000D01*
X182935001Y-97735001D02*
X182935001Y-95940001D01*
X184000000Y-99800000D02*
X184000000Y-98800000D01*
X201700000Y-104900000D02*
X199800000Y-103000000D01*
X198446998Y-103000000D02*
X198246998Y-102800000D01*
X226800000Y-103800000D02*
X227800000Y-104800000D01*
X206000000Y-103800000D02*
X226800000Y-103800000D01*
X213416002Y-106623998D02*
X208295998Y-106623998D01*
X208295998Y-106623998D02*
X207336000Y-105664000D01*
X206641996Y-105664000D02*
X207336000Y-105664000D01*
D30*
G36*
X175454814Y-67871800D02*
G01*
X158638956Y-67871800D01*
X158638950Y-67871801D01*
X158578986Y-67871801D01*
X158521475Y-67890488D01*
X158461732Y-67899950D01*
X158407842Y-67927409D01*
X158350325Y-67946097D01*
X158301396Y-67981646D01*
X158247510Y-68009102D01*
X156061702Y-70194911D01*
X155910233Y-70150331D01*
X155649364Y-70117375D01*
X155386582Y-70126552D01*
X155128648Y-70177625D01*
X154882197Y-70269278D01*
X154653569Y-70399157D01*
X154448649Y-70563918D01*
X154272706Y-70759321D01*
X154130269Y-70980342D01*
X154025000Y-71221292D01*
X153959608Y-71475973D01*
X153935778Y-71737834D01*
X153954120Y-72000135D01*
X154014163Y-72256130D01*
X154114362Y-72499232D01*
X154252140Y-72723187D01*
X154423952Y-72922233D01*
X154625378Y-73091249D01*
X154851234Y-73225887D01*
X155095711Y-73322682D01*
X155352520Y-73379145D01*
X155615052Y-73393822D01*
X155876554Y-73366338D01*
X156130297Y-73297397D01*
X156369754Y-73188775D01*
X156588764Y-73043265D01*
X156695601Y-72944333D01*
X156695600Y-74110681D01*
X155607444Y-75198839D01*
X155386582Y-75206552D01*
X155128648Y-75257625D01*
X154882197Y-75349278D01*
X154653569Y-75479157D01*
X154448649Y-75643918D01*
X154272706Y-75839321D01*
X154130269Y-76060342D01*
X154025000Y-76301292D01*
X153959608Y-76555973D01*
X153935778Y-76817834D01*
X153954120Y-77080135D01*
X154014163Y-77336130D01*
X154114362Y-77579232D01*
X154252140Y-77803187D01*
X154423952Y-78002233D01*
X154625378Y-78171249D01*
X154851234Y-78305887D01*
X154887168Y-78320114D01*
X154844084Y-78386584D01*
X154779677Y-78601948D01*
X153798660Y-79582966D01*
X153798656Y-79582968D01*
X153628301Y-79753324D01*
X153600845Y-79807210D01*
X153565296Y-79856139D01*
X153546608Y-79913656D01*
X153519149Y-79967546D01*
X153509687Y-80027289D01*
X153491000Y-80084800D01*
X153491000Y-80144764D01*
X153490999Y-80144770D01*
X153491000Y-80793685D01*
X153368640Y-80953148D01*
X153266971Y-81198599D01*
X153241000Y-81395871D01*
X153240999Y-91351890D01*
X153211358Y-91400260D01*
X153127911Y-91661737D01*
X153109244Y-91935570D01*
X153156433Y-92205953D01*
X153266890Y-92457581D01*
X153401098Y-92630603D01*
X154328193Y-93557697D01*
X154272706Y-93619321D01*
X154130269Y-93840342D01*
X154025000Y-94081292D01*
X153959608Y-94335973D01*
X153935778Y-94597834D01*
X153954120Y-94860135D01*
X154014163Y-95116130D01*
X154114362Y-95359232D01*
X154252140Y-95583187D01*
X154423952Y-95782233D01*
X154625378Y-95951249D01*
X154851234Y-96085887D01*
X155095711Y-96182682D01*
X155352520Y-96239145D01*
X155615052Y-96253822D01*
X155876554Y-96226338D01*
X156130297Y-96157397D01*
X156369754Y-96048775D01*
X156588764Y-95903265D01*
X156681825Y-95817089D01*
X161498108Y-95817089D01*
X162560000Y-96878981D01*
X163627194Y-95811786D01*
X163384606Y-95643183D01*
X163147477Y-95529571D01*
X162895233Y-95455331D01*
X162634364Y-95422375D01*
X162371582Y-95431552D01*
X162113648Y-95482625D01*
X161867197Y-95574278D01*
X161638570Y-95704157D01*
X161498108Y-95817089D01*
X156681825Y-95817089D01*
X156781693Y-95724611D01*
X156943577Y-95517410D01*
X157070250Y-95286992D01*
X157158454Y-95039286D01*
X157206040Y-94780010D01*
X157209138Y-94484185D01*
X157166992Y-94223970D01*
X157083994Y-93974470D01*
X156962175Y-93741450D01*
X156804666Y-93530903D01*
X156709000Y-93438520D01*
X156709000Y-93240089D01*
X156715755Y-93141002D01*
X156697269Y-93035079D01*
X156684349Y-92928304D01*
X156673729Y-92900202D01*
X156668567Y-92870619D01*
X156625347Y-92772164D01*
X156587331Y-92671555D01*
X156570316Y-92646797D01*
X156558109Y-92618990D01*
X156497519Y-92540877D01*
X156431868Y-92445356D01*
X156353157Y-92375227D01*
X156051930Y-92074000D01*
X179471836Y-92074000D01*
X177925837Y-93620000D01*
X167755030Y-93620000D01*
X167727623Y-93613798D01*
X167627661Y-93620000D01*
X167592600Y-93620000D01*
X167565808Y-93623837D01*
X167474894Y-93629477D01*
X167441013Y-93641709D01*
X167405343Y-93646818D01*
X167322398Y-93684529D01*
X167236354Y-93715592D01*
X167208102Y-93736498D01*
X167174836Y-93751622D01*
X167096850Y-93818819D01*
X167074413Y-93835422D01*
X167054684Y-93855152D01*
X166983008Y-93916912D01*
X166964741Y-93945095D01*
X165450123Y-95459713D01*
X165435233Y-95455331D01*
X165174364Y-95422375D01*
X164911582Y-95431552D01*
X164653648Y-95482625D01*
X164407197Y-95574278D01*
X164178569Y-95704157D01*
X163973649Y-95868918D01*
X163829444Y-96029073D01*
X163804838Y-95996181D01*
X162741019Y-97060000D01*
X163803509Y-98122489D01*
X163829654Y-98089025D01*
X163948952Y-98227233D01*
X164150378Y-98396249D01*
X164376234Y-98530887D01*
X164620711Y-98627682D01*
X164877520Y-98684145D01*
X165140052Y-98698822D01*
X165401554Y-98671338D01*
X165655297Y-98602397D01*
X165894754Y-98493775D01*
X166113764Y-98348265D01*
X166306693Y-98169611D01*
X166369654Y-98089025D01*
X166488952Y-98227233D01*
X166690378Y-98396249D01*
X166916234Y-98530887D01*
X167160711Y-98627682D01*
X167417520Y-98684145D01*
X167680052Y-98698822D01*
X167941554Y-98671338D01*
X168089481Y-98631147D01*
X168061608Y-98762279D01*
X168040789Y-99060000D01*
X168061608Y-99357721D01*
X168123658Y-99649646D01*
X168225734Y-99930095D01*
X168365846Y-100193609D01*
X168576052Y-100482929D01*
X169998981Y-99060000D01*
X170361019Y-99060000D01*
X171777322Y-100476303D01*
X171910658Y-100317396D01*
X172068811Y-100064299D01*
X172190200Y-99791653D01*
X172272464Y-99504767D01*
X172314000Y-99209224D01*
X172314000Y-98910776D01*
X172272464Y-98615233D01*
X172190200Y-98328347D01*
X172068811Y-98055701D01*
X171910658Y-97802604D01*
X171777322Y-97643697D01*
X170361019Y-99060000D01*
X169998981Y-99060000D01*
X171609106Y-97449875D01*
X171249606Y-97207389D01*
X170981363Y-97076559D01*
X170697522Y-96984333D01*
X170403609Y-96932508D01*
X170105343Y-96922092D01*
X169808530Y-96953289D01*
X169518948Y-97025489D01*
X169272085Y-97125229D01*
X169274138Y-96929185D01*
X169231992Y-96668970D01*
X169148994Y-96419470D01*
X169027175Y-96186450D01*
X168869666Y-95975903D01*
X168680521Y-95793249D01*
X168464606Y-95643183D01*
X168227477Y-95529571D01*
X167975233Y-95455331D01*
X167957120Y-95453043D01*
X168022163Y-95388000D01*
X178192970Y-95388000D01*
X178220377Y-95394202D01*
X178320338Y-95388000D01*
X178355400Y-95388000D01*
X178382192Y-95384163D01*
X178473105Y-95378523D01*
X178506985Y-95366291D01*
X178542657Y-95361183D01*
X178625603Y-95323470D01*
X178711643Y-95292409D01*
X178739895Y-95271504D01*
X178773166Y-95256376D01*
X178851157Y-95189174D01*
X178873584Y-95172579D01*
X178893308Y-95152855D01*
X178964992Y-95091088D01*
X178983261Y-95062902D01*
X180133806Y-93912359D01*
X180060000Y-94081292D01*
X179994608Y-94335973D01*
X179970778Y-94597834D01*
X179989120Y-94860135D01*
X180049163Y-95116130D01*
X180149362Y-95359232D01*
X180287140Y-95583187D01*
X180458952Y-95782233D01*
X180660378Y-95951249D01*
X180886234Y-96085887D01*
X181130711Y-96182682D01*
X181387520Y-96239145D01*
X181650052Y-96253822D01*
X181911554Y-96226338D01*
X182097445Y-96175832D01*
X182176002Y-96254389D01*
X182176001Y-97795244D01*
X182176002Y-97795250D01*
X182176002Y-97855214D01*
X182194689Y-97912725D01*
X182204151Y-97972468D01*
X182231610Y-98026358D01*
X182250298Y-98083875D01*
X182285847Y-98132804D01*
X182313303Y-98186690D01*
X182377376Y-98250763D01*
X182197477Y-98164571D01*
X181945233Y-98090331D01*
X181684364Y-98057375D01*
X181421582Y-98066552D01*
X181163648Y-98117625D01*
X180917197Y-98209278D01*
X180688569Y-98339157D01*
X180483649Y-98503918D01*
X180307706Y-98699321D01*
X180165269Y-98920342D01*
X180060000Y-99161292D01*
X179994608Y-99415973D01*
X179970778Y-99677834D01*
X179989120Y-99940135D01*
X180049163Y-100196130D01*
X180149362Y-100439232D01*
X180287140Y-100663187D01*
X180458952Y-100862233D01*
X180476001Y-100876539D01*
X180476000Y-102430771D01*
X180500651Y-102634481D01*
X180597670Y-102891232D01*
X180753131Y-103117431D01*
X180937523Y-103281719D01*
X180917197Y-103289278D01*
X180688570Y-103419157D01*
X180548108Y-103532089D01*
X181791020Y-104775000D01*
X181610000Y-104956020D01*
X180356927Y-103702946D01*
X180165269Y-104000342D01*
X180060000Y-104241292D01*
X179994608Y-104495973D01*
X179975013Y-104711295D01*
X177079675Y-101815959D01*
X177014362Y-101741089D01*
X176926379Y-101679253D01*
X176841753Y-101612898D01*
X176814377Y-101600537D01*
X176789803Y-101583267D01*
X176689614Y-101544204D01*
X176591599Y-101499949D01*
X176562070Y-101494477D01*
X176533771Y-101483444D01*
X176435692Y-101471054D01*
X176321725Y-101449931D01*
X176216496Y-101455999D01*
X158939718Y-101455999D01*
X158143412Y-100659693D01*
X158601326Y-100659693D01*
X158823768Y-100833486D01*
X159082231Y-100982710D01*
X159358948Y-101094511D01*
X159648530Y-101166711D01*
X159945343Y-101197908D01*
X160243609Y-101187492D01*
X160537522Y-101135667D01*
X160821363Y-101043441D01*
X161089606Y-100912611D01*
X161449106Y-100670125D01*
X161438674Y-100659693D01*
X168761326Y-100659693D01*
X168983768Y-100833486D01*
X169242231Y-100982710D01*
X169518948Y-101094511D01*
X169808530Y-101166711D01*
X170105343Y-101197908D01*
X170403609Y-101187492D01*
X170697522Y-101135667D01*
X170981363Y-101043441D01*
X171249606Y-100912611D01*
X171609106Y-100670125D01*
X170180000Y-99241019D01*
X168761326Y-100659693D01*
X161438674Y-100659693D01*
X160020000Y-99241019D01*
X158601326Y-100659693D01*
X158143412Y-100659693D01*
X157207467Y-99723750D01*
X157209138Y-99564185D01*
X157166992Y-99303970D01*
X157085834Y-99060000D01*
X157880789Y-99060000D01*
X157901608Y-99357721D01*
X157963658Y-99649646D01*
X158065734Y-99930095D01*
X158205846Y-100193609D01*
X158416052Y-100482929D01*
X159838981Y-99060000D01*
X158416052Y-97637071D01*
X158205846Y-97926391D01*
X158065734Y-98189905D01*
X157963658Y-98470354D01*
X157901608Y-98762279D01*
X157880789Y-99060000D01*
X157085834Y-99060000D01*
X157083994Y-99054470D01*
X156962175Y-98821450D01*
X156804666Y-98610903D01*
X156615521Y-98428249D01*
X156399606Y-98278183D01*
X156162477Y-98164571D01*
X155910233Y-98090331D01*
X155649364Y-98057375D01*
X155386582Y-98066552D01*
X155128648Y-98117625D01*
X154882197Y-98209278D01*
X154653569Y-98339157D01*
X154448649Y-98503918D01*
X154272706Y-98699321D01*
X154130269Y-98920342D01*
X154025000Y-99161292D01*
X153959608Y-99415973D01*
X153935778Y-99677834D01*
X153954120Y-99940135D01*
X154014163Y-100196130D01*
X154114362Y-100439232D01*
X154252140Y-100663187D01*
X154423952Y-100862233D01*
X154625378Y-101031249D01*
X154851234Y-101165887D01*
X155095711Y-101262682D01*
X155352520Y-101319145D01*
X155609812Y-101333529D01*
X157640330Y-103364047D01*
X157705636Y-103438909D01*
X157737790Y-103461508D01*
X157742770Y-103466488D01*
X157904246Y-103593102D01*
X158154398Y-103706049D01*
X158424273Y-103756068D01*
X158698287Y-103740267D01*
X158751169Y-103723999D01*
X172752163Y-103723999D01*
X172752163Y-104012000D01*
X175735837Y-104012000D01*
X175735837Y-103723999D01*
X175780282Y-103723999D01*
X179372283Y-107316000D01*
X178434000Y-107316000D01*
X178434000Y-106688539D01*
X178434583Y-106593073D01*
X178421509Y-106547328D01*
X178414764Y-106500232D01*
X178396684Y-106460467D01*
X178384677Y-106418460D01*
X178359294Y-106378229D01*
X178339598Y-106334911D01*
X178311080Y-106301816D01*
X178287773Y-106264874D01*
X178252111Y-106233378D01*
X178221053Y-106197335D01*
X178184399Y-106173578D01*
X178151654Y-106144658D01*
X178108578Y-106124434D01*
X178068661Y-106098561D01*
X178026818Y-106086048D01*
X177986911Y-106067311D01*
X177941455Y-106060518D01*
X177894672Y-106046527D01*
X177845832Y-106046228D01*
X177844306Y-106046000D01*
X177808538Y-106046000D01*
X177713073Y-106045417D01*
X177711033Y-106046000D01*
X156614751Y-106046000D01*
X156644930Y-106025949D01*
X155575000Y-104956019D01*
X154496560Y-106034459D01*
X154515920Y-106046000D01*
X153034000Y-106046000D01*
X153034000Y-104757834D01*
X153935778Y-104757834D01*
X153954120Y-105020135D01*
X154014163Y-105276130D01*
X154114362Y-105519232D01*
X154318282Y-105850699D01*
X155393981Y-104775000D01*
X155756019Y-104775000D01*
X156818509Y-105837489D01*
X156943577Y-105677410D01*
X157070250Y-105446992D01*
X157158454Y-105199286D01*
X157206040Y-104940010D01*
X157209138Y-104644185D01*
X157166992Y-104383970D01*
X157128414Y-104268000D01*
X172752163Y-104268000D01*
X172752163Y-105006588D01*
X172832795Y-105307512D01*
X172980185Y-105483165D01*
X173173814Y-105594956D01*
X173382976Y-105631837D01*
X174116000Y-105631837D01*
X174116000Y-104268000D01*
X174372000Y-104268000D01*
X174372000Y-105631837D01*
X175110588Y-105631837D01*
X175411512Y-105551205D01*
X175587165Y-105403815D01*
X175698956Y-105210186D01*
X175735837Y-105001024D01*
X175735837Y-104268000D01*
X174372000Y-104268000D01*
X174116000Y-104268000D01*
X172752163Y-104268000D01*
X157128414Y-104268000D01*
X157083994Y-104134470D01*
X156962175Y-103901450D01*
X156819838Y-103711181D01*
X155756019Y-104775000D01*
X155393981Y-104775000D01*
X154321927Y-103702946D01*
X154130269Y-104000342D01*
X154025000Y-104241292D01*
X153959608Y-104495973D01*
X153935778Y-104757834D01*
X153034000Y-104757834D01*
X153034000Y-103532089D01*
X154513108Y-103532089D01*
X155575000Y-104593981D01*
X156642194Y-103526786D01*
X156399606Y-103358183D01*
X156162477Y-103244571D01*
X155910233Y-103170331D01*
X155649364Y-103137375D01*
X155386582Y-103146552D01*
X155128648Y-103197625D01*
X154882197Y-103289278D01*
X154653570Y-103419157D01*
X154513108Y-103532089D01*
X153034000Y-103532089D01*
X153034000Y-97460307D01*
X158601326Y-97460307D01*
X161617322Y-100476303D01*
X161750658Y-100317396D01*
X161908811Y-100064299D01*
X162030200Y-99791653D01*
X162112464Y-99504767D01*
X162154000Y-99209224D01*
X162154000Y-98910776D01*
X162115282Y-98635283D01*
X162337520Y-98684145D01*
X162600052Y-98698822D01*
X162861554Y-98671338D01*
X163115297Y-98602397D01*
X163354754Y-98493775D01*
X163629930Y-98310949D01*
X161306927Y-95987946D01*
X161115269Y-96285342D01*
X161010000Y-96526292D01*
X160944608Y-96780973D01*
X160920778Y-97042834D01*
X160926730Y-97127950D01*
X160821363Y-97076559D01*
X160537522Y-96984333D01*
X160243609Y-96932508D01*
X159945343Y-96922092D01*
X159648530Y-96953289D01*
X159358948Y-97025489D01*
X159082231Y-97137290D01*
X158823768Y-97286514D01*
X158601326Y-97460307D01*
X153034000Y-97460307D01*
X153034000Y-67934459D01*
X154496560Y-67934459D01*
X154851235Y-68145887D01*
X155095711Y-68242682D01*
X155352520Y-68299145D01*
X155615052Y-68313822D01*
X155876554Y-68286338D01*
X156130297Y-68217397D01*
X156369754Y-68108775D01*
X156644930Y-67925949D01*
X155575000Y-66856019D01*
X154496560Y-67934459D01*
X153034000Y-67934459D01*
X153034000Y-66657834D01*
X153935778Y-66657834D01*
X153954120Y-66920135D01*
X154014163Y-67176130D01*
X154114362Y-67419232D01*
X154318282Y-67750699D01*
X155393981Y-66675000D01*
X155756019Y-66675000D01*
X156818509Y-67737489D01*
X156943577Y-67577410D01*
X157070250Y-67346992D01*
X157158454Y-67099286D01*
X157206040Y-66840010D01*
X157209138Y-66544185D01*
X157166992Y-66283970D01*
X157083994Y-66034470D01*
X156962175Y-65801450D01*
X156819838Y-65611181D01*
X155756019Y-66675000D01*
X155393981Y-66675000D01*
X154321927Y-65602946D01*
X154130269Y-65900342D01*
X154025000Y-66141292D01*
X153959608Y-66395973D01*
X153935778Y-66657834D01*
X153034000Y-66657834D01*
X153034000Y-65404000D01*
X154548044Y-65404000D01*
X154513108Y-65432089D01*
X155575000Y-66493981D01*
X156642194Y-65426786D01*
X156609409Y-65404000D01*
X170171462Y-65404000D01*
X170266927Y-65404583D01*
X170312672Y-65391509D01*
X170359768Y-65384764D01*
X170399533Y-65366684D01*
X170441540Y-65354677D01*
X170481771Y-65329294D01*
X170525089Y-65309598D01*
X170558184Y-65281080D01*
X170595126Y-65257773D01*
X170626621Y-65222111D01*
X170662664Y-65191054D01*
X170686422Y-65154399D01*
X170715342Y-65121654D01*
X170735564Y-65078584D01*
X170761439Y-65038662D01*
X170773953Y-64996817D01*
X170792689Y-64956912D01*
X170799483Y-64911454D01*
X170813473Y-64864673D01*
X170813772Y-64815832D01*
X170814000Y-64814306D01*
X170814000Y-64778539D01*
X170814583Y-64683073D01*
X170814000Y-64681033D01*
X170814000Y-64134000D01*
X179192612Y-64134000D01*
X175454814Y-67871800D01*
X175454814Y-67871800D01*
G37*
X175454814Y-67871800D02*
X158638956Y-67871800D01*
X158638950Y-67871801D01*
X158578986Y-67871801D01*
X158521475Y-67890488D01*
X158461732Y-67899950D01*
X158407842Y-67927409D01*
X158350325Y-67946097D01*
X158301396Y-67981646D01*
X158247510Y-68009102D01*
X156061702Y-70194911D01*
X155910233Y-70150331D01*
X155649364Y-70117375D01*
X155386582Y-70126552D01*
X155128648Y-70177625D01*
X154882197Y-70269278D01*
X154653569Y-70399157D01*
X154448649Y-70563918D01*
X154272706Y-70759321D01*
X154130269Y-70980342D01*
X154025000Y-71221292D01*
X153959608Y-71475973D01*
X153935778Y-71737834D01*
X153954120Y-72000135D01*
X154014163Y-72256130D01*
X154114362Y-72499232D01*
X154252140Y-72723187D01*
X154423952Y-72922233D01*
X154625378Y-73091249D01*
X154851234Y-73225887D01*
X155095711Y-73322682D01*
X155352520Y-73379145D01*
X155615052Y-73393822D01*
X155876554Y-73366338D01*
X156130297Y-73297397D01*
X156369754Y-73188775D01*
X156588764Y-73043265D01*
X156695601Y-72944333D01*
X156695600Y-74110681D01*
X155607444Y-75198839D01*
X155386582Y-75206552D01*
X155128648Y-75257625D01*
X154882197Y-75349278D01*
X154653569Y-75479157D01*
X154448649Y-75643918D01*
X154272706Y-75839321D01*
X154130269Y-76060342D01*
X154025000Y-76301292D01*
X153959608Y-76555973D01*
X153935778Y-76817834D01*
X153954120Y-77080135D01*
X154014163Y-77336130D01*
X154114362Y-77579232D01*
X154252140Y-77803187D01*
X154423952Y-78002233D01*
X154625378Y-78171249D01*
X154851234Y-78305887D01*
X154887168Y-78320114D01*
X154844084Y-78386584D01*
X154779677Y-78601948D01*
X153798660Y-79582966D01*
X153798656Y-79582968D01*
X153628301Y-79753324D01*
X153600845Y-79807210D01*
X153565296Y-79856139D01*
X153546608Y-79913656D01*
X153519149Y-79967546D01*
X153509687Y-80027289D01*
X153491000Y-80084800D01*
X153491000Y-80144764D01*
X153490999Y-80144770D01*
X153491000Y-80793685D01*
X153368640Y-80953148D01*
X153266971Y-81198599D01*
X153241000Y-81395871D01*
X153240999Y-91351890D01*
X153211358Y-91400260D01*
X153127911Y-91661737D01*
X153109244Y-91935570D01*
X153156433Y-92205953D01*
X153266890Y-92457581D01*
X153401098Y-92630603D01*
X154328193Y-93557697D01*
X154272706Y-93619321D01*
X154130269Y-93840342D01*
X154025000Y-94081292D01*
X153959608Y-94335973D01*
X153935778Y-94597834D01*
X153954120Y-94860135D01*
X154014163Y-95116130D01*
X154114362Y-95359232D01*
X154252140Y-95583187D01*
X154423952Y-95782233D01*
X154625378Y-95951249D01*
X154851234Y-96085887D01*
X155095711Y-96182682D01*
X155352520Y-96239145D01*
X155615052Y-96253822D01*
X155876554Y-96226338D01*
X156130297Y-96157397D01*
X156369754Y-96048775D01*
X156588764Y-95903265D01*
X156681825Y-95817089D01*
X161498108Y-95817089D01*
X162560000Y-96878981D01*
X163627194Y-95811786D01*
X163384606Y-95643183D01*
X163147477Y-95529571D01*
X162895233Y-95455331D01*
X162634364Y-95422375D01*
X162371582Y-95431552D01*
X162113648Y-95482625D01*
X161867197Y-95574278D01*
X161638570Y-95704157D01*
X161498108Y-95817089D01*
X156681825Y-95817089D01*
X156781693Y-95724611D01*
X156943577Y-95517410D01*
X157070250Y-95286992D01*
X157158454Y-95039286D01*
X157206040Y-94780010D01*
X157209138Y-94484185D01*
X157166992Y-94223970D01*
X157083994Y-93974470D01*
X156962175Y-93741450D01*
X156804666Y-93530903D01*
X156709000Y-93438520D01*
X156709000Y-93240089D01*
X156715755Y-93141002D01*
X156697269Y-93035079D01*
X156684349Y-92928304D01*
X156673729Y-92900202D01*
X156668567Y-92870619D01*
X156625347Y-92772164D01*
X156587331Y-92671555D01*
X156570316Y-92646797D01*
X156558109Y-92618990D01*
X156497519Y-92540877D01*
X156431868Y-92445356D01*
X156353157Y-92375227D01*
X156051930Y-92074000D01*
X179471836Y-92074000D01*
X177925837Y-93620000D01*
X167755030Y-93620000D01*
X167727623Y-93613798D01*
X167627661Y-93620000D01*
X167592600Y-93620000D01*
X167565808Y-93623837D01*
X167474894Y-93629477D01*
X167441013Y-93641709D01*
X167405343Y-93646818D01*
X167322398Y-93684529D01*
X167236354Y-93715592D01*
X167208102Y-93736498D01*
X167174836Y-93751622D01*
X167096850Y-93818819D01*
X167074413Y-93835422D01*
X167054684Y-93855152D01*
X166983008Y-93916912D01*
X166964741Y-93945095D01*
X165450123Y-95459713D01*
X165435233Y-95455331D01*
X165174364Y-95422375D01*
X164911582Y-95431552D01*
X164653648Y-95482625D01*
X164407197Y-95574278D01*
X164178569Y-95704157D01*
X163973649Y-95868918D01*
X163829444Y-96029073D01*
X163804838Y-95996181D01*
X162741019Y-97060000D01*
X163803509Y-98122489D01*
X163829654Y-98089025D01*
X163948952Y-98227233D01*
X164150378Y-98396249D01*
X164376234Y-98530887D01*
X164620711Y-98627682D01*
X164877520Y-98684145D01*
X165140052Y-98698822D01*
X165401554Y-98671338D01*
X165655297Y-98602397D01*
X165894754Y-98493775D01*
X166113764Y-98348265D01*
X166306693Y-98169611D01*
X166369654Y-98089025D01*
X166488952Y-98227233D01*
X166690378Y-98396249D01*
X166916234Y-98530887D01*
X167160711Y-98627682D01*
X167417520Y-98684145D01*
X167680052Y-98698822D01*
X167941554Y-98671338D01*
X168089481Y-98631147D01*
X168061608Y-98762279D01*
X168040789Y-99060000D01*
X168061608Y-99357721D01*
X168123658Y-99649646D01*
X168225734Y-99930095D01*
X168365846Y-100193609D01*
X168576052Y-100482929D01*
X169998981Y-99060000D01*
X170361019Y-99060000D01*
X171777322Y-100476303D01*
X171910658Y-100317396D01*
X172068811Y-100064299D01*
X172190200Y-99791653D01*
X172272464Y-99504767D01*
X172314000Y-99209224D01*
X172314000Y-98910776D01*
X172272464Y-98615233D01*
X172190200Y-98328347D01*
X172068811Y-98055701D01*
X171910658Y-97802604D01*
X171777322Y-97643697D01*
X170361019Y-99060000D01*
X169998981Y-99060000D01*
X171609106Y-97449875D01*
X171249606Y-97207389D01*
X170981363Y-97076559D01*
X170697522Y-96984333D01*
X170403609Y-96932508D01*
X170105343Y-96922092D01*
X169808530Y-96953289D01*
X169518948Y-97025489D01*
X169272085Y-97125229D01*
X169274138Y-96929185D01*
X169231992Y-96668970D01*
X169148994Y-96419470D01*
X169027175Y-96186450D01*
X168869666Y-95975903D01*
X168680521Y-95793249D01*
X168464606Y-95643183D01*
X168227477Y-95529571D01*
X167975233Y-95455331D01*
X167957120Y-95453043D01*
X168022163Y-95388000D01*
X178192970Y-95388000D01*
X178220377Y-95394202D01*
X178320338Y-95388000D01*
X178355400Y-95388000D01*
X178382192Y-95384163D01*
X178473105Y-95378523D01*
X178506985Y-95366291D01*
X178542657Y-95361183D01*
X178625603Y-95323470D01*
X178711643Y-95292409D01*
X178739895Y-95271504D01*
X178773166Y-95256376D01*
X178851157Y-95189174D01*
X178873584Y-95172579D01*
X178893308Y-95152855D01*
X178964992Y-95091088D01*
X178983261Y-95062902D01*
X180133806Y-93912359D01*
X180060000Y-94081292D01*
X179994608Y-94335973D01*
X179970778Y-94597834D01*
X179989120Y-94860135D01*
X180049163Y-95116130D01*
X180149362Y-95359232D01*
X180287140Y-95583187D01*
X180458952Y-95782233D01*
X180660378Y-95951249D01*
X180886234Y-96085887D01*
X181130711Y-96182682D01*
X181387520Y-96239145D01*
X181650052Y-96253822D01*
X181911554Y-96226338D01*
X182097445Y-96175832D01*
X182176002Y-96254389D01*
X182176001Y-97795244D01*
X182176002Y-97795250D01*
X182176002Y-97855214D01*
X182194689Y-97912725D01*
X182204151Y-97972468D01*
X182231610Y-98026358D01*
X182250298Y-98083875D01*
X182285847Y-98132804D01*
X182313303Y-98186690D01*
X182377376Y-98250763D01*
X182197477Y-98164571D01*
X181945233Y-98090331D01*
X181684364Y-98057375D01*
X181421582Y-98066552D01*
X181163648Y-98117625D01*
X180917197Y-98209278D01*
X180688569Y-98339157D01*
X180483649Y-98503918D01*
X180307706Y-98699321D01*
X180165269Y-98920342D01*
X180060000Y-99161292D01*
X179994608Y-99415973D01*
X179970778Y-99677834D01*
X179989120Y-99940135D01*
X180049163Y-100196130D01*
X180149362Y-100439232D01*
X180287140Y-100663187D01*
X180458952Y-100862233D01*
X180476001Y-100876539D01*
X180476000Y-102430771D01*
X180500651Y-102634481D01*
X180597670Y-102891232D01*
X180753131Y-103117431D01*
X180937523Y-103281719D01*
X180917197Y-103289278D01*
X180688570Y-103419157D01*
X180548108Y-103532089D01*
X181791020Y-104775000D01*
X181610000Y-104956020D01*
X180356927Y-103702946D01*
X180165269Y-104000342D01*
X180060000Y-104241292D01*
X179994608Y-104495973D01*
X179975013Y-104711295D01*
X177079675Y-101815959D01*
X177014362Y-101741089D01*
X176926379Y-101679253D01*
X176841753Y-101612898D01*
X176814377Y-101600537D01*
X176789803Y-101583267D01*
X176689614Y-101544204D01*
X176591599Y-101499949D01*
X176562070Y-101494477D01*
X176533771Y-101483444D01*
X176435692Y-101471054D01*
X176321725Y-101449931D01*
X176216496Y-101455999D01*
X158939718Y-101455999D01*
X158143412Y-100659693D01*
X158601326Y-100659693D01*
X158823768Y-100833486D01*
X159082231Y-100982710D01*
X159358948Y-101094511D01*
X159648530Y-101166711D01*
X159945343Y-101197908D01*
X160243609Y-101187492D01*
X160537522Y-101135667D01*
X160821363Y-101043441D01*
X161089606Y-100912611D01*
X161449106Y-100670125D01*
X161438674Y-100659693D01*
X168761326Y-100659693D01*
X168983768Y-100833486D01*
X169242231Y-100982710D01*
X169518948Y-101094511D01*
X169808530Y-101166711D01*
X170105343Y-101197908D01*
X170403609Y-101187492D01*
X170697522Y-101135667D01*
X170981363Y-101043441D01*
X171249606Y-100912611D01*
X171609106Y-100670125D01*
X170180000Y-99241019D01*
X168761326Y-100659693D01*
X161438674Y-100659693D01*
X160020000Y-99241019D01*
X158601326Y-100659693D01*
X158143412Y-100659693D01*
X157207467Y-99723750D01*
X157209138Y-99564185D01*
X157166992Y-99303970D01*
X157085834Y-99060000D01*
X157880789Y-99060000D01*
X157901608Y-99357721D01*
X157963658Y-99649646D01*
X158065734Y-99930095D01*
X158205846Y-100193609D01*
X158416052Y-100482929D01*
X159838981Y-99060000D01*
X158416052Y-97637071D01*
X158205846Y-97926391D01*
X158065734Y-98189905D01*
X157963658Y-98470354D01*
X157901608Y-98762279D01*
X157880789Y-99060000D01*
X157085834Y-99060000D01*
X157083994Y-99054470D01*
X156962175Y-98821450D01*
X156804666Y-98610903D01*
X156615521Y-98428249D01*
X156399606Y-98278183D01*
X156162477Y-98164571D01*
X155910233Y-98090331D01*
X155649364Y-98057375D01*
X155386582Y-98066552D01*
X155128648Y-98117625D01*
X154882197Y-98209278D01*
X154653569Y-98339157D01*
X154448649Y-98503918D01*
X154272706Y-98699321D01*
X154130269Y-98920342D01*
X154025000Y-99161292D01*
X153959608Y-99415973D01*
X153935778Y-99677834D01*
X153954120Y-99940135D01*
X154014163Y-100196130D01*
X154114362Y-100439232D01*
X154252140Y-100663187D01*
X154423952Y-100862233D01*
X154625378Y-101031249D01*
X154851234Y-101165887D01*
X155095711Y-101262682D01*
X155352520Y-101319145D01*
X155609812Y-101333529D01*
X157640330Y-103364047D01*
X157705636Y-103438909D01*
X157737790Y-103461508D01*
X157742770Y-103466488D01*
X157904246Y-103593102D01*
X158154398Y-103706049D01*
X158424273Y-103756068D01*
X158698287Y-103740267D01*
X158751169Y-103723999D01*
X172752163Y-103723999D01*
X172752163Y-104012000D01*
X175735837Y-104012000D01*
X175735837Y-103723999D01*
X175780282Y-103723999D01*
X179372283Y-107316000D01*
X178434000Y-107316000D01*
X178434000Y-106688539D01*
X178434583Y-106593073D01*
X178421509Y-106547328D01*
X178414764Y-106500232D01*
X178396684Y-106460467D01*
X178384677Y-106418460D01*
X178359294Y-106378229D01*
X178339598Y-106334911D01*
X178311080Y-106301816D01*
X178287773Y-106264874D01*
X178252111Y-106233378D01*
X178221053Y-106197335D01*
X178184399Y-106173578D01*
X178151654Y-106144658D01*
X178108578Y-106124434D01*
X178068661Y-106098561D01*
X178026818Y-106086048D01*
X177986911Y-106067311D01*
X177941455Y-106060518D01*
X177894672Y-106046527D01*
X177845832Y-106046228D01*
X177844306Y-106046000D01*
X177808538Y-106046000D01*
X177713073Y-106045417D01*
X177711033Y-106046000D01*
X156614751Y-106046000D01*
X156644930Y-106025949D01*
X155575000Y-104956019D01*
X154496560Y-106034459D01*
X154515920Y-106046000D01*
X153034000Y-106046000D01*
X153034000Y-104757834D01*
X153935778Y-104757834D01*
X153954120Y-105020135D01*
X154014163Y-105276130D01*
X154114362Y-105519232D01*
X154318282Y-105850699D01*
X155393981Y-104775000D01*
X155756019Y-104775000D01*
X156818509Y-105837489D01*
X156943577Y-105677410D01*
X157070250Y-105446992D01*
X157158454Y-105199286D01*
X157206040Y-104940010D01*
X157209138Y-104644185D01*
X157166992Y-104383970D01*
X157128414Y-104268000D01*
X172752163Y-104268000D01*
X172752163Y-105006588D01*
X172832795Y-105307512D01*
X172980185Y-105483165D01*
X173173814Y-105594956D01*
X173382976Y-105631837D01*
X174116000Y-105631837D01*
X174116000Y-104268000D01*
X174372000Y-104268000D01*
X174372000Y-105631837D01*
X175110588Y-105631837D01*
X175411512Y-105551205D01*
X175587165Y-105403815D01*
X175698956Y-105210186D01*
X175735837Y-105001024D01*
X175735837Y-104268000D01*
X174372000Y-104268000D01*
X174116000Y-104268000D01*
X172752163Y-104268000D01*
X157128414Y-104268000D01*
X157083994Y-104134470D01*
X156962175Y-103901450D01*
X156819838Y-103711181D01*
X155756019Y-104775000D01*
X155393981Y-104775000D01*
X154321927Y-103702946D01*
X154130269Y-104000342D01*
X154025000Y-104241292D01*
X153959608Y-104495973D01*
X153935778Y-104757834D01*
X153034000Y-104757834D01*
X153034000Y-103532089D01*
X154513108Y-103532089D01*
X155575000Y-104593981D01*
X156642194Y-103526786D01*
X156399606Y-103358183D01*
X156162477Y-103244571D01*
X155910233Y-103170331D01*
X155649364Y-103137375D01*
X155386582Y-103146552D01*
X155128648Y-103197625D01*
X154882197Y-103289278D01*
X154653570Y-103419157D01*
X154513108Y-103532089D01*
X153034000Y-103532089D01*
X153034000Y-97460307D01*
X158601326Y-97460307D01*
X161617322Y-100476303D01*
X161750658Y-100317396D01*
X161908811Y-100064299D01*
X162030200Y-99791653D01*
X162112464Y-99504767D01*
X162154000Y-99209224D01*
X162154000Y-98910776D01*
X162115282Y-98635283D01*
X162337520Y-98684145D01*
X162600052Y-98698822D01*
X162861554Y-98671338D01*
X163115297Y-98602397D01*
X163354754Y-98493775D01*
X163629930Y-98310949D01*
X161306927Y-95987946D01*
X161115269Y-96285342D01*
X161010000Y-96526292D01*
X160944608Y-96780973D01*
X160920778Y-97042834D01*
X160926730Y-97127950D01*
X160821363Y-97076559D01*
X160537522Y-96984333D01*
X160243609Y-96932508D01*
X159945343Y-96922092D01*
X159648530Y-96953289D01*
X159358948Y-97025489D01*
X159082231Y-97137290D01*
X158823768Y-97286514D01*
X158601326Y-97460307D01*
X153034000Y-97460307D01*
X153034000Y-67934459D01*
X154496560Y-67934459D01*
X154851235Y-68145887D01*
X155095711Y-68242682D01*
X155352520Y-68299145D01*
X155615052Y-68313822D01*
X155876554Y-68286338D01*
X156130297Y-68217397D01*
X156369754Y-68108775D01*
X156644930Y-67925949D01*
X155575000Y-66856019D01*
X154496560Y-67934459D01*
X153034000Y-67934459D01*
X153034000Y-66657834D01*
X153935778Y-66657834D01*
X153954120Y-66920135D01*
X154014163Y-67176130D01*
X154114362Y-67419232D01*
X154318282Y-67750699D01*
X155393981Y-66675000D01*
X155756019Y-66675000D01*
X156818509Y-67737489D01*
X156943577Y-67577410D01*
X157070250Y-67346992D01*
X157158454Y-67099286D01*
X157206040Y-66840010D01*
X157209138Y-66544185D01*
X157166992Y-66283970D01*
X157083994Y-66034470D01*
X156962175Y-65801450D01*
X156819838Y-65611181D01*
X155756019Y-66675000D01*
X155393981Y-66675000D01*
X154321927Y-65602946D01*
X154130269Y-65900342D01*
X154025000Y-66141292D01*
X153959608Y-66395973D01*
X153935778Y-66657834D01*
X153034000Y-66657834D01*
X153034000Y-65404000D01*
X154548044Y-65404000D01*
X154513108Y-65432089D01*
X155575000Y-66493981D01*
X156642194Y-65426786D01*
X156609409Y-65404000D01*
X170171462Y-65404000D01*
X170266927Y-65404583D01*
X170312672Y-65391509D01*
X170359768Y-65384764D01*
X170399533Y-65366684D01*
X170441540Y-65354677D01*
X170481771Y-65329294D01*
X170525089Y-65309598D01*
X170558184Y-65281080D01*
X170595126Y-65257773D01*
X170626621Y-65222111D01*
X170662664Y-65191054D01*
X170686422Y-65154399D01*
X170715342Y-65121654D01*
X170735564Y-65078584D01*
X170761439Y-65038662D01*
X170773953Y-64996817D01*
X170792689Y-64956912D01*
X170799483Y-64911454D01*
X170813473Y-64864673D01*
X170813772Y-64815832D01*
X170814000Y-64814306D01*
X170814000Y-64778539D01*
X170814583Y-64683073D01*
X170814000Y-64681033D01*
X170814000Y-64134000D01*
X179192612Y-64134000D01*
X175454814Y-67871800D01*
G36*
X238764617Y-70629579D02*
G01*
X238761103Y-71722536D01*
X238761102Y-71722536D01*
X238760554Y-71842916D01*
X238773281Y-71887184D01*
X238779663Y-71932792D01*
X238798241Y-71974004D01*
X238810732Y-72017451D01*
X238835368Y-72056363D01*
X238854296Y-72098351D01*
X238883698Y-72132695D01*
X238907876Y-72170886D01*
X238942447Y-72201322D01*
X238972397Y-72236307D01*
X239010249Y-72261015D01*
X239044182Y-72290890D01*
X239085907Y-72310400D01*
X239124471Y-72335572D01*
X239167733Y-72348662D01*
X239209045Y-72367979D01*
X239253109Y-72374494D01*
X239298291Y-72388165D01*
X239348756Y-72388636D01*
X239351669Y-72389067D01*
X239388788Y-72389010D01*
X239479888Y-72389859D01*
X239483419Y-72388862D01*
X242341520Y-72384403D01*
X245741055Y-75716400D01*
X245745869Y-99059148D01*
X240159000Y-99042848D01*
X240159000Y-96785538D01*
X240164233Y-96738511D01*
X240163633Y-96722504D01*
X240146101Y-96320949D01*
X240143156Y-96305286D01*
X240143497Y-96288970D01*
X240141461Y-96273083D01*
X240084823Y-95851401D01*
X240080257Y-95835266D01*
X240079030Y-95818143D01*
X240075535Y-95802512D01*
X239980187Y-95387862D01*
X239974150Y-95372217D01*
X239971346Y-95355280D01*
X239966420Y-95340037D01*
X239833179Y-94935971D01*
X239825723Y-94920952D01*
X239821369Y-94904354D01*
X239815059Y-94889631D01*
X239645061Y-94499595D01*
X239636250Y-94485328D01*
X239630379Y-94469198D01*
X239622735Y-94455121D01*
X239417437Y-94082456D01*
X239407344Y-94069062D01*
X239400006Y-94053539D01*
X239391093Y-94040230D01*
X239152255Y-93688128D01*
X239140968Y-93675724D01*
X239132232Y-93660953D01*
X239122129Y-93648522D01*
X238851783Y-93319983D01*
X238839398Y-93308673D01*
X238829333Y-93294769D01*
X238818125Y-93283326D01*
X238518591Y-92981167D01*
X238505216Y-92971051D01*
X238493908Y-92958134D01*
X238481692Y-92947776D01*
X238155525Y-92674573D01*
X238141271Y-92665735D01*
X238128821Y-92653921D01*
X238115701Y-92644735D01*
X237765691Y-92402829D01*
X237750685Y-92395347D01*
X237737194Y-92384731D01*
X237723281Y-92376796D01*
X237352420Y-92168253D01*
X237336786Y-92162190D01*
X237322381Y-92152870D01*
X237307791Y-92146252D01*
X236919255Y-91972858D01*
X236903125Y-91968263D01*
X236887912Y-91960310D01*
X236872775Y-91955070D01*
X236469887Y-91818308D01*
X236453403Y-91815223D01*
X236437532Y-91808714D01*
X236421976Y-91804892D01*
X236008167Y-91705927D01*
X235991469Y-91704378D01*
X235975061Y-91699361D01*
X235959217Y-91696993D01*
X235538039Y-91636676D01*
X235521266Y-91636676D01*
X235504467Y-91633197D01*
X235488474Y-91632303D01*
X235063527Y-91611148D01*
X235046832Y-91612697D01*
X235029771Y-91610783D01*
X235013764Y-91611371D01*
X234588684Y-91629559D01*
X234572199Y-91632644D01*
X234555037Y-91632315D01*
X234539154Y-91634379D01*
X234117572Y-91691753D01*
X234101442Y-91696348D01*
X234084322Y-91697605D01*
X234068696Y-91701127D01*
X233654214Y-91797199D01*
X233638580Y-91803264D01*
X233621654Y-91806096D01*
X233606418Y-91811047D01*
X233202582Y-91944994D01*
X233187575Y-91952477D01*
X233170983Y-91956860D01*
X233156271Y-91963197D01*
X232766534Y-92133874D01*
X232752277Y-92142714D01*
X232736170Y-92148608D01*
X232722106Y-92156275D01*
X232349794Y-92362226D01*
X232336418Y-92372342D01*
X232320918Y-92379702D01*
X232307622Y-92388636D01*
X231955930Y-92628095D01*
X231943546Y-92639403D01*
X231928787Y-92648166D01*
X231916375Y-92658292D01*
X231588309Y-92929207D01*
X231577019Y-92941615D01*
X231563137Y-92951701D01*
X231551713Y-92962928D01*
X231250073Y-93262994D01*
X231239981Y-93276386D01*
X231227084Y-93287716D01*
X231216746Y-93299952D01*
X230944115Y-93626593D01*
X230935302Y-93640863D01*
X230923508Y-93653335D01*
X230914345Y-93666473D01*
X230673053Y-94016898D01*
X230665595Y-94031920D01*
X230655005Y-94045428D01*
X230647094Y-94059354D01*
X230439199Y-94430578D01*
X230433162Y-94446223D01*
X230423866Y-94460648D01*
X230417274Y-94475248D01*
X230244558Y-94864087D01*
X230239993Y-94880220D01*
X230232067Y-94895445D01*
X230226853Y-94910591D01*
X230090793Y-95313723D01*
X230087737Y-95330212D01*
X230081254Y-95346098D01*
X230077460Y-95361660D01*
X229979219Y-95775639D01*
X229977699Y-95792339D01*
X229972711Y-95808756D01*
X229970370Y-95824604D01*
X229910789Y-96245886D01*
X229910818Y-96262658D01*
X229907368Y-96279467D01*
X229906502Y-96295461D01*
X229886088Y-96720443D01*
X229887666Y-96737139D01*
X229885783Y-96754198D01*
X229886399Y-96770204D01*
X229905328Y-97195253D01*
X229908442Y-97211733D01*
X229908143Y-97228886D01*
X229910233Y-97244767D01*
X229968345Y-97666259D01*
X229972967Y-97682376D01*
X229974254Y-97699497D01*
X229977806Y-97715118D01*
X230074599Y-98129427D01*
X230080690Y-98145048D01*
X230083554Y-98161981D01*
X230088533Y-98177207D01*
X230223182Y-98580800D01*
X230230691Y-98595796D01*
X230235103Y-98612375D01*
X230241463Y-98627076D01*
X230412823Y-99016521D01*
X230421685Y-99030758D01*
X230427612Y-99046867D01*
X230435307Y-99060918D01*
X230641902Y-99432860D01*
X230652040Y-99446216D01*
X230659430Y-99461710D01*
X230668390Y-99474990D01*
X230908458Y-99826258D01*
X230919788Y-99838623D01*
X230928573Y-99853361D01*
X230938718Y-99865757D01*
X231210214Y-100193356D01*
X231222637Y-100204620D01*
X231232749Y-100218487D01*
X231243998Y-100229893D01*
X231544586Y-100531006D01*
X231557999Y-100541078D01*
X231569344Y-100553945D01*
X231581595Y-100564263D01*
X231908720Y-100836330D01*
X231923008Y-100845120D01*
X231935494Y-100856886D01*
X231948646Y-100866027D01*
X232299502Y-101106713D01*
X232314534Y-101114142D01*
X232328051Y-101124703D01*
X232341993Y-101132592D01*
X232713583Y-101339841D01*
X232729244Y-101345853D01*
X232743685Y-101355124D01*
X232758294Y-101361689D01*
X233147432Y-101533725D01*
X233163578Y-101538264D01*
X233178812Y-101546160D01*
X233193966Y-101551348D01*
X233597336Y-101686705D01*
X233613827Y-101689732D01*
X233629734Y-101696191D01*
X233645302Y-101699956D01*
X234059447Y-101797474D01*
X234076146Y-101798964D01*
X234092587Y-101803928D01*
X234108440Y-101806237D01*
X234529811Y-101865082D01*
X234546578Y-101865024D01*
X234563399Y-101868446D01*
X234579394Y-101869284D01*
X235004412Y-101888955D01*
X235055875Y-101884000D01*
X238765527Y-101884000D01*
X238761473Y-107316000D01*
X227957386Y-107316000D01*
X229271918Y-106001469D01*
X229321698Y-105951690D01*
X229349154Y-105897804D01*
X229384703Y-105848875D01*
X229403391Y-105791358D01*
X229430850Y-105737468D01*
X229440312Y-105677725D01*
X229458999Y-105620214D01*
X229458999Y-105560250D01*
X229459000Y-105560244D01*
X229459000Y-103979786D01*
X229440310Y-103922265D01*
X229430850Y-103862533D01*
X229403392Y-103808642D01*
X229384703Y-103751125D01*
X229349153Y-103702195D01*
X229321698Y-103648310D01*
X229282891Y-103609503D01*
X229282888Y-103609499D01*
X228159000Y-102485613D01*
X228159000Y-97879786D01*
X228140310Y-97822265D01*
X228130850Y-97762533D01*
X228103392Y-97708642D01*
X228084703Y-97651125D01*
X228049153Y-97602195D01*
X228021698Y-97548310D01*
X227982891Y-97509503D01*
X227982888Y-97509499D01*
X225385031Y-94911644D01*
X225403107Y-94910523D01*
X225436987Y-94898291D01*
X225472659Y-94893183D01*
X225555605Y-94855470D01*
X225641645Y-94824409D01*
X225669897Y-94803504D01*
X225703168Y-94788376D01*
X225781159Y-94721174D01*
X225803586Y-94704579D01*
X225823310Y-94684855D01*
X225894994Y-94623088D01*
X225913263Y-94594902D01*
X227112166Y-93396000D01*
X228551400Y-93396000D01*
X228738658Y-93369182D01*
X228801480Y-93340618D01*
X228858861Y-93337059D01*
X228890825Y-93325519D01*
X228924480Y-93320700D01*
X229002723Y-93285123D01*
X229083929Y-93255808D01*
X229110592Y-93236079D01*
X229141950Y-93221821D01*
X229215460Y-93158480D01*
X229236661Y-93142793D01*
X229255307Y-93124146D01*
X229322926Y-93065882D01*
X229340162Y-93039291D01*
X231923660Y-90455793D01*
X231946082Y-90441646D01*
X232008640Y-90370813D01*
X232032020Y-90347434D01*
X232047337Y-90326998D01*
X232104221Y-90262589D01*
X232118667Y-90231822D01*
X232139053Y-90204620D01*
X232169219Y-90124150D01*
X232205917Y-90045987D01*
X232210821Y-90013175D01*
X232222909Y-89980929D01*
X232230100Y-89884174D01*
X232234000Y-89858074D01*
X232234000Y-89831683D01*
X232240614Y-89742693D01*
X232234000Y-89711709D01*
X232234000Y-88933455D01*
X232558040Y-88609415D01*
X232558671Y-88609235D01*
X232772822Y-88474115D01*
X232940443Y-88284322D01*
X233048224Y-88054756D01*
X233078001Y-87855515D01*
X233078001Y-82552599D01*
X233051183Y-82365341D01*
X232953001Y-82149401D01*
X232953001Y-77925347D01*
X232953000Y-77925341D01*
X232953000Y-77865377D01*
X232934313Y-77807866D01*
X232924851Y-77748123D01*
X232897392Y-77694233D01*
X232878704Y-77636716D01*
X232843155Y-77587787D01*
X232815699Y-77533901D01*
X232743180Y-77461383D01*
X228180448Y-72898652D01*
X228180446Y-72898648D01*
X228010091Y-72728294D01*
X227992944Y-72719557D01*
X223432386Y-68159000D01*
X232553536Y-68159000D01*
X238764617Y-70629579D01*
X238764617Y-70629579D01*
G37*
X238764617Y-70629579D02*
X238761103Y-71722536D01*
X238761102Y-71722536D01*
X238760554Y-71842916D01*
X238773281Y-71887184D01*
X238779663Y-71932792D01*
X238798241Y-71974004D01*
X238810732Y-72017451D01*
X238835368Y-72056363D01*
X238854296Y-72098351D01*
X238883698Y-72132695D01*
X238907876Y-72170886D01*
X238942447Y-72201322D01*
X238972397Y-72236307D01*
X239010249Y-72261015D01*
X239044182Y-72290890D01*
X239085907Y-72310400D01*
X239124471Y-72335572D01*
X239167733Y-72348662D01*
X239209045Y-72367979D01*
X239253109Y-72374494D01*
X239298291Y-72388165D01*
X239348756Y-72388636D01*
X239351669Y-72389067D01*
X239388788Y-72389010D01*
X239479888Y-72389859D01*
X239483419Y-72388862D01*
X242341520Y-72384403D01*
X245741055Y-75716400D01*
X245745869Y-99059148D01*
X240159000Y-99042848D01*
X240159000Y-96785538D01*
X240164233Y-96738511D01*
X240163633Y-96722504D01*
X240146101Y-96320949D01*
X240143156Y-96305286D01*
X240143497Y-96288970D01*
X240141461Y-96273083D01*
X240084823Y-95851401D01*
X240080257Y-95835266D01*
X240079030Y-95818143D01*
X240075535Y-95802512D01*
X239980187Y-95387862D01*
X239974150Y-95372217D01*
X239971346Y-95355280D01*
X239966420Y-95340037D01*
X239833179Y-94935971D01*
X239825723Y-94920952D01*
X239821369Y-94904354D01*
X239815059Y-94889631D01*
X239645061Y-94499595D01*
X239636250Y-94485328D01*
X239630379Y-94469198D01*
X239622735Y-94455121D01*
X239417437Y-94082456D01*
X239407344Y-94069062D01*
X239400006Y-94053539D01*
X239391093Y-94040230D01*
X239152255Y-93688128D01*
X239140968Y-93675724D01*
X239132232Y-93660953D01*
X239122129Y-93648522D01*
X238851783Y-93319983D01*
X238839398Y-93308673D01*
X238829333Y-93294769D01*
X238818125Y-93283326D01*
X238518591Y-92981167D01*
X238505216Y-92971051D01*
X238493908Y-92958134D01*
X238481692Y-92947776D01*
X238155525Y-92674573D01*
X238141271Y-92665735D01*
X238128821Y-92653921D01*
X238115701Y-92644735D01*
X237765691Y-92402829D01*
X237750685Y-92395347D01*
X237737194Y-92384731D01*
X237723281Y-92376796D01*
X237352420Y-92168253D01*
X237336786Y-92162190D01*
X237322381Y-92152870D01*
X237307791Y-92146252D01*
X236919255Y-91972858D01*
X236903125Y-91968263D01*
X236887912Y-91960310D01*
X236872775Y-91955070D01*
X236469887Y-91818308D01*
X236453403Y-91815223D01*
X236437532Y-91808714D01*
X236421976Y-91804892D01*
X236008167Y-91705927D01*
X235991469Y-91704378D01*
X235975061Y-91699361D01*
X235959217Y-91696993D01*
X235538039Y-91636676D01*
X235521266Y-91636676D01*
X235504467Y-91633197D01*
X235488474Y-91632303D01*
X235063527Y-91611148D01*
X235046832Y-91612697D01*
X235029771Y-91610783D01*
X235013764Y-91611371D01*
X234588684Y-91629559D01*
X234572199Y-91632644D01*
X234555037Y-91632315D01*
X234539154Y-91634379D01*
X234117572Y-91691753D01*
X234101442Y-91696348D01*
X234084322Y-91697605D01*
X234068696Y-91701127D01*
X233654214Y-91797199D01*
X233638580Y-91803264D01*
X233621654Y-91806096D01*
X233606418Y-91811047D01*
X233202582Y-91944994D01*
X233187575Y-91952477D01*
X233170983Y-91956860D01*
X233156271Y-91963197D01*
X232766534Y-92133874D01*
X232752277Y-92142714D01*
X232736170Y-92148608D01*
X232722106Y-92156275D01*
X232349794Y-92362226D01*
X232336418Y-92372342D01*
X232320918Y-92379702D01*
X232307622Y-92388636D01*
X231955930Y-92628095D01*
X231943546Y-92639403D01*
X231928787Y-92648166D01*
X231916375Y-92658292D01*
X231588309Y-92929207D01*
X231577019Y-92941615D01*
X231563137Y-92951701D01*
X231551713Y-92962928D01*
X231250073Y-93262994D01*
X231239981Y-93276386D01*
X231227084Y-93287716D01*
X231216746Y-93299952D01*
X230944115Y-93626593D01*
X230935302Y-93640863D01*
X230923508Y-93653335D01*
X230914345Y-93666473D01*
X230673053Y-94016898D01*
X230665595Y-94031920D01*
X230655005Y-94045428D01*
X230647094Y-94059354D01*
X230439199Y-94430578D01*
X230433162Y-94446223D01*
X230423866Y-94460648D01*
X230417274Y-94475248D01*
X230244558Y-94864087D01*
X230239993Y-94880220D01*
X230232067Y-94895445D01*
X230226853Y-94910591D01*
X230090793Y-95313723D01*
X230087737Y-95330212D01*
X230081254Y-95346098D01*
X230077460Y-95361660D01*
X229979219Y-95775639D01*
X229977699Y-95792339D01*
X229972711Y-95808756D01*
X229970370Y-95824604D01*
X229910789Y-96245886D01*
X229910818Y-96262658D01*
X229907368Y-96279467D01*
X229906502Y-96295461D01*
X229886088Y-96720443D01*
X229887666Y-96737139D01*
X229885783Y-96754198D01*
X229886399Y-96770204D01*
X229905328Y-97195253D01*
X229908442Y-97211733D01*
X229908143Y-97228886D01*
X229910233Y-97244767D01*
X229968345Y-97666259D01*
X229972967Y-97682376D01*
X229974254Y-97699497D01*
X229977806Y-97715118D01*
X230074599Y-98129427D01*
X230080690Y-98145048D01*
X230083554Y-98161981D01*
X230088533Y-98177207D01*
X230223182Y-98580800D01*
X230230691Y-98595796D01*
X230235103Y-98612375D01*
X230241463Y-98627076D01*
X230412823Y-99016521D01*
X230421685Y-99030758D01*
X230427612Y-99046867D01*
X230435307Y-99060918D01*
X230641902Y-99432860D01*
X230652040Y-99446216D01*
X230659430Y-99461710D01*
X230668390Y-99474990D01*
X230908458Y-99826258D01*
X230919788Y-99838623D01*
X230928573Y-99853361D01*
X230938718Y-99865757D01*
X231210214Y-100193356D01*
X231222637Y-100204620D01*
X231232749Y-100218487D01*
X231243998Y-100229893D01*
X231544586Y-100531006D01*
X231557999Y-100541078D01*
X231569344Y-100553945D01*
X231581595Y-100564263D01*
X231908720Y-100836330D01*
X231923008Y-100845120D01*
X231935494Y-100856886D01*
X231948646Y-100866027D01*
X232299502Y-101106713D01*
X232314534Y-101114142D01*
X232328051Y-101124703D01*
X232341993Y-101132592D01*
X232713583Y-101339841D01*
X232729244Y-101345853D01*
X232743685Y-101355124D01*
X232758294Y-101361689D01*
X233147432Y-101533725D01*
X233163578Y-101538264D01*
X233178812Y-101546160D01*
X233193966Y-101551348D01*
X233597336Y-101686705D01*
X233613827Y-101689732D01*
X233629734Y-101696191D01*
X233645302Y-101699956D01*
X234059447Y-101797474D01*
X234076146Y-101798964D01*
X234092587Y-101803928D01*
X234108440Y-101806237D01*
X234529811Y-101865082D01*
X234546578Y-101865024D01*
X234563399Y-101868446D01*
X234579394Y-101869284D01*
X235004412Y-101888955D01*
X235055875Y-101884000D01*
X238765527Y-101884000D01*
X238761473Y-107316000D01*
X227957386Y-107316000D01*
X229271918Y-106001469D01*
X229321698Y-105951690D01*
X229349154Y-105897804D01*
X229384703Y-105848875D01*
X229403391Y-105791358D01*
X229430850Y-105737468D01*
X229440312Y-105677725D01*
X229458999Y-105620214D01*
X229458999Y-105560250D01*
X229459000Y-105560244D01*
X229459000Y-103979786D01*
X229440310Y-103922265D01*
X229430850Y-103862533D01*
X229403392Y-103808642D01*
X229384703Y-103751125D01*
X229349153Y-103702195D01*
X229321698Y-103648310D01*
X229282891Y-103609503D01*
X229282888Y-103609499D01*
X228159000Y-102485613D01*
X228159000Y-97879786D01*
X228140310Y-97822265D01*
X228130850Y-97762533D01*
X228103392Y-97708642D01*
X228084703Y-97651125D01*
X228049153Y-97602195D01*
X228021698Y-97548310D01*
X227982891Y-97509503D01*
X227982888Y-97509499D01*
X225385031Y-94911644D01*
X225403107Y-94910523D01*
X225436987Y-94898291D01*
X225472659Y-94893183D01*
X225555605Y-94855470D01*
X225641645Y-94824409D01*
X225669897Y-94803504D01*
X225703168Y-94788376D01*
X225781159Y-94721174D01*
X225803586Y-94704579D01*
X225823310Y-94684855D01*
X225894994Y-94623088D01*
X225913263Y-94594902D01*
X227112166Y-93396000D01*
X228551400Y-93396000D01*
X228738658Y-93369182D01*
X228801480Y-93340618D01*
X228858861Y-93337059D01*
X228890825Y-93325519D01*
X228924480Y-93320700D01*
X229002723Y-93285123D01*
X229083929Y-93255808D01*
X229110592Y-93236079D01*
X229141950Y-93221821D01*
X229215460Y-93158480D01*
X229236661Y-93142793D01*
X229255307Y-93124146D01*
X229322926Y-93065882D01*
X229340162Y-93039291D01*
X231923660Y-90455793D01*
X231946082Y-90441646D01*
X232008640Y-90370813D01*
X232032020Y-90347434D01*
X232047337Y-90326998D01*
X232104221Y-90262589D01*
X232118667Y-90231822D01*
X232139053Y-90204620D01*
X232169219Y-90124150D01*
X232205917Y-90045987D01*
X232210821Y-90013175D01*
X232222909Y-89980929D01*
X232230100Y-89884174D01*
X232234000Y-89858074D01*
X232234000Y-89831683D01*
X232240614Y-89742693D01*
X232234000Y-89711709D01*
X232234000Y-88933455D01*
X232558040Y-88609415D01*
X232558671Y-88609235D01*
X232772822Y-88474115D01*
X232940443Y-88284322D01*
X233048224Y-88054756D01*
X233078001Y-87855515D01*
X233078001Y-82552599D01*
X233051183Y-82365341D01*
X232953001Y-82149401D01*
X232953001Y-77925347D01*
X232953000Y-77925341D01*
X232953000Y-77865377D01*
X232934313Y-77807866D01*
X232924851Y-77748123D01*
X232897392Y-77694233D01*
X232878704Y-77636716D01*
X232843155Y-77587787D01*
X232815699Y-77533901D01*
X232743180Y-77461383D01*
X228180448Y-72898652D01*
X228180446Y-72898648D01*
X228010091Y-72728294D01*
X227992944Y-72719557D01*
X223432386Y-68159000D01*
X232553536Y-68159000D01*
X238764617Y-70629579D01*
G36*
X183267786Y-104899000D02*
G01*
X185105613Y-104899000D01*
X185611412Y-105404800D01*
X185767309Y-105560697D01*
X185821195Y-105588153D01*
X185870124Y-105623702D01*
X185927641Y-105642390D01*
X185981531Y-105669849D01*
X186041274Y-105679311D01*
X186098785Y-105697998D01*
X186158749Y-105697998D01*
X186158755Y-105697999D01*
X197645615Y-105697999D01*
X198638605Y-106690990D01*
X185086444Y-106690990D01*
X184551795Y-106156342D01*
X184537646Y-106133917D01*
X184466799Y-106071347D01*
X184443434Y-106047981D01*
X184423016Y-106032678D01*
X184358588Y-105975778D01*
X184327817Y-105961331D01*
X184300619Y-105940947D01*
X184222723Y-105911746D01*
X184152363Y-105831090D01*
X183927805Y-105673268D01*
X183671772Y-105573445D01*
X183454527Y-105546000D01*
X183050820Y-105546000D01*
X183105250Y-105446992D01*
X183193454Y-105199286D01*
X183241040Y-104940010D01*
X183241559Y-104890478D01*
X183267786Y-104899000D01*
X183267786Y-104899000D01*
G37*
X183267786Y-104899000D02*
X185105613Y-104899000D01*
X185611412Y-105404800D01*
X185767309Y-105560697D01*
X185821195Y-105588153D01*
X185870124Y-105623702D01*
X185927641Y-105642390D01*
X185981531Y-105669849D01*
X186041274Y-105679311D01*
X186098785Y-105697998D01*
X186158749Y-105697998D01*
X186158755Y-105697999D01*
X197645615Y-105697999D01*
X198638605Y-106690990D01*
X185086444Y-106690990D01*
X184551795Y-106156342D01*
X184537646Y-106133917D01*
X184466799Y-106071347D01*
X184443434Y-106047981D01*
X184423016Y-106032678D01*
X184358588Y-105975778D01*
X184327817Y-105961331D01*
X184300619Y-105940947D01*
X184222723Y-105911746D01*
X184152363Y-105831090D01*
X183927805Y-105673268D01*
X183671772Y-105573445D01*
X183454527Y-105546000D01*
X183050820Y-105546000D01*
X183105250Y-105446992D01*
X183193454Y-105199286D01*
X183241040Y-104940010D01*
X183241559Y-104890478D01*
X183267786Y-104899000D01*
G36*
X183241000Y-99860243D02*
G01*
X183241001Y-99860249D01*
X183241001Y-99920213D01*
X183259688Y-99977724D01*
X183269150Y-100037467D01*
X183296609Y-100091357D01*
X183315297Y-100148874D01*
X183350846Y-100197803D01*
X183378302Y-100251689D01*
X183548657Y-100422045D01*
X183548661Y-100422047D01*
X186504862Y-103378251D01*
X186504869Y-103378257D01*
X186548310Y-103421698D01*
X186602195Y-103449153D01*
X186651125Y-103484703D01*
X186708642Y-103503392D01*
X186762533Y-103530850D01*
X186822265Y-103540310D01*
X186879786Y-103559000D01*
X197932611Y-103559000D01*
X197995308Y-103621698D01*
X198049201Y-103649158D01*
X198098125Y-103684703D01*
X198155640Y-103703391D01*
X198209531Y-103730850D01*
X198269263Y-103740310D01*
X198326784Y-103759000D01*
X199485614Y-103759000D01*
X201092414Y-105365801D01*
X201248310Y-105521698D01*
X201302196Y-105549154D01*
X201351124Y-105584703D01*
X201408648Y-105603394D01*
X201462534Y-105630850D01*
X201522267Y-105640311D01*
X201579786Y-105659000D01*
X204960244Y-105659000D01*
X204960250Y-105658999D01*
X205020213Y-105658999D01*
X205077726Y-105640312D01*
X205137468Y-105630850D01*
X205191359Y-105603390D01*
X205248873Y-105584704D01*
X205297801Y-105549156D01*
X205351690Y-105521697D01*
X205522045Y-105351343D01*
X205522046Y-105351341D01*
X206039388Y-104834000D01*
X206136128Y-104834000D01*
X206399109Y-104763534D01*
X206634891Y-104627406D01*
X206703296Y-104559000D01*
X226485613Y-104559000D01*
X226766000Y-104839388D01*
X226766000Y-104936128D01*
X226836466Y-105199109D01*
X226972594Y-105434891D01*
X227165109Y-105627406D01*
X227376919Y-105749694D01*
X226536615Y-106589999D01*
X214450002Y-106589999D01*
X214450002Y-106487870D01*
X214379536Y-106224889D01*
X214243408Y-105989107D01*
X214050893Y-105796592D01*
X213815111Y-105660464D01*
X213552130Y-105589998D01*
X213279874Y-105589998D01*
X213016893Y-105660464D01*
X212781111Y-105796592D01*
X212712706Y-105864998D01*
X208610386Y-105864998D01*
X207958046Y-105212659D01*
X207958045Y-105212657D01*
X207787690Y-105042303D01*
X207733801Y-105014844D01*
X207684873Y-104979296D01*
X207627359Y-104960610D01*
X207573468Y-104933150D01*
X207513726Y-104923688D01*
X207456213Y-104905001D01*
X207396250Y-104905001D01*
X207396244Y-104905000D01*
X206581752Y-104905000D01*
X206581746Y-104905001D01*
X206521782Y-104905001D01*
X206464271Y-104923688D01*
X206404528Y-104933150D01*
X206350638Y-104960609D01*
X206293121Y-104979297D01*
X206244192Y-105014846D01*
X206190306Y-105042302D01*
X206140527Y-105092082D01*
X205368612Y-105863998D01*
X199958387Y-105863998D01*
X198582048Y-104487660D01*
X198582046Y-104487656D01*
X198411691Y-104317302D01*
X198357802Y-104289843D01*
X198308874Y-104254295D01*
X198251360Y-104235609D01*
X198197469Y-104208149D01*
X198137727Y-104198687D01*
X198080214Y-104180000D01*
X198020251Y-104180000D01*
X198020245Y-104179999D01*
X186533387Y-104179999D01*
X186042046Y-103688659D01*
X186042045Y-103688657D01*
X185871690Y-103518303D01*
X185817801Y-103490844D01*
X185768873Y-103455296D01*
X185711359Y-103436610D01*
X185657468Y-103409150D01*
X185597726Y-103399688D01*
X185540213Y-103381001D01*
X185480250Y-103381001D01*
X185480244Y-103381000D01*
X183702389Y-103381000D01*
X182744000Y-102422613D01*
X182744000Y-100871925D01*
X182816693Y-100804611D01*
X182978577Y-100597410D01*
X183105250Y-100366992D01*
X183193454Y-100119286D01*
X183241000Y-99860228D01*
X183241000Y-99860243D01*
X183241000Y-99860243D01*
G37*
X183241000Y-99860243D02*
X183241001Y-99860249D01*
X183241001Y-99920213D01*
X183259688Y-99977724D01*
X183269150Y-100037467D01*
X183296609Y-100091357D01*
X183315297Y-100148874D01*
X183350846Y-100197803D01*
X183378302Y-100251689D01*
X183548657Y-100422045D01*
X183548661Y-100422047D01*
X186504862Y-103378251D01*
X186504869Y-103378257D01*
X186548310Y-103421698D01*
X186602195Y-103449153D01*
X186651125Y-103484703D01*
X186708642Y-103503392D01*
X186762533Y-103530850D01*
X186822265Y-103540310D01*
X186879786Y-103559000D01*
X197932611Y-103559000D01*
X197995308Y-103621698D01*
X198049201Y-103649158D01*
X198098125Y-103684703D01*
X198155640Y-103703391D01*
X198209531Y-103730850D01*
X198269263Y-103740310D01*
X198326784Y-103759000D01*
X199485614Y-103759000D01*
X201092414Y-105365801D01*
X201248310Y-105521698D01*
X201302196Y-105549154D01*
X201351124Y-105584703D01*
X201408648Y-105603394D01*
X201462534Y-105630850D01*
X201522267Y-105640311D01*
X201579786Y-105659000D01*
X204960244Y-105659000D01*
X204960250Y-105658999D01*
X205020213Y-105658999D01*
X205077726Y-105640312D01*
X205137468Y-105630850D01*
X205191359Y-105603390D01*
X205248873Y-105584704D01*
X205297801Y-105549156D01*
X205351690Y-105521697D01*
X205522045Y-105351343D01*
X205522046Y-105351341D01*
X206039388Y-104834000D01*
X206136128Y-104834000D01*
X206399109Y-104763534D01*
X206634891Y-104627406D01*
X206703296Y-104559000D01*
X226485613Y-104559000D01*
X226766000Y-104839388D01*
X226766000Y-104936128D01*
X226836466Y-105199109D01*
X226972594Y-105434891D01*
X227165109Y-105627406D01*
X227376919Y-105749694D01*
X226536615Y-106589999D01*
X214450002Y-106589999D01*
X214450002Y-106487870D01*
X214379536Y-106224889D01*
X214243408Y-105989107D01*
X214050893Y-105796592D01*
X213815111Y-105660464D01*
X213552130Y-105589998D01*
X213279874Y-105589998D01*
X213016893Y-105660464D01*
X212781111Y-105796592D01*
X212712706Y-105864998D01*
X208610386Y-105864998D01*
X207958046Y-105212659D01*
X207958045Y-105212657D01*
X207787690Y-105042303D01*
X207733801Y-105014844D01*
X207684873Y-104979296D01*
X207627359Y-104960610D01*
X207573468Y-104933150D01*
X207513726Y-104923688D01*
X207456213Y-104905001D01*
X207396250Y-104905001D01*
X207396244Y-104905000D01*
X206581752Y-104905000D01*
X206581746Y-104905001D01*
X206521782Y-104905001D01*
X206464271Y-104923688D01*
X206404528Y-104933150D01*
X206350638Y-104960609D01*
X206293121Y-104979297D01*
X206244192Y-105014846D01*
X206190306Y-105042302D01*
X206140527Y-105092082D01*
X205368612Y-105863998D01*
X199958387Y-105863998D01*
X198582048Y-104487660D01*
X198582046Y-104487656D01*
X198411691Y-104317302D01*
X198357802Y-104289843D01*
X198308874Y-104254295D01*
X198251360Y-104235609D01*
X198197469Y-104208149D01*
X198137727Y-104198687D01*
X198080214Y-104180000D01*
X198020251Y-104180000D01*
X198020245Y-104179999D01*
X186533387Y-104179999D01*
X186042046Y-103688659D01*
X186042045Y-103688657D01*
X185871690Y-103518303D01*
X185817801Y-103490844D01*
X185768873Y-103455296D01*
X185711359Y-103436610D01*
X185657468Y-103409150D01*
X185597726Y-103399688D01*
X185540213Y-103381001D01*
X185480250Y-103381001D01*
X185480244Y-103381000D01*
X183702389Y-103381000D01*
X182744000Y-102422613D01*
X182744000Y-100871925D01*
X182816693Y-100804611D01*
X182978577Y-100597410D01*
X183105250Y-100366992D01*
X183193454Y-100119286D01*
X183241000Y-99860228D01*
X183241000Y-99860243D01*
G36*
X204895641Y-75781668D02*
G01*
X204860776Y-76024155D01*
X204860776Y-76253000D01*
X207889224Y-76253000D01*
X207889224Y-76019621D01*
X207833399Y-75763000D01*
X209681614Y-75763000D01*
X211188414Y-77269801D01*
X211344310Y-77425698D01*
X211398196Y-77453154D01*
X211447125Y-77488703D01*
X211504642Y-77507391D01*
X211558532Y-77534850D01*
X211618275Y-77544312D01*
X211675786Y-77562999D01*
X211735750Y-77562999D01*
X211735756Y-77563000D01*
X214281614Y-77563000D01*
X216488414Y-79769801D01*
X216644310Y-79925698D01*
X216698196Y-79953154D01*
X216747125Y-79988703D01*
X216804642Y-80007391D01*
X216858532Y-80034850D01*
X216918275Y-80044312D01*
X216975786Y-80062999D01*
X217035750Y-80062999D01*
X217035756Y-80063000D01*
X227348244Y-80063000D01*
X227348250Y-80062999D01*
X227408213Y-80062999D01*
X227465726Y-80044312D01*
X227525468Y-80034850D01*
X227579359Y-80007390D01*
X227610837Y-79997163D01*
X227600609Y-80028643D01*
X227573150Y-80082533D01*
X227563688Y-80142276D01*
X227545001Y-80199787D01*
X227545001Y-80259751D01*
X227545000Y-80259757D01*
X227545001Y-88403743D01*
X227545001Y-88624213D01*
X227563690Y-88681732D01*
X227573151Y-88741467D01*
X227600608Y-88795355D01*
X227619297Y-88852875D01*
X227654849Y-88901806D01*
X227682303Y-88955690D01*
X227732082Y-89005468D01*
X228441000Y-89714387D01*
X228441001Y-90285611D01*
X227901613Y-90825000D01*
X226063786Y-90825000D01*
X226006265Y-90843690D01*
X225946533Y-90853150D01*
X225892642Y-90880608D01*
X225835125Y-90899297D01*
X225786195Y-90934847D01*
X225732310Y-90962302D01*
X225688869Y-91005743D01*
X225688862Y-91005749D01*
X224434455Y-92260158D01*
X224366891Y-92192594D01*
X224131109Y-92056466D01*
X223868128Y-91986000D01*
X223595872Y-91986000D01*
X223332891Y-92056466D01*
X223097109Y-92192594D01*
X222975256Y-92314447D01*
X222869406Y-92131109D01*
X222676891Y-91938594D01*
X222441109Y-91802466D01*
X222178128Y-91732000D01*
X221905872Y-91732000D01*
X221642891Y-91802466D01*
X221407109Y-91938594D01*
X221214594Y-92131109D01*
X221078466Y-92366891D01*
X221008000Y-92629872D01*
X221008000Y-92902128D01*
X221078466Y-93165109D01*
X221214594Y-93400891D01*
X221261528Y-93447825D01*
X221260149Y-93450532D01*
X221250687Y-93510275D01*
X221232000Y-93567786D01*
X221232000Y-93627750D01*
X221231999Y-93627756D01*
X221231999Y-94444245D01*
X221232000Y-94444251D01*
X221232000Y-94504214D01*
X221250687Y-94561727D01*
X221260149Y-94621468D01*
X221287607Y-94675359D01*
X221306296Y-94732876D01*
X221341844Y-94781802D01*
X221369302Y-94835691D01*
X221419081Y-94885469D01*
X222051412Y-95517801D01*
X222207308Y-95673698D01*
X222261194Y-95701154D01*
X222310123Y-95736703D01*
X222367640Y-95755391D01*
X222421530Y-95782850D01*
X222481273Y-95792312D01*
X222538784Y-95810999D01*
X222598748Y-95810999D01*
X222598754Y-95811000D01*
X223029732Y-95811000D01*
X223207468Y-95782850D01*
X223254276Y-95759000D01*
X224085614Y-95759000D01*
X226641000Y-98314388D01*
X226641001Y-102699743D01*
X226641001Y-102920213D01*
X226659690Y-102977732D01*
X226669151Y-103037467D01*
X226670951Y-103041000D01*
X206703296Y-103041000D01*
X206634891Y-102972594D01*
X206399109Y-102836466D01*
X206136128Y-102766000D01*
X205863872Y-102766000D01*
X205600891Y-102836466D01*
X205365109Y-102972594D01*
X205172594Y-103165109D01*
X205036466Y-103400891D01*
X204966000Y-103663872D01*
X204966000Y-103760612D01*
X204585613Y-104141000D01*
X202014387Y-104141000D01*
X200422047Y-102548661D01*
X200422045Y-102548657D01*
X200251690Y-102378303D01*
X200197801Y-102350844D01*
X200148873Y-102315296D01*
X200091359Y-102296610D01*
X200037468Y-102269150D01*
X199977726Y-102259688D01*
X199920213Y-102241001D01*
X199860250Y-102241001D01*
X199860244Y-102241000D01*
X198761385Y-102241000D01*
X198698688Y-102178303D01*
X198644799Y-102150844D01*
X198595871Y-102115296D01*
X198538357Y-102096610D01*
X198484466Y-102069150D01*
X198424724Y-102059688D01*
X198367211Y-102041001D01*
X198307248Y-102041001D01*
X198307242Y-102041000D01*
X187314388Y-102041000D01*
X184759000Y-99485614D01*
X184759000Y-98739756D01*
X184758999Y-98739750D01*
X184758999Y-98679786D01*
X184740312Y-98622275D01*
X184730850Y-98562532D01*
X184703391Y-98508642D01*
X184684703Y-98451125D01*
X184649154Y-98402196D01*
X184621698Y-98348310D01*
X184465801Y-98192414D01*
X183694001Y-97420615D01*
X183694001Y-95879757D01*
X183694000Y-95879751D01*
X183694000Y-95819787D01*
X183675313Y-95762276D01*
X183665851Y-95702533D01*
X183638392Y-95648643D01*
X183619704Y-95591126D01*
X183584155Y-95542197D01*
X183556699Y-95488311D01*
X183170929Y-95102542D01*
X183193454Y-95039286D01*
X183241040Y-94780010D01*
X183244138Y-94484185D01*
X183201992Y-94223970D01*
X183118994Y-93974470D01*
X182997175Y-93741450D01*
X182839666Y-93530903D01*
X182650521Y-93348249D01*
X182434606Y-93198183D01*
X182197477Y-93084571D01*
X181945233Y-93010331D01*
X181684364Y-92977375D01*
X181421582Y-92986552D01*
X181163648Y-93037625D01*
X180917197Y-93129278D01*
X180916479Y-93129686D01*
X181009912Y-93036253D01*
X181123360Y-92884878D01*
X181212245Y-92647777D01*
X181231011Y-92395258D01*
X181178149Y-92147622D01*
X181174000Y-92139933D01*
X181174000Y-90725368D01*
X181174416Y-90725564D01*
X181214338Y-90751439D01*
X181256183Y-90763953D01*
X181296088Y-90782689D01*
X181341546Y-90789483D01*
X181388327Y-90803473D01*
X181437168Y-90803772D01*
X181438694Y-90804000D01*
X181474461Y-90804000D01*
X181569926Y-90804583D01*
X181571966Y-90804000D01*
X181807837Y-90804000D01*
X181782580Y-90922319D01*
X181776197Y-91158213D01*
X181812909Y-91391322D01*
X181891487Y-91613836D01*
X182009299Y-91818305D01*
X182162400Y-91997879D01*
X182345661Y-92146547D01*
X182552947Y-92259328D01*
X182777315Y-92332446D01*
X183011250Y-92363452D01*
X183246919Y-92351307D01*
X183476428Y-92296419D01*
X183692090Y-92200624D01*
X183886685Y-92067134D01*
X183949936Y-92003993D01*
X184125661Y-92146547D01*
X184332947Y-92259328D01*
X184557315Y-92332446D01*
X184791250Y-92363452D01*
X185026919Y-92351307D01*
X185256428Y-92296419D01*
X185472090Y-92200624D01*
X185666685Y-92067134D01*
X185729936Y-92003993D01*
X185905661Y-92146547D01*
X186112947Y-92259328D01*
X186337315Y-92332446D01*
X186571250Y-92363452D01*
X186806919Y-92351307D01*
X187036428Y-92296419D01*
X187252090Y-92200624D01*
X187446685Y-92067134D01*
X187509936Y-92003993D01*
X187685661Y-92146547D01*
X187892947Y-92259328D01*
X188117315Y-92332446D01*
X188351250Y-92363452D01*
X188586919Y-92351307D01*
X188816428Y-92296419D01*
X189032090Y-92200624D01*
X189226685Y-92067134D01*
X189289936Y-92003993D01*
X189465661Y-92146547D01*
X189672947Y-92259328D01*
X189897315Y-92332446D01*
X190131250Y-92363452D01*
X190366919Y-92351307D01*
X190596428Y-92296419D01*
X190812090Y-92200624D01*
X191006685Y-92067134D01*
X191069936Y-92003993D01*
X191245661Y-92146547D01*
X191452947Y-92259328D01*
X191677315Y-92332446D01*
X191911250Y-92363452D01*
X192146919Y-92351307D01*
X192376428Y-92296419D01*
X192592090Y-92200624D01*
X192786685Y-92067134D01*
X192849936Y-92003993D01*
X192984000Y-92112750D01*
X192984001Y-92501348D01*
X192793951Y-92542691D01*
X192576221Y-92682618D01*
X192409755Y-92874730D01*
X192304157Y-93105959D01*
X192269276Y-93348559D01*
X192269276Y-94615975D01*
X192346191Y-94969549D01*
X192486118Y-95187279D01*
X192678230Y-95353745D01*
X192909459Y-95459343D01*
X193152059Y-95494224D01*
X194094475Y-95494224D01*
X194448049Y-95417309D01*
X194665779Y-95277382D01*
X194832245Y-95085270D01*
X194937843Y-94854041D01*
X194972724Y-94611441D01*
X194972724Y-93344025D01*
X194895809Y-92990451D01*
X194755882Y-92772721D01*
X194563770Y-92606255D01*
X194502000Y-92578046D01*
X194502000Y-92111507D01*
X194566685Y-92067134D01*
X194629936Y-92003993D01*
X194805661Y-92146547D01*
X195012947Y-92259328D01*
X195237315Y-92332446D01*
X195471250Y-92363452D01*
X195706919Y-92351307D01*
X195936428Y-92296419D01*
X196152090Y-92200624D01*
X196346685Y-92067134D01*
X196513694Y-91900416D01*
X196647526Y-91706054D01*
X196743695Y-91490558D01*
X196799375Y-91259527D01*
X196807486Y-90959768D01*
X196778756Y-90804000D01*
X197984462Y-90804000D01*
X198041001Y-90804345D01*
X198041001Y-92174110D01*
X197576320Y-92638792D01*
X197538771Y-92606255D01*
X197307541Y-92500657D01*
X197064941Y-92465776D01*
X196122525Y-92465776D01*
X195768951Y-92542691D01*
X195551221Y-92682618D01*
X195384755Y-92874730D01*
X195279157Y-93105959D01*
X195244276Y-93348559D01*
X195244276Y-94615975D01*
X195321191Y-94969549D01*
X195461118Y-95187279D01*
X195653230Y-95353745D01*
X195837001Y-95437671D01*
X195837001Y-95697611D01*
X195265613Y-96269000D01*
X193354387Y-96269000D01*
X190106047Y-93020661D01*
X190106045Y-93020657D01*
X189935690Y-92850303D01*
X189881801Y-92822844D01*
X189832873Y-92787296D01*
X189775359Y-92768610D01*
X189721468Y-92741150D01*
X189661726Y-92731688D01*
X189604213Y-92713001D01*
X189544250Y-92713001D01*
X189544244Y-92713000D01*
X188663296Y-92713000D01*
X188594891Y-92644594D01*
X188359109Y-92508466D01*
X188096128Y-92438000D01*
X187823872Y-92438000D01*
X187560891Y-92508466D01*
X187325109Y-92644594D01*
X187132594Y-92837109D01*
X186996466Y-93072891D01*
X186926000Y-93335872D01*
X186926000Y-93608128D01*
X186996466Y-93871109D01*
X187132594Y-94106891D01*
X187325109Y-94299406D01*
X187560891Y-94435534D01*
X187823872Y-94506000D01*
X188096128Y-94506000D01*
X188359109Y-94435534D01*
X188594891Y-94299406D01*
X188663296Y-94231000D01*
X189169614Y-94231000D01*
X192432414Y-97493801D01*
X192588310Y-97649698D01*
X192642196Y-97677154D01*
X192691125Y-97712703D01*
X192748642Y-97731391D01*
X192802532Y-97758850D01*
X192862275Y-97768312D01*
X192919786Y-97786999D01*
X192979750Y-97786999D01*
X192979756Y-97787000D01*
X195640244Y-97787000D01*
X195640250Y-97786999D01*
X195700213Y-97786999D01*
X195757726Y-97768312D01*
X195817468Y-97758850D01*
X195871359Y-97731390D01*
X195928873Y-97712704D01*
X195977801Y-97677156D01*
X196031690Y-97649697D01*
X196202045Y-97479343D01*
X196202046Y-97479341D01*
X196578000Y-97103388D01*
X196578000Y-97164128D01*
X196648466Y-97427109D01*
X196784594Y-97662891D01*
X196977109Y-97855406D01*
X197212891Y-97991534D01*
X197475872Y-98062000D01*
X197748128Y-98062000D01*
X198011109Y-97991534D01*
X198246891Y-97855406D01*
X198439406Y-97662891D01*
X198575534Y-97427109D01*
X198646000Y-97164128D01*
X198646000Y-96891872D01*
X198645859Y-96891347D01*
X200787921Y-96891347D01*
X201125826Y-97229252D01*
X201172724Y-97283681D01*
X201211139Y-97427045D01*
X201347267Y-97662827D01*
X201539782Y-97855342D01*
X201775564Y-97991470D01*
X202038545Y-98061936D01*
X202310801Y-98061936D01*
X202573782Y-97991470D01*
X202809564Y-97855342D01*
X203002079Y-97662827D01*
X203138207Y-97427045D01*
X203208673Y-97164064D01*
X203208673Y-96891808D01*
X203138207Y-96628827D01*
X203002079Y-96393045D01*
X202809564Y-96200530D01*
X202651100Y-96109041D01*
X202631856Y-95974668D01*
X202608674Y-95923681D01*
X202608674Y-95587711D01*
X202658387Y-95537999D01*
X202725615Y-95537999D01*
X202851569Y-95663953D01*
X202887118Y-95712882D01*
X202936044Y-95748429D01*
X204182002Y-96994389D01*
X204182001Y-99036611D01*
X203901613Y-99317000D01*
X203139756Y-99317000D01*
X203139750Y-99317001D01*
X203079787Y-99317001D01*
X203022274Y-99335688D01*
X202962532Y-99345150D01*
X202908641Y-99372610D01*
X202851127Y-99391296D01*
X202802199Y-99426844D01*
X202748310Y-99454303D01*
X202705543Y-99497070D01*
X202656617Y-99532617D01*
X202621070Y-99581543D01*
X202578303Y-99624310D01*
X202550844Y-99678199D01*
X202515296Y-99727127D01*
X202496610Y-99784641D01*
X202476045Y-99825000D01*
X188298387Y-99825000D01*
X187159000Y-98685614D01*
X187159000Y-94897471D01*
X187140311Y-94839952D01*
X187130850Y-94780219D01*
X187103394Y-94726333D01*
X187084703Y-94668809D01*
X187049154Y-94619881D01*
X187021698Y-94565995D01*
X186870772Y-94415070D01*
X186891534Y-94379109D01*
X186962000Y-94116128D01*
X186962000Y-93843872D01*
X186891534Y-93580891D01*
X186755406Y-93345109D01*
X186562891Y-93152594D01*
X186327109Y-93016466D01*
X186064128Y-92946000D01*
X185791872Y-92946000D01*
X185528891Y-93016466D01*
X185293109Y-93152594D01*
X185100594Y-93345109D01*
X184964466Y-93580891D01*
X184894000Y-93843872D01*
X184894000Y-94116128D01*
X184964466Y-94379109D01*
X185100594Y-94614891D01*
X185177375Y-94691672D01*
X185187688Y-94723411D01*
X185197150Y-94783152D01*
X185224608Y-94837043D01*
X185243297Y-94894560D01*
X185278845Y-94943486D01*
X185306303Y-94997375D01*
X185356082Y-95047153D01*
X185641000Y-95332072D01*
X185641001Y-98899743D01*
X185641001Y-99120213D01*
X185659690Y-99177732D01*
X185669151Y-99237467D01*
X185696608Y-99291355D01*
X185715297Y-99348875D01*
X185750849Y-99397806D01*
X185778303Y-99451690D01*
X185828082Y-99501468D01*
X187376414Y-101049801D01*
X187532310Y-101205698D01*
X187586196Y-101233154D01*
X187635125Y-101268703D01*
X187692642Y-101287391D01*
X187746532Y-101314850D01*
X187806275Y-101324312D01*
X187863786Y-101342999D01*
X187923750Y-101342999D01*
X187923756Y-101343000D01*
X202159855Y-101343000D01*
X202159386Y-101349308D01*
X202166001Y-101380296D01*
X202166001Y-101576528D01*
X202036466Y-101800891D01*
X201966000Y-102063872D01*
X201966000Y-102336128D01*
X202036466Y-102599109D01*
X202172594Y-102834891D01*
X202365109Y-103027406D01*
X202600891Y-103163534D01*
X202863872Y-103234000D01*
X203136128Y-103234000D01*
X203399109Y-103163534D01*
X203634891Y-103027406D01*
X203827406Y-102834891D01*
X203963534Y-102599109D01*
X204034000Y-102336128D01*
X204034000Y-102063872D01*
X203963534Y-101800891D01*
X203856299Y-101615154D01*
X203856866Y-101614587D01*
X204107109Y-101547534D01*
X204342891Y-101411406D01*
X204535406Y-101218891D01*
X204671534Y-100983109D01*
X204742000Y-100720128D01*
X204742000Y-100623387D01*
X204838045Y-100527343D01*
X204838046Y-100527341D01*
X205426411Y-99938976D01*
X211108163Y-99938976D01*
X211108163Y-101666588D01*
X211188795Y-101967512D01*
X211336185Y-102143165D01*
X211529814Y-102254956D01*
X211738976Y-102291837D01*
X213466588Y-102291837D01*
X213767512Y-102211205D01*
X213943165Y-102063815D01*
X214054956Y-101870186D01*
X214091837Y-101661024D01*
X214091837Y-100095625D01*
X216954892Y-100095625D01*
X216970404Y-100342190D01*
X217029334Y-100582111D01*
X217129819Y-100807804D01*
X217268684Y-101012136D01*
X217441537Y-101188649D01*
X217642916Y-101331761D01*
X217866456Y-101436951D01*
X218105090Y-101500893D01*
X218351275Y-101521566D01*
X218597232Y-101498317D01*
X218835183Y-101431878D01*
X219057609Y-101324354D01*
X219257479Y-101179140D01*
X219428474Y-101000828D01*
X219565191Y-100795053D01*
X219663307Y-100568319D01*
X219720102Y-100326174D01*
X219726139Y-100095625D01*
X221834892Y-100095625D01*
X221850404Y-100342190D01*
X221909334Y-100582111D01*
X222009819Y-100807804D01*
X222148684Y-101012136D01*
X222321537Y-101188649D01*
X222522916Y-101331761D01*
X222746456Y-101436951D01*
X222985090Y-101500893D01*
X223231275Y-101521566D01*
X223477232Y-101498317D01*
X223715183Y-101431878D01*
X223937609Y-101324354D01*
X224137479Y-101179140D01*
X224308474Y-101000828D01*
X224445191Y-100795053D01*
X224543307Y-100568319D01*
X224600102Y-100326174D01*
X224608379Y-100010112D01*
X224564334Y-99765326D01*
X224478219Y-99533768D01*
X224352459Y-99321119D01*
X224191029Y-99134102D01*
X223999034Y-98978628D01*
X223782541Y-98859609D01*
X223548392Y-98780809D01*
X223303990Y-98744719D01*
X223057060Y-98752479D01*
X222815406Y-98803844D01*
X222586667Y-98897191D01*
X222378074Y-99029568D01*
X222196220Y-99196792D01*
X222046852Y-99393577D01*
X221934693Y-99613702D01*
X221863286Y-99850210D01*
X221834892Y-100095625D01*
X219726139Y-100095625D01*
X219728379Y-100010112D01*
X219684334Y-99765326D01*
X219598219Y-99533768D01*
X219472459Y-99321119D01*
X219311029Y-99134102D01*
X219119034Y-98978628D01*
X218902541Y-98859609D01*
X218668392Y-98780809D01*
X218423990Y-98744719D01*
X218177060Y-98752479D01*
X217935406Y-98803844D01*
X217706667Y-98897191D01*
X217498074Y-99029568D01*
X217316220Y-99196792D01*
X217166852Y-99393577D01*
X217054693Y-99613702D01*
X216983286Y-99850210D01*
X216954892Y-100095625D01*
X214091837Y-100095625D01*
X214091837Y-99933412D01*
X214011205Y-99632489D01*
X213863815Y-99456835D01*
X213670186Y-99345044D01*
X213621554Y-99336469D01*
X213715466Y-99246881D01*
X213865797Y-99044828D01*
X213979936Y-98820334D01*
X214054618Y-98579819D01*
X214087708Y-98330159D01*
X214078260Y-98078492D01*
X214026544Y-97832017D01*
X213934039Y-97597778D01*
X213803390Y-97382474D01*
X213638331Y-97192261D01*
X213443584Y-97032578D01*
X213224716Y-96907991D01*
X212985169Y-96821040D01*
X212645352Y-96776000D01*
X212536810Y-96776000D01*
X212349058Y-96791931D01*
X212105292Y-96855200D01*
X211875671Y-96958637D01*
X211666760Y-97099284D01*
X211484534Y-97273119D01*
X211334203Y-97475172D01*
X211220064Y-97699666D01*
X211145382Y-97940181D01*
X211112292Y-98189841D01*
X211121740Y-98441508D01*
X211173456Y-98687983D01*
X211265961Y-98922222D01*
X211396610Y-99137526D01*
X211561669Y-99327739D01*
X211585975Y-99347669D01*
X211432489Y-99388795D01*
X211256835Y-99536185D01*
X211145044Y-99729814D01*
X211108163Y-99938976D01*
X205426411Y-99938976D01*
X205473551Y-99891837D01*
X207066588Y-99891837D01*
X207367512Y-99811205D01*
X207543165Y-99663815D01*
X207654956Y-99470186D01*
X207663204Y-99423412D01*
X207701669Y-99467739D01*
X207896416Y-99627422D01*
X208115284Y-99752009D01*
X208354831Y-99838960D01*
X208694648Y-99884000D01*
X208803190Y-99884000D01*
X208990942Y-99868069D01*
X209234708Y-99804800D01*
X209464329Y-99701363D01*
X209673240Y-99560716D01*
X209855466Y-99386881D01*
X210005797Y-99184828D01*
X210119936Y-98960334D01*
X210194618Y-98719819D01*
X210227708Y-98470159D01*
X210218260Y-98218492D01*
X210166544Y-97972017D01*
X210074039Y-97737778D01*
X209943390Y-97522474D01*
X209778331Y-97332261D01*
X209583584Y-97172578D01*
X209364716Y-97047991D01*
X209125169Y-96961040D01*
X208785352Y-96916000D01*
X208676810Y-96916000D01*
X208489058Y-96931931D01*
X208245292Y-96995200D01*
X208015671Y-97098637D01*
X207806760Y-97239284D01*
X207652465Y-97386474D01*
X207611205Y-97232489D01*
X207463815Y-97056835D01*
X207270186Y-96945044D01*
X207061024Y-96908163D01*
X205700001Y-96908163D01*
X205700001Y-96559785D01*
X205681311Y-96502264D01*
X205671851Y-96442532D01*
X205644393Y-96388641D01*
X205625704Y-96331124D01*
X205590154Y-96282194D01*
X205562699Y-96228309D01*
X205519258Y-96184868D01*
X205519252Y-96184861D01*
X204598276Y-95263887D01*
X204605052Y-95257111D01*
X204628823Y-95242113D01*
X204695143Y-95167020D01*
X204719915Y-95142249D01*
X204736134Y-95120606D01*
X204796444Y-95052319D01*
X204811757Y-95019702D01*
X204833362Y-94990876D01*
X204865342Y-94905571D01*
X204904224Y-94822754D01*
X204909419Y-94787992D01*
X204922246Y-94753774D01*
X204929874Y-94651126D01*
X204934001Y-94623512D01*
X204934001Y-94595604D01*
X204938584Y-94533934D01*
X205488519Y-93983999D01*
X207508163Y-93983999D01*
X207508163Y-95266588D01*
X207588795Y-95567512D01*
X207736185Y-95743165D01*
X207929814Y-95854956D01*
X208138976Y-95891837D01*
X209866588Y-95891837D01*
X210167512Y-95811205D01*
X210343165Y-95663815D01*
X210454956Y-95470186D01*
X210491837Y-95261024D01*
X210491837Y-94236975D01*
X212378520Y-96123658D01*
X212392669Y-96146083D01*
X212463507Y-96208645D01*
X212486881Y-96232020D01*
X212507308Y-96247329D01*
X212571726Y-96304221D01*
X212602493Y-96318667D01*
X212629695Y-96339053D01*
X212710169Y-96369221D01*
X212788329Y-96405917D01*
X212821133Y-96410819D01*
X212853386Y-96422910D01*
X212950160Y-96430102D01*
X212976241Y-96434000D01*
X212976530Y-96434000D01*
X213200891Y-96563534D01*
X213463872Y-96634000D01*
X213736128Y-96634000D01*
X213999109Y-96563534D01*
X214234891Y-96427406D01*
X214427406Y-96234891D01*
X214563534Y-95999109D01*
X214634000Y-95736128D01*
X214634000Y-95463872D01*
X214563534Y-95200891D01*
X214427406Y-94965109D01*
X214234891Y-94772594D01*
X213999109Y-94636466D01*
X213736128Y-94566000D01*
X213463872Y-94566000D01*
X213239806Y-94626038D01*
X211240111Y-92626344D01*
X211225960Y-92603916D01*
X211155113Y-92541346D01*
X211131748Y-92517980D01*
X211111330Y-92502677D01*
X211046902Y-92445777D01*
X211016131Y-92431330D01*
X210988933Y-92410946D01*
X210908472Y-92380784D01*
X210830301Y-92344082D01*
X210797488Y-92339178D01*
X210765241Y-92327090D01*
X210668489Y-92319900D01*
X210642391Y-92315999D01*
X210615997Y-92315999D01*
X210527007Y-92309385D01*
X210496023Y-92315999D01*
X206482143Y-92315999D01*
X206491837Y-92261024D01*
X206491837Y-90533412D01*
X206411205Y-90232489D01*
X206263815Y-90056835D01*
X206070186Y-89945044D01*
X206021554Y-89936469D01*
X206115466Y-89846881D01*
X206265797Y-89644828D01*
X206379936Y-89420334D01*
X206454618Y-89179819D01*
X206487708Y-88930159D01*
X206478260Y-88678492D01*
X206426544Y-88432017D01*
X206334039Y-88197778D01*
X206203390Y-87982474D01*
X206038331Y-87792261D01*
X205843584Y-87632578D01*
X205624716Y-87507991D01*
X205385169Y-87421040D01*
X205045352Y-87376000D01*
X204936810Y-87376000D01*
X204749058Y-87391931D01*
X204505292Y-87455200D01*
X204275671Y-87558637D01*
X204066760Y-87699284D01*
X203884534Y-87873119D01*
X203734203Y-88075172D01*
X203620064Y-88299666D01*
X203545382Y-88540181D01*
X203512292Y-88789841D01*
X203521740Y-89041508D01*
X203573456Y-89287983D01*
X203665961Y-89522222D01*
X203796610Y-89737526D01*
X203961669Y-89927739D01*
X203985975Y-89947669D01*
X203832489Y-89988795D01*
X203656835Y-90136185D01*
X203545044Y-90329814D01*
X203508163Y-90538976D01*
X203508163Y-91257998D01*
X203184000Y-90933836D01*
X203184000Y-85999030D01*
X203190202Y-85971623D01*
X203184000Y-85871661D01*
X203184000Y-85836600D01*
X203180163Y-85809808D01*
X203174523Y-85718894D01*
X203162291Y-85685013D01*
X203157182Y-85649343D01*
X203119471Y-85566398D01*
X203088408Y-85480354D01*
X203067502Y-85452101D01*
X203052377Y-85418836D01*
X202985179Y-85340849D01*
X202968579Y-85318414D01*
X202948843Y-85298679D01*
X202887088Y-85227009D01*
X202858905Y-85208741D01*
X201804705Y-84154542D01*
X201763534Y-84000891D01*
X201627406Y-83765109D01*
X201434891Y-83572594D01*
X201199109Y-83436466D01*
X200936128Y-83366000D01*
X200663872Y-83366000D01*
X200400891Y-83436466D01*
X200165109Y-83572594D01*
X199972594Y-83765109D01*
X199836466Y-84000891D01*
X199766000Y-84263872D01*
X199766000Y-84536128D01*
X199836466Y-84799109D01*
X199972594Y-85034891D01*
X200165109Y-85227406D01*
X200400891Y-85363534D01*
X200554541Y-85404705D01*
X201416000Y-86266165D01*
X201416001Y-91200965D01*
X201409798Y-91228377D01*
X201416001Y-91328354D01*
X201416001Y-91363399D01*
X201419837Y-91390186D01*
X201425477Y-91481105D01*
X201437711Y-91514995D01*
X201442819Y-91550658D01*
X201480523Y-91633585D01*
X201511592Y-91719645D01*
X201532498Y-91747897D01*
X201547624Y-91781165D01*
X201614815Y-91859143D01*
X201631421Y-91881585D01*
X201651153Y-91901316D01*
X201712913Y-91972992D01*
X201741096Y-91991259D01*
X202813391Y-93063555D01*
X202809797Y-93079436D01*
X202815999Y-93179397D01*
X202815999Y-93214459D01*
X202819836Y-93241251D01*
X202825476Y-93332164D01*
X202837708Y-93366044D01*
X202842816Y-93401716D01*
X202880529Y-93484662D01*
X202911590Y-93570702D01*
X202932495Y-93598954D01*
X202947623Y-93632225D01*
X203014821Y-93710212D01*
X203031421Y-93732645D01*
X203051150Y-93752373D01*
X203112912Y-93824051D01*
X203141095Y-93842318D01*
X203166001Y-93867224D01*
X203166001Y-93874332D01*
X203160176Y-93873900D01*
X203134078Y-93869999D01*
X203107684Y-93869999D01*
X203018694Y-93863385D01*
X202987710Y-93869999D01*
X202401427Y-93869999D01*
X202375571Y-93864148D01*
X202281272Y-93869999D01*
X202248188Y-93869999D01*
X202222894Y-93873621D01*
X202137137Y-93878941D01*
X202105172Y-93890480D01*
X202071518Y-93895300D01*
X201993270Y-93930878D01*
X201912069Y-93960192D01*
X201885409Y-93979919D01*
X201854049Y-93994178D01*
X201780544Y-94057514D01*
X201759336Y-94073208D01*
X201740693Y-94091852D01*
X201673073Y-94150117D01*
X201655837Y-94176708D01*
X201251017Y-94581528D01*
X201228589Y-94595680D01*
X201166023Y-94666523D01*
X201142654Y-94689892D01*
X201127346Y-94710317D01*
X201070453Y-94774736D01*
X201056007Y-94805503D01*
X201035621Y-94832705D01*
X201005455Y-94913175D01*
X200968757Y-94991338D01*
X200963853Y-95024150D01*
X200951765Y-95056396D01*
X200946789Y-95123347D01*
X198153520Y-95123347D01*
X198015762Y-95043813D01*
X197846847Y-94998552D01*
X197912843Y-94854041D01*
X197947724Y-94611441D01*
X197947724Y-94414163D01*
X199378251Y-92983638D01*
X199378257Y-92983631D01*
X199421698Y-92940190D01*
X199449153Y-92886305D01*
X199484703Y-92837375D01*
X199503392Y-92779858D01*
X199530850Y-92725967D01*
X199540310Y-92666235D01*
X199559000Y-92608714D01*
X199559000Y-85903296D01*
X199627406Y-85834891D01*
X199763534Y-85599109D01*
X199834000Y-85336128D01*
X199834000Y-85063872D01*
X199763534Y-84800891D01*
X199627406Y-84565109D01*
X199434891Y-84372594D01*
X199199109Y-84236466D01*
X198936128Y-84166000D01*
X198663872Y-84166000D01*
X198627000Y-84175880D01*
X198627000Y-81288485D01*
X198627583Y-81193073D01*
X198614509Y-81147328D01*
X198607764Y-81100232D01*
X198589684Y-81060467D01*
X198577677Y-81018460D01*
X198552294Y-80978229D01*
X198532598Y-80934911D01*
X198504080Y-80901816D01*
X198480773Y-80864874D01*
X198445111Y-80833378D01*
X198414053Y-80797335D01*
X198377399Y-80773578D01*
X198344654Y-80744658D01*
X198301578Y-80724434D01*
X198261661Y-80698561D01*
X198219818Y-80686048D01*
X198179911Y-80667311D01*
X198134455Y-80660518D01*
X198087672Y-80646527D01*
X198038832Y-80646228D01*
X198037306Y-80646000D01*
X198001538Y-80646000D01*
X197906073Y-80645417D01*
X197904033Y-80646000D01*
X197668534Y-80646000D01*
X197689375Y-80559527D01*
X197697486Y-80259768D01*
X197654382Y-80026064D01*
X197570007Y-79805682D01*
X197446882Y-79604368D01*
X197433048Y-79588976D01*
X199308163Y-79588976D01*
X199308163Y-81316588D01*
X199388795Y-81617512D01*
X199536185Y-81793165D01*
X199729814Y-81904956D01*
X199938976Y-81941837D01*
X201666588Y-81941837D01*
X201967512Y-81861205D01*
X202143165Y-81713815D01*
X202254956Y-81520186D01*
X202291837Y-81311024D01*
X202291837Y-79583412D01*
X202211205Y-79282489D01*
X202063815Y-79106835D01*
X201870186Y-78995044D01*
X201661024Y-78958163D01*
X199933412Y-78958163D01*
X199632489Y-79038795D01*
X199456835Y-79186185D01*
X199345044Y-79379814D01*
X199308163Y-79588976D01*
X197433048Y-79588976D01*
X197289133Y-79428863D01*
X197102042Y-79285042D01*
X196891876Y-79177726D01*
X196665671Y-79110506D01*
X196431004Y-79085635D01*
X196195735Y-79103944D01*
X195967741Y-79164822D01*
X195754659Y-79266228D01*
X195563627Y-79404768D01*
X195524485Y-79445943D01*
X195509133Y-79428863D01*
X195322042Y-79285042D01*
X195111876Y-79177726D01*
X194885671Y-79110506D01*
X194651004Y-79085635D01*
X194415735Y-79103944D01*
X194187741Y-79164822D01*
X193974659Y-79266228D01*
X193783627Y-79404768D01*
X193744485Y-79445943D01*
X193729133Y-79428863D01*
X193542042Y-79285042D01*
X193331876Y-79177726D01*
X193105671Y-79110506D01*
X192871004Y-79085635D01*
X192635735Y-79103944D01*
X192407741Y-79164822D01*
X192194659Y-79266228D01*
X192003627Y-79404768D01*
X191964485Y-79445943D01*
X191949133Y-79428863D01*
X191762042Y-79285042D01*
X191551876Y-79177726D01*
X191325671Y-79110506D01*
X191091004Y-79085635D01*
X190855735Y-79103944D01*
X190627741Y-79164822D01*
X190414659Y-79266228D01*
X190223627Y-79404768D01*
X190184485Y-79445943D01*
X190169133Y-79428863D01*
X189982042Y-79285042D01*
X189771876Y-79177726D01*
X189545671Y-79110506D01*
X189311004Y-79085635D01*
X189075735Y-79103944D01*
X188847741Y-79164822D01*
X188634659Y-79266228D01*
X188443627Y-79404768D01*
X188404485Y-79445943D01*
X188389133Y-79428863D01*
X188202042Y-79285042D01*
X187991876Y-79177726D01*
X187765671Y-79110506D01*
X187531004Y-79085635D01*
X187295735Y-79103944D01*
X187067741Y-79164822D01*
X186854659Y-79266228D01*
X186663627Y-79404768D01*
X186624485Y-79445943D01*
X186609133Y-79428863D01*
X186422042Y-79285042D01*
X186211876Y-79177726D01*
X185985671Y-79110506D01*
X185751004Y-79085635D01*
X185515735Y-79103944D01*
X185287741Y-79164822D01*
X185074659Y-79266228D01*
X185034429Y-79295403D01*
X185055936Y-79276872D01*
X185073172Y-79250281D01*
X185814453Y-78509000D01*
X204861511Y-78509000D01*
X204927925Y-78784578D01*
X205025385Y-78998931D01*
X205161620Y-79190988D01*
X205331715Y-79353818D01*
X205374675Y-79381557D01*
X205245140Y-79483308D01*
X205090814Y-79661154D01*
X204972901Y-79864973D01*
X204895657Y-80087413D01*
X204861869Y-80320445D01*
X204872756Y-80555663D01*
X204927925Y-80784578D01*
X205025385Y-80998931D01*
X205161620Y-81190988D01*
X205331715Y-81353818D01*
X205374675Y-81381557D01*
X205245140Y-81483308D01*
X205090814Y-81661154D01*
X204972901Y-81864973D01*
X204895657Y-82087413D01*
X204861869Y-82320445D01*
X204872756Y-82555663D01*
X204927925Y-82784578D01*
X205025385Y-82998931D01*
X205161620Y-83190988D01*
X205331715Y-83353818D01*
X205374675Y-83381557D01*
X205245140Y-83483308D01*
X205090814Y-83661154D01*
X204972901Y-83864973D01*
X204895657Y-84087413D01*
X204861869Y-84320445D01*
X204872756Y-84555663D01*
X204927925Y-84784578D01*
X205025385Y-84998931D01*
X205161620Y-85190988D01*
X205331715Y-85353818D01*
X205529532Y-85481546D01*
X205750820Y-85570728D01*
X206056159Y-85615000D01*
X206708811Y-85615000D01*
X206884405Y-85598247D01*
X207110352Y-85531961D01*
X207319688Y-85424146D01*
X207504860Y-85278692D01*
X207659186Y-85100846D01*
X207777099Y-84897027D01*
X207854343Y-84674587D01*
X207888131Y-84441555D01*
X207877244Y-84206337D01*
X207822075Y-83977422D01*
X207724615Y-83763069D01*
X207588380Y-83571012D01*
X207418285Y-83408182D01*
X207375325Y-83380443D01*
X207504860Y-83278692D01*
X207659186Y-83100846D01*
X207777099Y-82897027D01*
X207854343Y-82674587D01*
X207888131Y-82441555D01*
X207877244Y-82206337D01*
X207822075Y-81977422D01*
X207724615Y-81763069D01*
X207588380Y-81571012D01*
X207418285Y-81408182D01*
X207375325Y-81380443D01*
X207504860Y-81278692D01*
X207659186Y-81100846D01*
X207777099Y-80897027D01*
X207854343Y-80674587D01*
X207888131Y-80441555D01*
X207877244Y-80206337D01*
X207822075Y-79977422D01*
X207724615Y-79763069D01*
X207588380Y-79571012D01*
X207418285Y-79408182D01*
X207375325Y-79380443D01*
X207504860Y-79278692D01*
X207659186Y-79100846D01*
X207777099Y-78897027D01*
X207854344Y-78674585D01*
X207878346Y-78509000D01*
X204861511Y-78509000D01*
X185814453Y-78509000D01*
X187814453Y-76509000D01*
X204860776Y-76509000D01*
X204860776Y-76742379D01*
X204937655Y-77095785D01*
X205077519Y-77313419D01*
X205260058Y-77471590D01*
X205245140Y-77483308D01*
X205090814Y-77661154D01*
X204972901Y-77864973D01*
X204895656Y-78087415D01*
X204871654Y-78253000D01*
X207888489Y-78253000D01*
X207822075Y-77977422D01*
X207724615Y-77763069D01*
X207588380Y-77571012D01*
X207481275Y-77468482D01*
X207582419Y-77403481D01*
X207748809Y-77211456D01*
X207854359Y-76980332D01*
X207889224Y-76737845D01*
X207889224Y-76509000D01*
X204860776Y-76509000D01*
X187814453Y-76509000D01*
X188560453Y-75763000D01*
X204904166Y-75763000D01*
X204895641Y-75781668D01*
X204895641Y-75781668D01*
G37*
X204895641Y-75781668D02*
X204860776Y-76024155D01*
X204860776Y-76253000D01*
X207889224Y-76253000D01*
X207889224Y-76019621D01*
X207833399Y-75763000D01*
X209681614Y-75763000D01*
X211188414Y-77269801D01*
X211344310Y-77425698D01*
X211398196Y-77453154D01*
X211447125Y-77488703D01*
X211504642Y-77507391D01*
X211558532Y-77534850D01*
X211618275Y-77544312D01*
X211675786Y-77562999D01*
X211735750Y-77562999D01*
X211735756Y-77563000D01*
X214281614Y-77563000D01*
X216488414Y-79769801D01*
X216644310Y-79925698D01*
X216698196Y-79953154D01*
X216747125Y-79988703D01*
X216804642Y-80007391D01*
X216858532Y-80034850D01*
X216918275Y-80044312D01*
X216975786Y-80062999D01*
X217035750Y-80062999D01*
X217035756Y-80063000D01*
X227348244Y-80063000D01*
X227348250Y-80062999D01*
X227408213Y-80062999D01*
X227465726Y-80044312D01*
X227525468Y-80034850D01*
X227579359Y-80007390D01*
X227610837Y-79997163D01*
X227600609Y-80028643D01*
X227573150Y-80082533D01*
X227563688Y-80142276D01*
X227545001Y-80199787D01*
X227545001Y-80259751D01*
X227545000Y-80259757D01*
X227545001Y-88403743D01*
X227545001Y-88624213D01*
X227563690Y-88681732D01*
X227573151Y-88741467D01*
X227600608Y-88795355D01*
X227619297Y-88852875D01*
X227654849Y-88901806D01*
X227682303Y-88955690D01*
X227732082Y-89005468D01*
X228441000Y-89714387D01*
X228441001Y-90285611D01*
X227901613Y-90825000D01*
X226063786Y-90825000D01*
X226006265Y-90843690D01*
X225946533Y-90853150D01*
X225892642Y-90880608D01*
X225835125Y-90899297D01*
X225786195Y-90934847D01*
X225732310Y-90962302D01*
X225688869Y-91005743D01*
X225688862Y-91005749D01*
X224434455Y-92260158D01*
X224366891Y-92192594D01*
X224131109Y-92056466D01*
X223868128Y-91986000D01*
X223595872Y-91986000D01*
X223332891Y-92056466D01*
X223097109Y-92192594D01*
X222975256Y-92314447D01*
X222869406Y-92131109D01*
X222676891Y-91938594D01*
X222441109Y-91802466D01*
X222178128Y-91732000D01*
X221905872Y-91732000D01*
X221642891Y-91802466D01*
X221407109Y-91938594D01*
X221214594Y-92131109D01*
X221078466Y-92366891D01*
X221008000Y-92629872D01*
X221008000Y-92902128D01*
X221078466Y-93165109D01*
X221214594Y-93400891D01*
X221261528Y-93447825D01*
X221260149Y-93450532D01*
X221250687Y-93510275D01*
X221232000Y-93567786D01*
X221232000Y-93627750D01*
X221231999Y-93627756D01*
X221231999Y-94444245D01*
X221232000Y-94444251D01*
X221232000Y-94504214D01*
X221250687Y-94561727D01*
X221260149Y-94621468D01*
X221287607Y-94675359D01*
X221306296Y-94732876D01*
X221341844Y-94781802D01*
X221369302Y-94835691D01*
X221419081Y-94885469D01*
X222051412Y-95517801D01*
X222207308Y-95673698D01*
X222261194Y-95701154D01*
X222310123Y-95736703D01*
X222367640Y-95755391D01*
X222421530Y-95782850D01*
X222481273Y-95792312D01*
X222538784Y-95810999D01*
X222598748Y-95810999D01*
X222598754Y-95811000D01*
X223029732Y-95811000D01*
X223207468Y-95782850D01*
X223254276Y-95759000D01*
X224085614Y-95759000D01*
X226641000Y-98314388D01*
X226641001Y-102699743D01*
X226641001Y-102920213D01*
X226659690Y-102977732D01*
X226669151Y-103037467D01*
X226670951Y-103041000D01*
X206703296Y-103041000D01*
X206634891Y-102972594D01*
X206399109Y-102836466D01*
X206136128Y-102766000D01*
X205863872Y-102766000D01*
X205600891Y-102836466D01*
X205365109Y-102972594D01*
X205172594Y-103165109D01*
X205036466Y-103400891D01*
X204966000Y-103663872D01*
X204966000Y-103760612D01*
X204585613Y-104141000D01*
X202014387Y-104141000D01*
X200422047Y-102548661D01*
X200422045Y-102548657D01*
X200251690Y-102378303D01*
X200197801Y-102350844D01*
X200148873Y-102315296D01*
X200091359Y-102296610D01*
X200037468Y-102269150D01*
X199977726Y-102259688D01*
X199920213Y-102241001D01*
X199860250Y-102241001D01*
X199860244Y-102241000D01*
X198761385Y-102241000D01*
X198698688Y-102178303D01*
X198644799Y-102150844D01*
X198595871Y-102115296D01*
X198538357Y-102096610D01*
X198484466Y-102069150D01*
X198424724Y-102059688D01*
X198367211Y-102041001D01*
X198307248Y-102041001D01*
X198307242Y-102041000D01*
X187314388Y-102041000D01*
X184759000Y-99485614D01*
X184759000Y-98739756D01*
X184758999Y-98739750D01*
X184758999Y-98679786D01*
X184740312Y-98622275D01*
X184730850Y-98562532D01*
X184703391Y-98508642D01*
X184684703Y-98451125D01*
X184649154Y-98402196D01*
X184621698Y-98348310D01*
X184465801Y-98192414D01*
X183694001Y-97420615D01*
X183694001Y-95879757D01*
X183694000Y-95879751D01*
X183694000Y-95819787D01*
X183675313Y-95762276D01*
X183665851Y-95702533D01*
X183638392Y-95648643D01*
X183619704Y-95591126D01*
X183584155Y-95542197D01*
X183556699Y-95488311D01*
X183170929Y-95102542D01*
X183193454Y-95039286D01*
X183241040Y-94780010D01*
X183244138Y-94484185D01*
X183201992Y-94223970D01*
X183118994Y-93974470D01*
X182997175Y-93741450D01*
X182839666Y-93530903D01*
X182650521Y-93348249D01*
X182434606Y-93198183D01*
X182197477Y-93084571D01*
X181945233Y-93010331D01*
X181684364Y-92977375D01*
X181421582Y-92986552D01*
X181163648Y-93037625D01*
X180917197Y-93129278D01*
X180916479Y-93129686D01*
X181009912Y-93036253D01*
X181123360Y-92884878D01*
X181212245Y-92647777D01*
X181231011Y-92395258D01*
X181178149Y-92147622D01*
X181174000Y-92139933D01*
X181174000Y-90725368D01*
X181174416Y-90725564D01*
X181214338Y-90751439D01*
X181256183Y-90763953D01*
X181296088Y-90782689D01*
X181341546Y-90789483D01*
X181388327Y-90803473D01*
X181437168Y-90803772D01*
X181438694Y-90804000D01*
X181474461Y-90804000D01*
X181569926Y-90804583D01*
X181571966Y-90804000D01*
X181807837Y-90804000D01*
X181782580Y-90922319D01*
X181776197Y-91158213D01*
X181812909Y-91391322D01*
X181891487Y-91613836D01*
X182009299Y-91818305D01*
X182162400Y-91997879D01*
X182345661Y-92146547D01*
X182552947Y-92259328D01*
X182777315Y-92332446D01*
X183011250Y-92363452D01*
X183246919Y-92351307D01*
X183476428Y-92296419D01*
X183692090Y-92200624D01*
X183886685Y-92067134D01*
X183949936Y-92003993D01*
X184125661Y-92146547D01*
X184332947Y-92259328D01*
X184557315Y-92332446D01*
X184791250Y-92363452D01*
X185026919Y-92351307D01*
X185256428Y-92296419D01*
X185472090Y-92200624D01*
X185666685Y-92067134D01*
X185729936Y-92003993D01*
X185905661Y-92146547D01*
X186112947Y-92259328D01*
X186337315Y-92332446D01*
X186571250Y-92363452D01*
X186806919Y-92351307D01*
X187036428Y-92296419D01*
X187252090Y-92200624D01*
X187446685Y-92067134D01*
X187509936Y-92003993D01*
X187685661Y-92146547D01*
X187892947Y-92259328D01*
X188117315Y-92332446D01*
X188351250Y-92363452D01*
X188586919Y-92351307D01*
X188816428Y-92296419D01*
X189032090Y-92200624D01*
X189226685Y-92067134D01*
X189289936Y-92003993D01*
X189465661Y-92146547D01*
X189672947Y-92259328D01*
X189897315Y-92332446D01*
X190131250Y-92363452D01*
X190366919Y-92351307D01*
X190596428Y-92296419D01*
X190812090Y-92200624D01*
X191006685Y-92067134D01*
X191069936Y-92003993D01*
X191245661Y-92146547D01*
X191452947Y-92259328D01*
X191677315Y-92332446D01*
X191911250Y-92363452D01*
X192146919Y-92351307D01*
X192376428Y-92296419D01*
X192592090Y-92200624D01*
X192786685Y-92067134D01*
X192849936Y-92003993D01*
X192984000Y-92112750D01*
X192984001Y-92501348D01*
X192793951Y-92542691D01*
X192576221Y-92682618D01*
X192409755Y-92874730D01*
X192304157Y-93105959D01*
X192269276Y-93348559D01*
X192269276Y-94615975D01*
X192346191Y-94969549D01*
X192486118Y-95187279D01*
X192678230Y-95353745D01*
X192909459Y-95459343D01*
X193152059Y-95494224D01*
X194094475Y-95494224D01*
X194448049Y-95417309D01*
X194665779Y-95277382D01*
X194832245Y-95085270D01*
X194937843Y-94854041D01*
X194972724Y-94611441D01*
X194972724Y-93344025D01*
X194895809Y-92990451D01*
X194755882Y-92772721D01*
X194563770Y-92606255D01*
X194502000Y-92578046D01*
X194502000Y-92111507D01*
X194566685Y-92067134D01*
X194629936Y-92003993D01*
X194805661Y-92146547D01*
X195012947Y-92259328D01*
X195237315Y-92332446D01*
X195471250Y-92363452D01*
X195706919Y-92351307D01*
X195936428Y-92296419D01*
X196152090Y-92200624D01*
X196346685Y-92067134D01*
X196513694Y-91900416D01*
X196647526Y-91706054D01*
X196743695Y-91490558D01*
X196799375Y-91259527D01*
X196807486Y-90959768D01*
X196778756Y-90804000D01*
X197984462Y-90804000D01*
X198041001Y-90804345D01*
X198041001Y-92174110D01*
X197576320Y-92638792D01*
X197538771Y-92606255D01*
X197307541Y-92500657D01*
X197064941Y-92465776D01*
X196122525Y-92465776D01*
X195768951Y-92542691D01*
X195551221Y-92682618D01*
X195384755Y-92874730D01*
X195279157Y-93105959D01*
X195244276Y-93348559D01*
X195244276Y-94615975D01*
X195321191Y-94969549D01*
X195461118Y-95187279D01*
X195653230Y-95353745D01*
X195837001Y-95437671D01*
X195837001Y-95697611D01*
X195265613Y-96269000D01*
X193354387Y-96269000D01*
X190106047Y-93020661D01*
X190106045Y-93020657D01*
X189935690Y-92850303D01*
X189881801Y-92822844D01*
X189832873Y-92787296D01*
X189775359Y-92768610D01*
X189721468Y-92741150D01*
X189661726Y-92731688D01*
X189604213Y-92713001D01*
X189544250Y-92713001D01*
X189544244Y-92713000D01*
X188663296Y-92713000D01*
X188594891Y-92644594D01*
X188359109Y-92508466D01*
X188096128Y-92438000D01*
X187823872Y-92438000D01*
X187560891Y-92508466D01*
X187325109Y-92644594D01*
X187132594Y-92837109D01*
X186996466Y-93072891D01*
X186926000Y-93335872D01*
X186926000Y-93608128D01*
X186996466Y-93871109D01*
X187132594Y-94106891D01*
X187325109Y-94299406D01*
X187560891Y-94435534D01*
X187823872Y-94506000D01*
X188096128Y-94506000D01*
X188359109Y-94435534D01*
X188594891Y-94299406D01*
X188663296Y-94231000D01*
X189169614Y-94231000D01*
X192432414Y-97493801D01*
X192588310Y-97649698D01*
X192642196Y-97677154D01*
X192691125Y-97712703D01*
X192748642Y-97731391D01*
X192802532Y-97758850D01*
X192862275Y-97768312D01*
X192919786Y-97786999D01*
X192979750Y-97786999D01*
X192979756Y-97787000D01*
X195640244Y-97787000D01*
X195640250Y-97786999D01*
X195700213Y-97786999D01*
X195757726Y-97768312D01*
X195817468Y-97758850D01*
X195871359Y-97731390D01*
X195928873Y-97712704D01*
X195977801Y-97677156D01*
X196031690Y-97649697D01*
X196202045Y-97479343D01*
X196202046Y-97479341D01*
X196578000Y-97103388D01*
X196578000Y-97164128D01*
X196648466Y-97427109D01*
X196784594Y-97662891D01*
X196977109Y-97855406D01*
X197212891Y-97991534D01*
X197475872Y-98062000D01*
X197748128Y-98062000D01*
X198011109Y-97991534D01*
X198246891Y-97855406D01*
X198439406Y-97662891D01*
X198575534Y-97427109D01*
X198646000Y-97164128D01*
X198646000Y-96891872D01*
X198645859Y-96891347D01*
X200787921Y-96891347D01*
X201125826Y-97229252D01*
X201172724Y-97283681D01*
X201211139Y-97427045D01*
X201347267Y-97662827D01*
X201539782Y-97855342D01*
X201775564Y-97991470D01*
X202038545Y-98061936D01*
X202310801Y-98061936D01*
X202573782Y-97991470D01*
X202809564Y-97855342D01*
X203002079Y-97662827D01*
X203138207Y-97427045D01*
X203208673Y-97164064D01*
X203208673Y-96891808D01*
X203138207Y-96628827D01*
X203002079Y-96393045D01*
X202809564Y-96200530D01*
X202651100Y-96109041D01*
X202631856Y-95974668D01*
X202608674Y-95923681D01*
X202608674Y-95587711D01*
X202658387Y-95537999D01*
X202725615Y-95537999D01*
X202851569Y-95663953D01*
X202887118Y-95712882D01*
X202936044Y-95748429D01*
X204182002Y-96994389D01*
X204182001Y-99036611D01*
X203901613Y-99317000D01*
X203139756Y-99317000D01*
X203139750Y-99317001D01*
X203079787Y-99317001D01*
X203022274Y-99335688D01*
X202962532Y-99345150D01*
X202908641Y-99372610D01*
X202851127Y-99391296D01*
X202802199Y-99426844D01*
X202748310Y-99454303D01*
X202705543Y-99497070D01*
X202656617Y-99532617D01*
X202621070Y-99581543D01*
X202578303Y-99624310D01*
X202550844Y-99678199D01*
X202515296Y-99727127D01*
X202496610Y-99784641D01*
X202476045Y-99825000D01*
X188298387Y-99825000D01*
X187159000Y-98685614D01*
X187159000Y-94897471D01*
X187140311Y-94839952D01*
X187130850Y-94780219D01*
X187103394Y-94726333D01*
X187084703Y-94668809D01*
X187049154Y-94619881D01*
X187021698Y-94565995D01*
X186870772Y-94415070D01*
X186891534Y-94379109D01*
X186962000Y-94116128D01*
X186962000Y-93843872D01*
X186891534Y-93580891D01*
X186755406Y-93345109D01*
X186562891Y-93152594D01*
X186327109Y-93016466D01*
X186064128Y-92946000D01*
X185791872Y-92946000D01*
X185528891Y-93016466D01*
X185293109Y-93152594D01*
X185100594Y-93345109D01*
X184964466Y-93580891D01*
X184894000Y-93843872D01*
X184894000Y-94116128D01*
X184964466Y-94379109D01*
X185100594Y-94614891D01*
X185177375Y-94691672D01*
X185187688Y-94723411D01*
X185197150Y-94783152D01*
X185224608Y-94837043D01*
X185243297Y-94894560D01*
X185278845Y-94943486D01*
X185306303Y-94997375D01*
X185356082Y-95047153D01*
X185641000Y-95332072D01*
X185641001Y-98899743D01*
X185641001Y-99120213D01*
X185659690Y-99177732D01*
X185669151Y-99237467D01*
X185696608Y-99291355D01*
X185715297Y-99348875D01*
X185750849Y-99397806D01*
X185778303Y-99451690D01*
X185828082Y-99501468D01*
X187376414Y-101049801D01*
X187532310Y-101205698D01*
X187586196Y-101233154D01*
X187635125Y-101268703D01*
X187692642Y-101287391D01*
X187746532Y-101314850D01*
X187806275Y-101324312D01*
X187863786Y-101342999D01*
X187923750Y-101342999D01*
X187923756Y-101343000D01*
X202159855Y-101343000D01*
X202159386Y-101349308D01*
X202166001Y-101380296D01*
X202166001Y-101576528D01*
X202036466Y-101800891D01*
X201966000Y-102063872D01*
X201966000Y-102336128D01*
X202036466Y-102599109D01*
X202172594Y-102834891D01*
X202365109Y-103027406D01*
X202600891Y-103163534D01*
X202863872Y-103234000D01*
X203136128Y-103234000D01*
X203399109Y-103163534D01*
X203634891Y-103027406D01*
X203827406Y-102834891D01*
X203963534Y-102599109D01*
X204034000Y-102336128D01*
X204034000Y-102063872D01*
X203963534Y-101800891D01*
X203856299Y-101615154D01*
X203856866Y-101614587D01*
X204107109Y-101547534D01*
X204342891Y-101411406D01*
X204535406Y-101218891D01*
X204671534Y-100983109D01*
X204742000Y-100720128D01*
X204742000Y-100623387D01*
X204838045Y-100527343D01*
X204838046Y-100527341D01*
X205426411Y-99938976D01*
X211108163Y-99938976D01*
X211108163Y-101666588D01*
X211188795Y-101967512D01*
X211336185Y-102143165D01*
X211529814Y-102254956D01*
X211738976Y-102291837D01*
X213466588Y-102291837D01*
X213767512Y-102211205D01*
X213943165Y-102063815D01*
X214054956Y-101870186D01*
X214091837Y-101661024D01*
X214091837Y-100095625D01*
X216954892Y-100095625D01*
X216970404Y-100342190D01*
X217029334Y-100582111D01*
X217129819Y-100807804D01*
X217268684Y-101012136D01*
X217441537Y-101188649D01*
X217642916Y-101331761D01*
X217866456Y-101436951D01*
X218105090Y-101500893D01*
X218351275Y-101521566D01*
X218597232Y-101498317D01*
X218835183Y-101431878D01*
X219057609Y-101324354D01*
X219257479Y-101179140D01*
X219428474Y-101000828D01*
X219565191Y-100795053D01*
X219663307Y-100568319D01*
X219720102Y-100326174D01*
X219726139Y-100095625D01*
X221834892Y-100095625D01*
X221850404Y-100342190D01*
X221909334Y-100582111D01*
X222009819Y-100807804D01*
X222148684Y-101012136D01*
X222321537Y-101188649D01*
X222522916Y-101331761D01*
X222746456Y-101436951D01*
X222985090Y-101500893D01*
X223231275Y-101521566D01*
X223477232Y-101498317D01*
X223715183Y-101431878D01*
X223937609Y-101324354D01*
X224137479Y-101179140D01*
X224308474Y-101000828D01*
X224445191Y-100795053D01*
X224543307Y-100568319D01*
X224600102Y-100326174D01*
X224608379Y-100010112D01*
X224564334Y-99765326D01*
X224478219Y-99533768D01*
X224352459Y-99321119D01*
X224191029Y-99134102D01*
X223999034Y-98978628D01*
X223782541Y-98859609D01*
X223548392Y-98780809D01*
X223303990Y-98744719D01*
X223057060Y-98752479D01*
X222815406Y-98803844D01*
X222586667Y-98897191D01*
X222378074Y-99029568D01*
X222196220Y-99196792D01*
X222046852Y-99393577D01*
X221934693Y-99613702D01*
X221863286Y-99850210D01*
X221834892Y-100095625D01*
X219726139Y-100095625D01*
X219728379Y-100010112D01*
X219684334Y-99765326D01*
X219598219Y-99533768D01*
X219472459Y-99321119D01*
X219311029Y-99134102D01*
X219119034Y-98978628D01*
X218902541Y-98859609D01*
X218668392Y-98780809D01*
X218423990Y-98744719D01*
X218177060Y-98752479D01*
X217935406Y-98803844D01*
X217706667Y-98897191D01*
X217498074Y-99029568D01*
X217316220Y-99196792D01*
X217166852Y-99393577D01*
X217054693Y-99613702D01*
X216983286Y-99850210D01*
X216954892Y-100095625D01*
X214091837Y-100095625D01*
X214091837Y-99933412D01*
X214011205Y-99632489D01*
X213863815Y-99456835D01*
X213670186Y-99345044D01*
X213621554Y-99336469D01*
X213715466Y-99246881D01*
X213865797Y-99044828D01*
X213979936Y-98820334D01*
X214054618Y-98579819D01*
X214087708Y-98330159D01*
X214078260Y-98078492D01*
X214026544Y-97832017D01*
X213934039Y-97597778D01*
X213803390Y-97382474D01*
X213638331Y-97192261D01*
X213443584Y-97032578D01*
X213224716Y-96907991D01*
X212985169Y-96821040D01*
X212645352Y-96776000D01*
X212536810Y-96776000D01*
X212349058Y-96791931D01*
X212105292Y-96855200D01*
X211875671Y-96958637D01*
X211666760Y-97099284D01*
X211484534Y-97273119D01*
X211334203Y-97475172D01*
X211220064Y-97699666D01*
X211145382Y-97940181D01*
X211112292Y-98189841D01*
X211121740Y-98441508D01*
X211173456Y-98687983D01*
X211265961Y-98922222D01*
X211396610Y-99137526D01*
X211561669Y-99327739D01*
X211585975Y-99347669D01*
X211432489Y-99388795D01*
X211256835Y-99536185D01*
X211145044Y-99729814D01*
X211108163Y-99938976D01*
X205426411Y-99938976D01*
X205473551Y-99891837D01*
X207066588Y-99891837D01*
X207367512Y-99811205D01*
X207543165Y-99663815D01*
X207654956Y-99470186D01*
X207663204Y-99423412D01*
X207701669Y-99467739D01*
X207896416Y-99627422D01*
X208115284Y-99752009D01*
X208354831Y-99838960D01*
X208694648Y-99884000D01*
X208803190Y-99884000D01*
X208990942Y-99868069D01*
X209234708Y-99804800D01*
X209464329Y-99701363D01*
X209673240Y-99560716D01*
X209855466Y-99386881D01*
X210005797Y-99184828D01*
X210119936Y-98960334D01*
X210194618Y-98719819D01*
X210227708Y-98470159D01*
X210218260Y-98218492D01*
X210166544Y-97972017D01*
X210074039Y-97737778D01*
X209943390Y-97522474D01*
X209778331Y-97332261D01*
X209583584Y-97172578D01*
X209364716Y-97047991D01*
X209125169Y-96961040D01*
X208785352Y-96916000D01*
X208676810Y-96916000D01*
X208489058Y-96931931D01*
X208245292Y-96995200D01*
X208015671Y-97098637D01*
X207806760Y-97239284D01*
X207652465Y-97386474D01*
X207611205Y-97232489D01*
X207463815Y-97056835D01*
X207270186Y-96945044D01*
X207061024Y-96908163D01*
X205700001Y-96908163D01*
X205700001Y-96559785D01*
X205681311Y-96502264D01*
X205671851Y-96442532D01*
X205644393Y-96388641D01*
X205625704Y-96331124D01*
X205590154Y-96282194D01*
X205562699Y-96228309D01*
X205519258Y-96184868D01*
X205519252Y-96184861D01*
X204598276Y-95263887D01*
X204605052Y-95257111D01*
X204628823Y-95242113D01*
X204695143Y-95167020D01*
X204719915Y-95142249D01*
X204736134Y-95120606D01*
X204796444Y-95052319D01*
X204811757Y-95019702D01*
X204833362Y-94990876D01*
X204865342Y-94905571D01*
X204904224Y-94822754D01*
X204909419Y-94787992D01*
X204922246Y-94753774D01*
X204929874Y-94651126D01*
X204934001Y-94623512D01*
X204934001Y-94595604D01*
X204938584Y-94533934D01*
X205488519Y-93983999D01*
X207508163Y-93983999D01*
X207508163Y-95266588D01*
X207588795Y-95567512D01*
X207736185Y-95743165D01*
X207929814Y-95854956D01*
X208138976Y-95891837D01*
X209866588Y-95891837D01*
X210167512Y-95811205D01*
X210343165Y-95663815D01*
X210454956Y-95470186D01*
X210491837Y-95261024D01*
X210491837Y-94236975D01*
X212378520Y-96123658D01*
X212392669Y-96146083D01*
X212463507Y-96208645D01*
X212486881Y-96232020D01*
X212507308Y-96247329D01*
X212571726Y-96304221D01*
X212602493Y-96318667D01*
X212629695Y-96339053D01*
X212710169Y-96369221D01*
X212788329Y-96405917D01*
X212821133Y-96410819D01*
X212853386Y-96422910D01*
X212950160Y-96430102D01*
X212976241Y-96434000D01*
X212976530Y-96434000D01*
X213200891Y-96563534D01*
X213463872Y-96634000D01*
X213736128Y-96634000D01*
X213999109Y-96563534D01*
X214234891Y-96427406D01*
X214427406Y-96234891D01*
X214563534Y-95999109D01*
X214634000Y-95736128D01*
X214634000Y-95463872D01*
X214563534Y-95200891D01*
X214427406Y-94965109D01*
X214234891Y-94772594D01*
X213999109Y-94636466D01*
X213736128Y-94566000D01*
X213463872Y-94566000D01*
X213239806Y-94626038D01*
X211240111Y-92626344D01*
X211225960Y-92603916D01*
X211155113Y-92541346D01*
X211131748Y-92517980D01*
X211111330Y-92502677D01*
X211046902Y-92445777D01*
X211016131Y-92431330D01*
X210988933Y-92410946D01*
X210908472Y-92380784D01*
X210830301Y-92344082D01*
X210797488Y-92339178D01*
X210765241Y-92327090D01*
X210668489Y-92319900D01*
X210642391Y-92315999D01*
X210615997Y-92315999D01*
X210527007Y-92309385D01*
X210496023Y-92315999D01*
X206482143Y-92315999D01*
X206491837Y-92261024D01*
X206491837Y-90533412D01*
X206411205Y-90232489D01*
X206263815Y-90056835D01*
X206070186Y-89945044D01*
X206021554Y-89936469D01*
X206115466Y-89846881D01*
X206265797Y-89644828D01*
X206379936Y-89420334D01*
X206454618Y-89179819D01*
X206487708Y-88930159D01*
X206478260Y-88678492D01*
X206426544Y-88432017D01*
X206334039Y-88197778D01*
X206203390Y-87982474D01*
X206038331Y-87792261D01*
X205843584Y-87632578D01*
X205624716Y-87507991D01*
X205385169Y-87421040D01*
X205045352Y-87376000D01*
X204936810Y-87376000D01*
X204749058Y-87391931D01*
X204505292Y-87455200D01*
X204275671Y-87558637D01*
X204066760Y-87699284D01*
X203884534Y-87873119D01*
X203734203Y-88075172D01*
X203620064Y-88299666D01*
X203545382Y-88540181D01*
X203512292Y-88789841D01*
X203521740Y-89041508D01*
X203573456Y-89287983D01*
X203665961Y-89522222D01*
X203796610Y-89737526D01*
X203961669Y-89927739D01*
X203985975Y-89947669D01*
X203832489Y-89988795D01*
X203656835Y-90136185D01*
X203545044Y-90329814D01*
X203508163Y-90538976D01*
X203508163Y-91257998D01*
X203184000Y-90933836D01*
X203184000Y-85999030D01*
X203190202Y-85971623D01*
X203184000Y-85871661D01*
X203184000Y-85836600D01*
X203180163Y-85809808D01*
X203174523Y-85718894D01*
X203162291Y-85685013D01*
X203157182Y-85649343D01*
X203119471Y-85566398D01*
X203088408Y-85480354D01*
X203067502Y-85452101D01*
X203052377Y-85418836D01*
X202985179Y-85340849D01*
X202968579Y-85318414D01*
X202948843Y-85298679D01*
X202887088Y-85227009D01*
X202858905Y-85208741D01*
X201804705Y-84154542D01*
X201763534Y-84000891D01*
X201627406Y-83765109D01*
X201434891Y-83572594D01*
X201199109Y-83436466D01*
X200936128Y-83366000D01*
X200663872Y-83366000D01*
X200400891Y-83436466D01*
X200165109Y-83572594D01*
X199972594Y-83765109D01*
X199836466Y-84000891D01*
X199766000Y-84263872D01*
X199766000Y-84536128D01*
X199836466Y-84799109D01*
X199972594Y-85034891D01*
X200165109Y-85227406D01*
X200400891Y-85363534D01*
X200554541Y-85404705D01*
X201416000Y-86266165D01*
X201416001Y-91200965D01*
X201409798Y-91228377D01*
X201416001Y-91328354D01*
X201416001Y-91363399D01*
X201419837Y-91390186D01*
X201425477Y-91481105D01*
X201437711Y-91514995D01*
X201442819Y-91550658D01*
X201480523Y-91633585D01*
X201511592Y-91719645D01*
X201532498Y-91747897D01*
X201547624Y-91781165D01*
X201614815Y-91859143D01*
X201631421Y-91881585D01*
X201651153Y-91901316D01*
X201712913Y-91972992D01*
X201741096Y-91991259D01*
X202813391Y-93063555D01*
X202809797Y-93079436D01*
X202815999Y-93179397D01*
X202815999Y-93214459D01*
X202819836Y-93241251D01*
X202825476Y-93332164D01*
X202837708Y-93366044D01*
X202842816Y-93401716D01*
X202880529Y-93484662D01*
X202911590Y-93570702D01*
X202932495Y-93598954D01*
X202947623Y-93632225D01*
X203014821Y-93710212D01*
X203031421Y-93732645D01*
X203051150Y-93752373D01*
X203112912Y-93824051D01*
X203141095Y-93842318D01*
X203166001Y-93867224D01*
X203166001Y-93874332D01*
X203160176Y-93873900D01*
X203134078Y-93869999D01*
X203107684Y-93869999D01*
X203018694Y-93863385D01*
X202987710Y-93869999D01*
X202401427Y-93869999D01*
X202375571Y-93864148D01*
X202281272Y-93869999D01*
X202248188Y-93869999D01*
X202222894Y-93873621D01*
X202137137Y-93878941D01*
X202105172Y-93890480D01*
X202071518Y-93895300D01*
X201993270Y-93930878D01*
X201912069Y-93960192D01*
X201885409Y-93979919D01*
X201854049Y-93994178D01*
X201780544Y-94057514D01*
X201759336Y-94073208D01*
X201740693Y-94091852D01*
X201673073Y-94150117D01*
X201655837Y-94176708D01*
X201251017Y-94581528D01*
X201228589Y-94595680D01*
X201166023Y-94666523D01*
X201142654Y-94689892D01*
X201127346Y-94710317D01*
X201070453Y-94774736D01*
X201056007Y-94805503D01*
X201035621Y-94832705D01*
X201005455Y-94913175D01*
X200968757Y-94991338D01*
X200963853Y-95024150D01*
X200951765Y-95056396D01*
X200946789Y-95123347D01*
X198153520Y-95123347D01*
X198015762Y-95043813D01*
X197846847Y-94998552D01*
X197912843Y-94854041D01*
X197947724Y-94611441D01*
X197947724Y-94414163D01*
X199378251Y-92983638D01*
X199378257Y-92983631D01*
X199421698Y-92940190D01*
X199449153Y-92886305D01*
X199484703Y-92837375D01*
X199503392Y-92779858D01*
X199530850Y-92725967D01*
X199540310Y-92666235D01*
X199559000Y-92608714D01*
X199559000Y-85903296D01*
X199627406Y-85834891D01*
X199763534Y-85599109D01*
X199834000Y-85336128D01*
X199834000Y-85063872D01*
X199763534Y-84800891D01*
X199627406Y-84565109D01*
X199434891Y-84372594D01*
X199199109Y-84236466D01*
X198936128Y-84166000D01*
X198663872Y-84166000D01*
X198627000Y-84175880D01*
X198627000Y-81288485D01*
X198627583Y-81193073D01*
X198614509Y-81147328D01*
X198607764Y-81100232D01*
X198589684Y-81060467D01*
X198577677Y-81018460D01*
X198552294Y-80978229D01*
X198532598Y-80934911D01*
X198504080Y-80901816D01*
X198480773Y-80864874D01*
X198445111Y-80833378D01*
X198414053Y-80797335D01*
X198377399Y-80773578D01*
X198344654Y-80744658D01*
X198301578Y-80724434D01*
X198261661Y-80698561D01*
X198219818Y-80686048D01*
X198179911Y-80667311D01*
X198134455Y-80660518D01*
X198087672Y-80646527D01*
X198038832Y-80646228D01*
X198037306Y-80646000D01*
X198001538Y-80646000D01*
X197906073Y-80645417D01*
X197904033Y-80646000D01*
X197668534Y-80646000D01*
X197689375Y-80559527D01*
X197697486Y-80259768D01*
X197654382Y-80026064D01*
X197570007Y-79805682D01*
X197446882Y-79604368D01*
X197433048Y-79588976D01*
X199308163Y-79588976D01*
X199308163Y-81316588D01*
X199388795Y-81617512D01*
X199536185Y-81793165D01*
X199729814Y-81904956D01*
X199938976Y-81941837D01*
X201666588Y-81941837D01*
X201967512Y-81861205D01*
X202143165Y-81713815D01*
X202254956Y-81520186D01*
X202291837Y-81311024D01*
X202291837Y-79583412D01*
X202211205Y-79282489D01*
X202063815Y-79106835D01*
X201870186Y-78995044D01*
X201661024Y-78958163D01*
X199933412Y-78958163D01*
X199632489Y-79038795D01*
X199456835Y-79186185D01*
X199345044Y-79379814D01*
X199308163Y-79588976D01*
X197433048Y-79588976D01*
X197289133Y-79428863D01*
X197102042Y-79285042D01*
X196891876Y-79177726D01*
X196665671Y-79110506D01*
X196431004Y-79085635D01*
X196195735Y-79103944D01*
X195967741Y-79164822D01*
X195754659Y-79266228D01*
X195563627Y-79404768D01*
X195524485Y-79445943D01*
X195509133Y-79428863D01*
X195322042Y-79285042D01*
X195111876Y-79177726D01*
X194885671Y-79110506D01*
X194651004Y-79085635D01*
X194415735Y-79103944D01*
X194187741Y-79164822D01*
X193974659Y-79266228D01*
X193783627Y-79404768D01*
X193744485Y-79445943D01*
X193729133Y-79428863D01*
X193542042Y-79285042D01*
X193331876Y-79177726D01*
X193105671Y-79110506D01*
X192871004Y-79085635D01*
X192635735Y-79103944D01*
X192407741Y-79164822D01*
X192194659Y-79266228D01*
X192003627Y-79404768D01*
X191964485Y-79445943D01*
X191949133Y-79428863D01*
X191762042Y-79285042D01*
X191551876Y-79177726D01*
X191325671Y-79110506D01*
X191091004Y-79085635D01*
X190855735Y-79103944D01*
X190627741Y-79164822D01*
X190414659Y-79266228D01*
X190223627Y-79404768D01*
X190184485Y-79445943D01*
X190169133Y-79428863D01*
X189982042Y-79285042D01*
X189771876Y-79177726D01*
X189545671Y-79110506D01*
X189311004Y-79085635D01*
X189075735Y-79103944D01*
X188847741Y-79164822D01*
X188634659Y-79266228D01*
X188443627Y-79404768D01*
X188404485Y-79445943D01*
X188389133Y-79428863D01*
X188202042Y-79285042D01*
X187991876Y-79177726D01*
X187765671Y-79110506D01*
X187531004Y-79085635D01*
X187295735Y-79103944D01*
X187067741Y-79164822D01*
X186854659Y-79266228D01*
X186663627Y-79404768D01*
X186624485Y-79445943D01*
X186609133Y-79428863D01*
X186422042Y-79285042D01*
X186211876Y-79177726D01*
X185985671Y-79110506D01*
X185751004Y-79085635D01*
X185515735Y-79103944D01*
X185287741Y-79164822D01*
X185074659Y-79266228D01*
X185034429Y-79295403D01*
X185055936Y-79276872D01*
X185073172Y-79250281D01*
X185814453Y-78509000D01*
X204861511Y-78509000D01*
X204927925Y-78784578D01*
X205025385Y-78998931D01*
X205161620Y-79190988D01*
X205331715Y-79353818D01*
X205374675Y-79381557D01*
X205245140Y-79483308D01*
X205090814Y-79661154D01*
X204972901Y-79864973D01*
X204895657Y-80087413D01*
X204861869Y-80320445D01*
X204872756Y-80555663D01*
X204927925Y-80784578D01*
X205025385Y-80998931D01*
X205161620Y-81190988D01*
X205331715Y-81353818D01*
X205374675Y-81381557D01*
X205245140Y-81483308D01*
X205090814Y-81661154D01*
X204972901Y-81864973D01*
X204895657Y-82087413D01*
X204861869Y-82320445D01*
X204872756Y-82555663D01*
X204927925Y-82784578D01*
X205025385Y-82998931D01*
X205161620Y-83190988D01*
X205331715Y-83353818D01*
X205374675Y-83381557D01*
X205245140Y-83483308D01*
X205090814Y-83661154D01*
X204972901Y-83864973D01*
X204895657Y-84087413D01*
X204861869Y-84320445D01*
X204872756Y-84555663D01*
X204927925Y-84784578D01*
X205025385Y-84998931D01*
X205161620Y-85190988D01*
X205331715Y-85353818D01*
X205529532Y-85481546D01*
X205750820Y-85570728D01*
X206056159Y-85615000D01*
X206708811Y-85615000D01*
X206884405Y-85598247D01*
X207110352Y-85531961D01*
X207319688Y-85424146D01*
X207504860Y-85278692D01*
X207659186Y-85100846D01*
X207777099Y-84897027D01*
X207854343Y-84674587D01*
X207888131Y-84441555D01*
X207877244Y-84206337D01*
X207822075Y-83977422D01*
X207724615Y-83763069D01*
X207588380Y-83571012D01*
X207418285Y-83408182D01*
X207375325Y-83380443D01*
X207504860Y-83278692D01*
X207659186Y-83100846D01*
X207777099Y-82897027D01*
X207854343Y-82674587D01*
X207888131Y-82441555D01*
X207877244Y-82206337D01*
X207822075Y-81977422D01*
X207724615Y-81763069D01*
X207588380Y-81571012D01*
X207418285Y-81408182D01*
X207375325Y-81380443D01*
X207504860Y-81278692D01*
X207659186Y-81100846D01*
X207777099Y-80897027D01*
X207854343Y-80674587D01*
X207888131Y-80441555D01*
X207877244Y-80206337D01*
X207822075Y-79977422D01*
X207724615Y-79763069D01*
X207588380Y-79571012D01*
X207418285Y-79408182D01*
X207375325Y-79380443D01*
X207504860Y-79278692D01*
X207659186Y-79100846D01*
X207777099Y-78897027D01*
X207854344Y-78674585D01*
X207878346Y-78509000D01*
X204861511Y-78509000D01*
X185814453Y-78509000D01*
X187814453Y-76509000D01*
X204860776Y-76509000D01*
X204860776Y-76742379D01*
X204937655Y-77095785D01*
X205077519Y-77313419D01*
X205260058Y-77471590D01*
X205245140Y-77483308D01*
X205090814Y-77661154D01*
X204972901Y-77864973D01*
X204895656Y-78087415D01*
X204871654Y-78253000D01*
X207888489Y-78253000D01*
X207822075Y-77977422D01*
X207724615Y-77763069D01*
X207588380Y-77571012D01*
X207481275Y-77468482D01*
X207582419Y-77403481D01*
X207748809Y-77211456D01*
X207854359Y-76980332D01*
X207889224Y-76737845D01*
X207889224Y-76509000D01*
X204860776Y-76509000D01*
X187814453Y-76509000D01*
X188560453Y-75763000D01*
X204904166Y-75763000D01*
X204895641Y-75781668D01*
G36*
X228053000Y-77326387D02*
G01*
X228053000Y-77637347D01*
X227784525Y-77637347D01*
X227521544Y-77707813D01*
X227285762Y-77843941D01*
X227093247Y-78036456D01*
X226957119Y-78272238D01*
X226886653Y-78535219D01*
X226886653Y-78545000D01*
X223024387Y-78545000D01*
X223121044Y-78448344D01*
X223121046Y-78448340D01*
X223263386Y-78306000D01*
X223360128Y-78306000D01*
X223623109Y-78235534D01*
X223858891Y-78099406D01*
X224051406Y-77906891D01*
X224187534Y-77671109D01*
X224258000Y-77408128D01*
X224258000Y-77135872D01*
X224187534Y-76872891D01*
X224101573Y-76724001D01*
X225156245Y-76724001D01*
X225156251Y-76724000D01*
X225216214Y-76724000D01*
X225273727Y-76705313D01*
X225333469Y-76695851D01*
X225387360Y-76668391D01*
X225444874Y-76649705D01*
X225493802Y-76614157D01*
X225547691Y-76586698D01*
X225718046Y-76416344D01*
X225718047Y-76416342D01*
X226135390Y-75999000D01*
X226725614Y-75999000D01*
X228053000Y-77326387D01*
X228053000Y-77326387D01*
G37*
X228053000Y-77326387D02*
X228053000Y-77637347D01*
X227784525Y-77637347D01*
X227521544Y-77707813D01*
X227285762Y-77843941D01*
X227093247Y-78036456D01*
X226957119Y-78272238D01*
X226886653Y-78535219D01*
X226886653Y-78545000D01*
X223024387Y-78545000D01*
X223121044Y-78448344D01*
X223121046Y-78448340D01*
X223263386Y-78306000D01*
X223360128Y-78306000D01*
X223623109Y-78235534D01*
X223858891Y-78099406D01*
X224051406Y-77906891D01*
X224187534Y-77671109D01*
X224258000Y-77408128D01*
X224258000Y-77135872D01*
X224187534Y-76872891D01*
X224101573Y-76724001D01*
X225156245Y-76724001D01*
X225156251Y-76724000D01*
X225216214Y-76724000D01*
X225273727Y-76705313D01*
X225333469Y-76695851D01*
X225387360Y-76668391D01*
X225444874Y-76649705D01*
X225493802Y-76614157D01*
X225547691Y-76586698D01*
X225718046Y-76416344D01*
X225718047Y-76416342D01*
X226135390Y-75999000D01*
X226725614Y-75999000D01*
X228053000Y-77326387D01*
G36*
X218261415Y-78462802D02*
G01*
X218343612Y-78545000D01*
X217410387Y-78545000D01*
X215624386Y-76759000D01*
X216557614Y-76759000D01*
X218261415Y-78462802D01*
X218261415Y-78462802D01*
G37*
X218261415Y-78462802D02*
X218343612Y-78545000D01*
X217410387Y-78545000D01*
X215624386Y-76759000D01*
X216557614Y-76759000D01*
X218261415Y-78462802D01*
G36*
X158674801Y-73905301D02*
G01*
X158674217Y-74000927D01*
X158687294Y-74046680D01*
X158694038Y-74093770D01*
X158712119Y-74133538D01*
X158724123Y-74175540D01*
X158749513Y-74215781D01*
X158769202Y-74259087D01*
X158797716Y-74292179D01*
X158821028Y-74329126D01*
X158856694Y-74360624D01*
X158887746Y-74396663D01*
X158924398Y-74420420D01*
X158957146Y-74449342D01*
X159000226Y-74469569D01*
X159040139Y-74495439D01*
X159081982Y-74507952D01*
X159121889Y-74526689D01*
X159167345Y-74533482D01*
X159214128Y-74547473D01*
X159262968Y-74547772D01*
X159264494Y-74548000D01*
X159300262Y-74548000D01*
X159395727Y-74548583D01*
X159397767Y-74548000D01*
X167688283Y-74548000D01*
X166933826Y-75302457D01*
X166816582Y-75306552D01*
X166558648Y-75357625D01*
X166312197Y-75449278D01*
X166083569Y-75579157D01*
X165878649Y-75743918D01*
X165702706Y-75939321D01*
X165560269Y-76160342D01*
X165455000Y-76401292D01*
X165389608Y-76655973D01*
X165365778Y-76917834D01*
X165384120Y-77180135D01*
X165444163Y-77436130D01*
X165544362Y-77679232D01*
X165682140Y-77903187D01*
X165684568Y-77906000D01*
X163239988Y-77906000D01*
X163293577Y-77837410D01*
X163420250Y-77606992D01*
X163508454Y-77359286D01*
X163556040Y-77100010D01*
X163559138Y-76804185D01*
X163516992Y-76543970D01*
X163433994Y-76294470D01*
X163312175Y-76061450D01*
X163169838Y-75871181D01*
X161925000Y-77116020D01*
X160671927Y-75862946D01*
X160480269Y-76160342D01*
X160375000Y-76401292D01*
X160309608Y-76655973D01*
X160285778Y-76917834D01*
X160304120Y-77180135D01*
X160364163Y-77436130D01*
X160464362Y-77679232D01*
X160602140Y-77903187D01*
X160604568Y-77906000D01*
X156811859Y-77906000D01*
X156943577Y-77737410D01*
X157070250Y-77506992D01*
X157158454Y-77259286D01*
X157206040Y-77000010D01*
X157208076Y-76805641D01*
X158305088Y-75708630D01*
X158318057Y-75692089D01*
X160863108Y-75692089D01*
X161925000Y-76753981D01*
X162992194Y-75686786D01*
X162749606Y-75518183D01*
X162512477Y-75404571D01*
X162260233Y-75330331D01*
X161999364Y-75297375D01*
X161736582Y-75306552D01*
X161478648Y-75357625D01*
X161232197Y-75449278D01*
X161003570Y-75579157D01*
X160863108Y-75692089D01*
X158318057Y-75692089D01*
X158431702Y-75547154D01*
X158544649Y-75297002D01*
X158594668Y-75027127D01*
X158578867Y-74753112D01*
X158498163Y-74490776D01*
X158357211Y-74255264D01*
X158213600Y-74110140D01*
X158213600Y-71612187D01*
X158674800Y-71150988D01*
X158674801Y-73905301D01*
X158674801Y-73905301D01*
G37*
X158674801Y-73905301D02*
X158674217Y-74000927D01*
X158687294Y-74046680D01*
X158694038Y-74093770D01*
X158712119Y-74133538D01*
X158724123Y-74175540D01*
X158749513Y-74215781D01*
X158769202Y-74259087D01*
X158797716Y-74292179D01*
X158821028Y-74329126D01*
X158856694Y-74360624D01*
X158887746Y-74396663D01*
X158924398Y-74420420D01*
X158957146Y-74449342D01*
X159000226Y-74469569D01*
X159040139Y-74495439D01*
X159081982Y-74507952D01*
X159121889Y-74526689D01*
X159167345Y-74533482D01*
X159214128Y-74547473D01*
X159262968Y-74547772D01*
X159264494Y-74548000D01*
X159300262Y-74548000D01*
X159395727Y-74548583D01*
X159397767Y-74548000D01*
X167688283Y-74548000D01*
X166933826Y-75302457D01*
X166816582Y-75306552D01*
X166558648Y-75357625D01*
X166312197Y-75449278D01*
X166083569Y-75579157D01*
X165878649Y-75743918D01*
X165702706Y-75939321D01*
X165560269Y-76160342D01*
X165455000Y-76401292D01*
X165389608Y-76655973D01*
X165365778Y-76917834D01*
X165384120Y-77180135D01*
X165444163Y-77436130D01*
X165544362Y-77679232D01*
X165682140Y-77903187D01*
X165684568Y-77906000D01*
X163239988Y-77906000D01*
X163293577Y-77837410D01*
X163420250Y-77606992D01*
X163508454Y-77359286D01*
X163556040Y-77100010D01*
X163559138Y-76804185D01*
X163516992Y-76543970D01*
X163433994Y-76294470D01*
X163312175Y-76061450D01*
X163169838Y-75871181D01*
X161925000Y-77116020D01*
X160671927Y-75862946D01*
X160480269Y-76160342D01*
X160375000Y-76401292D01*
X160309608Y-76655973D01*
X160285778Y-76917834D01*
X160304120Y-77180135D01*
X160364163Y-77436130D01*
X160464362Y-77679232D01*
X160602140Y-77903187D01*
X160604568Y-77906000D01*
X156811859Y-77906000D01*
X156943577Y-77737410D01*
X157070250Y-77506992D01*
X157158454Y-77259286D01*
X157206040Y-77000010D01*
X157208076Y-76805641D01*
X158305088Y-75708630D01*
X158318057Y-75692089D01*
X160863108Y-75692089D01*
X161925000Y-76753981D01*
X162992194Y-75686786D01*
X162749606Y-75518183D01*
X162512477Y-75404571D01*
X162260233Y-75330331D01*
X161999364Y-75297375D01*
X161736582Y-75306552D01*
X161478648Y-75357625D01*
X161232197Y-75449278D01*
X161003570Y-75579157D01*
X160863108Y-75692089D01*
X158318057Y-75692089D01*
X158431702Y-75547154D01*
X158544649Y-75297002D01*
X158594668Y-75027127D01*
X158578867Y-74753112D01*
X158498163Y-74490776D01*
X158357211Y-74255264D01*
X158213600Y-74110140D01*
X158213600Y-71612187D01*
X158674800Y-71150988D01*
X158674801Y-73905301D01*
G36*
X171638648Y-75357625D02*
G01*
X171392197Y-75449278D01*
X171163569Y-75579157D01*
X170958649Y-75743918D01*
X170782706Y-75939321D01*
X170640269Y-76160342D01*
X170535000Y-76401292D01*
X170469608Y-76655973D01*
X170445778Y-76917834D01*
X170464120Y-77180135D01*
X170524163Y-77436130D01*
X170624362Y-77679232D01*
X170762140Y-77903187D01*
X170764568Y-77906000D01*
X168319988Y-77906000D01*
X168373577Y-77837410D01*
X168500250Y-77606992D01*
X168588454Y-77359286D01*
X168636040Y-77100010D01*
X168639134Y-76804583D01*
X169125717Y-76318000D01*
X169232772Y-76318000D01*
X169436482Y-76293349D01*
X169693233Y-76196330D01*
X169919431Y-76040868D01*
X170006629Y-75943000D01*
X170138644Y-75943000D01*
X170138650Y-75942999D01*
X170198613Y-75942999D01*
X170256126Y-75924312D01*
X170315868Y-75914850D01*
X170369759Y-75887390D01*
X170427273Y-75868704D01*
X170476201Y-75833156D01*
X170530090Y-75805697D01*
X171027787Y-75308000D01*
X171889269Y-75308000D01*
X171638648Y-75357625D01*
X171638648Y-75357625D01*
G37*
X171638648Y-75357625D02*
X171392197Y-75449278D01*
X171163569Y-75579157D01*
X170958649Y-75743918D01*
X170782706Y-75939321D01*
X170640269Y-76160342D01*
X170535000Y-76401292D01*
X170469608Y-76655973D01*
X170445778Y-76917834D01*
X170464120Y-77180135D01*
X170524163Y-77436130D01*
X170624362Y-77679232D01*
X170762140Y-77903187D01*
X170764568Y-77906000D01*
X168319988Y-77906000D01*
X168373577Y-77837410D01*
X168500250Y-77606992D01*
X168588454Y-77359286D01*
X168636040Y-77100010D01*
X168639134Y-76804583D01*
X169125717Y-76318000D01*
X169232772Y-76318000D01*
X169436482Y-76293349D01*
X169693233Y-76196330D01*
X169919431Y-76040868D01*
X170006629Y-75943000D01*
X170138644Y-75943000D01*
X170138650Y-75942999D01*
X170198613Y-75942999D01*
X170256126Y-75924312D01*
X170315868Y-75914850D01*
X170369759Y-75887390D01*
X170427273Y-75868704D01*
X170476201Y-75833156D01*
X170530090Y-75805697D01*
X171027787Y-75308000D01*
X171889269Y-75308000D01*
X171638648Y-75357625D01*
G36*
X180165269Y-76060342D02*
G01*
X180060000Y-76301292D01*
X179994608Y-76555973D01*
X179970778Y-76817834D01*
X179989120Y-77080135D01*
X180049163Y-77336130D01*
X180049880Y-77337870D01*
X179971571Y-77320150D01*
X179733137Y-77334943D01*
X179508069Y-77416194D01*
X179355336Y-77529210D01*
X178978547Y-77906000D01*
X173399988Y-77906000D01*
X173453577Y-77837410D01*
X173580250Y-77606992D01*
X173668454Y-77359286D01*
X173716040Y-77100010D01*
X173719134Y-76804583D01*
X174332488Y-76191230D01*
X174459101Y-76029755D01*
X174498272Y-75943000D01*
X180240890Y-75943000D01*
X180165269Y-76060342D01*
X180165269Y-76060342D01*
G37*
X180165269Y-76060342D02*
X180060000Y-76301292D01*
X179994608Y-76555973D01*
X179970778Y-76817834D01*
X179989120Y-77080135D01*
X180049163Y-77336130D01*
X180049880Y-77337870D01*
X179971571Y-77320150D01*
X179733137Y-77334943D01*
X179508069Y-77416194D01*
X179355336Y-77529210D01*
X178978547Y-77906000D01*
X173399988Y-77906000D01*
X173453577Y-77837410D01*
X173580250Y-77606992D01*
X173668454Y-77359286D01*
X173716040Y-77100010D01*
X173719134Y-76804583D01*
X174332488Y-76191230D01*
X174459101Y-76029755D01*
X174498272Y-75943000D01*
X180240890Y-75943000D01*
X180165269Y-76060342D01*
G36*
X204005926Y-74245000D02*
G01*
X188625164Y-74245000D01*
X189579912Y-73290253D01*
X189670044Y-73169991D01*
X202930919Y-73169991D01*
X204005926Y-74245000D01*
X204005926Y-74245000D01*
G37*
X204005926Y-74245000D02*
X188625164Y-74245000D01*
X189579912Y-73290253D01*
X189670044Y-73169991D01*
X202930919Y-73169991D01*
X204005926Y-74245000D01*
G36*
X180917197Y-65189278D02*
G01*
X180688570Y-65319157D01*
X180548108Y-65432089D01*
X181610000Y-66493981D01*
X182677194Y-65426786D01*
X182434606Y-65258183D01*
X182227593Y-65159000D01*
X184662611Y-65159000D01*
X183243786Y-66577826D01*
X183244138Y-66544185D01*
X183201992Y-66283970D01*
X183118994Y-66034470D01*
X182997175Y-65801450D01*
X182854838Y-65611181D01*
X180531560Y-67934459D01*
X180886235Y-68145887D01*
X181130711Y-68242682D01*
X181387520Y-68299145D01*
X181515322Y-68306290D01*
X181158661Y-68662951D01*
X181158657Y-68662953D01*
X180988302Y-68833309D01*
X180960846Y-68887195D01*
X180925297Y-68936124D01*
X180906609Y-68993641D01*
X180879150Y-69047531D01*
X180869688Y-69107274D01*
X180851001Y-69164785D01*
X180851001Y-69224749D01*
X180851000Y-69224755D01*
X180851000Y-70306883D01*
X180688569Y-70399157D01*
X180483649Y-70563918D01*
X180307706Y-70759321D01*
X180165269Y-70980342D01*
X180060000Y-71221292D01*
X179994608Y-71475973D01*
X179970778Y-71737834D01*
X179989120Y-72000135D01*
X180049163Y-72256130D01*
X180075901Y-72321001D01*
X175934188Y-72321001D01*
X173002986Y-69389800D01*
X175829444Y-69389800D01*
X175829450Y-69389799D01*
X175889413Y-69389799D01*
X175946926Y-69371112D01*
X176006668Y-69361650D01*
X176060559Y-69334190D01*
X176118073Y-69315504D01*
X176167001Y-69279956D01*
X176220890Y-69252497D01*
X176391245Y-69082143D01*
X176391247Y-69082139D01*
X178815553Y-66657834D01*
X179970778Y-66657834D01*
X179989120Y-66920135D01*
X180049163Y-67176130D01*
X180149362Y-67419232D01*
X180353282Y-67750699D01*
X181428981Y-66675000D01*
X180356927Y-65602946D01*
X180165269Y-65900342D01*
X180060000Y-66141292D01*
X179994608Y-66395973D01*
X179970778Y-66657834D01*
X178815553Y-66657834D01*
X180314388Y-65159000D01*
X180998613Y-65159000D01*
X180917197Y-65189278D01*
X180917197Y-65189278D01*
G37*
X180917197Y-65189278D02*
X180688570Y-65319157D01*
X180548108Y-65432089D01*
X181610000Y-66493981D01*
X182677194Y-65426786D01*
X182434606Y-65258183D01*
X182227593Y-65159000D01*
X184662611Y-65159000D01*
X183243786Y-66577826D01*
X183244138Y-66544185D01*
X183201992Y-66283970D01*
X183118994Y-66034470D01*
X182997175Y-65801450D01*
X182854838Y-65611181D01*
X180531560Y-67934459D01*
X180886235Y-68145887D01*
X181130711Y-68242682D01*
X181387520Y-68299145D01*
X181515322Y-68306290D01*
X181158661Y-68662951D01*
X181158657Y-68662953D01*
X180988302Y-68833309D01*
X180960846Y-68887195D01*
X180925297Y-68936124D01*
X180906609Y-68993641D01*
X180879150Y-69047531D01*
X180869688Y-69107274D01*
X180851001Y-69164785D01*
X180851001Y-69224749D01*
X180851000Y-69224755D01*
X180851000Y-70306883D01*
X180688569Y-70399157D01*
X180483649Y-70563918D01*
X180307706Y-70759321D01*
X180165269Y-70980342D01*
X180060000Y-71221292D01*
X179994608Y-71475973D01*
X179970778Y-71737834D01*
X179989120Y-72000135D01*
X180049163Y-72256130D01*
X180075901Y-72321001D01*
X175934188Y-72321001D01*
X173002986Y-69389800D01*
X175829444Y-69389800D01*
X175829450Y-69389799D01*
X175889413Y-69389799D01*
X175946926Y-69371112D01*
X176006668Y-69361650D01*
X176060559Y-69334190D01*
X176118073Y-69315504D01*
X176167001Y-69279956D01*
X176220890Y-69252497D01*
X176391245Y-69082143D01*
X176391247Y-69082139D01*
X178815553Y-66657834D01*
X179970778Y-66657834D01*
X179989120Y-66920135D01*
X180049163Y-67176130D01*
X180149362Y-67419232D01*
X180353282Y-67750699D01*
X181428981Y-66675000D01*
X180356927Y-65602946D01*
X180165269Y-65900342D01*
X180060000Y-66141292D01*
X179994608Y-66395973D01*
X179970778Y-66657834D01*
X178815553Y-66657834D01*
X180314388Y-65159000D01*
X180998613Y-65159000D01*
X180917197Y-65189278D01*
M02*
