G04 #@! TF.GenerationSoftware,KiCad,Pcbnew,5.99.0-unknown-072ea9a~86~ubuntu18.04.1*
G04 #@! TF.CreationDate,2019-09-18T00:12:09+01:00*
G04 #@! TF.ProjectId,mouse8,6d6f7573-6538-42e6-9b69-6361645f7063,rev?*
G04 #@! TF.SameCoordinates,Original*
G04 #@! TF.FileFunction,Legend,Top*
G04 #@! TF.FilePolarity,Positive*
%FSLAX46Y46*%
G04 Gerber Fmt 4.6, Leading zero omitted, Abs format (unit mm)*
G04 Created by KiCad (PCBNEW 5.99.0-unknown-072ea9a~86~ubuntu18.04.1) date 2019-09-18 00:12:09*
%MOMM*%
%LPD*%
G04 APERTURE LIST*
%ADD10C,0.050000*%
%ADD11C,0.120000*%
%ADD12C,0.150000*%
%ADD13C,0.254000*%
%ADD14C,0.200000*%
G04 APERTURE END LIST*
D10*
X205350000Y-63500000D02*
X170180000Y-63500000D01*
X211275000Y-65275000D02*
X205350000Y-63500000D01*
X211275000Y-65275000D02*
X211275000Y-67525000D01*
X242600000Y-71750000D02*
X246375000Y-75450000D01*
X239395000Y-71755000D02*
X242600000Y-71750000D01*
X239400000Y-70200000D02*
X239395000Y-71755000D01*
X232675000Y-67525000D02*
X239400000Y-70200000D01*
X211275000Y-67525000D02*
X232675000Y-67525000D01*
X239395000Y-107950000D02*
X177800000Y-107950000D01*
X246375000Y-75450000D02*
X246380000Y-99695000D01*
X239525000Y-99675000D02*
X246380000Y-99695000D01*
X239400000Y-101250000D02*
X239395000Y-107950000D01*
X239525000Y-96750000D02*
X239525000Y-99675000D01*
X235025000Y-101250000D02*
X239400000Y-101250000D01*
X235025000Y-101250000D02*
G75*
G02X239525000Y-96750000I0J4500000D01*
G01*
X159308800Y-70916800D02*
X159308800Y-73914000D01*
X171653200Y-70916800D02*
X159308800Y-70916800D01*
X171653200Y-73914000D02*
X171653200Y-70916800D01*
X159308800Y-73914000D02*
X171653200Y-73914000D01*
X154940000Y-80010000D02*
X179705000Y-80010000D01*
X181483000Y-90170000D02*
X181483000Y-81280000D01*
X197993000Y-90170000D02*
X181483000Y-90170000D01*
X197993000Y-81280000D02*
X197993000Y-90170000D01*
X181483000Y-81280000D02*
X197993000Y-81280000D01*
X177800000Y-106680000D02*
X177800000Y-107950000D01*
X152400000Y-106680000D02*
X177800000Y-106680000D01*
X170180000Y-64770000D02*
X152400000Y-64770000D01*
X170180000Y-63500000D02*
X170180000Y-64770000D01*
X154940000Y-91440000D02*
X154940000Y-90805000D01*
X179705000Y-91440000D02*
X179705000Y-90805000D01*
X179705000Y-80010000D02*
X179705000Y-90805000D01*
X154940000Y-90805000D02*
X154940000Y-80010000D01*
X179705000Y-91440000D02*
X154940000Y-91440000D01*
X152400000Y-106680000D02*
X152400000Y-64770000D01*
D11*
X207670000Y-93070000D02*
X209000000Y-93070000D01*
X207670000Y-94400000D02*
X207670000Y-93070000D01*
X207670000Y-95670000D02*
X210330000Y-95670000D01*
X210330000Y-95670000D02*
X210330000Y-95730000D01*
X207670000Y-95670000D02*
X207670000Y-95730000D01*
X207670000Y-95730000D02*
X210330000Y-95730000D01*
X206330000Y-92730000D02*
X205000000Y-92730000D01*
X206330000Y-91400000D02*
X206330000Y-92730000D01*
X206330000Y-90130000D02*
X203670000Y-90130000D01*
X203670000Y-90130000D02*
X203670000Y-87530000D01*
X206330000Y-90130000D02*
X206330000Y-87530000D01*
X206330000Y-87530000D02*
X203670000Y-87530000D01*
X204870000Y-99730000D02*
X204870000Y-98400000D01*
X206200000Y-99730000D02*
X204870000Y-99730000D01*
X207470000Y-99730000D02*
X207470000Y-97070000D01*
X207470000Y-97070000D02*
X210070000Y-97070000D01*
X207470000Y-99730000D02*
X210070000Y-99730000D01*
X210070000Y-99730000D02*
X210070000Y-97070000D01*
X213930000Y-102130000D02*
X212600000Y-102130000D01*
X213930000Y-100800000D02*
X213930000Y-102130000D01*
X213930000Y-99530000D02*
X211270000Y-99530000D01*
X211270000Y-99530000D02*
X211270000Y-96930000D01*
X213930000Y-99530000D02*
X213930000Y-96930000D01*
X213930000Y-96930000D02*
X211270000Y-96930000D01*
X211689564Y-83605000D02*
X210485436Y-83605000D01*
X211689564Y-85425000D02*
X210485436Y-85425000D01*
D12*
X216017000Y-80769000D02*
X214742000Y-80769000D01*
X226367000Y-80194000D02*
X225692000Y-80194000D01*
X226367000Y-90544000D02*
X225692000Y-90544000D01*
X216017000Y-90544000D02*
X216692000Y-90544000D01*
X216017000Y-80194000D02*
X216692000Y-80194000D01*
X216017000Y-90544000D02*
X216017000Y-89869000D01*
X226367000Y-90544000D02*
X226367000Y-89869000D01*
X226367000Y-80194000D02*
X226367000Y-80869000D01*
X216017000Y-80194000D02*
X216017000Y-80769000D01*
D11*
X199470000Y-79120000D02*
X200800000Y-79120000D01*
X199470000Y-80450000D02*
X199470000Y-79120000D01*
X199470000Y-81720000D02*
X202130000Y-81720000D01*
X202130000Y-81720000D02*
X202130000Y-81780000D01*
X199470000Y-81720000D02*
X199470000Y-81780000D01*
X199470000Y-81780000D02*
X202130000Y-81780000D01*
X172914000Y-102810000D02*
X174244000Y-102810000D01*
X172914000Y-104140000D02*
X172914000Y-102810000D01*
X172914000Y-105410000D02*
X175574000Y-105410000D01*
X175574000Y-105410000D02*
X175574000Y-105470000D01*
X172914000Y-105410000D02*
X172914000Y-105470000D01*
X172914000Y-105470000D02*
X175574000Y-105470000D01*
X209698000Y-105721564D02*
X209698000Y-104517436D01*
X207878000Y-105721564D02*
X207878000Y-104517436D01*
X202078000Y-74733564D02*
X202078000Y-73529436D01*
X200258000Y-74733564D02*
X200258000Y-73529436D01*
X165206000Y-66998436D02*
X165206000Y-68202564D01*
X167026000Y-66998436D02*
X167026000Y-68202564D01*
X172318000Y-66961936D02*
X172318000Y-68166064D01*
X174138000Y-66961936D02*
X174138000Y-68166064D01*
X207597936Y-102310000D02*
X208802064Y-102310000D01*
X207597936Y-100490000D02*
X208802064Y-100490000D01*
X185526000Y-65945936D02*
X185526000Y-67150064D01*
X187346000Y-65945936D02*
X187346000Y-67150064D01*
X162454000Y-68202564D02*
X162454000Y-66998436D01*
X160634000Y-68202564D02*
X160634000Y-66998436D01*
X170582000Y-68202564D02*
X170582000Y-66998436D01*
X168762000Y-68202564D02*
X168762000Y-66998436D01*
X212238000Y-105758064D02*
X212238000Y-104553936D01*
X210418000Y-105758064D02*
X210418000Y-104553936D01*
X177694000Y-68202564D02*
X177694000Y-66998436D01*
X175874000Y-68202564D02*
X175874000Y-66998436D01*
X212110000Y-88902064D02*
X212110000Y-87697936D01*
X210290000Y-88902064D02*
X210290000Y-87697936D01*
X212577064Y-78490000D02*
X211372936Y-78490000D01*
X212577064Y-80310000D02*
X211372936Y-80310000D01*
X214002064Y-92690000D02*
X212797936Y-92690000D01*
X214002064Y-94510000D02*
X212797936Y-94510000D01*
X194458000Y-76294064D02*
X194458000Y-75089936D01*
X192638000Y-76294064D02*
X192638000Y-75089936D01*
X197506000Y-76294064D02*
X197506000Y-75089936D01*
X195686000Y-76294064D02*
X195686000Y-75089936D01*
X230597936Y-90510000D02*
X231802064Y-90510000D01*
X230597936Y-88690000D02*
X231802064Y-88690000D01*
X223383936Y-96978000D02*
X224588064Y-96978000D01*
X223383936Y-95158000D02*
X224588064Y-95158000D01*
X199242000Y-104590436D02*
X199242000Y-105794564D01*
X201062000Y-104590436D02*
X201062000Y-105794564D01*
X220589936Y-75642000D02*
X221794064Y-75642000D01*
X220589936Y-73822000D02*
X221794064Y-73822000D01*
X218238064Y-95158000D02*
X217033936Y-95158000D01*
X218238064Y-96978000D02*
X217033936Y-96978000D01*
X207340000Y-88797936D02*
X207340000Y-90002064D01*
X209160000Y-88797936D02*
X209160000Y-90002064D01*
X194162000Y-104553936D02*
X194162000Y-105758064D01*
X195982000Y-104553936D02*
X195982000Y-105758064D01*
X217659000Y-97607000D02*
G75*
G03X217659000Y-102657000I0J-2525000D01*
G01*
X223909000Y-97607000D02*
G75*
G02X223909000Y-102657000I0J-2525000D01*
G01*
X223909000Y-97607000D02*
X217659000Y-97607000D01*
X223909000Y-102657000D02*
X217659000Y-102657000D01*
X229764000Y-83586000D02*
X229608000Y-83586000D01*
X232080000Y-83586000D02*
X231924000Y-83586000D01*
X229764163Y-86187130D02*
G75*
G02X229764000Y-84105039I1079837J1041130D01*
G01*
X231923837Y-86187130D02*
G75*
G03X231924000Y-84105039I-1079837J1041130D01*
G01*
X229765392Y-86818335D02*
G75*
G02X229608484Y-83586000I1078608J1672335D01*
G01*
X231922608Y-86818335D02*
G75*
G03X232079516Y-83586000I-1078608J1672335D01*
G01*
X196988000Y-98974000D02*
X194538000Y-98974000D01*
X195188000Y-102194000D02*
X196988000Y-102194000D01*
X200268000Y-101178000D02*
X202718000Y-101178000D01*
X202068000Y-97958000D02*
X200268000Y-97958000D01*
X199252000Y-96098000D02*
X201702000Y-96098000D01*
X201052000Y-92878000D02*
X199252000Y-92878000D01*
X199183999Y-87280001D02*
X199183999Y-89730001D01*
X202403999Y-89080001D02*
X202403999Y-87280001D01*
X186350000Y-95620000D02*
X186350000Y-98070000D01*
X189570000Y-97420000D02*
X189570000Y-95620000D01*
X211686064Y-81303000D02*
X210481936Y-81303000D01*
X211686064Y-83123000D02*
X210481936Y-83123000D01*
X230749936Y-79198000D02*
X231954064Y-79198000D01*
X230749936Y-77378000D02*
X231954064Y-77378000D01*
X228521744Y-76817191D02*
X229373191Y-75965744D01*
X227234809Y-75530256D02*
X228086256Y-74678809D01*
X226562256Y-72138809D02*
X225710809Y-72990256D01*
X227849191Y-73425744D02*
X226997744Y-74277191D01*
X186813436Y-77618000D02*
X188017564Y-77618000D01*
X186813436Y-75798000D02*
X188017564Y-75798000D01*
X233478064Y-80426000D02*
X232273936Y-80426000D01*
X233478064Y-82246000D02*
X232273936Y-82246000D01*
D12*
X184510000Y-78155000D02*
X184510000Y-65355000D01*
X178710000Y-78155000D02*
X184510000Y-78155000D01*
X178710000Y-65355000D02*
X178710000Y-78155000D01*
X184510000Y-65355000D02*
X178710000Y-65355000D01*
X180340000Y-69205000D02*
X182880000Y-69205000D01*
X180340000Y-70405000D02*
X180340000Y-69205000D01*
X182880000Y-70405000D02*
X180340000Y-70405000D01*
X182880000Y-69205000D02*
X182880000Y-70405000D01*
D13*
X196439270Y-79412000D02*
G75*
G03X196439270Y-79412000I-67270J0D01*
G01*
D14*
X197838000Y-81175000D02*
X181638000Y-81175000D01*
X197838000Y-90275000D02*
X197838000Y-81175000D01*
X181638000Y-90275000D02*
X197838000Y-90275000D01*
X181638000Y-81175000D02*
X181638000Y-90275000D01*
D12*
X178710000Y-93295000D02*
X178710000Y-106095000D01*
X184510000Y-93295000D02*
X178710000Y-93295000D01*
X184510000Y-106095000D02*
X184510000Y-93295000D01*
X178710000Y-106095000D02*
X184510000Y-106095000D01*
X182880000Y-102245000D02*
X180340000Y-102245000D01*
X182880000Y-101045000D02*
X182880000Y-102245000D01*
X180340000Y-101045000D02*
X182880000Y-101045000D01*
X180340000Y-102245000D02*
X180340000Y-101045000D01*
D11*
X208485000Y-74021000D02*
X207235000Y-74021000D01*
X208485000Y-75271000D02*
X208485000Y-74021000D01*
X204075000Y-83381000D02*
X204575000Y-83381000D01*
X204575000Y-83481000D02*
X204075000Y-83481000D01*
X204575000Y-83281000D02*
X204575000Y-83481000D01*
X204075000Y-83281000D02*
X204575000Y-83281000D01*
X204075000Y-81381000D02*
X204575000Y-81381000D01*
X204575000Y-81481000D02*
X204075000Y-81481000D01*
X204575000Y-81281000D02*
X204575000Y-81481000D01*
X204075000Y-81281000D02*
X204575000Y-81281000D01*
X204075000Y-79381000D02*
X204575000Y-79381000D01*
X204575000Y-79481000D02*
X204075000Y-79481000D01*
X204575000Y-79281000D02*
X204575000Y-79481000D01*
X204075000Y-79281000D02*
X204575000Y-79281000D01*
X204075000Y-77381000D02*
X204575000Y-77381000D01*
X204575000Y-77481000D02*
X204075000Y-77481000D01*
X204575000Y-77281000D02*
X204575000Y-77481000D01*
X204075000Y-77281000D02*
X204575000Y-77281000D01*
X205575000Y-86441000D02*
X205575000Y-85831000D01*
X206875000Y-86441000D02*
X206875000Y-85831000D01*
X205575000Y-74321000D02*
X205575000Y-74931000D01*
X206875000Y-74321000D02*
X206875000Y-74931000D01*
X207575000Y-83881000D02*
X208185000Y-83881000D01*
X207575000Y-85831000D02*
X207575000Y-83881000D01*
X204075000Y-85831000D02*
X207575000Y-85831000D01*
X204075000Y-74931000D02*
X204075000Y-85831000D01*
X207575000Y-74931000D02*
X204075000Y-74931000D01*
X207575000Y-76881000D02*
X207575000Y-74931000D01*
X208185000Y-76881000D02*
X207575000Y-76881000D01*
X208285000Y-76081000D02*
X208285000Y-75781000D01*
X208385000Y-75781000D02*
X208185000Y-75781000D01*
X208385000Y-76081000D02*
X208385000Y-75781000D01*
X208185000Y-76081000D02*
X208385000Y-76081000D01*
X208185000Y-86441000D02*
X208185000Y-74321000D01*
X203465000Y-86441000D02*
X208185000Y-86441000D01*
X203465000Y-74321000D02*
X203465000Y-86441000D01*
X208185000Y-74321000D02*
X203465000Y-74321000D01*
D12*
X158475000Y-78155000D02*
X158475000Y-65355000D01*
X152675000Y-78155000D02*
X158475000Y-78155000D01*
X152675000Y-65355000D02*
X152675000Y-78155000D01*
X158475000Y-65355000D02*
X152675000Y-65355000D01*
X154305000Y-69205000D02*
X156845000Y-69205000D01*
X154305000Y-70405000D02*
X154305000Y-69205000D01*
X156845000Y-70405000D02*
X154305000Y-70405000D01*
X156845000Y-69205000D02*
X156845000Y-70405000D01*
X173405000Y-74035000D02*
X160605000Y-74035000D01*
X173405000Y-79835000D02*
X173405000Y-74035000D01*
X160605000Y-79835000D02*
X173405000Y-79835000D01*
X160605000Y-74035000D02*
X160605000Y-79835000D01*
X164455000Y-78205000D02*
X164455000Y-75665000D01*
X165655000Y-78205000D02*
X164455000Y-78205000D01*
X165655000Y-75665000D02*
X165655000Y-78205000D01*
X164455000Y-75665000D02*
X165655000Y-75665000D01*
X152675000Y-93295000D02*
X152675000Y-106095000D01*
X158475000Y-93295000D02*
X152675000Y-93295000D01*
X158475000Y-106095000D02*
X158475000Y-93295000D01*
X152675000Y-106095000D02*
X158475000Y-106095000D01*
X156845000Y-102245000D02*
X154305000Y-102245000D01*
X156845000Y-101045000D02*
X156845000Y-102245000D01*
X154305000Y-101045000D02*
X156845000Y-101045000D01*
X154305000Y-102245000D02*
X154305000Y-101045000D01*
X208666666Y-91522380D02*
X208666666Y-92236666D01*
X208619047Y-92379523D01*
X208523809Y-92474761D01*
X208380952Y-92522380D01*
X208285714Y-92522380D01*
X209571428Y-91522380D02*
X209380952Y-91522380D01*
X209285714Y-91570000D01*
X209238095Y-91617619D01*
X209142857Y-91760476D01*
X209095238Y-91950952D01*
X209095238Y-92331904D01*
X209142857Y-92427142D01*
X209190476Y-92474761D01*
X209285714Y-92522380D01*
X209476190Y-92522380D01*
X209571428Y-92474761D01*
X209619047Y-92427142D01*
X209666666Y-92331904D01*
X209666666Y-92093809D01*
X209619047Y-91998571D01*
X209571428Y-91950952D01*
X209476190Y-91903333D01*
X209285714Y-91903333D01*
X209190476Y-91950952D01*
X209142857Y-91998571D01*
X209095238Y-92093809D01*
X204666666Y-93182380D02*
X204666666Y-93896666D01*
X204619047Y-94039523D01*
X204523809Y-94134761D01*
X204380952Y-94182380D01*
X204285714Y-94182380D01*
X205047619Y-93182380D02*
X205714285Y-93182380D01*
X205285714Y-94182380D01*
X203322380Y-98733333D02*
X204036666Y-98733333D01*
X204179523Y-98780952D01*
X204274761Y-98876190D01*
X204322380Y-99019047D01*
X204322380Y-99114285D01*
X203750952Y-98114285D02*
X203703333Y-98209523D01*
X203655714Y-98257142D01*
X203560476Y-98304761D01*
X203512857Y-98304761D01*
X203417619Y-98257142D01*
X203370000Y-98209523D01*
X203322380Y-98114285D01*
X203322380Y-97923809D01*
X203370000Y-97828571D01*
X203417619Y-97780952D01*
X203512857Y-97733333D01*
X203560476Y-97733333D01*
X203655714Y-97780952D01*
X203703333Y-97828571D01*
X203750952Y-97923809D01*
X203750952Y-98114285D01*
X203798571Y-98209523D01*
X203846190Y-98257142D01*
X203941428Y-98304761D01*
X204131904Y-98304761D01*
X204227142Y-98257142D01*
X204274761Y-98209523D01*
X204322380Y-98114285D01*
X204322380Y-97923809D01*
X204274761Y-97828571D01*
X204227142Y-97780952D01*
X204131904Y-97733333D01*
X203941428Y-97733333D01*
X203846190Y-97780952D01*
X203798571Y-97828571D01*
X203750952Y-97923809D01*
X212266666Y-102582380D02*
X212266666Y-103296666D01*
X212219047Y-103439523D01*
X212123809Y-103534761D01*
X211980952Y-103582380D01*
X211885714Y-103582380D01*
X212790476Y-103582380D02*
X212980952Y-103582380D01*
X213076190Y-103534761D01*
X213123809Y-103487142D01*
X213219047Y-103344285D01*
X213266666Y-103153809D01*
X213266666Y-102772857D01*
X213219047Y-102677619D01*
X213171428Y-102630000D01*
X213076190Y-102582380D01*
X212885714Y-102582380D01*
X212790476Y-102630000D01*
X212742857Y-102677619D01*
X212695238Y-102772857D01*
X212695238Y-103010952D01*
X212742857Y-103106190D01*
X212790476Y-103153809D01*
X212885714Y-103201428D01*
X213076190Y-103201428D01*
X213171428Y-103153809D01*
X213219047Y-103106190D01*
X213266666Y-103010952D01*
X210459333Y-86864380D02*
X210126000Y-86388190D01*
X209887904Y-86864380D02*
X209887904Y-85864380D01*
X210268857Y-85864380D01*
X210364095Y-85912000D01*
X210411714Y-85959619D01*
X210459333Y-86054857D01*
X210459333Y-86197714D01*
X210411714Y-86292952D01*
X210364095Y-86340571D01*
X210268857Y-86388190D01*
X209887904Y-86388190D01*
X211316476Y-86197714D02*
X211316476Y-86864380D01*
X211078380Y-85816761D02*
X210840285Y-86531047D01*
X211459333Y-86531047D01*
X220430095Y-77371380D02*
X220430095Y-78180904D01*
X220477714Y-78276142D01*
X220525333Y-78323761D01*
X220620571Y-78371380D01*
X220811047Y-78371380D01*
X220906285Y-78323761D01*
X220953904Y-78276142D01*
X221001523Y-78180904D01*
X221001523Y-77371380D01*
X221430095Y-77466619D02*
X221477714Y-77419000D01*
X221572952Y-77371380D01*
X221811047Y-77371380D01*
X221906285Y-77419000D01*
X221953904Y-77466619D01*
X222001523Y-77561857D01*
X222001523Y-77657095D01*
X221953904Y-77799952D01*
X221382476Y-78371380D01*
X222001523Y-78371380D01*
X200466666Y-77572380D02*
X200466666Y-78286666D01*
X200419047Y-78429523D01*
X200323809Y-78524761D01*
X200180952Y-78572380D01*
X200085714Y-78572380D01*
X201371428Y-77905714D02*
X201371428Y-78572380D01*
X201133333Y-77524761D02*
X200895238Y-78239047D01*
X201514285Y-78239047D01*
X173910666Y-101262380D02*
X173910666Y-101976666D01*
X173863047Y-102119523D01*
X173767809Y-102214761D01*
X173624952Y-102262380D01*
X173529714Y-102262380D01*
X174291619Y-101262380D02*
X174910666Y-101262380D01*
X174577333Y-101643333D01*
X174720190Y-101643333D01*
X174815428Y-101690952D01*
X174863047Y-101738571D01*
X174910666Y-101833809D01*
X174910666Y-102071904D01*
X174863047Y-102167142D01*
X174815428Y-102214761D01*
X174720190Y-102262380D01*
X174434476Y-102262380D01*
X174339238Y-102214761D01*
X174291619Y-102167142D01*
X207420380Y-105762357D02*
X206944190Y-106095690D01*
X207420380Y-106333785D02*
X206420380Y-106333785D01*
X206420380Y-105952833D01*
X206468000Y-105857595D01*
X206515619Y-105809976D01*
X206610857Y-105762357D01*
X206753714Y-105762357D01*
X206848952Y-105809976D01*
X206896571Y-105857595D01*
X206944190Y-105952833D01*
X206944190Y-106333785D01*
X206515619Y-105381404D02*
X206468000Y-105333785D01*
X206420380Y-105238547D01*
X206420380Y-105000452D01*
X206468000Y-104905214D01*
X206515619Y-104857595D01*
X206610857Y-104809976D01*
X206706095Y-104809976D01*
X206848952Y-104857595D01*
X207420380Y-105429023D01*
X207420380Y-104809976D01*
X207420380Y-103857595D02*
X207420380Y-104429023D01*
X207420380Y-104143309D02*
X206420380Y-104143309D01*
X206563238Y-104238547D01*
X206658476Y-104333785D01*
X206706095Y-104429023D01*
X199800380Y-74774357D02*
X199324190Y-75107690D01*
X199800380Y-75345785D02*
X198800380Y-75345785D01*
X198800380Y-74964833D01*
X198848000Y-74869595D01*
X198895619Y-74821976D01*
X198990857Y-74774357D01*
X199133714Y-74774357D01*
X199228952Y-74821976D01*
X199276571Y-74869595D01*
X199324190Y-74964833D01*
X199324190Y-75345785D01*
X199800380Y-73821976D02*
X199800380Y-74393404D01*
X199800380Y-74107690D02*
X198800380Y-74107690D01*
X198943238Y-74202928D01*
X199038476Y-74298166D01*
X199086095Y-74393404D01*
X199800380Y-72869595D02*
X199800380Y-73441023D01*
X199800380Y-73155309D02*
X198800380Y-73155309D01*
X198943238Y-73250547D01*
X199038476Y-73345785D01*
X199086095Y-73441023D01*
X164714180Y-68892657D02*
X164237990Y-69225990D01*
X164714180Y-69464085D02*
X163714180Y-69464085D01*
X163714180Y-69083133D01*
X163761800Y-68987895D01*
X163809419Y-68940276D01*
X163904657Y-68892657D01*
X164047514Y-68892657D01*
X164142752Y-68940276D01*
X164190371Y-68987895D01*
X164237990Y-69083133D01*
X164237990Y-69464085D01*
X164714180Y-67940276D02*
X164714180Y-68511704D01*
X164714180Y-68225990D02*
X163714180Y-68225990D01*
X163857038Y-68321228D01*
X163952276Y-68416466D01*
X163999895Y-68511704D01*
X163809419Y-67559323D02*
X163761800Y-67511704D01*
X163714180Y-67416466D01*
X163714180Y-67178371D01*
X163761800Y-67083133D01*
X163809419Y-67035514D01*
X163904657Y-66987895D01*
X163999895Y-66987895D01*
X164142752Y-67035514D01*
X164714180Y-67606942D01*
X164714180Y-66987895D01*
X173680380Y-72270857D02*
X173204190Y-72604190D01*
X173680380Y-72842285D02*
X172680380Y-72842285D01*
X172680380Y-72461333D01*
X172728000Y-72366095D01*
X172775619Y-72318476D01*
X172870857Y-72270857D01*
X173013714Y-72270857D01*
X173108952Y-72318476D01*
X173156571Y-72366095D01*
X173204190Y-72461333D01*
X173204190Y-72842285D01*
X173680380Y-71318476D02*
X173680380Y-71889904D01*
X173680380Y-71604190D02*
X172680380Y-71604190D01*
X172823238Y-71699428D01*
X172918476Y-71794666D01*
X172966095Y-71889904D01*
X172680380Y-70985142D02*
X172680380Y-70366095D01*
X173061333Y-70699428D01*
X173061333Y-70556571D01*
X173108952Y-70461333D01*
X173156571Y-70413714D01*
X173251809Y-70366095D01*
X173489904Y-70366095D01*
X173585142Y-70413714D01*
X173632761Y-70461333D01*
X173680380Y-70556571D01*
X173680380Y-70842285D01*
X173632761Y-70937523D01*
X173585142Y-70985142D01*
X207557142Y-100032380D02*
X207223809Y-99556190D01*
X206985714Y-100032380D02*
X206985714Y-99032380D01*
X207366666Y-99032380D01*
X207461904Y-99080000D01*
X207509523Y-99127619D01*
X207557142Y-99222857D01*
X207557142Y-99365714D01*
X207509523Y-99460952D01*
X207461904Y-99508571D01*
X207366666Y-99556190D01*
X206985714Y-99556190D01*
X208509523Y-100032380D02*
X207938095Y-100032380D01*
X208223809Y-100032380D02*
X208223809Y-99032380D01*
X208128571Y-99175238D01*
X208033333Y-99270476D01*
X207938095Y-99318095D01*
X209366666Y-99365714D02*
X209366666Y-100032380D01*
X209128571Y-98984761D02*
X208890476Y-99699047D01*
X209509523Y-99699047D01*
X188708380Y-67190857D02*
X188232190Y-67524190D01*
X188708380Y-67762285D02*
X187708380Y-67762285D01*
X187708380Y-67381333D01*
X187756000Y-67286095D01*
X187803619Y-67238476D01*
X187898857Y-67190857D01*
X188041714Y-67190857D01*
X188136952Y-67238476D01*
X188184571Y-67286095D01*
X188232190Y-67381333D01*
X188232190Y-67762285D01*
X188708380Y-66238476D02*
X188708380Y-66809904D01*
X188708380Y-66524190D02*
X187708380Y-66524190D01*
X187851238Y-66619428D01*
X187946476Y-66714666D01*
X187994095Y-66809904D01*
X187708380Y-65333714D02*
X187708380Y-65809904D01*
X188184571Y-65857523D01*
X188136952Y-65809904D01*
X188089333Y-65714666D01*
X188089333Y-65476571D01*
X188136952Y-65381333D01*
X188184571Y-65333714D01*
X188279809Y-65286095D01*
X188517904Y-65286095D01*
X188613142Y-65333714D01*
X188660761Y-65381333D01*
X188708380Y-65476571D01*
X188708380Y-65714666D01*
X188660761Y-65809904D01*
X188613142Y-65857523D01*
X160269180Y-68243357D02*
X159792990Y-68576690D01*
X160269180Y-68814785D02*
X159269180Y-68814785D01*
X159269180Y-68433833D01*
X159316800Y-68338595D01*
X159364419Y-68290976D01*
X159459657Y-68243357D01*
X159602514Y-68243357D01*
X159697752Y-68290976D01*
X159745371Y-68338595D01*
X159792990Y-68433833D01*
X159792990Y-68814785D01*
X159364419Y-67862404D02*
X159316800Y-67814785D01*
X159269180Y-67719547D01*
X159269180Y-67481452D01*
X159316800Y-67386214D01*
X159364419Y-67338595D01*
X159459657Y-67290976D01*
X159554895Y-67290976D01*
X159697752Y-67338595D01*
X160269180Y-67910023D01*
X160269180Y-67290976D01*
X159364419Y-66910023D02*
X159316800Y-66862404D01*
X159269180Y-66767166D01*
X159269180Y-66529071D01*
X159316800Y-66433833D01*
X159364419Y-66386214D01*
X159459657Y-66338595D01*
X159554895Y-66338595D01*
X159697752Y-66386214D01*
X160269180Y-66957642D01*
X160269180Y-66338595D01*
X168574980Y-68308457D02*
X168098790Y-68641790D01*
X168574980Y-68879885D02*
X167574980Y-68879885D01*
X167574980Y-68498933D01*
X167622600Y-68403695D01*
X167670219Y-68356076D01*
X167765457Y-68308457D01*
X167908314Y-68308457D01*
X168003552Y-68356076D01*
X168051171Y-68403695D01*
X168098790Y-68498933D01*
X168098790Y-68879885D01*
X167670219Y-67927504D02*
X167622600Y-67879885D01*
X167574980Y-67784647D01*
X167574980Y-67546552D01*
X167622600Y-67451314D01*
X167670219Y-67403695D01*
X167765457Y-67356076D01*
X167860695Y-67356076D01*
X168003552Y-67403695D01*
X168574980Y-67975123D01*
X168574980Y-67356076D01*
X167574980Y-67022742D02*
X167574980Y-66403695D01*
X167955933Y-66737028D01*
X167955933Y-66594171D01*
X168003552Y-66498933D01*
X168051171Y-66451314D01*
X168146409Y-66403695D01*
X168384504Y-66403695D01*
X168479742Y-66451314D01*
X168527361Y-66498933D01*
X168574980Y-66594171D01*
X168574980Y-66879885D01*
X168527361Y-66975123D01*
X168479742Y-67022742D01*
X213812380Y-104782857D02*
X213336190Y-105116190D01*
X213812380Y-105354285D02*
X212812380Y-105354285D01*
X212812380Y-104973333D01*
X212860000Y-104878095D01*
X212907619Y-104830476D01*
X213002857Y-104782857D01*
X213145714Y-104782857D01*
X213240952Y-104830476D01*
X213288571Y-104878095D01*
X213336190Y-104973333D01*
X213336190Y-105354285D01*
X212907619Y-104401904D02*
X212860000Y-104354285D01*
X212812380Y-104259047D01*
X212812380Y-104020952D01*
X212860000Y-103925714D01*
X212907619Y-103878095D01*
X213002857Y-103830476D01*
X213098095Y-103830476D01*
X213240952Y-103878095D01*
X213812380Y-104449523D01*
X213812380Y-103830476D01*
X213145714Y-102973333D02*
X213812380Y-102973333D01*
X212764761Y-103211428D02*
X213479047Y-103449523D01*
X213479047Y-102830476D01*
X177744380Y-72270857D02*
X177268190Y-72604190D01*
X177744380Y-72842285D02*
X176744380Y-72842285D01*
X176744380Y-72461333D01*
X176792000Y-72366095D01*
X176839619Y-72318476D01*
X176934857Y-72270857D01*
X177077714Y-72270857D01*
X177172952Y-72318476D01*
X177220571Y-72366095D01*
X177268190Y-72461333D01*
X177268190Y-72842285D01*
X176839619Y-71889904D02*
X176792000Y-71842285D01*
X176744380Y-71747047D01*
X176744380Y-71508952D01*
X176792000Y-71413714D01*
X176839619Y-71366095D01*
X176934857Y-71318476D01*
X177030095Y-71318476D01*
X177172952Y-71366095D01*
X177744380Y-71937523D01*
X177744380Y-71318476D01*
X176744380Y-70413714D02*
X176744380Y-70889904D01*
X177220571Y-70937523D01*
X177172952Y-70889904D01*
X177125333Y-70794666D01*
X177125333Y-70556571D01*
X177172952Y-70461333D01*
X177220571Y-70413714D01*
X177315809Y-70366095D01*
X177553904Y-70366095D01*
X177649142Y-70413714D01*
X177696761Y-70461333D01*
X177744380Y-70556571D01*
X177744380Y-70794666D01*
X177696761Y-70889904D01*
X177649142Y-70937523D01*
X213589142Y-88466666D02*
X213636761Y-88514285D01*
X213684380Y-88657142D01*
X213684380Y-88752380D01*
X213636761Y-88895238D01*
X213541523Y-88990476D01*
X213446285Y-89038095D01*
X213255809Y-89085714D01*
X213112952Y-89085714D01*
X212922476Y-89038095D01*
X212827238Y-88990476D01*
X212732000Y-88895238D01*
X212684380Y-88752380D01*
X212684380Y-88657142D01*
X212732000Y-88514285D01*
X212779619Y-88466666D01*
X212684380Y-88133333D02*
X212684380Y-87466666D01*
X213684380Y-87895238D01*
X211808333Y-81577142D02*
X211760714Y-81624761D01*
X211617857Y-81672380D01*
X211522619Y-81672380D01*
X211379761Y-81624761D01*
X211284523Y-81529523D01*
X211236904Y-81434285D01*
X211189285Y-81243809D01*
X211189285Y-81100952D01*
X211236904Y-80910476D01*
X211284523Y-80815238D01*
X211379761Y-80720000D01*
X211522619Y-80672380D01*
X211617857Y-80672380D01*
X211760714Y-80720000D01*
X211808333Y-80767619D01*
X212713095Y-80672380D02*
X212236904Y-80672380D01*
X212189285Y-81148571D01*
X212236904Y-81100952D01*
X212332142Y-81053333D01*
X212570238Y-81053333D01*
X212665476Y-81100952D01*
X212713095Y-81148571D01*
X212760714Y-81243809D01*
X212760714Y-81481904D01*
X212713095Y-81577142D01*
X212665476Y-81624761D01*
X212570238Y-81672380D01*
X212332142Y-81672380D01*
X212236904Y-81624761D01*
X212189285Y-81577142D01*
X213233333Y-95777142D02*
X213185714Y-95824761D01*
X213042857Y-95872380D01*
X212947619Y-95872380D01*
X212804761Y-95824761D01*
X212709523Y-95729523D01*
X212661904Y-95634285D01*
X212614285Y-95443809D01*
X212614285Y-95300952D01*
X212661904Y-95110476D01*
X212709523Y-95015238D01*
X212804761Y-94920000D01*
X212947619Y-94872380D01*
X213042857Y-94872380D01*
X213185714Y-94920000D01*
X213233333Y-94967619D01*
X213804761Y-95300952D02*
X213709523Y-95253333D01*
X213661904Y-95205714D01*
X213614285Y-95110476D01*
X213614285Y-95062857D01*
X213661904Y-94967619D01*
X213709523Y-94920000D01*
X213804761Y-94872380D01*
X213995238Y-94872380D01*
X214090476Y-94920000D01*
X214138095Y-94967619D01*
X214185714Y-95062857D01*
X214185714Y-95110476D01*
X214138095Y-95205714D01*
X214090476Y-95253333D01*
X213995238Y-95300952D01*
X213804761Y-95300952D01*
X213709523Y-95348571D01*
X213661904Y-95396190D01*
X213614285Y-95491428D01*
X213614285Y-95681904D01*
X213661904Y-95777142D01*
X213709523Y-95824761D01*
X213804761Y-95872380D01*
X213995238Y-95872380D01*
X214090476Y-95824761D01*
X214138095Y-95777142D01*
X214185714Y-95681904D01*
X214185714Y-95491428D01*
X214138095Y-95396190D01*
X214090476Y-95348571D01*
X213995238Y-95300952D01*
X192085142Y-76366666D02*
X192132761Y-76414285D01*
X192180380Y-76557142D01*
X192180380Y-76652380D01*
X192132761Y-76795238D01*
X192037523Y-76890476D01*
X191942285Y-76938095D01*
X191751809Y-76985714D01*
X191608952Y-76985714D01*
X191418476Y-76938095D01*
X191323238Y-76890476D01*
X191228000Y-76795238D01*
X191180380Y-76652380D01*
X191180380Y-76557142D01*
X191228000Y-76414285D01*
X191275619Y-76366666D01*
X191180380Y-76033333D02*
X191180380Y-75414285D01*
X191561333Y-75747619D01*
X191561333Y-75604761D01*
X191608952Y-75509523D01*
X191656571Y-75461904D01*
X191751809Y-75414285D01*
X191989904Y-75414285D01*
X192085142Y-75461904D01*
X192132761Y-75509523D01*
X192180380Y-75604761D01*
X192180380Y-75890476D01*
X192132761Y-75985714D01*
X192085142Y-76033333D01*
X198985142Y-77382666D02*
X199032761Y-77430285D01*
X199080380Y-77573142D01*
X199080380Y-77668380D01*
X199032761Y-77811238D01*
X198937523Y-77906476D01*
X198842285Y-77954095D01*
X198651809Y-78001714D01*
X198508952Y-78001714D01*
X198318476Y-77954095D01*
X198223238Y-77906476D01*
X198128000Y-77811238D01*
X198080380Y-77668380D01*
X198080380Y-77573142D01*
X198128000Y-77430285D01*
X198175619Y-77382666D01*
X198413714Y-76525523D02*
X199080380Y-76525523D01*
X198032761Y-76763619D02*
X198747047Y-77001714D01*
X198747047Y-76382666D01*
X231033333Y-88137142D02*
X230985714Y-88184761D01*
X230842857Y-88232380D01*
X230747619Y-88232380D01*
X230604761Y-88184761D01*
X230509523Y-88089523D01*
X230461904Y-87994285D01*
X230414285Y-87803809D01*
X230414285Y-87660952D01*
X230461904Y-87470476D01*
X230509523Y-87375238D01*
X230604761Y-87280000D01*
X230747619Y-87232380D01*
X230842857Y-87232380D01*
X230985714Y-87280000D01*
X231033333Y-87327619D01*
X231509523Y-88232380D02*
X231700000Y-88232380D01*
X231795238Y-88184761D01*
X231842857Y-88137142D01*
X231938095Y-87994285D01*
X231985714Y-87803809D01*
X231985714Y-87422857D01*
X231938095Y-87327619D01*
X231890476Y-87280000D01*
X231795238Y-87232380D01*
X231604761Y-87232380D01*
X231509523Y-87280000D01*
X231461904Y-87327619D01*
X231414285Y-87422857D01*
X231414285Y-87660952D01*
X231461904Y-87756190D01*
X231509523Y-87803809D01*
X231604761Y-87851428D01*
X231795238Y-87851428D01*
X231890476Y-87803809D01*
X231938095Y-87756190D01*
X231985714Y-87660952D01*
X223819333Y-94605142D02*
X223771714Y-94652761D01*
X223628857Y-94700380D01*
X223533619Y-94700380D01*
X223390761Y-94652761D01*
X223295523Y-94557523D01*
X223247904Y-94462285D01*
X223200285Y-94271809D01*
X223200285Y-94128952D01*
X223247904Y-93938476D01*
X223295523Y-93843238D01*
X223390761Y-93748000D01*
X223533619Y-93700380D01*
X223628857Y-93700380D01*
X223771714Y-93748000D01*
X223819333Y-93795619D01*
X224771714Y-94700380D02*
X224200285Y-94700380D01*
X224486000Y-94700380D02*
X224486000Y-93700380D01*
X224390761Y-93843238D01*
X224295523Y-93938476D01*
X224200285Y-93986095D01*
X202329142Y-105835357D02*
X202376761Y-105882976D01*
X202424380Y-106025833D01*
X202424380Y-106121071D01*
X202376761Y-106263928D01*
X202281523Y-106359166D01*
X202186285Y-106406785D01*
X201995809Y-106454404D01*
X201852952Y-106454404D01*
X201662476Y-106406785D01*
X201567238Y-106359166D01*
X201472000Y-106263928D01*
X201424380Y-106121071D01*
X201424380Y-106025833D01*
X201472000Y-105882976D01*
X201519619Y-105835357D01*
X202424380Y-104882976D02*
X202424380Y-105454404D01*
X202424380Y-105168690D02*
X201424380Y-105168690D01*
X201567238Y-105263928D01*
X201662476Y-105359166D01*
X201710095Y-105454404D01*
X201519619Y-104502023D02*
X201472000Y-104454404D01*
X201424380Y-104359166D01*
X201424380Y-104121071D01*
X201472000Y-104025833D01*
X201519619Y-103978214D01*
X201614857Y-103930595D01*
X201710095Y-103930595D01*
X201852952Y-103978214D01*
X202424380Y-104549642D01*
X202424380Y-103930595D01*
X220517333Y-72041142D02*
X220469714Y-72088761D01*
X220326857Y-72136380D01*
X220231619Y-72136380D01*
X220088761Y-72088761D01*
X219993523Y-71993523D01*
X219945904Y-71898285D01*
X219898285Y-71707809D01*
X219898285Y-71564952D01*
X219945904Y-71374476D01*
X219993523Y-71279238D01*
X220088761Y-71184000D01*
X220231619Y-71136380D01*
X220326857Y-71136380D01*
X220469714Y-71184000D01*
X220517333Y-71231619D01*
X221374476Y-71136380D02*
X221184000Y-71136380D01*
X221088761Y-71184000D01*
X221041142Y-71231619D01*
X220945904Y-71374476D01*
X220898285Y-71564952D01*
X220898285Y-71945904D01*
X220945904Y-72041142D01*
X220993523Y-72088761D01*
X221088761Y-72136380D01*
X221279238Y-72136380D01*
X221374476Y-72088761D01*
X221422095Y-72041142D01*
X221469714Y-71945904D01*
X221469714Y-71707809D01*
X221422095Y-71612571D01*
X221374476Y-71564952D01*
X221279238Y-71517333D01*
X221088761Y-71517333D01*
X220993523Y-71564952D01*
X220945904Y-71612571D01*
X220898285Y-71707809D01*
X217469333Y-94901142D02*
X217421714Y-94948761D01*
X217278857Y-94996380D01*
X217183619Y-94996380D01*
X217040761Y-94948761D01*
X216945523Y-94853523D01*
X216897904Y-94758285D01*
X216850285Y-94567809D01*
X216850285Y-94424952D01*
X216897904Y-94234476D01*
X216945523Y-94139238D01*
X217040761Y-94044000D01*
X217183619Y-93996380D01*
X217278857Y-93996380D01*
X217421714Y-94044000D01*
X217469333Y-94091619D01*
X217850285Y-94091619D02*
X217897904Y-94044000D01*
X217993142Y-93996380D01*
X218231238Y-93996380D01*
X218326476Y-94044000D01*
X218374095Y-94091619D01*
X218421714Y-94186857D01*
X218421714Y-94282095D01*
X218374095Y-94424952D01*
X217802666Y-94996380D01*
X218421714Y-94996380D01*
X210427142Y-91530357D02*
X210474761Y-91577976D01*
X210522380Y-91720833D01*
X210522380Y-91816071D01*
X210474761Y-91958928D01*
X210379523Y-92054166D01*
X210284285Y-92101785D01*
X210093809Y-92149404D01*
X209950952Y-92149404D01*
X209760476Y-92101785D01*
X209665238Y-92054166D01*
X209570000Y-91958928D01*
X209522380Y-91816071D01*
X209522380Y-91720833D01*
X209570000Y-91577976D01*
X209617619Y-91530357D01*
X210522380Y-90577976D02*
X210522380Y-91149404D01*
X210522380Y-90863690D02*
X209522380Y-90863690D01*
X209665238Y-90958928D01*
X209760476Y-91054166D01*
X209808095Y-91149404D01*
X209522380Y-89958928D02*
X209522380Y-89863690D01*
X209570000Y-89768452D01*
X209617619Y-89720833D01*
X209712857Y-89673214D01*
X209903333Y-89625595D01*
X210141428Y-89625595D01*
X210331904Y-89673214D01*
X210427142Y-89720833D01*
X210474761Y-89768452D01*
X210522380Y-89863690D01*
X210522380Y-89958928D01*
X210474761Y-90054166D01*
X210427142Y-90101785D01*
X210331904Y-90149404D01*
X210141428Y-90197023D01*
X209903333Y-90197023D01*
X209712857Y-90149404D01*
X209617619Y-90101785D01*
X209570000Y-90054166D01*
X209522380Y-89958928D01*
X197249142Y-105798857D02*
X197296761Y-105846476D01*
X197344380Y-105989333D01*
X197344380Y-106084571D01*
X197296761Y-106227428D01*
X197201523Y-106322666D01*
X197106285Y-106370285D01*
X196915809Y-106417904D01*
X196772952Y-106417904D01*
X196582476Y-106370285D01*
X196487238Y-106322666D01*
X196392000Y-106227428D01*
X196344380Y-106084571D01*
X196344380Y-105989333D01*
X196392000Y-105846476D01*
X196439619Y-105798857D01*
X197344380Y-104846476D02*
X197344380Y-105417904D01*
X197344380Y-105132190D02*
X196344380Y-105132190D01*
X196487238Y-105227428D01*
X196582476Y-105322666D01*
X196630095Y-105417904D01*
X197344380Y-103894095D02*
X197344380Y-104465523D01*
X197344380Y-104179809D02*
X196344380Y-104179809D01*
X196487238Y-104275047D01*
X196582476Y-104370285D01*
X196630095Y-104465523D01*
X220307809Y-103633190D02*
X220307809Y-104109380D01*
X219974476Y-103109380D02*
X220307809Y-103633190D01*
X220641142Y-103109380D01*
X221498285Y-104109380D02*
X220926857Y-104109380D01*
X221212571Y-104109380D02*
X221212571Y-103109380D01*
X221117333Y-103252238D01*
X221022095Y-103347476D01*
X220926857Y-103395095D01*
X234256380Y-85884095D02*
X233256380Y-85884095D01*
X233256380Y-85646000D01*
X233304000Y-85503142D01*
X233399238Y-85407904D01*
X233494476Y-85360285D01*
X233684952Y-85312666D01*
X233827809Y-85312666D01*
X234018285Y-85360285D01*
X234113523Y-85407904D01*
X234208761Y-85503142D01*
X234256380Y-85646000D01*
X234256380Y-85884095D01*
X234256380Y-84360285D02*
X234256380Y-84931714D01*
X234256380Y-84646000D02*
X233256380Y-84646000D01*
X233399238Y-84741238D01*
X233494476Y-84836476D01*
X233542095Y-84931714D01*
X195326095Y-97652380D02*
X195326095Y-98461904D01*
X195373714Y-98557142D01*
X195421333Y-98604761D01*
X195516571Y-98652380D01*
X195707047Y-98652380D01*
X195802285Y-98604761D01*
X195849904Y-98557142D01*
X195897523Y-98461904D01*
X195897523Y-97652380D01*
X196802285Y-97985714D02*
X196802285Y-98652380D01*
X196564190Y-97604761D02*
X196326095Y-98319047D01*
X196945142Y-98319047D01*
X200406095Y-101560380D02*
X200406095Y-102369904D01*
X200453714Y-102465142D01*
X200501333Y-102512761D01*
X200596571Y-102560380D01*
X200787047Y-102560380D01*
X200882285Y-102512761D01*
X200929904Y-102465142D01*
X200977523Y-102369904D01*
X200977523Y-101560380D01*
X201929904Y-101560380D02*
X201453714Y-101560380D01*
X201406095Y-102036571D01*
X201453714Y-101988952D01*
X201548952Y-101941333D01*
X201787047Y-101941333D01*
X201882285Y-101988952D01*
X201929904Y-102036571D01*
X201977523Y-102131809D01*
X201977523Y-102369904D01*
X201929904Y-102465142D01*
X201882285Y-102512761D01*
X201787047Y-102560380D01*
X201548952Y-102560380D01*
X201453714Y-102512761D01*
X201406095Y-102465142D01*
X199390095Y-96052380D02*
X199390095Y-96861904D01*
X199437714Y-96957142D01*
X199485333Y-97004761D01*
X199580571Y-97052380D01*
X199771047Y-97052380D01*
X199866285Y-97004761D01*
X199913904Y-96957142D01*
X199961523Y-96861904D01*
X199961523Y-96052380D01*
X200342476Y-96052380D02*
X201009142Y-96052380D01*
X200580571Y-97052380D01*
X198252380Y-88761904D02*
X199061904Y-88761904D01*
X199157142Y-88714285D01*
X199204761Y-88666666D01*
X199252380Y-88571428D01*
X199252380Y-88380952D01*
X199204761Y-88285714D01*
X199157142Y-88238095D01*
X199061904Y-88190476D01*
X198252380Y-88190476D01*
X198680952Y-87571428D02*
X198633333Y-87666666D01*
X198585714Y-87714285D01*
X198490476Y-87761904D01*
X198442857Y-87761904D01*
X198347619Y-87714285D01*
X198300000Y-87666666D01*
X198252380Y-87571428D01*
X198252380Y-87380952D01*
X198300000Y-87285714D01*
X198347619Y-87238095D01*
X198442857Y-87190476D01*
X198490476Y-87190476D01*
X198585714Y-87238095D01*
X198633333Y-87285714D01*
X198680952Y-87380952D01*
X198680952Y-87571428D01*
X198728571Y-87666666D01*
X198776190Y-87714285D01*
X198871428Y-87761904D01*
X199061904Y-87761904D01*
X199157142Y-87714285D01*
X199204761Y-87666666D01*
X199252380Y-87571428D01*
X199252380Y-87380952D01*
X199204761Y-87285714D01*
X199157142Y-87238095D01*
X199061904Y-87190476D01*
X198871428Y-87190476D01*
X198776190Y-87238095D01*
X198728571Y-87285714D01*
X198680952Y-87380952D01*
X184872380Y-97281904D02*
X185681904Y-97281904D01*
X185777142Y-97234285D01*
X185824761Y-97186666D01*
X185872380Y-97091428D01*
X185872380Y-96900952D01*
X185824761Y-96805714D01*
X185777142Y-96758095D01*
X185681904Y-96710476D01*
X184872380Y-96710476D01*
X185872380Y-96186666D02*
X185872380Y-95996190D01*
X185824761Y-95900952D01*
X185777142Y-95853333D01*
X185634285Y-95758095D01*
X185443809Y-95710476D01*
X185062857Y-95710476D01*
X184967619Y-95758095D01*
X184920000Y-95805714D01*
X184872380Y-95900952D01*
X184872380Y-96091428D01*
X184920000Y-96186666D01*
X184967619Y-96234285D01*
X185062857Y-96281904D01*
X185300952Y-96281904D01*
X185396190Y-96234285D01*
X185443809Y-96186666D01*
X185491428Y-96091428D01*
X185491428Y-95900952D01*
X185443809Y-95805714D01*
X185396190Y-95758095D01*
X185300952Y-95710476D01*
X214523333Y-82800380D02*
X214190000Y-82324190D01*
X213951904Y-82800380D02*
X213951904Y-81800380D01*
X214332857Y-81800380D01*
X214428095Y-81848000D01*
X214475714Y-81895619D01*
X214523333Y-81990857D01*
X214523333Y-82133714D01*
X214475714Y-82228952D01*
X214428095Y-82276571D01*
X214332857Y-82324190D01*
X213951904Y-82324190D01*
X214856666Y-81800380D02*
X215475714Y-81800380D01*
X215142380Y-82181333D01*
X215285238Y-82181333D01*
X215380476Y-82228952D01*
X215428095Y-82276571D01*
X215475714Y-82371809D01*
X215475714Y-82609904D01*
X215428095Y-82705142D01*
X215380476Y-82752761D01*
X215285238Y-82800380D01*
X214999523Y-82800380D01*
X214904285Y-82752761D01*
X214856666Y-82705142D01*
X232709333Y-76920380D02*
X232376000Y-76444190D01*
X232137904Y-76920380D02*
X232137904Y-75920380D01*
X232518857Y-75920380D01*
X232614095Y-75968000D01*
X232661714Y-76015619D01*
X232709333Y-76110857D01*
X232709333Y-76253714D01*
X232661714Y-76348952D01*
X232614095Y-76396571D01*
X232518857Y-76444190D01*
X232137904Y-76444190D01*
X233185523Y-76920380D02*
X233376000Y-76920380D01*
X233471238Y-76872761D01*
X233518857Y-76825142D01*
X233614095Y-76682285D01*
X233661714Y-76491809D01*
X233661714Y-76110857D01*
X233614095Y-76015619D01*
X233566476Y-75968000D01*
X233471238Y-75920380D01*
X233280761Y-75920380D01*
X233185523Y-75968000D01*
X233137904Y-76015619D01*
X233090285Y-76110857D01*
X233090285Y-76348952D01*
X233137904Y-76444190D01*
X233185523Y-76491809D01*
X233280761Y-76539428D01*
X233471238Y-76539428D01*
X233566476Y-76491809D01*
X233614095Y-76444190D01*
X233661714Y-76348952D01*
X225458030Y-72629732D02*
X224885610Y-72528717D01*
X225053969Y-73033793D02*
X224346862Y-72326687D01*
X224616236Y-72057312D01*
X224717251Y-72023641D01*
X224784595Y-72023641D01*
X224885610Y-72057312D01*
X224986625Y-72158328D01*
X225020297Y-72259343D01*
X225020297Y-72326687D01*
X224986625Y-72427702D01*
X224717251Y-72697076D01*
X225458030Y-71821610D02*
X225357015Y-71855282D01*
X225289671Y-71855282D01*
X225188656Y-71821610D01*
X225154984Y-71787938D01*
X225121312Y-71686923D01*
X225121312Y-71619580D01*
X225154984Y-71518564D01*
X225289671Y-71383877D01*
X225390687Y-71350206D01*
X225458030Y-71350206D01*
X225559045Y-71383877D01*
X225592717Y-71417549D01*
X225626389Y-71518564D01*
X225626389Y-71585908D01*
X225592717Y-71686923D01*
X225458030Y-71821610D01*
X225424358Y-71922625D01*
X225424358Y-71989969D01*
X225458030Y-72090984D01*
X225592717Y-72225671D01*
X225693732Y-72259343D01*
X225761076Y-72259343D01*
X225862091Y-72225671D01*
X225996778Y-72090984D01*
X226030450Y-71989969D01*
X226030450Y-71922625D01*
X225996778Y-71821610D01*
X225862091Y-71686923D01*
X225761076Y-71653251D01*
X225693732Y-71653251D01*
X225592717Y-71686923D01*
X230538030Y-76693732D02*
X229965610Y-76592717D01*
X230133969Y-77097793D02*
X229426862Y-76390687D01*
X229696236Y-76121312D01*
X229797251Y-76087641D01*
X229864595Y-76087641D01*
X229965610Y-76121312D01*
X230066625Y-76222328D01*
X230100297Y-76323343D01*
X230100297Y-76390687D01*
X230066625Y-76491702D01*
X229797251Y-76761076D01*
X230437015Y-75380534D02*
X230302328Y-75515221D01*
X230268656Y-75616236D01*
X230268656Y-75683580D01*
X230302328Y-75851938D01*
X230403343Y-76020297D01*
X230672717Y-76289671D01*
X230773732Y-76323343D01*
X230841076Y-76323343D01*
X230942091Y-76289671D01*
X231076778Y-76154984D01*
X231110450Y-76053969D01*
X231110450Y-75986625D01*
X231076778Y-75885610D01*
X230908419Y-75717251D01*
X230807404Y-75683580D01*
X230740061Y-75683580D01*
X230639045Y-75717251D01*
X230504358Y-75851938D01*
X230470687Y-75952954D01*
X230470687Y-76020297D01*
X230504358Y-76121312D01*
X187248833Y-75340380D02*
X186915500Y-74864190D01*
X186677404Y-75340380D02*
X186677404Y-74340380D01*
X187058357Y-74340380D01*
X187153595Y-74388000D01*
X187201214Y-74435619D01*
X187248833Y-74530857D01*
X187248833Y-74673714D01*
X187201214Y-74768952D01*
X187153595Y-74816571D01*
X187058357Y-74864190D01*
X186677404Y-74864190D01*
X188201214Y-75340380D02*
X187629785Y-75340380D01*
X187915500Y-75340380D02*
X187915500Y-74340380D01*
X187820261Y-74483238D01*
X187725023Y-74578476D01*
X187629785Y-74626095D01*
X232709333Y-83608380D02*
X232376000Y-83132190D01*
X232137904Y-83608380D02*
X232137904Y-82608380D01*
X232518857Y-82608380D01*
X232614095Y-82656000D01*
X232661714Y-82703619D01*
X232709333Y-82798857D01*
X232709333Y-82941714D01*
X232661714Y-83036952D01*
X232614095Y-83084571D01*
X232518857Y-83132190D01*
X232137904Y-83132190D01*
X233042666Y-82608380D02*
X233709333Y-82608380D01*
X233280761Y-83608380D01*
X180014761Y-73516904D02*
X180062380Y-73374047D01*
X180062380Y-73135952D01*
X180014761Y-73040714D01*
X179967142Y-72993095D01*
X179871904Y-72945476D01*
X179776666Y-72945476D01*
X179681428Y-72993095D01*
X179633809Y-73040714D01*
X179586190Y-73135952D01*
X179538571Y-73326428D01*
X179490952Y-73421666D01*
X179443333Y-73469285D01*
X179348095Y-73516904D01*
X179252857Y-73516904D01*
X179157619Y-73469285D01*
X179110000Y-73421666D01*
X179062380Y-73326428D01*
X179062380Y-73088333D01*
X179110000Y-72945476D01*
X179062380Y-72612142D02*
X180062380Y-72374047D01*
X179348095Y-72183571D01*
X180062380Y-71993095D01*
X179062380Y-71755000D01*
X179538571Y-71040714D02*
X179538571Y-71374047D01*
X180062380Y-71374047D02*
X179062380Y-71374047D01*
X179062380Y-70897857D01*
X180062380Y-69993095D02*
X180062380Y-70564523D01*
X180062380Y-70278809D02*
X179062380Y-70278809D01*
X179205238Y-70374047D01*
X179300476Y-70469285D01*
X179348095Y-70564523D01*
X183967142Y-66365476D02*
X184014761Y-66413095D01*
X184062380Y-66555952D01*
X184062380Y-66651190D01*
X184014761Y-66794047D01*
X183919523Y-66889285D01*
X183824285Y-66936904D01*
X183633809Y-66984523D01*
X183490952Y-66984523D01*
X183300476Y-66936904D01*
X183205238Y-66889285D01*
X183110000Y-66794047D01*
X183062380Y-66651190D01*
X183062380Y-66555952D01*
X183110000Y-66413095D01*
X183157619Y-66365476D01*
X184012380Y-72564523D02*
X183012380Y-72564523D01*
X184012380Y-71993095D01*
X183012380Y-71993095D01*
X183012380Y-71326428D02*
X183012380Y-71135952D01*
X183060000Y-71040714D01*
X183155238Y-70945476D01*
X183345714Y-70897857D01*
X183679047Y-70897857D01*
X183869523Y-70945476D01*
X183964761Y-71040714D01*
X184012380Y-71135952D01*
X184012380Y-71326428D01*
X183964761Y-71421666D01*
X183869523Y-71516904D01*
X183679047Y-71564523D01*
X183345714Y-71564523D01*
X183155238Y-71516904D01*
X183060000Y-71421666D01*
X183012380Y-71326428D01*
X184032380Y-77600714D02*
X183032380Y-77600714D01*
X184032380Y-77029285D01*
X183032380Y-77029285D01*
X183937142Y-75981666D02*
X183984761Y-76029285D01*
X184032380Y-76172142D01*
X184032380Y-76267380D01*
X183984761Y-76410238D01*
X183889523Y-76505476D01*
X183794285Y-76553095D01*
X183603809Y-76600714D01*
X183460952Y-76600714D01*
X183270476Y-76553095D01*
X183175238Y-76505476D01*
X183080000Y-76410238D01*
X183032380Y-76267380D01*
X183032380Y-76172142D01*
X183080000Y-76029285D01*
X183127619Y-75981666D01*
D13*
X187500380Y-84761523D02*
X187500380Y-85789619D01*
X187560857Y-85910571D01*
X187621333Y-85971047D01*
X187742285Y-86031523D01*
X187984190Y-86031523D01*
X188105142Y-85971047D01*
X188165619Y-85910571D01*
X188226095Y-85789619D01*
X188226095Y-84761523D01*
X189496095Y-86031523D02*
X188770380Y-86031523D01*
X189133238Y-86031523D02*
X189133238Y-84761523D01*
X189012285Y-84942952D01*
X188891333Y-85063904D01*
X188770380Y-85124380D01*
D12*
X184014761Y-101528333D02*
X184062380Y-101385476D01*
X184062380Y-101147380D01*
X184014761Y-101052142D01*
X183967142Y-101004523D01*
X183871904Y-100956904D01*
X183776666Y-100956904D01*
X183681428Y-101004523D01*
X183633809Y-101052142D01*
X183586190Y-101147380D01*
X183538571Y-101337857D01*
X183490952Y-101433095D01*
X183443333Y-101480714D01*
X183348095Y-101528333D01*
X183252857Y-101528333D01*
X183157619Y-101480714D01*
X183110000Y-101433095D01*
X183062380Y-101337857D01*
X183062380Y-101099761D01*
X183110000Y-100956904D01*
X183062380Y-100623571D02*
X184062380Y-100385476D01*
X183348095Y-100195000D01*
X184062380Y-100004523D01*
X183062380Y-99766428D01*
X183538571Y-99052142D02*
X183586190Y-98909285D01*
X183633809Y-98861666D01*
X183729047Y-98814047D01*
X183871904Y-98814047D01*
X183967142Y-98861666D01*
X184014761Y-98909285D01*
X184062380Y-99004523D01*
X184062380Y-99385476D01*
X183062380Y-99385476D01*
X183062380Y-99052142D01*
X183110000Y-98956904D01*
X183157619Y-98909285D01*
X183252857Y-98861666D01*
X183348095Y-98861666D01*
X183443333Y-98909285D01*
X183490952Y-98956904D01*
X183538571Y-99052142D01*
X183538571Y-99385476D01*
X184062380Y-97861666D02*
X184062380Y-98433095D01*
X184062380Y-98147380D02*
X183062380Y-98147380D01*
X183205238Y-98242619D01*
X183300476Y-98337857D01*
X183348095Y-98433095D01*
X179967142Y-104465476D02*
X180014761Y-104513095D01*
X180062380Y-104655952D01*
X180062380Y-104751190D01*
X180014761Y-104894047D01*
X179919523Y-104989285D01*
X179824285Y-105036904D01*
X179633809Y-105084523D01*
X179490952Y-105084523D01*
X179300476Y-105036904D01*
X179205238Y-104989285D01*
X179110000Y-104894047D01*
X179062380Y-104751190D01*
X179062380Y-104655952D01*
X179110000Y-104513095D01*
X179157619Y-104465476D01*
X180112380Y-100504523D02*
X179112380Y-100504523D01*
X180112380Y-99933095D01*
X179112380Y-99933095D01*
X179112380Y-99266428D02*
X179112380Y-99075952D01*
X179160000Y-98980714D01*
X179255238Y-98885476D01*
X179445714Y-98837857D01*
X179779047Y-98837857D01*
X179969523Y-98885476D01*
X180064761Y-98980714D01*
X180112380Y-99075952D01*
X180112380Y-99266428D01*
X180064761Y-99361666D01*
X179969523Y-99456904D01*
X179779047Y-99504523D01*
X179445714Y-99504523D01*
X179255238Y-99456904D01*
X179160000Y-99361666D01*
X179112380Y-99266428D01*
X180092380Y-95420714D02*
X179092380Y-95420714D01*
X180092380Y-94849285D01*
X179092380Y-94849285D01*
X179997142Y-93801666D02*
X180044761Y-93849285D01*
X180092380Y-93992142D01*
X180092380Y-94087380D01*
X180044761Y-94230238D01*
X179949523Y-94325476D01*
X179854285Y-94373095D01*
X179663809Y-94420714D01*
X179520952Y-94420714D01*
X179330476Y-94373095D01*
X179235238Y-94325476D01*
X179140000Y-94230238D01*
X179092380Y-94087380D01*
X179092380Y-93992142D01*
X179140000Y-93849285D01*
X179187619Y-93801666D01*
X164766666Y-102322380D02*
X164766666Y-103036666D01*
X164719047Y-103179523D01*
X164623809Y-103274761D01*
X164480952Y-103322380D01*
X164385714Y-103322380D01*
X165195238Y-102417619D02*
X165242857Y-102370000D01*
X165338095Y-102322380D01*
X165576190Y-102322380D01*
X165671428Y-102370000D01*
X165719047Y-102417619D01*
X165766666Y-102512857D01*
X165766666Y-102608095D01*
X165719047Y-102750952D01*
X165147619Y-103322380D01*
X165766666Y-103322380D01*
X208727380Y-80714333D02*
X209441666Y-80714333D01*
X209584523Y-80761952D01*
X209679761Y-80857190D01*
X209727380Y-81000047D01*
X209727380Y-81095285D01*
X209727380Y-79714333D02*
X209727380Y-80285761D01*
X209727380Y-80000047D02*
X208727380Y-80000047D01*
X208870238Y-80095285D01*
X208965476Y-80190523D01*
X209013095Y-80285761D01*
X153979761Y-73588333D02*
X154027380Y-73445476D01*
X154027380Y-73207380D01*
X153979761Y-73112142D01*
X153932142Y-73064523D01*
X153836904Y-73016904D01*
X153741666Y-73016904D01*
X153646428Y-73064523D01*
X153598809Y-73112142D01*
X153551190Y-73207380D01*
X153503571Y-73397857D01*
X153455952Y-73493095D01*
X153408333Y-73540714D01*
X153313095Y-73588333D01*
X153217857Y-73588333D01*
X153122619Y-73540714D01*
X153075000Y-73493095D01*
X153027380Y-73397857D01*
X153027380Y-73159761D01*
X153075000Y-73016904D01*
X153027380Y-72683571D02*
X154027380Y-72445476D01*
X153313095Y-72255000D01*
X154027380Y-72064523D01*
X153027380Y-71826428D01*
X154027380Y-70874047D02*
X153551190Y-71207380D01*
X154027380Y-71445476D02*
X153027380Y-71445476D01*
X153027380Y-71064523D01*
X153075000Y-70969285D01*
X153122619Y-70921666D01*
X153217857Y-70874047D01*
X153360714Y-70874047D01*
X153455952Y-70921666D01*
X153503571Y-70969285D01*
X153551190Y-71064523D01*
X153551190Y-71445476D01*
X154027380Y-69921666D02*
X154027380Y-70493095D01*
X154027380Y-70207380D02*
X153027380Y-70207380D01*
X153170238Y-70302619D01*
X153265476Y-70397857D01*
X153313095Y-70493095D01*
X157932142Y-66365476D02*
X157979761Y-66413095D01*
X158027380Y-66555952D01*
X158027380Y-66651190D01*
X157979761Y-66794047D01*
X157884523Y-66889285D01*
X157789285Y-66936904D01*
X157598809Y-66984523D01*
X157455952Y-66984523D01*
X157265476Y-66936904D01*
X157170238Y-66889285D01*
X157075000Y-66794047D01*
X157027380Y-66651190D01*
X157027380Y-66555952D01*
X157075000Y-66413095D01*
X157122619Y-66365476D01*
X157977380Y-72564523D02*
X156977380Y-72564523D01*
X157977380Y-71993095D01*
X156977380Y-71993095D01*
X156977380Y-71326428D02*
X156977380Y-71135952D01*
X157025000Y-71040714D01*
X157120238Y-70945476D01*
X157310714Y-70897857D01*
X157644047Y-70897857D01*
X157834523Y-70945476D01*
X157929761Y-71040714D01*
X157977380Y-71135952D01*
X157977380Y-71326428D01*
X157929761Y-71421666D01*
X157834523Y-71516904D01*
X157644047Y-71564523D01*
X157310714Y-71564523D01*
X157120238Y-71516904D01*
X157025000Y-71421666D01*
X156977380Y-71326428D01*
X157997380Y-77600714D02*
X156997380Y-77600714D01*
X157997380Y-77029285D01*
X156997380Y-77029285D01*
X157902142Y-75981666D02*
X157949761Y-76029285D01*
X157997380Y-76172142D01*
X157997380Y-76267380D01*
X157949761Y-76410238D01*
X157854523Y-76505476D01*
X157759285Y-76553095D01*
X157568809Y-76600714D01*
X157425952Y-76600714D01*
X157235476Y-76553095D01*
X157140238Y-76505476D01*
X157045000Y-76410238D01*
X156997380Y-76267380D01*
X156997380Y-76172142D01*
X157045000Y-76029285D01*
X157092619Y-75981666D01*
X165100238Y-79339761D02*
X165243095Y-79387380D01*
X165481190Y-79387380D01*
X165576428Y-79339761D01*
X165624047Y-79292142D01*
X165671666Y-79196904D01*
X165671666Y-79101666D01*
X165624047Y-79006428D01*
X165576428Y-78958809D01*
X165481190Y-78911190D01*
X165290714Y-78863571D01*
X165195476Y-78815952D01*
X165147857Y-78768333D01*
X165100238Y-78673095D01*
X165100238Y-78577857D01*
X165147857Y-78482619D01*
X165195476Y-78435000D01*
X165290714Y-78387380D01*
X165528809Y-78387380D01*
X165671666Y-78435000D01*
X166005000Y-78387380D02*
X166243095Y-79387380D01*
X166433571Y-78673095D01*
X166624047Y-79387380D01*
X166862142Y-78387380D01*
X167243095Y-79387380D02*
X167243095Y-78387380D01*
X167576428Y-79101666D01*
X167909761Y-78387380D01*
X167909761Y-79387380D01*
X168909761Y-79387380D02*
X168338333Y-79387380D01*
X168624047Y-79387380D02*
X168624047Y-78387380D01*
X168528809Y-78530238D01*
X168433571Y-78625476D01*
X168338333Y-78673095D01*
X166195476Y-75437380D02*
X166195476Y-74437380D01*
X166766904Y-75437380D01*
X166766904Y-74437380D01*
X167433571Y-74437380D02*
X167624047Y-74437380D01*
X167719285Y-74485000D01*
X167814523Y-74580238D01*
X167862142Y-74770714D01*
X167862142Y-75104047D01*
X167814523Y-75294523D01*
X167719285Y-75389761D01*
X167624047Y-75437380D01*
X167433571Y-75437380D01*
X167338333Y-75389761D01*
X167243095Y-75294523D01*
X167195476Y-75104047D01*
X167195476Y-74770714D01*
X167243095Y-74580238D01*
X167338333Y-74485000D01*
X167433571Y-74437380D01*
X171279285Y-75417380D02*
X171279285Y-74417380D01*
X171850714Y-75417380D01*
X171850714Y-74417380D01*
X172898333Y-75322142D02*
X172850714Y-75369761D01*
X172707857Y-75417380D01*
X172612619Y-75417380D01*
X172469761Y-75369761D01*
X172374523Y-75274523D01*
X172326904Y-75179285D01*
X172279285Y-74988809D01*
X172279285Y-74845952D01*
X172326904Y-74655476D01*
X172374523Y-74560238D01*
X172469761Y-74465000D01*
X172612619Y-74417380D01*
X172707857Y-74417380D01*
X172850714Y-74465000D01*
X172898333Y-74512619D01*
X157979761Y-101433095D02*
X158027380Y-101290238D01*
X158027380Y-101052142D01*
X157979761Y-100956904D01*
X157932142Y-100909285D01*
X157836904Y-100861666D01*
X157741666Y-100861666D01*
X157646428Y-100909285D01*
X157598809Y-100956904D01*
X157551190Y-101052142D01*
X157503571Y-101242619D01*
X157455952Y-101337857D01*
X157408333Y-101385476D01*
X157313095Y-101433095D01*
X157217857Y-101433095D01*
X157122619Y-101385476D01*
X157075000Y-101337857D01*
X157027380Y-101242619D01*
X157027380Y-101004523D01*
X157075000Y-100861666D01*
X157027380Y-100528333D02*
X158027380Y-100290238D01*
X157313095Y-100099761D01*
X158027380Y-99909285D01*
X157027380Y-99671190D01*
X158027380Y-98814047D02*
X158027380Y-99290238D01*
X157027380Y-99290238D01*
X158027380Y-97956904D02*
X158027380Y-98528333D01*
X158027380Y-98242619D02*
X157027380Y-98242619D01*
X157170238Y-98337857D01*
X157265476Y-98433095D01*
X157313095Y-98528333D01*
X153932142Y-104465476D02*
X153979761Y-104513095D01*
X154027380Y-104655952D01*
X154027380Y-104751190D01*
X153979761Y-104894047D01*
X153884523Y-104989285D01*
X153789285Y-105036904D01*
X153598809Y-105084523D01*
X153455952Y-105084523D01*
X153265476Y-105036904D01*
X153170238Y-104989285D01*
X153075000Y-104894047D01*
X153027380Y-104751190D01*
X153027380Y-104655952D01*
X153075000Y-104513095D01*
X153122619Y-104465476D01*
X154077380Y-100504523D02*
X153077380Y-100504523D01*
X154077380Y-99933095D01*
X153077380Y-99933095D01*
X153077380Y-99266428D02*
X153077380Y-99075952D01*
X153125000Y-98980714D01*
X153220238Y-98885476D01*
X153410714Y-98837857D01*
X153744047Y-98837857D01*
X153934523Y-98885476D01*
X154029761Y-98980714D01*
X154077380Y-99075952D01*
X154077380Y-99266428D01*
X154029761Y-99361666D01*
X153934523Y-99456904D01*
X153744047Y-99504523D01*
X153410714Y-99504523D01*
X153220238Y-99456904D01*
X153125000Y-99361666D01*
X153077380Y-99266428D01*
X154057380Y-95420714D02*
X153057380Y-95420714D01*
X154057380Y-94849285D01*
X153057380Y-94849285D01*
X153962142Y-93801666D02*
X154009761Y-93849285D01*
X154057380Y-93992142D01*
X154057380Y-94087380D01*
X154009761Y-94230238D01*
X153914523Y-94325476D01*
X153819285Y-94373095D01*
X153628809Y-94420714D01*
X153485952Y-94420714D01*
X153295476Y-94373095D01*
X153200238Y-94325476D01*
X153105000Y-94230238D01*
X153057380Y-94087380D01*
X153057380Y-93992142D01*
X153105000Y-93849285D01*
X153152619Y-93801666D01*
M02*
