G04 #@! TF.GenerationSoftware,KiCad,Pcbnew,5.99.0-unknown-072ea9a~86~ubuntu18.04.1*
G04 #@! TF.CreationDate,2019-09-18T00:12:09+01:00*
G04 #@! TF.ProjectId,mouse8,6d6f7573-6538-42e6-9b69-6361645f7063,rev?*
G04 #@! TF.SameCoordinates,Original*
G04 #@! TF.FileFunction,Soldermask,Bot*
G04 #@! TF.FilePolarity,Negative*
%FSLAX46Y46*%
G04 Gerber Fmt 4.6, Leading zero omitted, Abs format (unit mm)*
G04 Created by KiCad (PCBNEW 5.99.0-unknown-072ea9a~86~ubuntu18.04.1) date 2019-09-18 00:12:09*
%MOMM*%
%LPD*%
G04 APERTURE LIST*
%ADD10C,0.050000*%
%ADD11C,0.100000*%
G04 APERTURE END LIST*
D10*
X205350000Y-63500000D02*
X170180000Y-63500000D01*
X211275000Y-65275000D02*
X205350000Y-63500000D01*
X211275000Y-65275000D02*
X211275000Y-67525000D01*
X242600000Y-71750000D02*
X246375000Y-75450000D01*
X239395000Y-71755000D02*
X242600000Y-71750000D01*
X239400000Y-70200000D02*
X239395000Y-71755000D01*
X232675000Y-67525000D02*
X239400000Y-70200000D01*
X211275000Y-67525000D02*
X232675000Y-67525000D01*
X239395000Y-107950000D02*
X177800000Y-107950000D01*
X246375000Y-75450000D02*
X246380000Y-99695000D01*
X239525000Y-99675000D02*
X246380000Y-99695000D01*
X239400000Y-101250000D02*
X239395000Y-107950000D01*
X239525000Y-96750000D02*
X239525000Y-99675000D01*
X235025000Y-101250000D02*
X239400000Y-101250000D01*
X235025000Y-101250000D02*
G75*
G02X239525000Y-96750000I0J4500000D01*
G01*
X159308800Y-70916800D02*
X159308800Y-73914000D01*
X171653200Y-70916800D02*
X159308800Y-70916800D01*
X171653200Y-73914000D02*
X171653200Y-70916800D01*
X159308800Y-73914000D02*
X171653200Y-73914000D01*
X154940000Y-80010000D02*
X179705000Y-80010000D01*
X181483000Y-90170000D02*
X181483000Y-81280000D01*
X197993000Y-90170000D02*
X181483000Y-90170000D01*
X197993000Y-81280000D02*
X197993000Y-90170000D01*
X181483000Y-81280000D02*
X197993000Y-81280000D01*
X177800000Y-106680000D02*
X177800000Y-107950000D01*
X152400000Y-106680000D02*
X177800000Y-106680000D01*
X170180000Y-64770000D02*
X152400000Y-64770000D01*
X170180000Y-63500000D02*
X170180000Y-64770000D01*
X154940000Y-91440000D02*
X154940000Y-90805000D01*
X179705000Y-91440000D02*
X179705000Y-90805000D01*
X179705000Y-80010000D02*
X179705000Y-90805000D01*
X154940000Y-90805000D02*
X154940000Y-80010000D01*
X179705000Y-91440000D02*
X154940000Y-91440000D01*
X152400000Y-106680000D02*
X152400000Y-64770000D01*
D11*
G36*
X181669591Y-103724345D02*
G01*
X181720391Y-103724700D01*
X181771051Y-103735099D01*
X181816828Y-103739951D01*
X181866287Y-103754648D01*
X181922293Y-103766145D01*
X181964069Y-103783706D01*
X182001981Y-103794972D01*
X182053722Y-103821392D01*
X182112300Y-103846016D01*
X182144564Y-103867779D01*
X182174015Y-103882817D01*
X182225254Y-103922205D01*
X182283174Y-103961273D01*
X182306070Y-103984330D01*
X182327158Y-104000540D01*
X182374764Y-104053504D01*
X182428407Y-104107523D01*
X182442831Y-104129233D01*
X182456284Y-104144200D01*
X182496922Y-104210646D01*
X182542468Y-104279198D01*
X182549950Y-104297350D01*
X182557065Y-104308984D01*
X182587378Y-104388158D01*
X182621011Y-104469758D01*
X182623572Y-104482693D01*
X182626132Y-104489379D01*
X182642931Y-104580461D01*
X182661045Y-104671944D01*
X182657757Y-104907363D01*
X182654234Y-104922869D01*
X182654069Y-104928973D01*
X182632745Y-105017453D01*
X182612094Y-105108352D01*
X182609358Y-105114497D01*
X182609199Y-105115157D01*
X182551914Y-105243518D01*
X182528261Y-105296645D01*
X182474257Y-105373200D01*
X182420932Y-105450643D01*
X182416520Y-105455048D01*
X182409451Y-105465068D01*
X182344969Y-105526474D01*
X182284227Y-105587109D01*
X182273742Y-105594302D01*
X182260191Y-105607206D01*
X182189960Y-105651776D01*
X182124942Y-105696378D01*
X182107400Y-105704170D01*
X182086165Y-105717646D01*
X182014347Y-105745503D01*
X181948410Y-105774791D01*
X181923446Y-105780761D01*
X181894002Y-105792182D01*
X181824304Y-105804471D01*
X181760543Y-105819720D01*
X181728438Y-105821375D01*
X181691022Y-105827972D01*
X181626608Y-105826623D01*
X181567641Y-105829662D01*
X181529342Y-105824586D01*
X181484955Y-105823656D01*
X181428223Y-105811183D01*
X181376152Y-105804281D01*
X181333267Y-105790306D01*
X181283652Y-105779397D01*
X181236265Y-105758694D01*
X181192498Y-105744431D01*
X181147176Y-105719772D01*
X181094779Y-105696880D01*
X181057565Y-105671016D01*
X181022825Y-105652114D01*
X180977703Y-105615510D01*
X180925530Y-105579249D01*
X180898502Y-105551260D01*
X180872814Y-105530422D01*
X180830877Y-105481233D01*
X180782353Y-105430985D01*
X180764751Y-105403672D01*
X180747495Y-105383432D01*
X180711942Y-105321728D01*
X180670701Y-105257734D01*
X180661105Y-105233498D01*
X180651060Y-105216064D01*
X180625127Y-105142628D01*
X180594826Y-105066096D01*
X180591282Y-105046785D01*
X180586739Y-105033921D01*
X180573546Y-104950152D01*
X180557619Y-104863371D01*
X180557803Y-104850188D01*
X180556689Y-104843114D01*
X180559196Y-104750460D01*
X180560497Y-104657279D01*
X180561895Y-104650703D01*
X180561913Y-104650026D01*
X180591406Y-104511863D01*
X180603350Y-104455672D01*
X180640226Y-104369635D01*
X180676315Y-104282722D01*
X180679718Y-104277492D01*
X180684546Y-104266227D01*
X180734828Y-104192791D01*
X180781658Y-104120818D01*
X180790423Y-104111598D01*
X180800992Y-104096162D01*
X180860409Y-104037977D01*
X180914745Y-103980818D01*
X180930286Y-103969547D01*
X180948253Y-103951953D01*
X181012701Y-103909780D01*
X181071118Y-103867415D01*
X181094301Y-103856382D01*
X181120720Y-103839094D01*
X181186316Y-103812591D01*
X181245532Y-103784410D01*
X181276596Y-103776116D01*
X181311823Y-103761883D01*
X181375128Y-103749807D01*
X181432159Y-103734579D01*
X181470663Y-103731582D01*
X181514284Y-103723261D01*
X181572370Y-103723667D01*
X181624735Y-103719591D01*
X181669591Y-103724345D01*
X181669591Y-103724345D01*
G37*
G36*
X155634591Y-103724345D02*
G01*
X155685391Y-103724700D01*
X155736051Y-103735099D01*
X155781828Y-103739951D01*
X155831287Y-103754648D01*
X155887293Y-103766145D01*
X155929069Y-103783706D01*
X155966981Y-103794972D01*
X156018722Y-103821392D01*
X156077300Y-103846016D01*
X156109564Y-103867779D01*
X156139015Y-103882817D01*
X156190254Y-103922205D01*
X156248174Y-103961273D01*
X156271070Y-103984330D01*
X156292158Y-104000540D01*
X156339764Y-104053504D01*
X156393407Y-104107523D01*
X156407831Y-104129233D01*
X156421284Y-104144200D01*
X156461922Y-104210646D01*
X156507468Y-104279198D01*
X156514950Y-104297350D01*
X156522065Y-104308984D01*
X156552378Y-104388158D01*
X156586011Y-104469758D01*
X156588572Y-104482693D01*
X156591132Y-104489379D01*
X156607931Y-104580461D01*
X156626045Y-104671944D01*
X156622757Y-104907363D01*
X156619234Y-104922869D01*
X156619069Y-104928973D01*
X156597745Y-105017453D01*
X156577094Y-105108352D01*
X156574358Y-105114497D01*
X156574199Y-105115157D01*
X156516914Y-105243518D01*
X156493261Y-105296645D01*
X156439257Y-105373200D01*
X156385932Y-105450643D01*
X156381520Y-105455048D01*
X156374451Y-105465068D01*
X156309969Y-105526474D01*
X156249227Y-105587109D01*
X156238742Y-105594302D01*
X156225191Y-105607206D01*
X156154960Y-105651776D01*
X156089942Y-105696378D01*
X156072400Y-105704170D01*
X156051165Y-105717646D01*
X155979347Y-105745503D01*
X155913410Y-105774791D01*
X155888446Y-105780761D01*
X155859002Y-105792182D01*
X155789304Y-105804471D01*
X155725543Y-105819720D01*
X155693438Y-105821375D01*
X155656022Y-105827972D01*
X155591608Y-105826623D01*
X155532641Y-105829662D01*
X155494342Y-105824586D01*
X155449955Y-105823656D01*
X155393223Y-105811183D01*
X155341152Y-105804281D01*
X155298267Y-105790306D01*
X155248652Y-105779397D01*
X155201265Y-105758694D01*
X155157498Y-105744431D01*
X155112176Y-105719772D01*
X155059779Y-105696880D01*
X155022565Y-105671016D01*
X154987825Y-105652114D01*
X154942703Y-105615510D01*
X154890530Y-105579249D01*
X154863502Y-105551260D01*
X154837814Y-105530422D01*
X154795877Y-105481233D01*
X154747353Y-105430985D01*
X154729751Y-105403672D01*
X154712495Y-105383432D01*
X154676942Y-105321728D01*
X154635701Y-105257734D01*
X154626105Y-105233498D01*
X154616060Y-105216064D01*
X154590127Y-105142628D01*
X154559826Y-105066096D01*
X154556282Y-105046785D01*
X154551739Y-105033921D01*
X154538546Y-104950152D01*
X154522619Y-104863371D01*
X154522803Y-104850188D01*
X154521689Y-104843114D01*
X154524196Y-104750460D01*
X154525497Y-104657279D01*
X154526895Y-104650703D01*
X154526913Y-104650026D01*
X154556406Y-104511863D01*
X154568350Y-104455672D01*
X154605226Y-104369635D01*
X154641315Y-104282722D01*
X154644718Y-104277492D01*
X154649546Y-104266227D01*
X154699828Y-104192791D01*
X154746658Y-104120818D01*
X154755423Y-104111598D01*
X154765992Y-104096162D01*
X154825409Y-104037977D01*
X154879745Y-103980818D01*
X154895286Y-103969547D01*
X154913253Y-103951953D01*
X154977701Y-103909780D01*
X155036118Y-103867415D01*
X155059301Y-103856382D01*
X155085720Y-103839094D01*
X155151316Y-103812591D01*
X155210532Y-103784410D01*
X155241596Y-103776116D01*
X155276823Y-103761883D01*
X155340128Y-103749807D01*
X155397159Y-103734579D01*
X155435663Y-103731582D01*
X155479284Y-103723261D01*
X155537370Y-103723667D01*
X155589735Y-103719591D01*
X155634591Y-103724345D01*
X155634591Y-103724345D01*
G37*
G36*
X175113899Y-103241959D02*
G01*
X175130769Y-103253231D01*
X175142041Y-103270101D01*
X175148448Y-103302312D01*
X175148448Y-104977688D01*
X175145999Y-104990000D01*
X175142041Y-105009899D01*
X175130769Y-105026769D01*
X175113899Y-105038041D01*
X175094000Y-105041999D01*
X175081688Y-105044448D01*
X173406312Y-105044448D01*
X173374101Y-105038041D01*
X173357231Y-105026769D01*
X173345959Y-105009899D01*
X173339552Y-104977688D01*
X173339552Y-103302312D01*
X173345959Y-103270101D01*
X173357231Y-103253231D01*
X173374101Y-103241959D01*
X173406312Y-103235552D01*
X175081688Y-103235552D01*
X175113899Y-103241959D01*
X175113899Y-103241959D01*
G37*
G36*
X213469899Y-99901959D02*
G01*
X213486769Y-99913231D01*
X213498041Y-99930101D01*
X213504448Y-99962312D01*
X213504448Y-101637688D01*
X213501999Y-101650000D01*
X213498041Y-101669899D01*
X213486769Y-101686769D01*
X213469899Y-101698041D01*
X213450000Y-101701999D01*
X213437688Y-101704448D01*
X211762312Y-101704448D01*
X211730101Y-101698041D01*
X211713231Y-101686769D01*
X211701959Y-101669899D01*
X211695552Y-101637688D01*
X211695552Y-99962312D01*
X211701959Y-99930101D01*
X211713231Y-99913231D01*
X211730101Y-99901959D01*
X211762312Y-99895552D01*
X213437688Y-99895552D01*
X213469899Y-99901959D01*
X213469899Y-99901959D01*
G37*
G36*
X218388308Y-99331245D02*
G01*
X218439442Y-99331602D01*
X218478208Y-99340695D01*
X218511453Y-99344189D01*
X218559075Y-99359662D01*
X218614397Y-99372638D01*
X218645102Y-99387614D01*
X218671593Y-99396221D01*
X218719718Y-99424006D01*
X218775913Y-99451414D01*
X218798132Y-99469278D01*
X218817407Y-99480407D01*
X218862743Y-99521227D01*
X218915962Y-99564017D01*
X218930159Y-99581929D01*
X218942539Y-99593076D01*
X218981535Y-99646749D01*
X219027584Y-99704849D01*
X219035015Y-99720360D01*
X219041506Y-99729293D01*
X219070540Y-99794504D01*
X219105232Y-99866911D01*
X219107789Y-99878167D01*
X219109991Y-99883112D01*
X219125645Y-99956759D01*
X219145045Y-100042148D01*
X219144968Y-100047667D01*
X219144999Y-100047813D01*
X219144999Y-100216187D01*
X219142446Y-100228197D01*
X219142223Y-100244183D01*
X219123781Y-100316008D01*
X219109991Y-100380888D01*
X219103217Y-100396103D01*
X219097533Y-100418240D01*
X219066321Y-100478972D01*
X219041506Y-100534707D01*
X219028422Y-100552716D01*
X219015391Y-100578071D01*
X218975205Y-100625963D01*
X218942539Y-100670924D01*
X218921839Y-100689563D01*
X218899880Y-100715732D01*
X218854622Y-100750085D01*
X218817407Y-100783593D01*
X218788451Y-100800311D01*
X218756741Y-100824380D01*
X218710177Y-100845502D01*
X218671593Y-100867779D01*
X218634500Y-100879831D01*
X218593089Y-100898616D01*
X218548541Y-100907761D01*
X218511453Y-100919811D01*
X218467153Y-100924467D01*
X218417056Y-100934751D01*
X218377250Y-100933917D01*
X218344000Y-100937412D01*
X218294196Y-100932177D01*
X218237392Y-100930987D01*
X218204244Y-100922722D01*
X218176547Y-100919811D01*
X218123704Y-100902641D01*
X218063027Y-100887513D01*
X218037578Y-100874658D01*
X218016407Y-100867779D01*
X217963572Y-100837274D01*
X217902627Y-100806489D01*
X217885017Y-100791921D01*
X217870593Y-100783593D01*
X217821302Y-100739211D01*
X217764163Y-100691942D01*
X217753667Y-100678313D01*
X217745461Y-100670924D01*
X217703501Y-100613171D01*
X217654518Y-100549565D01*
X217649677Y-100539088D01*
X217646494Y-100534707D01*
X217615854Y-100465890D01*
X217579141Y-100386435D01*
X217541779Y-100210658D01*
X217543001Y-100123143D01*
X217543001Y-100047813D01*
X217544127Y-100042516D01*
X217544288Y-100030973D01*
X217563170Y-99952926D01*
X217578009Y-99883112D01*
X217582500Y-99873026D01*
X217586544Y-99856309D01*
X217619514Y-99789891D01*
X217646494Y-99729293D01*
X217656283Y-99715820D01*
X217666446Y-99695346D01*
X217709604Y-99642430D01*
X217745461Y-99593076D01*
X217762004Y-99578181D01*
X217780024Y-99556086D01*
X217829298Y-99517589D01*
X217870593Y-99480407D01*
X217894713Y-99466481D01*
X217921632Y-99445450D01*
X217973039Y-99421260D01*
X218016407Y-99396221D01*
X218048203Y-99385890D01*
X218084232Y-99368936D01*
X218134183Y-99357954D01*
X218176547Y-99344189D01*
X218215331Y-99340112D01*
X218259743Y-99330348D01*
X218305209Y-99330665D01*
X218344000Y-99326588D01*
X218388308Y-99331245D01*
X218388308Y-99331245D01*
G37*
G36*
X223268308Y-99331245D02*
G01*
X223319442Y-99331602D01*
X223358208Y-99340695D01*
X223391453Y-99344189D01*
X223439075Y-99359662D01*
X223494397Y-99372638D01*
X223525102Y-99387614D01*
X223551593Y-99396221D01*
X223599718Y-99424006D01*
X223655913Y-99451414D01*
X223678132Y-99469278D01*
X223697407Y-99480407D01*
X223742743Y-99521227D01*
X223795962Y-99564017D01*
X223810159Y-99581929D01*
X223822539Y-99593076D01*
X223861535Y-99646749D01*
X223907584Y-99704849D01*
X223915015Y-99720360D01*
X223921506Y-99729293D01*
X223950540Y-99794504D01*
X223985232Y-99866911D01*
X223987789Y-99878167D01*
X223989991Y-99883112D01*
X224005645Y-99956759D01*
X224025045Y-100042148D01*
X224024968Y-100047667D01*
X224024999Y-100047813D01*
X224024999Y-100216187D01*
X224022446Y-100228197D01*
X224022223Y-100244183D01*
X224003781Y-100316008D01*
X223989991Y-100380888D01*
X223983217Y-100396103D01*
X223977533Y-100418240D01*
X223946321Y-100478972D01*
X223921506Y-100534707D01*
X223908422Y-100552716D01*
X223895391Y-100578071D01*
X223855205Y-100625963D01*
X223822539Y-100670924D01*
X223801839Y-100689563D01*
X223779880Y-100715732D01*
X223734622Y-100750085D01*
X223697407Y-100783593D01*
X223668451Y-100800311D01*
X223636741Y-100824380D01*
X223590177Y-100845502D01*
X223551593Y-100867779D01*
X223514500Y-100879831D01*
X223473089Y-100898616D01*
X223428541Y-100907761D01*
X223391453Y-100919811D01*
X223347153Y-100924467D01*
X223297056Y-100934751D01*
X223257250Y-100933917D01*
X223224000Y-100937412D01*
X223174196Y-100932177D01*
X223117392Y-100930987D01*
X223084244Y-100922722D01*
X223056547Y-100919811D01*
X223003704Y-100902641D01*
X222943027Y-100887513D01*
X222917578Y-100874658D01*
X222896407Y-100867779D01*
X222843572Y-100837274D01*
X222782627Y-100806489D01*
X222765017Y-100791921D01*
X222750593Y-100783593D01*
X222701302Y-100739211D01*
X222644163Y-100691942D01*
X222633667Y-100678313D01*
X222625461Y-100670924D01*
X222583501Y-100613171D01*
X222534518Y-100549565D01*
X222529677Y-100539088D01*
X222526494Y-100534707D01*
X222495854Y-100465890D01*
X222459141Y-100386435D01*
X222421779Y-100210658D01*
X222423001Y-100123143D01*
X222423001Y-100047813D01*
X222424127Y-100042516D01*
X222424288Y-100030973D01*
X222443170Y-99952926D01*
X222458009Y-99883112D01*
X222462500Y-99873026D01*
X222466544Y-99856309D01*
X222499514Y-99789891D01*
X222526494Y-99729293D01*
X222536283Y-99715820D01*
X222546446Y-99695346D01*
X222589604Y-99642430D01*
X222625461Y-99593076D01*
X222642004Y-99578181D01*
X222660024Y-99556086D01*
X222709298Y-99517589D01*
X222750593Y-99480407D01*
X222774713Y-99466481D01*
X222801632Y-99445450D01*
X222853039Y-99421260D01*
X222896407Y-99396221D01*
X222928203Y-99385890D01*
X222964232Y-99368936D01*
X223014183Y-99357954D01*
X223056547Y-99344189D01*
X223095331Y-99340112D01*
X223139743Y-99330348D01*
X223185209Y-99330665D01*
X223224000Y-99326588D01*
X223268308Y-99331245D01*
X223268308Y-99331245D01*
G37*
G36*
X181669591Y-98644345D02*
G01*
X181720391Y-98644700D01*
X181771051Y-98655099D01*
X181816828Y-98659951D01*
X181866287Y-98674648D01*
X181922293Y-98686145D01*
X181964069Y-98703706D01*
X182001981Y-98714972D01*
X182053722Y-98741392D01*
X182112300Y-98766016D01*
X182144564Y-98787779D01*
X182174015Y-98802817D01*
X182225254Y-98842205D01*
X182283174Y-98881273D01*
X182306070Y-98904330D01*
X182327158Y-98920540D01*
X182374764Y-98973504D01*
X182428407Y-99027523D01*
X182442831Y-99049233D01*
X182456284Y-99064200D01*
X182496922Y-99130646D01*
X182542468Y-99199198D01*
X182549950Y-99217350D01*
X182557065Y-99228984D01*
X182587378Y-99308158D01*
X182621011Y-99389758D01*
X182623572Y-99402693D01*
X182626132Y-99409379D01*
X182642931Y-99500461D01*
X182661045Y-99591944D01*
X182657757Y-99827363D01*
X182654234Y-99842869D01*
X182654069Y-99848973D01*
X182632745Y-99937453D01*
X182612094Y-100028352D01*
X182609358Y-100034497D01*
X182609199Y-100035157D01*
X182551914Y-100163518D01*
X182528261Y-100216645D01*
X182474257Y-100293200D01*
X182420932Y-100370643D01*
X182416520Y-100375048D01*
X182409451Y-100385068D01*
X182344969Y-100446474D01*
X182284227Y-100507109D01*
X182273742Y-100514302D01*
X182260191Y-100527206D01*
X182189960Y-100571776D01*
X182124942Y-100616378D01*
X182107400Y-100624170D01*
X182086165Y-100637646D01*
X182014347Y-100665503D01*
X181948410Y-100694791D01*
X181923446Y-100700761D01*
X181894002Y-100712182D01*
X181824304Y-100724471D01*
X181760543Y-100739720D01*
X181728438Y-100741375D01*
X181691022Y-100747972D01*
X181626608Y-100746623D01*
X181567641Y-100749662D01*
X181529342Y-100744586D01*
X181484955Y-100743656D01*
X181428223Y-100731183D01*
X181376152Y-100724281D01*
X181333267Y-100710306D01*
X181283652Y-100699397D01*
X181236265Y-100678694D01*
X181192498Y-100664431D01*
X181147176Y-100639772D01*
X181094779Y-100616880D01*
X181057565Y-100591016D01*
X181022825Y-100572114D01*
X180977703Y-100535510D01*
X180925530Y-100499249D01*
X180898502Y-100471260D01*
X180872814Y-100450422D01*
X180830877Y-100401233D01*
X180782353Y-100350985D01*
X180764751Y-100323672D01*
X180747495Y-100303432D01*
X180711942Y-100241728D01*
X180670701Y-100177734D01*
X180661105Y-100153498D01*
X180651060Y-100136064D01*
X180625127Y-100062628D01*
X180594826Y-99986096D01*
X180591282Y-99966785D01*
X180586739Y-99953921D01*
X180573546Y-99870152D01*
X180557619Y-99783371D01*
X180557803Y-99770188D01*
X180556689Y-99763114D01*
X180559196Y-99670460D01*
X180560497Y-99577279D01*
X180561895Y-99570703D01*
X180561913Y-99570026D01*
X180591406Y-99431863D01*
X180603350Y-99375672D01*
X180640226Y-99289635D01*
X180676315Y-99202722D01*
X180679718Y-99197492D01*
X180684546Y-99186227D01*
X180734828Y-99112791D01*
X180781658Y-99040818D01*
X180790423Y-99031598D01*
X180800992Y-99016162D01*
X180860409Y-98957977D01*
X180914745Y-98900818D01*
X180930286Y-98889547D01*
X180948253Y-98871953D01*
X181012701Y-98829780D01*
X181071118Y-98787415D01*
X181094301Y-98776382D01*
X181120720Y-98759094D01*
X181186316Y-98732591D01*
X181245532Y-98704410D01*
X181276596Y-98696116D01*
X181311823Y-98681883D01*
X181375128Y-98669807D01*
X181432159Y-98654579D01*
X181470663Y-98651582D01*
X181514284Y-98643261D01*
X181572370Y-98643667D01*
X181624735Y-98639591D01*
X181669591Y-98644345D01*
X181669591Y-98644345D01*
G37*
G36*
X155634591Y-98644345D02*
G01*
X155685391Y-98644700D01*
X155736051Y-98655099D01*
X155781828Y-98659951D01*
X155831287Y-98674648D01*
X155887293Y-98686145D01*
X155929069Y-98703706D01*
X155966981Y-98714972D01*
X156018722Y-98741392D01*
X156077300Y-98766016D01*
X156109564Y-98787779D01*
X156139015Y-98802817D01*
X156190254Y-98842205D01*
X156248174Y-98881273D01*
X156271070Y-98904330D01*
X156292158Y-98920540D01*
X156339764Y-98973504D01*
X156393407Y-99027523D01*
X156407831Y-99049233D01*
X156421284Y-99064200D01*
X156461922Y-99130646D01*
X156507468Y-99199198D01*
X156514950Y-99217350D01*
X156522065Y-99228984D01*
X156552378Y-99308158D01*
X156586011Y-99389758D01*
X156588572Y-99402693D01*
X156591132Y-99409379D01*
X156607931Y-99500461D01*
X156626045Y-99591944D01*
X156622757Y-99827363D01*
X156619234Y-99842869D01*
X156619069Y-99848973D01*
X156597745Y-99937453D01*
X156577094Y-100028352D01*
X156574358Y-100034497D01*
X156574199Y-100035157D01*
X156516914Y-100163518D01*
X156493261Y-100216645D01*
X156439257Y-100293200D01*
X156385932Y-100370643D01*
X156381520Y-100375048D01*
X156374451Y-100385068D01*
X156309969Y-100446474D01*
X156249227Y-100507109D01*
X156238742Y-100514302D01*
X156225191Y-100527206D01*
X156154960Y-100571776D01*
X156089942Y-100616378D01*
X156072400Y-100624170D01*
X156051165Y-100637646D01*
X155979347Y-100665503D01*
X155913410Y-100694791D01*
X155888446Y-100700761D01*
X155859002Y-100712182D01*
X155789304Y-100724471D01*
X155725543Y-100739720D01*
X155693438Y-100741375D01*
X155656022Y-100747972D01*
X155591608Y-100746623D01*
X155532641Y-100749662D01*
X155494342Y-100744586D01*
X155449955Y-100743656D01*
X155393223Y-100731183D01*
X155341152Y-100724281D01*
X155298267Y-100710306D01*
X155248652Y-100699397D01*
X155201265Y-100678694D01*
X155157498Y-100664431D01*
X155112176Y-100639772D01*
X155059779Y-100616880D01*
X155022565Y-100591016D01*
X154987825Y-100572114D01*
X154942703Y-100535510D01*
X154890530Y-100499249D01*
X154863502Y-100471260D01*
X154837814Y-100450422D01*
X154795877Y-100401233D01*
X154747353Y-100350985D01*
X154729751Y-100323672D01*
X154712495Y-100303432D01*
X154676942Y-100241728D01*
X154635701Y-100177734D01*
X154626105Y-100153498D01*
X154616060Y-100136064D01*
X154590127Y-100062628D01*
X154559826Y-99986096D01*
X154556282Y-99966785D01*
X154551739Y-99953921D01*
X154538546Y-99870152D01*
X154522619Y-99783371D01*
X154522803Y-99770188D01*
X154521689Y-99763114D01*
X154524196Y-99670460D01*
X154525497Y-99577279D01*
X154526895Y-99570703D01*
X154526913Y-99570026D01*
X154556406Y-99431863D01*
X154568350Y-99375672D01*
X154605226Y-99289635D01*
X154641315Y-99202722D01*
X154644718Y-99197492D01*
X154649546Y-99186227D01*
X154699828Y-99112791D01*
X154746658Y-99040818D01*
X154755423Y-99031598D01*
X154765992Y-99016162D01*
X154825409Y-98957977D01*
X154879745Y-98900818D01*
X154895286Y-98889547D01*
X154913253Y-98871953D01*
X154977701Y-98829780D01*
X155036118Y-98787415D01*
X155059301Y-98776382D01*
X155085720Y-98759094D01*
X155151316Y-98732591D01*
X155210532Y-98704410D01*
X155241596Y-98696116D01*
X155276823Y-98681883D01*
X155340128Y-98669807D01*
X155397159Y-98654579D01*
X155435663Y-98651582D01*
X155479284Y-98643261D01*
X155537370Y-98643667D01*
X155589735Y-98639591D01*
X155634591Y-98644345D01*
X155634591Y-98644345D01*
G37*
G36*
X170194870Y-97507503D02*
G01*
X170250587Y-97505557D01*
X170317861Y-97514056D01*
X170380350Y-97517385D01*
X170436239Y-97529010D01*
X170498205Y-97536838D01*
X170556838Y-97554095D01*
X170611387Y-97565441D01*
X170671309Y-97587785D01*
X170737637Y-97607307D01*
X170786700Y-97630814D01*
X170832485Y-97647887D01*
X170894355Y-97682394D01*
X170962722Y-97715150D01*
X171001870Y-97742359D01*
X171038580Y-97762833D01*
X171099992Y-97810555D01*
X171167669Y-97857592D01*
X171197117Y-97886029D01*
X171224905Y-97907623D01*
X171283181Y-97969140D01*
X171347207Y-98030969D01*
X171367690Y-98058349D01*
X171387196Y-98078940D01*
X171439539Y-98154391D01*
X171496715Y-98230821D01*
X171509424Y-98255130D01*
X171521703Y-98272831D01*
X171565241Y-98361900D01*
X171612347Y-98452005D01*
X171618868Y-98471606D01*
X171625330Y-98484827D01*
X171657204Y-98586849D01*
X171691129Y-98688831D01*
X171693351Y-98702547D01*
X171695703Y-98710077D01*
X171713218Y-98825216D01*
X171731033Y-98935207D01*
X171728079Y-99217248D01*
X171721707Y-99251966D01*
X171721166Y-99270197D01*
X171701162Y-99363910D01*
X171683024Y-99462734D01*
X171675639Y-99483474D01*
X171672281Y-99499204D01*
X171634978Y-99597664D01*
X171599300Y-99697859D01*
X171591956Y-99711218D01*
X171588676Y-99719875D01*
X171532486Y-99819393D01*
X171479061Y-99916573D01*
X171473852Y-99923240D01*
X171472659Y-99925353D01*
X171387525Y-100033734D01*
X171325400Y-100113249D01*
X171244204Y-100188438D01*
X171154728Y-100272314D01*
X171150477Y-100275230D01*
X171142271Y-100282829D01*
X171051065Y-100343426D01*
X170960132Y-100405806D01*
X170949346Y-100411009D01*
X170934386Y-100420948D01*
X170839597Y-100463946D01*
X170747593Y-100508324D01*
X170729603Y-100513841D01*
X170707091Y-100524053D01*
X170612529Y-100549745D01*
X170521988Y-100577512D01*
X170496633Y-100581234D01*
X170466237Y-100589492D01*
X170375124Y-100599068D01*
X170288513Y-100611781D01*
X170256058Y-100611583D01*
X170218018Y-100615581D01*
X170133077Y-100610832D01*
X170052537Y-100610340D01*
X170013732Y-100604159D01*
X169968820Y-100601648D01*
X169892188Y-100584799D01*
X169819503Y-100573222D01*
X169775572Y-100559160D01*
X169725056Y-100548053D01*
X169658282Y-100521615D01*
X169594751Y-100501279D01*
X169547318Y-100477681D01*
X169492997Y-100456174D01*
X169437052Y-100422824D01*
X169383481Y-100396173D01*
X169334562Y-100361729D01*
X169278612Y-100328376D01*
X169233850Y-100290816D01*
X169190537Y-100260319D01*
X169142434Y-100214109D01*
X169087418Y-100167945D01*
X169053622Y-100128792D01*
X169020359Y-100096838D01*
X168975609Y-100038413D01*
X168924333Y-99979009D01*
X168900758Y-99940688D01*
X168876869Y-99909499D01*
X168838132Y-99838891D01*
X168793554Y-99766430D01*
X168778980Y-99731071D01*
X168763367Y-99702612D01*
X168733347Y-99620357D01*
X168698444Y-99535676D01*
X168691254Y-99505023D01*
X168682464Y-99480937D01*
X168663818Y-99388049D01*
X168641451Y-99292684D01*
X168639727Y-99268029D01*
X168636023Y-99249577D01*
X168631300Y-99147527D01*
X168624040Y-99043705D01*
X168625668Y-99025820D01*
X168625114Y-99013855D01*
X168636738Y-98904177D01*
X168646661Y-98795146D01*
X168649442Y-98784316D01*
X168649985Y-98779190D01*
X168681189Y-98660668D01*
X168708731Y-98553401D01*
X168749091Y-98461021D01*
X168803971Y-98334502D01*
X168805264Y-98332445D01*
X168808652Y-98324690D01*
X168868740Y-98231452D01*
X168929542Y-98134713D01*
X168935595Y-98127713D01*
X168943855Y-98114896D01*
X169015058Y-98035817D01*
X169083893Y-97956212D01*
X169096124Y-97945785D01*
X169110861Y-97929417D01*
X169189191Y-97866438D01*
X169263465Y-97803114D01*
X169282935Y-97791065D01*
X169305373Y-97773025D01*
X169387267Y-97726503D01*
X169464129Y-97678939D01*
X169491484Y-97667299D01*
X169522387Y-97649744D01*
X169604567Y-97619182D01*
X169681259Y-97586549D01*
X169716685Y-97577486D01*
X169756320Y-97562746D01*
X169835882Y-97546992D01*
X169909877Y-97528062D01*
X169953059Y-97523790D01*
X170001153Y-97514267D01*
X170075594Y-97511668D01*
X170144709Y-97504830D01*
X170194870Y-97507503D01*
X170194870Y-97507503D01*
G37*
G36*
X160034870Y-97507503D02*
G01*
X160090587Y-97505557D01*
X160157861Y-97514056D01*
X160220350Y-97517385D01*
X160276239Y-97529010D01*
X160338205Y-97536838D01*
X160396838Y-97554095D01*
X160451387Y-97565441D01*
X160511309Y-97587785D01*
X160577637Y-97607307D01*
X160626700Y-97630814D01*
X160672485Y-97647887D01*
X160734355Y-97682394D01*
X160802722Y-97715150D01*
X160841870Y-97742359D01*
X160878580Y-97762833D01*
X160939992Y-97810555D01*
X161007669Y-97857592D01*
X161037117Y-97886029D01*
X161064905Y-97907623D01*
X161123181Y-97969140D01*
X161187207Y-98030969D01*
X161207690Y-98058349D01*
X161227196Y-98078940D01*
X161279539Y-98154391D01*
X161336715Y-98230821D01*
X161349424Y-98255130D01*
X161361703Y-98272831D01*
X161405241Y-98361900D01*
X161452347Y-98452005D01*
X161458868Y-98471606D01*
X161465330Y-98484827D01*
X161497204Y-98586849D01*
X161531129Y-98688831D01*
X161533351Y-98702547D01*
X161535703Y-98710077D01*
X161553218Y-98825216D01*
X161571033Y-98935207D01*
X161568079Y-99217248D01*
X161561707Y-99251966D01*
X161561166Y-99270197D01*
X161541162Y-99363910D01*
X161523024Y-99462734D01*
X161515639Y-99483474D01*
X161512281Y-99499204D01*
X161474978Y-99597664D01*
X161439300Y-99697859D01*
X161431956Y-99711218D01*
X161428676Y-99719875D01*
X161372486Y-99819393D01*
X161319061Y-99916573D01*
X161313852Y-99923240D01*
X161312659Y-99925353D01*
X161227525Y-100033734D01*
X161165400Y-100113249D01*
X161084204Y-100188438D01*
X160994728Y-100272314D01*
X160990477Y-100275230D01*
X160982271Y-100282829D01*
X160891065Y-100343426D01*
X160800132Y-100405806D01*
X160789346Y-100411009D01*
X160774386Y-100420948D01*
X160679597Y-100463946D01*
X160587593Y-100508324D01*
X160569603Y-100513841D01*
X160547091Y-100524053D01*
X160452529Y-100549745D01*
X160361988Y-100577512D01*
X160336633Y-100581234D01*
X160306237Y-100589492D01*
X160215124Y-100599068D01*
X160128513Y-100611781D01*
X160096058Y-100611583D01*
X160058018Y-100615581D01*
X159973077Y-100610832D01*
X159892537Y-100610340D01*
X159853732Y-100604159D01*
X159808820Y-100601648D01*
X159732188Y-100584799D01*
X159659503Y-100573222D01*
X159615572Y-100559160D01*
X159565056Y-100548053D01*
X159498282Y-100521615D01*
X159434751Y-100501279D01*
X159387318Y-100477681D01*
X159332997Y-100456174D01*
X159277052Y-100422824D01*
X159223481Y-100396173D01*
X159174562Y-100361729D01*
X159118612Y-100328376D01*
X159073850Y-100290816D01*
X159030537Y-100260319D01*
X158982434Y-100214109D01*
X158927418Y-100167945D01*
X158893622Y-100128792D01*
X158860359Y-100096838D01*
X158815609Y-100038413D01*
X158764333Y-99979009D01*
X158740758Y-99940688D01*
X158716869Y-99909499D01*
X158678132Y-99838891D01*
X158633554Y-99766430D01*
X158618980Y-99731071D01*
X158603367Y-99702612D01*
X158573347Y-99620357D01*
X158538444Y-99535676D01*
X158531254Y-99505023D01*
X158522464Y-99480937D01*
X158503818Y-99388049D01*
X158481451Y-99292684D01*
X158479727Y-99268029D01*
X158476023Y-99249577D01*
X158471300Y-99147527D01*
X158464040Y-99043705D01*
X158465668Y-99025820D01*
X158465114Y-99013855D01*
X158476738Y-98904177D01*
X158486661Y-98795146D01*
X158489442Y-98784316D01*
X158489985Y-98779190D01*
X158521189Y-98660668D01*
X158548731Y-98553401D01*
X158589091Y-98461021D01*
X158643971Y-98334502D01*
X158645264Y-98332445D01*
X158648652Y-98324690D01*
X158708740Y-98231452D01*
X158769542Y-98134713D01*
X158775595Y-98127713D01*
X158783855Y-98114896D01*
X158855058Y-98035817D01*
X158923893Y-97956212D01*
X158936124Y-97945785D01*
X158950861Y-97929417D01*
X159029191Y-97866438D01*
X159103465Y-97803114D01*
X159122935Y-97791065D01*
X159145373Y-97773025D01*
X159227267Y-97726503D01*
X159304129Y-97678939D01*
X159331484Y-97667299D01*
X159362387Y-97649744D01*
X159444567Y-97619182D01*
X159521259Y-97586549D01*
X159556685Y-97577486D01*
X159596320Y-97562746D01*
X159675882Y-97546992D01*
X159749877Y-97528062D01*
X159793059Y-97523790D01*
X159841153Y-97514267D01*
X159915594Y-97511668D01*
X159984709Y-97504830D01*
X160034870Y-97507503D01*
X160034870Y-97507503D01*
G37*
G36*
X207069899Y-97501959D02*
G01*
X207086769Y-97513231D01*
X207098041Y-97530101D01*
X207104448Y-97562312D01*
X207104448Y-99237688D01*
X207101999Y-99250000D01*
X207098041Y-99269899D01*
X207086769Y-99286769D01*
X207069899Y-99298041D01*
X207050000Y-99301999D01*
X207037688Y-99304448D01*
X205362312Y-99304448D01*
X205330101Y-99298041D01*
X205313231Y-99286769D01*
X205301959Y-99269899D01*
X205295552Y-99237688D01*
X205295552Y-97562312D01*
X205301959Y-97530101D01*
X205313231Y-97513231D01*
X205330101Y-97501959D01*
X205362312Y-97495552D01*
X207037688Y-97495552D01*
X207069899Y-97501959D01*
X207069899Y-97501959D01*
G37*
G36*
X208928360Y-97513835D02*
G01*
X209009397Y-97540166D01*
X209096663Y-97567848D01*
X209099655Y-97569493D01*
X209108488Y-97572363D01*
X209180466Y-97613919D01*
X209251499Y-97652970D01*
X209258986Y-97659253D01*
X209272511Y-97667061D01*
X209330259Y-97719057D01*
X209386857Y-97766549D01*
X209396962Y-97779118D01*
X209413261Y-97793793D01*
X209455454Y-97851867D01*
X209497579Y-97904260D01*
X209507994Y-97924182D01*
X209524586Y-97947019D01*
X209551297Y-98007012D01*
X209579439Y-98060843D01*
X209587582Y-98088510D01*
X209601621Y-98120042D01*
X209613992Y-98178241D01*
X209629328Y-98230349D01*
X209632518Y-98265401D01*
X209640999Y-98305301D01*
X209640999Y-98358592D01*
X209645343Y-98406324D01*
X209640999Y-98447653D01*
X209640999Y-98494699D01*
X209631217Y-98540721D01*
X209626873Y-98582047D01*
X209612702Y-98627827D01*
X209601621Y-98679958D01*
X209585028Y-98717226D01*
X209574622Y-98750843D01*
X209548789Y-98798620D01*
X209524586Y-98852981D01*
X209504298Y-98880905D01*
X209490580Y-98906276D01*
X209451859Y-98953082D01*
X209413261Y-99006207D01*
X209392284Y-99025095D01*
X209377952Y-99042419D01*
X209325845Y-99084917D01*
X209272511Y-99132939D01*
X209253524Y-99143901D01*
X209241025Y-99154095D01*
X209175780Y-99188786D01*
X209108488Y-99227637D01*
X209093636Y-99232463D01*
X209085003Y-99237053D01*
X209007430Y-99260473D01*
X208928360Y-99286165D01*
X208919114Y-99287137D01*
X208915851Y-99288122D01*
X208824710Y-99297059D01*
X208787211Y-99301000D01*
X208692789Y-99301000D01*
X208551640Y-99286165D01*
X208470603Y-99259834D01*
X208383337Y-99232152D01*
X208380345Y-99230507D01*
X208371512Y-99227637D01*
X208299534Y-99186081D01*
X208228501Y-99147030D01*
X208221014Y-99140747D01*
X208207489Y-99132939D01*
X208149741Y-99080943D01*
X208093143Y-99033451D01*
X208083038Y-99020882D01*
X208066739Y-99006207D01*
X208024546Y-98948133D01*
X207982421Y-98895740D01*
X207972006Y-98875818D01*
X207955414Y-98852981D01*
X207928703Y-98792988D01*
X207900561Y-98739157D01*
X207892418Y-98711490D01*
X207878379Y-98679958D01*
X207866008Y-98621759D01*
X207850672Y-98569651D01*
X207847482Y-98534599D01*
X207839001Y-98494699D01*
X207839001Y-98441408D01*
X207834657Y-98393676D01*
X207839001Y-98352347D01*
X207839001Y-98305301D01*
X207848783Y-98259279D01*
X207853127Y-98217953D01*
X207867298Y-98172173D01*
X207878379Y-98120042D01*
X207894972Y-98082774D01*
X207905378Y-98049157D01*
X207931211Y-98001380D01*
X207955414Y-97947019D01*
X207975702Y-97919095D01*
X207989420Y-97893724D01*
X208028141Y-97846918D01*
X208066739Y-97793793D01*
X208087716Y-97774905D01*
X208102048Y-97757581D01*
X208154155Y-97715083D01*
X208207489Y-97667061D01*
X208226476Y-97656099D01*
X208238975Y-97645905D01*
X208304220Y-97611214D01*
X208371512Y-97572363D01*
X208386364Y-97567537D01*
X208394997Y-97562947D01*
X208472570Y-97539527D01*
X208551640Y-97513835D01*
X208560886Y-97512863D01*
X208564149Y-97511878D01*
X208655290Y-97502941D01*
X208692789Y-97499000D01*
X208787211Y-97499000D01*
X208928360Y-97513835D01*
X208928360Y-97513835D01*
G37*
G36*
X212788360Y-97373835D02*
G01*
X212869397Y-97400166D01*
X212956663Y-97427848D01*
X212959655Y-97429493D01*
X212968488Y-97432363D01*
X213040466Y-97473919D01*
X213111499Y-97512970D01*
X213118986Y-97519253D01*
X213132511Y-97527061D01*
X213190259Y-97579057D01*
X213246857Y-97626549D01*
X213256962Y-97639118D01*
X213273261Y-97653793D01*
X213315454Y-97711867D01*
X213357579Y-97764260D01*
X213367994Y-97784182D01*
X213384586Y-97807019D01*
X213411297Y-97867012D01*
X213439439Y-97920843D01*
X213447582Y-97948510D01*
X213461621Y-97980042D01*
X213473992Y-98038241D01*
X213489328Y-98090349D01*
X213492518Y-98125401D01*
X213500999Y-98165301D01*
X213500999Y-98218592D01*
X213505343Y-98266324D01*
X213500999Y-98307653D01*
X213500999Y-98354699D01*
X213491217Y-98400721D01*
X213486873Y-98442047D01*
X213472702Y-98487827D01*
X213461621Y-98539958D01*
X213445028Y-98577226D01*
X213434622Y-98610843D01*
X213408789Y-98658620D01*
X213384586Y-98712981D01*
X213364298Y-98740905D01*
X213350580Y-98766276D01*
X213311859Y-98813082D01*
X213273261Y-98866207D01*
X213252284Y-98885095D01*
X213237952Y-98902419D01*
X213185845Y-98944917D01*
X213132511Y-98992939D01*
X213113524Y-99003901D01*
X213101025Y-99014095D01*
X213035780Y-99048786D01*
X212968488Y-99087637D01*
X212953636Y-99092463D01*
X212945003Y-99097053D01*
X212867430Y-99120473D01*
X212788360Y-99146165D01*
X212779114Y-99147137D01*
X212775851Y-99148122D01*
X212684710Y-99157059D01*
X212647211Y-99161000D01*
X212552789Y-99161000D01*
X212411640Y-99146165D01*
X212330603Y-99119834D01*
X212243337Y-99092152D01*
X212240345Y-99090507D01*
X212231512Y-99087637D01*
X212159534Y-99046081D01*
X212088501Y-99007030D01*
X212081014Y-99000747D01*
X212067489Y-98992939D01*
X212009741Y-98940943D01*
X211953143Y-98893451D01*
X211943038Y-98880882D01*
X211926739Y-98866207D01*
X211884546Y-98808133D01*
X211842421Y-98755740D01*
X211832006Y-98735818D01*
X211815414Y-98712981D01*
X211788703Y-98652988D01*
X211760561Y-98599157D01*
X211752418Y-98571490D01*
X211738379Y-98539958D01*
X211726008Y-98481759D01*
X211710672Y-98429651D01*
X211707482Y-98394599D01*
X211699001Y-98354699D01*
X211699001Y-98301408D01*
X211694657Y-98253676D01*
X211699001Y-98212347D01*
X211699001Y-98165301D01*
X211708783Y-98119279D01*
X211713127Y-98077953D01*
X211727298Y-98032173D01*
X211738379Y-97980042D01*
X211754972Y-97942774D01*
X211765378Y-97909157D01*
X211791211Y-97861380D01*
X211815414Y-97807019D01*
X211835702Y-97779095D01*
X211849420Y-97753724D01*
X211888141Y-97706918D01*
X211926739Y-97653793D01*
X211947716Y-97634905D01*
X211962048Y-97617581D01*
X212014155Y-97575083D01*
X212067489Y-97527061D01*
X212086476Y-97516099D01*
X212098975Y-97505905D01*
X212164220Y-97471214D01*
X212231512Y-97432363D01*
X212246364Y-97427537D01*
X212254997Y-97422947D01*
X212332570Y-97399527D01*
X212411640Y-97373835D01*
X212420886Y-97372863D01*
X212424149Y-97371878D01*
X212515290Y-97362941D01*
X212552789Y-97359000D01*
X212647211Y-97359000D01*
X212788360Y-97373835D01*
X212788360Y-97373835D01*
G37*
G36*
X167699591Y-96009345D02*
G01*
X167750391Y-96009700D01*
X167801051Y-96020099D01*
X167846828Y-96024951D01*
X167896287Y-96039648D01*
X167952293Y-96051145D01*
X167994069Y-96068706D01*
X168031981Y-96079972D01*
X168083722Y-96106392D01*
X168142300Y-96131016D01*
X168174564Y-96152779D01*
X168204015Y-96167817D01*
X168255254Y-96207205D01*
X168313174Y-96246273D01*
X168336070Y-96269330D01*
X168357158Y-96285540D01*
X168404764Y-96338504D01*
X168458407Y-96392523D01*
X168472831Y-96414233D01*
X168486284Y-96429200D01*
X168526922Y-96495646D01*
X168572468Y-96564198D01*
X168579950Y-96582350D01*
X168587065Y-96593984D01*
X168617378Y-96673158D01*
X168651011Y-96754758D01*
X168653572Y-96767693D01*
X168656132Y-96774379D01*
X168672931Y-96865461D01*
X168691045Y-96956944D01*
X168687757Y-97192363D01*
X168684234Y-97207869D01*
X168684069Y-97213973D01*
X168662745Y-97302453D01*
X168642094Y-97393352D01*
X168639358Y-97399497D01*
X168639199Y-97400157D01*
X168582118Y-97528062D01*
X168558261Y-97581645D01*
X168504257Y-97658200D01*
X168450932Y-97735643D01*
X168446520Y-97740048D01*
X168439451Y-97750068D01*
X168374969Y-97811474D01*
X168314227Y-97872109D01*
X168303742Y-97879302D01*
X168290191Y-97892206D01*
X168219960Y-97936776D01*
X168154942Y-97981378D01*
X168137400Y-97989170D01*
X168116165Y-98002646D01*
X168044347Y-98030503D01*
X167978410Y-98059791D01*
X167953446Y-98065761D01*
X167924002Y-98077182D01*
X167854304Y-98089471D01*
X167790543Y-98104720D01*
X167758438Y-98106375D01*
X167721022Y-98112972D01*
X167656608Y-98111623D01*
X167597641Y-98114662D01*
X167559342Y-98109586D01*
X167514955Y-98108656D01*
X167458223Y-98096183D01*
X167406152Y-98089281D01*
X167363267Y-98075306D01*
X167313652Y-98064397D01*
X167266265Y-98043694D01*
X167222498Y-98029431D01*
X167177176Y-98004772D01*
X167124779Y-97981880D01*
X167087565Y-97956016D01*
X167052825Y-97937114D01*
X167007703Y-97900510D01*
X166955530Y-97864249D01*
X166928502Y-97836260D01*
X166902814Y-97815422D01*
X166860877Y-97766233D01*
X166812353Y-97715985D01*
X166794751Y-97688672D01*
X166777495Y-97668432D01*
X166741942Y-97606728D01*
X166700701Y-97542734D01*
X166691105Y-97518498D01*
X166681060Y-97501064D01*
X166655127Y-97427628D01*
X166624826Y-97351096D01*
X166621282Y-97331785D01*
X166616739Y-97318921D01*
X166603546Y-97235152D01*
X166587619Y-97148371D01*
X166587803Y-97135188D01*
X166586689Y-97128114D01*
X166589196Y-97035460D01*
X166590497Y-96942279D01*
X166591895Y-96935703D01*
X166591913Y-96935026D01*
X166621406Y-96796863D01*
X166633350Y-96740672D01*
X166670226Y-96654635D01*
X166706315Y-96567722D01*
X166709718Y-96562492D01*
X166714546Y-96551227D01*
X166764828Y-96477791D01*
X166811658Y-96405818D01*
X166820423Y-96396598D01*
X166830992Y-96381162D01*
X166890409Y-96322977D01*
X166944745Y-96265818D01*
X166960286Y-96254547D01*
X166978253Y-96236953D01*
X167042701Y-96194780D01*
X167101118Y-96152415D01*
X167124301Y-96141382D01*
X167150720Y-96124094D01*
X167216316Y-96097591D01*
X167275532Y-96069410D01*
X167306596Y-96061116D01*
X167341823Y-96046883D01*
X167405128Y-96034807D01*
X167462159Y-96019579D01*
X167500663Y-96016582D01*
X167544284Y-96008261D01*
X167602370Y-96008667D01*
X167654735Y-96004591D01*
X167699591Y-96009345D01*
X167699591Y-96009345D01*
G37*
G36*
X162619591Y-96009345D02*
G01*
X162670391Y-96009700D01*
X162721051Y-96020099D01*
X162766828Y-96024951D01*
X162816287Y-96039648D01*
X162872293Y-96051145D01*
X162914069Y-96068706D01*
X162951981Y-96079972D01*
X163003722Y-96106392D01*
X163062300Y-96131016D01*
X163094564Y-96152779D01*
X163124015Y-96167817D01*
X163175254Y-96207205D01*
X163233174Y-96246273D01*
X163256070Y-96269330D01*
X163277158Y-96285540D01*
X163324764Y-96338504D01*
X163378407Y-96392523D01*
X163392831Y-96414233D01*
X163406284Y-96429200D01*
X163446922Y-96495646D01*
X163492468Y-96564198D01*
X163499950Y-96582350D01*
X163507065Y-96593984D01*
X163537378Y-96673158D01*
X163571011Y-96754758D01*
X163573572Y-96767693D01*
X163576132Y-96774379D01*
X163592931Y-96865461D01*
X163611045Y-96956944D01*
X163607757Y-97192363D01*
X163604234Y-97207869D01*
X163604069Y-97213973D01*
X163582745Y-97302453D01*
X163562094Y-97393352D01*
X163559358Y-97399497D01*
X163559199Y-97400157D01*
X163502118Y-97528062D01*
X163478261Y-97581645D01*
X163424257Y-97658200D01*
X163370932Y-97735643D01*
X163366520Y-97740048D01*
X163359451Y-97750068D01*
X163294969Y-97811474D01*
X163234227Y-97872109D01*
X163223742Y-97879302D01*
X163210191Y-97892206D01*
X163139960Y-97936776D01*
X163074942Y-97981378D01*
X163057400Y-97989170D01*
X163036165Y-98002646D01*
X162964347Y-98030503D01*
X162898410Y-98059791D01*
X162873446Y-98065761D01*
X162844002Y-98077182D01*
X162774304Y-98089471D01*
X162710543Y-98104720D01*
X162678438Y-98106375D01*
X162641022Y-98112972D01*
X162576608Y-98111623D01*
X162517641Y-98114662D01*
X162479342Y-98109586D01*
X162434955Y-98108656D01*
X162378223Y-98096183D01*
X162326152Y-98089281D01*
X162283267Y-98075306D01*
X162233652Y-98064397D01*
X162186265Y-98043694D01*
X162142498Y-98029431D01*
X162097176Y-98004772D01*
X162044779Y-97981880D01*
X162007565Y-97956016D01*
X161972825Y-97937114D01*
X161927703Y-97900510D01*
X161875530Y-97864249D01*
X161848502Y-97836260D01*
X161822814Y-97815422D01*
X161780877Y-97766233D01*
X161732353Y-97715985D01*
X161714751Y-97688672D01*
X161697495Y-97668432D01*
X161661942Y-97606728D01*
X161620701Y-97542734D01*
X161611105Y-97518498D01*
X161601060Y-97501064D01*
X161575127Y-97427628D01*
X161544826Y-97351096D01*
X161541282Y-97331785D01*
X161536739Y-97318921D01*
X161523546Y-97235152D01*
X161507619Y-97148371D01*
X161507803Y-97135188D01*
X161506689Y-97128114D01*
X161509196Y-97035460D01*
X161510497Y-96942279D01*
X161511895Y-96935703D01*
X161511913Y-96935026D01*
X161541406Y-96796863D01*
X161553350Y-96740672D01*
X161590226Y-96654635D01*
X161626315Y-96567722D01*
X161629718Y-96562492D01*
X161634546Y-96551227D01*
X161684828Y-96477791D01*
X161731658Y-96405818D01*
X161740423Y-96396598D01*
X161750992Y-96381162D01*
X161810409Y-96322977D01*
X161864745Y-96265818D01*
X161880286Y-96254547D01*
X161898253Y-96236953D01*
X161962701Y-96194780D01*
X162021118Y-96152415D01*
X162044301Y-96141382D01*
X162070720Y-96124094D01*
X162136316Y-96097591D01*
X162195532Y-96069410D01*
X162226596Y-96061116D01*
X162261823Y-96046883D01*
X162325128Y-96034807D01*
X162382159Y-96019579D01*
X162420663Y-96016582D01*
X162464284Y-96008261D01*
X162522370Y-96008667D01*
X162574735Y-96004591D01*
X162619591Y-96009345D01*
X162619591Y-96009345D01*
G37*
G36*
X165159591Y-96009345D02*
G01*
X165210391Y-96009700D01*
X165261051Y-96020099D01*
X165306828Y-96024951D01*
X165356287Y-96039648D01*
X165412293Y-96051145D01*
X165454069Y-96068706D01*
X165491981Y-96079972D01*
X165543722Y-96106392D01*
X165602300Y-96131016D01*
X165634564Y-96152779D01*
X165664015Y-96167817D01*
X165715254Y-96207205D01*
X165773174Y-96246273D01*
X165796070Y-96269330D01*
X165817158Y-96285540D01*
X165864764Y-96338504D01*
X165918407Y-96392523D01*
X165932831Y-96414233D01*
X165946284Y-96429200D01*
X165986922Y-96495646D01*
X166032468Y-96564198D01*
X166039950Y-96582350D01*
X166047065Y-96593984D01*
X166077378Y-96673158D01*
X166111011Y-96754758D01*
X166113572Y-96767693D01*
X166116132Y-96774379D01*
X166132931Y-96865461D01*
X166151045Y-96956944D01*
X166147757Y-97192363D01*
X166144234Y-97207869D01*
X166144069Y-97213973D01*
X166122745Y-97302453D01*
X166102094Y-97393352D01*
X166099358Y-97399497D01*
X166099199Y-97400157D01*
X166042118Y-97528062D01*
X166018261Y-97581645D01*
X165964257Y-97658200D01*
X165910932Y-97735643D01*
X165906520Y-97740048D01*
X165899451Y-97750068D01*
X165834969Y-97811474D01*
X165774227Y-97872109D01*
X165763742Y-97879302D01*
X165750191Y-97892206D01*
X165679960Y-97936776D01*
X165614942Y-97981378D01*
X165597400Y-97989170D01*
X165576165Y-98002646D01*
X165504347Y-98030503D01*
X165438410Y-98059791D01*
X165413446Y-98065761D01*
X165384002Y-98077182D01*
X165314304Y-98089471D01*
X165250543Y-98104720D01*
X165218438Y-98106375D01*
X165181022Y-98112972D01*
X165116608Y-98111623D01*
X165057641Y-98114662D01*
X165019342Y-98109586D01*
X164974955Y-98108656D01*
X164918223Y-98096183D01*
X164866152Y-98089281D01*
X164823267Y-98075306D01*
X164773652Y-98064397D01*
X164726265Y-98043694D01*
X164682498Y-98029431D01*
X164637176Y-98004772D01*
X164584779Y-97981880D01*
X164547565Y-97956016D01*
X164512825Y-97937114D01*
X164467703Y-97900510D01*
X164415530Y-97864249D01*
X164388502Y-97836260D01*
X164362814Y-97815422D01*
X164320877Y-97766233D01*
X164272353Y-97715985D01*
X164254751Y-97688672D01*
X164237495Y-97668432D01*
X164201942Y-97606728D01*
X164160701Y-97542734D01*
X164151105Y-97518498D01*
X164141060Y-97501064D01*
X164115127Y-97427628D01*
X164084826Y-97351096D01*
X164081282Y-97331785D01*
X164076739Y-97318921D01*
X164063546Y-97235152D01*
X164047619Y-97148371D01*
X164047803Y-97135188D01*
X164046689Y-97128114D01*
X164049196Y-97035460D01*
X164050497Y-96942279D01*
X164051895Y-96935703D01*
X164051913Y-96935026D01*
X164081406Y-96796863D01*
X164093350Y-96740672D01*
X164130226Y-96654635D01*
X164166315Y-96567722D01*
X164169718Y-96562492D01*
X164174546Y-96551227D01*
X164224828Y-96477791D01*
X164271658Y-96405818D01*
X164280423Y-96396598D01*
X164290992Y-96381162D01*
X164350409Y-96322977D01*
X164404745Y-96265818D01*
X164420286Y-96254547D01*
X164438253Y-96236953D01*
X164502701Y-96194780D01*
X164561118Y-96152415D01*
X164584301Y-96141382D01*
X164610720Y-96124094D01*
X164676316Y-96097591D01*
X164735532Y-96069410D01*
X164766596Y-96061116D01*
X164801823Y-96046883D01*
X164865128Y-96034807D01*
X164922159Y-96019579D01*
X164960663Y-96016582D01*
X165004284Y-96008261D01*
X165062370Y-96008667D01*
X165114735Y-96004591D01*
X165159591Y-96009345D01*
X165159591Y-96009345D01*
G37*
G36*
X181669591Y-93564345D02*
G01*
X181720391Y-93564700D01*
X181771051Y-93575099D01*
X181816828Y-93579951D01*
X181866287Y-93594648D01*
X181922293Y-93606145D01*
X181964069Y-93623706D01*
X182001981Y-93634972D01*
X182053722Y-93661392D01*
X182112300Y-93686016D01*
X182144564Y-93707779D01*
X182174015Y-93722817D01*
X182225254Y-93762205D01*
X182283174Y-93801273D01*
X182306070Y-93824330D01*
X182327158Y-93840540D01*
X182374764Y-93893504D01*
X182428407Y-93947523D01*
X182442831Y-93969233D01*
X182456284Y-93984200D01*
X182496922Y-94050646D01*
X182542468Y-94119198D01*
X182549950Y-94137350D01*
X182557065Y-94148984D01*
X182587378Y-94228158D01*
X182621011Y-94309758D01*
X182623572Y-94322693D01*
X182626132Y-94329379D01*
X182642931Y-94420461D01*
X182661045Y-94511944D01*
X182657757Y-94747363D01*
X182654234Y-94762869D01*
X182654069Y-94768973D01*
X182632745Y-94857453D01*
X182612094Y-94948352D01*
X182609358Y-94954497D01*
X182609199Y-94955157D01*
X182551914Y-95083518D01*
X182528261Y-95136645D01*
X182474257Y-95213200D01*
X182420932Y-95290643D01*
X182416520Y-95295048D01*
X182409451Y-95305068D01*
X182344969Y-95366474D01*
X182284227Y-95427109D01*
X182273742Y-95434302D01*
X182260191Y-95447206D01*
X182189960Y-95491776D01*
X182124942Y-95536378D01*
X182107400Y-95544170D01*
X182086165Y-95557646D01*
X182014347Y-95585503D01*
X181948410Y-95614791D01*
X181923446Y-95620761D01*
X181894002Y-95632182D01*
X181824304Y-95644471D01*
X181760543Y-95659720D01*
X181728438Y-95661375D01*
X181691022Y-95667972D01*
X181626608Y-95666623D01*
X181567641Y-95669662D01*
X181529342Y-95664586D01*
X181484955Y-95663656D01*
X181428223Y-95651183D01*
X181376152Y-95644281D01*
X181333267Y-95630306D01*
X181283652Y-95619397D01*
X181236265Y-95598694D01*
X181192498Y-95584431D01*
X181147176Y-95559772D01*
X181094779Y-95536880D01*
X181057565Y-95511016D01*
X181022825Y-95492114D01*
X180977703Y-95455510D01*
X180925530Y-95419249D01*
X180898502Y-95391260D01*
X180872814Y-95370422D01*
X180830877Y-95321233D01*
X180782353Y-95270985D01*
X180764751Y-95243672D01*
X180747495Y-95223432D01*
X180711942Y-95161728D01*
X180670701Y-95097734D01*
X180661105Y-95073498D01*
X180651060Y-95056064D01*
X180625127Y-94982628D01*
X180594826Y-94906096D01*
X180591282Y-94886785D01*
X180586739Y-94873921D01*
X180573546Y-94790152D01*
X180557619Y-94703371D01*
X180557803Y-94690188D01*
X180556689Y-94683114D01*
X180559196Y-94590460D01*
X180560497Y-94497279D01*
X180561895Y-94490703D01*
X180561913Y-94490026D01*
X180591406Y-94351863D01*
X180603350Y-94295672D01*
X180640226Y-94209635D01*
X180676315Y-94122722D01*
X180679718Y-94117492D01*
X180684546Y-94106227D01*
X180734828Y-94032791D01*
X180781658Y-93960818D01*
X180790423Y-93951598D01*
X180800992Y-93936162D01*
X180860409Y-93877977D01*
X180914745Y-93820818D01*
X180930286Y-93809547D01*
X180948253Y-93791953D01*
X181012701Y-93749780D01*
X181071118Y-93707415D01*
X181094301Y-93696382D01*
X181120720Y-93679094D01*
X181186316Y-93652591D01*
X181245532Y-93624410D01*
X181276596Y-93616116D01*
X181311823Y-93601883D01*
X181375128Y-93589807D01*
X181432159Y-93574579D01*
X181470663Y-93571582D01*
X181514284Y-93563261D01*
X181572370Y-93563667D01*
X181624735Y-93559591D01*
X181669591Y-93564345D01*
X181669591Y-93564345D01*
G37*
G36*
X155634591Y-93564345D02*
G01*
X155685391Y-93564700D01*
X155736051Y-93575099D01*
X155781828Y-93579951D01*
X155831287Y-93594648D01*
X155887293Y-93606145D01*
X155929069Y-93623706D01*
X155966981Y-93634972D01*
X156018722Y-93661392D01*
X156077300Y-93686016D01*
X156109564Y-93707779D01*
X156139015Y-93722817D01*
X156190254Y-93762205D01*
X156248174Y-93801273D01*
X156271070Y-93824330D01*
X156292158Y-93840540D01*
X156339764Y-93893504D01*
X156393407Y-93947523D01*
X156407831Y-93969233D01*
X156421284Y-93984200D01*
X156461922Y-94050646D01*
X156507468Y-94119198D01*
X156514950Y-94137350D01*
X156522065Y-94148984D01*
X156552378Y-94228158D01*
X156586011Y-94309758D01*
X156588572Y-94322693D01*
X156591132Y-94329379D01*
X156607931Y-94420461D01*
X156626045Y-94511944D01*
X156622757Y-94747363D01*
X156619234Y-94762869D01*
X156619069Y-94768973D01*
X156597745Y-94857453D01*
X156577094Y-94948352D01*
X156574358Y-94954497D01*
X156574199Y-94955157D01*
X156516914Y-95083518D01*
X156493261Y-95136645D01*
X156439257Y-95213200D01*
X156385932Y-95290643D01*
X156381520Y-95295048D01*
X156374451Y-95305068D01*
X156309969Y-95366474D01*
X156249227Y-95427109D01*
X156238742Y-95434302D01*
X156225191Y-95447206D01*
X156154960Y-95491776D01*
X156089942Y-95536378D01*
X156072400Y-95544170D01*
X156051165Y-95557646D01*
X155979347Y-95585503D01*
X155913410Y-95614791D01*
X155888446Y-95620761D01*
X155859002Y-95632182D01*
X155789304Y-95644471D01*
X155725543Y-95659720D01*
X155693438Y-95661375D01*
X155656022Y-95667972D01*
X155591608Y-95666623D01*
X155532641Y-95669662D01*
X155494342Y-95664586D01*
X155449955Y-95663656D01*
X155393223Y-95651183D01*
X155341152Y-95644281D01*
X155298267Y-95630306D01*
X155248652Y-95619397D01*
X155201265Y-95598694D01*
X155157498Y-95584431D01*
X155112176Y-95559772D01*
X155059779Y-95536880D01*
X155022565Y-95511016D01*
X154987825Y-95492114D01*
X154942703Y-95455510D01*
X154890530Y-95419249D01*
X154863502Y-95391260D01*
X154837814Y-95370422D01*
X154795877Y-95321233D01*
X154747353Y-95270985D01*
X154729751Y-95243672D01*
X154712495Y-95223432D01*
X154676942Y-95161728D01*
X154635701Y-95097734D01*
X154626105Y-95073498D01*
X154616060Y-95056064D01*
X154590127Y-94982628D01*
X154559826Y-94906096D01*
X154556282Y-94886785D01*
X154551739Y-94873921D01*
X154538546Y-94790152D01*
X154522619Y-94703371D01*
X154522803Y-94690188D01*
X154521689Y-94683114D01*
X154524196Y-94590460D01*
X154525497Y-94497279D01*
X154526895Y-94490703D01*
X154526913Y-94490026D01*
X154556406Y-94351863D01*
X154568350Y-94295672D01*
X154605226Y-94209635D01*
X154641315Y-94122722D01*
X154644718Y-94117492D01*
X154649546Y-94106227D01*
X154699828Y-94032791D01*
X154746658Y-93960818D01*
X154755423Y-93951598D01*
X154765992Y-93936162D01*
X154825409Y-93877977D01*
X154879745Y-93820818D01*
X154895286Y-93809547D01*
X154913253Y-93791953D01*
X154977701Y-93749780D01*
X155036118Y-93707415D01*
X155059301Y-93696382D01*
X155085720Y-93679094D01*
X155151316Y-93652591D01*
X155210532Y-93624410D01*
X155241596Y-93616116D01*
X155276823Y-93601883D01*
X155340128Y-93589807D01*
X155397159Y-93574579D01*
X155435663Y-93571582D01*
X155479284Y-93563261D01*
X155537370Y-93563667D01*
X155589735Y-93559591D01*
X155634591Y-93564345D01*
X155634591Y-93564345D01*
G37*
G36*
X209869899Y-93501959D02*
G01*
X209886769Y-93513231D01*
X209898041Y-93530101D01*
X209904448Y-93562312D01*
X209904448Y-95237688D01*
X209901999Y-95250000D01*
X209898041Y-95269899D01*
X209886769Y-95286769D01*
X209869899Y-95298041D01*
X209850000Y-95301999D01*
X209837688Y-95304448D01*
X208162312Y-95304448D01*
X208130101Y-95298041D01*
X208113231Y-95286769D01*
X208101959Y-95269899D01*
X208095552Y-95237688D01*
X208095552Y-93562312D01*
X208101959Y-93530101D01*
X208113231Y-93513231D01*
X208130101Y-93501959D01*
X208162312Y-93495552D01*
X209837688Y-93495552D01*
X209869899Y-93501959D01*
X209869899Y-93501959D01*
G37*
G36*
X197145256Y-93066764D02*
G01*
X197156728Y-93072289D01*
X197164786Y-93073795D01*
X197182043Y-93084480D01*
X197227138Y-93106197D01*
X197247238Y-93124847D01*
X197260464Y-93133036D01*
X197270764Y-93146676D01*
X197293765Y-93168017D01*
X197316117Y-93206732D01*
X197328281Y-93222840D01*
X197330250Y-93231212D01*
X197338006Y-93244646D01*
X197356919Y-93344603D01*
X197360383Y-93359331D01*
X197360383Y-93362910D01*
X197361694Y-93369839D01*
X197361694Y-94592516D01*
X197346736Y-94691756D01*
X197341211Y-94703228D01*
X197339705Y-94711286D01*
X197329020Y-94728543D01*
X197307303Y-94773638D01*
X197288653Y-94793738D01*
X197280464Y-94806964D01*
X197266824Y-94817264D01*
X197245483Y-94840265D01*
X197206768Y-94862617D01*
X197190660Y-94874781D01*
X197182288Y-94876750D01*
X197168854Y-94884506D01*
X197068897Y-94903419D01*
X197054169Y-94906883D01*
X197050590Y-94906883D01*
X197043661Y-94908194D01*
X196145984Y-94908194D01*
X196046744Y-94893236D01*
X196035272Y-94887711D01*
X196027214Y-94886205D01*
X196009957Y-94875520D01*
X195964862Y-94853803D01*
X195944762Y-94835153D01*
X195931536Y-94826964D01*
X195921236Y-94813324D01*
X195898235Y-94791983D01*
X195875883Y-94753268D01*
X195863719Y-94737160D01*
X195861750Y-94728788D01*
X195853994Y-94715354D01*
X195835081Y-94615397D01*
X195831617Y-94600669D01*
X195831617Y-94597090D01*
X195830306Y-94590161D01*
X195830306Y-93367484D01*
X195845264Y-93268244D01*
X195850789Y-93256772D01*
X195852295Y-93248714D01*
X195862980Y-93231457D01*
X195884697Y-93186362D01*
X195903347Y-93166262D01*
X195911536Y-93153036D01*
X195925176Y-93142736D01*
X195946517Y-93119735D01*
X195985232Y-93097383D01*
X196001340Y-93085219D01*
X196009712Y-93083250D01*
X196023146Y-93075494D01*
X196123103Y-93056581D01*
X196137831Y-93053117D01*
X196141410Y-93053117D01*
X196148339Y-93051806D01*
X197046016Y-93051806D01*
X197145256Y-93066764D01*
X197145256Y-93066764D01*
G37*
G36*
X194170256Y-93066764D02*
G01*
X194181728Y-93072289D01*
X194189786Y-93073795D01*
X194207043Y-93084480D01*
X194252138Y-93106197D01*
X194272238Y-93124847D01*
X194285464Y-93133036D01*
X194295764Y-93146676D01*
X194318765Y-93168017D01*
X194341117Y-93206732D01*
X194353281Y-93222840D01*
X194355250Y-93231212D01*
X194363006Y-93244646D01*
X194381919Y-93344603D01*
X194385383Y-93359331D01*
X194385383Y-93362910D01*
X194386694Y-93369839D01*
X194386694Y-94592516D01*
X194371736Y-94691756D01*
X194366211Y-94703228D01*
X194364705Y-94711286D01*
X194354020Y-94728543D01*
X194332303Y-94773638D01*
X194313653Y-94793738D01*
X194305464Y-94806964D01*
X194291824Y-94817264D01*
X194270483Y-94840265D01*
X194231768Y-94862617D01*
X194215660Y-94874781D01*
X194207288Y-94876750D01*
X194193854Y-94884506D01*
X194093897Y-94903419D01*
X194079169Y-94906883D01*
X194075590Y-94906883D01*
X194068661Y-94908194D01*
X193170984Y-94908194D01*
X193071744Y-94893236D01*
X193060272Y-94887711D01*
X193052214Y-94886205D01*
X193034957Y-94875520D01*
X192989862Y-94853803D01*
X192969762Y-94835153D01*
X192956536Y-94826964D01*
X192946236Y-94813324D01*
X192923235Y-94791983D01*
X192900883Y-94753268D01*
X192888719Y-94737160D01*
X192886750Y-94728788D01*
X192878994Y-94715354D01*
X192860081Y-94615397D01*
X192856617Y-94600669D01*
X192856617Y-94597090D01*
X192855306Y-94590161D01*
X192855306Y-93367484D01*
X192870264Y-93268244D01*
X192875789Y-93256772D01*
X192877295Y-93248714D01*
X192887980Y-93231457D01*
X192909697Y-93186362D01*
X192928347Y-93166262D01*
X192936536Y-93153036D01*
X192950176Y-93142736D01*
X192971517Y-93119735D01*
X193010232Y-93097383D01*
X193026340Y-93085219D01*
X193034712Y-93083250D01*
X193048146Y-93075494D01*
X193148103Y-93056581D01*
X193162831Y-93053117D01*
X193166410Y-93053117D01*
X193173339Y-93051806D01*
X194071016Y-93051806D01*
X194170256Y-93066764D01*
X194170256Y-93066764D01*
G37*
G36*
X205869899Y-90501959D02*
G01*
X205886769Y-90513231D01*
X205898041Y-90530101D01*
X205904448Y-90562312D01*
X205904448Y-92237688D01*
X205901999Y-92250000D01*
X205898041Y-92269899D01*
X205886769Y-92286769D01*
X205869899Y-92298041D01*
X205850000Y-92301999D01*
X205837688Y-92304448D01*
X204162312Y-92304448D01*
X204130101Y-92298041D01*
X204113231Y-92286769D01*
X204101959Y-92269899D01*
X204095552Y-92237688D01*
X204095552Y-90562312D01*
X204101959Y-90530101D01*
X204113231Y-90513231D01*
X204130101Y-90501959D01*
X204162312Y-90495552D01*
X205837688Y-90495552D01*
X205869899Y-90501959D01*
X205869899Y-90501959D01*
G37*
G36*
X195586906Y-90376468D02*
G01*
X195638167Y-90379334D01*
X195661780Y-90385927D01*
X195695028Y-90390127D01*
X195743592Y-90408769D01*
X195784863Y-90420292D01*
X195814079Y-90435826D01*
X195853428Y-90450931D01*
X195889050Y-90475689D01*
X195919345Y-90491797D01*
X195951049Y-90518779D01*
X195992751Y-90547763D01*
X196015730Y-90573828D01*
X196035334Y-90590512D01*
X196065642Y-90630442D01*
X196104955Y-90675033D01*
X196117050Y-90698169D01*
X196127418Y-90711828D01*
X196151973Y-90764970D01*
X196183562Y-90825394D01*
X196187726Y-90842346D01*
X196191304Y-90850090D01*
X196205609Y-90915153D01*
X196224034Y-90990166D01*
X196223946Y-90998555D01*
X196223963Y-90998632D01*
X196223413Y-91156259D01*
X196222240Y-91161422D01*
X196222103Y-91174497D01*
X196203469Y-91244043D01*
X196189717Y-91304569D01*
X196183989Y-91316741D01*
X196178190Y-91338385D01*
X196147750Y-91393754D01*
X196124867Y-91442384D01*
X196111406Y-91459864D01*
X196096451Y-91487066D01*
X196059569Y-91527175D01*
X196031939Y-91563053D01*
X196008465Y-91582750D01*
X195981606Y-91611959D01*
X195943418Y-91637331D01*
X195915263Y-91660956D01*
X195880531Y-91679113D01*
X195840286Y-91705852D01*
X195805268Y-91718460D01*
X195780287Y-91731519D01*
X195734257Y-91744025D01*
X195680648Y-91763326D01*
X195652225Y-91766313D01*
X195633308Y-91771453D01*
X195577223Y-91774196D01*
X195511908Y-91781061D01*
X195492165Y-91778357D01*
X195481178Y-91778894D01*
X195417658Y-91768150D01*
X195343809Y-91758034D01*
X195333338Y-91753888D01*
X195331007Y-91753494D01*
X195265694Y-91727106D01*
X195186055Y-91695575D01*
X195120799Y-91649200D01*
X195064117Y-91610388D01*
X195059966Y-91605968D01*
X195047754Y-91597289D01*
X195001539Y-91543749D01*
X194959855Y-91499360D01*
X194952337Y-91486749D01*
X194936888Y-91468851D01*
X194908766Y-91413658D01*
X194881865Y-91368532D01*
X194874515Y-91346437D01*
X194859860Y-91317675D01*
X194847698Y-91265822D01*
X194833790Y-91224013D01*
X194830460Y-91192326D01*
X194821116Y-91152489D01*
X194821583Y-91107871D01*
X194817870Y-91072540D01*
X194822374Y-91032384D01*
X194822893Y-90982829D01*
X194831841Y-90947979D01*
X194834847Y-90921179D01*
X194850613Y-90874867D01*
X194865088Y-90818491D01*
X194878008Y-90794395D01*
X194883930Y-90777000D01*
X194913632Y-90727956D01*
X194945265Y-90668961D01*
X194957776Y-90655066D01*
X194962832Y-90646718D01*
X195008009Y-90599278D01*
X195058796Y-90542873D01*
X195067088Y-90537237D01*
X195067865Y-90536422D01*
X195124438Y-90498263D01*
X195199126Y-90447505D01*
X195272784Y-90420112D01*
X195335747Y-90395183D01*
X195342953Y-90394016D01*
X195358153Y-90388363D01*
X195427133Y-90380382D01*
X195486096Y-90370832D01*
X195501990Y-90371721D01*
X195526697Y-90368862D01*
X195586906Y-90376468D01*
X195586906Y-90376468D01*
G37*
G36*
X193806906Y-90376468D02*
G01*
X193858167Y-90379334D01*
X193881780Y-90385927D01*
X193915028Y-90390127D01*
X193963592Y-90408769D01*
X194004863Y-90420292D01*
X194034079Y-90435826D01*
X194073428Y-90450931D01*
X194109050Y-90475689D01*
X194139345Y-90491797D01*
X194171049Y-90518779D01*
X194212751Y-90547763D01*
X194235730Y-90573828D01*
X194255334Y-90590512D01*
X194285642Y-90630442D01*
X194324955Y-90675033D01*
X194337050Y-90698169D01*
X194347418Y-90711828D01*
X194371973Y-90764970D01*
X194403562Y-90825394D01*
X194407726Y-90842346D01*
X194411304Y-90850090D01*
X194425609Y-90915153D01*
X194444034Y-90990166D01*
X194443946Y-90998555D01*
X194443963Y-90998632D01*
X194443413Y-91156259D01*
X194442240Y-91161422D01*
X194442103Y-91174497D01*
X194423469Y-91244043D01*
X194409717Y-91304569D01*
X194403989Y-91316741D01*
X194398190Y-91338385D01*
X194367750Y-91393754D01*
X194344867Y-91442384D01*
X194331406Y-91459864D01*
X194316451Y-91487066D01*
X194279569Y-91527175D01*
X194251939Y-91563053D01*
X194228465Y-91582750D01*
X194201606Y-91611959D01*
X194163418Y-91637331D01*
X194135263Y-91660956D01*
X194100531Y-91679113D01*
X194060286Y-91705852D01*
X194025268Y-91718460D01*
X194000287Y-91731519D01*
X193954257Y-91744025D01*
X193900648Y-91763326D01*
X193872225Y-91766313D01*
X193853308Y-91771453D01*
X193797223Y-91774196D01*
X193731908Y-91781061D01*
X193712165Y-91778357D01*
X193701178Y-91778894D01*
X193637658Y-91768150D01*
X193563809Y-91758034D01*
X193553338Y-91753888D01*
X193551007Y-91753494D01*
X193485694Y-91727106D01*
X193406055Y-91695575D01*
X193340799Y-91649200D01*
X193284117Y-91610388D01*
X193279966Y-91605968D01*
X193267754Y-91597289D01*
X193221539Y-91543749D01*
X193179855Y-91499360D01*
X193172337Y-91486749D01*
X193156888Y-91468851D01*
X193128766Y-91413658D01*
X193101865Y-91368532D01*
X193094515Y-91346437D01*
X193079860Y-91317675D01*
X193067698Y-91265822D01*
X193053790Y-91224013D01*
X193050460Y-91192326D01*
X193041116Y-91152489D01*
X193041583Y-91107871D01*
X193037870Y-91072540D01*
X193042374Y-91032384D01*
X193042893Y-90982829D01*
X193051841Y-90947979D01*
X193054847Y-90921179D01*
X193070613Y-90874867D01*
X193085088Y-90818491D01*
X193098008Y-90794395D01*
X193103930Y-90777000D01*
X193133632Y-90727956D01*
X193165265Y-90668961D01*
X193177776Y-90655066D01*
X193182832Y-90646718D01*
X193228009Y-90599278D01*
X193278796Y-90542873D01*
X193287088Y-90537237D01*
X193287865Y-90536422D01*
X193344438Y-90498263D01*
X193419126Y-90447505D01*
X193492784Y-90420112D01*
X193555747Y-90395183D01*
X193562953Y-90394016D01*
X193578153Y-90388363D01*
X193647133Y-90380382D01*
X193706096Y-90370832D01*
X193721990Y-90371721D01*
X193746697Y-90368862D01*
X193806906Y-90376468D01*
X193806906Y-90376468D01*
G37*
G36*
X183126906Y-90376468D02*
G01*
X183178167Y-90379334D01*
X183201780Y-90385927D01*
X183235028Y-90390127D01*
X183283592Y-90408769D01*
X183324863Y-90420292D01*
X183354079Y-90435826D01*
X183393428Y-90450931D01*
X183429050Y-90475689D01*
X183459345Y-90491797D01*
X183491049Y-90518779D01*
X183532751Y-90547763D01*
X183555730Y-90573828D01*
X183575334Y-90590512D01*
X183605642Y-90630442D01*
X183644955Y-90675033D01*
X183657050Y-90698169D01*
X183667418Y-90711828D01*
X183691973Y-90764970D01*
X183723562Y-90825394D01*
X183727726Y-90842346D01*
X183731304Y-90850090D01*
X183745609Y-90915153D01*
X183764034Y-90990166D01*
X183763946Y-90998555D01*
X183763963Y-90998632D01*
X183763413Y-91156259D01*
X183762240Y-91161422D01*
X183762103Y-91174497D01*
X183743469Y-91244043D01*
X183729717Y-91304569D01*
X183723989Y-91316741D01*
X183718190Y-91338385D01*
X183687750Y-91393754D01*
X183664867Y-91442384D01*
X183651406Y-91459864D01*
X183636451Y-91487066D01*
X183599569Y-91527175D01*
X183571939Y-91563053D01*
X183548465Y-91582750D01*
X183521606Y-91611959D01*
X183483418Y-91637331D01*
X183455263Y-91660956D01*
X183420531Y-91679113D01*
X183380286Y-91705852D01*
X183345268Y-91718460D01*
X183320287Y-91731519D01*
X183274257Y-91744025D01*
X183220648Y-91763326D01*
X183192225Y-91766313D01*
X183173308Y-91771453D01*
X183117223Y-91774196D01*
X183051908Y-91781061D01*
X183032165Y-91778357D01*
X183021178Y-91778894D01*
X182957658Y-91768150D01*
X182883809Y-91758034D01*
X182873338Y-91753888D01*
X182871007Y-91753494D01*
X182805694Y-91727106D01*
X182726055Y-91695575D01*
X182660799Y-91649200D01*
X182604117Y-91610388D01*
X182599966Y-91605968D01*
X182587754Y-91597289D01*
X182541539Y-91543749D01*
X182499855Y-91499360D01*
X182492337Y-91486749D01*
X182476888Y-91468851D01*
X182448766Y-91413658D01*
X182421865Y-91368532D01*
X182414515Y-91346437D01*
X182399860Y-91317675D01*
X182387698Y-91265822D01*
X182373790Y-91224013D01*
X182370460Y-91192326D01*
X182361116Y-91152489D01*
X182361583Y-91107871D01*
X182357870Y-91072540D01*
X182362374Y-91032384D01*
X182362893Y-90982829D01*
X182371841Y-90947979D01*
X182374847Y-90921179D01*
X182390613Y-90874867D01*
X182405088Y-90818491D01*
X182418008Y-90794395D01*
X182423930Y-90777000D01*
X182453632Y-90727956D01*
X182485265Y-90668961D01*
X182497776Y-90655066D01*
X182502832Y-90646718D01*
X182548009Y-90599278D01*
X182598796Y-90542873D01*
X182607088Y-90537237D01*
X182607865Y-90536422D01*
X182664438Y-90498263D01*
X182739126Y-90447505D01*
X182812784Y-90420112D01*
X182875747Y-90395183D01*
X182882953Y-90394016D01*
X182898153Y-90388363D01*
X182967133Y-90380382D01*
X183026096Y-90370832D01*
X183041990Y-90371721D01*
X183066697Y-90368862D01*
X183126906Y-90376468D01*
X183126906Y-90376468D01*
G37*
G36*
X192026906Y-90376468D02*
G01*
X192078167Y-90379334D01*
X192101780Y-90385927D01*
X192135028Y-90390127D01*
X192183592Y-90408769D01*
X192224863Y-90420292D01*
X192254079Y-90435826D01*
X192293428Y-90450931D01*
X192329050Y-90475689D01*
X192359345Y-90491797D01*
X192391049Y-90518779D01*
X192432751Y-90547763D01*
X192455730Y-90573828D01*
X192475334Y-90590512D01*
X192505642Y-90630442D01*
X192544955Y-90675033D01*
X192557050Y-90698169D01*
X192567418Y-90711828D01*
X192591973Y-90764970D01*
X192623562Y-90825394D01*
X192627726Y-90842346D01*
X192631304Y-90850090D01*
X192645609Y-90915153D01*
X192664034Y-90990166D01*
X192663946Y-90998555D01*
X192663963Y-90998632D01*
X192663413Y-91156259D01*
X192662240Y-91161422D01*
X192662103Y-91174497D01*
X192643469Y-91244043D01*
X192629717Y-91304569D01*
X192623989Y-91316741D01*
X192618190Y-91338385D01*
X192587750Y-91393754D01*
X192564867Y-91442384D01*
X192551406Y-91459864D01*
X192536451Y-91487066D01*
X192499569Y-91527175D01*
X192471939Y-91563053D01*
X192448465Y-91582750D01*
X192421606Y-91611959D01*
X192383418Y-91637331D01*
X192355263Y-91660956D01*
X192320531Y-91679113D01*
X192280286Y-91705852D01*
X192245268Y-91718460D01*
X192220287Y-91731519D01*
X192174257Y-91744025D01*
X192120648Y-91763326D01*
X192092225Y-91766313D01*
X192073308Y-91771453D01*
X192017223Y-91774196D01*
X191951908Y-91781061D01*
X191932165Y-91778357D01*
X191921178Y-91778894D01*
X191857658Y-91768150D01*
X191783809Y-91758034D01*
X191773338Y-91753888D01*
X191771007Y-91753494D01*
X191705694Y-91727106D01*
X191626055Y-91695575D01*
X191560799Y-91649200D01*
X191504117Y-91610388D01*
X191499966Y-91605968D01*
X191487754Y-91597289D01*
X191441539Y-91543749D01*
X191399855Y-91499360D01*
X191392337Y-91486749D01*
X191376888Y-91468851D01*
X191348766Y-91413658D01*
X191321865Y-91368532D01*
X191314515Y-91346437D01*
X191299860Y-91317675D01*
X191287698Y-91265822D01*
X191273790Y-91224013D01*
X191270460Y-91192326D01*
X191261116Y-91152489D01*
X191261583Y-91107871D01*
X191257870Y-91072540D01*
X191262374Y-91032384D01*
X191262893Y-90982829D01*
X191271841Y-90947979D01*
X191274847Y-90921179D01*
X191290613Y-90874867D01*
X191305088Y-90818491D01*
X191318008Y-90794395D01*
X191323930Y-90777000D01*
X191353632Y-90727956D01*
X191385265Y-90668961D01*
X191397776Y-90655066D01*
X191402832Y-90646718D01*
X191448009Y-90599278D01*
X191498796Y-90542873D01*
X191507088Y-90537237D01*
X191507865Y-90536422D01*
X191564438Y-90498263D01*
X191639126Y-90447505D01*
X191712784Y-90420112D01*
X191775747Y-90395183D01*
X191782953Y-90394016D01*
X191798153Y-90388363D01*
X191867133Y-90380382D01*
X191926096Y-90370832D01*
X191941990Y-90371721D01*
X191966697Y-90368862D01*
X192026906Y-90376468D01*
X192026906Y-90376468D01*
G37*
G36*
X184906906Y-90376468D02*
G01*
X184958167Y-90379334D01*
X184981780Y-90385927D01*
X185015028Y-90390127D01*
X185063592Y-90408769D01*
X185104863Y-90420292D01*
X185134079Y-90435826D01*
X185173428Y-90450931D01*
X185209050Y-90475689D01*
X185239345Y-90491797D01*
X185271049Y-90518779D01*
X185312751Y-90547763D01*
X185335730Y-90573828D01*
X185355334Y-90590512D01*
X185385642Y-90630442D01*
X185424955Y-90675033D01*
X185437050Y-90698169D01*
X185447418Y-90711828D01*
X185471973Y-90764970D01*
X185503562Y-90825394D01*
X185507726Y-90842346D01*
X185511304Y-90850090D01*
X185525609Y-90915153D01*
X185544034Y-90990166D01*
X185543946Y-90998555D01*
X185543963Y-90998632D01*
X185543413Y-91156259D01*
X185542240Y-91161422D01*
X185542103Y-91174497D01*
X185523469Y-91244043D01*
X185509717Y-91304569D01*
X185503989Y-91316741D01*
X185498190Y-91338385D01*
X185467750Y-91393754D01*
X185444867Y-91442384D01*
X185431406Y-91459864D01*
X185416451Y-91487066D01*
X185379569Y-91527175D01*
X185351939Y-91563053D01*
X185328465Y-91582750D01*
X185301606Y-91611959D01*
X185263418Y-91637331D01*
X185235263Y-91660956D01*
X185200531Y-91679113D01*
X185160286Y-91705852D01*
X185125268Y-91718460D01*
X185100287Y-91731519D01*
X185054257Y-91744025D01*
X185000648Y-91763326D01*
X184972225Y-91766313D01*
X184953308Y-91771453D01*
X184897223Y-91774196D01*
X184831908Y-91781061D01*
X184812165Y-91778357D01*
X184801178Y-91778894D01*
X184737658Y-91768150D01*
X184663809Y-91758034D01*
X184653338Y-91753888D01*
X184651007Y-91753494D01*
X184585694Y-91727106D01*
X184506055Y-91695575D01*
X184440799Y-91649200D01*
X184384117Y-91610388D01*
X184379966Y-91605968D01*
X184367754Y-91597289D01*
X184321539Y-91543749D01*
X184279855Y-91499360D01*
X184272337Y-91486749D01*
X184256888Y-91468851D01*
X184228766Y-91413658D01*
X184201865Y-91368532D01*
X184194515Y-91346437D01*
X184179860Y-91317675D01*
X184167698Y-91265822D01*
X184153790Y-91224013D01*
X184150460Y-91192326D01*
X184141116Y-91152489D01*
X184141583Y-91107871D01*
X184137870Y-91072540D01*
X184142374Y-91032384D01*
X184142893Y-90982829D01*
X184151841Y-90947979D01*
X184154847Y-90921179D01*
X184170613Y-90874867D01*
X184185088Y-90818491D01*
X184198008Y-90794395D01*
X184203930Y-90777000D01*
X184233632Y-90727956D01*
X184265265Y-90668961D01*
X184277776Y-90655066D01*
X184282832Y-90646718D01*
X184328009Y-90599278D01*
X184378796Y-90542873D01*
X184387088Y-90537237D01*
X184387865Y-90536422D01*
X184444438Y-90498263D01*
X184519126Y-90447505D01*
X184592784Y-90420112D01*
X184655747Y-90395183D01*
X184662953Y-90394016D01*
X184678153Y-90388363D01*
X184747133Y-90380382D01*
X184806096Y-90370832D01*
X184821990Y-90371721D01*
X184846697Y-90368862D01*
X184906906Y-90376468D01*
X184906906Y-90376468D01*
G37*
G36*
X190246906Y-90376468D02*
G01*
X190298167Y-90379334D01*
X190321780Y-90385927D01*
X190355028Y-90390127D01*
X190403592Y-90408769D01*
X190444863Y-90420292D01*
X190474079Y-90435826D01*
X190513428Y-90450931D01*
X190549050Y-90475689D01*
X190579345Y-90491797D01*
X190611049Y-90518779D01*
X190652751Y-90547763D01*
X190675730Y-90573828D01*
X190695334Y-90590512D01*
X190725642Y-90630442D01*
X190764955Y-90675033D01*
X190777050Y-90698169D01*
X190787418Y-90711828D01*
X190811973Y-90764970D01*
X190843562Y-90825394D01*
X190847726Y-90842346D01*
X190851304Y-90850090D01*
X190865609Y-90915153D01*
X190884034Y-90990166D01*
X190883946Y-90998555D01*
X190883963Y-90998632D01*
X190883413Y-91156259D01*
X190882240Y-91161422D01*
X190882103Y-91174497D01*
X190863469Y-91244043D01*
X190849717Y-91304569D01*
X190843989Y-91316741D01*
X190838190Y-91338385D01*
X190807750Y-91393754D01*
X190784867Y-91442384D01*
X190771406Y-91459864D01*
X190756451Y-91487066D01*
X190719569Y-91527175D01*
X190691939Y-91563053D01*
X190668465Y-91582750D01*
X190641606Y-91611959D01*
X190603418Y-91637331D01*
X190575263Y-91660956D01*
X190540531Y-91679113D01*
X190500286Y-91705852D01*
X190465268Y-91718460D01*
X190440287Y-91731519D01*
X190394257Y-91744025D01*
X190340648Y-91763326D01*
X190312225Y-91766313D01*
X190293308Y-91771453D01*
X190237223Y-91774196D01*
X190171908Y-91781061D01*
X190152165Y-91778357D01*
X190141178Y-91778894D01*
X190077658Y-91768150D01*
X190003809Y-91758034D01*
X189993338Y-91753888D01*
X189991007Y-91753494D01*
X189925694Y-91727106D01*
X189846055Y-91695575D01*
X189780799Y-91649200D01*
X189724117Y-91610388D01*
X189719966Y-91605968D01*
X189707754Y-91597289D01*
X189661539Y-91543749D01*
X189619855Y-91499360D01*
X189612337Y-91486749D01*
X189596888Y-91468851D01*
X189568766Y-91413658D01*
X189541865Y-91368532D01*
X189534515Y-91346437D01*
X189519860Y-91317675D01*
X189507698Y-91265822D01*
X189493790Y-91224013D01*
X189490460Y-91192326D01*
X189481116Y-91152489D01*
X189481583Y-91107871D01*
X189477870Y-91072540D01*
X189482374Y-91032384D01*
X189482893Y-90982829D01*
X189491841Y-90947979D01*
X189494847Y-90921179D01*
X189510613Y-90874867D01*
X189525088Y-90818491D01*
X189538008Y-90794395D01*
X189543930Y-90777000D01*
X189573632Y-90727956D01*
X189605265Y-90668961D01*
X189617776Y-90655066D01*
X189622832Y-90646718D01*
X189668009Y-90599278D01*
X189718796Y-90542873D01*
X189727088Y-90537237D01*
X189727865Y-90536422D01*
X189784438Y-90498263D01*
X189859126Y-90447505D01*
X189932784Y-90420112D01*
X189995747Y-90395183D01*
X190002953Y-90394016D01*
X190018153Y-90388363D01*
X190087133Y-90380382D01*
X190146096Y-90370832D01*
X190161990Y-90371721D01*
X190186697Y-90368862D01*
X190246906Y-90376468D01*
X190246906Y-90376468D01*
G37*
G36*
X186686906Y-90376468D02*
G01*
X186738167Y-90379334D01*
X186761780Y-90385927D01*
X186795028Y-90390127D01*
X186843592Y-90408769D01*
X186884863Y-90420292D01*
X186914079Y-90435826D01*
X186953428Y-90450931D01*
X186989050Y-90475689D01*
X187019345Y-90491797D01*
X187051049Y-90518779D01*
X187092751Y-90547763D01*
X187115730Y-90573828D01*
X187135334Y-90590512D01*
X187165642Y-90630442D01*
X187204955Y-90675033D01*
X187217050Y-90698169D01*
X187227418Y-90711828D01*
X187251973Y-90764970D01*
X187283562Y-90825394D01*
X187287726Y-90842346D01*
X187291304Y-90850090D01*
X187305609Y-90915153D01*
X187324034Y-90990166D01*
X187323946Y-90998555D01*
X187323963Y-90998632D01*
X187323413Y-91156259D01*
X187322240Y-91161422D01*
X187322103Y-91174497D01*
X187303469Y-91244043D01*
X187289717Y-91304569D01*
X187283989Y-91316741D01*
X187278190Y-91338385D01*
X187247750Y-91393754D01*
X187224867Y-91442384D01*
X187211406Y-91459864D01*
X187196451Y-91487066D01*
X187159569Y-91527175D01*
X187131939Y-91563053D01*
X187108465Y-91582750D01*
X187081606Y-91611959D01*
X187043418Y-91637331D01*
X187015263Y-91660956D01*
X186980531Y-91679113D01*
X186940286Y-91705852D01*
X186905268Y-91718460D01*
X186880287Y-91731519D01*
X186834257Y-91744025D01*
X186780648Y-91763326D01*
X186752225Y-91766313D01*
X186733308Y-91771453D01*
X186677223Y-91774196D01*
X186611908Y-91781061D01*
X186592165Y-91778357D01*
X186581178Y-91778894D01*
X186517658Y-91768150D01*
X186443809Y-91758034D01*
X186433338Y-91753888D01*
X186431007Y-91753494D01*
X186365694Y-91727106D01*
X186286055Y-91695575D01*
X186220799Y-91649200D01*
X186164117Y-91610388D01*
X186159966Y-91605968D01*
X186147754Y-91597289D01*
X186101539Y-91543749D01*
X186059855Y-91499360D01*
X186052337Y-91486749D01*
X186036888Y-91468851D01*
X186008766Y-91413658D01*
X185981865Y-91368532D01*
X185974515Y-91346437D01*
X185959860Y-91317675D01*
X185947698Y-91265822D01*
X185933790Y-91224013D01*
X185930460Y-91192326D01*
X185921116Y-91152489D01*
X185921583Y-91107871D01*
X185917870Y-91072540D01*
X185922374Y-91032384D01*
X185922893Y-90982829D01*
X185931841Y-90947979D01*
X185934847Y-90921179D01*
X185950613Y-90874867D01*
X185965088Y-90818491D01*
X185978008Y-90794395D01*
X185983930Y-90777000D01*
X186013632Y-90727956D01*
X186045265Y-90668961D01*
X186057776Y-90655066D01*
X186062832Y-90646718D01*
X186108009Y-90599278D01*
X186158796Y-90542873D01*
X186167088Y-90537237D01*
X186167865Y-90536422D01*
X186224438Y-90498263D01*
X186299126Y-90447505D01*
X186372784Y-90420112D01*
X186435747Y-90395183D01*
X186442953Y-90394016D01*
X186458153Y-90388363D01*
X186527133Y-90380382D01*
X186586096Y-90370832D01*
X186601990Y-90371721D01*
X186626697Y-90368862D01*
X186686906Y-90376468D01*
X186686906Y-90376468D01*
G37*
G36*
X188466906Y-90376468D02*
G01*
X188518167Y-90379334D01*
X188541780Y-90385927D01*
X188575028Y-90390127D01*
X188623592Y-90408769D01*
X188664863Y-90420292D01*
X188694079Y-90435826D01*
X188733428Y-90450931D01*
X188769050Y-90475689D01*
X188799345Y-90491797D01*
X188831049Y-90518779D01*
X188872751Y-90547763D01*
X188895730Y-90573828D01*
X188915334Y-90590512D01*
X188945642Y-90630442D01*
X188984955Y-90675033D01*
X188997050Y-90698169D01*
X189007418Y-90711828D01*
X189031973Y-90764970D01*
X189063562Y-90825394D01*
X189067726Y-90842346D01*
X189071304Y-90850090D01*
X189085609Y-90915153D01*
X189104034Y-90990166D01*
X189103946Y-90998555D01*
X189103963Y-90998632D01*
X189103413Y-91156259D01*
X189102240Y-91161422D01*
X189102103Y-91174497D01*
X189083469Y-91244043D01*
X189069717Y-91304569D01*
X189063989Y-91316741D01*
X189058190Y-91338385D01*
X189027750Y-91393754D01*
X189004867Y-91442384D01*
X188991406Y-91459864D01*
X188976451Y-91487066D01*
X188939569Y-91527175D01*
X188911939Y-91563053D01*
X188888465Y-91582750D01*
X188861606Y-91611959D01*
X188823418Y-91637331D01*
X188795263Y-91660956D01*
X188760531Y-91679113D01*
X188720286Y-91705852D01*
X188685268Y-91718460D01*
X188660287Y-91731519D01*
X188614257Y-91744025D01*
X188560648Y-91763326D01*
X188532225Y-91766313D01*
X188513308Y-91771453D01*
X188457223Y-91774196D01*
X188391908Y-91781061D01*
X188372165Y-91778357D01*
X188361178Y-91778894D01*
X188297658Y-91768150D01*
X188223809Y-91758034D01*
X188213338Y-91753888D01*
X188211007Y-91753494D01*
X188145694Y-91727106D01*
X188066055Y-91695575D01*
X188000799Y-91649200D01*
X187944117Y-91610388D01*
X187939966Y-91605968D01*
X187927754Y-91597289D01*
X187881539Y-91543749D01*
X187839855Y-91499360D01*
X187832337Y-91486749D01*
X187816888Y-91468851D01*
X187788766Y-91413658D01*
X187761865Y-91368532D01*
X187754515Y-91346437D01*
X187739860Y-91317675D01*
X187727698Y-91265822D01*
X187713790Y-91224013D01*
X187710460Y-91192326D01*
X187701116Y-91152489D01*
X187701583Y-91107871D01*
X187697870Y-91072540D01*
X187702374Y-91032384D01*
X187702893Y-90982829D01*
X187711841Y-90947979D01*
X187714847Y-90921179D01*
X187730613Y-90874867D01*
X187745088Y-90818491D01*
X187758008Y-90794395D01*
X187763930Y-90777000D01*
X187793632Y-90727956D01*
X187825265Y-90668961D01*
X187837776Y-90655066D01*
X187842832Y-90646718D01*
X187888009Y-90599278D01*
X187938796Y-90542873D01*
X187947088Y-90537237D01*
X187947865Y-90536422D01*
X188004438Y-90498263D01*
X188079126Y-90447505D01*
X188152784Y-90420112D01*
X188215747Y-90395183D01*
X188222953Y-90394016D01*
X188238153Y-90388363D01*
X188307133Y-90380382D01*
X188366096Y-90370832D01*
X188381990Y-90371721D01*
X188406697Y-90368862D01*
X188466906Y-90376468D01*
X188466906Y-90376468D01*
G37*
G36*
X205188360Y-87973835D02*
G01*
X205269397Y-88000166D01*
X205356663Y-88027848D01*
X205359655Y-88029493D01*
X205368488Y-88032363D01*
X205440466Y-88073919D01*
X205511499Y-88112970D01*
X205518986Y-88119253D01*
X205532511Y-88127061D01*
X205590259Y-88179057D01*
X205646857Y-88226549D01*
X205656962Y-88239118D01*
X205673261Y-88253793D01*
X205715454Y-88311867D01*
X205757579Y-88364260D01*
X205767994Y-88384182D01*
X205784586Y-88407019D01*
X205811297Y-88467012D01*
X205839439Y-88520843D01*
X205847582Y-88548510D01*
X205861621Y-88580042D01*
X205873992Y-88638241D01*
X205889328Y-88690349D01*
X205892518Y-88725401D01*
X205900999Y-88765301D01*
X205900999Y-88818592D01*
X205905343Y-88866324D01*
X205900999Y-88907653D01*
X205900999Y-88954699D01*
X205891217Y-89000721D01*
X205886873Y-89042047D01*
X205872702Y-89087827D01*
X205861621Y-89139958D01*
X205845028Y-89177226D01*
X205834622Y-89210843D01*
X205808789Y-89258620D01*
X205784586Y-89312981D01*
X205764298Y-89340905D01*
X205750580Y-89366276D01*
X205711859Y-89413082D01*
X205673261Y-89466207D01*
X205652284Y-89485095D01*
X205637952Y-89502419D01*
X205585845Y-89544917D01*
X205532511Y-89592939D01*
X205513524Y-89603901D01*
X205501025Y-89614095D01*
X205435780Y-89648786D01*
X205368488Y-89687637D01*
X205353636Y-89692463D01*
X205345003Y-89697053D01*
X205267430Y-89720473D01*
X205188360Y-89746165D01*
X205179114Y-89747137D01*
X205175851Y-89748122D01*
X205084710Y-89757059D01*
X205047211Y-89761000D01*
X204952789Y-89761000D01*
X204811640Y-89746165D01*
X204730603Y-89719834D01*
X204643337Y-89692152D01*
X204640345Y-89690507D01*
X204631512Y-89687637D01*
X204559534Y-89646081D01*
X204488501Y-89607030D01*
X204481014Y-89600747D01*
X204467489Y-89592939D01*
X204409741Y-89540943D01*
X204353143Y-89493451D01*
X204343038Y-89480882D01*
X204326739Y-89466207D01*
X204284546Y-89408133D01*
X204242421Y-89355740D01*
X204232006Y-89335818D01*
X204215414Y-89312981D01*
X204188703Y-89252988D01*
X204160561Y-89199157D01*
X204152418Y-89171490D01*
X204138379Y-89139958D01*
X204126008Y-89081759D01*
X204110672Y-89029651D01*
X204107482Y-88994599D01*
X204099001Y-88954699D01*
X204099001Y-88901408D01*
X204094657Y-88853676D01*
X204099001Y-88812347D01*
X204099001Y-88765301D01*
X204108783Y-88719279D01*
X204113127Y-88677953D01*
X204127298Y-88632173D01*
X204138379Y-88580042D01*
X204154972Y-88542774D01*
X204165378Y-88509157D01*
X204191211Y-88461380D01*
X204215414Y-88407019D01*
X204235702Y-88379095D01*
X204249420Y-88353724D01*
X204288141Y-88306918D01*
X204326739Y-88253793D01*
X204347716Y-88234905D01*
X204362048Y-88217581D01*
X204414155Y-88175083D01*
X204467489Y-88127061D01*
X204486476Y-88116099D01*
X204498975Y-88105905D01*
X204564220Y-88071214D01*
X204631512Y-88032363D01*
X204646364Y-88027537D01*
X204654997Y-88022947D01*
X204732570Y-87999527D01*
X204811640Y-87973835D01*
X204820886Y-87972863D01*
X204824149Y-87971878D01*
X204915290Y-87962941D01*
X204952789Y-87959000D01*
X205047211Y-87959000D01*
X205188360Y-87973835D01*
X205188360Y-87973835D01*
G37*
G36*
X230940675Y-85468627D02*
G01*
X230981905Y-85470680D01*
X231030080Y-85482468D01*
X231084954Y-85490963D01*
X231123728Y-85505383D01*
X231158176Y-85513812D01*
X231208544Y-85536925D01*
X231266037Y-85558307D01*
X231296173Y-85577138D01*
X231323107Y-85589498D01*
X231372922Y-85625097D01*
X231429880Y-85660688D01*
X231451387Y-85681168D01*
X231470749Y-85695005D01*
X231516931Y-85743585D01*
X231569790Y-85793922D01*
X231583404Y-85813511D01*
X231595782Y-85826531D01*
X231635083Y-85887866D01*
X231680052Y-85952569D01*
X231687145Y-85969119D01*
X231693683Y-85979322D01*
X231722818Y-86052349D01*
X231756162Y-86130146D01*
X231758606Y-86142051D01*
X231760928Y-86147872D01*
X231776813Y-86230748D01*
X231795010Y-86319400D01*
X231794988Y-86325580D01*
X231795056Y-86325932D01*
X231794404Y-86512704D01*
X231794335Y-86513053D01*
X231794313Y-86519237D01*
X231775491Y-86607785D01*
X231759034Y-86690522D01*
X231756671Y-86696327D01*
X231754144Y-86708215D01*
X231720246Y-86785806D01*
X231690613Y-86858599D01*
X231684009Y-86868748D01*
X231676797Y-86885257D01*
X231631357Y-86949672D01*
X231591645Y-87010707D01*
X231579180Y-87023637D01*
X231565430Y-87043129D01*
X231512221Y-87093096D01*
X231465704Y-87141349D01*
X231446248Y-87155048D01*
X231424593Y-87175384D01*
X231367380Y-87210582D01*
X231317323Y-87245828D01*
X231290302Y-87258000D01*
X231260039Y-87276618D01*
X231202399Y-87297597D01*
X231151868Y-87320360D01*
X231117362Y-87328549D01*
X231078490Y-87342697D01*
X231023568Y-87350807D01*
X230975307Y-87362260D01*
X230934057Y-87364025D01*
X230887363Y-87370920D01*
X230837741Y-87368146D01*
X230794000Y-87370017D01*
X230747403Y-87363095D01*
X230694464Y-87360135D01*
X230652057Y-87348931D01*
X230614504Y-87343352D01*
X230564566Y-87325815D01*
X230507673Y-87310783D01*
X230473600Y-87293869D01*
X230443288Y-87283224D01*
X230392557Y-87253639D01*
X230334621Y-87224879D01*
X230309245Y-87205053D01*
X230286528Y-87191805D01*
X230237930Y-87149335D01*
X230182378Y-87105933D01*
X230165292Y-87085857D01*
X230149884Y-87072392D01*
X230106628Y-87016928D01*
X230057161Y-86958804D01*
X230047277Y-86940825D01*
X230038285Y-86929295D01*
X230003661Y-86861488D01*
X229964086Y-86789501D01*
X229959749Y-86775492D01*
X229955760Y-86767679D01*
X229932983Y-86689022D01*
X229906955Y-86604941D01*
X229906095Y-86596173D01*
X229905285Y-86593375D01*
X229897295Y-86506423D01*
X229888102Y-86412663D01*
X229897949Y-86318976D01*
X229906546Y-86232079D01*
X229907376Y-86229287D01*
X229908297Y-86220521D01*
X229934920Y-86136594D01*
X229958237Y-86058129D01*
X229962280Y-86050346D01*
X229966715Y-86036365D01*
X230006811Y-85964621D01*
X230041891Y-85897090D01*
X230050956Y-85885632D01*
X230060969Y-85867716D01*
X230110849Y-85809930D01*
X230154484Y-85754776D01*
X230169984Y-85741420D01*
X230187210Y-85721464D01*
X230243069Y-85678447D01*
X230291959Y-85636321D01*
X230314768Y-85623232D01*
X230340281Y-85603584D01*
X230398401Y-85575237D01*
X230449350Y-85545999D01*
X230479746Y-85535562D01*
X230513928Y-85518891D01*
X230570921Y-85504258D01*
X230620983Y-85487069D01*
X230658572Y-85481753D01*
X230701059Y-85470844D01*
X230754020Y-85468254D01*
X230800663Y-85461657D01*
X230844388Y-85463834D01*
X230894028Y-85461406D01*
X230940675Y-85468627D01*
X230940675Y-85468627D01*
G37*
G36*
X206804463Y-83744394D02*
G01*
X206861602Y-83765191D01*
X206891554Y-83770905D01*
X206919481Y-83786258D01*
X206941293Y-83794197D01*
X206984086Y-83821775D01*
X207035689Y-83850144D01*
X207052276Y-83865720D01*
X207064058Y-83873313D01*
X207106333Y-83916483D01*
X207155591Y-83962739D01*
X207162884Y-83974231D01*
X207166247Y-83977665D01*
X207203768Y-84038654D01*
X207243724Y-84101615D01*
X207266754Y-84172494D01*
X207289844Y-84240321D01*
X207290347Y-84245106D01*
X207294551Y-84258045D01*
X207298793Y-84325466D01*
X207305110Y-84385572D01*
X207303450Y-84399492D01*
X207304879Y-84422202D01*
X207293845Y-84480045D01*
X207287817Y-84530599D01*
X207280030Y-84552467D01*
X207274059Y-84583769D01*
X207252787Y-84628975D01*
X207238823Y-84668189D01*
X207221457Y-84695553D01*
X207204026Y-84732596D01*
X207177930Y-84764140D01*
X207160564Y-84791505D01*
X207131026Y-84820838D01*
X207099182Y-84859330D01*
X207073403Y-84878060D01*
X207056931Y-84894417D01*
X207013757Y-84921395D01*
X206966114Y-84956010D01*
X206944955Y-84964387D01*
X206933070Y-84971814D01*
X206876010Y-84991685D01*
X206813184Y-85016559D01*
X206799683Y-85018265D01*
X206795142Y-85019846D01*
X206723983Y-85027828D01*
X206690956Y-85032000D01*
X206066252Y-85032000D01*
X205945537Y-85017606D01*
X205888398Y-84996809D01*
X205858446Y-84991095D01*
X205830519Y-84975742D01*
X205808707Y-84967803D01*
X205765914Y-84940225D01*
X205714311Y-84911856D01*
X205697724Y-84896280D01*
X205685942Y-84888687D01*
X205643667Y-84845517D01*
X205594409Y-84799261D01*
X205587116Y-84787769D01*
X205583753Y-84784335D01*
X205546232Y-84723346D01*
X205506276Y-84660385D01*
X205483246Y-84589506D01*
X205460156Y-84521679D01*
X205459653Y-84516894D01*
X205455449Y-84503955D01*
X205451207Y-84436534D01*
X205444890Y-84376428D01*
X205446550Y-84362508D01*
X205445121Y-84339798D01*
X205456155Y-84281955D01*
X205462183Y-84231401D01*
X205469970Y-84209533D01*
X205475941Y-84178231D01*
X205497213Y-84133025D01*
X205511177Y-84093811D01*
X205528543Y-84066447D01*
X205545974Y-84029404D01*
X205572070Y-83997860D01*
X205589436Y-83970495D01*
X205618974Y-83941162D01*
X205650818Y-83902670D01*
X205676597Y-83883940D01*
X205693069Y-83867583D01*
X205736243Y-83840605D01*
X205783886Y-83805990D01*
X205805045Y-83797613D01*
X205816930Y-83790186D01*
X205873990Y-83770315D01*
X205936816Y-83745441D01*
X205950317Y-83743735D01*
X205954858Y-83742154D01*
X206026017Y-83734172D01*
X206059044Y-83730000D01*
X206683748Y-83730000D01*
X206804463Y-83744394D01*
X206804463Y-83744394D01*
G37*
G36*
X231763899Y-82927959D02*
G01*
X231780769Y-82939231D01*
X231792041Y-82956101D01*
X231798448Y-82988312D01*
X231798448Y-84763688D01*
X231795999Y-84776000D01*
X231792041Y-84795899D01*
X231780769Y-84812769D01*
X231763899Y-84824041D01*
X231744000Y-84827999D01*
X231731688Y-84830448D01*
X229956312Y-84830448D01*
X229924101Y-84824041D01*
X229907231Y-84812769D01*
X229895959Y-84795899D01*
X229889552Y-84763688D01*
X229889552Y-82988312D01*
X229895959Y-82956101D01*
X229907231Y-82939231D01*
X229924101Y-82927959D01*
X229956312Y-82921552D01*
X231731688Y-82921552D01*
X231763899Y-82927959D01*
X231763899Y-82927959D01*
G37*
G36*
X206804463Y-81744394D02*
G01*
X206861602Y-81765191D01*
X206891554Y-81770905D01*
X206919481Y-81786258D01*
X206941293Y-81794197D01*
X206984086Y-81821775D01*
X207035689Y-81850144D01*
X207052276Y-81865720D01*
X207064058Y-81873313D01*
X207106333Y-81916483D01*
X207155591Y-81962739D01*
X207162884Y-81974231D01*
X207166247Y-81977665D01*
X207203768Y-82038654D01*
X207243724Y-82101615D01*
X207266754Y-82172494D01*
X207289844Y-82240321D01*
X207290347Y-82245106D01*
X207294551Y-82258045D01*
X207298793Y-82325466D01*
X207305110Y-82385572D01*
X207303450Y-82399492D01*
X207304879Y-82422202D01*
X207293845Y-82480045D01*
X207287817Y-82530599D01*
X207280030Y-82552467D01*
X207274059Y-82583769D01*
X207252787Y-82628975D01*
X207238823Y-82668189D01*
X207221457Y-82695553D01*
X207204026Y-82732596D01*
X207177930Y-82764140D01*
X207160564Y-82791505D01*
X207131026Y-82820838D01*
X207099182Y-82859330D01*
X207073403Y-82878060D01*
X207056931Y-82894417D01*
X207013757Y-82921395D01*
X206966114Y-82956010D01*
X206944955Y-82964387D01*
X206933070Y-82971814D01*
X206876010Y-82991685D01*
X206813184Y-83016559D01*
X206799683Y-83018265D01*
X206795142Y-83019846D01*
X206723983Y-83027828D01*
X206690956Y-83032000D01*
X206066252Y-83032000D01*
X205945537Y-83017606D01*
X205888398Y-82996809D01*
X205858446Y-82991095D01*
X205830519Y-82975742D01*
X205808707Y-82967803D01*
X205765914Y-82940225D01*
X205714311Y-82911856D01*
X205697724Y-82896280D01*
X205685942Y-82888687D01*
X205643667Y-82845517D01*
X205594409Y-82799261D01*
X205587116Y-82787769D01*
X205583753Y-82784335D01*
X205546232Y-82723346D01*
X205506276Y-82660385D01*
X205483246Y-82589506D01*
X205460156Y-82521679D01*
X205459653Y-82516894D01*
X205455449Y-82503955D01*
X205451207Y-82436534D01*
X205444890Y-82376428D01*
X205446550Y-82362508D01*
X205445121Y-82339798D01*
X205456155Y-82281955D01*
X205462183Y-82231401D01*
X205469970Y-82209533D01*
X205475941Y-82178231D01*
X205497213Y-82133025D01*
X205511177Y-82093811D01*
X205528543Y-82066447D01*
X205545974Y-82029404D01*
X205572070Y-81997860D01*
X205589436Y-81970495D01*
X205618974Y-81941162D01*
X205650818Y-81902670D01*
X205676597Y-81883940D01*
X205693069Y-81867583D01*
X205736243Y-81840605D01*
X205783886Y-81805990D01*
X205805045Y-81797613D01*
X205816930Y-81790186D01*
X205873990Y-81770315D01*
X205936816Y-81745441D01*
X205950317Y-81743735D01*
X205954858Y-81742154D01*
X206026017Y-81734172D01*
X206059044Y-81730000D01*
X206683748Y-81730000D01*
X206804463Y-81744394D01*
X206804463Y-81744394D01*
G37*
G36*
X201669899Y-79551959D02*
G01*
X201686769Y-79563231D01*
X201698041Y-79580101D01*
X201704448Y-79612312D01*
X201704448Y-81287688D01*
X201701999Y-81300000D01*
X201698041Y-81319899D01*
X201686769Y-81336769D01*
X201669899Y-81348041D01*
X201650000Y-81351999D01*
X201637688Y-81354448D01*
X199962312Y-81354448D01*
X199930101Y-81348041D01*
X199913231Y-81336769D01*
X199901959Y-81319899D01*
X199895552Y-81287688D01*
X199895552Y-79612312D01*
X199901959Y-79580101D01*
X199913231Y-79563231D01*
X199930101Y-79551959D01*
X199962312Y-79545552D01*
X201637688Y-79545552D01*
X201669899Y-79551959D01*
X201669899Y-79551959D01*
G37*
G36*
X194696906Y-79676468D02*
G01*
X194748167Y-79679334D01*
X194771780Y-79685927D01*
X194805028Y-79690127D01*
X194853592Y-79708769D01*
X194894863Y-79720292D01*
X194924079Y-79735826D01*
X194963428Y-79750931D01*
X194999050Y-79775689D01*
X195029345Y-79791797D01*
X195061049Y-79818779D01*
X195102751Y-79847763D01*
X195125730Y-79873828D01*
X195145334Y-79890512D01*
X195175642Y-79930442D01*
X195214955Y-79975033D01*
X195227050Y-79998169D01*
X195237418Y-80011828D01*
X195261973Y-80064970D01*
X195293562Y-80125394D01*
X195297726Y-80142346D01*
X195301304Y-80150090D01*
X195315609Y-80215153D01*
X195334034Y-80290166D01*
X195333946Y-80298555D01*
X195333963Y-80298632D01*
X195333413Y-80456259D01*
X195332240Y-80461422D01*
X195332103Y-80474497D01*
X195313469Y-80544043D01*
X195299717Y-80604569D01*
X195293989Y-80616741D01*
X195288190Y-80638385D01*
X195257750Y-80693754D01*
X195234867Y-80742384D01*
X195221406Y-80759864D01*
X195206451Y-80787066D01*
X195169569Y-80827175D01*
X195141939Y-80863053D01*
X195118465Y-80882750D01*
X195091606Y-80911959D01*
X195053418Y-80937331D01*
X195025263Y-80960956D01*
X194990531Y-80979113D01*
X194950286Y-81005852D01*
X194915268Y-81018460D01*
X194890287Y-81031519D01*
X194844257Y-81044025D01*
X194790648Y-81063326D01*
X194762225Y-81066313D01*
X194743308Y-81071453D01*
X194687223Y-81074196D01*
X194621908Y-81081061D01*
X194602165Y-81078357D01*
X194591178Y-81078894D01*
X194527658Y-81068150D01*
X194453809Y-81058034D01*
X194443338Y-81053888D01*
X194441007Y-81053494D01*
X194375694Y-81027106D01*
X194296055Y-80995575D01*
X194230799Y-80949200D01*
X194174117Y-80910388D01*
X194169966Y-80905968D01*
X194157754Y-80897289D01*
X194111539Y-80843749D01*
X194069855Y-80799360D01*
X194062337Y-80786749D01*
X194046888Y-80768851D01*
X194018766Y-80713658D01*
X193991865Y-80668532D01*
X193984515Y-80646437D01*
X193969860Y-80617675D01*
X193957698Y-80565822D01*
X193943790Y-80524013D01*
X193940460Y-80492326D01*
X193931116Y-80452489D01*
X193931583Y-80407871D01*
X193927870Y-80372540D01*
X193932374Y-80332384D01*
X193932893Y-80282829D01*
X193941841Y-80247979D01*
X193944847Y-80221179D01*
X193960613Y-80174867D01*
X193975088Y-80118491D01*
X193988008Y-80094395D01*
X193993930Y-80077000D01*
X194023632Y-80027956D01*
X194055265Y-79968961D01*
X194067776Y-79955066D01*
X194072832Y-79946718D01*
X194118009Y-79899278D01*
X194168796Y-79842873D01*
X194177088Y-79837237D01*
X194177865Y-79836422D01*
X194234438Y-79798263D01*
X194309126Y-79747505D01*
X194382784Y-79720112D01*
X194445747Y-79695183D01*
X194452953Y-79694016D01*
X194468153Y-79688363D01*
X194537133Y-79680382D01*
X194596096Y-79670832D01*
X194611990Y-79671721D01*
X194636697Y-79668862D01*
X194696906Y-79676468D01*
X194696906Y-79676468D01*
G37*
G36*
X192916906Y-79676468D02*
G01*
X192968167Y-79679334D01*
X192991780Y-79685927D01*
X193025028Y-79690127D01*
X193073592Y-79708769D01*
X193114863Y-79720292D01*
X193144079Y-79735826D01*
X193183428Y-79750931D01*
X193219050Y-79775689D01*
X193249345Y-79791797D01*
X193281049Y-79818779D01*
X193322751Y-79847763D01*
X193345730Y-79873828D01*
X193365334Y-79890512D01*
X193395642Y-79930442D01*
X193434955Y-79975033D01*
X193447050Y-79998169D01*
X193457418Y-80011828D01*
X193481973Y-80064970D01*
X193513562Y-80125394D01*
X193517726Y-80142346D01*
X193521304Y-80150090D01*
X193535609Y-80215153D01*
X193554034Y-80290166D01*
X193553946Y-80298555D01*
X193553963Y-80298632D01*
X193553413Y-80456259D01*
X193552240Y-80461422D01*
X193552103Y-80474497D01*
X193533469Y-80544043D01*
X193519717Y-80604569D01*
X193513989Y-80616741D01*
X193508190Y-80638385D01*
X193477750Y-80693754D01*
X193454867Y-80742384D01*
X193441406Y-80759864D01*
X193426451Y-80787066D01*
X193389569Y-80827175D01*
X193361939Y-80863053D01*
X193338465Y-80882750D01*
X193311606Y-80911959D01*
X193273418Y-80937331D01*
X193245263Y-80960956D01*
X193210531Y-80979113D01*
X193170286Y-81005852D01*
X193135268Y-81018460D01*
X193110287Y-81031519D01*
X193064257Y-81044025D01*
X193010648Y-81063326D01*
X192982225Y-81066313D01*
X192963308Y-81071453D01*
X192907223Y-81074196D01*
X192841908Y-81081061D01*
X192822165Y-81078357D01*
X192811178Y-81078894D01*
X192747658Y-81068150D01*
X192673809Y-81058034D01*
X192663338Y-81053888D01*
X192661007Y-81053494D01*
X192595694Y-81027106D01*
X192516055Y-80995575D01*
X192450799Y-80949200D01*
X192394117Y-80910388D01*
X192389966Y-80905968D01*
X192377754Y-80897289D01*
X192331539Y-80843749D01*
X192289855Y-80799360D01*
X192282337Y-80786749D01*
X192266888Y-80768851D01*
X192238766Y-80713658D01*
X192211865Y-80668532D01*
X192204515Y-80646437D01*
X192189860Y-80617675D01*
X192177698Y-80565822D01*
X192163790Y-80524013D01*
X192160460Y-80492326D01*
X192151116Y-80452489D01*
X192151583Y-80407871D01*
X192147870Y-80372540D01*
X192152374Y-80332384D01*
X192152893Y-80282829D01*
X192161841Y-80247979D01*
X192164847Y-80221179D01*
X192180613Y-80174867D01*
X192195088Y-80118491D01*
X192208008Y-80094395D01*
X192213930Y-80077000D01*
X192243632Y-80027956D01*
X192275265Y-79968961D01*
X192287776Y-79955066D01*
X192292832Y-79946718D01*
X192338009Y-79899278D01*
X192388796Y-79842873D01*
X192397088Y-79837237D01*
X192397865Y-79836422D01*
X192454438Y-79798263D01*
X192529126Y-79747505D01*
X192602784Y-79720112D01*
X192665747Y-79695183D01*
X192672953Y-79694016D01*
X192688153Y-79688363D01*
X192757133Y-79680382D01*
X192816096Y-79670832D01*
X192831990Y-79671721D01*
X192856697Y-79668862D01*
X192916906Y-79676468D01*
X192916906Y-79676468D01*
G37*
G36*
X184016906Y-79676468D02*
G01*
X184068167Y-79679334D01*
X184091780Y-79685927D01*
X184125028Y-79690127D01*
X184173592Y-79708769D01*
X184214863Y-79720292D01*
X184244079Y-79735826D01*
X184283428Y-79750931D01*
X184319050Y-79775689D01*
X184349345Y-79791797D01*
X184381049Y-79818779D01*
X184422751Y-79847763D01*
X184445730Y-79873828D01*
X184465334Y-79890512D01*
X184495642Y-79930442D01*
X184534955Y-79975033D01*
X184547050Y-79998169D01*
X184557418Y-80011828D01*
X184581973Y-80064970D01*
X184613562Y-80125394D01*
X184617726Y-80142346D01*
X184621304Y-80150090D01*
X184635609Y-80215153D01*
X184654034Y-80290166D01*
X184653946Y-80298555D01*
X184653963Y-80298632D01*
X184653413Y-80456259D01*
X184652240Y-80461422D01*
X184652103Y-80474497D01*
X184633469Y-80544043D01*
X184619717Y-80604569D01*
X184613989Y-80616741D01*
X184608190Y-80638385D01*
X184577750Y-80693754D01*
X184554867Y-80742384D01*
X184541406Y-80759864D01*
X184526451Y-80787066D01*
X184489569Y-80827175D01*
X184461939Y-80863053D01*
X184438465Y-80882750D01*
X184411606Y-80911959D01*
X184373418Y-80937331D01*
X184345263Y-80960956D01*
X184310531Y-80979113D01*
X184270286Y-81005852D01*
X184235268Y-81018460D01*
X184210287Y-81031519D01*
X184164257Y-81044025D01*
X184110648Y-81063326D01*
X184082225Y-81066313D01*
X184063308Y-81071453D01*
X184007223Y-81074196D01*
X183941908Y-81081061D01*
X183922165Y-81078357D01*
X183911178Y-81078894D01*
X183847658Y-81068150D01*
X183773809Y-81058034D01*
X183763338Y-81053888D01*
X183761007Y-81053494D01*
X183695694Y-81027106D01*
X183616055Y-80995575D01*
X183550799Y-80949200D01*
X183494117Y-80910388D01*
X183489966Y-80905968D01*
X183477754Y-80897289D01*
X183431539Y-80843749D01*
X183389855Y-80799360D01*
X183382337Y-80786749D01*
X183366888Y-80768851D01*
X183338766Y-80713658D01*
X183311865Y-80668532D01*
X183304515Y-80646437D01*
X183289860Y-80617675D01*
X183277698Y-80565822D01*
X183263790Y-80524013D01*
X183260460Y-80492326D01*
X183251116Y-80452489D01*
X183251583Y-80407871D01*
X183247870Y-80372540D01*
X183252374Y-80332384D01*
X183252893Y-80282829D01*
X183261841Y-80247979D01*
X183264847Y-80221179D01*
X183280613Y-80174867D01*
X183295088Y-80118491D01*
X183308008Y-80094395D01*
X183313930Y-80077000D01*
X183343632Y-80027956D01*
X183375265Y-79968961D01*
X183387776Y-79955066D01*
X183392832Y-79946718D01*
X183438009Y-79899278D01*
X183488796Y-79842873D01*
X183497088Y-79837237D01*
X183497865Y-79836422D01*
X183554438Y-79798263D01*
X183629126Y-79747505D01*
X183702784Y-79720112D01*
X183765747Y-79695183D01*
X183772953Y-79694016D01*
X183788153Y-79688363D01*
X183857133Y-79680382D01*
X183916096Y-79670832D01*
X183931990Y-79671721D01*
X183956697Y-79668862D01*
X184016906Y-79676468D01*
X184016906Y-79676468D01*
G37*
G36*
X187576906Y-79676468D02*
G01*
X187628167Y-79679334D01*
X187651780Y-79685927D01*
X187685028Y-79690127D01*
X187733592Y-79708769D01*
X187774863Y-79720292D01*
X187804079Y-79735826D01*
X187843428Y-79750931D01*
X187879050Y-79775689D01*
X187909345Y-79791797D01*
X187941049Y-79818779D01*
X187982751Y-79847763D01*
X188005730Y-79873828D01*
X188025334Y-79890512D01*
X188055642Y-79930442D01*
X188094955Y-79975033D01*
X188107050Y-79998169D01*
X188117418Y-80011828D01*
X188141973Y-80064970D01*
X188173562Y-80125394D01*
X188177726Y-80142346D01*
X188181304Y-80150090D01*
X188195609Y-80215153D01*
X188214034Y-80290166D01*
X188213946Y-80298555D01*
X188213963Y-80298632D01*
X188213413Y-80456259D01*
X188212240Y-80461422D01*
X188212103Y-80474497D01*
X188193469Y-80544043D01*
X188179717Y-80604569D01*
X188173989Y-80616741D01*
X188168190Y-80638385D01*
X188137750Y-80693754D01*
X188114867Y-80742384D01*
X188101406Y-80759864D01*
X188086451Y-80787066D01*
X188049569Y-80827175D01*
X188021939Y-80863053D01*
X187998465Y-80882750D01*
X187971606Y-80911959D01*
X187933418Y-80937331D01*
X187905263Y-80960956D01*
X187870531Y-80979113D01*
X187830286Y-81005852D01*
X187795268Y-81018460D01*
X187770287Y-81031519D01*
X187724257Y-81044025D01*
X187670648Y-81063326D01*
X187642225Y-81066313D01*
X187623308Y-81071453D01*
X187567223Y-81074196D01*
X187501908Y-81081061D01*
X187482165Y-81078357D01*
X187471178Y-81078894D01*
X187407658Y-81068150D01*
X187333809Y-81058034D01*
X187323338Y-81053888D01*
X187321007Y-81053494D01*
X187255694Y-81027106D01*
X187176055Y-80995575D01*
X187110799Y-80949200D01*
X187054117Y-80910388D01*
X187049966Y-80905968D01*
X187037754Y-80897289D01*
X186991539Y-80843749D01*
X186949855Y-80799360D01*
X186942337Y-80786749D01*
X186926888Y-80768851D01*
X186898766Y-80713658D01*
X186871865Y-80668532D01*
X186864515Y-80646437D01*
X186849860Y-80617675D01*
X186837698Y-80565822D01*
X186823790Y-80524013D01*
X186820460Y-80492326D01*
X186811116Y-80452489D01*
X186811583Y-80407871D01*
X186807870Y-80372540D01*
X186812374Y-80332384D01*
X186812893Y-80282829D01*
X186821841Y-80247979D01*
X186824847Y-80221179D01*
X186840613Y-80174867D01*
X186855088Y-80118491D01*
X186868008Y-80094395D01*
X186873930Y-80077000D01*
X186903632Y-80027956D01*
X186935265Y-79968961D01*
X186947776Y-79955066D01*
X186952832Y-79946718D01*
X186998009Y-79899278D01*
X187048796Y-79842873D01*
X187057088Y-79837237D01*
X187057865Y-79836422D01*
X187114438Y-79798263D01*
X187189126Y-79747505D01*
X187262784Y-79720112D01*
X187325747Y-79695183D01*
X187332953Y-79694016D01*
X187348153Y-79688363D01*
X187417133Y-79680382D01*
X187476096Y-79670832D01*
X187491990Y-79671721D01*
X187516697Y-79668862D01*
X187576906Y-79676468D01*
X187576906Y-79676468D01*
G37*
G36*
X196476906Y-79676468D02*
G01*
X196528167Y-79679334D01*
X196551780Y-79685927D01*
X196585028Y-79690127D01*
X196633592Y-79708769D01*
X196674863Y-79720292D01*
X196704079Y-79735826D01*
X196743428Y-79750931D01*
X196779050Y-79775689D01*
X196809345Y-79791797D01*
X196841049Y-79818779D01*
X196882751Y-79847763D01*
X196905730Y-79873828D01*
X196925334Y-79890512D01*
X196955642Y-79930442D01*
X196994955Y-79975033D01*
X197007050Y-79998169D01*
X197017418Y-80011828D01*
X197041973Y-80064970D01*
X197073562Y-80125394D01*
X197077726Y-80142346D01*
X197081304Y-80150090D01*
X197095609Y-80215153D01*
X197114034Y-80290166D01*
X197113946Y-80298555D01*
X197113963Y-80298632D01*
X197113413Y-80456259D01*
X197112240Y-80461422D01*
X197112103Y-80474497D01*
X197093469Y-80544043D01*
X197079717Y-80604569D01*
X197073989Y-80616741D01*
X197068190Y-80638385D01*
X197037750Y-80693754D01*
X197014867Y-80742384D01*
X197001406Y-80759864D01*
X196986451Y-80787066D01*
X196949569Y-80827175D01*
X196921939Y-80863053D01*
X196898465Y-80882750D01*
X196871606Y-80911959D01*
X196833418Y-80937331D01*
X196805263Y-80960956D01*
X196770531Y-80979113D01*
X196730286Y-81005852D01*
X196695268Y-81018460D01*
X196670287Y-81031519D01*
X196624257Y-81044025D01*
X196570648Y-81063326D01*
X196542225Y-81066313D01*
X196523308Y-81071453D01*
X196467223Y-81074196D01*
X196401908Y-81081061D01*
X196382165Y-81078357D01*
X196371178Y-81078894D01*
X196307658Y-81068150D01*
X196233809Y-81058034D01*
X196223338Y-81053888D01*
X196221007Y-81053494D01*
X196155694Y-81027106D01*
X196076055Y-80995575D01*
X196010799Y-80949200D01*
X195954117Y-80910388D01*
X195949966Y-80905968D01*
X195937754Y-80897289D01*
X195891539Y-80843749D01*
X195849855Y-80799360D01*
X195842337Y-80786749D01*
X195826888Y-80768851D01*
X195798766Y-80713658D01*
X195771865Y-80668532D01*
X195764515Y-80646437D01*
X195749860Y-80617675D01*
X195737698Y-80565822D01*
X195723790Y-80524013D01*
X195720460Y-80492326D01*
X195711116Y-80452489D01*
X195711583Y-80407871D01*
X195707870Y-80372540D01*
X195712374Y-80332384D01*
X195712893Y-80282829D01*
X195721841Y-80247979D01*
X195724847Y-80221179D01*
X195740613Y-80174867D01*
X195755088Y-80118491D01*
X195768008Y-80094395D01*
X195773930Y-80077000D01*
X195803632Y-80027956D01*
X195835265Y-79968961D01*
X195847776Y-79955066D01*
X195852832Y-79946718D01*
X195898009Y-79899278D01*
X195948796Y-79842873D01*
X195957088Y-79837237D01*
X195957865Y-79836422D01*
X196014438Y-79798263D01*
X196089126Y-79747505D01*
X196162784Y-79720112D01*
X196225747Y-79695183D01*
X196232953Y-79694016D01*
X196248153Y-79688363D01*
X196317133Y-79680382D01*
X196376096Y-79670832D01*
X196391990Y-79671721D01*
X196416697Y-79668862D01*
X196476906Y-79676468D01*
X196476906Y-79676468D01*
G37*
G36*
X189356906Y-79676468D02*
G01*
X189408167Y-79679334D01*
X189431780Y-79685927D01*
X189465028Y-79690127D01*
X189513592Y-79708769D01*
X189554863Y-79720292D01*
X189584079Y-79735826D01*
X189623428Y-79750931D01*
X189659050Y-79775689D01*
X189689345Y-79791797D01*
X189721049Y-79818779D01*
X189762751Y-79847763D01*
X189785730Y-79873828D01*
X189805334Y-79890512D01*
X189835642Y-79930442D01*
X189874955Y-79975033D01*
X189887050Y-79998169D01*
X189897418Y-80011828D01*
X189921973Y-80064970D01*
X189953562Y-80125394D01*
X189957726Y-80142346D01*
X189961304Y-80150090D01*
X189975609Y-80215153D01*
X189994034Y-80290166D01*
X189993946Y-80298555D01*
X189993963Y-80298632D01*
X189993413Y-80456259D01*
X189992240Y-80461422D01*
X189992103Y-80474497D01*
X189973469Y-80544043D01*
X189959717Y-80604569D01*
X189953989Y-80616741D01*
X189948190Y-80638385D01*
X189917750Y-80693754D01*
X189894867Y-80742384D01*
X189881406Y-80759864D01*
X189866451Y-80787066D01*
X189829569Y-80827175D01*
X189801939Y-80863053D01*
X189778465Y-80882750D01*
X189751606Y-80911959D01*
X189713418Y-80937331D01*
X189685263Y-80960956D01*
X189650531Y-80979113D01*
X189610286Y-81005852D01*
X189575268Y-81018460D01*
X189550287Y-81031519D01*
X189504257Y-81044025D01*
X189450648Y-81063326D01*
X189422225Y-81066313D01*
X189403308Y-81071453D01*
X189347223Y-81074196D01*
X189281908Y-81081061D01*
X189262165Y-81078357D01*
X189251178Y-81078894D01*
X189187658Y-81068150D01*
X189113809Y-81058034D01*
X189103338Y-81053888D01*
X189101007Y-81053494D01*
X189035694Y-81027106D01*
X188956055Y-80995575D01*
X188890799Y-80949200D01*
X188834117Y-80910388D01*
X188829966Y-80905968D01*
X188817754Y-80897289D01*
X188771539Y-80843749D01*
X188729855Y-80799360D01*
X188722337Y-80786749D01*
X188706888Y-80768851D01*
X188678766Y-80713658D01*
X188651865Y-80668532D01*
X188644515Y-80646437D01*
X188629860Y-80617675D01*
X188617698Y-80565822D01*
X188603790Y-80524013D01*
X188600460Y-80492326D01*
X188591116Y-80452489D01*
X188591583Y-80407871D01*
X188587870Y-80372540D01*
X188592374Y-80332384D01*
X188592893Y-80282829D01*
X188601841Y-80247979D01*
X188604847Y-80221179D01*
X188620613Y-80174867D01*
X188635088Y-80118491D01*
X188648008Y-80094395D01*
X188653930Y-80077000D01*
X188683632Y-80027956D01*
X188715265Y-79968961D01*
X188727776Y-79955066D01*
X188732832Y-79946718D01*
X188778009Y-79899278D01*
X188828796Y-79842873D01*
X188837088Y-79837237D01*
X188837865Y-79836422D01*
X188894438Y-79798263D01*
X188969126Y-79747505D01*
X189042784Y-79720112D01*
X189105747Y-79695183D01*
X189112953Y-79694016D01*
X189128153Y-79688363D01*
X189197133Y-79680382D01*
X189256096Y-79670832D01*
X189271990Y-79671721D01*
X189296697Y-79668862D01*
X189356906Y-79676468D01*
X189356906Y-79676468D01*
G37*
G36*
X185796906Y-79676468D02*
G01*
X185848167Y-79679334D01*
X185871780Y-79685927D01*
X185905028Y-79690127D01*
X185953592Y-79708769D01*
X185994863Y-79720292D01*
X186024079Y-79735826D01*
X186063428Y-79750931D01*
X186099050Y-79775689D01*
X186129345Y-79791797D01*
X186161049Y-79818779D01*
X186202751Y-79847763D01*
X186225730Y-79873828D01*
X186245334Y-79890512D01*
X186275642Y-79930442D01*
X186314955Y-79975033D01*
X186327050Y-79998169D01*
X186337418Y-80011828D01*
X186361973Y-80064970D01*
X186393562Y-80125394D01*
X186397726Y-80142346D01*
X186401304Y-80150090D01*
X186415609Y-80215153D01*
X186434034Y-80290166D01*
X186433946Y-80298555D01*
X186433963Y-80298632D01*
X186433413Y-80456259D01*
X186432240Y-80461422D01*
X186432103Y-80474497D01*
X186413469Y-80544043D01*
X186399717Y-80604569D01*
X186393989Y-80616741D01*
X186388190Y-80638385D01*
X186357750Y-80693754D01*
X186334867Y-80742384D01*
X186321406Y-80759864D01*
X186306451Y-80787066D01*
X186269569Y-80827175D01*
X186241939Y-80863053D01*
X186218465Y-80882750D01*
X186191606Y-80911959D01*
X186153418Y-80937331D01*
X186125263Y-80960956D01*
X186090531Y-80979113D01*
X186050286Y-81005852D01*
X186015268Y-81018460D01*
X185990287Y-81031519D01*
X185944257Y-81044025D01*
X185890648Y-81063326D01*
X185862225Y-81066313D01*
X185843308Y-81071453D01*
X185787223Y-81074196D01*
X185721908Y-81081061D01*
X185702165Y-81078357D01*
X185691178Y-81078894D01*
X185627658Y-81068150D01*
X185553809Y-81058034D01*
X185543338Y-81053888D01*
X185541007Y-81053494D01*
X185475694Y-81027106D01*
X185396055Y-80995575D01*
X185330799Y-80949200D01*
X185274117Y-80910388D01*
X185269966Y-80905968D01*
X185257754Y-80897289D01*
X185211539Y-80843749D01*
X185169855Y-80799360D01*
X185162337Y-80786749D01*
X185146888Y-80768851D01*
X185118766Y-80713658D01*
X185091865Y-80668532D01*
X185084515Y-80646437D01*
X185069860Y-80617675D01*
X185057698Y-80565822D01*
X185043790Y-80524013D01*
X185040460Y-80492326D01*
X185031116Y-80452489D01*
X185031583Y-80407871D01*
X185027870Y-80372540D01*
X185032374Y-80332384D01*
X185032893Y-80282829D01*
X185041841Y-80247979D01*
X185044847Y-80221179D01*
X185060613Y-80174867D01*
X185075088Y-80118491D01*
X185088008Y-80094395D01*
X185093930Y-80077000D01*
X185123632Y-80027956D01*
X185155265Y-79968961D01*
X185167776Y-79955066D01*
X185172832Y-79946718D01*
X185218009Y-79899278D01*
X185268796Y-79842873D01*
X185277088Y-79837237D01*
X185277865Y-79836422D01*
X185334438Y-79798263D01*
X185409126Y-79747505D01*
X185482784Y-79720112D01*
X185545747Y-79695183D01*
X185552953Y-79694016D01*
X185568153Y-79688363D01*
X185637133Y-79680382D01*
X185696096Y-79670832D01*
X185711990Y-79671721D01*
X185736697Y-79668862D01*
X185796906Y-79676468D01*
X185796906Y-79676468D01*
G37*
G36*
X191136906Y-79676468D02*
G01*
X191188167Y-79679334D01*
X191211780Y-79685927D01*
X191245028Y-79690127D01*
X191293592Y-79708769D01*
X191334863Y-79720292D01*
X191364079Y-79735826D01*
X191403428Y-79750931D01*
X191439050Y-79775689D01*
X191469345Y-79791797D01*
X191501049Y-79818779D01*
X191542751Y-79847763D01*
X191565730Y-79873828D01*
X191585334Y-79890512D01*
X191615642Y-79930442D01*
X191654955Y-79975033D01*
X191667050Y-79998169D01*
X191677418Y-80011828D01*
X191701973Y-80064970D01*
X191733562Y-80125394D01*
X191737726Y-80142346D01*
X191741304Y-80150090D01*
X191755609Y-80215153D01*
X191774034Y-80290166D01*
X191773946Y-80298555D01*
X191773963Y-80298632D01*
X191773413Y-80456259D01*
X191772240Y-80461422D01*
X191772103Y-80474497D01*
X191753469Y-80544043D01*
X191739717Y-80604569D01*
X191733989Y-80616741D01*
X191728190Y-80638385D01*
X191697750Y-80693754D01*
X191674867Y-80742384D01*
X191661406Y-80759864D01*
X191646451Y-80787066D01*
X191609569Y-80827175D01*
X191581939Y-80863053D01*
X191558465Y-80882750D01*
X191531606Y-80911959D01*
X191493418Y-80937331D01*
X191465263Y-80960956D01*
X191430531Y-80979113D01*
X191390286Y-81005852D01*
X191355268Y-81018460D01*
X191330287Y-81031519D01*
X191284257Y-81044025D01*
X191230648Y-81063326D01*
X191202225Y-81066313D01*
X191183308Y-81071453D01*
X191127223Y-81074196D01*
X191061908Y-81081061D01*
X191042165Y-81078357D01*
X191031178Y-81078894D01*
X190967658Y-81068150D01*
X190893809Y-81058034D01*
X190883338Y-81053888D01*
X190881007Y-81053494D01*
X190815694Y-81027106D01*
X190736055Y-80995575D01*
X190670799Y-80949200D01*
X190614117Y-80910388D01*
X190609966Y-80905968D01*
X190597754Y-80897289D01*
X190551539Y-80843749D01*
X190509855Y-80799360D01*
X190502337Y-80786749D01*
X190486888Y-80768851D01*
X190458766Y-80713658D01*
X190431865Y-80668532D01*
X190424515Y-80646437D01*
X190409860Y-80617675D01*
X190397698Y-80565822D01*
X190383790Y-80524013D01*
X190380460Y-80492326D01*
X190371116Y-80452489D01*
X190371583Y-80407871D01*
X190367870Y-80372540D01*
X190372374Y-80332384D01*
X190372893Y-80282829D01*
X190381841Y-80247979D01*
X190384847Y-80221179D01*
X190400613Y-80174867D01*
X190415088Y-80118491D01*
X190428008Y-80094395D01*
X190433930Y-80077000D01*
X190463632Y-80027956D01*
X190495265Y-79968961D01*
X190507776Y-79955066D01*
X190512832Y-79946718D01*
X190558009Y-79899278D01*
X190608796Y-79842873D01*
X190617088Y-79837237D01*
X190617865Y-79836422D01*
X190674438Y-79798263D01*
X190749126Y-79747505D01*
X190822784Y-79720112D01*
X190885747Y-79695183D01*
X190892953Y-79694016D01*
X190908153Y-79688363D01*
X190977133Y-79680382D01*
X191036096Y-79670832D01*
X191051990Y-79671721D01*
X191076697Y-79668862D01*
X191136906Y-79676468D01*
X191136906Y-79676468D01*
G37*
G36*
X206804463Y-79744394D02*
G01*
X206861602Y-79765191D01*
X206891554Y-79770905D01*
X206919481Y-79786258D01*
X206941293Y-79794197D01*
X206984086Y-79821775D01*
X207035689Y-79850144D01*
X207052276Y-79865720D01*
X207064058Y-79873313D01*
X207106333Y-79916483D01*
X207155591Y-79962739D01*
X207162884Y-79974231D01*
X207166247Y-79977665D01*
X207203768Y-80038654D01*
X207243724Y-80101615D01*
X207266754Y-80172494D01*
X207289844Y-80240321D01*
X207290347Y-80245106D01*
X207294551Y-80258045D01*
X207298793Y-80325466D01*
X207305110Y-80385572D01*
X207303450Y-80399492D01*
X207304879Y-80422202D01*
X207293845Y-80480045D01*
X207287817Y-80530599D01*
X207280030Y-80552467D01*
X207274059Y-80583769D01*
X207252787Y-80628975D01*
X207238823Y-80668189D01*
X207221457Y-80695553D01*
X207204026Y-80732596D01*
X207177930Y-80764140D01*
X207160564Y-80791505D01*
X207131026Y-80820838D01*
X207099182Y-80859330D01*
X207073403Y-80878060D01*
X207056931Y-80894417D01*
X207013757Y-80921395D01*
X206966114Y-80956010D01*
X206944955Y-80964387D01*
X206933070Y-80971814D01*
X206876010Y-80991685D01*
X206813184Y-81016559D01*
X206799683Y-81018265D01*
X206795142Y-81019846D01*
X206723983Y-81027828D01*
X206690956Y-81032000D01*
X206066252Y-81032000D01*
X205945537Y-81017606D01*
X205888398Y-80996809D01*
X205858446Y-80991095D01*
X205830519Y-80975742D01*
X205808707Y-80967803D01*
X205765914Y-80940225D01*
X205714311Y-80911856D01*
X205697724Y-80896280D01*
X205685942Y-80888687D01*
X205643667Y-80845517D01*
X205594409Y-80799261D01*
X205587116Y-80787769D01*
X205583753Y-80784335D01*
X205546232Y-80723346D01*
X205506276Y-80660385D01*
X205483246Y-80589506D01*
X205460156Y-80521679D01*
X205459653Y-80516894D01*
X205455449Y-80503955D01*
X205451207Y-80436534D01*
X205444890Y-80376428D01*
X205446550Y-80362508D01*
X205445121Y-80339798D01*
X205456155Y-80281955D01*
X205462183Y-80231401D01*
X205469970Y-80209533D01*
X205475941Y-80178231D01*
X205497213Y-80133025D01*
X205511177Y-80093811D01*
X205528543Y-80066447D01*
X205545974Y-80029404D01*
X205572070Y-79997860D01*
X205589436Y-79970495D01*
X205618974Y-79941162D01*
X205650818Y-79902670D01*
X205676597Y-79883940D01*
X205693069Y-79867583D01*
X205736243Y-79840605D01*
X205783886Y-79805990D01*
X205805045Y-79797613D01*
X205816930Y-79790186D01*
X205873990Y-79770315D01*
X205936816Y-79745441D01*
X205950317Y-79743735D01*
X205954858Y-79742154D01*
X206026017Y-79734172D01*
X206059044Y-79730000D01*
X206683748Y-79730000D01*
X206804463Y-79744394D01*
X206804463Y-79744394D01*
G37*
G36*
X206804463Y-77744394D02*
G01*
X206861602Y-77765191D01*
X206891554Y-77770905D01*
X206919481Y-77786258D01*
X206941293Y-77794197D01*
X206984086Y-77821775D01*
X207035689Y-77850144D01*
X207052276Y-77865720D01*
X207064058Y-77873313D01*
X207106333Y-77916483D01*
X207155591Y-77962739D01*
X207162884Y-77974231D01*
X207166247Y-77977665D01*
X207203768Y-78038654D01*
X207243724Y-78101615D01*
X207266754Y-78172494D01*
X207289844Y-78240321D01*
X207290347Y-78245106D01*
X207294551Y-78258045D01*
X207298793Y-78325466D01*
X207305110Y-78385572D01*
X207303450Y-78399492D01*
X207304879Y-78422202D01*
X207293845Y-78480045D01*
X207287817Y-78530599D01*
X207280030Y-78552467D01*
X207274059Y-78583769D01*
X207252787Y-78628975D01*
X207238823Y-78668189D01*
X207221457Y-78695553D01*
X207204026Y-78732596D01*
X207177930Y-78764140D01*
X207160564Y-78791505D01*
X207131026Y-78820838D01*
X207099182Y-78859330D01*
X207073403Y-78878060D01*
X207056931Y-78894417D01*
X207013757Y-78921395D01*
X206966114Y-78956010D01*
X206944955Y-78964387D01*
X206933070Y-78971814D01*
X206876010Y-78991685D01*
X206813184Y-79016559D01*
X206799683Y-79018265D01*
X206795142Y-79019846D01*
X206723983Y-79027828D01*
X206690956Y-79032000D01*
X206066252Y-79032000D01*
X205945537Y-79017606D01*
X205888398Y-78996809D01*
X205858446Y-78991095D01*
X205830519Y-78975742D01*
X205808707Y-78967803D01*
X205765914Y-78940225D01*
X205714311Y-78911856D01*
X205697724Y-78896280D01*
X205685942Y-78888687D01*
X205643667Y-78845517D01*
X205594409Y-78799261D01*
X205587116Y-78787769D01*
X205583753Y-78784335D01*
X205546232Y-78723346D01*
X205506276Y-78660385D01*
X205483246Y-78589506D01*
X205460156Y-78521679D01*
X205459653Y-78516894D01*
X205455449Y-78503955D01*
X205451207Y-78436534D01*
X205444890Y-78376428D01*
X205446550Y-78362508D01*
X205445121Y-78339798D01*
X205456155Y-78281955D01*
X205462183Y-78231401D01*
X205469970Y-78209533D01*
X205475941Y-78178231D01*
X205497213Y-78133025D01*
X205511177Y-78093811D01*
X205528543Y-78066447D01*
X205545974Y-78029404D01*
X205572070Y-77997860D01*
X205589436Y-77970495D01*
X205618974Y-77941162D01*
X205650818Y-77902670D01*
X205676597Y-77883940D01*
X205693069Y-77867583D01*
X205736243Y-77840605D01*
X205783886Y-77805990D01*
X205805045Y-77797613D01*
X205816930Y-77790186D01*
X205873990Y-77770315D01*
X205936816Y-77745441D01*
X205950317Y-77743735D01*
X205954858Y-77742154D01*
X206026017Y-77734172D01*
X206059044Y-77730000D01*
X206683748Y-77730000D01*
X206804463Y-77744394D01*
X206804463Y-77744394D01*
G37*
G36*
X167064591Y-75884345D02*
G01*
X167115391Y-75884700D01*
X167166051Y-75895099D01*
X167211828Y-75899951D01*
X167261287Y-75914648D01*
X167317293Y-75926145D01*
X167359069Y-75943706D01*
X167396981Y-75954972D01*
X167448722Y-75981392D01*
X167507300Y-76006016D01*
X167539564Y-76027779D01*
X167569015Y-76042817D01*
X167620254Y-76082205D01*
X167678174Y-76121273D01*
X167701070Y-76144330D01*
X167722158Y-76160540D01*
X167769764Y-76213504D01*
X167823407Y-76267523D01*
X167837831Y-76289233D01*
X167851284Y-76304200D01*
X167891922Y-76370646D01*
X167937468Y-76439198D01*
X167944950Y-76457350D01*
X167952065Y-76468984D01*
X167982378Y-76548158D01*
X168016011Y-76629758D01*
X168018572Y-76642693D01*
X168021132Y-76649379D01*
X168037931Y-76740461D01*
X168056045Y-76831944D01*
X168052757Y-77067363D01*
X168049234Y-77082869D01*
X168049069Y-77088973D01*
X168027745Y-77177453D01*
X168007094Y-77268352D01*
X168004358Y-77274497D01*
X168004199Y-77275157D01*
X167946914Y-77403518D01*
X167923261Y-77456645D01*
X167869257Y-77533200D01*
X167815932Y-77610643D01*
X167811520Y-77615048D01*
X167804451Y-77625068D01*
X167739969Y-77686474D01*
X167679227Y-77747109D01*
X167668742Y-77754302D01*
X167655191Y-77767206D01*
X167584960Y-77811776D01*
X167519942Y-77856378D01*
X167502400Y-77864170D01*
X167481165Y-77877646D01*
X167409347Y-77905503D01*
X167343410Y-77934791D01*
X167318446Y-77940761D01*
X167289002Y-77952182D01*
X167219304Y-77964471D01*
X167155543Y-77979720D01*
X167123438Y-77981375D01*
X167086022Y-77987972D01*
X167021608Y-77986623D01*
X166962641Y-77989662D01*
X166924342Y-77984586D01*
X166879955Y-77983656D01*
X166823223Y-77971183D01*
X166771152Y-77964281D01*
X166728267Y-77950306D01*
X166678652Y-77939397D01*
X166631265Y-77918694D01*
X166587498Y-77904431D01*
X166542176Y-77879772D01*
X166489779Y-77856880D01*
X166452565Y-77831016D01*
X166417825Y-77812114D01*
X166372703Y-77775510D01*
X166320530Y-77739249D01*
X166293502Y-77711260D01*
X166267814Y-77690422D01*
X166225877Y-77641233D01*
X166177353Y-77590985D01*
X166159751Y-77563672D01*
X166142495Y-77543432D01*
X166106942Y-77481728D01*
X166065701Y-77417734D01*
X166056105Y-77393498D01*
X166046060Y-77376064D01*
X166020127Y-77302628D01*
X165989826Y-77226096D01*
X165986282Y-77206785D01*
X165981739Y-77193921D01*
X165968546Y-77110152D01*
X165952619Y-77023371D01*
X165952803Y-77010188D01*
X165951689Y-77003114D01*
X165954196Y-76910460D01*
X165955497Y-76817279D01*
X165956895Y-76810703D01*
X165956913Y-76810026D01*
X165986406Y-76671863D01*
X165998350Y-76615672D01*
X166035226Y-76529635D01*
X166071315Y-76442722D01*
X166074718Y-76437492D01*
X166079546Y-76426227D01*
X166129828Y-76352791D01*
X166176658Y-76280818D01*
X166185423Y-76271598D01*
X166195992Y-76256162D01*
X166255409Y-76197977D01*
X166309745Y-76140818D01*
X166325286Y-76129547D01*
X166343253Y-76111953D01*
X166407701Y-76069780D01*
X166466118Y-76027415D01*
X166489301Y-76016382D01*
X166515720Y-75999094D01*
X166581316Y-75972591D01*
X166640532Y-75944410D01*
X166671596Y-75936116D01*
X166706823Y-75921883D01*
X166770128Y-75909807D01*
X166827159Y-75894579D01*
X166865663Y-75891582D01*
X166909284Y-75883261D01*
X166967370Y-75883667D01*
X167019735Y-75879591D01*
X167064591Y-75884345D01*
X167064591Y-75884345D01*
G37*
G36*
X172144591Y-75884345D02*
G01*
X172195391Y-75884700D01*
X172246051Y-75895099D01*
X172291828Y-75899951D01*
X172341287Y-75914648D01*
X172397293Y-75926145D01*
X172439069Y-75943706D01*
X172476981Y-75954972D01*
X172528722Y-75981392D01*
X172587300Y-76006016D01*
X172619564Y-76027779D01*
X172649015Y-76042817D01*
X172700254Y-76082205D01*
X172758174Y-76121273D01*
X172781070Y-76144330D01*
X172802158Y-76160540D01*
X172849764Y-76213504D01*
X172903407Y-76267523D01*
X172917831Y-76289233D01*
X172931284Y-76304200D01*
X172971922Y-76370646D01*
X173017468Y-76439198D01*
X173024950Y-76457350D01*
X173032065Y-76468984D01*
X173062378Y-76548158D01*
X173096011Y-76629758D01*
X173098572Y-76642693D01*
X173101132Y-76649379D01*
X173117931Y-76740461D01*
X173136045Y-76831944D01*
X173132757Y-77067363D01*
X173129234Y-77082869D01*
X173129069Y-77088973D01*
X173107745Y-77177453D01*
X173087094Y-77268352D01*
X173084358Y-77274497D01*
X173084199Y-77275157D01*
X173026914Y-77403518D01*
X173003261Y-77456645D01*
X172949257Y-77533200D01*
X172895932Y-77610643D01*
X172891520Y-77615048D01*
X172884451Y-77625068D01*
X172819969Y-77686474D01*
X172759227Y-77747109D01*
X172748742Y-77754302D01*
X172735191Y-77767206D01*
X172664960Y-77811776D01*
X172599942Y-77856378D01*
X172582400Y-77864170D01*
X172561165Y-77877646D01*
X172489347Y-77905503D01*
X172423410Y-77934791D01*
X172398446Y-77940761D01*
X172369002Y-77952182D01*
X172299304Y-77964471D01*
X172235543Y-77979720D01*
X172203438Y-77981375D01*
X172166022Y-77987972D01*
X172101608Y-77986623D01*
X172042641Y-77989662D01*
X172004342Y-77984586D01*
X171959955Y-77983656D01*
X171903223Y-77971183D01*
X171851152Y-77964281D01*
X171808267Y-77950306D01*
X171758652Y-77939397D01*
X171711265Y-77918694D01*
X171667498Y-77904431D01*
X171622176Y-77879772D01*
X171569779Y-77856880D01*
X171532565Y-77831016D01*
X171497825Y-77812114D01*
X171452703Y-77775510D01*
X171400530Y-77739249D01*
X171373502Y-77711260D01*
X171347814Y-77690422D01*
X171305877Y-77641233D01*
X171257353Y-77590985D01*
X171239751Y-77563672D01*
X171222495Y-77543432D01*
X171186942Y-77481728D01*
X171145701Y-77417734D01*
X171136105Y-77393498D01*
X171126060Y-77376064D01*
X171100127Y-77302628D01*
X171069826Y-77226096D01*
X171066282Y-77206785D01*
X171061739Y-77193921D01*
X171048546Y-77110152D01*
X171032619Y-77023371D01*
X171032803Y-77010188D01*
X171031689Y-77003114D01*
X171034196Y-76910460D01*
X171035497Y-76817279D01*
X171036895Y-76810703D01*
X171036913Y-76810026D01*
X171066406Y-76671863D01*
X171078350Y-76615672D01*
X171115226Y-76529635D01*
X171151315Y-76442722D01*
X171154718Y-76437492D01*
X171159546Y-76426227D01*
X171209828Y-76352791D01*
X171256658Y-76280818D01*
X171265423Y-76271598D01*
X171275992Y-76256162D01*
X171335409Y-76197977D01*
X171389745Y-76140818D01*
X171405286Y-76129547D01*
X171423253Y-76111953D01*
X171487701Y-76069780D01*
X171546118Y-76027415D01*
X171569301Y-76016382D01*
X171595720Y-75999094D01*
X171661316Y-75972591D01*
X171720532Y-75944410D01*
X171751596Y-75936116D01*
X171786823Y-75921883D01*
X171850128Y-75909807D01*
X171907159Y-75894579D01*
X171945663Y-75891582D01*
X171989284Y-75883261D01*
X172047370Y-75883667D01*
X172099735Y-75879591D01*
X172144591Y-75884345D01*
X172144591Y-75884345D01*
G37*
G36*
X161984591Y-75884345D02*
G01*
X162035391Y-75884700D01*
X162086051Y-75895099D01*
X162131828Y-75899951D01*
X162181287Y-75914648D01*
X162237293Y-75926145D01*
X162279069Y-75943706D01*
X162316981Y-75954972D01*
X162368722Y-75981392D01*
X162427300Y-76006016D01*
X162459564Y-76027779D01*
X162489015Y-76042817D01*
X162540254Y-76082205D01*
X162598174Y-76121273D01*
X162621070Y-76144330D01*
X162642158Y-76160540D01*
X162689764Y-76213504D01*
X162743407Y-76267523D01*
X162757831Y-76289233D01*
X162771284Y-76304200D01*
X162811922Y-76370646D01*
X162857468Y-76439198D01*
X162864950Y-76457350D01*
X162872065Y-76468984D01*
X162902378Y-76548158D01*
X162936011Y-76629758D01*
X162938572Y-76642693D01*
X162941132Y-76649379D01*
X162957931Y-76740461D01*
X162976045Y-76831944D01*
X162972757Y-77067363D01*
X162969234Y-77082869D01*
X162969069Y-77088973D01*
X162947745Y-77177453D01*
X162927094Y-77268352D01*
X162924358Y-77274497D01*
X162924199Y-77275157D01*
X162866914Y-77403518D01*
X162843261Y-77456645D01*
X162789257Y-77533200D01*
X162735932Y-77610643D01*
X162731520Y-77615048D01*
X162724451Y-77625068D01*
X162659969Y-77686474D01*
X162599227Y-77747109D01*
X162588742Y-77754302D01*
X162575191Y-77767206D01*
X162504960Y-77811776D01*
X162439942Y-77856378D01*
X162422400Y-77864170D01*
X162401165Y-77877646D01*
X162329347Y-77905503D01*
X162263410Y-77934791D01*
X162238446Y-77940761D01*
X162209002Y-77952182D01*
X162139304Y-77964471D01*
X162075543Y-77979720D01*
X162043438Y-77981375D01*
X162006022Y-77987972D01*
X161941608Y-77986623D01*
X161882641Y-77989662D01*
X161844342Y-77984586D01*
X161799955Y-77983656D01*
X161743223Y-77971183D01*
X161691152Y-77964281D01*
X161648267Y-77950306D01*
X161598652Y-77939397D01*
X161551265Y-77918694D01*
X161507498Y-77904431D01*
X161462176Y-77879772D01*
X161409779Y-77856880D01*
X161372565Y-77831016D01*
X161337825Y-77812114D01*
X161292703Y-77775510D01*
X161240530Y-77739249D01*
X161213502Y-77711260D01*
X161187814Y-77690422D01*
X161145877Y-77641233D01*
X161097353Y-77590985D01*
X161079751Y-77563672D01*
X161062495Y-77543432D01*
X161026942Y-77481728D01*
X160985701Y-77417734D01*
X160976105Y-77393498D01*
X160966060Y-77376064D01*
X160940127Y-77302628D01*
X160909826Y-77226096D01*
X160906282Y-77206785D01*
X160901739Y-77193921D01*
X160888546Y-77110152D01*
X160872619Y-77023371D01*
X160872803Y-77010188D01*
X160871689Y-77003114D01*
X160874196Y-76910460D01*
X160875497Y-76817279D01*
X160876895Y-76810703D01*
X160876913Y-76810026D01*
X160906406Y-76671863D01*
X160918350Y-76615672D01*
X160955226Y-76529635D01*
X160991315Y-76442722D01*
X160994718Y-76437492D01*
X160999546Y-76426227D01*
X161049828Y-76352791D01*
X161096658Y-76280818D01*
X161105423Y-76271598D01*
X161115992Y-76256162D01*
X161175409Y-76197977D01*
X161229745Y-76140818D01*
X161245286Y-76129547D01*
X161263253Y-76111953D01*
X161327701Y-76069780D01*
X161386118Y-76027415D01*
X161409301Y-76016382D01*
X161435720Y-75999094D01*
X161501316Y-75972591D01*
X161560532Y-75944410D01*
X161591596Y-75936116D01*
X161626823Y-75921883D01*
X161690128Y-75909807D01*
X161747159Y-75894579D01*
X161785663Y-75891582D01*
X161829284Y-75883261D01*
X161887370Y-75883667D01*
X161939735Y-75879591D01*
X161984591Y-75884345D01*
X161984591Y-75884345D01*
G37*
G36*
X181669591Y-75784345D02*
G01*
X181720391Y-75784700D01*
X181771051Y-75795099D01*
X181816828Y-75799951D01*
X181866287Y-75814648D01*
X181922293Y-75826145D01*
X181964069Y-75843706D01*
X182001981Y-75854972D01*
X182053722Y-75881392D01*
X182112300Y-75906016D01*
X182144564Y-75927779D01*
X182174015Y-75942817D01*
X182225254Y-75982205D01*
X182283174Y-76021273D01*
X182306070Y-76044330D01*
X182327158Y-76060540D01*
X182374764Y-76113504D01*
X182428407Y-76167523D01*
X182442831Y-76189233D01*
X182456284Y-76204200D01*
X182496922Y-76270646D01*
X182542468Y-76339198D01*
X182549950Y-76357350D01*
X182557065Y-76368984D01*
X182587378Y-76448158D01*
X182621011Y-76529758D01*
X182623572Y-76542693D01*
X182626132Y-76549379D01*
X182642931Y-76640461D01*
X182661045Y-76731944D01*
X182657757Y-76967363D01*
X182654234Y-76982869D01*
X182654069Y-76988973D01*
X182632745Y-77077453D01*
X182612094Y-77168352D01*
X182609358Y-77174497D01*
X182609199Y-77175157D01*
X182551914Y-77303518D01*
X182528261Y-77356645D01*
X182474257Y-77433200D01*
X182420932Y-77510643D01*
X182416520Y-77515048D01*
X182409451Y-77525068D01*
X182344969Y-77586474D01*
X182284227Y-77647109D01*
X182273742Y-77654302D01*
X182260191Y-77667206D01*
X182189960Y-77711776D01*
X182124942Y-77756378D01*
X182107400Y-77764170D01*
X182086165Y-77777646D01*
X182014347Y-77805503D01*
X181948410Y-77834791D01*
X181923446Y-77840761D01*
X181894002Y-77852182D01*
X181824304Y-77864471D01*
X181760543Y-77879720D01*
X181728438Y-77881375D01*
X181691022Y-77887972D01*
X181626608Y-77886623D01*
X181567641Y-77889662D01*
X181529342Y-77884586D01*
X181484955Y-77883656D01*
X181428223Y-77871183D01*
X181376152Y-77864281D01*
X181333267Y-77850306D01*
X181283652Y-77839397D01*
X181236265Y-77818694D01*
X181192498Y-77804431D01*
X181147176Y-77779772D01*
X181094779Y-77756880D01*
X181057565Y-77731016D01*
X181022825Y-77712114D01*
X180977703Y-77675510D01*
X180925530Y-77639249D01*
X180898502Y-77611260D01*
X180872814Y-77590422D01*
X180830877Y-77541233D01*
X180782353Y-77490985D01*
X180764751Y-77463672D01*
X180747495Y-77443432D01*
X180711942Y-77381728D01*
X180670701Y-77317734D01*
X180661105Y-77293498D01*
X180651060Y-77276064D01*
X180625127Y-77202628D01*
X180594826Y-77126096D01*
X180591282Y-77106785D01*
X180586739Y-77093921D01*
X180573546Y-77010152D01*
X180557619Y-76923371D01*
X180557803Y-76910188D01*
X180556689Y-76903114D01*
X180559196Y-76810460D01*
X180560497Y-76717279D01*
X180561895Y-76710703D01*
X180561913Y-76710026D01*
X180591406Y-76571863D01*
X180603350Y-76515672D01*
X180640226Y-76429635D01*
X180676315Y-76342722D01*
X180679718Y-76337492D01*
X180684546Y-76326227D01*
X180734828Y-76252791D01*
X180781658Y-76180818D01*
X180790423Y-76171598D01*
X180800992Y-76156162D01*
X180860409Y-76097977D01*
X180914745Y-76040818D01*
X180930286Y-76029547D01*
X180948253Y-76011953D01*
X181012701Y-75969780D01*
X181071118Y-75927415D01*
X181094301Y-75916382D01*
X181120720Y-75899094D01*
X181186316Y-75872591D01*
X181245532Y-75844410D01*
X181276596Y-75836116D01*
X181311823Y-75821883D01*
X181375128Y-75809807D01*
X181432159Y-75794579D01*
X181470663Y-75791582D01*
X181514284Y-75783261D01*
X181572370Y-75783667D01*
X181624735Y-75779591D01*
X181669591Y-75784345D01*
X181669591Y-75784345D01*
G37*
G36*
X155634591Y-75784345D02*
G01*
X155685391Y-75784700D01*
X155736051Y-75795099D01*
X155781828Y-75799951D01*
X155831287Y-75814648D01*
X155887293Y-75826145D01*
X155929069Y-75843706D01*
X155966981Y-75854972D01*
X156018722Y-75881392D01*
X156077300Y-75906016D01*
X156109564Y-75927779D01*
X156139015Y-75942817D01*
X156190254Y-75982205D01*
X156248174Y-76021273D01*
X156271070Y-76044330D01*
X156292158Y-76060540D01*
X156339764Y-76113504D01*
X156393407Y-76167523D01*
X156407831Y-76189233D01*
X156421284Y-76204200D01*
X156461922Y-76270646D01*
X156507468Y-76339198D01*
X156514950Y-76357350D01*
X156522065Y-76368984D01*
X156552378Y-76448158D01*
X156586011Y-76529758D01*
X156588572Y-76542693D01*
X156591132Y-76549379D01*
X156607931Y-76640461D01*
X156626045Y-76731944D01*
X156622757Y-76967363D01*
X156619234Y-76982869D01*
X156619069Y-76988973D01*
X156597745Y-77077453D01*
X156577094Y-77168352D01*
X156574358Y-77174497D01*
X156574199Y-77175157D01*
X156516914Y-77303518D01*
X156493261Y-77356645D01*
X156439257Y-77433200D01*
X156385932Y-77510643D01*
X156381520Y-77515048D01*
X156374451Y-77525068D01*
X156309969Y-77586474D01*
X156249227Y-77647109D01*
X156238742Y-77654302D01*
X156225191Y-77667206D01*
X156154960Y-77711776D01*
X156089942Y-77756378D01*
X156072400Y-77764170D01*
X156051165Y-77777646D01*
X155979347Y-77805503D01*
X155913410Y-77834791D01*
X155888446Y-77840761D01*
X155859002Y-77852182D01*
X155789304Y-77864471D01*
X155725543Y-77879720D01*
X155693438Y-77881375D01*
X155656022Y-77887972D01*
X155591608Y-77886623D01*
X155532641Y-77889662D01*
X155494342Y-77884586D01*
X155449955Y-77883656D01*
X155393223Y-77871183D01*
X155341152Y-77864281D01*
X155298267Y-77850306D01*
X155248652Y-77839397D01*
X155201265Y-77818694D01*
X155157498Y-77804431D01*
X155112176Y-77779772D01*
X155059779Y-77756880D01*
X155022565Y-77731016D01*
X154987825Y-77712114D01*
X154942703Y-77675510D01*
X154890530Y-77639249D01*
X154863502Y-77611260D01*
X154837814Y-77590422D01*
X154795877Y-77541233D01*
X154747353Y-77490985D01*
X154729751Y-77463672D01*
X154712495Y-77443432D01*
X154676942Y-77381728D01*
X154635701Y-77317734D01*
X154626105Y-77293498D01*
X154616060Y-77276064D01*
X154590127Y-77202628D01*
X154559826Y-77126096D01*
X154556282Y-77106785D01*
X154551739Y-77093921D01*
X154538546Y-77010152D01*
X154522619Y-76923371D01*
X154522803Y-76910188D01*
X154521689Y-76903114D01*
X154524196Y-76810460D01*
X154525497Y-76717279D01*
X154526895Y-76710703D01*
X154526913Y-76710026D01*
X154556406Y-76571863D01*
X154568350Y-76515672D01*
X154605226Y-76429635D01*
X154641315Y-76342722D01*
X154644718Y-76337492D01*
X154649546Y-76326227D01*
X154699828Y-76252791D01*
X154746658Y-76180818D01*
X154755423Y-76171598D01*
X154765992Y-76156162D01*
X154825409Y-76097977D01*
X154879745Y-76040818D01*
X154895286Y-76029547D01*
X154913253Y-76011953D01*
X154977701Y-75969780D01*
X155036118Y-75927415D01*
X155059301Y-75916382D01*
X155085720Y-75899094D01*
X155151316Y-75872591D01*
X155210532Y-75844410D01*
X155241596Y-75836116D01*
X155276823Y-75821883D01*
X155340128Y-75809807D01*
X155397159Y-75794579D01*
X155435663Y-75791582D01*
X155479284Y-75783261D01*
X155537370Y-75783667D01*
X155589735Y-75779591D01*
X155634591Y-75784345D01*
X155634591Y-75784345D01*
G37*
G36*
X207087042Y-75742746D02*
G01*
X207098497Y-75748262D01*
X207106546Y-75749767D01*
X207123780Y-75760438D01*
X207168816Y-75782126D01*
X207188891Y-75800753D01*
X207202097Y-75808930D01*
X207212382Y-75822550D01*
X207235350Y-75843861D01*
X207257671Y-75882522D01*
X207269823Y-75898614D01*
X207271790Y-75906977D01*
X207279534Y-75920390D01*
X207298417Y-76020188D01*
X207301883Y-76034924D01*
X207301883Y-76038505D01*
X207303194Y-76045434D01*
X207303194Y-76718921D01*
X207288254Y-76818042D01*
X207282738Y-76829497D01*
X207281233Y-76837546D01*
X207270562Y-76854780D01*
X207248874Y-76899816D01*
X207230247Y-76919891D01*
X207222070Y-76933097D01*
X207208450Y-76943382D01*
X207187139Y-76966350D01*
X207148478Y-76988671D01*
X207132386Y-77000823D01*
X207124023Y-77002790D01*
X207110610Y-77010534D01*
X207010812Y-77029417D01*
X206996076Y-77032883D01*
X206992495Y-77032883D01*
X206985566Y-77034194D01*
X205762079Y-77034194D01*
X205662958Y-77019254D01*
X205651503Y-77013738D01*
X205643454Y-77012233D01*
X205626220Y-77001562D01*
X205581184Y-76979874D01*
X205561109Y-76961247D01*
X205547903Y-76953070D01*
X205537618Y-76939450D01*
X205514650Y-76918139D01*
X205492329Y-76879478D01*
X205480177Y-76863386D01*
X205478210Y-76855023D01*
X205470466Y-76841610D01*
X205451583Y-76741812D01*
X205448117Y-76727076D01*
X205448117Y-76723495D01*
X205446806Y-76716566D01*
X205446806Y-76043079D01*
X205461746Y-75943958D01*
X205467262Y-75932503D01*
X205468767Y-75924454D01*
X205479438Y-75907220D01*
X205501126Y-75862184D01*
X205519753Y-75842109D01*
X205527930Y-75828903D01*
X205541550Y-75818618D01*
X205562861Y-75795650D01*
X205601522Y-75773329D01*
X205617614Y-75761177D01*
X205625977Y-75759210D01*
X205639390Y-75751466D01*
X205739188Y-75732583D01*
X205753924Y-75729117D01*
X205757505Y-75729117D01*
X205764434Y-75727806D01*
X206987921Y-75727806D01*
X207087042Y-75742746D01*
X207087042Y-75742746D01*
G37*
G36*
X181669591Y-70704345D02*
G01*
X181720391Y-70704700D01*
X181771051Y-70715099D01*
X181816828Y-70719951D01*
X181866287Y-70734648D01*
X181922293Y-70746145D01*
X181964069Y-70763706D01*
X182001981Y-70774972D01*
X182053722Y-70801392D01*
X182112300Y-70826016D01*
X182144564Y-70847779D01*
X182174015Y-70862817D01*
X182225254Y-70902205D01*
X182283174Y-70941273D01*
X182306070Y-70964330D01*
X182327158Y-70980540D01*
X182374764Y-71033504D01*
X182428407Y-71087523D01*
X182442831Y-71109233D01*
X182456284Y-71124200D01*
X182496922Y-71190646D01*
X182542468Y-71259198D01*
X182549950Y-71277350D01*
X182557065Y-71288984D01*
X182587378Y-71368158D01*
X182621011Y-71449758D01*
X182623572Y-71462693D01*
X182626132Y-71469379D01*
X182642931Y-71560461D01*
X182661045Y-71651944D01*
X182657757Y-71887363D01*
X182654234Y-71902869D01*
X182654069Y-71908973D01*
X182632745Y-71997453D01*
X182612094Y-72088352D01*
X182609358Y-72094497D01*
X182609199Y-72095157D01*
X182551914Y-72223518D01*
X182528261Y-72276645D01*
X182474257Y-72353200D01*
X182420932Y-72430643D01*
X182416520Y-72435048D01*
X182409451Y-72445068D01*
X182344969Y-72506474D01*
X182284227Y-72567109D01*
X182273742Y-72574302D01*
X182260191Y-72587206D01*
X182189960Y-72631776D01*
X182124942Y-72676378D01*
X182107400Y-72684170D01*
X182086165Y-72697646D01*
X182014347Y-72725503D01*
X181948410Y-72754791D01*
X181923446Y-72760761D01*
X181894002Y-72772182D01*
X181824304Y-72784471D01*
X181760543Y-72799720D01*
X181728438Y-72801375D01*
X181691022Y-72807972D01*
X181626608Y-72806623D01*
X181567641Y-72809662D01*
X181529342Y-72804586D01*
X181484955Y-72803656D01*
X181428223Y-72791183D01*
X181376152Y-72784281D01*
X181333267Y-72770306D01*
X181283652Y-72759397D01*
X181236265Y-72738694D01*
X181192498Y-72724431D01*
X181147176Y-72699772D01*
X181094779Y-72676880D01*
X181057565Y-72651016D01*
X181022825Y-72632114D01*
X180977703Y-72595510D01*
X180925530Y-72559249D01*
X180898502Y-72531260D01*
X180872814Y-72510422D01*
X180830877Y-72461233D01*
X180782353Y-72410985D01*
X180764751Y-72383672D01*
X180747495Y-72363432D01*
X180711942Y-72301728D01*
X180670701Y-72237734D01*
X180661105Y-72213498D01*
X180651060Y-72196064D01*
X180625127Y-72122628D01*
X180594826Y-72046096D01*
X180591282Y-72026785D01*
X180586739Y-72013921D01*
X180573546Y-71930152D01*
X180557619Y-71843371D01*
X180557803Y-71830188D01*
X180556689Y-71823114D01*
X180559196Y-71730460D01*
X180560497Y-71637279D01*
X180561895Y-71630703D01*
X180561913Y-71630026D01*
X180591406Y-71491863D01*
X180603350Y-71435672D01*
X180640226Y-71349635D01*
X180676315Y-71262722D01*
X180679718Y-71257492D01*
X180684546Y-71246227D01*
X180734828Y-71172791D01*
X180781658Y-71100818D01*
X180790423Y-71091598D01*
X180800992Y-71076162D01*
X180860409Y-71017977D01*
X180914745Y-70960818D01*
X180930286Y-70949547D01*
X180948253Y-70931953D01*
X181012701Y-70889780D01*
X181071118Y-70847415D01*
X181094301Y-70836382D01*
X181120720Y-70819094D01*
X181186316Y-70792591D01*
X181245532Y-70764410D01*
X181276596Y-70756116D01*
X181311823Y-70741883D01*
X181375128Y-70729807D01*
X181432159Y-70714579D01*
X181470663Y-70711582D01*
X181514284Y-70703261D01*
X181572370Y-70703667D01*
X181624735Y-70699591D01*
X181669591Y-70704345D01*
X181669591Y-70704345D01*
G37*
G36*
X155634591Y-70704345D02*
G01*
X155685391Y-70704700D01*
X155736051Y-70715099D01*
X155781828Y-70719951D01*
X155831287Y-70734648D01*
X155887293Y-70746145D01*
X155929069Y-70763706D01*
X155966981Y-70774972D01*
X156018722Y-70801392D01*
X156077300Y-70826016D01*
X156109564Y-70847779D01*
X156139015Y-70862817D01*
X156190254Y-70902205D01*
X156248174Y-70941273D01*
X156271070Y-70964330D01*
X156292158Y-70980540D01*
X156339764Y-71033504D01*
X156393407Y-71087523D01*
X156407831Y-71109233D01*
X156421284Y-71124200D01*
X156461922Y-71190646D01*
X156507468Y-71259198D01*
X156514950Y-71277350D01*
X156522065Y-71288984D01*
X156552378Y-71368158D01*
X156586011Y-71449758D01*
X156588572Y-71462693D01*
X156591132Y-71469379D01*
X156607931Y-71560461D01*
X156626045Y-71651944D01*
X156622757Y-71887363D01*
X156619234Y-71902869D01*
X156619069Y-71908973D01*
X156597745Y-71997453D01*
X156577094Y-72088352D01*
X156574358Y-72094497D01*
X156574199Y-72095157D01*
X156516914Y-72223518D01*
X156493261Y-72276645D01*
X156439257Y-72353200D01*
X156385932Y-72430643D01*
X156381520Y-72435048D01*
X156374451Y-72445068D01*
X156309969Y-72506474D01*
X156249227Y-72567109D01*
X156238742Y-72574302D01*
X156225191Y-72587206D01*
X156154960Y-72631776D01*
X156089942Y-72676378D01*
X156072400Y-72684170D01*
X156051165Y-72697646D01*
X155979347Y-72725503D01*
X155913410Y-72754791D01*
X155888446Y-72760761D01*
X155859002Y-72772182D01*
X155789304Y-72784471D01*
X155725543Y-72799720D01*
X155693438Y-72801375D01*
X155656022Y-72807972D01*
X155591608Y-72806623D01*
X155532641Y-72809662D01*
X155494342Y-72804586D01*
X155449955Y-72803656D01*
X155393223Y-72791183D01*
X155341152Y-72784281D01*
X155298267Y-72770306D01*
X155248652Y-72759397D01*
X155201265Y-72738694D01*
X155157498Y-72724431D01*
X155112176Y-72699772D01*
X155059779Y-72676880D01*
X155022565Y-72651016D01*
X154987825Y-72632114D01*
X154942703Y-72595510D01*
X154890530Y-72559249D01*
X154863502Y-72531260D01*
X154837814Y-72510422D01*
X154795877Y-72461233D01*
X154747353Y-72410985D01*
X154729751Y-72383672D01*
X154712495Y-72363432D01*
X154676942Y-72301728D01*
X154635701Y-72237734D01*
X154626105Y-72213498D01*
X154616060Y-72196064D01*
X154590127Y-72122628D01*
X154559826Y-72046096D01*
X154556282Y-72026785D01*
X154551739Y-72013921D01*
X154538546Y-71930152D01*
X154522619Y-71843371D01*
X154522803Y-71830188D01*
X154521689Y-71823114D01*
X154524196Y-71730460D01*
X154525497Y-71637279D01*
X154526895Y-71630703D01*
X154526913Y-71630026D01*
X154556406Y-71491863D01*
X154568350Y-71435672D01*
X154605226Y-71349635D01*
X154641315Y-71262722D01*
X154644718Y-71257492D01*
X154649546Y-71246227D01*
X154699828Y-71172791D01*
X154746658Y-71100818D01*
X154755423Y-71091598D01*
X154765992Y-71076162D01*
X154825409Y-71017977D01*
X154879745Y-70960818D01*
X154895286Y-70949547D01*
X154913253Y-70931953D01*
X154977701Y-70889780D01*
X155036118Y-70847415D01*
X155059301Y-70836382D01*
X155085720Y-70819094D01*
X155151316Y-70792591D01*
X155210532Y-70764410D01*
X155241596Y-70756116D01*
X155276823Y-70741883D01*
X155340128Y-70729807D01*
X155397159Y-70714579D01*
X155435663Y-70711582D01*
X155479284Y-70703261D01*
X155537370Y-70703667D01*
X155589735Y-70699591D01*
X155634591Y-70704345D01*
X155634591Y-70704345D01*
G37*
G36*
X181669591Y-65624345D02*
G01*
X181720391Y-65624700D01*
X181771051Y-65635099D01*
X181816828Y-65639951D01*
X181866287Y-65654648D01*
X181922293Y-65666145D01*
X181964069Y-65683706D01*
X182001981Y-65694972D01*
X182053722Y-65721392D01*
X182112300Y-65746016D01*
X182144564Y-65767779D01*
X182174015Y-65782817D01*
X182225254Y-65822205D01*
X182283174Y-65861273D01*
X182306070Y-65884330D01*
X182327158Y-65900540D01*
X182374764Y-65953504D01*
X182428407Y-66007523D01*
X182442831Y-66029233D01*
X182456284Y-66044200D01*
X182496922Y-66110646D01*
X182542468Y-66179198D01*
X182549950Y-66197350D01*
X182557065Y-66208984D01*
X182587378Y-66288158D01*
X182621011Y-66369758D01*
X182623572Y-66382693D01*
X182626132Y-66389379D01*
X182642931Y-66480461D01*
X182661045Y-66571944D01*
X182657757Y-66807363D01*
X182654234Y-66822869D01*
X182654069Y-66828973D01*
X182632745Y-66917453D01*
X182612094Y-67008352D01*
X182609358Y-67014497D01*
X182609199Y-67015157D01*
X182551914Y-67143518D01*
X182528261Y-67196645D01*
X182474257Y-67273200D01*
X182420932Y-67350643D01*
X182416520Y-67355048D01*
X182409451Y-67365068D01*
X182344969Y-67426474D01*
X182284227Y-67487109D01*
X182273742Y-67494302D01*
X182260191Y-67507206D01*
X182189960Y-67551776D01*
X182124942Y-67596378D01*
X182107400Y-67604170D01*
X182086165Y-67617646D01*
X182014347Y-67645503D01*
X181948410Y-67674791D01*
X181923446Y-67680761D01*
X181894002Y-67692182D01*
X181824304Y-67704471D01*
X181760543Y-67719720D01*
X181728438Y-67721375D01*
X181691022Y-67727972D01*
X181626608Y-67726623D01*
X181567641Y-67729662D01*
X181529342Y-67724586D01*
X181484955Y-67723656D01*
X181428223Y-67711183D01*
X181376152Y-67704281D01*
X181333267Y-67690306D01*
X181283652Y-67679397D01*
X181236265Y-67658694D01*
X181192498Y-67644431D01*
X181147176Y-67619772D01*
X181094779Y-67596880D01*
X181057565Y-67571016D01*
X181022825Y-67552114D01*
X180977703Y-67515510D01*
X180925530Y-67479249D01*
X180898502Y-67451260D01*
X180872814Y-67430422D01*
X180830877Y-67381233D01*
X180782353Y-67330985D01*
X180764751Y-67303672D01*
X180747495Y-67283432D01*
X180711942Y-67221728D01*
X180670701Y-67157734D01*
X180661105Y-67133498D01*
X180651060Y-67116064D01*
X180625127Y-67042628D01*
X180594826Y-66966096D01*
X180591282Y-66946785D01*
X180586739Y-66933921D01*
X180573546Y-66850152D01*
X180557619Y-66763371D01*
X180557803Y-66750188D01*
X180556689Y-66743114D01*
X180559196Y-66650460D01*
X180560497Y-66557279D01*
X180561895Y-66550703D01*
X180561913Y-66550026D01*
X180591406Y-66411863D01*
X180603350Y-66355672D01*
X180640226Y-66269635D01*
X180676315Y-66182722D01*
X180679718Y-66177492D01*
X180684546Y-66166227D01*
X180734828Y-66092791D01*
X180781658Y-66020818D01*
X180790423Y-66011598D01*
X180800992Y-65996162D01*
X180860409Y-65937977D01*
X180914745Y-65880818D01*
X180930286Y-65869547D01*
X180948253Y-65851953D01*
X181012701Y-65809780D01*
X181071118Y-65767415D01*
X181094301Y-65756382D01*
X181120720Y-65739094D01*
X181186316Y-65712591D01*
X181245532Y-65684410D01*
X181276596Y-65676116D01*
X181311823Y-65661883D01*
X181375128Y-65649807D01*
X181432159Y-65634579D01*
X181470663Y-65631582D01*
X181514284Y-65623261D01*
X181572370Y-65623667D01*
X181624735Y-65619591D01*
X181669591Y-65624345D01*
X181669591Y-65624345D01*
G37*
G36*
X155634591Y-65624345D02*
G01*
X155685391Y-65624700D01*
X155736051Y-65635099D01*
X155781828Y-65639951D01*
X155831287Y-65654648D01*
X155887293Y-65666145D01*
X155929069Y-65683706D01*
X155966981Y-65694972D01*
X156018722Y-65721392D01*
X156077300Y-65746016D01*
X156109564Y-65767779D01*
X156139015Y-65782817D01*
X156190254Y-65822205D01*
X156248174Y-65861273D01*
X156271070Y-65884330D01*
X156292158Y-65900540D01*
X156339764Y-65953504D01*
X156393407Y-66007523D01*
X156407831Y-66029233D01*
X156421284Y-66044200D01*
X156461922Y-66110646D01*
X156507468Y-66179198D01*
X156514950Y-66197350D01*
X156522065Y-66208984D01*
X156552378Y-66288158D01*
X156586011Y-66369758D01*
X156588572Y-66382693D01*
X156591132Y-66389379D01*
X156607931Y-66480461D01*
X156626045Y-66571944D01*
X156622757Y-66807363D01*
X156619234Y-66822869D01*
X156619069Y-66828973D01*
X156597745Y-66917453D01*
X156577094Y-67008352D01*
X156574358Y-67014497D01*
X156574199Y-67015157D01*
X156516914Y-67143518D01*
X156493261Y-67196645D01*
X156439257Y-67273200D01*
X156385932Y-67350643D01*
X156381520Y-67355048D01*
X156374451Y-67365068D01*
X156309969Y-67426474D01*
X156249227Y-67487109D01*
X156238742Y-67494302D01*
X156225191Y-67507206D01*
X156154960Y-67551776D01*
X156089942Y-67596378D01*
X156072400Y-67604170D01*
X156051165Y-67617646D01*
X155979347Y-67645503D01*
X155913410Y-67674791D01*
X155888446Y-67680761D01*
X155859002Y-67692182D01*
X155789304Y-67704471D01*
X155725543Y-67719720D01*
X155693438Y-67721375D01*
X155656022Y-67727972D01*
X155591608Y-67726623D01*
X155532641Y-67729662D01*
X155494342Y-67724586D01*
X155449955Y-67723656D01*
X155393223Y-67711183D01*
X155341152Y-67704281D01*
X155298267Y-67690306D01*
X155248652Y-67679397D01*
X155201265Y-67658694D01*
X155157498Y-67644431D01*
X155112176Y-67619772D01*
X155059779Y-67596880D01*
X155022565Y-67571016D01*
X154987825Y-67552114D01*
X154942703Y-67515510D01*
X154890530Y-67479249D01*
X154863502Y-67451260D01*
X154837814Y-67430422D01*
X154795877Y-67381233D01*
X154747353Y-67330985D01*
X154729751Y-67303672D01*
X154712495Y-67283432D01*
X154676942Y-67221728D01*
X154635701Y-67157734D01*
X154626105Y-67133498D01*
X154616060Y-67116064D01*
X154590127Y-67042628D01*
X154559826Y-66966096D01*
X154556282Y-66946785D01*
X154551739Y-66933921D01*
X154538546Y-66850152D01*
X154522619Y-66763371D01*
X154522803Y-66750188D01*
X154521689Y-66743114D01*
X154524196Y-66650460D01*
X154525497Y-66557279D01*
X154526895Y-66550703D01*
X154526913Y-66550026D01*
X154556406Y-66411863D01*
X154568350Y-66355672D01*
X154605226Y-66269635D01*
X154641315Y-66182722D01*
X154644718Y-66177492D01*
X154649546Y-66166227D01*
X154699828Y-66092791D01*
X154746658Y-66020818D01*
X154755423Y-66011598D01*
X154765992Y-65996162D01*
X154825409Y-65937977D01*
X154879745Y-65880818D01*
X154895286Y-65869547D01*
X154913253Y-65851953D01*
X154977701Y-65809780D01*
X155036118Y-65767415D01*
X155059301Y-65756382D01*
X155085720Y-65739094D01*
X155151316Y-65712591D01*
X155210532Y-65684410D01*
X155241596Y-65676116D01*
X155276823Y-65661883D01*
X155340128Y-65649807D01*
X155397159Y-65634579D01*
X155435663Y-65631582D01*
X155479284Y-65623261D01*
X155537370Y-65623667D01*
X155589735Y-65619591D01*
X155634591Y-65624345D01*
X155634591Y-65624345D01*
G37*
M02*
