M48
; DRILL file {KiCad 6.0.0-unknown-bc26ccf~86~ubuntu18.04.1} date Tue 18 Jun 2019 01:40:22 PM IST
; FORMAT={-:-/ absolute / inch / decimal}
; #@! TF.CreationDate,2019-06-18T13:40:22+01:00
; #@! TF.GenerationSoftware,Kicad,Pcbnew,6.0.0-unknown-bc26ccf~86~ubuntu18.04.1
; #@! TF.FileFunction,Plated,1,2,PTH
FMAT,2
INCH
T1C0.0157
T2C0.0492
T3C0.0827
%
G90
G05
T1
X6.228Y-3.745
T2
X7.15Y-2.625
X7.15Y-2.825
X7.15Y-3.025
X7.038Y-3.596
X6.5Y-3.8213
X6.6Y-3.8213
X6.863Y-3.675
X6.4Y-3.8213
X7.183Y-3.299
X6.959Y-2.865
X7.194Y-3.154
X6.125Y-2.625
X6.125Y-2.825
X6.125Y-3.025
X7.15Y-3.725
X7.15Y-3.925
X7.15Y-4.125
X7.183Y-3.596
X6.125Y-3.725
X7.038Y-3.299
X6.817Y-3.895
X7.038Y-3.444
X7.05Y-3.154
X6.125Y-3.925
X6.125Y-4.125
X6.375Y-3.0289
X6.575Y-3.0289
X6.775Y-3.0289
X6.961Y-3.891
X7.182Y-3.444
X6.959Y-3.009
X6.96Y-4.072
T3
X6.3Y-3.9
X6.7Y-3.9
T0
M30
