G04 #@! TF.GenerationSoftware,KiCad,Pcbnew,6.0.0-unknown-bc26ccf~86~ubuntu18.04.1*
G04 #@! TF.CreationDate,2019-06-18T13:40:17+01:00*
G04 #@! TF.ProjectId,mouse8,6d6f7573-6538-42e6-9b69-6361645f7063,rev?*
G04 #@! TF.SameCoordinates,Original*
G04 #@! TF.FileFunction,Soldermask,Bot*
G04 #@! TF.FilePolarity,Negative*
%FSLAX46Y46*%
G04 Gerber Fmt 4.6, Leading zero omitted, Abs format (unit mm)*
G04 Created by KiCad (PCBNEW 6.0.0-unknown-bc26ccf~86~ubuntu18.04.1) date 2019-06-18 13:40:17*
%MOMM*%
%LPD*%
G04 APERTURE LIST*
%ADD10C,0.050000*%
%ADD11C,0.100000*%
G04 APERTURE END LIST*
D10*
X171653200Y-70916800D02*
X159308800Y-70916800D01*
X184632600Y-63500000D02*
X170180000Y-63500000D01*
X184632600Y-107950000D02*
X177800000Y-107950000D01*
X184632600Y-63500000D02*
X184632600Y-107950000D01*
X154940000Y-91440000D02*
X175717200Y-91440000D01*
X154940000Y-80010000D02*
X175717200Y-80010000D01*
X159308800Y-70916800D02*
X159308800Y-73914000D01*
X171653200Y-73914000D02*
X171653200Y-70916800D01*
X159308800Y-73914000D02*
X171653200Y-73914000D01*
X177800000Y-106680000D02*
X177800000Y-107950000D01*
X152400000Y-106680000D02*
X177800000Y-106680000D01*
X170180000Y-64770000D02*
X152400000Y-64770000D01*
X170180000Y-63500000D02*
X170180000Y-64770000D01*
X154940000Y-91440000D02*
X154940000Y-90805000D01*
X175717200Y-91440000D02*
X175717200Y-90805000D01*
X175717200Y-80010000D02*
X175717200Y-90805000D01*
X154940000Y-90805000D02*
X154940000Y-80010000D01*
X152400000Y-106680000D02*
X152400000Y-64770000D01*
D11*
G36*
X181669591Y-103724345D02*
G01*
X181720391Y-103724700D01*
X181771051Y-103735099D01*
X181816828Y-103739951D01*
X181866287Y-103754648D01*
X181922293Y-103766145D01*
X181964069Y-103783706D01*
X182001981Y-103794972D01*
X182053722Y-103821392D01*
X182112300Y-103846016D01*
X182144564Y-103867779D01*
X182174015Y-103882817D01*
X182225254Y-103922205D01*
X182283174Y-103961273D01*
X182306070Y-103984330D01*
X182327158Y-104000540D01*
X182374764Y-104053504D01*
X182428407Y-104107523D01*
X182442831Y-104129233D01*
X182456284Y-104144200D01*
X182496922Y-104210646D01*
X182542468Y-104279198D01*
X182549950Y-104297350D01*
X182557065Y-104308984D01*
X182587378Y-104388158D01*
X182621011Y-104469758D01*
X182623572Y-104482693D01*
X182626132Y-104489379D01*
X182642931Y-104580461D01*
X182661045Y-104671944D01*
X182657757Y-104907363D01*
X182654234Y-104922869D01*
X182654069Y-104928973D01*
X182632745Y-105017453D01*
X182612094Y-105108352D01*
X182609358Y-105114497D01*
X182609199Y-105115157D01*
X182551914Y-105243518D01*
X182528261Y-105296645D01*
X182474257Y-105373200D01*
X182420932Y-105450643D01*
X182416520Y-105455048D01*
X182409451Y-105465068D01*
X182344969Y-105526474D01*
X182284227Y-105587109D01*
X182273742Y-105594302D01*
X182260191Y-105607206D01*
X182189960Y-105651776D01*
X182124942Y-105696378D01*
X182107400Y-105704170D01*
X182086165Y-105717646D01*
X182014347Y-105745503D01*
X181948410Y-105774791D01*
X181923446Y-105780761D01*
X181894002Y-105792182D01*
X181824304Y-105804471D01*
X181760543Y-105819720D01*
X181728438Y-105821375D01*
X181691022Y-105827972D01*
X181626608Y-105826623D01*
X181567641Y-105829662D01*
X181529342Y-105824586D01*
X181484955Y-105823656D01*
X181428223Y-105811183D01*
X181376152Y-105804281D01*
X181333267Y-105790306D01*
X181283652Y-105779397D01*
X181236265Y-105758694D01*
X181192498Y-105744431D01*
X181147176Y-105719772D01*
X181094779Y-105696880D01*
X181057565Y-105671016D01*
X181022825Y-105652114D01*
X180977703Y-105615510D01*
X180925530Y-105579249D01*
X180898502Y-105551260D01*
X180872814Y-105530422D01*
X180830877Y-105481233D01*
X180782353Y-105430985D01*
X180764751Y-105403672D01*
X180747495Y-105383432D01*
X180711942Y-105321728D01*
X180670701Y-105257734D01*
X180661105Y-105233498D01*
X180651060Y-105216064D01*
X180625127Y-105142628D01*
X180594826Y-105066096D01*
X180591282Y-105046785D01*
X180586739Y-105033921D01*
X180573546Y-104950152D01*
X180557619Y-104863371D01*
X180557803Y-104850188D01*
X180556689Y-104843114D01*
X180559196Y-104750460D01*
X180560497Y-104657279D01*
X180561895Y-104650703D01*
X180561913Y-104650026D01*
X180591406Y-104511863D01*
X180603350Y-104455672D01*
X180640226Y-104369635D01*
X180676315Y-104282722D01*
X180679718Y-104277492D01*
X180684546Y-104266227D01*
X180734828Y-104192791D01*
X180781658Y-104120818D01*
X180790423Y-104111598D01*
X180800992Y-104096162D01*
X180860409Y-104037977D01*
X180914745Y-103980818D01*
X180930286Y-103969547D01*
X180948253Y-103951953D01*
X181012701Y-103909780D01*
X181071118Y-103867415D01*
X181094301Y-103856382D01*
X181120720Y-103839094D01*
X181186316Y-103812591D01*
X181245532Y-103784410D01*
X181276596Y-103776116D01*
X181311823Y-103761883D01*
X181375128Y-103749807D01*
X181432159Y-103734579D01*
X181470663Y-103731582D01*
X181514284Y-103723261D01*
X181572370Y-103723667D01*
X181624735Y-103719591D01*
X181669591Y-103724345D01*
X181669591Y-103724345D01*
G37*
G36*
X155634591Y-103724345D02*
G01*
X155685391Y-103724700D01*
X155736051Y-103735099D01*
X155781828Y-103739951D01*
X155831287Y-103754648D01*
X155887293Y-103766145D01*
X155929069Y-103783706D01*
X155966981Y-103794972D01*
X156018722Y-103821392D01*
X156077300Y-103846016D01*
X156109564Y-103867779D01*
X156139015Y-103882817D01*
X156190254Y-103922205D01*
X156248174Y-103961273D01*
X156271070Y-103984330D01*
X156292158Y-104000540D01*
X156339764Y-104053504D01*
X156393407Y-104107523D01*
X156407831Y-104129233D01*
X156421284Y-104144200D01*
X156461922Y-104210646D01*
X156507468Y-104279198D01*
X156514950Y-104297350D01*
X156522065Y-104308984D01*
X156552378Y-104388158D01*
X156586011Y-104469758D01*
X156588572Y-104482693D01*
X156591132Y-104489379D01*
X156607931Y-104580461D01*
X156626045Y-104671944D01*
X156622757Y-104907363D01*
X156619234Y-104922869D01*
X156619069Y-104928973D01*
X156597745Y-105017453D01*
X156577094Y-105108352D01*
X156574358Y-105114497D01*
X156574199Y-105115157D01*
X156516914Y-105243518D01*
X156493261Y-105296645D01*
X156439257Y-105373200D01*
X156385932Y-105450643D01*
X156381520Y-105455048D01*
X156374451Y-105465068D01*
X156309969Y-105526474D01*
X156249227Y-105587109D01*
X156238742Y-105594302D01*
X156225191Y-105607206D01*
X156154960Y-105651776D01*
X156089942Y-105696378D01*
X156072400Y-105704170D01*
X156051165Y-105717646D01*
X155979347Y-105745503D01*
X155913410Y-105774791D01*
X155888446Y-105780761D01*
X155859002Y-105792182D01*
X155789304Y-105804471D01*
X155725543Y-105819720D01*
X155693438Y-105821375D01*
X155656022Y-105827972D01*
X155591608Y-105826623D01*
X155532641Y-105829662D01*
X155494342Y-105824586D01*
X155449955Y-105823656D01*
X155393223Y-105811183D01*
X155341152Y-105804281D01*
X155298267Y-105790306D01*
X155248652Y-105779397D01*
X155201265Y-105758694D01*
X155157498Y-105744431D01*
X155112176Y-105719772D01*
X155059779Y-105696880D01*
X155022565Y-105671016D01*
X154987825Y-105652114D01*
X154942703Y-105615510D01*
X154890530Y-105579249D01*
X154863502Y-105551260D01*
X154837814Y-105530422D01*
X154795877Y-105481233D01*
X154747353Y-105430985D01*
X154729751Y-105403672D01*
X154712495Y-105383432D01*
X154676942Y-105321728D01*
X154635701Y-105257734D01*
X154626105Y-105233498D01*
X154616060Y-105216064D01*
X154590127Y-105142628D01*
X154559826Y-105066096D01*
X154556282Y-105046785D01*
X154551739Y-105033921D01*
X154538546Y-104950152D01*
X154522619Y-104863371D01*
X154522803Y-104850188D01*
X154521689Y-104843114D01*
X154524196Y-104750460D01*
X154525497Y-104657279D01*
X154526895Y-104650703D01*
X154526913Y-104650026D01*
X154556406Y-104511863D01*
X154568350Y-104455672D01*
X154605226Y-104369635D01*
X154641315Y-104282722D01*
X154644718Y-104277492D01*
X154649546Y-104266227D01*
X154699828Y-104192791D01*
X154746658Y-104120818D01*
X154755423Y-104111598D01*
X154765992Y-104096162D01*
X154825409Y-104037977D01*
X154879745Y-103980818D01*
X154895286Y-103969547D01*
X154913253Y-103951953D01*
X154977701Y-103909780D01*
X155036118Y-103867415D01*
X155059301Y-103856382D01*
X155085720Y-103839094D01*
X155151316Y-103812591D01*
X155210532Y-103784410D01*
X155241596Y-103776116D01*
X155276823Y-103761883D01*
X155340128Y-103749807D01*
X155397159Y-103734579D01*
X155435663Y-103731582D01*
X155479284Y-103723261D01*
X155537370Y-103723667D01*
X155589735Y-103719591D01*
X155634591Y-103724345D01*
X155634591Y-103724345D01*
G37*
G36*
X177685000Y-104329800D02*
G01*
X175883000Y-104329800D01*
X175883000Y-102527800D01*
X177685000Y-102527800D01*
X177685000Y-104329800D01*
X177685000Y-104329800D01*
G37*
G36*
X155634591Y-98644345D02*
G01*
X155685391Y-98644700D01*
X155736051Y-98655099D01*
X155781828Y-98659951D01*
X155831287Y-98674648D01*
X155887293Y-98686145D01*
X155929069Y-98703706D01*
X155966981Y-98714972D01*
X156018722Y-98741392D01*
X156077300Y-98766016D01*
X156109564Y-98787779D01*
X156139015Y-98802817D01*
X156190254Y-98842205D01*
X156248174Y-98881273D01*
X156271070Y-98904330D01*
X156292158Y-98920540D01*
X156339764Y-98973504D01*
X156393407Y-99027523D01*
X156407831Y-99049233D01*
X156421284Y-99064200D01*
X156461922Y-99130646D01*
X156507468Y-99199198D01*
X156514950Y-99217350D01*
X156522065Y-99228984D01*
X156552378Y-99308158D01*
X156586011Y-99389758D01*
X156588572Y-99402693D01*
X156591132Y-99409379D01*
X156607931Y-99500461D01*
X156626045Y-99591944D01*
X156622757Y-99827363D01*
X156619234Y-99842869D01*
X156619069Y-99848973D01*
X156597745Y-99937453D01*
X156577094Y-100028352D01*
X156574358Y-100034497D01*
X156574199Y-100035157D01*
X156516914Y-100163518D01*
X156493261Y-100216645D01*
X156439257Y-100293200D01*
X156385932Y-100370643D01*
X156381520Y-100375048D01*
X156374451Y-100385068D01*
X156309969Y-100446474D01*
X156249227Y-100507109D01*
X156238742Y-100514302D01*
X156225191Y-100527206D01*
X156154960Y-100571776D01*
X156089942Y-100616378D01*
X156072400Y-100624170D01*
X156051165Y-100637646D01*
X155979347Y-100665503D01*
X155913410Y-100694791D01*
X155888446Y-100700761D01*
X155859002Y-100712182D01*
X155789304Y-100724471D01*
X155725543Y-100739720D01*
X155693438Y-100741375D01*
X155656022Y-100747972D01*
X155591608Y-100746623D01*
X155532641Y-100749662D01*
X155494342Y-100744586D01*
X155449955Y-100743656D01*
X155393223Y-100731183D01*
X155341152Y-100724281D01*
X155298267Y-100710306D01*
X155248652Y-100699397D01*
X155201265Y-100678694D01*
X155157498Y-100664431D01*
X155112176Y-100639772D01*
X155059779Y-100616880D01*
X155022565Y-100591016D01*
X154987825Y-100572114D01*
X154942703Y-100535510D01*
X154890530Y-100499249D01*
X154863502Y-100471260D01*
X154837814Y-100450422D01*
X154795877Y-100401233D01*
X154747353Y-100350985D01*
X154729751Y-100323672D01*
X154712495Y-100303432D01*
X154676942Y-100241728D01*
X154635701Y-100177734D01*
X154626105Y-100153498D01*
X154616060Y-100136064D01*
X154590127Y-100062628D01*
X154559826Y-99986096D01*
X154556282Y-99966785D01*
X154551739Y-99953921D01*
X154538546Y-99870152D01*
X154522619Y-99783371D01*
X154522803Y-99770188D01*
X154521689Y-99763114D01*
X154524196Y-99670460D01*
X154525497Y-99577279D01*
X154526895Y-99570703D01*
X154526913Y-99570026D01*
X154556406Y-99431863D01*
X154568350Y-99375672D01*
X154605226Y-99289635D01*
X154641315Y-99202722D01*
X154644718Y-99197492D01*
X154649546Y-99186227D01*
X154699828Y-99112791D01*
X154746658Y-99040818D01*
X154755423Y-99031598D01*
X154765992Y-99016162D01*
X154825409Y-98957977D01*
X154879745Y-98900818D01*
X154895286Y-98889547D01*
X154913253Y-98871953D01*
X154977701Y-98829780D01*
X155036118Y-98787415D01*
X155059301Y-98776382D01*
X155085720Y-98759094D01*
X155151316Y-98732591D01*
X155210532Y-98704410D01*
X155241596Y-98696116D01*
X155276823Y-98681883D01*
X155340128Y-98669807D01*
X155397159Y-98654579D01*
X155435663Y-98651582D01*
X155479284Y-98643261D01*
X155537370Y-98643667D01*
X155589735Y-98639591D01*
X155634591Y-98644345D01*
X155634591Y-98644345D01*
G37*
G36*
X181669591Y-98644345D02*
G01*
X181720391Y-98644700D01*
X181771051Y-98655099D01*
X181816828Y-98659951D01*
X181866287Y-98674648D01*
X181922293Y-98686145D01*
X181964069Y-98703706D01*
X182001981Y-98714972D01*
X182053722Y-98741392D01*
X182112300Y-98766016D01*
X182144564Y-98787779D01*
X182174015Y-98802817D01*
X182225254Y-98842205D01*
X182283174Y-98881273D01*
X182306070Y-98904330D01*
X182327158Y-98920540D01*
X182374764Y-98973504D01*
X182428407Y-99027523D01*
X182442831Y-99049233D01*
X182456284Y-99064200D01*
X182496922Y-99130646D01*
X182542468Y-99199198D01*
X182549950Y-99217350D01*
X182557065Y-99228984D01*
X182587378Y-99308158D01*
X182621011Y-99389758D01*
X182623572Y-99402693D01*
X182626132Y-99409379D01*
X182642931Y-99500461D01*
X182661045Y-99591944D01*
X182657757Y-99827363D01*
X182654234Y-99842869D01*
X182654069Y-99848973D01*
X182632745Y-99937453D01*
X182612094Y-100028352D01*
X182609358Y-100034497D01*
X182609199Y-100035157D01*
X182551914Y-100163518D01*
X182528261Y-100216645D01*
X182474257Y-100293200D01*
X182420932Y-100370643D01*
X182416520Y-100375048D01*
X182409451Y-100385068D01*
X182344969Y-100446474D01*
X182284227Y-100507109D01*
X182273742Y-100514302D01*
X182260191Y-100527206D01*
X182189960Y-100571776D01*
X182124942Y-100616378D01*
X182107400Y-100624170D01*
X182086165Y-100637646D01*
X182014347Y-100665503D01*
X181948410Y-100694791D01*
X181923446Y-100700761D01*
X181894002Y-100712182D01*
X181824304Y-100724471D01*
X181760543Y-100739720D01*
X181728438Y-100741375D01*
X181691022Y-100747972D01*
X181626608Y-100746623D01*
X181567641Y-100749662D01*
X181529342Y-100744586D01*
X181484955Y-100743656D01*
X181428223Y-100731183D01*
X181376152Y-100724281D01*
X181333267Y-100710306D01*
X181283652Y-100699397D01*
X181236265Y-100678694D01*
X181192498Y-100664431D01*
X181147176Y-100639772D01*
X181094779Y-100616880D01*
X181057565Y-100591016D01*
X181022825Y-100572114D01*
X180977703Y-100535510D01*
X180925530Y-100499249D01*
X180898502Y-100471260D01*
X180872814Y-100450422D01*
X180830877Y-100401233D01*
X180782353Y-100350985D01*
X180764751Y-100323672D01*
X180747495Y-100303432D01*
X180711942Y-100241728D01*
X180670701Y-100177734D01*
X180661105Y-100153498D01*
X180651060Y-100136064D01*
X180625127Y-100062628D01*
X180594826Y-99986096D01*
X180591282Y-99966785D01*
X180586739Y-99953921D01*
X180573546Y-99870152D01*
X180557619Y-99783371D01*
X180557803Y-99770188D01*
X180556689Y-99763114D01*
X180559196Y-99670460D01*
X180560497Y-99577279D01*
X180561895Y-99570703D01*
X180561913Y-99570026D01*
X180591406Y-99431863D01*
X180603350Y-99375672D01*
X180640226Y-99289635D01*
X180676315Y-99202722D01*
X180679718Y-99197492D01*
X180684546Y-99186227D01*
X180734828Y-99112791D01*
X180781658Y-99040818D01*
X180790423Y-99031598D01*
X180800992Y-99016162D01*
X180860409Y-98957977D01*
X180914745Y-98900818D01*
X180930286Y-98889547D01*
X180948253Y-98871953D01*
X181012701Y-98829780D01*
X181071118Y-98787415D01*
X181094301Y-98776382D01*
X181120720Y-98759094D01*
X181186316Y-98732591D01*
X181245532Y-98704410D01*
X181276596Y-98696116D01*
X181311823Y-98681883D01*
X181375128Y-98669807D01*
X181432159Y-98654579D01*
X181470663Y-98651582D01*
X181514284Y-98643261D01*
X181572370Y-98643667D01*
X181624735Y-98639591D01*
X181669591Y-98644345D01*
X181669591Y-98644345D01*
G37*
G36*
X160034870Y-97507503D02*
G01*
X160090587Y-97505557D01*
X160157861Y-97514056D01*
X160220350Y-97517385D01*
X160276239Y-97529010D01*
X160338205Y-97536838D01*
X160396838Y-97554095D01*
X160451387Y-97565441D01*
X160511309Y-97587785D01*
X160577637Y-97607307D01*
X160626700Y-97630814D01*
X160672485Y-97647887D01*
X160734355Y-97682394D01*
X160802722Y-97715150D01*
X160841870Y-97742359D01*
X160878580Y-97762833D01*
X160939992Y-97810555D01*
X161007669Y-97857592D01*
X161037117Y-97886029D01*
X161064905Y-97907623D01*
X161123181Y-97969140D01*
X161187207Y-98030969D01*
X161207690Y-98058349D01*
X161227196Y-98078940D01*
X161279539Y-98154391D01*
X161336715Y-98230821D01*
X161349424Y-98255130D01*
X161361703Y-98272831D01*
X161405241Y-98361900D01*
X161452347Y-98452005D01*
X161458868Y-98471606D01*
X161465330Y-98484827D01*
X161497204Y-98586849D01*
X161531129Y-98688831D01*
X161533351Y-98702547D01*
X161535703Y-98710077D01*
X161553218Y-98825216D01*
X161571033Y-98935207D01*
X161568079Y-99217248D01*
X161561707Y-99251966D01*
X161561166Y-99270197D01*
X161541162Y-99363910D01*
X161523024Y-99462734D01*
X161515639Y-99483474D01*
X161512281Y-99499204D01*
X161474978Y-99597664D01*
X161439300Y-99697859D01*
X161431956Y-99711218D01*
X161428676Y-99719875D01*
X161372486Y-99819393D01*
X161319061Y-99916573D01*
X161313852Y-99923240D01*
X161312659Y-99925353D01*
X161227525Y-100033734D01*
X161165400Y-100113249D01*
X161084204Y-100188438D01*
X160994728Y-100272314D01*
X160990477Y-100275230D01*
X160982271Y-100282829D01*
X160891065Y-100343426D01*
X160800132Y-100405806D01*
X160789346Y-100411009D01*
X160774386Y-100420948D01*
X160679597Y-100463946D01*
X160587593Y-100508324D01*
X160569603Y-100513841D01*
X160547091Y-100524053D01*
X160452529Y-100549745D01*
X160361988Y-100577512D01*
X160336633Y-100581234D01*
X160306237Y-100589492D01*
X160215124Y-100599068D01*
X160128513Y-100611781D01*
X160096058Y-100611583D01*
X160058018Y-100615581D01*
X159973077Y-100610832D01*
X159892537Y-100610340D01*
X159853732Y-100604159D01*
X159808820Y-100601648D01*
X159732188Y-100584799D01*
X159659503Y-100573222D01*
X159615572Y-100559160D01*
X159565056Y-100548053D01*
X159498282Y-100521615D01*
X159434751Y-100501279D01*
X159387318Y-100477681D01*
X159332997Y-100456174D01*
X159277052Y-100422824D01*
X159223481Y-100396173D01*
X159174562Y-100361729D01*
X159118612Y-100328376D01*
X159073850Y-100290816D01*
X159030537Y-100260319D01*
X158982434Y-100214109D01*
X158927418Y-100167945D01*
X158893622Y-100128792D01*
X158860359Y-100096838D01*
X158815609Y-100038413D01*
X158764333Y-99979009D01*
X158740758Y-99940688D01*
X158716869Y-99909499D01*
X158678132Y-99838891D01*
X158633554Y-99766430D01*
X158618980Y-99731071D01*
X158603367Y-99702612D01*
X158573347Y-99620357D01*
X158538444Y-99535676D01*
X158531254Y-99505023D01*
X158522464Y-99480937D01*
X158503818Y-99388049D01*
X158481451Y-99292684D01*
X158479727Y-99268029D01*
X158476023Y-99249577D01*
X158471300Y-99147527D01*
X158464040Y-99043705D01*
X158465668Y-99025820D01*
X158465114Y-99013855D01*
X158476738Y-98904177D01*
X158486661Y-98795146D01*
X158489442Y-98784316D01*
X158489985Y-98779190D01*
X158521189Y-98660668D01*
X158548731Y-98553401D01*
X158589091Y-98461021D01*
X158643971Y-98334502D01*
X158645264Y-98332445D01*
X158648652Y-98324690D01*
X158708740Y-98231452D01*
X158769542Y-98134713D01*
X158775595Y-98127713D01*
X158783855Y-98114896D01*
X158855058Y-98035817D01*
X158923893Y-97956212D01*
X158936124Y-97945785D01*
X158950861Y-97929417D01*
X159029191Y-97866438D01*
X159103465Y-97803114D01*
X159122935Y-97791065D01*
X159145373Y-97773025D01*
X159227267Y-97726503D01*
X159304129Y-97678939D01*
X159331484Y-97667299D01*
X159362387Y-97649744D01*
X159444567Y-97619182D01*
X159521259Y-97586549D01*
X159556685Y-97577486D01*
X159596320Y-97562746D01*
X159675882Y-97546992D01*
X159749877Y-97528062D01*
X159793059Y-97523790D01*
X159841153Y-97514267D01*
X159915594Y-97511668D01*
X159984709Y-97504830D01*
X160034870Y-97507503D01*
X160034870Y-97507503D01*
G37*
G36*
X170194870Y-97507503D02*
G01*
X170250587Y-97505557D01*
X170317861Y-97514056D01*
X170380350Y-97517385D01*
X170436239Y-97529010D01*
X170498205Y-97536838D01*
X170556838Y-97554095D01*
X170611387Y-97565441D01*
X170671309Y-97587785D01*
X170737637Y-97607307D01*
X170786700Y-97630814D01*
X170832485Y-97647887D01*
X170894355Y-97682394D01*
X170962722Y-97715150D01*
X171001870Y-97742359D01*
X171038580Y-97762833D01*
X171099992Y-97810555D01*
X171167669Y-97857592D01*
X171197117Y-97886029D01*
X171224905Y-97907623D01*
X171283181Y-97969140D01*
X171347207Y-98030969D01*
X171367690Y-98058349D01*
X171387196Y-98078940D01*
X171439539Y-98154391D01*
X171496715Y-98230821D01*
X171509424Y-98255130D01*
X171521703Y-98272831D01*
X171565241Y-98361900D01*
X171612347Y-98452005D01*
X171618868Y-98471606D01*
X171625330Y-98484827D01*
X171657204Y-98586849D01*
X171691129Y-98688831D01*
X171693351Y-98702547D01*
X171695703Y-98710077D01*
X171713218Y-98825216D01*
X171731033Y-98935207D01*
X171728079Y-99217248D01*
X171721707Y-99251966D01*
X171721166Y-99270197D01*
X171701162Y-99363910D01*
X171683024Y-99462734D01*
X171675639Y-99483474D01*
X171672281Y-99499204D01*
X171634978Y-99597664D01*
X171599300Y-99697859D01*
X171591956Y-99711218D01*
X171588676Y-99719875D01*
X171532486Y-99819393D01*
X171479061Y-99916573D01*
X171473852Y-99923240D01*
X171472659Y-99925353D01*
X171387525Y-100033734D01*
X171325400Y-100113249D01*
X171244204Y-100188438D01*
X171154728Y-100272314D01*
X171150477Y-100275230D01*
X171142271Y-100282829D01*
X171051065Y-100343426D01*
X170960132Y-100405806D01*
X170949346Y-100411009D01*
X170934386Y-100420948D01*
X170839597Y-100463946D01*
X170747593Y-100508324D01*
X170729603Y-100513841D01*
X170707091Y-100524053D01*
X170612529Y-100549745D01*
X170521988Y-100577512D01*
X170496633Y-100581234D01*
X170466237Y-100589492D01*
X170375124Y-100599068D01*
X170288513Y-100611781D01*
X170256058Y-100611583D01*
X170218018Y-100615581D01*
X170133077Y-100610832D01*
X170052537Y-100610340D01*
X170013732Y-100604159D01*
X169968820Y-100601648D01*
X169892188Y-100584799D01*
X169819503Y-100573222D01*
X169775572Y-100559160D01*
X169725056Y-100548053D01*
X169658282Y-100521615D01*
X169594751Y-100501279D01*
X169547318Y-100477681D01*
X169492997Y-100456174D01*
X169437052Y-100422824D01*
X169383481Y-100396173D01*
X169334562Y-100361729D01*
X169278612Y-100328376D01*
X169233850Y-100290816D01*
X169190537Y-100260319D01*
X169142434Y-100214109D01*
X169087418Y-100167945D01*
X169053622Y-100128792D01*
X169020359Y-100096838D01*
X168975609Y-100038413D01*
X168924333Y-99979009D01*
X168900758Y-99940688D01*
X168876869Y-99909499D01*
X168838132Y-99838891D01*
X168793554Y-99766430D01*
X168778980Y-99731071D01*
X168763367Y-99702612D01*
X168733347Y-99620357D01*
X168698444Y-99535676D01*
X168691254Y-99505023D01*
X168682464Y-99480937D01*
X168663818Y-99388049D01*
X168641451Y-99292684D01*
X168639727Y-99268029D01*
X168636023Y-99249577D01*
X168631300Y-99147527D01*
X168624040Y-99043705D01*
X168625668Y-99025820D01*
X168625114Y-99013855D01*
X168636738Y-98904177D01*
X168646661Y-98795146D01*
X168649442Y-98784316D01*
X168649985Y-98779190D01*
X168681189Y-98660668D01*
X168708731Y-98553401D01*
X168749091Y-98461021D01*
X168803971Y-98334502D01*
X168805264Y-98332445D01*
X168808652Y-98324690D01*
X168868740Y-98231452D01*
X168929542Y-98134713D01*
X168935595Y-98127713D01*
X168943855Y-98114896D01*
X169015058Y-98035817D01*
X169083893Y-97956212D01*
X169096124Y-97945785D01*
X169110861Y-97929417D01*
X169189191Y-97866438D01*
X169263465Y-97803114D01*
X169282935Y-97791065D01*
X169305373Y-97773025D01*
X169387267Y-97726503D01*
X169464129Y-97678939D01*
X169491484Y-97667299D01*
X169522387Y-97649744D01*
X169604567Y-97619182D01*
X169681259Y-97586549D01*
X169716685Y-97577486D01*
X169756320Y-97562746D01*
X169835882Y-97546992D01*
X169909877Y-97528062D01*
X169953059Y-97523790D01*
X170001153Y-97514267D01*
X170075594Y-97511668D01*
X170144709Y-97504830D01*
X170194870Y-97507503D01*
X170194870Y-97507503D01*
G37*
G36*
X174052800Y-99834000D02*
G01*
X172250800Y-99834000D01*
X172250800Y-98032000D01*
X174052800Y-98032000D01*
X174052800Y-99834000D01*
X174052800Y-99834000D01*
G37*
G36*
X177710400Y-99732400D02*
G01*
X175908400Y-99732400D01*
X175908400Y-97930400D01*
X177710400Y-97930400D01*
X177710400Y-99732400D01*
X177710400Y-99732400D01*
G37*
G36*
X162619591Y-96009345D02*
G01*
X162670391Y-96009700D01*
X162721051Y-96020099D01*
X162766828Y-96024951D01*
X162816287Y-96039648D01*
X162872293Y-96051145D01*
X162914069Y-96068706D01*
X162951981Y-96079972D01*
X163003722Y-96106392D01*
X163062300Y-96131016D01*
X163094564Y-96152779D01*
X163124015Y-96167817D01*
X163175254Y-96207205D01*
X163233174Y-96246273D01*
X163256070Y-96269330D01*
X163277158Y-96285540D01*
X163324764Y-96338504D01*
X163378407Y-96392523D01*
X163392831Y-96414233D01*
X163406284Y-96429200D01*
X163446922Y-96495646D01*
X163492468Y-96564198D01*
X163499950Y-96582350D01*
X163507065Y-96593984D01*
X163537378Y-96673158D01*
X163571011Y-96754758D01*
X163573572Y-96767693D01*
X163576132Y-96774379D01*
X163592931Y-96865461D01*
X163611045Y-96956944D01*
X163607757Y-97192363D01*
X163604234Y-97207869D01*
X163604069Y-97213973D01*
X163582745Y-97302453D01*
X163562094Y-97393352D01*
X163559358Y-97399497D01*
X163559199Y-97400157D01*
X163502118Y-97528062D01*
X163478261Y-97581645D01*
X163424257Y-97658200D01*
X163370932Y-97735643D01*
X163366520Y-97740048D01*
X163359451Y-97750068D01*
X163294969Y-97811474D01*
X163234227Y-97872109D01*
X163223742Y-97879302D01*
X163210191Y-97892206D01*
X163139960Y-97936776D01*
X163074942Y-97981378D01*
X163057400Y-97989170D01*
X163036165Y-98002646D01*
X162964347Y-98030503D01*
X162898410Y-98059791D01*
X162873446Y-98065761D01*
X162844002Y-98077182D01*
X162774304Y-98089471D01*
X162710543Y-98104720D01*
X162678438Y-98106375D01*
X162641022Y-98112972D01*
X162576608Y-98111623D01*
X162517641Y-98114662D01*
X162479342Y-98109586D01*
X162434955Y-98108656D01*
X162378223Y-98096183D01*
X162326152Y-98089281D01*
X162283267Y-98075306D01*
X162233652Y-98064397D01*
X162186265Y-98043694D01*
X162142498Y-98029431D01*
X162097176Y-98004772D01*
X162044779Y-97981880D01*
X162007565Y-97956016D01*
X161972825Y-97937114D01*
X161927703Y-97900510D01*
X161875530Y-97864249D01*
X161848502Y-97836260D01*
X161822814Y-97815422D01*
X161780877Y-97766233D01*
X161732353Y-97715985D01*
X161714751Y-97688672D01*
X161697495Y-97668432D01*
X161661942Y-97606728D01*
X161620701Y-97542734D01*
X161611105Y-97518498D01*
X161601060Y-97501064D01*
X161575127Y-97427628D01*
X161544826Y-97351096D01*
X161541282Y-97331785D01*
X161536739Y-97318921D01*
X161523546Y-97235152D01*
X161507619Y-97148371D01*
X161507803Y-97135188D01*
X161506689Y-97128114D01*
X161509196Y-97035460D01*
X161510497Y-96942279D01*
X161511895Y-96935703D01*
X161511913Y-96935026D01*
X161541406Y-96796863D01*
X161553350Y-96740672D01*
X161590226Y-96654635D01*
X161626315Y-96567722D01*
X161629718Y-96562492D01*
X161634546Y-96551227D01*
X161684828Y-96477791D01*
X161731658Y-96405818D01*
X161740423Y-96396598D01*
X161750992Y-96381162D01*
X161810409Y-96322977D01*
X161864745Y-96265818D01*
X161880286Y-96254547D01*
X161898253Y-96236953D01*
X161962701Y-96194780D01*
X162021118Y-96152415D01*
X162044301Y-96141382D01*
X162070720Y-96124094D01*
X162136316Y-96097591D01*
X162195532Y-96069410D01*
X162226596Y-96061116D01*
X162261823Y-96046883D01*
X162325128Y-96034807D01*
X162382159Y-96019579D01*
X162420663Y-96016582D01*
X162464284Y-96008261D01*
X162522370Y-96008667D01*
X162574735Y-96004591D01*
X162619591Y-96009345D01*
X162619591Y-96009345D01*
G37*
G36*
X167699591Y-96009345D02*
G01*
X167750391Y-96009700D01*
X167801051Y-96020099D01*
X167846828Y-96024951D01*
X167896287Y-96039648D01*
X167952293Y-96051145D01*
X167994069Y-96068706D01*
X168031981Y-96079972D01*
X168083722Y-96106392D01*
X168142300Y-96131016D01*
X168174564Y-96152779D01*
X168204015Y-96167817D01*
X168255254Y-96207205D01*
X168313174Y-96246273D01*
X168336070Y-96269330D01*
X168357158Y-96285540D01*
X168404764Y-96338504D01*
X168458407Y-96392523D01*
X168472831Y-96414233D01*
X168486284Y-96429200D01*
X168526922Y-96495646D01*
X168572468Y-96564198D01*
X168579950Y-96582350D01*
X168587065Y-96593984D01*
X168617378Y-96673158D01*
X168651011Y-96754758D01*
X168653572Y-96767693D01*
X168656132Y-96774379D01*
X168672931Y-96865461D01*
X168691045Y-96956944D01*
X168687757Y-97192363D01*
X168684234Y-97207869D01*
X168684069Y-97213973D01*
X168662745Y-97302453D01*
X168642094Y-97393352D01*
X168639358Y-97399497D01*
X168639199Y-97400157D01*
X168582118Y-97528062D01*
X168558261Y-97581645D01*
X168504257Y-97658200D01*
X168450932Y-97735643D01*
X168446520Y-97740048D01*
X168439451Y-97750068D01*
X168374969Y-97811474D01*
X168314227Y-97872109D01*
X168303742Y-97879302D01*
X168290191Y-97892206D01*
X168219960Y-97936776D01*
X168154942Y-97981378D01*
X168137400Y-97989170D01*
X168116165Y-98002646D01*
X168044347Y-98030503D01*
X167978410Y-98059791D01*
X167953446Y-98065761D01*
X167924002Y-98077182D01*
X167854304Y-98089471D01*
X167790543Y-98104720D01*
X167758438Y-98106375D01*
X167721022Y-98112972D01*
X167656608Y-98111623D01*
X167597641Y-98114662D01*
X167559342Y-98109586D01*
X167514955Y-98108656D01*
X167458223Y-98096183D01*
X167406152Y-98089281D01*
X167363267Y-98075306D01*
X167313652Y-98064397D01*
X167266265Y-98043694D01*
X167222498Y-98029431D01*
X167177176Y-98004772D01*
X167124779Y-97981880D01*
X167087565Y-97956016D01*
X167052825Y-97937114D01*
X167007703Y-97900510D01*
X166955530Y-97864249D01*
X166928502Y-97836260D01*
X166902814Y-97815422D01*
X166860877Y-97766233D01*
X166812353Y-97715985D01*
X166794751Y-97688672D01*
X166777495Y-97668432D01*
X166741942Y-97606728D01*
X166700701Y-97542734D01*
X166691105Y-97518498D01*
X166681060Y-97501064D01*
X166655127Y-97427628D01*
X166624826Y-97351096D01*
X166621282Y-97331785D01*
X166616739Y-97318921D01*
X166603546Y-97235152D01*
X166587619Y-97148371D01*
X166587803Y-97135188D01*
X166586689Y-97128114D01*
X166589196Y-97035460D01*
X166590497Y-96942279D01*
X166591895Y-96935703D01*
X166591913Y-96935026D01*
X166621406Y-96796863D01*
X166633350Y-96740672D01*
X166670226Y-96654635D01*
X166706315Y-96567722D01*
X166709718Y-96562492D01*
X166714546Y-96551227D01*
X166764828Y-96477791D01*
X166811658Y-96405818D01*
X166820423Y-96396598D01*
X166830992Y-96381162D01*
X166890409Y-96322977D01*
X166944745Y-96265818D01*
X166960286Y-96254547D01*
X166978253Y-96236953D01*
X167042701Y-96194780D01*
X167101118Y-96152415D01*
X167124301Y-96141382D01*
X167150720Y-96124094D01*
X167216316Y-96097591D01*
X167275532Y-96069410D01*
X167306596Y-96061116D01*
X167341823Y-96046883D01*
X167405128Y-96034807D01*
X167462159Y-96019579D01*
X167500663Y-96016582D01*
X167544284Y-96008261D01*
X167602370Y-96008667D01*
X167654735Y-96004591D01*
X167699591Y-96009345D01*
X167699591Y-96009345D01*
G37*
G36*
X165159591Y-96009345D02*
G01*
X165210391Y-96009700D01*
X165261051Y-96020099D01*
X165306828Y-96024951D01*
X165356287Y-96039648D01*
X165412293Y-96051145D01*
X165454069Y-96068706D01*
X165491981Y-96079972D01*
X165543722Y-96106392D01*
X165602300Y-96131016D01*
X165634564Y-96152779D01*
X165664015Y-96167817D01*
X165715254Y-96207205D01*
X165773174Y-96246273D01*
X165796070Y-96269330D01*
X165817158Y-96285540D01*
X165864764Y-96338504D01*
X165918407Y-96392523D01*
X165932831Y-96414233D01*
X165946284Y-96429200D01*
X165986922Y-96495646D01*
X166032468Y-96564198D01*
X166039950Y-96582350D01*
X166047065Y-96593984D01*
X166077378Y-96673158D01*
X166111011Y-96754758D01*
X166113572Y-96767693D01*
X166116132Y-96774379D01*
X166132931Y-96865461D01*
X166151045Y-96956944D01*
X166147757Y-97192363D01*
X166144234Y-97207869D01*
X166144069Y-97213973D01*
X166122745Y-97302453D01*
X166102094Y-97393352D01*
X166099358Y-97399497D01*
X166099199Y-97400157D01*
X166042118Y-97528062D01*
X166018261Y-97581645D01*
X165964257Y-97658200D01*
X165910932Y-97735643D01*
X165906520Y-97740048D01*
X165899451Y-97750068D01*
X165834969Y-97811474D01*
X165774227Y-97872109D01*
X165763742Y-97879302D01*
X165750191Y-97892206D01*
X165679960Y-97936776D01*
X165614942Y-97981378D01*
X165597400Y-97989170D01*
X165576165Y-98002646D01*
X165504347Y-98030503D01*
X165438410Y-98059791D01*
X165413446Y-98065761D01*
X165384002Y-98077182D01*
X165314304Y-98089471D01*
X165250543Y-98104720D01*
X165218438Y-98106375D01*
X165181022Y-98112972D01*
X165116608Y-98111623D01*
X165057641Y-98114662D01*
X165019342Y-98109586D01*
X164974955Y-98108656D01*
X164918223Y-98096183D01*
X164866152Y-98089281D01*
X164823267Y-98075306D01*
X164773652Y-98064397D01*
X164726265Y-98043694D01*
X164682498Y-98029431D01*
X164637176Y-98004772D01*
X164584779Y-97981880D01*
X164547565Y-97956016D01*
X164512825Y-97937114D01*
X164467703Y-97900510D01*
X164415530Y-97864249D01*
X164388502Y-97836260D01*
X164362814Y-97815422D01*
X164320877Y-97766233D01*
X164272353Y-97715985D01*
X164254751Y-97688672D01*
X164237495Y-97668432D01*
X164201942Y-97606728D01*
X164160701Y-97542734D01*
X164151105Y-97518498D01*
X164141060Y-97501064D01*
X164115127Y-97427628D01*
X164084826Y-97351096D01*
X164081282Y-97331785D01*
X164076739Y-97318921D01*
X164063546Y-97235152D01*
X164047619Y-97148371D01*
X164047803Y-97135188D01*
X164046689Y-97128114D01*
X164049196Y-97035460D01*
X164050497Y-96942279D01*
X164051895Y-96935703D01*
X164051913Y-96935026D01*
X164081406Y-96796863D01*
X164093350Y-96740672D01*
X164130226Y-96654635D01*
X164166315Y-96567722D01*
X164169718Y-96562492D01*
X164174546Y-96551227D01*
X164224828Y-96477791D01*
X164271658Y-96405818D01*
X164280423Y-96396598D01*
X164290992Y-96381162D01*
X164350409Y-96322977D01*
X164404745Y-96265818D01*
X164420286Y-96254547D01*
X164438253Y-96236953D01*
X164502701Y-96194780D01*
X164561118Y-96152415D01*
X164584301Y-96141382D01*
X164610720Y-96124094D01*
X164676316Y-96097591D01*
X164735532Y-96069410D01*
X164766596Y-96061116D01*
X164801823Y-96046883D01*
X164865128Y-96034807D01*
X164922159Y-96019579D01*
X164960663Y-96016582D01*
X165004284Y-96008261D01*
X165062370Y-96008667D01*
X165114735Y-96004591D01*
X165159591Y-96009345D01*
X165159591Y-96009345D01*
G37*
G36*
X181669591Y-93564345D02*
G01*
X181720391Y-93564700D01*
X181771051Y-93575099D01*
X181816828Y-93579951D01*
X181866287Y-93594648D01*
X181922293Y-93606145D01*
X181964069Y-93623706D01*
X182001981Y-93634972D01*
X182053722Y-93661392D01*
X182112300Y-93686016D01*
X182144564Y-93707779D01*
X182174015Y-93722817D01*
X182225254Y-93762205D01*
X182283174Y-93801273D01*
X182306070Y-93824330D01*
X182327158Y-93840540D01*
X182374764Y-93893504D01*
X182428407Y-93947523D01*
X182442831Y-93969233D01*
X182456284Y-93984200D01*
X182496922Y-94050646D01*
X182542468Y-94119198D01*
X182549950Y-94137350D01*
X182557065Y-94148984D01*
X182587378Y-94228158D01*
X182621011Y-94309758D01*
X182623572Y-94322693D01*
X182626132Y-94329379D01*
X182642931Y-94420461D01*
X182661045Y-94511944D01*
X182657757Y-94747363D01*
X182654234Y-94762869D01*
X182654069Y-94768973D01*
X182632745Y-94857453D01*
X182612094Y-94948352D01*
X182609358Y-94954497D01*
X182609199Y-94955157D01*
X182551914Y-95083518D01*
X182528261Y-95136645D01*
X182474257Y-95213200D01*
X182420932Y-95290643D01*
X182416520Y-95295048D01*
X182409451Y-95305068D01*
X182344969Y-95366474D01*
X182284227Y-95427109D01*
X182273742Y-95434302D01*
X182260191Y-95447206D01*
X182189960Y-95491776D01*
X182124942Y-95536378D01*
X182107400Y-95544170D01*
X182086165Y-95557646D01*
X182014347Y-95585503D01*
X181948410Y-95614791D01*
X181923446Y-95620761D01*
X181894002Y-95632182D01*
X181824304Y-95644471D01*
X181760543Y-95659720D01*
X181728438Y-95661375D01*
X181691022Y-95667972D01*
X181626608Y-95666623D01*
X181567641Y-95669662D01*
X181529342Y-95664586D01*
X181484955Y-95663656D01*
X181428223Y-95651183D01*
X181376152Y-95644281D01*
X181333267Y-95630306D01*
X181283652Y-95619397D01*
X181236265Y-95598694D01*
X181192498Y-95584431D01*
X181147176Y-95559772D01*
X181094779Y-95536880D01*
X181057565Y-95511016D01*
X181022825Y-95492114D01*
X180977703Y-95455510D01*
X180925530Y-95419249D01*
X180898502Y-95391260D01*
X180872814Y-95370422D01*
X180830877Y-95321233D01*
X180782353Y-95270985D01*
X180764751Y-95243672D01*
X180747495Y-95223432D01*
X180711942Y-95161728D01*
X180670701Y-95097734D01*
X180661105Y-95073498D01*
X180651060Y-95056064D01*
X180625127Y-94982628D01*
X180594826Y-94906096D01*
X180591282Y-94886785D01*
X180586739Y-94873921D01*
X180573546Y-94790152D01*
X180557619Y-94703371D01*
X180557803Y-94690188D01*
X180556689Y-94683114D01*
X180559196Y-94590460D01*
X180560497Y-94497279D01*
X180561895Y-94490703D01*
X180561913Y-94490026D01*
X180591406Y-94351863D01*
X180603350Y-94295672D01*
X180640226Y-94209635D01*
X180676315Y-94122722D01*
X180679718Y-94117492D01*
X180684546Y-94106227D01*
X180734828Y-94032791D01*
X180781658Y-93960818D01*
X180790423Y-93951598D01*
X180800992Y-93936162D01*
X180860409Y-93877977D01*
X180914745Y-93820818D01*
X180930286Y-93809547D01*
X180948253Y-93791953D01*
X181012701Y-93749780D01*
X181071118Y-93707415D01*
X181094301Y-93696382D01*
X181120720Y-93679094D01*
X181186316Y-93652591D01*
X181245532Y-93624410D01*
X181276596Y-93616116D01*
X181311823Y-93601883D01*
X181375128Y-93589807D01*
X181432159Y-93574579D01*
X181470663Y-93571582D01*
X181514284Y-93563261D01*
X181572370Y-93563667D01*
X181624735Y-93559591D01*
X181669591Y-93564345D01*
X181669591Y-93564345D01*
G37*
G36*
X155634591Y-93564345D02*
G01*
X155685391Y-93564700D01*
X155736051Y-93575099D01*
X155781828Y-93579951D01*
X155831287Y-93594648D01*
X155887293Y-93606145D01*
X155929069Y-93623706D01*
X155966981Y-93634972D01*
X156018722Y-93661392D01*
X156077300Y-93686016D01*
X156109564Y-93707779D01*
X156139015Y-93722817D01*
X156190254Y-93762205D01*
X156248174Y-93801273D01*
X156271070Y-93824330D01*
X156292158Y-93840540D01*
X156339764Y-93893504D01*
X156393407Y-93947523D01*
X156407831Y-93969233D01*
X156421284Y-93984200D01*
X156461922Y-94050646D01*
X156507468Y-94119198D01*
X156514950Y-94137350D01*
X156522065Y-94148984D01*
X156552378Y-94228158D01*
X156586011Y-94309758D01*
X156588572Y-94322693D01*
X156591132Y-94329379D01*
X156607931Y-94420461D01*
X156626045Y-94511944D01*
X156622757Y-94747363D01*
X156619234Y-94762869D01*
X156619069Y-94768973D01*
X156597745Y-94857453D01*
X156577094Y-94948352D01*
X156574358Y-94954497D01*
X156574199Y-94955157D01*
X156516914Y-95083518D01*
X156493261Y-95136645D01*
X156439257Y-95213200D01*
X156385932Y-95290643D01*
X156381520Y-95295048D01*
X156374451Y-95305068D01*
X156309969Y-95366474D01*
X156249227Y-95427109D01*
X156238742Y-95434302D01*
X156225191Y-95447206D01*
X156154960Y-95491776D01*
X156089942Y-95536378D01*
X156072400Y-95544170D01*
X156051165Y-95557646D01*
X155979347Y-95585503D01*
X155913410Y-95614791D01*
X155888446Y-95620761D01*
X155859002Y-95632182D01*
X155789304Y-95644471D01*
X155725543Y-95659720D01*
X155693438Y-95661375D01*
X155656022Y-95667972D01*
X155591608Y-95666623D01*
X155532641Y-95669662D01*
X155494342Y-95664586D01*
X155449955Y-95663656D01*
X155393223Y-95651183D01*
X155341152Y-95644281D01*
X155298267Y-95630306D01*
X155248652Y-95619397D01*
X155201265Y-95598694D01*
X155157498Y-95584431D01*
X155112176Y-95559772D01*
X155059779Y-95536880D01*
X155022565Y-95511016D01*
X154987825Y-95492114D01*
X154942703Y-95455510D01*
X154890530Y-95419249D01*
X154863502Y-95391260D01*
X154837814Y-95370422D01*
X154795877Y-95321233D01*
X154747353Y-95270985D01*
X154729751Y-95243672D01*
X154712495Y-95223432D01*
X154676942Y-95161728D01*
X154635701Y-95097734D01*
X154626105Y-95073498D01*
X154616060Y-95056064D01*
X154590127Y-94982628D01*
X154559826Y-94906096D01*
X154556282Y-94886785D01*
X154551739Y-94873921D01*
X154538546Y-94790152D01*
X154522619Y-94703371D01*
X154522803Y-94690188D01*
X154521689Y-94683114D01*
X154524196Y-94590460D01*
X154525497Y-94497279D01*
X154526895Y-94490703D01*
X154526913Y-94490026D01*
X154556406Y-94351863D01*
X154568350Y-94295672D01*
X154605226Y-94209635D01*
X154641315Y-94122722D01*
X154644718Y-94117492D01*
X154649546Y-94106227D01*
X154699828Y-94032791D01*
X154746658Y-93960818D01*
X154755423Y-93951598D01*
X154765992Y-93936162D01*
X154825409Y-93877977D01*
X154879745Y-93820818D01*
X154895286Y-93809547D01*
X154913253Y-93791953D01*
X154977701Y-93749780D01*
X155036118Y-93707415D01*
X155059301Y-93696382D01*
X155085720Y-93679094D01*
X155151316Y-93652591D01*
X155210532Y-93624410D01*
X155241596Y-93616116D01*
X155276823Y-93601883D01*
X155340128Y-93589807D01*
X155397159Y-93574579D01*
X155435663Y-93571582D01*
X155479284Y-93563261D01*
X155537370Y-93563667D01*
X155589735Y-93559591D01*
X155634591Y-93564345D01*
X155634591Y-93564345D01*
G37*
G36*
X175221200Y-94246000D02*
G01*
X173419200Y-94246000D01*
X173419200Y-92444000D01*
X175221200Y-92444000D01*
X175221200Y-94246000D01*
X175221200Y-94246000D01*
G37*
G36*
X179666200Y-92239400D02*
G01*
X177864200Y-92239400D01*
X177864200Y-90437400D01*
X179666200Y-90437400D01*
X179666200Y-92239400D01*
X179666200Y-92239400D01*
G37*
G36*
X183349200Y-92239400D02*
G01*
X181547200Y-92239400D01*
X181547200Y-90437400D01*
X183349200Y-90437400D01*
X183349200Y-92239400D01*
X183349200Y-92239400D01*
G37*
G36*
X183323800Y-88378600D02*
G01*
X181521800Y-88378600D01*
X181521800Y-86576600D01*
X183323800Y-86576600D01*
X183323800Y-88378600D01*
X183323800Y-88378600D01*
G37*
G36*
X179666200Y-88378600D02*
G01*
X177864200Y-88378600D01*
X177864200Y-86576600D01*
X179666200Y-86576600D01*
X179666200Y-88378600D01*
X179666200Y-88378600D01*
G37*
G36*
X183349200Y-84695600D02*
G01*
X181547200Y-84695600D01*
X181547200Y-82893600D01*
X183349200Y-82893600D01*
X183349200Y-84695600D01*
X183349200Y-84695600D01*
G37*
G36*
X179666200Y-84695600D02*
G01*
X177864200Y-84695600D01*
X177864200Y-82893600D01*
X179666200Y-82893600D01*
X179666200Y-84695600D01*
X179666200Y-84695600D01*
G37*
G36*
X183628600Y-81012600D02*
G01*
X181826600Y-81012600D01*
X181826600Y-79210600D01*
X183628600Y-79210600D01*
X183628600Y-81012600D01*
X183628600Y-81012600D01*
G37*
G36*
X179971000Y-81012600D02*
G01*
X178169000Y-81012600D01*
X178169000Y-79210600D01*
X179971000Y-79210600D01*
X179971000Y-81012600D01*
X179971000Y-81012600D01*
G37*
G36*
X167064591Y-75884345D02*
G01*
X167115391Y-75884700D01*
X167166051Y-75895099D01*
X167211828Y-75899951D01*
X167261287Y-75914648D01*
X167317293Y-75926145D01*
X167359069Y-75943706D01*
X167396981Y-75954972D01*
X167448722Y-75981392D01*
X167507300Y-76006016D01*
X167539564Y-76027779D01*
X167569015Y-76042817D01*
X167620254Y-76082205D01*
X167678174Y-76121273D01*
X167701070Y-76144330D01*
X167722158Y-76160540D01*
X167769764Y-76213504D01*
X167823407Y-76267523D01*
X167837831Y-76289233D01*
X167851284Y-76304200D01*
X167891922Y-76370646D01*
X167937468Y-76439198D01*
X167944950Y-76457350D01*
X167952065Y-76468984D01*
X167982378Y-76548158D01*
X168016011Y-76629758D01*
X168018572Y-76642693D01*
X168021132Y-76649379D01*
X168037931Y-76740461D01*
X168056045Y-76831944D01*
X168052757Y-77067363D01*
X168049234Y-77082869D01*
X168049069Y-77088973D01*
X168027745Y-77177453D01*
X168007094Y-77268352D01*
X168004358Y-77274497D01*
X168004199Y-77275157D01*
X167946914Y-77403518D01*
X167923261Y-77456645D01*
X167869257Y-77533200D01*
X167815932Y-77610643D01*
X167811520Y-77615048D01*
X167804451Y-77625068D01*
X167739969Y-77686474D01*
X167679227Y-77747109D01*
X167668742Y-77754302D01*
X167655191Y-77767206D01*
X167584960Y-77811776D01*
X167519942Y-77856378D01*
X167502400Y-77864170D01*
X167481165Y-77877646D01*
X167409347Y-77905503D01*
X167343410Y-77934791D01*
X167318446Y-77940761D01*
X167289002Y-77952182D01*
X167219304Y-77964471D01*
X167155543Y-77979720D01*
X167123438Y-77981375D01*
X167086022Y-77987972D01*
X167021608Y-77986623D01*
X166962641Y-77989662D01*
X166924342Y-77984586D01*
X166879955Y-77983656D01*
X166823223Y-77971183D01*
X166771152Y-77964281D01*
X166728267Y-77950306D01*
X166678652Y-77939397D01*
X166631265Y-77918694D01*
X166587498Y-77904431D01*
X166542176Y-77879772D01*
X166489779Y-77856880D01*
X166452565Y-77831016D01*
X166417825Y-77812114D01*
X166372703Y-77775510D01*
X166320530Y-77739249D01*
X166293502Y-77711260D01*
X166267814Y-77690422D01*
X166225877Y-77641233D01*
X166177353Y-77590985D01*
X166159751Y-77563672D01*
X166142495Y-77543432D01*
X166106942Y-77481728D01*
X166065701Y-77417734D01*
X166056105Y-77393498D01*
X166046060Y-77376064D01*
X166020127Y-77302628D01*
X165989826Y-77226096D01*
X165986282Y-77206785D01*
X165981739Y-77193921D01*
X165968546Y-77110152D01*
X165952619Y-77023371D01*
X165952803Y-77010188D01*
X165951689Y-77003114D01*
X165954196Y-76910460D01*
X165955497Y-76817279D01*
X165956895Y-76810703D01*
X165956913Y-76810026D01*
X165986406Y-76671863D01*
X165998350Y-76615672D01*
X166035226Y-76529635D01*
X166071315Y-76442722D01*
X166074718Y-76437492D01*
X166079546Y-76426227D01*
X166129828Y-76352791D01*
X166176658Y-76280818D01*
X166185423Y-76271598D01*
X166195992Y-76256162D01*
X166255409Y-76197977D01*
X166309745Y-76140818D01*
X166325286Y-76129547D01*
X166343253Y-76111953D01*
X166407701Y-76069780D01*
X166466118Y-76027415D01*
X166489301Y-76016382D01*
X166515720Y-75999094D01*
X166581316Y-75972591D01*
X166640532Y-75944410D01*
X166671596Y-75936116D01*
X166706823Y-75921883D01*
X166770128Y-75909807D01*
X166827159Y-75894579D01*
X166865663Y-75891582D01*
X166909284Y-75883261D01*
X166967370Y-75883667D01*
X167019735Y-75879591D01*
X167064591Y-75884345D01*
X167064591Y-75884345D01*
G37*
G36*
X172144591Y-75884345D02*
G01*
X172195391Y-75884700D01*
X172246051Y-75895099D01*
X172291828Y-75899951D01*
X172341287Y-75914648D01*
X172397293Y-75926145D01*
X172439069Y-75943706D01*
X172476981Y-75954972D01*
X172528722Y-75981392D01*
X172587300Y-76006016D01*
X172619564Y-76027779D01*
X172649015Y-76042817D01*
X172700254Y-76082205D01*
X172758174Y-76121273D01*
X172781070Y-76144330D01*
X172802158Y-76160540D01*
X172849764Y-76213504D01*
X172903407Y-76267523D01*
X172917831Y-76289233D01*
X172931284Y-76304200D01*
X172971922Y-76370646D01*
X173017468Y-76439198D01*
X173024950Y-76457350D01*
X173032065Y-76468984D01*
X173062378Y-76548158D01*
X173096011Y-76629758D01*
X173098572Y-76642693D01*
X173101132Y-76649379D01*
X173117931Y-76740461D01*
X173136045Y-76831944D01*
X173132757Y-77067363D01*
X173129234Y-77082869D01*
X173129069Y-77088973D01*
X173107745Y-77177453D01*
X173087094Y-77268352D01*
X173084358Y-77274497D01*
X173084199Y-77275157D01*
X173026914Y-77403518D01*
X173003261Y-77456645D01*
X172949257Y-77533200D01*
X172895932Y-77610643D01*
X172891520Y-77615048D01*
X172884451Y-77625068D01*
X172819969Y-77686474D01*
X172759227Y-77747109D01*
X172748742Y-77754302D01*
X172735191Y-77767206D01*
X172664960Y-77811776D01*
X172599942Y-77856378D01*
X172582400Y-77864170D01*
X172561165Y-77877646D01*
X172489347Y-77905503D01*
X172423410Y-77934791D01*
X172398446Y-77940761D01*
X172369002Y-77952182D01*
X172299304Y-77964471D01*
X172235543Y-77979720D01*
X172203438Y-77981375D01*
X172166022Y-77987972D01*
X172101608Y-77986623D01*
X172042641Y-77989662D01*
X172004342Y-77984586D01*
X171959955Y-77983656D01*
X171903223Y-77971183D01*
X171851152Y-77964281D01*
X171808267Y-77950306D01*
X171758652Y-77939397D01*
X171711265Y-77918694D01*
X171667498Y-77904431D01*
X171622176Y-77879772D01*
X171569779Y-77856880D01*
X171532565Y-77831016D01*
X171497825Y-77812114D01*
X171452703Y-77775510D01*
X171400530Y-77739249D01*
X171373502Y-77711260D01*
X171347814Y-77690422D01*
X171305877Y-77641233D01*
X171257353Y-77590985D01*
X171239751Y-77563672D01*
X171222495Y-77543432D01*
X171186942Y-77481728D01*
X171145701Y-77417734D01*
X171136105Y-77393498D01*
X171126060Y-77376064D01*
X171100127Y-77302628D01*
X171069826Y-77226096D01*
X171066282Y-77206785D01*
X171061739Y-77193921D01*
X171048546Y-77110152D01*
X171032619Y-77023371D01*
X171032803Y-77010188D01*
X171031689Y-77003114D01*
X171034196Y-76910460D01*
X171035497Y-76817279D01*
X171036895Y-76810703D01*
X171036913Y-76810026D01*
X171066406Y-76671863D01*
X171078350Y-76615672D01*
X171115226Y-76529635D01*
X171151315Y-76442722D01*
X171154718Y-76437492D01*
X171159546Y-76426227D01*
X171209828Y-76352791D01*
X171256658Y-76280818D01*
X171265423Y-76271598D01*
X171275992Y-76256162D01*
X171335409Y-76197977D01*
X171389745Y-76140818D01*
X171405286Y-76129547D01*
X171423253Y-76111953D01*
X171487701Y-76069780D01*
X171546118Y-76027415D01*
X171569301Y-76016382D01*
X171595720Y-75999094D01*
X171661316Y-75972591D01*
X171720532Y-75944410D01*
X171751596Y-75936116D01*
X171786823Y-75921883D01*
X171850128Y-75909807D01*
X171907159Y-75894579D01*
X171945663Y-75891582D01*
X171989284Y-75883261D01*
X172047370Y-75883667D01*
X172099735Y-75879591D01*
X172144591Y-75884345D01*
X172144591Y-75884345D01*
G37*
G36*
X161984591Y-75884345D02*
G01*
X162035391Y-75884700D01*
X162086051Y-75895099D01*
X162131828Y-75899951D01*
X162181287Y-75914648D01*
X162237293Y-75926145D01*
X162279069Y-75943706D01*
X162316981Y-75954972D01*
X162368722Y-75981392D01*
X162427300Y-76006016D01*
X162459564Y-76027779D01*
X162489015Y-76042817D01*
X162540254Y-76082205D01*
X162598174Y-76121273D01*
X162621070Y-76144330D01*
X162642158Y-76160540D01*
X162689764Y-76213504D01*
X162743407Y-76267523D01*
X162757831Y-76289233D01*
X162771284Y-76304200D01*
X162811922Y-76370646D01*
X162857468Y-76439198D01*
X162864950Y-76457350D01*
X162872065Y-76468984D01*
X162902378Y-76548158D01*
X162936011Y-76629758D01*
X162938572Y-76642693D01*
X162941132Y-76649379D01*
X162957931Y-76740461D01*
X162976045Y-76831944D01*
X162972757Y-77067363D01*
X162969234Y-77082869D01*
X162969069Y-77088973D01*
X162947745Y-77177453D01*
X162927094Y-77268352D01*
X162924358Y-77274497D01*
X162924199Y-77275157D01*
X162866914Y-77403518D01*
X162843261Y-77456645D01*
X162789257Y-77533200D01*
X162735932Y-77610643D01*
X162731520Y-77615048D01*
X162724451Y-77625068D01*
X162659969Y-77686474D01*
X162599227Y-77747109D01*
X162588742Y-77754302D01*
X162575191Y-77767206D01*
X162504960Y-77811776D01*
X162439942Y-77856378D01*
X162422400Y-77864170D01*
X162401165Y-77877646D01*
X162329347Y-77905503D01*
X162263410Y-77934791D01*
X162238446Y-77940761D01*
X162209002Y-77952182D01*
X162139304Y-77964471D01*
X162075543Y-77979720D01*
X162043438Y-77981375D01*
X162006022Y-77987972D01*
X161941608Y-77986623D01*
X161882641Y-77989662D01*
X161844342Y-77984586D01*
X161799955Y-77983656D01*
X161743223Y-77971183D01*
X161691152Y-77964281D01*
X161648267Y-77950306D01*
X161598652Y-77939397D01*
X161551265Y-77918694D01*
X161507498Y-77904431D01*
X161462176Y-77879772D01*
X161409779Y-77856880D01*
X161372565Y-77831016D01*
X161337825Y-77812114D01*
X161292703Y-77775510D01*
X161240530Y-77739249D01*
X161213502Y-77711260D01*
X161187814Y-77690422D01*
X161145877Y-77641233D01*
X161097353Y-77590985D01*
X161079751Y-77563672D01*
X161062495Y-77543432D01*
X161026942Y-77481728D01*
X160985701Y-77417734D01*
X160976105Y-77393498D01*
X160966060Y-77376064D01*
X160940127Y-77302628D01*
X160909826Y-77226096D01*
X160906282Y-77206785D01*
X160901739Y-77193921D01*
X160888546Y-77110152D01*
X160872619Y-77023371D01*
X160872803Y-77010188D01*
X160871689Y-77003114D01*
X160874196Y-76910460D01*
X160875497Y-76817279D01*
X160876895Y-76810703D01*
X160876913Y-76810026D01*
X160906406Y-76671863D01*
X160918350Y-76615672D01*
X160955226Y-76529635D01*
X160991315Y-76442722D01*
X160994718Y-76437492D01*
X160999546Y-76426227D01*
X161049828Y-76352791D01*
X161096658Y-76280818D01*
X161105423Y-76271598D01*
X161115992Y-76256162D01*
X161175409Y-76197977D01*
X161229745Y-76140818D01*
X161245286Y-76129547D01*
X161263253Y-76111953D01*
X161327701Y-76069780D01*
X161386118Y-76027415D01*
X161409301Y-76016382D01*
X161435720Y-75999094D01*
X161501316Y-75972591D01*
X161560532Y-75944410D01*
X161591596Y-75936116D01*
X161626823Y-75921883D01*
X161690128Y-75909807D01*
X161747159Y-75894579D01*
X161785663Y-75891582D01*
X161829284Y-75883261D01*
X161887370Y-75883667D01*
X161939735Y-75879591D01*
X161984591Y-75884345D01*
X161984591Y-75884345D01*
G37*
G36*
X181669591Y-75784345D02*
G01*
X181720391Y-75784700D01*
X181771051Y-75795099D01*
X181816828Y-75799951D01*
X181866287Y-75814648D01*
X181922293Y-75826145D01*
X181964069Y-75843706D01*
X182001981Y-75854972D01*
X182053722Y-75881392D01*
X182112300Y-75906016D01*
X182144564Y-75927779D01*
X182174015Y-75942817D01*
X182225254Y-75982205D01*
X182283174Y-76021273D01*
X182306070Y-76044330D01*
X182327158Y-76060540D01*
X182374764Y-76113504D01*
X182428407Y-76167523D01*
X182442831Y-76189233D01*
X182456284Y-76204200D01*
X182496922Y-76270646D01*
X182542468Y-76339198D01*
X182549950Y-76357350D01*
X182557065Y-76368984D01*
X182587378Y-76448158D01*
X182621011Y-76529758D01*
X182623572Y-76542693D01*
X182626132Y-76549379D01*
X182642931Y-76640461D01*
X182661045Y-76731944D01*
X182657757Y-76967363D01*
X182654234Y-76982869D01*
X182654069Y-76988973D01*
X182632745Y-77077453D01*
X182612094Y-77168352D01*
X182609358Y-77174497D01*
X182609199Y-77175157D01*
X182551914Y-77303518D01*
X182528261Y-77356645D01*
X182474257Y-77433200D01*
X182420932Y-77510643D01*
X182416520Y-77515048D01*
X182409451Y-77525068D01*
X182344969Y-77586474D01*
X182284227Y-77647109D01*
X182273742Y-77654302D01*
X182260191Y-77667206D01*
X182189960Y-77711776D01*
X182124942Y-77756378D01*
X182107400Y-77764170D01*
X182086165Y-77777646D01*
X182014347Y-77805503D01*
X181948410Y-77834791D01*
X181923446Y-77840761D01*
X181894002Y-77852182D01*
X181824304Y-77864471D01*
X181760543Y-77879720D01*
X181728438Y-77881375D01*
X181691022Y-77887972D01*
X181626608Y-77886623D01*
X181567641Y-77889662D01*
X181529342Y-77884586D01*
X181484955Y-77883656D01*
X181428223Y-77871183D01*
X181376152Y-77864281D01*
X181333267Y-77850306D01*
X181283652Y-77839397D01*
X181236265Y-77818694D01*
X181192498Y-77804431D01*
X181147176Y-77779772D01*
X181094779Y-77756880D01*
X181057565Y-77731016D01*
X181022825Y-77712114D01*
X180977703Y-77675510D01*
X180925530Y-77639249D01*
X180898502Y-77611260D01*
X180872814Y-77590422D01*
X180830877Y-77541233D01*
X180782353Y-77490985D01*
X180764751Y-77463672D01*
X180747495Y-77443432D01*
X180711942Y-77381728D01*
X180670701Y-77317734D01*
X180661105Y-77293498D01*
X180651060Y-77276064D01*
X180625127Y-77202628D01*
X180594826Y-77126096D01*
X180591282Y-77106785D01*
X180586739Y-77093921D01*
X180573546Y-77010152D01*
X180557619Y-76923371D01*
X180557803Y-76910188D01*
X180556689Y-76903114D01*
X180559196Y-76810460D01*
X180560497Y-76717279D01*
X180561895Y-76710703D01*
X180561913Y-76710026D01*
X180591406Y-76571863D01*
X180603350Y-76515672D01*
X180640226Y-76429635D01*
X180676315Y-76342722D01*
X180679718Y-76337492D01*
X180684546Y-76326227D01*
X180734828Y-76252791D01*
X180781658Y-76180818D01*
X180790423Y-76171598D01*
X180800992Y-76156162D01*
X180860409Y-76097977D01*
X180914745Y-76040818D01*
X180930286Y-76029547D01*
X180948253Y-76011953D01*
X181012701Y-75969780D01*
X181071118Y-75927415D01*
X181094301Y-75916382D01*
X181120720Y-75899094D01*
X181186316Y-75872591D01*
X181245532Y-75844410D01*
X181276596Y-75836116D01*
X181311823Y-75821883D01*
X181375128Y-75809807D01*
X181432159Y-75794579D01*
X181470663Y-75791582D01*
X181514284Y-75783261D01*
X181572370Y-75783667D01*
X181624735Y-75779591D01*
X181669591Y-75784345D01*
X181669591Y-75784345D01*
G37*
G36*
X155634591Y-75784345D02*
G01*
X155685391Y-75784700D01*
X155736051Y-75795099D01*
X155781828Y-75799951D01*
X155831287Y-75814648D01*
X155887293Y-75826145D01*
X155929069Y-75843706D01*
X155966981Y-75854972D01*
X156018722Y-75881392D01*
X156077300Y-75906016D01*
X156109564Y-75927779D01*
X156139015Y-75942817D01*
X156190254Y-75982205D01*
X156248174Y-76021273D01*
X156271070Y-76044330D01*
X156292158Y-76060540D01*
X156339764Y-76113504D01*
X156393407Y-76167523D01*
X156407831Y-76189233D01*
X156421284Y-76204200D01*
X156461922Y-76270646D01*
X156507468Y-76339198D01*
X156514950Y-76357350D01*
X156522065Y-76368984D01*
X156552378Y-76448158D01*
X156586011Y-76529758D01*
X156588572Y-76542693D01*
X156591132Y-76549379D01*
X156607931Y-76640461D01*
X156626045Y-76731944D01*
X156622757Y-76967363D01*
X156619234Y-76982869D01*
X156619069Y-76988973D01*
X156597745Y-77077453D01*
X156577094Y-77168352D01*
X156574358Y-77174497D01*
X156574199Y-77175157D01*
X156516914Y-77303518D01*
X156493261Y-77356645D01*
X156439257Y-77433200D01*
X156385932Y-77510643D01*
X156381520Y-77515048D01*
X156374451Y-77525068D01*
X156309969Y-77586474D01*
X156249227Y-77647109D01*
X156238742Y-77654302D01*
X156225191Y-77667206D01*
X156154960Y-77711776D01*
X156089942Y-77756378D01*
X156072400Y-77764170D01*
X156051165Y-77777646D01*
X155979347Y-77805503D01*
X155913410Y-77834791D01*
X155888446Y-77840761D01*
X155859002Y-77852182D01*
X155789304Y-77864471D01*
X155725543Y-77879720D01*
X155693438Y-77881375D01*
X155656022Y-77887972D01*
X155591608Y-77886623D01*
X155532641Y-77889662D01*
X155494342Y-77884586D01*
X155449955Y-77883656D01*
X155393223Y-77871183D01*
X155341152Y-77864281D01*
X155298267Y-77850306D01*
X155248652Y-77839397D01*
X155201265Y-77818694D01*
X155157498Y-77804431D01*
X155112176Y-77779772D01*
X155059779Y-77756880D01*
X155022565Y-77731016D01*
X154987825Y-77712114D01*
X154942703Y-77675510D01*
X154890530Y-77639249D01*
X154863502Y-77611260D01*
X154837814Y-77590422D01*
X154795877Y-77541233D01*
X154747353Y-77490985D01*
X154729751Y-77463672D01*
X154712495Y-77443432D01*
X154676942Y-77381728D01*
X154635701Y-77317734D01*
X154626105Y-77293498D01*
X154616060Y-77276064D01*
X154590127Y-77202628D01*
X154559826Y-77126096D01*
X154556282Y-77106785D01*
X154551739Y-77093921D01*
X154538546Y-77010152D01*
X154522619Y-76923371D01*
X154522803Y-76910188D01*
X154521689Y-76903114D01*
X154524196Y-76810460D01*
X154525497Y-76717279D01*
X154526895Y-76710703D01*
X154526913Y-76710026D01*
X154556406Y-76571863D01*
X154568350Y-76515672D01*
X154605226Y-76429635D01*
X154641315Y-76342722D01*
X154644718Y-76337492D01*
X154649546Y-76326227D01*
X154699828Y-76252791D01*
X154746658Y-76180818D01*
X154755423Y-76171598D01*
X154765992Y-76156162D01*
X154825409Y-76097977D01*
X154879745Y-76040818D01*
X154895286Y-76029547D01*
X154913253Y-76011953D01*
X154977701Y-75969780D01*
X155036118Y-75927415D01*
X155059301Y-75916382D01*
X155085720Y-75899094D01*
X155151316Y-75872591D01*
X155210532Y-75844410D01*
X155241596Y-75836116D01*
X155276823Y-75821883D01*
X155340128Y-75809807D01*
X155397159Y-75794579D01*
X155435663Y-75791582D01*
X155479284Y-75783261D01*
X155537370Y-75783667D01*
X155589735Y-75779591D01*
X155634591Y-75784345D01*
X155634591Y-75784345D01*
G37*
G36*
X177659600Y-77329600D02*
G01*
X175857600Y-77329600D01*
X175857600Y-75527600D01*
X177659600Y-75527600D01*
X177659600Y-77329600D01*
X177659600Y-77329600D01*
G37*
G36*
X177659600Y-73672000D02*
G01*
X175857600Y-73672000D01*
X175857600Y-71870000D01*
X177659600Y-71870000D01*
X177659600Y-73672000D01*
X177659600Y-73672000D01*
G37*
G36*
X181669591Y-70704345D02*
G01*
X181720391Y-70704700D01*
X181771051Y-70715099D01*
X181816828Y-70719951D01*
X181866287Y-70734648D01*
X181922293Y-70746145D01*
X181964069Y-70763706D01*
X182001981Y-70774972D01*
X182053722Y-70801392D01*
X182112300Y-70826016D01*
X182144564Y-70847779D01*
X182174015Y-70862817D01*
X182225254Y-70902205D01*
X182283174Y-70941273D01*
X182306070Y-70964330D01*
X182327158Y-70980540D01*
X182374764Y-71033504D01*
X182428407Y-71087523D01*
X182442831Y-71109233D01*
X182456284Y-71124200D01*
X182496922Y-71190646D01*
X182542468Y-71259198D01*
X182549950Y-71277350D01*
X182557065Y-71288984D01*
X182587378Y-71368158D01*
X182621011Y-71449758D01*
X182623572Y-71462693D01*
X182626132Y-71469379D01*
X182642931Y-71560461D01*
X182661045Y-71651944D01*
X182657757Y-71887363D01*
X182654234Y-71902869D01*
X182654069Y-71908973D01*
X182632745Y-71997453D01*
X182612094Y-72088352D01*
X182609358Y-72094497D01*
X182609199Y-72095157D01*
X182551914Y-72223518D01*
X182528261Y-72276645D01*
X182474257Y-72353200D01*
X182420932Y-72430643D01*
X182416520Y-72435048D01*
X182409451Y-72445068D01*
X182344969Y-72506474D01*
X182284227Y-72567109D01*
X182273742Y-72574302D01*
X182260191Y-72587206D01*
X182189960Y-72631776D01*
X182124942Y-72676378D01*
X182107400Y-72684170D01*
X182086165Y-72697646D01*
X182014347Y-72725503D01*
X181948410Y-72754791D01*
X181923446Y-72760761D01*
X181894002Y-72772182D01*
X181824304Y-72784471D01*
X181760543Y-72799720D01*
X181728438Y-72801375D01*
X181691022Y-72807972D01*
X181626608Y-72806623D01*
X181567641Y-72809662D01*
X181529342Y-72804586D01*
X181484955Y-72803656D01*
X181428223Y-72791183D01*
X181376152Y-72784281D01*
X181333267Y-72770306D01*
X181283652Y-72759397D01*
X181236265Y-72738694D01*
X181192498Y-72724431D01*
X181147176Y-72699772D01*
X181094779Y-72676880D01*
X181057565Y-72651016D01*
X181022825Y-72632114D01*
X180977703Y-72595510D01*
X180925530Y-72559249D01*
X180898502Y-72531260D01*
X180872814Y-72510422D01*
X180830877Y-72461233D01*
X180782353Y-72410985D01*
X180764751Y-72383672D01*
X180747495Y-72363432D01*
X180711942Y-72301728D01*
X180670701Y-72237734D01*
X180661105Y-72213498D01*
X180651060Y-72196064D01*
X180625127Y-72122628D01*
X180594826Y-72046096D01*
X180591282Y-72026785D01*
X180586739Y-72013921D01*
X180573546Y-71930152D01*
X180557619Y-71843371D01*
X180557803Y-71830188D01*
X180556689Y-71823114D01*
X180559196Y-71730460D01*
X180560497Y-71637279D01*
X180561895Y-71630703D01*
X180561913Y-71630026D01*
X180591406Y-71491863D01*
X180603350Y-71435672D01*
X180640226Y-71349635D01*
X180676315Y-71262722D01*
X180679718Y-71257492D01*
X180684546Y-71246227D01*
X180734828Y-71172791D01*
X180781658Y-71100818D01*
X180790423Y-71091598D01*
X180800992Y-71076162D01*
X180860409Y-71017977D01*
X180914745Y-70960818D01*
X180930286Y-70949547D01*
X180948253Y-70931953D01*
X181012701Y-70889780D01*
X181071118Y-70847415D01*
X181094301Y-70836382D01*
X181120720Y-70819094D01*
X181186316Y-70792591D01*
X181245532Y-70764410D01*
X181276596Y-70756116D01*
X181311823Y-70741883D01*
X181375128Y-70729807D01*
X181432159Y-70714579D01*
X181470663Y-70711582D01*
X181514284Y-70703261D01*
X181572370Y-70703667D01*
X181624735Y-70699591D01*
X181669591Y-70704345D01*
X181669591Y-70704345D01*
G37*
G36*
X155634591Y-70704345D02*
G01*
X155685391Y-70704700D01*
X155736051Y-70715099D01*
X155781828Y-70719951D01*
X155831287Y-70734648D01*
X155887293Y-70746145D01*
X155929069Y-70763706D01*
X155966981Y-70774972D01*
X156018722Y-70801392D01*
X156077300Y-70826016D01*
X156109564Y-70847779D01*
X156139015Y-70862817D01*
X156190254Y-70902205D01*
X156248174Y-70941273D01*
X156271070Y-70964330D01*
X156292158Y-70980540D01*
X156339764Y-71033504D01*
X156393407Y-71087523D01*
X156407831Y-71109233D01*
X156421284Y-71124200D01*
X156461922Y-71190646D01*
X156507468Y-71259198D01*
X156514950Y-71277350D01*
X156522065Y-71288984D01*
X156552378Y-71368158D01*
X156586011Y-71449758D01*
X156588572Y-71462693D01*
X156591132Y-71469379D01*
X156607931Y-71560461D01*
X156626045Y-71651944D01*
X156622757Y-71887363D01*
X156619234Y-71902869D01*
X156619069Y-71908973D01*
X156597745Y-71997453D01*
X156577094Y-72088352D01*
X156574358Y-72094497D01*
X156574199Y-72095157D01*
X156516914Y-72223518D01*
X156493261Y-72276645D01*
X156439257Y-72353200D01*
X156385932Y-72430643D01*
X156381520Y-72435048D01*
X156374451Y-72445068D01*
X156309969Y-72506474D01*
X156249227Y-72567109D01*
X156238742Y-72574302D01*
X156225191Y-72587206D01*
X156154960Y-72631776D01*
X156089942Y-72676378D01*
X156072400Y-72684170D01*
X156051165Y-72697646D01*
X155979347Y-72725503D01*
X155913410Y-72754791D01*
X155888446Y-72760761D01*
X155859002Y-72772182D01*
X155789304Y-72784471D01*
X155725543Y-72799720D01*
X155693438Y-72801375D01*
X155656022Y-72807972D01*
X155591608Y-72806623D01*
X155532641Y-72809662D01*
X155494342Y-72804586D01*
X155449955Y-72803656D01*
X155393223Y-72791183D01*
X155341152Y-72784281D01*
X155298267Y-72770306D01*
X155248652Y-72759397D01*
X155201265Y-72738694D01*
X155157498Y-72724431D01*
X155112176Y-72699772D01*
X155059779Y-72676880D01*
X155022565Y-72651016D01*
X154987825Y-72632114D01*
X154942703Y-72595510D01*
X154890530Y-72559249D01*
X154863502Y-72531260D01*
X154837814Y-72510422D01*
X154795877Y-72461233D01*
X154747353Y-72410985D01*
X154729751Y-72383672D01*
X154712495Y-72363432D01*
X154676942Y-72301728D01*
X154635701Y-72237734D01*
X154626105Y-72213498D01*
X154616060Y-72196064D01*
X154590127Y-72122628D01*
X154559826Y-72046096D01*
X154556282Y-72026785D01*
X154551739Y-72013921D01*
X154538546Y-71930152D01*
X154522619Y-71843371D01*
X154522803Y-71830188D01*
X154521689Y-71823114D01*
X154524196Y-71730460D01*
X154525497Y-71637279D01*
X154526895Y-71630703D01*
X154526913Y-71630026D01*
X154556406Y-71491863D01*
X154568350Y-71435672D01*
X154605226Y-71349635D01*
X154641315Y-71262722D01*
X154644718Y-71257492D01*
X154649546Y-71246227D01*
X154699828Y-71172791D01*
X154746658Y-71100818D01*
X154755423Y-71091598D01*
X154765992Y-71076162D01*
X154825409Y-71017977D01*
X154879745Y-70960818D01*
X154895286Y-70949547D01*
X154913253Y-70931953D01*
X154977701Y-70889780D01*
X155036118Y-70847415D01*
X155059301Y-70836382D01*
X155085720Y-70819094D01*
X155151316Y-70792591D01*
X155210532Y-70764410D01*
X155241596Y-70756116D01*
X155276823Y-70741883D01*
X155340128Y-70729807D01*
X155397159Y-70714579D01*
X155435663Y-70711582D01*
X155479284Y-70703261D01*
X155537370Y-70703667D01*
X155589735Y-70699591D01*
X155634591Y-70704345D01*
X155634591Y-70704345D01*
G37*
G36*
X155634591Y-65624345D02*
G01*
X155685391Y-65624700D01*
X155736051Y-65635099D01*
X155781828Y-65639951D01*
X155831287Y-65654648D01*
X155887293Y-65666145D01*
X155929069Y-65683706D01*
X155966981Y-65694972D01*
X156018722Y-65721392D01*
X156077300Y-65746016D01*
X156109564Y-65767779D01*
X156139015Y-65782817D01*
X156190254Y-65822205D01*
X156248174Y-65861273D01*
X156271070Y-65884330D01*
X156292158Y-65900540D01*
X156339764Y-65953504D01*
X156393407Y-66007523D01*
X156407831Y-66029233D01*
X156421284Y-66044200D01*
X156461922Y-66110646D01*
X156507468Y-66179198D01*
X156514950Y-66197350D01*
X156522065Y-66208984D01*
X156552378Y-66288158D01*
X156586011Y-66369758D01*
X156588572Y-66382693D01*
X156591132Y-66389379D01*
X156607931Y-66480461D01*
X156626045Y-66571944D01*
X156622757Y-66807363D01*
X156619234Y-66822869D01*
X156619069Y-66828973D01*
X156597745Y-66917453D01*
X156577094Y-67008352D01*
X156574358Y-67014497D01*
X156574199Y-67015157D01*
X156516914Y-67143518D01*
X156493261Y-67196645D01*
X156439257Y-67273200D01*
X156385932Y-67350643D01*
X156381520Y-67355048D01*
X156374451Y-67365068D01*
X156309969Y-67426474D01*
X156249227Y-67487109D01*
X156238742Y-67494302D01*
X156225191Y-67507206D01*
X156154960Y-67551776D01*
X156089942Y-67596378D01*
X156072400Y-67604170D01*
X156051165Y-67617646D01*
X155979347Y-67645503D01*
X155913410Y-67674791D01*
X155888446Y-67680761D01*
X155859002Y-67692182D01*
X155789304Y-67704471D01*
X155725543Y-67719720D01*
X155693438Y-67721375D01*
X155656022Y-67727972D01*
X155591608Y-67726623D01*
X155532641Y-67729662D01*
X155494342Y-67724586D01*
X155449955Y-67723656D01*
X155393223Y-67711183D01*
X155341152Y-67704281D01*
X155298267Y-67690306D01*
X155248652Y-67679397D01*
X155201265Y-67658694D01*
X155157498Y-67644431D01*
X155112176Y-67619772D01*
X155059779Y-67596880D01*
X155022565Y-67571016D01*
X154987825Y-67552114D01*
X154942703Y-67515510D01*
X154890530Y-67479249D01*
X154863502Y-67451260D01*
X154837814Y-67430422D01*
X154795877Y-67381233D01*
X154747353Y-67330985D01*
X154729751Y-67303672D01*
X154712495Y-67283432D01*
X154676942Y-67221728D01*
X154635701Y-67157734D01*
X154626105Y-67133498D01*
X154616060Y-67116064D01*
X154590127Y-67042628D01*
X154559826Y-66966096D01*
X154556282Y-66946785D01*
X154551739Y-66933921D01*
X154538546Y-66850152D01*
X154522619Y-66763371D01*
X154522803Y-66750188D01*
X154521689Y-66743114D01*
X154524196Y-66650460D01*
X154525497Y-66557279D01*
X154526895Y-66550703D01*
X154526913Y-66550026D01*
X154556406Y-66411863D01*
X154568350Y-66355672D01*
X154605226Y-66269635D01*
X154641315Y-66182722D01*
X154644718Y-66177492D01*
X154649546Y-66166227D01*
X154699828Y-66092791D01*
X154746658Y-66020818D01*
X154755423Y-66011598D01*
X154765992Y-65996162D01*
X154825409Y-65937977D01*
X154879745Y-65880818D01*
X154895286Y-65869547D01*
X154913253Y-65851953D01*
X154977701Y-65809780D01*
X155036118Y-65767415D01*
X155059301Y-65756382D01*
X155085720Y-65739094D01*
X155151316Y-65712591D01*
X155210532Y-65684410D01*
X155241596Y-65676116D01*
X155276823Y-65661883D01*
X155340128Y-65649807D01*
X155397159Y-65634579D01*
X155435663Y-65631582D01*
X155479284Y-65623261D01*
X155537370Y-65623667D01*
X155589735Y-65619591D01*
X155634591Y-65624345D01*
X155634591Y-65624345D01*
G37*
G36*
X181669591Y-65624345D02*
G01*
X181720391Y-65624700D01*
X181771051Y-65635099D01*
X181816828Y-65639951D01*
X181866287Y-65654648D01*
X181922293Y-65666145D01*
X181964069Y-65683706D01*
X182001981Y-65694972D01*
X182053722Y-65721392D01*
X182112300Y-65746016D01*
X182144564Y-65767779D01*
X182174015Y-65782817D01*
X182225254Y-65822205D01*
X182283174Y-65861273D01*
X182306070Y-65884330D01*
X182327158Y-65900540D01*
X182374764Y-65953504D01*
X182428407Y-66007523D01*
X182442831Y-66029233D01*
X182456284Y-66044200D01*
X182496922Y-66110646D01*
X182542468Y-66179198D01*
X182549950Y-66197350D01*
X182557065Y-66208984D01*
X182587378Y-66288158D01*
X182621011Y-66369758D01*
X182623572Y-66382693D01*
X182626132Y-66389379D01*
X182642931Y-66480461D01*
X182661045Y-66571944D01*
X182657757Y-66807363D01*
X182654234Y-66822869D01*
X182654069Y-66828973D01*
X182632745Y-66917453D01*
X182612094Y-67008352D01*
X182609358Y-67014497D01*
X182609199Y-67015157D01*
X182551914Y-67143518D01*
X182528261Y-67196645D01*
X182474257Y-67273200D01*
X182420932Y-67350643D01*
X182416520Y-67355048D01*
X182409451Y-67365068D01*
X182344969Y-67426474D01*
X182284227Y-67487109D01*
X182273742Y-67494302D01*
X182260191Y-67507206D01*
X182189960Y-67551776D01*
X182124942Y-67596378D01*
X182107400Y-67604170D01*
X182086165Y-67617646D01*
X182014347Y-67645503D01*
X181948410Y-67674791D01*
X181923446Y-67680761D01*
X181894002Y-67692182D01*
X181824304Y-67704471D01*
X181760543Y-67719720D01*
X181728438Y-67721375D01*
X181691022Y-67727972D01*
X181626608Y-67726623D01*
X181567641Y-67729662D01*
X181529342Y-67724586D01*
X181484955Y-67723656D01*
X181428223Y-67711183D01*
X181376152Y-67704281D01*
X181333267Y-67690306D01*
X181283652Y-67679397D01*
X181236265Y-67658694D01*
X181192498Y-67644431D01*
X181147176Y-67619772D01*
X181094779Y-67596880D01*
X181057565Y-67571016D01*
X181022825Y-67552114D01*
X180977703Y-67515510D01*
X180925530Y-67479249D01*
X180898502Y-67451260D01*
X180872814Y-67430422D01*
X180830877Y-67381233D01*
X180782353Y-67330985D01*
X180764751Y-67303672D01*
X180747495Y-67283432D01*
X180711942Y-67221728D01*
X180670701Y-67157734D01*
X180661105Y-67133498D01*
X180651060Y-67116064D01*
X180625127Y-67042628D01*
X180594826Y-66966096D01*
X180591282Y-66946785D01*
X180586739Y-66933921D01*
X180573546Y-66850152D01*
X180557619Y-66763371D01*
X180557803Y-66750188D01*
X180556689Y-66743114D01*
X180559196Y-66650460D01*
X180560497Y-66557279D01*
X180561895Y-66550703D01*
X180561913Y-66550026D01*
X180591406Y-66411863D01*
X180603350Y-66355672D01*
X180640226Y-66269635D01*
X180676315Y-66182722D01*
X180679718Y-66177492D01*
X180684546Y-66166227D01*
X180734828Y-66092791D01*
X180781658Y-66020818D01*
X180790423Y-66011598D01*
X180800992Y-65996162D01*
X180860409Y-65937977D01*
X180914745Y-65880818D01*
X180930286Y-65869547D01*
X180948253Y-65851953D01*
X181012701Y-65809780D01*
X181071118Y-65767415D01*
X181094301Y-65756382D01*
X181120720Y-65739094D01*
X181186316Y-65712591D01*
X181245532Y-65684410D01*
X181276596Y-65676116D01*
X181311823Y-65661883D01*
X181375128Y-65649807D01*
X181432159Y-65634579D01*
X181470663Y-65631582D01*
X181514284Y-65623261D01*
X181572370Y-65623667D01*
X181624735Y-65619591D01*
X181669591Y-65624345D01*
X181669591Y-65624345D01*
G37*
M02*
