G04 #@! TF.GenerationSoftware,KiCad,Pcbnew,6.0.0-unknown-bc26ccf~86~ubuntu18.04.1*
G04 #@! TF.CreationDate,2019-06-18T13:40:17+01:00*
G04 #@! TF.ProjectId,mouse8,6d6f7573-6538-42e6-9b69-6361645f7063,rev?*
G04 #@! TF.SameCoordinates,Original*
G04 #@! TF.FileFunction,Copper,L1,Top*
G04 #@! TF.FilePolarity,Positive*
%FSLAX46Y46*%
G04 Gerber Fmt 4.6, Leading zero omitted, Abs format (unit mm)*
G04 Created by KiCad (PCBNEW 6.0.0-unknown-bc26ccf~86~ubuntu18.04.1) date 2019-06-18 13:40:17*
%MOMM*%
%LPD*%
G04 APERTURE LIST*
%ADD10C,0.050000*%
%ADD11R,1.700000X1.700000*%
%ADD12C,2.000000*%
%ADD13C,0.100000*%
%ADD14C,1.425000*%
%ADD15C,3.000000*%
%ADD16C,0.800000*%
%ADD17C,0.800000*%
%ADD18C,1.000000*%
%ADD19C,0.250000*%
%ADD20C,0.500000*%
%ADD21C,0.254000*%
G04 APERTURE END LIST*
D10*
X171653200Y-70916800D02*
X159308800Y-70916800D01*
X184632600Y-63500000D02*
X170180000Y-63500000D01*
X184632600Y-107950000D02*
X177800000Y-107950000D01*
X184632600Y-63500000D02*
X184632600Y-107950000D01*
X154940000Y-91440000D02*
X175717200Y-91440000D01*
X154940000Y-80010000D02*
X175717200Y-80010000D01*
X159308800Y-70916800D02*
X159308800Y-73914000D01*
X171653200Y-73914000D02*
X171653200Y-70916800D01*
X159308800Y-73914000D02*
X171653200Y-73914000D01*
X177800000Y-106680000D02*
X177800000Y-107950000D01*
X152400000Y-106680000D02*
X177800000Y-106680000D01*
X170180000Y-64770000D02*
X152400000Y-64770000D01*
X170180000Y-63500000D02*
X170180000Y-64770000D01*
X154940000Y-91440000D02*
X154940000Y-90805000D01*
X175717200Y-91440000D02*
X175717200Y-90805000D01*
X175717200Y-80010000D02*
X175717200Y-90805000D01*
X154940000Y-90805000D02*
X154940000Y-80010000D01*
X152400000Y-106680000D02*
X152400000Y-64770000D01*
D11*
X182448200Y-91338400D03*
D12*
X167005000Y-76935000D03*
X161925000Y-76935000D03*
X172085000Y-76935000D03*
X155575000Y-71755000D03*
X155575000Y-66675000D03*
X155575000Y-76835000D03*
X181610000Y-71755000D03*
X181610000Y-66675000D03*
X181610000Y-76835000D03*
D11*
X176758600Y-76428600D03*
X178765200Y-83794600D03*
X182448200Y-83794600D03*
X179070000Y-80111600D03*
X178765200Y-91338400D03*
X182422800Y-87477600D03*
X178765200Y-87477600D03*
X174320200Y-93345000D03*
X173151800Y-98933000D03*
X176758600Y-72771000D03*
X176809400Y-98831400D03*
X182727600Y-80111600D03*
X176784000Y-103428800D03*
D13*
G36*
X160486671Y-104629230D02*
G01*
X160567777Y-104683423D01*
X160621970Y-104764529D01*
X160641000Y-104860200D01*
X160641000Y-105785200D01*
X160621970Y-105880871D01*
X160567777Y-105961977D01*
X160486671Y-106016170D01*
X160391000Y-106035200D01*
X159141000Y-106035200D01*
X159045329Y-106016170D01*
X158964223Y-105961977D01*
X158910030Y-105880871D01*
X158891000Y-105785200D01*
X158891000Y-104860200D01*
X158910030Y-104764529D01*
X158964223Y-104683423D01*
X159045329Y-104629230D01*
X159141000Y-104610200D01*
X160391000Y-104610200D01*
X160486671Y-104629230D01*
X160486671Y-104629230D01*
G37*
D14*
X159766000Y-105322700D03*
D13*
G36*
X160486671Y-101654230D02*
G01*
X160567777Y-101708423D01*
X160621970Y-101789529D01*
X160641000Y-101885200D01*
X160641000Y-102810200D01*
X160621970Y-102905871D01*
X160567777Y-102986977D01*
X160486671Y-103041170D01*
X160391000Y-103060200D01*
X159141000Y-103060200D01*
X159045329Y-103041170D01*
X158964223Y-102986977D01*
X158910030Y-102905871D01*
X158891000Y-102810200D01*
X158891000Y-101885200D01*
X158910030Y-101789529D01*
X158964223Y-101708423D01*
X159045329Y-101654230D01*
X159141000Y-101635200D01*
X160391000Y-101635200D01*
X160486671Y-101654230D01*
X160486671Y-101654230D01*
G37*
D14*
X159766000Y-102347700D03*
D13*
G36*
X172856471Y-68358030D02*
G01*
X172937577Y-68412223D01*
X172991770Y-68493329D01*
X173010800Y-68589000D01*
X173010800Y-69514000D01*
X172991770Y-69609671D01*
X172937577Y-69690777D01*
X172856471Y-69744970D01*
X172760800Y-69764000D01*
X171510800Y-69764000D01*
X171415129Y-69744970D01*
X171334023Y-69690777D01*
X171279830Y-69609671D01*
X171260800Y-69514000D01*
X171260800Y-68589000D01*
X171279830Y-68493329D01*
X171334023Y-68412223D01*
X171415129Y-68358030D01*
X171510800Y-68339000D01*
X172760800Y-68339000D01*
X172856471Y-68358030D01*
X172856471Y-68358030D01*
G37*
D14*
X172135800Y-69051500D03*
D13*
G36*
X172856471Y-65383030D02*
G01*
X172937577Y-65437223D01*
X172991770Y-65518329D01*
X173010800Y-65614000D01*
X173010800Y-66539000D01*
X172991770Y-66634671D01*
X172937577Y-66715777D01*
X172856471Y-66769970D01*
X172760800Y-66789000D01*
X171510800Y-66789000D01*
X171415129Y-66769970D01*
X171334023Y-66715777D01*
X171279830Y-66634671D01*
X171260800Y-66539000D01*
X171260800Y-65614000D01*
X171279830Y-65518329D01*
X171334023Y-65437223D01*
X171415129Y-65383030D01*
X171510800Y-65364000D01*
X172760800Y-65364000D01*
X172856471Y-65383030D01*
X172856471Y-65383030D01*
G37*
D14*
X172135800Y-66076500D03*
D13*
G36*
X172119871Y-101349430D02*
G01*
X172200977Y-101403623D01*
X172255170Y-101484729D01*
X172274200Y-101580400D01*
X172274200Y-102505400D01*
X172255170Y-102601071D01*
X172200977Y-102682177D01*
X172119871Y-102736370D01*
X172024200Y-102755400D01*
X170774200Y-102755400D01*
X170678529Y-102736370D01*
X170597423Y-102682177D01*
X170543230Y-102601071D01*
X170524200Y-102505400D01*
X170524200Y-101580400D01*
X170543230Y-101484729D01*
X170597423Y-101403623D01*
X170678529Y-101349430D01*
X170774200Y-101330400D01*
X172024200Y-101330400D01*
X172119871Y-101349430D01*
X172119871Y-101349430D01*
G37*
D14*
X171399200Y-102042900D03*
D13*
G36*
X172119871Y-104324430D02*
G01*
X172200977Y-104378623D01*
X172255170Y-104459729D01*
X172274200Y-104555400D01*
X172274200Y-105480400D01*
X172255170Y-105576071D01*
X172200977Y-105657177D01*
X172119871Y-105711370D01*
X172024200Y-105730400D01*
X170774200Y-105730400D01*
X170678529Y-105711370D01*
X170597423Y-105657177D01*
X170543230Y-105576071D01*
X170524200Y-105480400D01*
X170524200Y-104555400D01*
X170543230Y-104459729D01*
X170597423Y-104378623D01*
X170678529Y-104324430D01*
X170774200Y-104305400D01*
X172024200Y-104305400D01*
X172119871Y-104324430D01*
X172119871Y-104324430D01*
G37*
D14*
X171399200Y-105017900D03*
D13*
G36*
X163585471Y-101501830D02*
G01*
X163666577Y-101556023D01*
X163720770Y-101637129D01*
X163739800Y-101732800D01*
X163739800Y-102657800D01*
X163720770Y-102753471D01*
X163666577Y-102834577D01*
X163585471Y-102888770D01*
X163489800Y-102907800D01*
X162239800Y-102907800D01*
X162144129Y-102888770D01*
X162063023Y-102834577D01*
X162008830Y-102753471D01*
X161989800Y-102657800D01*
X161989800Y-101732800D01*
X162008830Y-101637129D01*
X162063023Y-101556023D01*
X162144129Y-101501830D01*
X162239800Y-101482800D01*
X163489800Y-101482800D01*
X163585471Y-101501830D01*
X163585471Y-101501830D01*
G37*
D14*
X162864800Y-102195300D03*
D13*
G36*
X163585471Y-104476830D02*
G01*
X163666577Y-104531023D01*
X163720770Y-104612129D01*
X163739800Y-104707800D01*
X163739800Y-105632800D01*
X163720770Y-105728471D01*
X163666577Y-105809577D01*
X163585471Y-105863770D01*
X163489800Y-105882800D01*
X162239800Y-105882800D01*
X162144129Y-105863770D01*
X162063023Y-105809577D01*
X162008830Y-105728471D01*
X161989800Y-105632800D01*
X161989800Y-104707800D01*
X162008830Y-104612129D01*
X162063023Y-104531023D01*
X162144129Y-104476830D01*
X162239800Y-104457800D01*
X163489800Y-104457800D01*
X163585471Y-104476830D01*
X163585471Y-104476830D01*
G37*
D14*
X162864800Y-105170300D03*
D13*
G36*
X174431271Y-104324430D02*
G01*
X174512377Y-104378623D01*
X174566570Y-104459729D01*
X174585600Y-104555400D01*
X174585600Y-105480400D01*
X174566570Y-105576071D01*
X174512377Y-105657177D01*
X174431271Y-105711370D01*
X174335600Y-105730400D01*
X173085600Y-105730400D01*
X172989929Y-105711370D01*
X172908823Y-105657177D01*
X172854630Y-105576071D01*
X172835600Y-105480400D01*
X172835600Y-104555400D01*
X172854630Y-104459729D01*
X172908823Y-104378623D01*
X172989929Y-104324430D01*
X173085600Y-104305400D01*
X174335600Y-104305400D01*
X174431271Y-104324430D01*
X174431271Y-104324430D01*
G37*
D14*
X173710600Y-105017900D03*
D13*
G36*
X174431271Y-101349430D02*
G01*
X174512377Y-101403623D01*
X174566570Y-101484729D01*
X174585600Y-101580400D01*
X174585600Y-102505400D01*
X174566570Y-102601071D01*
X174512377Y-102682177D01*
X174431271Y-102736370D01*
X174335600Y-102755400D01*
X173085600Y-102755400D01*
X172989929Y-102736370D01*
X172908823Y-102682177D01*
X172854630Y-102601071D01*
X172835600Y-102505400D01*
X172835600Y-101580400D01*
X172854630Y-101484729D01*
X172908823Y-101403623D01*
X172989929Y-101349430D01*
X173085600Y-101330400D01*
X174335600Y-101330400D01*
X174431271Y-101349430D01*
X174431271Y-101349430D01*
G37*
D14*
X173710600Y-102042900D03*
D13*
G36*
X169808471Y-104324430D02*
G01*
X169889577Y-104378623D01*
X169943770Y-104459729D01*
X169962800Y-104555400D01*
X169962800Y-105480400D01*
X169943770Y-105576071D01*
X169889577Y-105657177D01*
X169808471Y-105711370D01*
X169712800Y-105730400D01*
X168462800Y-105730400D01*
X168367129Y-105711370D01*
X168286023Y-105657177D01*
X168231830Y-105576071D01*
X168212800Y-105480400D01*
X168212800Y-104555400D01*
X168231830Y-104459729D01*
X168286023Y-104378623D01*
X168367129Y-104324430D01*
X168462800Y-104305400D01*
X169712800Y-104305400D01*
X169808471Y-104324430D01*
X169808471Y-104324430D01*
G37*
D14*
X169087800Y-105017900D03*
D13*
G36*
X169808471Y-101349430D02*
G01*
X169889577Y-101403623D01*
X169943770Y-101484729D01*
X169962800Y-101580400D01*
X169962800Y-102505400D01*
X169943770Y-102601071D01*
X169889577Y-102682177D01*
X169808471Y-102736370D01*
X169712800Y-102755400D01*
X168462800Y-102755400D01*
X168367129Y-102736370D01*
X168286023Y-102682177D01*
X168231830Y-102601071D01*
X168212800Y-102505400D01*
X168212800Y-101580400D01*
X168231830Y-101484729D01*
X168286023Y-101403623D01*
X168367129Y-101349430D01*
X168462800Y-101330400D01*
X169712800Y-101330400D01*
X169808471Y-101349430D01*
X169808471Y-101349430D01*
G37*
D14*
X169087800Y-102042900D03*
D13*
G36*
X167471671Y-104324430D02*
G01*
X167552777Y-104378623D01*
X167606970Y-104459729D01*
X167626000Y-104555400D01*
X167626000Y-105480400D01*
X167606970Y-105576071D01*
X167552777Y-105657177D01*
X167471671Y-105711370D01*
X167376000Y-105730400D01*
X166126000Y-105730400D01*
X166030329Y-105711370D01*
X165949223Y-105657177D01*
X165895030Y-105576071D01*
X165876000Y-105480400D01*
X165876000Y-104555400D01*
X165895030Y-104459729D01*
X165949223Y-104378623D01*
X166030329Y-104324430D01*
X166126000Y-104305400D01*
X167376000Y-104305400D01*
X167471671Y-104324430D01*
X167471671Y-104324430D01*
G37*
D14*
X166751000Y-105017900D03*
D13*
G36*
X167471671Y-101349430D02*
G01*
X167552777Y-101403623D01*
X167606970Y-101484729D01*
X167626000Y-101580400D01*
X167626000Y-102505400D01*
X167606970Y-102601071D01*
X167552777Y-102682177D01*
X167471671Y-102736370D01*
X167376000Y-102755400D01*
X166126000Y-102755400D01*
X166030329Y-102736370D01*
X165949223Y-102682177D01*
X165895030Y-102601071D01*
X165876000Y-102505400D01*
X165876000Y-101580400D01*
X165895030Y-101484729D01*
X165949223Y-101403623D01*
X166030329Y-101349430D01*
X166126000Y-101330400D01*
X167376000Y-101330400D01*
X167471671Y-101349430D01*
X167471671Y-101349430D01*
G37*
D14*
X166751000Y-102042900D03*
D12*
X181610000Y-99695000D03*
X181610000Y-104775000D03*
X181610000Y-94615000D03*
D13*
G36*
X166836671Y-68307230D02*
G01*
X166917777Y-68361423D01*
X166971970Y-68442529D01*
X166991000Y-68538200D01*
X166991000Y-69463200D01*
X166971970Y-69558871D01*
X166917777Y-69639977D01*
X166836671Y-69694170D01*
X166741000Y-69713200D01*
X165491000Y-69713200D01*
X165395329Y-69694170D01*
X165314223Y-69639977D01*
X165260030Y-69558871D01*
X165241000Y-69463200D01*
X165241000Y-68538200D01*
X165260030Y-68442529D01*
X165314223Y-68361423D01*
X165395329Y-68307230D01*
X165491000Y-68288200D01*
X166741000Y-68288200D01*
X166836671Y-68307230D01*
X166836671Y-68307230D01*
G37*
D14*
X166116000Y-69000700D03*
D13*
G36*
X166836671Y-65332230D02*
G01*
X166917777Y-65386423D01*
X166971970Y-65467529D01*
X166991000Y-65563200D01*
X166991000Y-66488200D01*
X166971970Y-66583871D01*
X166917777Y-66664977D01*
X166836671Y-66719170D01*
X166741000Y-66738200D01*
X165491000Y-66738200D01*
X165395329Y-66719170D01*
X165314223Y-66664977D01*
X165260030Y-66583871D01*
X165241000Y-66488200D01*
X165241000Y-65563200D01*
X165260030Y-65467529D01*
X165314223Y-65386423D01*
X165395329Y-65332230D01*
X165491000Y-65313200D01*
X166741000Y-65313200D01*
X166836671Y-65332230D01*
X166836671Y-65332230D01*
G37*
D14*
X166116000Y-66025700D03*
D13*
G36*
X175167871Y-68332630D02*
G01*
X175248977Y-68386823D01*
X175303170Y-68467929D01*
X175322200Y-68563600D01*
X175322200Y-69488600D01*
X175303170Y-69584271D01*
X175248977Y-69665377D01*
X175167871Y-69719570D01*
X175072200Y-69738600D01*
X173822200Y-69738600D01*
X173726529Y-69719570D01*
X173645423Y-69665377D01*
X173591230Y-69584271D01*
X173572200Y-69488600D01*
X173572200Y-68563600D01*
X173591230Y-68467929D01*
X173645423Y-68386823D01*
X173726529Y-68332630D01*
X173822200Y-68313600D01*
X175072200Y-68313600D01*
X175167871Y-68332630D01*
X175167871Y-68332630D01*
G37*
D14*
X174447200Y-69026100D03*
D13*
G36*
X175167871Y-65357630D02*
G01*
X175248977Y-65411823D01*
X175303170Y-65492929D01*
X175322200Y-65588600D01*
X175322200Y-66513600D01*
X175303170Y-66609271D01*
X175248977Y-66690377D01*
X175167871Y-66744570D01*
X175072200Y-66763600D01*
X173822200Y-66763600D01*
X173726529Y-66744570D01*
X173645423Y-66690377D01*
X173591230Y-66609271D01*
X173572200Y-66513600D01*
X173572200Y-65588600D01*
X173591230Y-65492929D01*
X173645423Y-65411823D01*
X173726529Y-65357630D01*
X173822200Y-65338600D01*
X175072200Y-65338600D01*
X175167871Y-65357630D01*
X175167871Y-65357630D01*
G37*
D14*
X174447200Y-66051100D03*
D13*
G36*
X162264671Y-65419530D02*
G01*
X162345777Y-65473723D01*
X162399970Y-65554829D01*
X162419000Y-65650500D01*
X162419000Y-66575500D01*
X162399970Y-66671171D01*
X162345777Y-66752277D01*
X162264671Y-66806470D01*
X162169000Y-66825500D01*
X160919000Y-66825500D01*
X160823329Y-66806470D01*
X160742223Y-66752277D01*
X160688030Y-66671171D01*
X160669000Y-66575500D01*
X160669000Y-65650500D01*
X160688030Y-65554829D01*
X160742223Y-65473723D01*
X160823329Y-65419530D01*
X160919000Y-65400500D01*
X162169000Y-65400500D01*
X162264671Y-65419530D01*
X162264671Y-65419530D01*
G37*
D14*
X161544000Y-66113000D03*
D13*
G36*
X162264671Y-68394530D02*
G01*
X162345777Y-68448723D01*
X162399970Y-68529829D01*
X162419000Y-68625500D01*
X162419000Y-69550500D01*
X162399970Y-69646171D01*
X162345777Y-69727277D01*
X162264671Y-69781470D01*
X162169000Y-69800500D01*
X160919000Y-69800500D01*
X160823329Y-69781470D01*
X160742223Y-69727277D01*
X160688030Y-69646171D01*
X160669000Y-69550500D01*
X160669000Y-68625500D01*
X160688030Y-68529829D01*
X160742223Y-68448723D01*
X160823329Y-68394530D01*
X160919000Y-68375500D01*
X162169000Y-68375500D01*
X162264671Y-68394530D01*
X162264671Y-68394530D01*
G37*
D14*
X161544000Y-69088000D03*
D13*
G36*
X169402071Y-65332230D02*
G01*
X169483177Y-65386423D01*
X169537370Y-65467529D01*
X169556400Y-65563200D01*
X169556400Y-66488200D01*
X169537370Y-66583871D01*
X169483177Y-66664977D01*
X169402071Y-66719170D01*
X169306400Y-66738200D01*
X168056400Y-66738200D01*
X167960729Y-66719170D01*
X167879623Y-66664977D01*
X167825430Y-66583871D01*
X167806400Y-66488200D01*
X167806400Y-65563200D01*
X167825430Y-65467529D01*
X167879623Y-65386423D01*
X167960729Y-65332230D01*
X168056400Y-65313200D01*
X169306400Y-65313200D01*
X169402071Y-65332230D01*
X169402071Y-65332230D01*
G37*
D14*
X168681400Y-66025700D03*
D13*
G36*
X169402071Y-68307230D02*
G01*
X169483177Y-68361423D01*
X169537370Y-68442529D01*
X169556400Y-68538200D01*
X169556400Y-69463200D01*
X169537370Y-69558871D01*
X169483177Y-69639977D01*
X169402071Y-69694170D01*
X169306400Y-69713200D01*
X168056400Y-69713200D01*
X167960729Y-69694170D01*
X167879623Y-69639977D01*
X167825430Y-69558871D01*
X167806400Y-69463200D01*
X167806400Y-68538200D01*
X167825430Y-68442529D01*
X167879623Y-68361423D01*
X167960729Y-68307230D01*
X168056400Y-68288200D01*
X169306400Y-68288200D01*
X169402071Y-68307230D01*
X169402071Y-68307230D01*
G37*
D14*
X168681400Y-69000700D03*
D13*
G36*
X177479271Y-65332230D02*
G01*
X177560377Y-65386423D01*
X177614570Y-65467529D01*
X177633600Y-65563200D01*
X177633600Y-66488200D01*
X177614570Y-66583871D01*
X177560377Y-66664977D01*
X177479271Y-66719170D01*
X177383600Y-66738200D01*
X176133600Y-66738200D01*
X176037929Y-66719170D01*
X175956823Y-66664977D01*
X175902630Y-66583871D01*
X175883600Y-66488200D01*
X175883600Y-65563200D01*
X175902630Y-65467529D01*
X175956823Y-65386423D01*
X176037929Y-65332230D01*
X176133600Y-65313200D01*
X177383600Y-65313200D01*
X177479271Y-65332230D01*
X177479271Y-65332230D01*
G37*
D14*
X176758600Y-66025700D03*
D13*
G36*
X177479271Y-68307230D02*
G01*
X177560377Y-68361423D01*
X177614570Y-68442529D01*
X177633600Y-68538200D01*
X177633600Y-69463200D01*
X177614570Y-69558871D01*
X177560377Y-69639977D01*
X177479271Y-69694170D01*
X177383600Y-69713200D01*
X176133600Y-69713200D01*
X176037929Y-69694170D01*
X175956823Y-69639977D01*
X175902630Y-69558871D01*
X175883600Y-69463200D01*
X175883600Y-68538200D01*
X175902630Y-68442529D01*
X175956823Y-68361423D01*
X176037929Y-68307230D01*
X176133600Y-68288200D01*
X177383600Y-68288200D01*
X177479271Y-68307230D01*
X177479271Y-68307230D01*
G37*
D14*
X176758600Y-69000700D03*
D15*
X170180000Y-99060000D03*
X160020000Y-99060000D03*
D12*
X162560000Y-97060000D03*
X165100000Y-97060000D03*
X167640000Y-97060000D03*
X155575000Y-99695000D03*
X155575000Y-104775000D03*
X155575000Y-94615000D03*
D16*
X158191200Y-95123000D03*
D17*
X176809400Y-98831400D02*
X177393600Y-98831400D01*
X177393600Y-98831400D02*
X181610000Y-94615000D01*
X181610000Y-71755000D02*
X179070000Y-74295000D01*
X179070000Y-74295000D02*
X179070000Y-80111600D01*
D18*
X182426001Y-64974999D02*
X176833001Y-64974999D01*
X171785001Y-64974999D02*
X172126499Y-64974999D01*
X182727600Y-80111600D02*
X182727600Y-78261600D01*
X182727600Y-78261600D02*
X183310001Y-77679199D01*
X183310001Y-77679199D02*
X183310001Y-65858999D01*
X162519000Y-66113000D02*
X161544000Y-66113000D01*
X183310001Y-65858999D02*
X182426001Y-64974999D01*
X171785001Y-64974999D02*
X170647000Y-66113000D01*
X170647000Y-66113000D02*
X162519000Y-66113000D01*
D19*
X155575000Y-99695000D02*
X155575000Y-98933000D01*
X165078490Y-70125510D02*
X165344653Y-69859347D01*
X155575000Y-74155612D02*
X157753206Y-71977406D01*
X165344653Y-69859347D02*
X166116000Y-69088000D01*
X180995000Y-94000000D02*
X181610000Y-94615000D01*
D18*
X181610000Y-76280930D02*
X181610000Y-76835000D01*
D19*
X181322500Y-76835000D02*
X181610000Y-76835000D01*
D18*
X181610000Y-71755000D02*
X179451000Y-71755000D01*
X179451000Y-71755000D02*
X176784000Y-69088000D01*
D20*
X176758600Y-72582100D02*
X176758600Y-72771000D01*
X174447200Y-65100200D02*
X174447200Y-66127300D01*
X174572401Y-64974999D02*
X174447200Y-65100200D01*
D18*
X176833001Y-64974999D02*
X174572401Y-64974999D01*
D20*
X176784000Y-65024000D02*
X176784000Y-66113000D01*
X176833001Y-64974999D02*
X176784000Y-65024000D01*
X175408600Y-76428600D02*
X176758600Y-76428600D01*
X173747190Y-74767190D02*
X175408600Y-76428600D01*
X173747190Y-70662890D02*
X173747190Y-74767190D01*
X172135800Y-69051500D02*
X173747190Y-70662890D01*
X175408600Y-72771000D02*
X176758600Y-72771000D01*
X174447200Y-71809600D02*
X175408600Y-72771000D01*
X174447200Y-69102300D02*
X174447200Y-71809600D01*
X155575000Y-75420787D02*
X155575000Y-76835000D01*
X155575000Y-73978835D02*
X155575000Y-75420787D01*
X159112045Y-70441790D02*
X155575000Y-73978835D01*
X164762210Y-70441790D02*
X159112045Y-70441790D01*
X166116000Y-69088000D02*
X164762210Y-70441790D01*
X158242000Y-69088000D02*
X155575000Y-71755000D01*
X161544000Y-69088000D02*
X158242000Y-69088000D01*
D18*
X153874999Y-103074999D02*
X154575001Y-103775001D01*
X154575001Y-103775001D02*
X155575000Y-104775000D01*
X154176201Y-78535001D02*
X153874999Y-78233799D01*
D19*
X160020000Y-100330000D02*
X160020000Y-99060000D01*
D18*
X177802510Y-67525510D02*
X175298490Y-67525510D01*
X160020000Y-99060000D02*
X160560000Y-99060000D01*
D19*
X177689001Y-67674999D02*
X177838490Y-67525510D01*
D18*
X178653020Y-66675000D02*
X177802510Y-67525510D01*
X177838490Y-67525510D02*
X175806490Y-67525510D01*
X156391001Y-78535001D02*
X154176201Y-78535001D01*
X153874999Y-68375001D02*
X153874999Y-78233799D01*
X176822490Y-67525510D02*
X175806490Y-67525510D01*
X156989213Y-66675000D02*
X155575000Y-66675000D01*
X181610000Y-66675000D02*
X180195787Y-66675000D01*
X181610000Y-66675000D02*
X178653020Y-66675000D01*
X155575000Y-66675000D02*
X153874999Y-68375001D01*
X157839723Y-67525510D02*
X156989213Y-66675000D01*
X175806490Y-67525510D02*
X168109510Y-67525510D01*
X153874999Y-78233799D02*
X153874999Y-103074999D01*
X160560000Y-99060000D02*
X162560000Y-97060000D01*
X161925000Y-76935000D02*
X157991002Y-76935000D01*
X175298490Y-67525510D02*
X157839723Y-67525510D01*
D19*
X162020000Y-97060000D02*
X162560000Y-97060000D01*
D18*
X157991002Y-76935000D02*
X156391001Y-78535001D01*
D20*
X182609999Y-95614999D02*
X181610000Y-94615000D01*
X183060001Y-100391001D02*
X183060001Y-96065001D01*
X183060001Y-96065001D02*
X182609999Y-95614999D01*
X178722201Y-104728801D02*
X183060001Y-100391001D01*
X174273998Y-103428800D02*
X175573999Y-104728801D01*
D17*
X157999100Y-102119100D02*
X155575000Y-99695000D01*
X159766000Y-102119100D02*
X157999100Y-102119100D01*
X172135800Y-66076500D02*
X172135800Y-65264000D01*
X172135800Y-65264000D02*
X172424801Y-64974999D01*
D18*
X174572401Y-64974999D02*
X172464201Y-64974999D01*
D17*
X172424801Y-64974999D02*
X172464201Y-64974999D01*
D18*
X172464201Y-64974999D02*
X171785001Y-64974999D01*
D20*
X179262100Y-102042900D02*
X181610000Y-99695000D01*
X173710600Y-102042900D02*
X179262100Y-102042900D01*
X172167892Y-102811592D02*
X171399200Y-102042900D01*
X172561710Y-103205410D02*
X172167892Y-102811592D01*
X174050608Y-103205410D02*
X172561710Y-103205410D01*
X175573999Y-104728801D02*
X174050608Y-103205410D01*
X178722201Y-104728801D02*
X175573999Y-104728801D01*
X167640000Y-100595100D02*
X169087800Y-102042900D01*
X167640000Y-97060000D02*
X167640000Y-100595100D01*
X166751000Y-98711000D02*
X165100000Y-97060000D01*
X166751000Y-102042900D02*
X166751000Y-98711000D01*
D17*
X164339810Y-103009888D02*
X164339810Y-101380712D01*
X163559999Y-98059999D02*
X162560000Y-97060000D01*
X164339810Y-98839810D02*
X163559999Y-98059999D01*
X164339810Y-103009888D02*
X164339810Y-98839810D01*
X159138892Y-103660210D02*
X163689488Y-103660210D01*
X163689488Y-103660210D02*
X164339810Y-103009888D01*
X158024102Y-104775000D02*
X159138892Y-103660210D01*
X155575000Y-104775000D02*
X158024102Y-104775000D01*
D20*
X155575000Y-96029213D02*
X155575000Y-94615000D01*
X155575000Y-97501002D02*
X155575000Y-96029213D01*
X159083999Y-101010001D02*
X155575000Y-97501002D01*
X161679501Y-101010001D02*
X159083999Y-101010001D01*
X162864800Y-102195300D02*
X161679501Y-101010001D01*
X162712400Y-105322700D02*
X162864800Y-105170300D01*
X159766000Y-105322700D02*
X162712400Y-105322700D01*
X166598600Y-105170300D02*
X166751000Y-105017900D01*
X162864800Y-105170300D02*
X166598600Y-105170300D01*
X166751000Y-105017900D02*
X169087800Y-105017900D01*
X169087800Y-105017900D02*
X171399200Y-105017900D01*
X171399200Y-105017900D02*
X173710600Y-105017900D01*
X156845000Y-93345000D02*
X174320200Y-93345000D01*
X155575000Y-94615000D02*
X156845000Y-93345000D01*
X177769999Y-79779961D02*
X172743819Y-74753781D01*
X168681400Y-69000700D02*
X169894710Y-70214010D01*
X169186219Y-74753781D02*
X167005000Y-76935000D01*
X172743819Y-71335654D02*
X172743819Y-74753781D01*
X169894710Y-70214010D02*
X171622175Y-70214010D01*
X172743819Y-74753781D02*
X169186219Y-74753781D01*
X179070000Y-83794600D02*
X177769999Y-82494599D01*
X171622175Y-70214010D02*
X172743819Y-71335654D01*
X177769999Y-82494599D02*
X177769999Y-81391034D01*
X177769999Y-82494599D02*
X177769999Y-79779961D01*
X168681400Y-69000700D02*
X169450092Y-69769392D01*
X171849955Y-70441790D02*
X172128210Y-70720045D01*
X166550001Y-95609999D02*
X166099999Y-96060001D01*
X174565203Y-95609999D02*
X166550001Y-95609999D01*
X176192210Y-93982992D02*
X174565203Y-95609999D01*
X176192210Y-91400590D02*
X176192210Y-93982992D01*
X166099999Y-96060001D02*
X165100000Y-97060000D01*
X178765200Y-88827600D02*
X176192210Y-91400590D01*
X178765200Y-87477600D02*
X178765200Y-88827600D01*
D17*
X178378898Y-106375001D02*
X177790489Y-105786592D01*
X182378001Y-106375001D02*
X178378898Y-106375001D01*
X174479292Y-105786592D02*
X173710600Y-105017900D01*
X184007590Y-104745412D02*
X182378001Y-106375001D01*
X184007590Y-81509388D02*
X184007590Y-104745412D01*
X182727600Y-80229398D02*
X184007590Y-81509388D01*
X177790489Y-105786592D02*
X174479292Y-105786592D01*
X182727600Y-80111600D02*
X182727600Y-80229398D01*
X160070800Y-105017900D02*
X159766000Y-105322700D01*
X173710600Y-105017900D02*
X160070800Y-105017900D01*
D20*
X182422800Y-88827600D02*
X182422800Y-87477600D01*
X181148199Y-90102201D02*
X182422800Y-88827600D01*
X181148199Y-91465403D02*
X181148199Y-90102201D01*
X172802800Y-97060000D02*
X174105164Y-97060000D01*
X174105164Y-97060000D02*
X177546000Y-93619164D01*
X172802800Y-97060000D02*
X173983400Y-97060000D01*
X167640000Y-97060000D02*
X172802800Y-97060000D01*
X178994438Y-93619164D02*
X179613801Y-92999801D01*
X177546000Y-93619164D02*
X178994438Y-93619164D01*
X179613801Y-92999801D02*
X181148199Y-91465403D01*
D21*
G36*
X154621218Y-65541612D02*
G01*
X155575000Y-66495395D01*
X156528782Y-65541612D01*
X156479425Y-65405000D01*
X160065824Y-65405000D01*
X160058937Y-65421627D01*
X160028521Y-65652658D01*
X160028521Y-66573342D01*
X160058937Y-66804373D01*
X160148112Y-67019661D01*
X160289968Y-67204532D01*
X160474840Y-67346388D01*
X160690127Y-67435563D01*
X160921158Y-67465979D01*
X162166842Y-67465979D01*
X162397873Y-67435563D01*
X162613161Y-67346388D01*
X162741383Y-67248000D01*
X165032390Y-67248000D01*
X165046840Y-67259088D01*
X165262127Y-67348263D01*
X165493158Y-67378679D01*
X166738842Y-67378679D01*
X166969873Y-67348263D01*
X167185161Y-67259088D01*
X167199611Y-67248000D01*
X167597790Y-67248000D01*
X167612240Y-67259088D01*
X167827527Y-67348263D01*
X168058558Y-67378679D01*
X169304242Y-67378679D01*
X169535273Y-67348263D01*
X169750561Y-67259088D01*
X169765011Y-67248000D01*
X170560914Y-67248000D01*
X170607120Y-67255029D01*
X170693543Y-67248000D01*
X170713268Y-67248000D01*
X170758774Y-67242695D01*
X170870913Y-67233574D01*
X170889978Y-67227398D01*
X170909884Y-67225077D01*
X170941266Y-67213686D01*
X171066640Y-67309888D01*
X171281927Y-67399063D01*
X171512958Y-67429479D01*
X172758642Y-67429479D01*
X172989673Y-67399063D01*
X173204961Y-67309888D01*
X173308051Y-67230784D01*
X173378040Y-67284488D01*
X173593327Y-67373663D01*
X173824358Y-67404079D01*
X175070042Y-67404079D01*
X175301073Y-67373663D01*
X175516361Y-67284488D01*
X175619451Y-67205384D01*
X175689440Y-67259088D01*
X175904727Y-67348263D01*
X176135758Y-67378679D01*
X177381442Y-67378679D01*
X177612473Y-67348263D01*
X177827761Y-67259088D01*
X178012632Y-67117232D01*
X178154488Y-66932361D01*
X178243663Y-66717073D01*
X178274079Y-66486042D01*
X178274079Y-66109999D01*
X180074506Y-66109999D01*
X180015653Y-66290500D01*
X179975133Y-66544644D01*
X179974869Y-66801998D01*
X180014867Y-67056226D01*
X180094143Y-67301067D01*
X180210744Y-67530491D01*
X180212502Y-67533361D01*
X180476612Y-67628782D01*
X181430395Y-66675000D01*
X181416252Y-66660858D01*
X181595858Y-66481253D01*
X181610000Y-66495395D01*
X181624143Y-66481253D01*
X181803748Y-66660858D01*
X181789605Y-66675000D01*
X181803748Y-66689142D01*
X181624143Y-66868748D01*
X181610000Y-66854605D01*
X180656218Y-67808388D01*
X180751639Y-68072498D01*
X180980823Y-68189569D01*
X181225500Y-68269347D01*
X181479644Y-68309867D01*
X181736998Y-68310131D01*
X181991226Y-68270133D01*
X182175002Y-68210629D01*
X182175002Y-70219440D01*
X181992863Y-70160260D01*
X181738677Y-70120001D01*
X181481323Y-70120001D01*
X181227137Y-70160260D01*
X180982378Y-70239787D01*
X180753074Y-70356623D01*
X180544869Y-70507892D01*
X180432761Y-70620000D01*
X179921132Y-70620000D01*
X178274079Y-68972948D01*
X178274079Y-68540358D01*
X178243663Y-68309327D01*
X178154488Y-68094040D01*
X178012632Y-67909168D01*
X177827761Y-67767312D01*
X177612473Y-67678137D01*
X177381442Y-67647721D01*
X176135758Y-67647721D01*
X175904727Y-67678137D01*
X175689440Y-67767312D01*
X175586349Y-67846416D01*
X175516361Y-67792712D01*
X175301073Y-67703537D01*
X175070042Y-67673121D01*
X173824358Y-67673121D01*
X173593327Y-67703537D01*
X173378040Y-67792712D01*
X173274949Y-67871816D01*
X173204961Y-67818112D01*
X172989673Y-67728937D01*
X172758642Y-67698521D01*
X171512958Y-67698521D01*
X171281927Y-67728937D01*
X171066640Y-67818112D01*
X170881768Y-67959968D01*
X170739912Y-68144840D01*
X170650737Y-68360127D01*
X170620321Y-68591158D01*
X170620321Y-69329010D01*
X170261289Y-69329010D01*
X170196879Y-69264600D01*
X170196879Y-68540358D01*
X170166463Y-68309327D01*
X170077288Y-68094040D01*
X169935432Y-67909168D01*
X169750561Y-67767312D01*
X169535273Y-67678137D01*
X169304242Y-67647721D01*
X168058558Y-67647721D01*
X167827527Y-67678137D01*
X167612240Y-67767312D01*
X167427368Y-67909168D01*
X167398700Y-67946529D01*
X167370032Y-67909168D01*
X167185161Y-67767312D01*
X166969873Y-67678137D01*
X166738842Y-67647721D01*
X165493158Y-67647721D01*
X165262127Y-67678137D01*
X165046840Y-67767312D01*
X164861968Y-67909168D01*
X164720112Y-68094040D01*
X164630937Y-68309327D01*
X164600521Y-68540358D01*
X164600521Y-69351901D01*
X164395632Y-69556790D01*
X163058367Y-69556790D01*
X163059479Y-69548342D01*
X163059479Y-68627658D01*
X163029063Y-68396627D01*
X162939888Y-68181340D01*
X162798032Y-67996468D01*
X162613161Y-67854612D01*
X162397873Y-67765437D01*
X162166842Y-67735021D01*
X160921158Y-67735021D01*
X160690127Y-67765437D01*
X160474840Y-67854612D01*
X160289968Y-67996468D01*
X160148112Y-68181340D01*
X160139140Y-68203000D01*
X158300001Y-68203000D01*
X158242000Y-68195364D01*
X158183999Y-68203000D01*
X158010969Y-68225780D01*
X157795682Y-68314955D01*
X157610811Y-68456811D01*
X157575198Y-68503223D01*
X155923590Y-70154832D01*
X155703677Y-70120001D01*
X155446323Y-70120001D01*
X155192137Y-70160260D01*
X154947378Y-70239787D01*
X154718074Y-70356623D01*
X154509869Y-70507892D01*
X154327892Y-70689869D01*
X154176623Y-70898074D01*
X154059787Y-71127378D01*
X153980260Y-71372137D01*
X153940001Y-71626323D01*
X153940001Y-71883677D01*
X153980260Y-72137863D01*
X154059787Y-72382622D01*
X154176623Y-72611926D01*
X154327892Y-72820131D01*
X154509869Y-73002108D01*
X154718074Y-73153377D01*
X154947378Y-73270213D01*
X155011281Y-73290976D01*
X154990227Y-73312030D01*
X154943811Y-73347646D01*
X154873814Y-73438869D01*
X154801955Y-73532517D01*
X154801955Y-73532518D01*
X154712780Y-73747805D01*
X154696191Y-73873811D01*
X154682364Y-73978835D01*
X154690000Y-74036834D01*
X154690001Y-75362780D01*
X154690000Y-75362787D01*
X154690000Y-75457020D01*
X154509869Y-75587892D01*
X154327892Y-75769869D01*
X154176623Y-75978074D01*
X154059787Y-76207378D01*
X153980260Y-76452137D01*
X153940001Y-76706323D01*
X153940001Y-76963677D01*
X153980260Y-77217863D01*
X154059787Y-77462622D01*
X154176623Y-77691926D01*
X154327892Y-77900131D01*
X154509869Y-78082108D01*
X154718074Y-78233377D01*
X154947378Y-78350213D01*
X155192137Y-78429740D01*
X155446323Y-78469999D01*
X155703677Y-78469999D01*
X155957863Y-78429740D01*
X156202622Y-78350213D01*
X156431926Y-78233377D01*
X156640131Y-78082108D01*
X156653851Y-78068388D01*
X160971218Y-78068388D01*
X161066639Y-78332498D01*
X161295823Y-78449569D01*
X161540500Y-78529347D01*
X161794644Y-78569867D01*
X162051998Y-78570131D01*
X162306226Y-78530133D01*
X162551067Y-78450857D01*
X162780491Y-78334256D01*
X162783361Y-78332498D01*
X162878782Y-78068388D01*
X161925000Y-77114605D01*
X160971218Y-78068388D01*
X156653851Y-78068388D01*
X156822108Y-77900131D01*
X156973377Y-77691926D01*
X157090213Y-77462622D01*
X157169740Y-77217863D01*
X157194426Y-77061998D01*
X160289869Y-77061998D01*
X160329867Y-77316226D01*
X160409143Y-77561067D01*
X160525744Y-77790491D01*
X160527502Y-77793361D01*
X160791612Y-77888782D01*
X161745395Y-76935000D01*
X162104605Y-76935000D01*
X163058388Y-77888782D01*
X163322498Y-77793361D01*
X163439569Y-77564177D01*
X163519347Y-77319500D01*
X163559867Y-77065356D01*
X163560131Y-76808002D01*
X163520133Y-76553774D01*
X163440857Y-76308933D01*
X163324256Y-76079509D01*
X163322498Y-76076639D01*
X163058388Y-75981218D01*
X162104605Y-76935000D01*
X161745395Y-76935000D01*
X160791612Y-75981218D01*
X160527502Y-76076639D01*
X160410431Y-76305823D01*
X160330653Y-76550500D01*
X160290133Y-76804644D01*
X160289869Y-77061998D01*
X157194426Y-77061998D01*
X157209999Y-76963677D01*
X157209999Y-76706323D01*
X157169740Y-76452137D01*
X157090213Y-76207378D01*
X156973377Y-75978074D01*
X156845171Y-75801612D01*
X160971218Y-75801612D01*
X161925000Y-76755395D01*
X162878782Y-75801612D01*
X162783361Y-75537502D01*
X162554177Y-75420431D01*
X162309500Y-75340653D01*
X162055356Y-75300133D01*
X161798002Y-75299869D01*
X161543774Y-75339867D01*
X161298933Y-75419143D01*
X161069509Y-75535744D01*
X161066639Y-75537502D01*
X160971218Y-75801612D01*
X156845171Y-75801612D01*
X156822108Y-75769869D01*
X156640131Y-75587892D01*
X156460000Y-75457020D01*
X156460000Y-74345413D01*
X158329193Y-72476221D01*
X158329194Y-72476219D01*
X158673800Y-72131613D01*
X158673801Y-73853975D01*
X158670017Y-73873811D01*
X158673801Y-73933956D01*
X158673801Y-73953944D01*
X158676306Y-73973775D01*
X158680091Y-74033933D01*
X158686333Y-74053143D01*
X158688863Y-74073173D01*
X158711044Y-74129196D01*
X158729669Y-74186518D01*
X158740491Y-74203570D01*
X158747924Y-74222345D01*
X158783340Y-74271091D01*
X158815636Y-74321981D01*
X158830361Y-74335809D01*
X158842228Y-74352142D01*
X158888651Y-74390547D01*
X158932590Y-74431808D01*
X158950289Y-74441538D01*
X158965847Y-74454409D01*
X159020367Y-74480064D01*
X159073183Y-74509100D01*
X159088132Y-74511952D01*
X159111016Y-74522720D01*
X159268612Y-74552783D01*
X159328741Y-74549000D01*
X168139421Y-74549000D01*
X167353590Y-75334832D01*
X167133677Y-75300001D01*
X166876323Y-75300001D01*
X166622137Y-75340260D01*
X166377378Y-75419787D01*
X166148074Y-75536623D01*
X165939869Y-75687892D01*
X165757892Y-75869869D01*
X165606623Y-76078074D01*
X165489787Y-76307378D01*
X165410260Y-76552137D01*
X165370001Y-76806323D01*
X165370001Y-77063677D01*
X165410260Y-77317863D01*
X165489787Y-77562622D01*
X165606623Y-77791926D01*
X165757892Y-78000131D01*
X165939869Y-78182108D01*
X166148074Y-78333377D01*
X166377378Y-78450213D01*
X166622137Y-78529740D01*
X166876323Y-78569999D01*
X167133677Y-78569999D01*
X167387863Y-78529740D01*
X167632622Y-78450213D01*
X167861926Y-78333377D01*
X168070131Y-78182108D01*
X168252108Y-78000131D01*
X168403377Y-77791926D01*
X168520213Y-77562622D01*
X168599740Y-77317863D01*
X168639999Y-77063677D01*
X168639999Y-76806323D01*
X168605168Y-76586410D01*
X169552798Y-75638781D01*
X171087465Y-75638781D01*
X171019869Y-75687892D01*
X170837892Y-75869869D01*
X170686623Y-76078074D01*
X170569787Y-76307378D01*
X170490260Y-76552137D01*
X170450001Y-76806323D01*
X170450001Y-77063677D01*
X170490260Y-77317863D01*
X170569787Y-77562622D01*
X170686623Y-77791926D01*
X170837892Y-78000131D01*
X171019869Y-78182108D01*
X171228074Y-78333377D01*
X171457378Y-78450213D01*
X171702137Y-78529740D01*
X171956323Y-78569999D01*
X172213677Y-78569999D01*
X172467863Y-78529740D01*
X172712622Y-78450213D01*
X172941926Y-78333377D01*
X173150131Y-78182108D01*
X173332108Y-78000131D01*
X173483377Y-77791926D01*
X173600213Y-77562622D01*
X173679740Y-77317863D01*
X173719999Y-77063677D01*
X173719999Y-76981539D01*
X176885000Y-80146541D01*
X176884999Y-82436600D01*
X176877363Y-82494599D01*
X176884999Y-82552598D01*
X176884999Y-82552599D01*
X176907779Y-82725629D01*
X176970835Y-82877861D01*
X176996954Y-82940917D01*
X177055404Y-83017090D01*
X177138810Y-83125788D01*
X177185226Y-83161404D01*
X177272285Y-83248463D01*
X177272285Y-84644600D01*
X177303751Y-84843272D01*
X177395071Y-85022496D01*
X177537304Y-85164729D01*
X177716528Y-85256049D01*
X177915200Y-85287515D01*
X179615200Y-85287515D01*
X179813872Y-85256049D01*
X179993096Y-85164729D01*
X180135329Y-85022496D01*
X180226649Y-84843272D01*
X180258115Y-84644600D01*
X180258115Y-82944600D01*
X180226649Y-82745928D01*
X180135329Y-82566704D01*
X179993096Y-82424471D01*
X179813872Y-82333151D01*
X179615200Y-82301685D01*
X178828663Y-82301685D01*
X178654999Y-82128021D01*
X178654999Y-81604515D01*
X179920000Y-81604515D01*
X180118672Y-81573049D01*
X180297896Y-81481729D01*
X180440129Y-81339496D01*
X180531449Y-81160272D01*
X180562915Y-80961600D01*
X180562915Y-79261600D01*
X180531449Y-79062928D01*
X180440129Y-78883704D01*
X180297896Y-78741471D01*
X180118672Y-78650151D01*
X180105000Y-78647986D01*
X180105000Y-77482666D01*
X180211623Y-77691926D01*
X180362892Y-77900131D01*
X180544869Y-78082108D01*
X180753074Y-78233377D01*
X180982378Y-78350213D01*
X181227137Y-78429740D01*
X181481323Y-78469999D01*
X181592600Y-78469999D01*
X181592600Y-78694138D01*
X181499704Y-78741471D01*
X181357471Y-78883704D01*
X181266151Y-79062928D01*
X181234685Y-79261600D01*
X181234685Y-80961600D01*
X181266151Y-81160272D01*
X181357471Y-81339496D01*
X181499704Y-81481729D01*
X181678928Y-81573049D01*
X181877600Y-81604515D01*
X182639006Y-81604515D01*
X182972590Y-81938099D01*
X182972590Y-82301685D01*
X181598200Y-82301685D01*
X181399528Y-82333151D01*
X181220304Y-82424471D01*
X181078071Y-82566704D01*
X180986751Y-82745928D01*
X180955285Y-82944600D01*
X180955285Y-84644600D01*
X180986751Y-84843272D01*
X181078071Y-85022496D01*
X181220304Y-85164729D01*
X181399528Y-85256049D01*
X181598200Y-85287515D01*
X182972590Y-85287515D01*
X182972590Y-85984685D01*
X181572800Y-85984685D01*
X181374128Y-86016151D01*
X181194904Y-86107471D01*
X181052671Y-86249704D01*
X180961351Y-86428928D01*
X180929885Y-86627600D01*
X180929885Y-88327600D01*
X180961351Y-88526272D01*
X181052671Y-88705496D01*
X181172998Y-88825823D01*
X180563423Y-89435399D01*
X180517011Y-89471012D01*
X180481398Y-89517424D01*
X180481397Y-89517425D01*
X180375154Y-89655883D01*
X180285980Y-89871171D01*
X180255563Y-90102201D01*
X180263200Y-90160207D01*
X180263199Y-91098824D01*
X180258115Y-91103908D01*
X180258115Y-90488400D01*
X180226649Y-90289728D01*
X180135329Y-90110504D01*
X179993096Y-89968271D01*
X179813872Y-89876951D01*
X179615200Y-89845485D01*
X178998894Y-89845485D01*
X179349977Y-89494402D01*
X179396389Y-89458789D01*
X179538245Y-89273918D01*
X179627420Y-89058631D01*
X179639528Y-88966662D01*
X179813872Y-88939049D01*
X179993096Y-88847729D01*
X180135329Y-88705496D01*
X180226649Y-88526272D01*
X180258115Y-88327600D01*
X180258115Y-86627600D01*
X180226649Y-86428928D01*
X180135329Y-86249704D01*
X179993096Y-86107471D01*
X179813872Y-86016151D01*
X179615200Y-85984685D01*
X177915200Y-85984685D01*
X177716528Y-86016151D01*
X177537304Y-86107471D01*
X177395071Y-86249704D01*
X177303751Y-86428928D01*
X177272285Y-86627600D01*
X177272285Y-88327600D01*
X177303751Y-88526272D01*
X177395071Y-88705496D01*
X177515398Y-88825823D01*
X176352200Y-89989022D01*
X176352200Y-80070020D01*
X176355983Y-80050189D01*
X176352200Y-79990060D01*
X176352200Y-79970056D01*
X176349693Y-79950210D01*
X176345909Y-79890067D01*
X176339669Y-79870862D01*
X176337138Y-79850827D01*
X176314952Y-79794790D01*
X176296331Y-79737482D01*
X176285512Y-79720434D01*
X176278077Y-79701655D01*
X176242653Y-79652898D01*
X176210364Y-79602019D01*
X176195642Y-79588194D01*
X176183773Y-79571858D01*
X176137344Y-79533449D01*
X176093410Y-79492192D01*
X176075712Y-79482462D01*
X176060153Y-79469591D01*
X176005633Y-79443936D01*
X175952817Y-79414900D01*
X175937868Y-79412048D01*
X175914984Y-79401280D01*
X175757388Y-79371217D01*
X175697259Y-79375000D01*
X155000020Y-79375000D01*
X154980189Y-79371217D01*
X154920060Y-79375000D01*
X154900056Y-79375000D01*
X154880209Y-79377507D01*
X154820068Y-79381291D01*
X154800864Y-79387531D01*
X154780827Y-79390062D01*
X154724786Y-79412250D01*
X154667483Y-79430869D01*
X154650437Y-79441687D01*
X154631655Y-79449123D01*
X154582891Y-79484552D01*
X154532020Y-79516836D01*
X154518197Y-79531556D01*
X154501858Y-79543427D01*
X154463439Y-79589868D01*
X154422193Y-79633790D01*
X154412467Y-79651482D01*
X154399591Y-79667046D01*
X154373927Y-79721586D01*
X154344901Y-79774383D01*
X154342050Y-79789327D01*
X154331280Y-79812215D01*
X154301217Y-79969811D01*
X154305001Y-80029956D01*
X154305000Y-90778548D01*
X154305000Y-91379980D01*
X154301217Y-91399811D01*
X154305000Y-91459940D01*
X154305000Y-91479943D01*
X154307507Y-91499788D01*
X154311291Y-91559933D01*
X154317531Y-91579138D01*
X154320062Y-91599172D01*
X154342247Y-91655204D01*
X154360869Y-91712518D01*
X154371689Y-91729568D01*
X154379123Y-91748344D01*
X154414544Y-91797097D01*
X154446836Y-91847981D01*
X154461558Y-91861806D01*
X154473427Y-91878142D01*
X154519859Y-91916554D01*
X154563790Y-91957808D01*
X154581486Y-91967536D01*
X154597046Y-91980409D01*
X154651573Y-92006067D01*
X154704383Y-92035100D01*
X154719330Y-92037951D01*
X154742215Y-92048720D01*
X154899811Y-92078783D01*
X154959940Y-92075000D01*
X172992175Y-92075000D01*
X172950071Y-92117104D01*
X172858751Y-92296328D01*
X172832828Y-92460000D01*
X156902992Y-92460000D01*
X156844999Y-92452365D01*
X156787006Y-92460000D01*
X156786999Y-92460000D01*
X156613969Y-92482780D01*
X156487856Y-92535018D01*
X156398681Y-92571955D01*
X156269127Y-92671366D01*
X156213811Y-92713811D01*
X156178198Y-92760223D01*
X155923590Y-93014832D01*
X155703677Y-92980001D01*
X155446323Y-92980001D01*
X155192137Y-93020260D01*
X154947378Y-93099787D01*
X154718074Y-93216623D01*
X154509869Y-93367892D01*
X154327892Y-93549869D01*
X154176623Y-93758074D01*
X154059787Y-93987378D01*
X153980260Y-94232137D01*
X153940001Y-94486323D01*
X153940001Y-94743677D01*
X153980260Y-94997863D01*
X154059787Y-95242622D01*
X154176623Y-95471926D01*
X154327892Y-95680131D01*
X154509869Y-95862108D01*
X154690000Y-95992980D01*
X154690000Y-96087213D01*
X154690001Y-96087220D01*
X154690000Y-97443003D01*
X154682364Y-97501002D01*
X154690000Y-97559001D01*
X154690000Y-97559002D01*
X154712780Y-97732032D01*
X154754621Y-97833045D01*
X154801955Y-97947320D01*
X154828106Y-97981400D01*
X154943811Y-98132191D01*
X154988448Y-98166442D01*
X154947378Y-98179787D01*
X154718074Y-98296623D01*
X154509869Y-98447892D01*
X154327892Y-98629869D01*
X154176623Y-98838074D01*
X154059787Y-99067378D01*
X153980260Y-99312137D01*
X153940001Y-99566323D01*
X153940001Y-99823677D01*
X153980260Y-100077863D01*
X154059787Y-100322622D01*
X154176623Y-100551926D01*
X154327892Y-100760131D01*
X154509869Y-100942108D01*
X154718074Y-101093377D01*
X154947378Y-101210213D01*
X155192137Y-101289740D01*
X155446323Y-101329999D01*
X155703677Y-101329999D01*
X155740462Y-101324173D01*
X157241807Y-102825518D01*
X157301464Y-102893904D01*
X157381766Y-102950341D01*
X157459003Y-103010903D01*
X157483989Y-103022185D01*
X157506418Y-103037948D01*
X157597862Y-103073601D01*
X157687319Y-103113992D01*
X157714275Y-103118988D01*
X157739816Y-103128946D01*
X157828353Y-103140131D01*
X157933633Y-103159643D01*
X158029769Y-103154100D01*
X158328583Y-103154100D01*
X158370112Y-103254361D01*
X158511968Y-103439232D01*
X158696840Y-103581088D01*
X158912127Y-103670263D01*
X159143158Y-103700679D01*
X160388842Y-103700679D01*
X160619873Y-103670263D01*
X160835161Y-103581088D01*
X161020032Y-103439232D01*
X161161888Y-103254361D01*
X161251063Y-103039073D01*
X161281479Y-102808042D01*
X161281479Y-101895001D01*
X161312923Y-101895001D01*
X161349321Y-101931399D01*
X161349321Y-102655642D01*
X161379737Y-102886673D01*
X161468912Y-103101961D01*
X161610768Y-103286832D01*
X161795640Y-103428688D01*
X162010927Y-103517863D01*
X162241958Y-103548279D01*
X163487642Y-103548279D01*
X163718673Y-103517863D01*
X163933961Y-103428688D01*
X164118832Y-103286832D01*
X164260688Y-103101961D01*
X164349863Y-102886673D01*
X164380279Y-102655642D01*
X164380279Y-101734958D01*
X164349863Y-101503927D01*
X164260688Y-101288640D01*
X164118832Y-101103768D01*
X163933961Y-100961912D01*
X163718673Y-100872737D01*
X163487642Y-100842321D01*
X162763399Y-100842321D01*
X162346306Y-100425228D01*
X162310690Y-100378812D01*
X162125819Y-100236956D01*
X161910532Y-100147781D01*
X161862004Y-100141392D01*
X161963077Y-99956661D01*
X162067075Y-99683727D01*
X162132939Y-99399174D01*
X162159443Y-99108304D01*
X162146094Y-98816533D01*
X162112400Y-98633773D01*
X162175500Y-98654347D01*
X162429644Y-98694867D01*
X162686998Y-98695131D01*
X162941226Y-98655133D01*
X163186067Y-98575857D01*
X163415491Y-98459256D01*
X163418361Y-98457498D01*
X163513782Y-98193388D01*
X162560000Y-97239605D01*
X162545858Y-97253748D01*
X162366252Y-97074142D01*
X162380395Y-97060000D01*
X161426612Y-96106218D01*
X161162502Y-96201639D01*
X161045431Y-96430823D01*
X160965653Y-96675500D01*
X160925133Y-96929644D01*
X160924936Y-97121451D01*
X160916661Y-97116923D01*
X160643727Y-97012925D01*
X160359174Y-96947061D01*
X160068304Y-96920557D01*
X159776533Y-96933906D01*
X159489297Y-96986861D01*
X159211948Y-97078435D01*
X158949652Y-97206921D01*
X158867108Y-97257116D01*
X158711736Y-97572131D01*
X160020000Y-98880395D01*
X160034143Y-98866253D01*
X160213748Y-99045858D01*
X160199605Y-99060000D01*
X160213748Y-99074143D01*
X160034143Y-99253748D01*
X160020000Y-99239605D01*
X160005858Y-99253748D01*
X159826253Y-99074143D01*
X159840395Y-99060000D01*
X158532131Y-97751736D01*
X158217116Y-97907108D01*
X158076923Y-98163339D01*
X157972925Y-98436273D01*
X157933251Y-98607675D01*
X156460000Y-97134424D01*
X156460000Y-95992980D01*
X156551348Y-95926612D01*
X161606218Y-95926612D01*
X162560000Y-96880395D01*
X163513782Y-95926612D01*
X163418361Y-95662502D01*
X163189177Y-95545431D01*
X162944500Y-95465653D01*
X162690356Y-95425133D01*
X162433002Y-95424869D01*
X162178774Y-95464867D01*
X161933933Y-95544143D01*
X161704509Y-95660744D01*
X161701639Y-95662502D01*
X161606218Y-95926612D01*
X156551348Y-95926612D01*
X156640131Y-95862108D01*
X156822108Y-95680131D01*
X156973377Y-95471926D01*
X157090213Y-95242622D01*
X157169740Y-94997863D01*
X157209999Y-94743677D01*
X157209999Y-94486323D01*
X157175168Y-94266410D01*
X157211579Y-94230000D01*
X172832828Y-94230000D01*
X172858751Y-94393672D01*
X172950071Y-94572896D01*
X173092304Y-94715129D01*
X173111675Y-94724999D01*
X166608000Y-94724999D01*
X166550001Y-94717363D01*
X166492002Y-94724999D01*
X166492000Y-94724999D01*
X166318970Y-94747779D01*
X166103683Y-94836954D01*
X165918812Y-94978810D01*
X165883195Y-95025227D01*
X165515226Y-95393196D01*
X165515222Y-95393199D01*
X165448589Y-95459832D01*
X165228677Y-95425001D01*
X164971323Y-95425001D01*
X164717137Y-95465260D01*
X164472378Y-95544787D01*
X164243074Y-95661623D01*
X164034869Y-95812892D01*
X163852892Y-95994869D01*
X163755649Y-96128713D01*
X163693388Y-96106218D01*
X162739605Y-97060000D01*
X163693388Y-98013782D01*
X163755649Y-97991287D01*
X163852892Y-98125131D01*
X164034869Y-98307108D01*
X164243074Y-98458377D01*
X164472378Y-98575213D01*
X164717137Y-98654740D01*
X164971323Y-98694999D01*
X165228677Y-98694999D01*
X165448590Y-98660168D01*
X165866001Y-99077580D01*
X165866000Y-100733230D01*
X165681840Y-100809512D01*
X165496968Y-100951368D01*
X165355112Y-101136240D01*
X165265937Y-101351527D01*
X165235521Y-101582558D01*
X165235521Y-102503242D01*
X165265937Y-102734273D01*
X165355112Y-102949561D01*
X165496968Y-103134432D01*
X165681840Y-103276288D01*
X165897127Y-103365463D01*
X166128158Y-103395879D01*
X167373842Y-103395879D01*
X167604873Y-103365463D01*
X167820161Y-103276288D01*
X167919400Y-103200139D01*
X168018640Y-103276288D01*
X168233927Y-103365463D01*
X168464958Y-103395879D01*
X169710642Y-103395879D01*
X169941673Y-103365463D01*
X170156961Y-103276288D01*
X170243500Y-103209884D01*
X170330040Y-103276288D01*
X170545327Y-103365463D01*
X170776358Y-103395879D01*
X171500600Y-103395879D01*
X171583115Y-103478394D01*
X171583119Y-103478397D01*
X171769643Y-103664921D01*
X170776358Y-103664921D01*
X170545327Y-103695337D01*
X170330040Y-103784512D01*
X170243500Y-103850916D01*
X170156961Y-103784512D01*
X169941673Y-103695337D01*
X169710642Y-103664921D01*
X168464958Y-103664921D01*
X168233927Y-103695337D01*
X168018640Y-103784512D01*
X167919400Y-103860661D01*
X167820161Y-103784512D01*
X167604873Y-103695337D01*
X167373842Y-103664921D01*
X166128158Y-103664921D01*
X165897127Y-103695337D01*
X165681840Y-103784512D01*
X165496968Y-103926368D01*
X165453590Y-103982900D01*
X163993894Y-103982900D01*
X163933961Y-103936912D01*
X163718673Y-103847737D01*
X163487642Y-103817321D01*
X162241958Y-103817321D01*
X162010927Y-103847737D01*
X161795640Y-103936912D01*
X161735707Y-103982900D01*
X160488946Y-103982900D01*
X160388842Y-103969721D01*
X159143158Y-103969721D01*
X158912127Y-104000137D01*
X158696840Y-104089312D01*
X158511968Y-104231168D01*
X158370112Y-104416040D01*
X158280937Y-104631327D01*
X158250521Y-104862358D01*
X158250521Y-105783042D01*
X158280937Y-106014073D01*
X158293747Y-106045000D01*
X156479425Y-106045000D01*
X156528782Y-105908388D01*
X155575000Y-104954605D01*
X154621218Y-105908388D01*
X154670575Y-106045000D01*
X153035000Y-106045000D01*
X153035000Y-104901998D01*
X153939869Y-104901998D01*
X153979867Y-105156226D01*
X154059143Y-105401067D01*
X154175744Y-105630491D01*
X154177502Y-105633361D01*
X154441612Y-105728782D01*
X155395395Y-104775000D01*
X155754605Y-104775000D01*
X156708388Y-105728782D01*
X156972498Y-105633361D01*
X157089569Y-105404177D01*
X157169347Y-105159500D01*
X157209867Y-104905356D01*
X157210131Y-104648002D01*
X157170133Y-104393774D01*
X157090857Y-104148933D01*
X156974256Y-103919509D01*
X156972498Y-103916639D01*
X156708388Y-103821218D01*
X155754605Y-104775000D01*
X155395395Y-104775000D01*
X154441612Y-103821218D01*
X154177502Y-103916639D01*
X154060431Y-104145823D01*
X153980653Y-104390500D01*
X153940133Y-104644644D01*
X153939869Y-104901998D01*
X153035000Y-104901998D01*
X153035000Y-103641612D01*
X154621218Y-103641612D01*
X155575000Y-104595395D01*
X156528782Y-103641612D01*
X156433361Y-103377502D01*
X156204177Y-103260431D01*
X155959500Y-103180653D01*
X155705356Y-103140133D01*
X155448002Y-103139869D01*
X155193774Y-103179867D01*
X154948933Y-103259143D01*
X154719509Y-103375744D01*
X154716639Y-103377502D01*
X154621218Y-103641612D01*
X153035000Y-103641612D01*
X153035000Y-67808388D01*
X154621218Y-67808388D01*
X154716639Y-68072498D01*
X154945823Y-68189569D01*
X155190500Y-68269347D01*
X155444644Y-68309867D01*
X155701998Y-68310131D01*
X155956226Y-68270133D01*
X156201067Y-68190857D01*
X156430491Y-68074256D01*
X156433361Y-68072498D01*
X156528782Y-67808388D01*
X155575000Y-66854605D01*
X154621218Y-67808388D01*
X153035000Y-67808388D01*
X153035000Y-66801998D01*
X153939869Y-66801998D01*
X153979867Y-67056226D01*
X154059143Y-67301067D01*
X154175744Y-67530491D01*
X154177502Y-67533361D01*
X154441612Y-67628782D01*
X155395395Y-66675000D01*
X155754605Y-66675000D01*
X156708388Y-67628782D01*
X156972498Y-67533361D01*
X157089569Y-67304177D01*
X157169347Y-67059500D01*
X157209867Y-66805356D01*
X157210131Y-66548002D01*
X157170133Y-66293774D01*
X157090857Y-66048933D01*
X156974256Y-65819509D01*
X156972498Y-65816639D01*
X156708388Y-65721218D01*
X155754605Y-66675000D01*
X155395395Y-66675000D01*
X154441612Y-65721218D01*
X154177502Y-65816639D01*
X154060431Y-66045823D01*
X153980653Y-66290500D01*
X153940133Y-66544644D01*
X153939869Y-66801998D01*
X153035000Y-66801998D01*
X153035000Y-65405000D01*
X154670575Y-65405000D01*
X154621218Y-65541612D01*
X154621218Y-65541612D01*
G37*
X154621218Y-65541612D02*
X155575000Y-66495395D01*
X156528782Y-65541612D01*
X156479425Y-65405000D01*
X160065824Y-65405000D01*
X160058937Y-65421627D01*
X160028521Y-65652658D01*
X160028521Y-66573342D01*
X160058937Y-66804373D01*
X160148112Y-67019661D01*
X160289968Y-67204532D01*
X160474840Y-67346388D01*
X160690127Y-67435563D01*
X160921158Y-67465979D01*
X162166842Y-67465979D01*
X162397873Y-67435563D01*
X162613161Y-67346388D01*
X162741383Y-67248000D01*
X165032390Y-67248000D01*
X165046840Y-67259088D01*
X165262127Y-67348263D01*
X165493158Y-67378679D01*
X166738842Y-67378679D01*
X166969873Y-67348263D01*
X167185161Y-67259088D01*
X167199611Y-67248000D01*
X167597790Y-67248000D01*
X167612240Y-67259088D01*
X167827527Y-67348263D01*
X168058558Y-67378679D01*
X169304242Y-67378679D01*
X169535273Y-67348263D01*
X169750561Y-67259088D01*
X169765011Y-67248000D01*
X170560914Y-67248000D01*
X170607120Y-67255029D01*
X170693543Y-67248000D01*
X170713268Y-67248000D01*
X170758774Y-67242695D01*
X170870913Y-67233574D01*
X170889978Y-67227398D01*
X170909884Y-67225077D01*
X170941266Y-67213686D01*
X171066640Y-67309888D01*
X171281927Y-67399063D01*
X171512958Y-67429479D01*
X172758642Y-67429479D01*
X172989673Y-67399063D01*
X173204961Y-67309888D01*
X173308051Y-67230784D01*
X173378040Y-67284488D01*
X173593327Y-67373663D01*
X173824358Y-67404079D01*
X175070042Y-67404079D01*
X175301073Y-67373663D01*
X175516361Y-67284488D01*
X175619451Y-67205384D01*
X175689440Y-67259088D01*
X175904727Y-67348263D01*
X176135758Y-67378679D01*
X177381442Y-67378679D01*
X177612473Y-67348263D01*
X177827761Y-67259088D01*
X178012632Y-67117232D01*
X178154488Y-66932361D01*
X178243663Y-66717073D01*
X178274079Y-66486042D01*
X178274079Y-66109999D01*
X180074506Y-66109999D01*
X180015653Y-66290500D01*
X179975133Y-66544644D01*
X179974869Y-66801998D01*
X180014867Y-67056226D01*
X180094143Y-67301067D01*
X180210744Y-67530491D01*
X180212502Y-67533361D01*
X180476612Y-67628782D01*
X181430395Y-66675000D01*
X181416252Y-66660858D01*
X181595858Y-66481253D01*
X181610000Y-66495395D01*
X181624143Y-66481253D01*
X181803748Y-66660858D01*
X181789605Y-66675000D01*
X181803748Y-66689142D01*
X181624143Y-66868748D01*
X181610000Y-66854605D01*
X180656218Y-67808388D01*
X180751639Y-68072498D01*
X180980823Y-68189569D01*
X181225500Y-68269347D01*
X181479644Y-68309867D01*
X181736998Y-68310131D01*
X181991226Y-68270133D01*
X182175002Y-68210629D01*
X182175002Y-70219440D01*
X181992863Y-70160260D01*
X181738677Y-70120001D01*
X181481323Y-70120001D01*
X181227137Y-70160260D01*
X180982378Y-70239787D01*
X180753074Y-70356623D01*
X180544869Y-70507892D01*
X180432761Y-70620000D01*
X179921132Y-70620000D01*
X178274079Y-68972948D01*
X178274079Y-68540358D01*
X178243663Y-68309327D01*
X178154488Y-68094040D01*
X178012632Y-67909168D01*
X177827761Y-67767312D01*
X177612473Y-67678137D01*
X177381442Y-67647721D01*
X176135758Y-67647721D01*
X175904727Y-67678137D01*
X175689440Y-67767312D01*
X175586349Y-67846416D01*
X175516361Y-67792712D01*
X175301073Y-67703537D01*
X175070042Y-67673121D01*
X173824358Y-67673121D01*
X173593327Y-67703537D01*
X173378040Y-67792712D01*
X173274949Y-67871816D01*
X173204961Y-67818112D01*
X172989673Y-67728937D01*
X172758642Y-67698521D01*
X171512958Y-67698521D01*
X171281927Y-67728937D01*
X171066640Y-67818112D01*
X170881768Y-67959968D01*
X170739912Y-68144840D01*
X170650737Y-68360127D01*
X170620321Y-68591158D01*
X170620321Y-69329010D01*
X170261289Y-69329010D01*
X170196879Y-69264600D01*
X170196879Y-68540358D01*
X170166463Y-68309327D01*
X170077288Y-68094040D01*
X169935432Y-67909168D01*
X169750561Y-67767312D01*
X169535273Y-67678137D01*
X169304242Y-67647721D01*
X168058558Y-67647721D01*
X167827527Y-67678137D01*
X167612240Y-67767312D01*
X167427368Y-67909168D01*
X167398700Y-67946529D01*
X167370032Y-67909168D01*
X167185161Y-67767312D01*
X166969873Y-67678137D01*
X166738842Y-67647721D01*
X165493158Y-67647721D01*
X165262127Y-67678137D01*
X165046840Y-67767312D01*
X164861968Y-67909168D01*
X164720112Y-68094040D01*
X164630937Y-68309327D01*
X164600521Y-68540358D01*
X164600521Y-69351901D01*
X164395632Y-69556790D01*
X163058367Y-69556790D01*
X163059479Y-69548342D01*
X163059479Y-68627658D01*
X163029063Y-68396627D01*
X162939888Y-68181340D01*
X162798032Y-67996468D01*
X162613161Y-67854612D01*
X162397873Y-67765437D01*
X162166842Y-67735021D01*
X160921158Y-67735021D01*
X160690127Y-67765437D01*
X160474840Y-67854612D01*
X160289968Y-67996468D01*
X160148112Y-68181340D01*
X160139140Y-68203000D01*
X158300001Y-68203000D01*
X158242000Y-68195364D01*
X158183999Y-68203000D01*
X158010969Y-68225780D01*
X157795682Y-68314955D01*
X157610811Y-68456811D01*
X157575198Y-68503223D01*
X155923590Y-70154832D01*
X155703677Y-70120001D01*
X155446323Y-70120001D01*
X155192137Y-70160260D01*
X154947378Y-70239787D01*
X154718074Y-70356623D01*
X154509869Y-70507892D01*
X154327892Y-70689869D01*
X154176623Y-70898074D01*
X154059787Y-71127378D01*
X153980260Y-71372137D01*
X153940001Y-71626323D01*
X153940001Y-71883677D01*
X153980260Y-72137863D01*
X154059787Y-72382622D01*
X154176623Y-72611926D01*
X154327892Y-72820131D01*
X154509869Y-73002108D01*
X154718074Y-73153377D01*
X154947378Y-73270213D01*
X155011281Y-73290976D01*
X154990227Y-73312030D01*
X154943811Y-73347646D01*
X154873814Y-73438869D01*
X154801955Y-73532517D01*
X154801955Y-73532518D01*
X154712780Y-73747805D01*
X154696191Y-73873811D01*
X154682364Y-73978835D01*
X154690000Y-74036834D01*
X154690001Y-75362780D01*
X154690000Y-75362787D01*
X154690000Y-75457020D01*
X154509869Y-75587892D01*
X154327892Y-75769869D01*
X154176623Y-75978074D01*
X154059787Y-76207378D01*
X153980260Y-76452137D01*
X153940001Y-76706323D01*
X153940001Y-76963677D01*
X153980260Y-77217863D01*
X154059787Y-77462622D01*
X154176623Y-77691926D01*
X154327892Y-77900131D01*
X154509869Y-78082108D01*
X154718074Y-78233377D01*
X154947378Y-78350213D01*
X155192137Y-78429740D01*
X155446323Y-78469999D01*
X155703677Y-78469999D01*
X155957863Y-78429740D01*
X156202622Y-78350213D01*
X156431926Y-78233377D01*
X156640131Y-78082108D01*
X156653851Y-78068388D01*
X160971218Y-78068388D01*
X161066639Y-78332498D01*
X161295823Y-78449569D01*
X161540500Y-78529347D01*
X161794644Y-78569867D01*
X162051998Y-78570131D01*
X162306226Y-78530133D01*
X162551067Y-78450857D01*
X162780491Y-78334256D01*
X162783361Y-78332498D01*
X162878782Y-78068388D01*
X161925000Y-77114605D01*
X160971218Y-78068388D01*
X156653851Y-78068388D01*
X156822108Y-77900131D01*
X156973377Y-77691926D01*
X157090213Y-77462622D01*
X157169740Y-77217863D01*
X157194426Y-77061998D01*
X160289869Y-77061998D01*
X160329867Y-77316226D01*
X160409143Y-77561067D01*
X160525744Y-77790491D01*
X160527502Y-77793361D01*
X160791612Y-77888782D01*
X161745395Y-76935000D01*
X162104605Y-76935000D01*
X163058388Y-77888782D01*
X163322498Y-77793361D01*
X163439569Y-77564177D01*
X163519347Y-77319500D01*
X163559867Y-77065356D01*
X163560131Y-76808002D01*
X163520133Y-76553774D01*
X163440857Y-76308933D01*
X163324256Y-76079509D01*
X163322498Y-76076639D01*
X163058388Y-75981218D01*
X162104605Y-76935000D01*
X161745395Y-76935000D01*
X160791612Y-75981218D01*
X160527502Y-76076639D01*
X160410431Y-76305823D01*
X160330653Y-76550500D01*
X160290133Y-76804644D01*
X160289869Y-77061998D01*
X157194426Y-77061998D01*
X157209999Y-76963677D01*
X157209999Y-76706323D01*
X157169740Y-76452137D01*
X157090213Y-76207378D01*
X156973377Y-75978074D01*
X156845171Y-75801612D01*
X160971218Y-75801612D01*
X161925000Y-76755395D01*
X162878782Y-75801612D01*
X162783361Y-75537502D01*
X162554177Y-75420431D01*
X162309500Y-75340653D01*
X162055356Y-75300133D01*
X161798002Y-75299869D01*
X161543774Y-75339867D01*
X161298933Y-75419143D01*
X161069509Y-75535744D01*
X161066639Y-75537502D01*
X160971218Y-75801612D01*
X156845171Y-75801612D01*
X156822108Y-75769869D01*
X156640131Y-75587892D01*
X156460000Y-75457020D01*
X156460000Y-74345413D01*
X158329193Y-72476221D01*
X158329194Y-72476219D01*
X158673800Y-72131613D01*
X158673801Y-73853975D01*
X158670017Y-73873811D01*
X158673801Y-73933956D01*
X158673801Y-73953944D01*
X158676306Y-73973775D01*
X158680091Y-74033933D01*
X158686333Y-74053143D01*
X158688863Y-74073173D01*
X158711044Y-74129196D01*
X158729669Y-74186518D01*
X158740491Y-74203570D01*
X158747924Y-74222345D01*
X158783340Y-74271091D01*
X158815636Y-74321981D01*
X158830361Y-74335809D01*
X158842228Y-74352142D01*
X158888651Y-74390547D01*
X158932590Y-74431808D01*
X158950289Y-74441538D01*
X158965847Y-74454409D01*
X159020367Y-74480064D01*
X159073183Y-74509100D01*
X159088132Y-74511952D01*
X159111016Y-74522720D01*
X159268612Y-74552783D01*
X159328741Y-74549000D01*
X168139421Y-74549000D01*
X167353590Y-75334832D01*
X167133677Y-75300001D01*
X166876323Y-75300001D01*
X166622137Y-75340260D01*
X166377378Y-75419787D01*
X166148074Y-75536623D01*
X165939869Y-75687892D01*
X165757892Y-75869869D01*
X165606623Y-76078074D01*
X165489787Y-76307378D01*
X165410260Y-76552137D01*
X165370001Y-76806323D01*
X165370001Y-77063677D01*
X165410260Y-77317863D01*
X165489787Y-77562622D01*
X165606623Y-77791926D01*
X165757892Y-78000131D01*
X165939869Y-78182108D01*
X166148074Y-78333377D01*
X166377378Y-78450213D01*
X166622137Y-78529740D01*
X166876323Y-78569999D01*
X167133677Y-78569999D01*
X167387863Y-78529740D01*
X167632622Y-78450213D01*
X167861926Y-78333377D01*
X168070131Y-78182108D01*
X168252108Y-78000131D01*
X168403377Y-77791926D01*
X168520213Y-77562622D01*
X168599740Y-77317863D01*
X168639999Y-77063677D01*
X168639999Y-76806323D01*
X168605168Y-76586410D01*
X169552798Y-75638781D01*
X171087465Y-75638781D01*
X171019869Y-75687892D01*
X170837892Y-75869869D01*
X170686623Y-76078074D01*
X170569787Y-76307378D01*
X170490260Y-76552137D01*
X170450001Y-76806323D01*
X170450001Y-77063677D01*
X170490260Y-77317863D01*
X170569787Y-77562622D01*
X170686623Y-77791926D01*
X170837892Y-78000131D01*
X171019869Y-78182108D01*
X171228074Y-78333377D01*
X171457378Y-78450213D01*
X171702137Y-78529740D01*
X171956323Y-78569999D01*
X172213677Y-78569999D01*
X172467863Y-78529740D01*
X172712622Y-78450213D01*
X172941926Y-78333377D01*
X173150131Y-78182108D01*
X173332108Y-78000131D01*
X173483377Y-77791926D01*
X173600213Y-77562622D01*
X173679740Y-77317863D01*
X173719999Y-77063677D01*
X173719999Y-76981539D01*
X176885000Y-80146541D01*
X176884999Y-82436600D01*
X176877363Y-82494599D01*
X176884999Y-82552598D01*
X176884999Y-82552599D01*
X176907779Y-82725629D01*
X176970835Y-82877861D01*
X176996954Y-82940917D01*
X177055404Y-83017090D01*
X177138810Y-83125788D01*
X177185226Y-83161404D01*
X177272285Y-83248463D01*
X177272285Y-84644600D01*
X177303751Y-84843272D01*
X177395071Y-85022496D01*
X177537304Y-85164729D01*
X177716528Y-85256049D01*
X177915200Y-85287515D01*
X179615200Y-85287515D01*
X179813872Y-85256049D01*
X179993096Y-85164729D01*
X180135329Y-85022496D01*
X180226649Y-84843272D01*
X180258115Y-84644600D01*
X180258115Y-82944600D01*
X180226649Y-82745928D01*
X180135329Y-82566704D01*
X179993096Y-82424471D01*
X179813872Y-82333151D01*
X179615200Y-82301685D01*
X178828663Y-82301685D01*
X178654999Y-82128021D01*
X178654999Y-81604515D01*
X179920000Y-81604515D01*
X180118672Y-81573049D01*
X180297896Y-81481729D01*
X180440129Y-81339496D01*
X180531449Y-81160272D01*
X180562915Y-80961600D01*
X180562915Y-79261600D01*
X180531449Y-79062928D01*
X180440129Y-78883704D01*
X180297896Y-78741471D01*
X180118672Y-78650151D01*
X180105000Y-78647986D01*
X180105000Y-77482666D01*
X180211623Y-77691926D01*
X180362892Y-77900131D01*
X180544869Y-78082108D01*
X180753074Y-78233377D01*
X180982378Y-78350213D01*
X181227137Y-78429740D01*
X181481323Y-78469999D01*
X181592600Y-78469999D01*
X181592600Y-78694138D01*
X181499704Y-78741471D01*
X181357471Y-78883704D01*
X181266151Y-79062928D01*
X181234685Y-79261600D01*
X181234685Y-80961600D01*
X181266151Y-81160272D01*
X181357471Y-81339496D01*
X181499704Y-81481729D01*
X181678928Y-81573049D01*
X181877600Y-81604515D01*
X182639006Y-81604515D01*
X182972590Y-81938099D01*
X182972590Y-82301685D01*
X181598200Y-82301685D01*
X181399528Y-82333151D01*
X181220304Y-82424471D01*
X181078071Y-82566704D01*
X180986751Y-82745928D01*
X180955285Y-82944600D01*
X180955285Y-84644600D01*
X180986751Y-84843272D01*
X181078071Y-85022496D01*
X181220304Y-85164729D01*
X181399528Y-85256049D01*
X181598200Y-85287515D01*
X182972590Y-85287515D01*
X182972590Y-85984685D01*
X181572800Y-85984685D01*
X181374128Y-86016151D01*
X181194904Y-86107471D01*
X181052671Y-86249704D01*
X180961351Y-86428928D01*
X180929885Y-86627600D01*
X180929885Y-88327600D01*
X180961351Y-88526272D01*
X181052671Y-88705496D01*
X181172998Y-88825823D01*
X180563423Y-89435399D01*
X180517011Y-89471012D01*
X180481398Y-89517424D01*
X180481397Y-89517425D01*
X180375154Y-89655883D01*
X180285980Y-89871171D01*
X180255563Y-90102201D01*
X180263200Y-90160207D01*
X180263199Y-91098824D01*
X180258115Y-91103908D01*
X180258115Y-90488400D01*
X180226649Y-90289728D01*
X180135329Y-90110504D01*
X179993096Y-89968271D01*
X179813872Y-89876951D01*
X179615200Y-89845485D01*
X178998894Y-89845485D01*
X179349977Y-89494402D01*
X179396389Y-89458789D01*
X179538245Y-89273918D01*
X179627420Y-89058631D01*
X179639528Y-88966662D01*
X179813872Y-88939049D01*
X179993096Y-88847729D01*
X180135329Y-88705496D01*
X180226649Y-88526272D01*
X180258115Y-88327600D01*
X180258115Y-86627600D01*
X180226649Y-86428928D01*
X180135329Y-86249704D01*
X179993096Y-86107471D01*
X179813872Y-86016151D01*
X179615200Y-85984685D01*
X177915200Y-85984685D01*
X177716528Y-86016151D01*
X177537304Y-86107471D01*
X177395071Y-86249704D01*
X177303751Y-86428928D01*
X177272285Y-86627600D01*
X177272285Y-88327600D01*
X177303751Y-88526272D01*
X177395071Y-88705496D01*
X177515398Y-88825823D01*
X176352200Y-89989022D01*
X176352200Y-80070020D01*
X176355983Y-80050189D01*
X176352200Y-79990060D01*
X176352200Y-79970056D01*
X176349693Y-79950210D01*
X176345909Y-79890067D01*
X176339669Y-79870862D01*
X176337138Y-79850827D01*
X176314952Y-79794790D01*
X176296331Y-79737482D01*
X176285512Y-79720434D01*
X176278077Y-79701655D01*
X176242653Y-79652898D01*
X176210364Y-79602019D01*
X176195642Y-79588194D01*
X176183773Y-79571858D01*
X176137344Y-79533449D01*
X176093410Y-79492192D01*
X176075712Y-79482462D01*
X176060153Y-79469591D01*
X176005633Y-79443936D01*
X175952817Y-79414900D01*
X175937868Y-79412048D01*
X175914984Y-79401280D01*
X175757388Y-79371217D01*
X175697259Y-79375000D01*
X155000020Y-79375000D01*
X154980189Y-79371217D01*
X154920060Y-79375000D01*
X154900056Y-79375000D01*
X154880209Y-79377507D01*
X154820068Y-79381291D01*
X154800864Y-79387531D01*
X154780827Y-79390062D01*
X154724786Y-79412250D01*
X154667483Y-79430869D01*
X154650437Y-79441687D01*
X154631655Y-79449123D01*
X154582891Y-79484552D01*
X154532020Y-79516836D01*
X154518197Y-79531556D01*
X154501858Y-79543427D01*
X154463439Y-79589868D01*
X154422193Y-79633790D01*
X154412467Y-79651482D01*
X154399591Y-79667046D01*
X154373927Y-79721586D01*
X154344901Y-79774383D01*
X154342050Y-79789327D01*
X154331280Y-79812215D01*
X154301217Y-79969811D01*
X154305001Y-80029956D01*
X154305000Y-90778548D01*
X154305000Y-91379980D01*
X154301217Y-91399811D01*
X154305000Y-91459940D01*
X154305000Y-91479943D01*
X154307507Y-91499788D01*
X154311291Y-91559933D01*
X154317531Y-91579138D01*
X154320062Y-91599172D01*
X154342247Y-91655204D01*
X154360869Y-91712518D01*
X154371689Y-91729568D01*
X154379123Y-91748344D01*
X154414544Y-91797097D01*
X154446836Y-91847981D01*
X154461558Y-91861806D01*
X154473427Y-91878142D01*
X154519859Y-91916554D01*
X154563790Y-91957808D01*
X154581486Y-91967536D01*
X154597046Y-91980409D01*
X154651573Y-92006067D01*
X154704383Y-92035100D01*
X154719330Y-92037951D01*
X154742215Y-92048720D01*
X154899811Y-92078783D01*
X154959940Y-92075000D01*
X172992175Y-92075000D01*
X172950071Y-92117104D01*
X172858751Y-92296328D01*
X172832828Y-92460000D01*
X156902992Y-92460000D01*
X156844999Y-92452365D01*
X156787006Y-92460000D01*
X156786999Y-92460000D01*
X156613969Y-92482780D01*
X156487856Y-92535018D01*
X156398681Y-92571955D01*
X156269127Y-92671366D01*
X156213811Y-92713811D01*
X156178198Y-92760223D01*
X155923590Y-93014832D01*
X155703677Y-92980001D01*
X155446323Y-92980001D01*
X155192137Y-93020260D01*
X154947378Y-93099787D01*
X154718074Y-93216623D01*
X154509869Y-93367892D01*
X154327892Y-93549869D01*
X154176623Y-93758074D01*
X154059787Y-93987378D01*
X153980260Y-94232137D01*
X153940001Y-94486323D01*
X153940001Y-94743677D01*
X153980260Y-94997863D01*
X154059787Y-95242622D01*
X154176623Y-95471926D01*
X154327892Y-95680131D01*
X154509869Y-95862108D01*
X154690000Y-95992980D01*
X154690000Y-96087213D01*
X154690001Y-96087220D01*
X154690000Y-97443003D01*
X154682364Y-97501002D01*
X154690000Y-97559001D01*
X154690000Y-97559002D01*
X154712780Y-97732032D01*
X154754621Y-97833045D01*
X154801955Y-97947320D01*
X154828106Y-97981400D01*
X154943811Y-98132191D01*
X154988448Y-98166442D01*
X154947378Y-98179787D01*
X154718074Y-98296623D01*
X154509869Y-98447892D01*
X154327892Y-98629869D01*
X154176623Y-98838074D01*
X154059787Y-99067378D01*
X153980260Y-99312137D01*
X153940001Y-99566323D01*
X153940001Y-99823677D01*
X153980260Y-100077863D01*
X154059787Y-100322622D01*
X154176623Y-100551926D01*
X154327892Y-100760131D01*
X154509869Y-100942108D01*
X154718074Y-101093377D01*
X154947378Y-101210213D01*
X155192137Y-101289740D01*
X155446323Y-101329999D01*
X155703677Y-101329999D01*
X155740462Y-101324173D01*
X157241807Y-102825518D01*
X157301464Y-102893904D01*
X157381766Y-102950341D01*
X157459003Y-103010903D01*
X157483989Y-103022185D01*
X157506418Y-103037948D01*
X157597862Y-103073601D01*
X157687319Y-103113992D01*
X157714275Y-103118988D01*
X157739816Y-103128946D01*
X157828353Y-103140131D01*
X157933633Y-103159643D01*
X158029769Y-103154100D01*
X158328583Y-103154100D01*
X158370112Y-103254361D01*
X158511968Y-103439232D01*
X158696840Y-103581088D01*
X158912127Y-103670263D01*
X159143158Y-103700679D01*
X160388842Y-103700679D01*
X160619873Y-103670263D01*
X160835161Y-103581088D01*
X161020032Y-103439232D01*
X161161888Y-103254361D01*
X161251063Y-103039073D01*
X161281479Y-102808042D01*
X161281479Y-101895001D01*
X161312923Y-101895001D01*
X161349321Y-101931399D01*
X161349321Y-102655642D01*
X161379737Y-102886673D01*
X161468912Y-103101961D01*
X161610768Y-103286832D01*
X161795640Y-103428688D01*
X162010927Y-103517863D01*
X162241958Y-103548279D01*
X163487642Y-103548279D01*
X163718673Y-103517863D01*
X163933961Y-103428688D01*
X164118832Y-103286832D01*
X164260688Y-103101961D01*
X164349863Y-102886673D01*
X164380279Y-102655642D01*
X164380279Y-101734958D01*
X164349863Y-101503927D01*
X164260688Y-101288640D01*
X164118832Y-101103768D01*
X163933961Y-100961912D01*
X163718673Y-100872737D01*
X163487642Y-100842321D01*
X162763399Y-100842321D01*
X162346306Y-100425228D01*
X162310690Y-100378812D01*
X162125819Y-100236956D01*
X161910532Y-100147781D01*
X161862004Y-100141392D01*
X161963077Y-99956661D01*
X162067075Y-99683727D01*
X162132939Y-99399174D01*
X162159443Y-99108304D01*
X162146094Y-98816533D01*
X162112400Y-98633773D01*
X162175500Y-98654347D01*
X162429644Y-98694867D01*
X162686998Y-98695131D01*
X162941226Y-98655133D01*
X163186067Y-98575857D01*
X163415491Y-98459256D01*
X163418361Y-98457498D01*
X163513782Y-98193388D01*
X162560000Y-97239605D01*
X162545858Y-97253748D01*
X162366252Y-97074142D01*
X162380395Y-97060000D01*
X161426612Y-96106218D01*
X161162502Y-96201639D01*
X161045431Y-96430823D01*
X160965653Y-96675500D01*
X160925133Y-96929644D01*
X160924936Y-97121451D01*
X160916661Y-97116923D01*
X160643727Y-97012925D01*
X160359174Y-96947061D01*
X160068304Y-96920557D01*
X159776533Y-96933906D01*
X159489297Y-96986861D01*
X159211948Y-97078435D01*
X158949652Y-97206921D01*
X158867108Y-97257116D01*
X158711736Y-97572131D01*
X160020000Y-98880395D01*
X160034143Y-98866253D01*
X160213748Y-99045858D01*
X160199605Y-99060000D01*
X160213748Y-99074143D01*
X160034143Y-99253748D01*
X160020000Y-99239605D01*
X160005858Y-99253748D01*
X159826253Y-99074143D01*
X159840395Y-99060000D01*
X158532131Y-97751736D01*
X158217116Y-97907108D01*
X158076923Y-98163339D01*
X157972925Y-98436273D01*
X157933251Y-98607675D01*
X156460000Y-97134424D01*
X156460000Y-95992980D01*
X156551348Y-95926612D01*
X161606218Y-95926612D01*
X162560000Y-96880395D01*
X163513782Y-95926612D01*
X163418361Y-95662502D01*
X163189177Y-95545431D01*
X162944500Y-95465653D01*
X162690356Y-95425133D01*
X162433002Y-95424869D01*
X162178774Y-95464867D01*
X161933933Y-95544143D01*
X161704509Y-95660744D01*
X161701639Y-95662502D01*
X161606218Y-95926612D01*
X156551348Y-95926612D01*
X156640131Y-95862108D01*
X156822108Y-95680131D01*
X156973377Y-95471926D01*
X157090213Y-95242622D01*
X157169740Y-94997863D01*
X157209999Y-94743677D01*
X157209999Y-94486323D01*
X157175168Y-94266410D01*
X157211579Y-94230000D01*
X172832828Y-94230000D01*
X172858751Y-94393672D01*
X172950071Y-94572896D01*
X173092304Y-94715129D01*
X173111675Y-94724999D01*
X166608000Y-94724999D01*
X166550001Y-94717363D01*
X166492002Y-94724999D01*
X166492000Y-94724999D01*
X166318970Y-94747779D01*
X166103683Y-94836954D01*
X165918812Y-94978810D01*
X165883195Y-95025227D01*
X165515226Y-95393196D01*
X165515222Y-95393199D01*
X165448589Y-95459832D01*
X165228677Y-95425001D01*
X164971323Y-95425001D01*
X164717137Y-95465260D01*
X164472378Y-95544787D01*
X164243074Y-95661623D01*
X164034869Y-95812892D01*
X163852892Y-95994869D01*
X163755649Y-96128713D01*
X163693388Y-96106218D01*
X162739605Y-97060000D01*
X163693388Y-98013782D01*
X163755649Y-97991287D01*
X163852892Y-98125131D01*
X164034869Y-98307108D01*
X164243074Y-98458377D01*
X164472378Y-98575213D01*
X164717137Y-98654740D01*
X164971323Y-98694999D01*
X165228677Y-98694999D01*
X165448590Y-98660168D01*
X165866001Y-99077580D01*
X165866000Y-100733230D01*
X165681840Y-100809512D01*
X165496968Y-100951368D01*
X165355112Y-101136240D01*
X165265937Y-101351527D01*
X165235521Y-101582558D01*
X165235521Y-102503242D01*
X165265937Y-102734273D01*
X165355112Y-102949561D01*
X165496968Y-103134432D01*
X165681840Y-103276288D01*
X165897127Y-103365463D01*
X166128158Y-103395879D01*
X167373842Y-103395879D01*
X167604873Y-103365463D01*
X167820161Y-103276288D01*
X167919400Y-103200139D01*
X168018640Y-103276288D01*
X168233927Y-103365463D01*
X168464958Y-103395879D01*
X169710642Y-103395879D01*
X169941673Y-103365463D01*
X170156961Y-103276288D01*
X170243500Y-103209884D01*
X170330040Y-103276288D01*
X170545327Y-103365463D01*
X170776358Y-103395879D01*
X171500600Y-103395879D01*
X171583115Y-103478394D01*
X171583119Y-103478397D01*
X171769643Y-103664921D01*
X170776358Y-103664921D01*
X170545327Y-103695337D01*
X170330040Y-103784512D01*
X170243500Y-103850916D01*
X170156961Y-103784512D01*
X169941673Y-103695337D01*
X169710642Y-103664921D01*
X168464958Y-103664921D01*
X168233927Y-103695337D01*
X168018640Y-103784512D01*
X167919400Y-103860661D01*
X167820161Y-103784512D01*
X167604873Y-103695337D01*
X167373842Y-103664921D01*
X166128158Y-103664921D01*
X165897127Y-103695337D01*
X165681840Y-103784512D01*
X165496968Y-103926368D01*
X165453590Y-103982900D01*
X163993894Y-103982900D01*
X163933961Y-103936912D01*
X163718673Y-103847737D01*
X163487642Y-103817321D01*
X162241958Y-103817321D01*
X162010927Y-103847737D01*
X161795640Y-103936912D01*
X161735707Y-103982900D01*
X160488946Y-103982900D01*
X160388842Y-103969721D01*
X159143158Y-103969721D01*
X158912127Y-104000137D01*
X158696840Y-104089312D01*
X158511968Y-104231168D01*
X158370112Y-104416040D01*
X158280937Y-104631327D01*
X158250521Y-104862358D01*
X158250521Y-105783042D01*
X158280937Y-106014073D01*
X158293747Y-106045000D01*
X156479425Y-106045000D01*
X156528782Y-105908388D01*
X155575000Y-104954605D01*
X154621218Y-105908388D01*
X154670575Y-106045000D01*
X153035000Y-106045000D01*
X153035000Y-104901998D01*
X153939869Y-104901998D01*
X153979867Y-105156226D01*
X154059143Y-105401067D01*
X154175744Y-105630491D01*
X154177502Y-105633361D01*
X154441612Y-105728782D01*
X155395395Y-104775000D01*
X155754605Y-104775000D01*
X156708388Y-105728782D01*
X156972498Y-105633361D01*
X157089569Y-105404177D01*
X157169347Y-105159500D01*
X157209867Y-104905356D01*
X157210131Y-104648002D01*
X157170133Y-104393774D01*
X157090857Y-104148933D01*
X156974256Y-103919509D01*
X156972498Y-103916639D01*
X156708388Y-103821218D01*
X155754605Y-104775000D01*
X155395395Y-104775000D01*
X154441612Y-103821218D01*
X154177502Y-103916639D01*
X154060431Y-104145823D01*
X153980653Y-104390500D01*
X153940133Y-104644644D01*
X153939869Y-104901998D01*
X153035000Y-104901998D01*
X153035000Y-103641612D01*
X154621218Y-103641612D01*
X155575000Y-104595395D01*
X156528782Y-103641612D01*
X156433361Y-103377502D01*
X156204177Y-103260431D01*
X155959500Y-103180653D01*
X155705356Y-103140133D01*
X155448002Y-103139869D01*
X155193774Y-103179867D01*
X154948933Y-103259143D01*
X154719509Y-103375744D01*
X154716639Y-103377502D01*
X154621218Y-103641612D01*
X153035000Y-103641612D01*
X153035000Y-67808388D01*
X154621218Y-67808388D01*
X154716639Y-68072498D01*
X154945823Y-68189569D01*
X155190500Y-68269347D01*
X155444644Y-68309867D01*
X155701998Y-68310131D01*
X155956226Y-68270133D01*
X156201067Y-68190857D01*
X156430491Y-68074256D01*
X156433361Y-68072498D01*
X156528782Y-67808388D01*
X155575000Y-66854605D01*
X154621218Y-67808388D01*
X153035000Y-67808388D01*
X153035000Y-66801998D01*
X153939869Y-66801998D01*
X153979867Y-67056226D01*
X154059143Y-67301067D01*
X154175744Y-67530491D01*
X154177502Y-67533361D01*
X154441612Y-67628782D01*
X155395395Y-66675000D01*
X155754605Y-66675000D01*
X156708388Y-67628782D01*
X156972498Y-67533361D01*
X157089569Y-67304177D01*
X157169347Y-67059500D01*
X157209867Y-66805356D01*
X157210131Y-66548002D01*
X157170133Y-66293774D01*
X157090857Y-66048933D01*
X156974256Y-65819509D01*
X156972498Y-65816639D01*
X156708388Y-65721218D01*
X155754605Y-66675000D01*
X155395395Y-66675000D01*
X154441612Y-65721218D01*
X154177502Y-65816639D01*
X154060431Y-66045823D01*
X153980653Y-66290500D01*
X153940133Y-66544644D01*
X153939869Y-66801998D01*
X153035000Y-66801998D01*
X153035000Y-65405000D01*
X154670575Y-65405000D01*
X154621218Y-65541612D01*
G36*
X182972591Y-103904027D02*
G01*
X182743388Y-103821218D01*
X181789605Y-104775000D01*
X181803748Y-104789142D01*
X181624142Y-104968748D01*
X181610000Y-104954605D01*
X181595858Y-104968748D01*
X181416252Y-104789142D01*
X181430395Y-104775000D01*
X181416252Y-104760858D01*
X181595858Y-104581252D01*
X181610000Y-104595395D01*
X182563782Y-103641612D01*
X182468361Y-103377502D01*
X182239177Y-103260431D01*
X181994500Y-103180653D01*
X181740356Y-103140133D01*
X181562630Y-103139951D01*
X182972591Y-101729990D01*
X182972591Y-103904027D01*
X182972591Y-103904027D01*
G37*
X182972591Y-103904027D02*
X182743388Y-103821218D01*
X181789605Y-104775000D01*
X181803748Y-104789142D01*
X181624142Y-104968748D01*
X181610000Y-104954605D01*
X181595858Y-104968748D01*
X181416252Y-104789142D01*
X181430395Y-104775000D01*
X181416252Y-104760858D01*
X181595858Y-104581252D01*
X181610000Y-104595395D01*
X182563782Y-103641612D01*
X182468361Y-103377502D01*
X182239177Y-103260431D01*
X181994500Y-103180653D01*
X181740356Y-103140133D01*
X181562630Y-103139951D01*
X182972591Y-101729990D01*
X182972591Y-103904027D01*
G36*
X179262100Y-102935536D02*
G01*
X179264159Y-102935265D01*
X178355623Y-103843801D01*
X178269809Y-103843801D01*
X178269000Y-103714550D01*
X178110250Y-103555800D01*
X176911000Y-103555800D01*
X176911000Y-103575800D01*
X176657000Y-103575800D01*
X176657000Y-103555800D01*
X176637000Y-103555800D01*
X176637000Y-103301800D01*
X176657000Y-103301800D01*
X176657000Y-103281800D01*
X176911000Y-103281800D01*
X176911000Y-103301800D01*
X178110250Y-103301800D01*
X178269000Y-103143050D01*
X178270347Y-102927900D01*
X179204101Y-102927900D01*
X179262100Y-102935536D01*
X179262100Y-102935536D01*
G37*
X179262100Y-102935536D02*
X179264159Y-102935265D01*
X178355623Y-103843801D01*
X178269809Y-103843801D01*
X178269000Y-103714550D01*
X178110250Y-103555800D01*
X176911000Y-103555800D01*
X176911000Y-103575800D01*
X176657000Y-103575800D01*
X176657000Y-103555800D01*
X176637000Y-103555800D01*
X176637000Y-103301800D01*
X176657000Y-103301800D01*
X176657000Y-103281800D01*
X176911000Y-103281800D01*
X176911000Y-103301800D01*
X178110250Y-103301800D01*
X178269000Y-103143050D01*
X178270347Y-102927900D01*
X179204101Y-102927900D01*
X179262100Y-102935536D01*
G36*
X181220304Y-92708529D02*
G01*
X181399528Y-92799849D01*
X181598200Y-92831315D01*
X182972590Y-92831315D01*
X182972591Y-93708818D01*
X182857108Y-93549869D01*
X182675131Y-93367892D01*
X182466926Y-93216623D01*
X182237622Y-93099787D01*
X181992863Y-93020260D01*
X181738677Y-92980001D01*
X181481323Y-92980001D01*
X181227137Y-93020260D01*
X180982378Y-93099787D01*
X180753074Y-93216623D01*
X180544869Y-93367892D01*
X180362892Y-93549869D01*
X180211623Y-93758074D01*
X180094787Y-93987378D01*
X180015260Y-94232137D01*
X179975001Y-94486323D01*
X179975001Y-94743677D01*
X179980827Y-94780462D01*
X177422805Y-97338485D01*
X175959400Y-97338485D01*
X175760728Y-97369951D01*
X175581504Y-97461271D01*
X175439271Y-97603504D01*
X175347951Y-97782728D01*
X175316485Y-97981400D01*
X175316485Y-99681400D01*
X175347951Y-99880072D01*
X175439271Y-100059296D01*
X175581504Y-100201529D01*
X175760728Y-100292849D01*
X175959400Y-100324315D01*
X177659400Y-100324315D01*
X177858072Y-100292849D01*
X178037296Y-100201529D01*
X178179529Y-100059296D01*
X178270849Y-99880072D01*
X178302315Y-99681400D01*
X178302315Y-99386395D01*
X181444538Y-96244173D01*
X181481323Y-96249999D01*
X181738677Y-96249999D01*
X181958589Y-96215168D01*
X182025222Y-96281801D01*
X182025226Y-96281804D01*
X182175002Y-96431580D01*
X182175002Y-98159440D01*
X181992863Y-98100260D01*
X181738677Y-98060001D01*
X181481323Y-98060001D01*
X181227137Y-98100260D01*
X180982378Y-98179787D01*
X180753074Y-98296623D01*
X180544869Y-98447892D01*
X180362892Y-98629869D01*
X180211623Y-98838074D01*
X180094787Y-99067378D01*
X180015260Y-99312137D01*
X179975001Y-99566323D01*
X179975001Y-99823677D01*
X180009832Y-100043590D01*
X178895522Y-101157900D01*
X175115460Y-101157900D01*
X175106488Y-101136240D01*
X174964632Y-100951368D01*
X174779761Y-100809512D01*
X174564473Y-100720337D01*
X174333442Y-100689921D01*
X173087758Y-100689921D01*
X172856727Y-100720337D01*
X172641440Y-100809512D01*
X172554900Y-100875916D01*
X172468361Y-100809512D01*
X172253073Y-100720337D01*
X172022042Y-100689921D01*
X171418201Y-100689921D01*
X171488264Y-100547869D01*
X170180000Y-99239605D01*
X170165858Y-99253748D01*
X169986253Y-99074143D01*
X170000395Y-99060000D01*
X169986253Y-99045858D01*
X170165858Y-98866253D01*
X170180000Y-98880395D01*
X170194143Y-98866253D01*
X170373748Y-99045858D01*
X170359605Y-99060000D01*
X171667869Y-100368264D01*
X171882954Y-100262179D01*
X171923904Y-100303129D01*
X172103128Y-100394449D01*
X172301800Y-100425915D01*
X174001800Y-100425915D01*
X174200472Y-100394449D01*
X174379696Y-100303129D01*
X174521929Y-100160896D01*
X174613249Y-99981672D01*
X174644715Y-99783000D01*
X174644715Y-98083000D01*
X174613249Y-97884328D01*
X174577102Y-97813386D01*
X174736353Y-97691189D01*
X174771969Y-97644773D01*
X177912579Y-94504164D01*
X178936439Y-94504164D01*
X178994438Y-94511800D01*
X179052437Y-94504164D01*
X179052439Y-94504164D01*
X179225469Y-94481384D01*
X179440756Y-94392209D01*
X179625627Y-94250353D01*
X179661243Y-94203937D01*
X180280603Y-93584578D01*
X180280606Y-93584574D01*
X181188478Y-92676703D01*
X181220304Y-92708529D01*
X181220304Y-92708529D01*
G37*
X181220304Y-92708529D02*
X181399528Y-92799849D01*
X181598200Y-92831315D01*
X182972590Y-92831315D01*
X182972591Y-93708818D01*
X182857108Y-93549869D01*
X182675131Y-93367892D01*
X182466926Y-93216623D01*
X182237622Y-93099787D01*
X181992863Y-93020260D01*
X181738677Y-92980001D01*
X181481323Y-92980001D01*
X181227137Y-93020260D01*
X180982378Y-93099787D01*
X180753074Y-93216623D01*
X180544869Y-93367892D01*
X180362892Y-93549869D01*
X180211623Y-93758074D01*
X180094787Y-93987378D01*
X180015260Y-94232137D01*
X179975001Y-94486323D01*
X179975001Y-94743677D01*
X179980827Y-94780462D01*
X177422805Y-97338485D01*
X175959400Y-97338485D01*
X175760728Y-97369951D01*
X175581504Y-97461271D01*
X175439271Y-97603504D01*
X175347951Y-97782728D01*
X175316485Y-97981400D01*
X175316485Y-99681400D01*
X175347951Y-99880072D01*
X175439271Y-100059296D01*
X175581504Y-100201529D01*
X175760728Y-100292849D01*
X175959400Y-100324315D01*
X177659400Y-100324315D01*
X177858072Y-100292849D01*
X178037296Y-100201529D01*
X178179529Y-100059296D01*
X178270849Y-99880072D01*
X178302315Y-99681400D01*
X178302315Y-99386395D01*
X181444538Y-96244173D01*
X181481323Y-96249999D01*
X181738677Y-96249999D01*
X181958589Y-96215168D01*
X182025222Y-96281801D01*
X182025226Y-96281804D01*
X182175002Y-96431580D01*
X182175002Y-98159440D01*
X181992863Y-98100260D01*
X181738677Y-98060001D01*
X181481323Y-98060001D01*
X181227137Y-98100260D01*
X180982378Y-98179787D01*
X180753074Y-98296623D01*
X180544869Y-98447892D01*
X180362892Y-98629869D01*
X180211623Y-98838074D01*
X180094787Y-99067378D01*
X180015260Y-99312137D01*
X179975001Y-99566323D01*
X179975001Y-99823677D01*
X180009832Y-100043590D01*
X178895522Y-101157900D01*
X175115460Y-101157900D01*
X175106488Y-101136240D01*
X174964632Y-100951368D01*
X174779761Y-100809512D01*
X174564473Y-100720337D01*
X174333442Y-100689921D01*
X173087758Y-100689921D01*
X172856727Y-100720337D01*
X172641440Y-100809512D01*
X172554900Y-100875916D01*
X172468361Y-100809512D01*
X172253073Y-100720337D01*
X172022042Y-100689921D01*
X171418201Y-100689921D01*
X171488264Y-100547869D01*
X170180000Y-99239605D01*
X170165858Y-99253748D01*
X169986253Y-99074143D01*
X170000395Y-99060000D01*
X169986253Y-99045858D01*
X170165858Y-98866253D01*
X170180000Y-98880395D01*
X170194143Y-98866253D01*
X170373748Y-99045858D01*
X170359605Y-99060000D01*
X171667869Y-100368264D01*
X171882954Y-100262179D01*
X171923904Y-100303129D01*
X172103128Y-100394449D01*
X172301800Y-100425915D01*
X174001800Y-100425915D01*
X174200472Y-100394449D01*
X174379696Y-100303129D01*
X174521929Y-100160896D01*
X174613249Y-99981672D01*
X174644715Y-99783000D01*
X174644715Y-98083000D01*
X174613249Y-97884328D01*
X174577102Y-97813386D01*
X174736353Y-97691189D01*
X174771969Y-97644773D01*
X177912579Y-94504164D01*
X178936439Y-94504164D01*
X178994438Y-94511800D01*
X179052437Y-94504164D01*
X179052439Y-94504164D01*
X179225469Y-94481384D01*
X179440756Y-94392209D01*
X179625627Y-94250353D01*
X179661243Y-94203937D01*
X180280603Y-93584578D01*
X180280606Y-93584574D01*
X181188478Y-92676703D01*
X181220304Y-92708529D01*
M02*
