G04 #@! TF.GenerationSoftware,KiCad,Pcbnew,6.0.0-unknown-cbea514~86~ubuntu18.04.1*
G04 #@! TF.CreationDate,2019-06-03T21:41:18+01:00*
G04 #@! TF.ProjectId,keyb,6b657962-2e6b-4696-9361-645f70636258,rev?*
G04 #@! TF.SameCoordinates,Original*
G04 #@! TF.FileFunction,Legend,Bot*
G04 #@! TF.FilePolarity,Positive*
%FSLAX46Y46*%
G04 Gerber Fmt 4.6, Leading zero omitted, Abs format (unit mm)*
G04 Created by KiCad (PCBNEW 6.0.0-unknown-cbea514~86~ubuntu18.04.1) date 2019-06-03 21:41:18*
%MOMM*%
%LPD*%
G04 APERTURE LIST*
%ADD10C,0.120000*%
%ADD11C,0.150000*%
G04 APERTURE END LIST*
D10*
X108815800Y-98859800D02*
X108815800Y-98529800D01*
X108815800Y-98529800D02*
X103375800Y-98529800D01*
X103375800Y-98529800D02*
X103375800Y-98859800D01*
X108815800Y-101139800D02*
X108815800Y-101469800D01*
X108815800Y-101469800D02*
X103375800Y-101469800D01*
X103375800Y-101469800D02*
X103375800Y-101139800D01*
X107915800Y-98529800D02*
X107915800Y-101469800D01*
X107795800Y-98529800D02*
X107795800Y-101469800D01*
X108035800Y-98529800D02*
X108035800Y-101469800D01*
X109340400Y-83211800D02*
X109340400Y-82881800D01*
X109340400Y-82881800D02*
X102800400Y-82881800D01*
X102800400Y-82881800D02*
X102800400Y-83211800D01*
X109340400Y-85291800D02*
X109340400Y-85621800D01*
X109340400Y-85621800D02*
X102800400Y-85621800D01*
X102800400Y-85621800D02*
X102800400Y-85291800D01*
X51107000Y-98936000D02*
X51107000Y-98606000D01*
X51107000Y-98606000D02*
X45667000Y-98606000D01*
X45667000Y-98606000D02*
X45667000Y-98936000D01*
X51107000Y-101216000D02*
X51107000Y-101546000D01*
X51107000Y-101546000D02*
X45667000Y-101546000D01*
X45667000Y-101546000D02*
X45667000Y-101216000D01*
X50207000Y-98606000D02*
X50207000Y-101546000D01*
X50087000Y-98606000D02*
X50087000Y-101546000D01*
X50327000Y-98606000D02*
X50327000Y-101546000D01*
X70360200Y-98834400D02*
X70360200Y-98504400D01*
X70360200Y-98504400D02*
X64920200Y-98504400D01*
X64920200Y-98504400D02*
X64920200Y-98834400D01*
X70360200Y-101114400D02*
X70360200Y-101444400D01*
X70360200Y-101444400D02*
X64920200Y-101444400D01*
X64920200Y-101444400D02*
X64920200Y-101114400D01*
X69460200Y-98504400D02*
X69460200Y-101444400D01*
X69340200Y-98504400D02*
X69340200Y-101444400D01*
X69580200Y-98504400D02*
X69580200Y-101444400D01*
X89588000Y-98859800D02*
X89588000Y-98529800D01*
X89588000Y-98529800D02*
X84148000Y-98529800D01*
X84148000Y-98529800D02*
X84148000Y-98859800D01*
X89588000Y-101139800D02*
X89588000Y-101469800D01*
X89588000Y-101469800D02*
X84148000Y-101469800D01*
X84148000Y-101469800D02*
X84148000Y-101139800D01*
X88688000Y-98529800D02*
X88688000Y-101469800D01*
X88568000Y-98529800D02*
X88568000Y-101469800D01*
X88808000Y-98529800D02*
X88808000Y-101469800D01*
X31879200Y-98834400D02*
X31879200Y-98504400D01*
X31879200Y-98504400D02*
X26439200Y-98504400D01*
X26439200Y-98504400D02*
X26439200Y-98834400D01*
X31879200Y-101114400D02*
X31879200Y-101444400D01*
X31879200Y-101444400D02*
X26439200Y-101444400D01*
X26439200Y-101444400D02*
X26439200Y-101114400D01*
X30979200Y-98504400D02*
X30979200Y-101444400D01*
X30859200Y-98504400D02*
X30859200Y-101444400D01*
X31099200Y-98504400D02*
X31099200Y-101444400D01*
X70910200Y-83288000D02*
X70910200Y-82958000D01*
X70910200Y-82958000D02*
X64370200Y-82958000D01*
X64370200Y-82958000D02*
X64370200Y-83288000D01*
X70910200Y-85368000D02*
X70910200Y-85698000D01*
X70910200Y-85698000D02*
X64370200Y-85698000D01*
X64370200Y-85698000D02*
X64370200Y-85368000D01*
X90138000Y-83288000D02*
X90138000Y-82958000D01*
X90138000Y-82958000D02*
X83598000Y-82958000D01*
X83598000Y-82958000D02*
X83598000Y-83288000D01*
X90138000Y-85368000D02*
X90138000Y-85698000D01*
X90138000Y-85698000D02*
X83598000Y-85698000D01*
X83598000Y-85698000D02*
X83598000Y-85368000D01*
X51631600Y-83288000D02*
X51631600Y-82958000D01*
X51631600Y-82958000D02*
X45091600Y-82958000D01*
X45091600Y-82958000D02*
X45091600Y-83288000D01*
X51631600Y-85368000D02*
X51631600Y-85698000D01*
X51631600Y-85698000D02*
X45091600Y-85698000D01*
X45091600Y-85698000D02*
X45091600Y-85368000D01*
X32403800Y-83288000D02*
X32403800Y-82958000D01*
X32403800Y-82958000D02*
X25863800Y-82958000D01*
X25863800Y-82958000D02*
X25863800Y-83288000D01*
X32403800Y-85368000D02*
X32403800Y-85698000D01*
X32403800Y-85698000D02*
X25863800Y-85698000D01*
X25863800Y-85698000D02*
X25863800Y-85368000D01*
D11*
X106833895Y-97982180D02*
X106833895Y-96982180D01*
X106595800Y-96982180D01*
X106452942Y-97029800D01*
X106357704Y-97125038D01*
X106310085Y-97220276D01*
X106262466Y-97410752D01*
X106262466Y-97553609D01*
X106310085Y-97744085D01*
X106357704Y-97839323D01*
X106452942Y-97934561D01*
X106595800Y-97982180D01*
X106833895Y-97982180D01*
X105357704Y-96982180D02*
X105833895Y-96982180D01*
X105881514Y-97458371D01*
X105833895Y-97410752D01*
X105738657Y-97363133D01*
X105500561Y-97363133D01*
X105405323Y-97410752D01*
X105357704Y-97458371D01*
X105310085Y-97553609D01*
X105310085Y-97791704D01*
X105357704Y-97886942D01*
X105405323Y-97934561D01*
X105500561Y-97982180D01*
X105738657Y-97982180D01*
X105833895Y-97934561D01*
X105881514Y-97886942D01*
X110167704Y-98552180D02*
X110167704Y-97552180D01*
X109596276Y-98552180D02*
X110024847Y-97980752D01*
X109596276Y-97552180D02*
X110167704Y-98123609D01*
X106237066Y-82334180D02*
X106570400Y-81857990D01*
X106808495Y-82334180D02*
X106808495Y-81334180D01*
X106427542Y-81334180D01*
X106332304Y-81381800D01*
X106284685Y-81429419D01*
X106237066Y-81524657D01*
X106237066Y-81667514D01*
X106284685Y-81762752D01*
X106332304Y-81810371D01*
X106427542Y-81857990D01*
X106808495Y-81857990D01*
X105332304Y-81334180D02*
X105808495Y-81334180D01*
X105856114Y-81810371D01*
X105808495Y-81762752D01*
X105713257Y-81715133D01*
X105475161Y-81715133D01*
X105379923Y-81762752D01*
X105332304Y-81810371D01*
X105284685Y-81905609D01*
X105284685Y-82143704D01*
X105332304Y-82238942D01*
X105379923Y-82286561D01*
X105475161Y-82334180D01*
X105713257Y-82334180D01*
X105808495Y-82286561D01*
X105856114Y-82238942D01*
X49125095Y-98058380D02*
X49125095Y-97058380D01*
X48887000Y-97058380D01*
X48744142Y-97106000D01*
X48648904Y-97201238D01*
X48601285Y-97296476D01*
X48553666Y-97486952D01*
X48553666Y-97629809D01*
X48601285Y-97820285D01*
X48648904Y-97915523D01*
X48744142Y-98010761D01*
X48887000Y-98058380D01*
X49125095Y-98058380D01*
X48172714Y-97153619D02*
X48125095Y-97106000D01*
X48029857Y-97058380D01*
X47791761Y-97058380D01*
X47696523Y-97106000D01*
X47648904Y-97153619D01*
X47601285Y-97248857D01*
X47601285Y-97344095D01*
X47648904Y-97486952D01*
X48220333Y-98058380D01*
X47601285Y-98058380D01*
X52458904Y-98628380D02*
X52458904Y-97628380D01*
X51887476Y-98628380D02*
X52316047Y-98056952D01*
X51887476Y-97628380D02*
X52458904Y-98199809D01*
X68378295Y-97956780D02*
X68378295Y-96956780D01*
X68140200Y-96956780D01*
X67997342Y-97004400D01*
X67902104Y-97099638D01*
X67854485Y-97194876D01*
X67806866Y-97385352D01*
X67806866Y-97528209D01*
X67854485Y-97718685D01*
X67902104Y-97813923D01*
X67997342Y-97909161D01*
X68140200Y-97956780D01*
X68378295Y-97956780D01*
X67473533Y-96956780D02*
X66854485Y-96956780D01*
X67187819Y-97337733D01*
X67044961Y-97337733D01*
X66949723Y-97385352D01*
X66902104Y-97432971D01*
X66854485Y-97528209D01*
X66854485Y-97766304D01*
X66902104Y-97861542D01*
X66949723Y-97909161D01*
X67044961Y-97956780D01*
X67330676Y-97956780D01*
X67425914Y-97909161D01*
X67473533Y-97861542D01*
X71712104Y-98526780D02*
X71712104Y-97526780D01*
X71140676Y-98526780D02*
X71569247Y-97955352D01*
X71140676Y-97526780D02*
X71712104Y-98098209D01*
X87606095Y-97982180D02*
X87606095Y-96982180D01*
X87368000Y-96982180D01*
X87225142Y-97029800D01*
X87129904Y-97125038D01*
X87082285Y-97220276D01*
X87034666Y-97410752D01*
X87034666Y-97553609D01*
X87082285Y-97744085D01*
X87129904Y-97839323D01*
X87225142Y-97934561D01*
X87368000Y-97982180D01*
X87606095Y-97982180D01*
X86177523Y-97315514D02*
X86177523Y-97982180D01*
X86415619Y-96934561D02*
X86653714Y-97648847D01*
X86034666Y-97648847D01*
X90939904Y-98552180D02*
X90939904Y-97552180D01*
X90368476Y-98552180D02*
X90797047Y-97980752D01*
X90368476Y-97552180D02*
X90939904Y-98123609D01*
X29897295Y-97956780D02*
X29897295Y-96956780D01*
X29659200Y-96956780D01*
X29516342Y-97004400D01*
X29421104Y-97099638D01*
X29373485Y-97194876D01*
X29325866Y-97385352D01*
X29325866Y-97528209D01*
X29373485Y-97718685D01*
X29421104Y-97813923D01*
X29516342Y-97909161D01*
X29659200Y-97956780D01*
X29897295Y-97956780D01*
X28373485Y-97956780D02*
X28944914Y-97956780D01*
X28659200Y-97956780D02*
X28659200Y-96956780D01*
X28754438Y-97099638D01*
X28849676Y-97194876D01*
X28944914Y-97242495D01*
X33231104Y-98526780D02*
X33231104Y-97526780D01*
X32659676Y-98526780D02*
X33088247Y-97955352D01*
X32659676Y-97526780D02*
X33231104Y-98098209D01*
X67806866Y-82410380D02*
X68140200Y-81934190D01*
X68378295Y-82410380D02*
X68378295Y-81410380D01*
X67997342Y-81410380D01*
X67902104Y-81458000D01*
X67854485Y-81505619D01*
X67806866Y-81600857D01*
X67806866Y-81743714D01*
X67854485Y-81838952D01*
X67902104Y-81886571D01*
X67997342Y-81934190D01*
X68378295Y-81934190D01*
X67473533Y-81410380D02*
X66854485Y-81410380D01*
X67187819Y-81791333D01*
X67044961Y-81791333D01*
X66949723Y-81838952D01*
X66902104Y-81886571D01*
X66854485Y-81981809D01*
X66854485Y-82219904D01*
X66902104Y-82315142D01*
X66949723Y-82362761D01*
X67044961Y-82410380D01*
X67330676Y-82410380D01*
X67425914Y-82362761D01*
X67473533Y-82315142D01*
X87034666Y-82410380D02*
X87368000Y-81934190D01*
X87606095Y-82410380D02*
X87606095Y-81410380D01*
X87225142Y-81410380D01*
X87129904Y-81458000D01*
X87082285Y-81505619D01*
X87034666Y-81600857D01*
X87034666Y-81743714D01*
X87082285Y-81838952D01*
X87129904Y-81886571D01*
X87225142Y-81934190D01*
X87606095Y-81934190D01*
X86177523Y-81743714D02*
X86177523Y-82410380D01*
X86415619Y-81362761D02*
X86653714Y-82077047D01*
X86034666Y-82077047D01*
X48528266Y-82410380D02*
X48861600Y-81934190D01*
X49099695Y-82410380D02*
X49099695Y-81410380D01*
X48718742Y-81410380D01*
X48623504Y-81458000D01*
X48575885Y-81505619D01*
X48528266Y-81600857D01*
X48528266Y-81743714D01*
X48575885Y-81838952D01*
X48623504Y-81886571D01*
X48718742Y-81934190D01*
X49099695Y-81934190D01*
X48147314Y-81505619D02*
X48099695Y-81458000D01*
X48004457Y-81410380D01*
X47766361Y-81410380D01*
X47671123Y-81458000D01*
X47623504Y-81505619D01*
X47575885Y-81600857D01*
X47575885Y-81696095D01*
X47623504Y-81838952D01*
X48194933Y-82410380D01*
X47575885Y-82410380D01*
X29300466Y-82410380D02*
X29633800Y-81934190D01*
X29871895Y-82410380D02*
X29871895Y-81410380D01*
X29490942Y-81410380D01*
X29395704Y-81458000D01*
X29348085Y-81505619D01*
X29300466Y-81600857D01*
X29300466Y-81743714D01*
X29348085Y-81838952D01*
X29395704Y-81886571D01*
X29490942Y-81934190D01*
X29871895Y-81934190D01*
X28348085Y-82410380D02*
X28919514Y-82410380D01*
X28633800Y-82410380D02*
X28633800Y-81410380D01*
X28729038Y-81553238D01*
X28824276Y-81648476D01*
X28919514Y-81696095D01*
M02*
