M48
; DRILL file {KiCad 6.0.0-unknown-cbea514~86~ubuntu18.04.1} date Mon 03 Jun 2019 09:41:26 PM IST
; FORMAT={-:-/ absolute / inch / decimal}
; #@! TF.CreationDate,2019-06-03T21:41:26+01:00
; #@! TF.GenerationSoftware,Kicad,Pcbnew,6.0.0-unknown-cbea514~86~ubuntu18.04.1
; #@! TF.FileFunction,Plated,1,2,PTH
FMAT,2
INCH
T1C0.0157
T2C0.0492
T3C0.0579
%
G90
G05
T1
X0.943Y-3.849
X1.021Y-3.685
X1.364Y-3.827
X1.704Y-3.856
X1.762Y-3.711
X1.918Y-3.845
X2.117Y-3.841
X2.462Y-3.86
X2.547Y-3.712
X2.699Y-3.856
X3.217Y-3.856
X3.286Y-3.711
X3.458Y-3.863
X3.643Y-3.839
X3.969Y-3.844
X4.034Y-3.714
X4.201Y-3.859
X4.378Y-3.838
T2
X4.327Y-3.937
X1.417Y-3.944
X1.604Y-3.641
X1.454Y-3.482
X1.755Y-3.94
X2.055Y-3.94
X3.27Y-3.32
X4.027Y-3.937
X4.446Y-3.945
X4.479Y-3.768
X2.359Y-3.497
X3.689Y-3.945
X3.686Y-3.31
X2.967Y-3.787
X3.57Y-3.32
X2.169Y-3.31
X3.724Y-3.629
X3.872Y-3.485
X3.115Y-3.787
X4.026Y-3.317
X4.326Y-3.317
X0.845Y-3.643
X2.359Y-3.64
X3.115Y-3.632
X2.211Y-3.782
X3.27Y-3.937
X3.57Y-3.937
X2.211Y-3.64
X3.873Y-3.771
X0.998Y-3.936
X1.298Y-3.936
X0.845Y-3.785
X1.855Y-3.43
X1.955Y-3.43
X3.873Y-3.628
X0.997Y-3.32
X1.297Y-3.32
X1.604Y-3.783
X3.724Y-3.771
X2.613Y-3.43
X2.713Y-3.43
X4.228Y-3.43
X2.97Y-3.63
X2.211Y-3.498
X2.928Y-3.31
X4.479Y-3.48
X2.174Y-3.948
X3.115Y-3.489
X2.932Y-3.944
X1.599Y-3.482
X4.128Y-3.43
X2.359Y-3.783
X3.37Y-3.43
X1.454Y-3.789
X4.442Y-3.307
X1.754Y-3.32
X2.054Y-3.32
X4.479Y-3.625
X1.454Y-3.641
X3.47Y-3.43
X1.413Y-3.31
X3.724Y-3.487
X2.97Y-3.487
X1.097Y-3.43
X1.197Y-3.43
X2.513Y-3.936
X2.813Y-3.936
X0.843Y-3.482
X2.513Y-3.32
X2.813Y-3.32
T3
X1.805Y-3.83
X2.055Y-3.73
X2.563Y-3.83
X2.813Y-3.73
X4.078Y-3.83
X4.328Y-3.73
X3.32Y-3.83
X3.57Y-3.73
X1.047Y-3.83
X1.297Y-3.73
T0
M30
