G04 #@! TF.GenerationSoftware,KiCad,Pcbnew,6.0.0-unknown-cbea514~86~ubuntu18.04.1*
G04 #@! TF.CreationDate,2019-06-03T21:41:18+01:00*
G04 #@! TF.ProjectId,keyb,6b657962-2e6b-4696-9361-645f70636258,rev?*
G04 #@! TF.SameCoordinates,Original*
G04 #@! TF.FileFunction,Copper,L2,Bot*
G04 #@! TF.FilePolarity,Positive*
%FSLAX46Y46*%
G04 Gerber Fmt 4.6, Leading zero omitted, Abs format (unit mm)*
G04 Created by KiCad (PCBNEW 6.0.0-unknown-cbea514~86~ubuntu18.04.1) date 2019-06-03 21:41:18*
%MOMM*%
%LPD*%
G04 APERTURE LIST*
%ADD10R,1.700000X1.700000*%
%ADD11O,1.800000X1.800000*%
%ADD12R,1.800000X1.800000*%
%ADD13R,1.905000X1.905000*%
%ADD14C,1.905000*%
%ADD15C,2.250000*%
%ADD16O,1.600000X1.600000*%
%ADD17C,1.600000*%
%ADD18C,0.800000*%
%ADD19C,0.800000*%
%ADD20C,0.500000*%
%ADD21C,0.254000*%
G04 APERTURE END LIST*
D10*
X112826800Y-83997800D03*
X98374200Y-92151200D03*
X113766600Y-95707200D03*
X113766600Y-92075000D03*
X113766600Y-88392000D03*
X98348800Y-88519000D03*
X98374200Y-95783400D03*
X112928400Y-100203000D03*
D11*
X102285800Y-99999800D03*
D12*
X109905800Y-99999800D03*
D13*
X104851200Y-87122000D03*
D14*
X107391200Y-87122000D03*
D15*
X109931200Y-94742000D03*
X103581200Y-97282000D03*
D16*
X102260400Y-84251800D03*
D17*
X109880400Y-84251800D03*
D13*
X27863800Y-87122000D03*
D14*
X30403800Y-87122000D03*
D15*
X32943800Y-94742000D03*
X26593800Y-97282000D03*
D10*
X55092600Y-84074000D03*
X56159400Y-88849200D03*
X56159400Y-96062800D03*
X75361800Y-96189800D03*
X74472800Y-100177600D03*
X74371200Y-84074000D03*
X59918600Y-96088200D03*
X59918600Y-92456000D03*
X56159400Y-92456000D03*
X59918600Y-88823800D03*
X40741600Y-92481400D03*
X75438000Y-92202000D03*
X75438000Y-88569800D03*
X94589600Y-92176600D03*
X94589600Y-95783400D03*
X40741600Y-96088200D03*
X21463000Y-96139000D03*
X35890200Y-84074000D03*
X21412200Y-88442800D03*
X21463000Y-92532200D03*
X35991800Y-100177600D03*
X36931600Y-96240600D03*
X36931600Y-88442800D03*
X79121000Y-92252800D03*
X93700600Y-100203000D03*
X79121000Y-96189800D03*
X79121000Y-88620600D03*
X94589600Y-88569800D03*
X93624400Y-84074000D03*
X40614600Y-88442800D03*
X55219600Y-100279200D03*
X36931600Y-92481400D03*
D11*
X44577000Y-100076000D03*
D12*
X52197000Y-100076000D03*
D11*
X63830200Y-99974400D03*
D12*
X71450200Y-99974400D03*
D11*
X83058000Y-99999800D03*
D12*
X90678000Y-99999800D03*
D11*
X25349200Y-99974400D03*
D12*
X32969200Y-99974400D03*
D13*
X66370200Y-87122000D03*
D14*
X68910200Y-87122000D03*
D15*
X71450200Y-94742000D03*
X65100200Y-97282000D03*
D13*
X85598000Y-87122000D03*
D14*
X88138000Y-87122000D03*
D15*
X90678000Y-94742000D03*
X84328000Y-97282000D03*
D13*
X47117000Y-87122000D03*
D14*
X49657000Y-87122000D03*
D15*
X52197000Y-94742000D03*
X45847000Y-97282000D03*
D16*
X63830200Y-84328000D03*
D17*
X71450200Y-84328000D03*
D16*
X83058000Y-84328000D03*
D17*
X90678000Y-84328000D03*
D16*
X44551600Y-84328000D03*
D17*
X52171600Y-84328000D03*
D16*
X25323800Y-84328000D03*
D17*
X32943800Y-84328000D03*
D18*
X111201200Y-97485200D03*
X106705400Y-98018600D03*
X100812600Y-97637600D03*
X102463600Y-94335600D03*
X83464400Y-94259400D03*
X64693800Y-94284800D03*
X44754800Y-94259400D03*
X25933400Y-93599000D03*
X34645600Y-97205800D03*
X53771800Y-97561400D03*
X92532200Y-97510600D03*
X87833200Y-98120200D03*
X81711800Y-97942400D03*
X68554600Y-97942400D03*
X62534800Y-98044000D03*
X48717200Y-97663000D03*
X43281600Y-97942400D03*
X23952200Y-97764600D03*
D19*
X109905800Y-99999800D02*
X109905800Y-98299800D01*
X109726199Y-88748401D02*
X112826800Y-85647800D01*
X112826800Y-85647800D02*
X112826800Y-83997800D01*
X109905800Y-98299800D02*
X108206199Y-96600199D01*
X108206199Y-96600199D02*
X108206199Y-93955975D01*
X108206199Y-93955975D02*
X109726199Y-92435975D01*
X109726199Y-92435975D02*
X109726199Y-88748401D01*
X112928400Y-100203000D02*
X110109000Y-100203000D01*
X110109000Y-100203000D02*
X109905800Y-99999800D01*
X107391200Y-87122000D02*
X107391200Y-86741000D01*
X107391200Y-86741000D02*
X109880400Y-84251800D01*
X98374200Y-92151200D02*
X102260400Y-88265000D01*
X102260400Y-88265000D02*
X102260400Y-84251800D01*
X83058000Y-88315800D02*
X79121000Y-92252800D01*
X83058000Y-84328000D02*
X83058000Y-88315800D01*
X83058000Y-87567002D02*
X83058000Y-84328000D01*
X63830200Y-84328000D02*
X63030201Y-85127999D01*
X63030201Y-85127999D02*
X63030201Y-89344399D01*
X63030201Y-89344399D02*
X59918600Y-92456000D01*
X44551600Y-85459370D02*
X44551600Y-84328000D01*
X44551600Y-87541602D02*
X44551600Y-85459370D01*
X40741600Y-92481400D02*
X40844598Y-92481400D01*
X40844598Y-92481400D02*
X44551600Y-88774398D01*
X44551600Y-88774398D02*
X44551600Y-85459370D01*
X25323800Y-87567002D02*
X25323800Y-84328000D01*
X25323800Y-84328000D02*
X25323800Y-88671400D01*
X25323800Y-88671400D02*
X21463000Y-92532200D01*
X71450200Y-84328000D02*
X71450200Y-84582000D01*
X71450200Y-84582000D02*
X68910200Y-87122000D01*
X90678000Y-84328000D02*
X90678000Y-84582000D01*
X90678000Y-84582000D02*
X88138000Y-87122000D01*
X49657000Y-87122000D02*
X49657000Y-86842600D01*
X49657000Y-86842600D02*
X52171600Y-84328000D01*
X32943800Y-84328000D02*
X32943800Y-84582000D01*
X32943800Y-84582000D02*
X30403800Y-87122000D01*
X52197000Y-100076000D02*
X55016400Y-100076000D01*
X55016400Y-100076000D02*
X55219600Y-100279200D01*
X55092600Y-84074000D02*
X55092600Y-87135998D01*
X50471999Y-96650999D02*
X52197000Y-98376000D01*
X55092600Y-87135998D02*
X51991999Y-90236599D01*
X51991999Y-90236599D02*
X51991999Y-92393999D01*
X51991999Y-92393999D02*
X50471999Y-93913999D01*
X50471999Y-93913999D02*
X50471999Y-96650999D01*
X52197000Y-98376000D02*
X52197000Y-100076000D01*
D20*
X55092600Y-84074000D02*
X55092600Y-85424000D01*
X55092600Y-85424000D02*
X54792001Y-85724599D01*
D19*
X74472800Y-100177600D02*
X71653400Y-100177600D01*
X71653400Y-100177600D02*
X71450200Y-99974400D01*
X74371200Y-84074000D02*
X74371200Y-85724000D01*
X74371200Y-85724000D02*
X71245199Y-88850001D01*
X71245199Y-88850001D02*
X71245199Y-92393999D01*
X71245199Y-92393999D02*
X69725199Y-93913999D01*
X69725199Y-93913999D02*
X69725199Y-96549399D01*
X69725199Y-96549399D02*
X71450200Y-98274400D01*
X71450200Y-98274400D02*
X71450200Y-99974400D01*
X93624400Y-85724000D02*
X93624400Y-84074000D01*
X90472999Y-92435975D02*
X90472999Y-88875401D01*
X90678000Y-97295002D02*
X88952999Y-95570001D01*
X90678000Y-99999800D02*
X90678000Y-97295002D01*
X88952999Y-95570001D02*
X88952999Y-93913999D01*
X88952999Y-93955975D02*
X90472999Y-92435975D01*
X90472999Y-92393999D02*
X90472999Y-88875401D01*
X88952999Y-93913999D02*
X90472999Y-92393999D01*
X92050600Y-100203000D02*
X93700600Y-100203000D01*
X93700600Y-100203000D02*
X90881200Y-100203000D01*
X90472999Y-88875401D02*
X93624400Y-85724000D01*
X90881200Y-100203000D02*
X90678000Y-99999800D01*
X32969200Y-99974400D02*
X32969200Y-97320402D01*
X32969200Y-97320402D02*
X31218799Y-95570001D01*
X31218799Y-95570001D02*
X31218799Y-93955975D01*
X31218799Y-93955975D02*
X32738799Y-92435975D01*
X32738799Y-92435975D02*
X32738799Y-88875401D01*
X32738799Y-88875401D02*
X35890200Y-85724000D01*
X35890200Y-85724000D02*
X35890200Y-84074000D01*
X32969200Y-99974400D02*
X35941000Y-99974400D01*
X35941000Y-99974400D02*
X35991800Y-99923600D01*
X32738799Y-88875401D02*
X32738799Y-92393999D01*
X32738799Y-92393999D02*
X31218799Y-93913999D01*
X34341800Y-99923600D02*
X35991800Y-99923600D01*
D21*
G36*
X31754286Y-83516569D02*
G01*
X31637731Y-83721743D01*
X31556251Y-83943199D01*
X31512035Y-84174988D01*
X31506270Y-84410887D01*
X31524129Y-84537961D01*
X30527589Y-85534501D01*
X30278861Y-85534501D01*
X30032060Y-85573590D01*
X29794412Y-85650807D01*
X29571769Y-85764249D01*
X29389657Y-85896561D01*
X29356710Y-85826546D01*
X29254442Y-85702926D01*
X29124645Y-85608623D01*
X28975473Y-85549561D01*
X28816300Y-85529453D01*
X28149550Y-85534500D01*
X27990800Y-85693250D01*
X27990800Y-86995000D01*
X28010800Y-86995000D01*
X28010800Y-87249000D01*
X27990800Y-87249000D01*
X27990800Y-88550750D01*
X28149550Y-88709500D01*
X28816300Y-88714547D01*
X28975473Y-88694439D01*
X29124645Y-88635377D01*
X29254442Y-88541074D01*
X29356710Y-88417454D01*
X29389657Y-88347439D01*
X29571769Y-88479751D01*
X29794412Y-88593193D01*
X30032060Y-88670410D01*
X30278861Y-88709499D01*
X30528739Y-88709499D01*
X30775540Y-88670410D01*
X31013188Y-88593193D01*
X31235831Y-88479751D01*
X31437986Y-88332877D01*
X31614677Y-88156186D01*
X31761551Y-87954031D01*
X31874993Y-87731388D01*
X31952210Y-87493740D01*
X31991299Y-87246939D01*
X31991299Y-86998211D01*
X33262012Y-85727499D01*
X33357576Y-85707186D01*
X33577276Y-85621086D01*
X33779965Y-85500260D01*
X33960197Y-85347951D01*
X34113134Y-85168251D01*
X34234667Y-84965986D01*
X34321533Y-84746587D01*
X34371399Y-84515947D01*
X34378876Y-84210015D01*
X34340336Y-83977214D01*
X34264291Y-83753834D01*
X34152784Y-83545873D01*
X34031359Y-83388200D01*
X34400153Y-83388200D01*
X34400153Y-84924000D01*
X34431479Y-85121785D01*
X34499790Y-85266954D01*
X34602058Y-85390574D01*
X34693488Y-85457002D01*
X32046872Y-88103618D01*
X32011144Y-88132344D01*
X31974629Y-88175861D01*
X31970836Y-88179654D01*
X31942499Y-88214152D01*
X31880675Y-88287831D01*
X31878038Y-88292628D01*
X31874570Y-88296850D01*
X31829213Y-88381441D01*
X31782892Y-88465700D01*
X31781238Y-88470916D01*
X31778655Y-88475732D01*
X31750582Y-88567553D01*
X31721519Y-88659172D01*
X31720968Y-88664417D01*
X31719311Y-88669836D01*
X31698798Y-88871771D01*
X31703799Y-88924675D01*
X31703800Y-90646847D01*
X31703799Y-91642634D01*
X31645790Y-91409972D01*
X31530542Y-91109742D01*
X31379565Y-90825794D01*
X31195108Y-90562362D01*
X30979921Y-90323373D01*
X30737214Y-90112391D01*
X30470603Y-89932559D01*
X30184063Y-89786560D01*
X29881867Y-89676569D01*
X29568518Y-89604227D01*
X29248689Y-89570612D01*
X28927147Y-89576224D01*
X28608686Y-89620981D01*
X28298053Y-89704215D01*
X27999879Y-89824685D01*
X27718609Y-89980595D01*
X27458437Y-90169622D01*
X27223240Y-90388946D01*
X27016525Y-90635299D01*
X26841374Y-90905008D01*
X26700398Y-91194052D01*
X26595699Y-91498122D01*
X26528836Y-91812686D01*
X26500808Y-92133053D01*
X26512031Y-92454448D01*
X26562339Y-92772079D01*
X26650981Y-93081212D01*
X26776637Y-93377238D01*
X26937432Y-93655744D01*
X27130971Y-93912578D01*
X27354366Y-94143911D01*
X27604289Y-94346295D01*
X27877014Y-94516712D01*
X28168474Y-94652622D01*
X28474325Y-94751999D01*
X28790008Y-94813362D01*
X29110815Y-94835795D01*
X29431965Y-94818964D01*
X29748671Y-94763120D01*
X30056209Y-94669096D01*
X30183800Y-94612289D01*
X30183799Y-95513545D01*
X30178849Y-95559111D01*
X30183799Y-95615690D01*
X30183799Y-95621065D01*
X30188163Y-95665573D01*
X30196539Y-95761311D01*
X30198066Y-95766566D01*
X30198599Y-95772005D01*
X30226360Y-95863953D01*
X30253168Y-95956226D01*
X30255684Y-95961080D01*
X30257265Y-95966316D01*
X30302386Y-96051178D01*
X30346576Y-96136428D01*
X30349891Y-96140522D01*
X30352555Y-96145532D01*
X30480840Y-96302826D01*
X30521794Y-96336706D01*
X31934201Y-97749114D01*
X31934201Y-98455735D01*
X31871415Y-98465679D01*
X31726246Y-98533990D01*
X31602626Y-98636258D01*
X31508323Y-98766055D01*
X31449261Y-98915227D01*
X31429153Y-99074400D01*
X31429153Y-100874400D01*
X31451549Y-101015800D01*
X26480281Y-101015800D01*
X26613764Y-100853295D01*
X26738016Y-100639809D01*
X26826537Y-100409204D01*
X26877050Y-100167412D01*
X26888255Y-99920655D01*
X26859864Y-99675280D01*
X26792608Y-99437601D01*
X26688216Y-99213733D01*
X26572742Y-99043818D01*
X26784412Y-99036612D01*
X27041666Y-98989165D01*
X27289082Y-98904214D01*
X27521223Y-98783626D01*
X27732991Y-98630050D01*
X27919732Y-98446860D01*
X28077345Y-98238080D01*
X28202368Y-98008296D01*
X28292052Y-97762557D01*
X28344429Y-97506261D01*
X28353995Y-97152739D01*
X28315555Y-96893986D01*
X28239291Y-96643756D01*
X28126878Y-96407548D01*
X27980786Y-96190549D01*
X27804225Y-95997528D01*
X27601072Y-95832725D01*
X27375792Y-95699760D01*
X27133332Y-95601554D01*
X26879020Y-95540264D01*
X26618442Y-95517237D01*
X26357323Y-95532979D01*
X26101399Y-95587144D01*
X25856292Y-95678542D01*
X25627387Y-95805165D01*
X25419712Y-95964232D01*
X25237830Y-96152248D01*
X25085736Y-96365083D01*
X24966771Y-96598060D01*
X24883550Y-96846063D01*
X24837900Y-97103642D01*
X24830824Y-97365140D01*
X24862478Y-97624811D01*
X24932166Y-97876951D01*
X25038357Y-98116021D01*
X25178718Y-98336770D01*
X25269040Y-98440857D01*
X25102984Y-98454217D01*
X24863103Y-98513138D01*
X24635727Y-98609653D01*
X24426708Y-98741279D01*
X24241422Y-98904631D01*
X24084636Y-99095505D01*
X23960384Y-99308991D01*
X23871863Y-99539596D01*
X23821350Y-99781388D01*
X23810145Y-100028145D01*
X23838536Y-100273520D01*
X23905792Y-100511199D01*
X24010184Y-100735067D01*
X24149025Y-100939365D01*
X24221306Y-101015800D01*
X20320000Y-101015800D01*
X20320000Y-97555953D01*
X20453827Y-97608939D01*
X20613000Y-97629047D01*
X22313000Y-97629047D01*
X22510785Y-97597721D01*
X22655954Y-97529410D01*
X22779574Y-97427142D01*
X22873877Y-97297345D01*
X22932939Y-97148173D01*
X22953047Y-96989000D01*
X22953047Y-95289000D01*
X22921721Y-95091215D01*
X22853410Y-94946046D01*
X22751142Y-94822426D01*
X22621345Y-94728123D01*
X22472173Y-94669061D01*
X22313000Y-94648953D01*
X20613000Y-94648953D01*
X20415215Y-94680279D01*
X20320000Y-94725084D01*
X20320000Y-93949153D01*
X20453827Y-94002139D01*
X20613000Y-94022247D01*
X22313000Y-94022247D01*
X22510785Y-93990921D01*
X22655954Y-93922610D01*
X22779574Y-93820342D01*
X22873877Y-93690545D01*
X22932939Y-93541373D01*
X22953047Y-93382200D01*
X22953047Y-93237731D01*
X22990100Y-93280657D01*
X23176240Y-93436847D01*
X23384957Y-93561267D01*
X23610883Y-93650718D01*
X23848203Y-93702896D01*
X24090813Y-93716460D01*
X24332470Y-93691061D01*
X24566958Y-93627352D01*
X24788244Y-93526972D01*
X24990634Y-93392504D01*
X25168922Y-93227408D01*
X25318521Y-93035930D01*
X25435582Y-92822997D01*
X25517093Y-92594088D01*
X25560957Y-92355091D01*
X25563832Y-92080506D01*
X25524983Y-91840643D01*
X25448284Y-91610077D01*
X25335708Y-91394739D01*
X25190152Y-91200171D01*
X25015361Y-91031377D01*
X24815831Y-90892700D01*
X24647068Y-90811842D01*
X26015732Y-89443179D01*
X26051455Y-89414457D01*
X26087965Y-89370946D01*
X26091764Y-89367147D01*
X26120145Y-89332596D01*
X26181924Y-89258970D01*
X26184560Y-89254176D01*
X26188029Y-89249952D01*
X26233421Y-89165297D01*
X26279707Y-89081102D01*
X26281360Y-89075891D01*
X26283945Y-89071070D01*
X26312040Y-88979174D01*
X26341080Y-88887630D01*
X26341631Y-88882388D01*
X26343289Y-88876965D01*
X26363801Y-88675031D01*
X26358800Y-88622127D01*
X26358800Y-88391761D01*
X26370890Y-88417454D01*
X26473158Y-88541074D01*
X26602955Y-88635377D01*
X26752127Y-88694439D01*
X26911300Y-88714547D01*
X27578050Y-88709500D01*
X27736800Y-88550750D01*
X27736800Y-87249000D01*
X27716800Y-87249000D01*
X27716800Y-86995000D01*
X27736800Y-86995000D01*
X27736800Y-85693250D01*
X27578050Y-85534500D01*
X26911300Y-85529453D01*
X26752127Y-85549561D01*
X26602955Y-85608623D01*
X26473158Y-85702926D01*
X26370890Y-85826546D01*
X26358800Y-85852239D01*
X26358800Y-85326482D01*
X26376889Y-85310022D01*
X26523138Y-85124838D01*
X26637178Y-84918256D01*
X26715946Y-84695821D01*
X26757328Y-84463508D01*
X26760210Y-84227556D01*
X26724517Y-83994302D01*
X26651207Y-83770009D01*
X26542249Y-83560702D01*
X26412731Y-83388200D01*
X31858237Y-83388200D01*
X31754286Y-83516569D01*
X31754286Y-83516569D01*
G37*
X31754286Y-83516569D02*
X31637731Y-83721743D01*
X31556251Y-83943199D01*
X31512035Y-84174988D01*
X31506270Y-84410887D01*
X31524129Y-84537961D01*
X30527589Y-85534501D01*
X30278861Y-85534501D01*
X30032060Y-85573590D01*
X29794412Y-85650807D01*
X29571769Y-85764249D01*
X29389657Y-85896561D01*
X29356710Y-85826546D01*
X29254442Y-85702926D01*
X29124645Y-85608623D01*
X28975473Y-85549561D01*
X28816300Y-85529453D01*
X28149550Y-85534500D01*
X27990800Y-85693250D01*
X27990800Y-86995000D01*
X28010800Y-86995000D01*
X28010800Y-87249000D01*
X27990800Y-87249000D01*
X27990800Y-88550750D01*
X28149550Y-88709500D01*
X28816300Y-88714547D01*
X28975473Y-88694439D01*
X29124645Y-88635377D01*
X29254442Y-88541074D01*
X29356710Y-88417454D01*
X29389657Y-88347439D01*
X29571769Y-88479751D01*
X29794412Y-88593193D01*
X30032060Y-88670410D01*
X30278861Y-88709499D01*
X30528739Y-88709499D01*
X30775540Y-88670410D01*
X31013188Y-88593193D01*
X31235831Y-88479751D01*
X31437986Y-88332877D01*
X31614677Y-88156186D01*
X31761551Y-87954031D01*
X31874993Y-87731388D01*
X31952210Y-87493740D01*
X31991299Y-87246939D01*
X31991299Y-86998211D01*
X33262012Y-85727499D01*
X33357576Y-85707186D01*
X33577276Y-85621086D01*
X33779965Y-85500260D01*
X33960197Y-85347951D01*
X34113134Y-85168251D01*
X34234667Y-84965986D01*
X34321533Y-84746587D01*
X34371399Y-84515947D01*
X34378876Y-84210015D01*
X34340336Y-83977214D01*
X34264291Y-83753834D01*
X34152784Y-83545873D01*
X34031359Y-83388200D01*
X34400153Y-83388200D01*
X34400153Y-84924000D01*
X34431479Y-85121785D01*
X34499790Y-85266954D01*
X34602058Y-85390574D01*
X34693488Y-85457002D01*
X32046872Y-88103618D01*
X32011144Y-88132344D01*
X31974629Y-88175861D01*
X31970836Y-88179654D01*
X31942499Y-88214152D01*
X31880675Y-88287831D01*
X31878038Y-88292628D01*
X31874570Y-88296850D01*
X31829213Y-88381441D01*
X31782892Y-88465700D01*
X31781238Y-88470916D01*
X31778655Y-88475732D01*
X31750582Y-88567553D01*
X31721519Y-88659172D01*
X31720968Y-88664417D01*
X31719311Y-88669836D01*
X31698798Y-88871771D01*
X31703799Y-88924675D01*
X31703800Y-90646847D01*
X31703799Y-91642634D01*
X31645790Y-91409972D01*
X31530542Y-91109742D01*
X31379565Y-90825794D01*
X31195108Y-90562362D01*
X30979921Y-90323373D01*
X30737214Y-90112391D01*
X30470603Y-89932559D01*
X30184063Y-89786560D01*
X29881867Y-89676569D01*
X29568518Y-89604227D01*
X29248689Y-89570612D01*
X28927147Y-89576224D01*
X28608686Y-89620981D01*
X28298053Y-89704215D01*
X27999879Y-89824685D01*
X27718609Y-89980595D01*
X27458437Y-90169622D01*
X27223240Y-90388946D01*
X27016525Y-90635299D01*
X26841374Y-90905008D01*
X26700398Y-91194052D01*
X26595699Y-91498122D01*
X26528836Y-91812686D01*
X26500808Y-92133053D01*
X26512031Y-92454448D01*
X26562339Y-92772079D01*
X26650981Y-93081212D01*
X26776637Y-93377238D01*
X26937432Y-93655744D01*
X27130971Y-93912578D01*
X27354366Y-94143911D01*
X27604289Y-94346295D01*
X27877014Y-94516712D01*
X28168474Y-94652622D01*
X28474325Y-94751999D01*
X28790008Y-94813362D01*
X29110815Y-94835795D01*
X29431965Y-94818964D01*
X29748671Y-94763120D01*
X30056209Y-94669096D01*
X30183800Y-94612289D01*
X30183799Y-95513545D01*
X30178849Y-95559111D01*
X30183799Y-95615690D01*
X30183799Y-95621065D01*
X30188163Y-95665573D01*
X30196539Y-95761311D01*
X30198066Y-95766566D01*
X30198599Y-95772005D01*
X30226360Y-95863953D01*
X30253168Y-95956226D01*
X30255684Y-95961080D01*
X30257265Y-95966316D01*
X30302386Y-96051178D01*
X30346576Y-96136428D01*
X30349891Y-96140522D01*
X30352555Y-96145532D01*
X30480840Y-96302826D01*
X30521794Y-96336706D01*
X31934201Y-97749114D01*
X31934201Y-98455735D01*
X31871415Y-98465679D01*
X31726246Y-98533990D01*
X31602626Y-98636258D01*
X31508323Y-98766055D01*
X31449261Y-98915227D01*
X31429153Y-99074400D01*
X31429153Y-100874400D01*
X31451549Y-101015800D01*
X26480281Y-101015800D01*
X26613764Y-100853295D01*
X26738016Y-100639809D01*
X26826537Y-100409204D01*
X26877050Y-100167412D01*
X26888255Y-99920655D01*
X26859864Y-99675280D01*
X26792608Y-99437601D01*
X26688216Y-99213733D01*
X26572742Y-99043818D01*
X26784412Y-99036612D01*
X27041666Y-98989165D01*
X27289082Y-98904214D01*
X27521223Y-98783626D01*
X27732991Y-98630050D01*
X27919732Y-98446860D01*
X28077345Y-98238080D01*
X28202368Y-98008296D01*
X28292052Y-97762557D01*
X28344429Y-97506261D01*
X28353995Y-97152739D01*
X28315555Y-96893986D01*
X28239291Y-96643756D01*
X28126878Y-96407548D01*
X27980786Y-96190549D01*
X27804225Y-95997528D01*
X27601072Y-95832725D01*
X27375792Y-95699760D01*
X27133332Y-95601554D01*
X26879020Y-95540264D01*
X26618442Y-95517237D01*
X26357323Y-95532979D01*
X26101399Y-95587144D01*
X25856292Y-95678542D01*
X25627387Y-95805165D01*
X25419712Y-95964232D01*
X25237830Y-96152248D01*
X25085736Y-96365083D01*
X24966771Y-96598060D01*
X24883550Y-96846063D01*
X24837900Y-97103642D01*
X24830824Y-97365140D01*
X24862478Y-97624811D01*
X24932166Y-97876951D01*
X25038357Y-98116021D01*
X25178718Y-98336770D01*
X25269040Y-98440857D01*
X25102984Y-98454217D01*
X24863103Y-98513138D01*
X24635727Y-98609653D01*
X24426708Y-98741279D01*
X24241422Y-98904631D01*
X24084636Y-99095505D01*
X23960384Y-99308991D01*
X23871863Y-99539596D01*
X23821350Y-99781388D01*
X23810145Y-100028145D01*
X23838536Y-100273520D01*
X23905792Y-100511199D01*
X24010184Y-100735067D01*
X24149025Y-100939365D01*
X24221306Y-101015800D01*
X20320000Y-101015800D01*
X20320000Y-97555953D01*
X20453827Y-97608939D01*
X20613000Y-97629047D01*
X22313000Y-97629047D01*
X22510785Y-97597721D01*
X22655954Y-97529410D01*
X22779574Y-97427142D01*
X22873877Y-97297345D01*
X22932939Y-97148173D01*
X22953047Y-96989000D01*
X22953047Y-95289000D01*
X22921721Y-95091215D01*
X22853410Y-94946046D01*
X22751142Y-94822426D01*
X22621345Y-94728123D01*
X22472173Y-94669061D01*
X22313000Y-94648953D01*
X20613000Y-94648953D01*
X20415215Y-94680279D01*
X20320000Y-94725084D01*
X20320000Y-93949153D01*
X20453827Y-94002139D01*
X20613000Y-94022247D01*
X22313000Y-94022247D01*
X22510785Y-93990921D01*
X22655954Y-93922610D01*
X22779574Y-93820342D01*
X22873877Y-93690545D01*
X22932939Y-93541373D01*
X22953047Y-93382200D01*
X22953047Y-93237731D01*
X22990100Y-93280657D01*
X23176240Y-93436847D01*
X23384957Y-93561267D01*
X23610883Y-93650718D01*
X23848203Y-93702896D01*
X24090813Y-93716460D01*
X24332470Y-93691061D01*
X24566958Y-93627352D01*
X24788244Y-93526972D01*
X24990634Y-93392504D01*
X25168922Y-93227408D01*
X25318521Y-93035930D01*
X25435582Y-92822997D01*
X25517093Y-92594088D01*
X25560957Y-92355091D01*
X25563832Y-92080506D01*
X25524983Y-91840643D01*
X25448284Y-91610077D01*
X25335708Y-91394739D01*
X25190152Y-91200171D01*
X25015361Y-91031377D01*
X24815831Y-90892700D01*
X24647068Y-90811842D01*
X26015732Y-89443179D01*
X26051455Y-89414457D01*
X26087965Y-89370946D01*
X26091764Y-89367147D01*
X26120145Y-89332596D01*
X26181924Y-89258970D01*
X26184560Y-89254176D01*
X26188029Y-89249952D01*
X26233421Y-89165297D01*
X26279707Y-89081102D01*
X26281360Y-89075891D01*
X26283945Y-89071070D01*
X26312040Y-88979174D01*
X26341080Y-88887630D01*
X26341631Y-88882388D01*
X26343289Y-88876965D01*
X26363801Y-88675031D01*
X26358800Y-88622127D01*
X26358800Y-88391761D01*
X26370890Y-88417454D01*
X26473158Y-88541074D01*
X26602955Y-88635377D01*
X26752127Y-88694439D01*
X26911300Y-88714547D01*
X27578050Y-88709500D01*
X27736800Y-88550750D01*
X27736800Y-87249000D01*
X27716800Y-87249000D01*
X27716800Y-86995000D01*
X27736800Y-86995000D01*
X27736800Y-85693250D01*
X27578050Y-85534500D01*
X26911300Y-85529453D01*
X26752127Y-85549561D01*
X26602955Y-85608623D01*
X26473158Y-85702926D01*
X26370890Y-85826546D01*
X26358800Y-85852239D01*
X26358800Y-85326482D01*
X26376889Y-85310022D01*
X26523138Y-85124838D01*
X26637178Y-84918256D01*
X26715946Y-84695821D01*
X26757328Y-84463508D01*
X26760210Y-84227556D01*
X26724517Y-83994302D01*
X26651207Y-83770009D01*
X26542249Y-83560702D01*
X26412731Y-83388200D01*
X31858237Y-83388200D01*
X31754286Y-83516569D01*
G36*
X112376190Y-93267954D02*
G01*
X112478458Y-93391574D01*
X112608255Y-93485877D01*
X112757427Y-93544939D01*
X112916600Y-93565047D01*
X114616600Y-93565047D01*
X114814385Y-93533721D01*
X114949420Y-93470179D01*
X114950553Y-94314929D01*
X114924945Y-94296323D01*
X114775773Y-94237261D01*
X114616600Y-94217153D01*
X112916600Y-94217153D01*
X112718815Y-94248479D01*
X112573646Y-94316790D01*
X112450026Y-94419058D01*
X112355723Y-94548855D01*
X112296661Y-94698027D01*
X112276553Y-94857200D01*
X112276553Y-96557200D01*
X112307879Y-96754985D01*
X112376190Y-96900154D01*
X112478458Y-97023774D01*
X112608255Y-97118077D01*
X112757427Y-97177139D01*
X112916600Y-97197247D01*
X114616600Y-97197247D01*
X114814385Y-97165921D01*
X114954292Y-97100086D01*
X114959548Y-101015800D01*
X114418447Y-101015800D01*
X114418447Y-99353000D01*
X114387121Y-99155215D01*
X114318810Y-99010046D01*
X114216542Y-98886426D01*
X114086745Y-98792123D01*
X113937573Y-98733061D01*
X113778400Y-98712953D01*
X112078400Y-98712953D01*
X111880615Y-98744279D01*
X111735446Y-98812590D01*
X111611826Y-98914858D01*
X111517523Y-99044655D01*
X111468687Y-99168000D01*
X111445847Y-99168000D01*
X111445847Y-99099800D01*
X111414521Y-98902015D01*
X111346210Y-98756846D01*
X111243942Y-98633226D01*
X111114145Y-98538923D01*
X110964973Y-98479861D01*
X110940800Y-98476807D01*
X110940800Y-98356256D01*
X110945750Y-98310691D01*
X110940800Y-98254111D01*
X110940800Y-98248735D01*
X110936435Y-98204219D01*
X110928060Y-98108489D01*
X110926533Y-98103234D01*
X110926000Y-98097795D01*
X110898239Y-98005847D01*
X110871431Y-97913574D01*
X110868915Y-97908720D01*
X110867334Y-97903484D01*
X110822222Y-97818641D01*
X110778023Y-97733372D01*
X110774706Y-97729276D01*
X110772044Y-97724269D01*
X110643759Y-97566975D01*
X110602811Y-97533100D01*
X109525119Y-96455408D01*
X109600484Y-96475673D01*
X109860370Y-96505513D01*
X110121812Y-96496612D01*
X110379066Y-96449165D01*
X110626482Y-96364214D01*
X110858623Y-96243626D01*
X111070391Y-96090050D01*
X111257132Y-95906860D01*
X111414745Y-95698080D01*
X111539768Y-95468296D01*
X111629452Y-95222557D01*
X111681829Y-94966261D01*
X111691395Y-94612739D01*
X111652955Y-94353986D01*
X111576691Y-94103756D01*
X111464278Y-93867548D01*
X111354343Y-93704254D01*
X111479870Y-93691061D01*
X111714358Y-93627352D01*
X111935644Y-93526972D01*
X112138034Y-93392504D01*
X112316322Y-93227408D01*
X112341778Y-93194825D01*
X112376190Y-93267954D01*
X112376190Y-93267954D01*
G37*
X112376190Y-93267954D02*
X112478458Y-93391574D01*
X112608255Y-93485877D01*
X112757427Y-93544939D01*
X112916600Y-93565047D01*
X114616600Y-93565047D01*
X114814385Y-93533721D01*
X114949420Y-93470179D01*
X114950553Y-94314929D01*
X114924945Y-94296323D01*
X114775773Y-94237261D01*
X114616600Y-94217153D01*
X112916600Y-94217153D01*
X112718815Y-94248479D01*
X112573646Y-94316790D01*
X112450026Y-94419058D01*
X112355723Y-94548855D01*
X112296661Y-94698027D01*
X112276553Y-94857200D01*
X112276553Y-96557200D01*
X112307879Y-96754985D01*
X112376190Y-96900154D01*
X112478458Y-97023774D01*
X112608255Y-97118077D01*
X112757427Y-97177139D01*
X112916600Y-97197247D01*
X114616600Y-97197247D01*
X114814385Y-97165921D01*
X114954292Y-97100086D01*
X114959548Y-101015800D01*
X114418447Y-101015800D01*
X114418447Y-99353000D01*
X114387121Y-99155215D01*
X114318810Y-99010046D01*
X114216542Y-98886426D01*
X114086745Y-98792123D01*
X113937573Y-98733061D01*
X113778400Y-98712953D01*
X112078400Y-98712953D01*
X111880615Y-98744279D01*
X111735446Y-98812590D01*
X111611826Y-98914858D01*
X111517523Y-99044655D01*
X111468687Y-99168000D01*
X111445847Y-99168000D01*
X111445847Y-99099800D01*
X111414521Y-98902015D01*
X111346210Y-98756846D01*
X111243942Y-98633226D01*
X111114145Y-98538923D01*
X110964973Y-98479861D01*
X110940800Y-98476807D01*
X110940800Y-98356256D01*
X110945750Y-98310691D01*
X110940800Y-98254111D01*
X110940800Y-98248735D01*
X110936435Y-98204219D01*
X110928060Y-98108489D01*
X110926533Y-98103234D01*
X110926000Y-98097795D01*
X110898239Y-98005847D01*
X110871431Y-97913574D01*
X110868915Y-97908720D01*
X110867334Y-97903484D01*
X110822222Y-97818641D01*
X110778023Y-97733372D01*
X110774706Y-97729276D01*
X110772044Y-97724269D01*
X110643759Y-97566975D01*
X110602811Y-97533100D01*
X109525119Y-96455408D01*
X109600484Y-96475673D01*
X109860370Y-96505513D01*
X110121812Y-96496612D01*
X110379066Y-96449165D01*
X110626482Y-96364214D01*
X110858623Y-96243626D01*
X111070391Y-96090050D01*
X111257132Y-95906860D01*
X111414745Y-95698080D01*
X111539768Y-95468296D01*
X111629452Y-95222557D01*
X111681829Y-94966261D01*
X111691395Y-94612739D01*
X111652955Y-94353986D01*
X111576691Y-94103756D01*
X111464278Y-93867548D01*
X111354343Y-93704254D01*
X111479870Y-93691061D01*
X111714358Y-93627352D01*
X111935644Y-93526972D01*
X112138034Y-93392504D01*
X112316322Y-93227408D01*
X112341778Y-93194825D01*
X112376190Y-93267954D01*
G36*
X111336753Y-84847800D02*
G01*
X111368079Y-85045585D01*
X111436390Y-85190754D01*
X111538658Y-85314374D01*
X111630088Y-85380802D01*
X109034268Y-87976622D01*
X108998545Y-88005344D01*
X108962035Y-88048855D01*
X108958236Y-88052654D01*
X108929853Y-88087208D01*
X108868076Y-88160831D01*
X108865441Y-88165625D01*
X108861970Y-88169850D01*
X108816580Y-88254503D01*
X108770293Y-88338699D01*
X108768639Y-88343912D01*
X108766055Y-88348732D01*
X108737964Y-88440613D01*
X108708920Y-88532171D01*
X108708369Y-88537413D01*
X108706711Y-88542836D01*
X108686198Y-88744771D01*
X108691200Y-88797685D01*
X108691199Y-91642634D01*
X108633190Y-91409972D01*
X108517942Y-91109742D01*
X108366965Y-90825794D01*
X108182508Y-90562362D01*
X107967321Y-90323373D01*
X107724614Y-90112391D01*
X107458003Y-89932559D01*
X107171463Y-89786560D01*
X106869267Y-89676569D01*
X106555918Y-89604227D01*
X106236089Y-89570612D01*
X105914547Y-89576224D01*
X105596086Y-89620981D01*
X105285453Y-89704215D01*
X104987279Y-89824685D01*
X104706009Y-89980595D01*
X104445837Y-90169622D01*
X104210640Y-90388946D01*
X104003925Y-90635299D01*
X103828774Y-90905008D01*
X103687798Y-91194052D01*
X103583099Y-91498122D01*
X103516236Y-91812686D01*
X103488208Y-92133053D01*
X103499431Y-92454448D01*
X103549739Y-92772079D01*
X103638381Y-93081212D01*
X103764037Y-93377238D01*
X103924832Y-93655744D01*
X104118371Y-93912578D01*
X104341766Y-94143911D01*
X104591689Y-94346295D01*
X104864414Y-94516712D01*
X105155874Y-94652622D01*
X105461725Y-94751999D01*
X105777408Y-94813362D01*
X106098215Y-94835795D01*
X106419365Y-94818964D01*
X106736071Y-94763120D01*
X107043609Y-94669096D01*
X107171200Y-94612289D01*
X107171199Y-96543743D01*
X107166249Y-96589309D01*
X107171199Y-96645888D01*
X107171199Y-96651263D01*
X107175563Y-96695771D01*
X107183939Y-96791509D01*
X107185466Y-96796764D01*
X107185999Y-96802203D01*
X107213760Y-96894151D01*
X107240568Y-96986424D01*
X107243084Y-96991278D01*
X107244665Y-96996514D01*
X107289786Y-97081376D01*
X107333976Y-97166626D01*
X107337291Y-97170720D01*
X107339955Y-97175730D01*
X107468240Y-97333024D01*
X107509194Y-97366904D01*
X108689253Y-98546964D01*
X108662846Y-98559390D01*
X108539226Y-98661658D01*
X108444923Y-98791455D01*
X108385861Y-98940627D01*
X108365753Y-99099800D01*
X108365753Y-100899800D01*
X108384126Y-101015800D01*
X103437744Y-101015800D01*
X103550364Y-100878695D01*
X103674616Y-100665209D01*
X103763137Y-100434604D01*
X103813650Y-100192812D01*
X103824855Y-99946055D01*
X103796464Y-99700680D01*
X103729208Y-99463001D01*
X103624816Y-99239133D01*
X103491781Y-99043379D01*
X103510370Y-99045513D01*
X103771812Y-99036612D01*
X104029066Y-98989165D01*
X104276482Y-98904214D01*
X104508623Y-98783626D01*
X104720391Y-98630050D01*
X104907132Y-98446860D01*
X105064745Y-98238080D01*
X105189768Y-98008296D01*
X105279452Y-97762557D01*
X105331829Y-97506261D01*
X105341395Y-97152739D01*
X105302955Y-96893986D01*
X105226691Y-96643756D01*
X105114278Y-96407548D01*
X104968186Y-96190549D01*
X104791625Y-95997528D01*
X104588472Y-95832725D01*
X104363192Y-95699760D01*
X104120732Y-95601554D01*
X103866420Y-95540264D01*
X103605842Y-95517237D01*
X103344723Y-95532979D01*
X103088799Y-95587144D01*
X102843692Y-95678542D01*
X102614787Y-95805165D01*
X102407112Y-95964232D01*
X102225230Y-96152248D01*
X102073136Y-96365083D01*
X101954171Y-96598060D01*
X101870950Y-96846063D01*
X101825300Y-97103642D01*
X101818224Y-97365140D01*
X101849878Y-97624811D01*
X101919566Y-97876951D01*
X102025757Y-98116021D01*
X102166118Y-98336770D01*
X102277217Y-98464800D01*
X102223743Y-98464800D01*
X102039584Y-98479617D01*
X101799703Y-98538538D01*
X101572327Y-98635053D01*
X101363308Y-98766679D01*
X101178022Y-98930031D01*
X101021236Y-99120905D01*
X100896984Y-99334391D01*
X100808463Y-99564996D01*
X100757950Y-99806788D01*
X100746745Y-100053545D01*
X100775136Y-100298920D01*
X100842392Y-100536599D01*
X100946784Y-100760467D01*
X101085625Y-100964765D01*
X101133886Y-101015800D01*
X95190647Y-101015800D01*
X95190647Y-99353000D01*
X95159321Y-99155215D01*
X95091010Y-99010046D01*
X94988742Y-98886426D01*
X94858945Y-98792123D01*
X94709773Y-98733061D01*
X94550600Y-98712953D01*
X92850600Y-98712953D01*
X92652815Y-98744279D01*
X92507646Y-98812590D01*
X92384026Y-98914858D01*
X92289723Y-99044655D01*
X92240887Y-99168000D01*
X92218047Y-99168000D01*
X92218047Y-99099800D01*
X92186721Y-98902015D01*
X92118410Y-98756846D01*
X92016142Y-98633226D01*
X91886345Y-98538923D01*
X91737173Y-98479861D01*
X91713000Y-98476807D01*
X91713000Y-97351458D01*
X91717950Y-97305892D01*
X91713000Y-97249312D01*
X91713000Y-97243937D01*
X91708635Y-97199425D01*
X91700260Y-97103691D01*
X91698733Y-97098436D01*
X91698200Y-97092997D01*
X91670439Y-97001049D01*
X91643631Y-96908776D01*
X91641115Y-96903922D01*
X91639534Y-96898686D01*
X91594422Y-96813843D01*
X91550223Y-96728574D01*
X91546906Y-96724478D01*
X91544244Y-96719471D01*
X91415959Y-96562177D01*
X91375011Y-96528302D01*
X91252421Y-96405712D01*
X91373282Y-96364214D01*
X91605423Y-96243626D01*
X91817191Y-96090050D01*
X92003932Y-95906860D01*
X92161545Y-95698080D01*
X92286568Y-95468296D01*
X92376252Y-95222557D01*
X92428629Y-94966261D01*
X92429518Y-94933400D01*
X93099553Y-94933400D01*
X93099553Y-96633400D01*
X93130879Y-96831185D01*
X93199190Y-96976354D01*
X93301458Y-97099974D01*
X93431255Y-97194277D01*
X93580427Y-97253339D01*
X93739600Y-97273447D01*
X95439600Y-97273447D01*
X95637385Y-97242121D01*
X95782554Y-97173810D01*
X95906174Y-97071542D01*
X96000477Y-96941745D01*
X96059539Y-96792573D01*
X96079647Y-96633400D01*
X96079647Y-94933400D01*
X96884153Y-94933400D01*
X96884153Y-96633400D01*
X96915479Y-96831185D01*
X96983790Y-96976354D01*
X97086058Y-97099974D01*
X97215855Y-97194277D01*
X97365027Y-97253339D01*
X97524200Y-97273447D01*
X99224200Y-97273447D01*
X99421985Y-97242121D01*
X99567154Y-97173810D01*
X99690774Y-97071542D01*
X99785077Y-96941745D01*
X99844139Y-96792573D01*
X99864247Y-96633400D01*
X99864247Y-94933400D01*
X99832921Y-94735615D01*
X99764610Y-94590446D01*
X99662342Y-94466826D01*
X99532545Y-94372523D01*
X99383373Y-94313461D01*
X99224200Y-94293353D01*
X97524200Y-94293353D01*
X97326415Y-94324679D01*
X97181246Y-94392990D01*
X97057626Y-94495258D01*
X96963323Y-94625055D01*
X96904261Y-94774227D01*
X96884153Y-94933400D01*
X96079647Y-94933400D01*
X96048321Y-94735615D01*
X95980010Y-94590446D01*
X95877742Y-94466826D01*
X95747945Y-94372523D01*
X95598773Y-94313461D01*
X95439600Y-94293353D01*
X93739600Y-94293353D01*
X93541815Y-94324679D01*
X93396646Y-94392990D01*
X93273026Y-94495258D01*
X93178723Y-94625055D01*
X93119661Y-94774227D01*
X93099553Y-94933400D01*
X92429518Y-94933400D01*
X92438195Y-94612739D01*
X92399755Y-94353986D01*
X92323491Y-94103756D01*
X92211078Y-93867548D01*
X92101143Y-93704254D01*
X92226670Y-93691061D01*
X92461158Y-93627352D01*
X92682444Y-93526972D01*
X92884834Y-93392504D01*
X93063122Y-93227408D01*
X93119856Y-93154791D01*
X93130879Y-93224385D01*
X93199190Y-93369554D01*
X93301458Y-93493174D01*
X93431255Y-93587477D01*
X93580427Y-93646539D01*
X93739600Y-93666647D01*
X95439600Y-93666647D01*
X95637385Y-93635321D01*
X95782554Y-93567010D01*
X95906174Y-93464742D01*
X96000477Y-93334945D01*
X96059539Y-93185773D01*
X96079647Y-93026600D01*
X96079647Y-91326600D01*
X96048321Y-91128815D01*
X95980010Y-90983646D01*
X95877742Y-90860026D01*
X95747945Y-90765723D01*
X95598773Y-90706661D01*
X95439600Y-90686553D01*
X93739600Y-90686553D01*
X93541815Y-90717879D01*
X93396646Y-90786190D01*
X93273026Y-90888458D01*
X93178723Y-91018255D01*
X93119661Y-91167427D01*
X93111021Y-91235820D01*
X93084352Y-91200171D01*
X92909561Y-91031377D01*
X92710031Y-90892700D01*
X92490896Y-90787708D01*
X92257794Y-90719102D01*
X92016721Y-90688647D01*
X91773880Y-90697128D01*
X91535519Y-90744324D01*
X91507999Y-90754559D01*
X91507999Y-89459989D01*
X93100816Y-89459989D01*
X93130879Y-89617585D01*
X93199190Y-89762754D01*
X93301458Y-89886374D01*
X93431255Y-89980677D01*
X93580427Y-90039739D01*
X93739600Y-90059847D01*
X94303850Y-90054800D01*
X94462600Y-89896050D01*
X94462600Y-88696800D01*
X94716600Y-88696800D01*
X94716600Y-89896050D01*
X94875350Y-90054800D01*
X95439600Y-90059847D01*
X95598773Y-90039739D01*
X95747945Y-89980677D01*
X95877742Y-89886374D01*
X95980010Y-89762754D01*
X96048321Y-89617585D01*
X96078384Y-89459989D01*
X96078066Y-89409189D01*
X96860016Y-89409189D01*
X96890079Y-89566785D01*
X96958390Y-89711954D01*
X97060658Y-89835574D01*
X97190455Y-89929877D01*
X97339627Y-89988939D01*
X97498800Y-90009047D01*
X98063050Y-90004000D01*
X98221800Y-89845250D01*
X98221800Y-88646000D01*
X97022550Y-88646000D01*
X96863800Y-88804750D01*
X96860016Y-89409189D01*
X96078066Y-89409189D01*
X96074600Y-88855550D01*
X95915850Y-88696800D01*
X94716600Y-88696800D01*
X94462600Y-88696800D01*
X93263350Y-88696800D01*
X93104600Y-88855550D01*
X93100816Y-89459989D01*
X91507999Y-89459989D01*
X91507999Y-89304111D01*
X93101013Y-87711097D01*
X93104600Y-88284050D01*
X93263350Y-88442800D01*
X94462600Y-88442800D01*
X94462600Y-87243550D01*
X94716600Y-87243550D01*
X94716600Y-88442800D01*
X95915850Y-88442800D01*
X96074600Y-88284050D01*
X96078384Y-87679611D01*
X96068694Y-87628811D01*
X96860016Y-87628811D01*
X96863800Y-88233250D01*
X97022550Y-88392000D01*
X98221800Y-88392000D01*
X98221800Y-87192750D01*
X98475800Y-87192750D01*
X98475800Y-88392000D01*
X99675050Y-88392000D01*
X99833800Y-88233250D01*
X99837584Y-87628811D01*
X99807521Y-87471215D01*
X99739210Y-87326046D01*
X99636942Y-87202426D01*
X99507145Y-87108123D01*
X99357973Y-87049061D01*
X99198800Y-87028953D01*
X98634550Y-87034000D01*
X98475800Y-87192750D01*
X98221800Y-87192750D01*
X98063050Y-87034000D01*
X97498800Y-87028953D01*
X97339627Y-87049061D01*
X97190455Y-87108123D01*
X97060658Y-87202426D01*
X96958390Y-87326046D01*
X96890079Y-87471215D01*
X96860016Y-87628811D01*
X96068694Y-87628811D01*
X96048321Y-87522015D01*
X95980010Y-87376846D01*
X95877742Y-87253226D01*
X95747945Y-87158923D01*
X95598773Y-87099861D01*
X95439600Y-87079753D01*
X94875350Y-87084800D01*
X94716600Y-87243550D01*
X94462600Y-87243550D01*
X94303850Y-87084800D01*
X93739600Y-87079753D01*
X93731311Y-87080800D01*
X94316332Y-86495779D01*
X94352055Y-86467057D01*
X94388565Y-86423546D01*
X94392363Y-86419748D01*
X94420739Y-86385203D01*
X94482524Y-86311570D01*
X94485160Y-86306775D01*
X94488629Y-86302552D01*
X94534001Y-86217932D01*
X94580307Y-86133702D01*
X94581961Y-86128486D01*
X94584544Y-86123670D01*
X94612617Y-86031849D01*
X94641680Y-85940230D01*
X94642231Y-85934985D01*
X94643888Y-85929566D01*
X94664401Y-85727631D01*
X94659400Y-85674727D01*
X94659400Y-85534746D01*
X94672185Y-85532721D01*
X94817354Y-85464410D01*
X94940974Y-85362142D01*
X95035277Y-85232345D01*
X95094339Y-85083173D01*
X95114447Y-84924000D01*
X95114447Y-83388200D01*
X96291006Y-83388200D01*
X96291186Y-83388234D01*
X96316958Y-83388200D01*
X96356744Y-83388200D01*
X96357164Y-83388147D01*
X101118790Y-83381865D01*
X101061062Y-83454962D01*
X100947022Y-83661544D01*
X100868254Y-83883979D01*
X100826872Y-84116292D01*
X100823990Y-84352244D01*
X100859683Y-84585498D01*
X100932993Y-84809791D01*
X101041951Y-85019098D01*
X101183632Y-85207799D01*
X101225401Y-85247714D01*
X101225400Y-87836289D01*
X99836433Y-89225257D01*
X99833800Y-88804750D01*
X99675050Y-88646000D01*
X98475800Y-88646000D01*
X98475800Y-89845250D01*
X98634550Y-90004000D01*
X99053938Y-90007751D01*
X98400537Y-90661153D01*
X97524200Y-90661153D01*
X97326415Y-90692479D01*
X97181246Y-90760790D01*
X97057626Y-90863058D01*
X96963323Y-90992855D01*
X96904261Y-91142027D01*
X96884153Y-91301200D01*
X96884153Y-93001200D01*
X96915479Y-93198985D01*
X96983790Y-93344154D01*
X97086058Y-93467774D01*
X97215855Y-93562077D01*
X97365027Y-93621139D01*
X97524200Y-93641247D01*
X99224200Y-93641247D01*
X99421985Y-93609921D01*
X99567154Y-93541610D01*
X99690774Y-93439342D01*
X99785077Y-93309545D01*
X99844139Y-93160373D01*
X99847910Y-93130525D01*
X99977500Y-93280657D01*
X100163640Y-93436847D01*
X100372357Y-93561267D01*
X100598283Y-93650718D01*
X100835603Y-93702896D01*
X101078213Y-93716460D01*
X101319870Y-93691061D01*
X101554358Y-93627352D01*
X101775644Y-93526972D01*
X101978034Y-93392504D01*
X102156322Y-93227408D01*
X102305921Y-93035930D01*
X102422982Y-92822997D01*
X102504493Y-92594088D01*
X102548357Y-92355091D01*
X102551232Y-92080506D01*
X102512383Y-91840643D01*
X102435684Y-91610077D01*
X102323108Y-91394739D01*
X102177552Y-91200171D01*
X102002761Y-91031377D01*
X101803231Y-90892700D01*
X101584096Y-90787708D01*
X101350994Y-90719102D01*
X101279092Y-90710019D01*
X102952332Y-89036779D01*
X102988055Y-89008057D01*
X103024565Y-88964546D01*
X103028364Y-88960747D01*
X103056745Y-88926196D01*
X103118524Y-88852570D01*
X103121160Y-88847776D01*
X103124629Y-88843552D01*
X103170021Y-88758897D01*
X103216307Y-88674702D01*
X103217960Y-88669491D01*
X103220545Y-88664670D01*
X103248640Y-88572774D01*
X103277680Y-88481230D01*
X103278231Y-88475988D01*
X103279889Y-88470565D01*
X103298245Y-88289852D01*
X103358290Y-88417454D01*
X103460558Y-88541074D01*
X103590355Y-88635377D01*
X103739527Y-88694439D01*
X103898700Y-88714547D01*
X104565450Y-88709500D01*
X104724200Y-88550750D01*
X104724200Y-87249000D01*
X104704200Y-87249000D01*
X104704200Y-86995000D01*
X104724200Y-86995000D01*
X104724200Y-85693250D01*
X104565450Y-85534500D01*
X103898700Y-85529453D01*
X103739527Y-85549561D01*
X103590355Y-85608623D01*
X103460558Y-85702926D01*
X103358290Y-85826546D01*
X103295400Y-85960195D01*
X103295400Y-85250282D01*
X103313489Y-85233822D01*
X103459738Y-85048638D01*
X103573778Y-84842056D01*
X103652546Y-84619621D01*
X103693928Y-84387308D01*
X103696810Y-84151356D01*
X103661117Y-83918102D01*
X103587807Y-83693809D01*
X103478849Y-83484502D01*
X103399528Y-83378856D01*
X108746411Y-83371802D01*
X108690886Y-83440369D01*
X108574331Y-83645543D01*
X108492851Y-83866999D01*
X108448635Y-84098788D01*
X108445602Y-84222887D01*
X107109097Y-85559393D01*
X107019460Y-85573590D01*
X106781812Y-85650807D01*
X106559169Y-85764249D01*
X106377057Y-85896561D01*
X106344110Y-85826546D01*
X106241842Y-85702926D01*
X106112045Y-85608623D01*
X105962873Y-85549561D01*
X105803700Y-85529453D01*
X105136950Y-85534500D01*
X104978200Y-85693250D01*
X104978200Y-86995000D01*
X104998200Y-86995000D01*
X104998200Y-87249000D01*
X104978200Y-87249000D01*
X104978200Y-88550750D01*
X105136950Y-88709500D01*
X105803700Y-88714547D01*
X105962873Y-88694439D01*
X106112045Y-88635377D01*
X106241842Y-88541074D01*
X106344110Y-88417454D01*
X106377057Y-88347439D01*
X106559169Y-88479751D01*
X106781812Y-88593193D01*
X107019460Y-88670410D01*
X107266261Y-88709499D01*
X107516139Y-88709499D01*
X107762940Y-88670410D01*
X108000588Y-88593193D01*
X108223231Y-88479751D01*
X108425386Y-88332877D01*
X108602077Y-88156186D01*
X108748951Y-87954031D01*
X108862393Y-87731388D01*
X108939610Y-87493740D01*
X108978699Y-87246939D01*
X108978699Y-86997061D01*
X108939610Y-86750260D01*
X108916567Y-86679343D01*
X109908847Y-85687063D01*
X110063363Y-85680047D01*
X110294176Y-85630986D01*
X110513876Y-85544886D01*
X110716565Y-85424060D01*
X110896797Y-85271751D01*
X111049734Y-85092051D01*
X111171267Y-84889786D01*
X111258133Y-84670387D01*
X111307999Y-84439747D01*
X111315476Y-84133815D01*
X111276936Y-83901014D01*
X111200891Y-83677634D01*
X111089384Y-83469673D01*
X111011711Y-83368813D01*
X111336753Y-83368385D01*
X111336753Y-84847800D01*
X111336753Y-84847800D01*
G37*
X111336753Y-84847800D02*
X111368079Y-85045585D01*
X111436390Y-85190754D01*
X111538658Y-85314374D01*
X111630088Y-85380802D01*
X109034268Y-87976622D01*
X108998545Y-88005344D01*
X108962035Y-88048855D01*
X108958236Y-88052654D01*
X108929853Y-88087208D01*
X108868076Y-88160831D01*
X108865441Y-88165625D01*
X108861970Y-88169850D01*
X108816580Y-88254503D01*
X108770293Y-88338699D01*
X108768639Y-88343912D01*
X108766055Y-88348732D01*
X108737964Y-88440613D01*
X108708920Y-88532171D01*
X108708369Y-88537413D01*
X108706711Y-88542836D01*
X108686198Y-88744771D01*
X108691200Y-88797685D01*
X108691199Y-91642634D01*
X108633190Y-91409972D01*
X108517942Y-91109742D01*
X108366965Y-90825794D01*
X108182508Y-90562362D01*
X107967321Y-90323373D01*
X107724614Y-90112391D01*
X107458003Y-89932559D01*
X107171463Y-89786560D01*
X106869267Y-89676569D01*
X106555918Y-89604227D01*
X106236089Y-89570612D01*
X105914547Y-89576224D01*
X105596086Y-89620981D01*
X105285453Y-89704215D01*
X104987279Y-89824685D01*
X104706009Y-89980595D01*
X104445837Y-90169622D01*
X104210640Y-90388946D01*
X104003925Y-90635299D01*
X103828774Y-90905008D01*
X103687798Y-91194052D01*
X103583099Y-91498122D01*
X103516236Y-91812686D01*
X103488208Y-92133053D01*
X103499431Y-92454448D01*
X103549739Y-92772079D01*
X103638381Y-93081212D01*
X103764037Y-93377238D01*
X103924832Y-93655744D01*
X104118371Y-93912578D01*
X104341766Y-94143911D01*
X104591689Y-94346295D01*
X104864414Y-94516712D01*
X105155874Y-94652622D01*
X105461725Y-94751999D01*
X105777408Y-94813362D01*
X106098215Y-94835795D01*
X106419365Y-94818964D01*
X106736071Y-94763120D01*
X107043609Y-94669096D01*
X107171200Y-94612289D01*
X107171199Y-96543743D01*
X107166249Y-96589309D01*
X107171199Y-96645888D01*
X107171199Y-96651263D01*
X107175563Y-96695771D01*
X107183939Y-96791509D01*
X107185466Y-96796764D01*
X107185999Y-96802203D01*
X107213760Y-96894151D01*
X107240568Y-96986424D01*
X107243084Y-96991278D01*
X107244665Y-96996514D01*
X107289786Y-97081376D01*
X107333976Y-97166626D01*
X107337291Y-97170720D01*
X107339955Y-97175730D01*
X107468240Y-97333024D01*
X107509194Y-97366904D01*
X108689253Y-98546964D01*
X108662846Y-98559390D01*
X108539226Y-98661658D01*
X108444923Y-98791455D01*
X108385861Y-98940627D01*
X108365753Y-99099800D01*
X108365753Y-100899800D01*
X108384126Y-101015800D01*
X103437744Y-101015800D01*
X103550364Y-100878695D01*
X103674616Y-100665209D01*
X103763137Y-100434604D01*
X103813650Y-100192812D01*
X103824855Y-99946055D01*
X103796464Y-99700680D01*
X103729208Y-99463001D01*
X103624816Y-99239133D01*
X103491781Y-99043379D01*
X103510370Y-99045513D01*
X103771812Y-99036612D01*
X104029066Y-98989165D01*
X104276482Y-98904214D01*
X104508623Y-98783626D01*
X104720391Y-98630050D01*
X104907132Y-98446860D01*
X105064745Y-98238080D01*
X105189768Y-98008296D01*
X105279452Y-97762557D01*
X105331829Y-97506261D01*
X105341395Y-97152739D01*
X105302955Y-96893986D01*
X105226691Y-96643756D01*
X105114278Y-96407548D01*
X104968186Y-96190549D01*
X104791625Y-95997528D01*
X104588472Y-95832725D01*
X104363192Y-95699760D01*
X104120732Y-95601554D01*
X103866420Y-95540264D01*
X103605842Y-95517237D01*
X103344723Y-95532979D01*
X103088799Y-95587144D01*
X102843692Y-95678542D01*
X102614787Y-95805165D01*
X102407112Y-95964232D01*
X102225230Y-96152248D01*
X102073136Y-96365083D01*
X101954171Y-96598060D01*
X101870950Y-96846063D01*
X101825300Y-97103642D01*
X101818224Y-97365140D01*
X101849878Y-97624811D01*
X101919566Y-97876951D01*
X102025757Y-98116021D01*
X102166118Y-98336770D01*
X102277217Y-98464800D01*
X102223743Y-98464800D01*
X102039584Y-98479617D01*
X101799703Y-98538538D01*
X101572327Y-98635053D01*
X101363308Y-98766679D01*
X101178022Y-98930031D01*
X101021236Y-99120905D01*
X100896984Y-99334391D01*
X100808463Y-99564996D01*
X100757950Y-99806788D01*
X100746745Y-100053545D01*
X100775136Y-100298920D01*
X100842392Y-100536599D01*
X100946784Y-100760467D01*
X101085625Y-100964765D01*
X101133886Y-101015800D01*
X95190647Y-101015800D01*
X95190647Y-99353000D01*
X95159321Y-99155215D01*
X95091010Y-99010046D01*
X94988742Y-98886426D01*
X94858945Y-98792123D01*
X94709773Y-98733061D01*
X94550600Y-98712953D01*
X92850600Y-98712953D01*
X92652815Y-98744279D01*
X92507646Y-98812590D01*
X92384026Y-98914858D01*
X92289723Y-99044655D01*
X92240887Y-99168000D01*
X92218047Y-99168000D01*
X92218047Y-99099800D01*
X92186721Y-98902015D01*
X92118410Y-98756846D01*
X92016142Y-98633226D01*
X91886345Y-98538923D01*
X91737173Y-98479861D01*
X91713000Y-98476807D01*
X91713000Y-97351458D01*
X91717950Y-97305892D01*
X91713000Y-97249312D01*
X91713000Y-97243937D01*
X91708635Y-97199425D01*
X91700260Y-97103691D01*
X91698733Y-97098436D01*
X91698200Y-97092997D01*
X91670439Y-97001049D01*
X91643631Y-96908776D01*
X91641115Y-96903922D01*
X91639534Y-96898686D01*
X91594422Y-96813843D01*
X91550223Y-96728574D01*
X91546906Y-96724478D01*
X91544244Y-96719471D01*
X91415959Y-96562177D01*
X91375011Y-96528302D01*
X91252421Y-96405712D01*
X91373282Y-96364214D01*
X91605423Y-96243626D01*
X91817191Y-96090050D01*
X92003932Y-95906860D01*
X92161545Y-95698080D01*
X92286568Y-95468296D01*
X92376252Y-95222557D01*
X92428629Y-94966261D01*
X92429518Y-94933400D01*
X93099553Y-94933400D01*
X93099553Y-96633400D01*
X93130879Y-96831185D01*
X93199190Y-96976354D01*
X93301458Y-97099974D01*
X93431255Y-97194277D01*
X93580427Y-97253339D01*
X93739600Y-97273447D01*
X95439600Y-97273447D01*
X95637385Y-97242121D01*
X95782554Y-97173810D01*
X95906174Y-97071542D01*
X96000477Y-96941745D01*
X96059539Y-96792573D01*
X96079647Y-96633400D01*
X96079647Y-94933400D01*
X96884153Y-94933400D01*
X96884153Y-96633400D01*
X96915479Y-96831185D01*
X96983790Y-96976354D01*
X97086058Y-97099974D01*
X97215855Y-97194277D01*
X97365027Y-97253339D01*
X97524200Y-97273447D01*
X99224200Y-97273447D01*
X99421985Y-97242121D01*
X99567154Y-97173810D01*
X99690774Y-97071542D01*
X99785077Y-96941745D01*
X99844139Y-96792573D01*
X99864247Y-96633400D01*
X99864247Y-94933400D01*
X99832921Y-94735615D01*
X99764610Y-94590446D01*
X99662342Y-94466826D01*
X99532545Y-94372523D01*
X99383373Y-94313461D01*
X99224200Y-94293353D01*
X97524200Y-94293353D01*
X97326415Y-94324679D01*
X97181246Y-94392990D01*
X97057626Y-94495258D01*
X96963323Y-94625055D01*
X96904261Y-94774227D01*
X96884153Y-94933400D01*
X96079647Y-94933400D01*
X96048321Y-94735615D01*
X95980010Y-94590446D01*
X95877742Y-94466826D01*
X95747945Y-94372523D01*
X95598773Y-94313461D01*
X95439600Y-94293353D01*
X93739600Y-94293353D01*
X93541815Y-94324679D01*
X93396646Y-94392990D01*
X93273026Y-94495258D01*
X93178723Y-94625055D01*
X93119661Y-94774227D01*
X93099553Y-94933400D01*
X92429518Y-94933400D01*
X92438195Y-94612739D01*
X92399755Y-94353986D01*
X92323491Y-94103756D01*
X92211078Y-93867548D01*
X92101143Y-93704254D01*
X92226670Y-93691061D01*
X92461158Y-93627352D01*
X92682444Y-93526972D01*
X92884834Y-93392504D01*
X93063122Y-93227408D01*
X93119856Y-93154791D01*
X93130879Y-93224385D01*
X93199190Y-93369554D01*
X93301458Y-93493174D01*
X93431255Y-93587477D01*
X93580427Y-93646539D01*
X93739600Y-93666647D01*
X95439600Y-93666647D01*
X95637385Y-93635321D01*
X95782554Y-93567010D01*
X95906174Y-93464742D01*
X96000477Y-93334945D01*
X96059539Y-93185773D01*
X96079647Y-93026600D01*
X96079647Y-91326600D01*
X96048321Y-91128815D01*
X95980010Y-90983646D01*
X95877742Y-90860026D01*
X95747945Y-90765723D01*
X95598773Y-90706661D01*
X95439600Y-90686553D01*
X93739600Y-90686553D01*
X93541815Y-90717879D01*
X93396646Y-90786190D01*
X93273026Y-90888458D01*
X93178723Y-91018255D01*
X93119661Y-91167427D01*
X93111021Y-91235820D01*
X93084352Y-91200171D01*
X92909561Y-91031377D01*
X92710031Y-90892700D01*
X92490896Y-90787708D01*
X92257794Y-90719102D01*
X92016721Y-90688647D01*
X91773880Y-90697128D01*
X91535519Y-90744324D01*
X91507999Y-90754559D01*
X91507999Y-89459989D01*
X93100816Y-89459989D01*
X93130879Y-89617585D01*
X93199190Y-89762754D01*
X93301458Y-89886374D01*
X93431255Y-89980677D01*
X93580427Y-90039739D01*
X93739600Y-90059847D01*
X94303850Y-90054800D01*
X94462600Y-89896050D01*
X94462600Y-88696800D01*
X94716600Y-88696800D01*
X94716600Y-89896050D01*
X94875350Y-90054800D01*
X95439600Y-90059847D01*
X95598773Y-90039739D01*
X95747945Y-89980677D01*
X95877742Y-89886374D01*
X95980010Y-89762754D01*
X96048321Y-89617585D01*
X96078384Y-89459989D01*
X96078066Y-89409189D01*
X96860016Y-89409189D01*
X96890079Y-89566785D01*
X96958390Y-89711954D01*
X97060658Y-89835574D01*
X97190455Y-89929877D01*
X97339627Y-89988939D01*
X97498800Y-90009047D01*
X98063050Y-90004000D01*
X98221800Y-89845250D01*
X98221800Y-88646000D01*
X97022550Y-88646000D01*
X96863800Y-88804750D01*
X96860016Y-89409189D01*
X96078066Y-89409189D01*
X96074600Y-88855550D01*
X95915850Y-88696800D01*
X94716600Y-88696800D01*
X94462600Y-88696800D01*
X93263350Y-88696800D01*
X93104600Y-88855550D01*
X93100816Y-89459989D01*
X91507999Y-89459989D01*
X91507999Y-89304111D01*
X93101013Y-87711097D01*
X93104600Y-88284050D01*
X93263350Y-88442800D01*
X94462600Y-88442800D01*
X94462600Y-87243550D01*
X94716600Y-87243550D01*
X94716600Y-88442800D01*
X95915850Y-88442800D01*
X96074600Y-88284050D01*
X96078384Y-87679611D01*
X96068694Y-87628811D01*
X96860016Y-87628811D01*
X96863800Y-88233250D01*
X97022550Y-88392000D01*
X98221800Y-88392000D01*
X98221800Y-87192750D01*
X98475800Y-87192750D01*
X98475800Y-88392000D01*
X99675050Y-88392000D01*
X99833800Y-88233250D01*
X99837584Y-87628811D01*
X99807521Y-87471215D01*
X99739210Y-87326046D01*
X99636942Y-87202426D01*
X99507145Y-87108123D01*
X99357973Y-87049061D01*
X99198800Y-87028953D01*
X98634550Y-87034000D01*
X98475800Y-87192750D01*
X98221800Y-87192750D01*
X98063050Y-87034000D01*
X97498800Y-87028953D01*
X97339627Y-87049061D01*
X97190455Y-87108123D01*
X97060658Y-87202426D01*
X96958390Y-87326046D01*
X96890079Y-87471215D01*
X96860016Y-87628811D01*
X96068694Y-87628811D01*
X96048321Y-87522015D01*
X95980010Y-87376846D01*
X95877742Y-87253226D01*
X95747945Y-87158923D01*
X95598773Y-87099861D01*
X95439600Y-87079753D01*
X94875350Y-87084800D01*
X94716600Y-87243550D01*
X94462600Y-87243550D01*
X94303850Y-87084800D01*
X93739600Y-87079753D01*
X93731311Y-87080800D01*
X94316332Y-86495779D01*
X94352055Y-86467057D01*
X94388565Y-86423546D01*
X94392363Y-86419748D01*
X94420739Y-86385203D01*
X94482524Y-86311570D01*
X94485160Y-86306775D01*
X94488629Y-86302552D01*
X94534001Y-86217932D01*
X94580307Y-86133702D01*
X94581961Y-86128486D01*
X94584544Y-86123670D01*
X94612617Y-86031849D01*
X94641680Y-85940230D01*
X94642231Y-85934985D01*
X94643888Y-85929566D01*
X94664401Y-85727631D01*
X94659400Y-85674727D01*
X94659400Y-85534746D01*
X94672185Y-85532721D01*
X94817354Y-85464410D01*
X94940974Y-85362142D01*
X95035277Y-85232345D01*
X95094339Y-85083173D01*
X95114447Y-84924000D01*
X95114447Y-83388200D01*
X96291006Y-83388200D01*
X96291186Y-83388234D01*
X96316958Y-83388200D01*
X96356744Y-83388200D01*
X96357164Y-83388147D01*
X101118790Y-83381865D01*
X101061062Y-83454962D01*
X100947022Y-83661544D01*
X100868254Y-83883979D01*
X100826872Y-84116292D01*
X100823990Y-84352244D01*
X100859683Y-84585498D01*
X100932993Y-84809791D01*
X101041951Y-85019098D01*
X101183632Y-85207799D01*
X101225401Y-85247714D01*
X101225400Y-87836289D01*
X99836433Y-89225257D01*
X99833800Y-88804750D01*
X99675050Y-88646000D01*
X98475800Y-88646000D01*
X98475800Y-89845250D01*
X98634550Y-90004000D01*
X99053938Y-90007751D01*
X98400537Y-90661153D01*
X97524200Y-90661153D01*
X97326415Y-90692479D01*
X97181246Y-90760790D01*
X97057626Y-90863058D01*
X96963323Y-90992855D01*
X96904261Y-91142027D01*
X96884153Y-91301200D01*
X96884153Y-93001200D01*
X96915479Y-93198985D01*
X96983790Y-93344154D01*
X97086058Y-93467774D01*
X97215855Y-93562077D01*
X97365027Y-93621139D01*
X97524200Y-93641247D01*
X99224200Y-93641247D01*
X99421985Y-93609921D01*
X99567154Y-93541610D01*
X99690774Y-93439342D01*
X99785077Y-93309545D01*
X99844139Y-93160373D01*
X99847910Y-93130525D01*
X99977500Y-93280657D01*
X100163640Y-93436847D01*
X100372357Y-93561267D01*
X100598283Y-93650718D01*
X100835603Y-93702896D01*
X101078213Y-93716460D01*
X101319870Y-93691061D01*
X101554358Y-93627352D01*
X101775644Y-93526972D01*
X101978034Y-93392504D01*
X102156322Y-93227408D01*
X102305921Y-93035930D01*
X102422982Y-92822997D01*
X102504493Y-92594088D01*
X102548357Y-92355091D01*
X102551232Y-92080506D01*
X102512383Y-91840643D01*
X102435684Y-91610077D01*
X102323108Y-91394739D01*
X102177552Y-91200171D01*
X102002761Y-91031377D01*
X101803231Y-90892700D01*
X101584096Y-90787708D01*
X101350994Y-90719102D01*
X101279092Y-90710019D01*
X102952332Y-89036779D01*
X102988055Y-89008057D01*
X103024565Y-88964546D01*
X103028364Y-88960747D01*
X103056745Y-88926196D01*
X103118524Y-88852570D01*
X103121160Y-88847776D01*
X103124629Y-88843552D01*
X103170021Y-88758897D01*
X103216307Y-88674702D01*
X103217960Y-88669491D01*
X103220545Y-88664670D01*
X103248640Y-88572774D01*
X103277680Y-88481230D01*
X103278231Y-88475988D01*
X103279889Y-88470565D01*
X103298245Y-88289852D01*
X103358290Y-88417454D01*
X103460558Y-88541074D01*
X103590355Y-88635377D01*
X103739527Y-88694439D01*
X103898700Y-88714547D01*
X104565450Y-88709500D01*
X104724200Y-88550750D01*
X104724200Y-87249000D01*
X104704200Y-87249000D01*
X104704200Y-86995000D01*
X104724200Y-86995000D01*
X104724200Y-85693250D01*
X104565450Y-85534500D01*
X103898700Y-85529453D01*
X103739527Y-85549561D01*
X103590355Y-85608623D01*
X103460558Y-85702926D01*
X103358290Y-85826546D01*
X103295400Y-85960195D01*
X103295400Y-85250282D01*
X103313489Y-85233822D01*
X103459738Y-85048638D01*
X103573778Y-84842056D01*
X103652546Y-84619621D01*
X103693928Y-84387308D01*
X103696810Y-84151356D01*
X103661117Y-83918102D01*
X103587807Y-83693809D01*
X103478849Y-83484502D01*
X103399528Y-83378856D01*
X108746411Y-83371802D01*
X108690886Y-83440369D01*
X108574331Y-83645543D01*
X108492851Y-83866999D01*
X108448635Y-84098788D01*
X108445602Y-84222887D01*
X107109097Y-85559393D01*
X107019460Y-85573590D01*
X106781812Y-85650807D01*
X106559169Y-85764249D01*
X106377057Y-85896561D01*
X106344110Y-85826546D01*
X106241842Y-85702926D01*
X106112045Y-85608623D01*
X105962873Y-85549561D01*
X105803700Y-85529453D01*
X105136950Y-85534500D01*
X104978200Y-85693250D01*
X104978200Y-86995000D01*
X104998200Y-86995000D01*
X104998200Y-87249000D01*
X104978200Y-87249000D01*
X104978200Y-88550750D01*
X105136950Y-88709500D01*
X105803700Y-88714547D01*
X105962873Y-88694439D01*
X106112045Y-88635377D01*
X106241842Y-88541074D01*
X106344110Y-88417454D01*
X106377057Y-88347439D01*
X106559169Y-88479751D01*
X106781812Y-88593193D01*
X107019460Y-88670410D01*
X107266261Y-88709499D01*
X107516139Y-88709499D01*
X107762940Y-88670410D01*
X108000588Y-88593193D01*
X108223231Y-88479751D01*
X108425386Y-88332877D01*
X108602077Y-88156186D01*
X108748951Y-87954031D01*
X108862393Y-87731388D01*
X108939610Y-87493740D01*
X108978699Y-87246939D01*
X108978699Y-86997061D01*
X108939610Y-86750260D01*
X108916567Y-86679343D01*
X109908847Y-85687063D01*
X110063363Y-85680047D01*
X110294176Y-85630986D01*
X110513876Y-85544886D01*
X110716565Y-85424060D01*
X110896797Y-85271751D01*
X111049734Y-85092051D01*
X111171267Y-84889786D01*
X111258133Y-84670387D01*
X111307999Y-84439747D01*
X111315476Y-84133815D01*
X111276936Y-83901014D01*
X111200891Y-83677634D01*
X111089384Y-83469673D01*
X111011711Y-83368813D01*
X111336753Y-83368385D01*
X111336753Y-84847800D01*
G36*
X43352262Y-83531162D02*
G01*
X43238222Y-83737744D01*
X43159454Y-83960179D01*
X43118072Y-84192492D01*
X43115190Y-84428444D01*
X43150883Y-84661698D01*
X43224193Y-84885991D01*
X43333151Y-85095298D01*
X43474832Y-85283999D01*
X43516600Y-85323914D01*
X43516600Y-85510434D01*
X43516601Y-85510444D01*
X43516601Y-87118370D01*
X43516600Y-88345686D01*
X40870935Y-90991353D01*
X39891600Y-90991353D01*
X39693815Y-91022679D01*
X39548646Y-91090990D01*
X39425026Y-91193258D01*
X39330723Y-91323055D01*
X39271661Y-91472227D01*
X39251553Y-91631400D01*
X39251553Y-93331400D01*
X39282879Y-93529185D01*
X39351190Y-93674354D01*
X39453458Y-93797974D01*
X39583255Y-93892277D01*
X39732427Y-93951339D01*
X39891600Y-93971447D01*
X41591600Y-93971447D01*
X41789385Y-93940121D01*
X41934554Y-93871810D01*
X42058174Y-93769542D01*
X42152477Y-93639745D01*
X42211539Y-93490573D01*
X42231647Y-93331400D01*
X42231647Y-93267157D01*
X42243300Y-93280657D01*
X42429440Y-93436847D01*
X42638157Y-93561267D01*
X42864083Y-93650718D01*
X43101403Y-93702896D01*
X43344013Y-93716460D01*
X43585670Y-93691061D01*
X43820158Y-93627352D01*
X44041444Y-93526972D01*
X44243834Y-93392504D01*
X44422122Y-93227408D01*
X44571721Y-93035930D01*
X44688782Y-92822997D01*
X44770293Y-92594088D01*
X44814157Y-92355091D01*
X44817032Y-92080506D01*
X44778183Y-91840643D01*
X44701484Y-91610077D01*
X44588908Y-91394739D01*
X44443352Y-91200171D01*
X44268561Y-91031377D01*
X44069031Y-90892700D01*
X43952731Y-90836978D01*
X45243532Y-89546177D01*
X45279255Y-89517455D01*
X45315765Y-89473944D01*
X45319564Y-89470145D01*
X45347933Y-89435607D01*
X45409724Y-89361968D01*
X45412361Y-89357171D01*
X45415829Y-89352949D01*
X45461209Y-89268316D01*
X45507507Y-89184100D01*
X45509160Y-89178889D01*
X45511745Y-89174068D01*
X45539840Y-89082172D01*
X45568880Y-88990628D01*
X45569431Y-88985386D01*
X45571089Y-88979963D01*
X45591601Y-88778028D01*
X45586600Y-88725125D01*
X45586600Y-88337783D01*
X45624090Y-88417454D01*
X45726358Y-88541074D01*
X45856155Y-88635377D01*
X46005327Y-88694439D01*
X46164500Y-88714547D01*
X46831250Y-88709500D01*
X46990000Y-88550750D01*
X46990000Y-87249000D01*
X46970000Y-87249000D01*
X46970000Y-86995000D01*
X46990000Y-86995000D01*
X46990000Y-85693250D01*
X46831250Y-85534500D01*
X46164500Y-85529453D01*
X46005327Y-85549561D01*
X45856155Y-85608623D01*
X45726358Y-85702926D01*
X45624090Y-85826546D01*
X45586600Y-85906217D01*
X45586600Y-85326482D01*
X45604689Y-85310022D01*
X45750938Y-85124838D01*
X45864978Y-84918256D01*
X45943746Y-84695821D01*
X45985128Y-84463508D01*
X45988010Y-84227556D01*
X45952317Y-83994302D01*
X45879007Y-83770009D01*
X45770049Y-83560702D01*
X45640531Y-83388200D01*
X51086037Y-83388200D01*
X50982086Y-83516569D01*
X50865531Y-83721743D01*
X50784051Y-83943199D01*
X50739835Y-84174988D01*
X50736802Y-84299087D01*
X49495617Y-85540273D01*
X49285260Y-85573590D01*
X49047612Y-85650807D01*
X48824969Y-85764249D01*
X48642857Y-85896561D01*
X48609910Y-85826546D01*
X48507642Y-85702926D01*
X48377845Y-85608623D01*
X48228673Y-85549561D01*
X48069500Y-85529453D01*
X47402750Y-85534500D01*
X47244000Y-85693250D01*
X47244000Y-86995000D01*
X47264000Y-86995000D01*
X47264000Y-87249000D01*
X47244000Y-87249000D01*
X47244000Y-88550750D01*
X47402750Y-88709500D01*
X48069500Y-88714547D01*
X48228673Y-88694439D01*
X48377845Y-88635377D01*
X48507642Y-88541074D01*
X48609910Y-88417454D01*
X48642857Y-88347439D01*
X48824969Y-88479751D01*
X49047612Y-88593193D01*
X49285260Y-88670410D01*
X49532061Y-88709499D01*
X49781939Y-88709499D01*
X50028740Y-88670410D01*
X50266388Y-88593193D01*
X50489031Y-88479751D01*
X50691186Y-88332877D01*
X50867877Y-88156186D01*
X51014751Y-87954031D01*
X51128193Y-87731388D01*
X51205410Y-87493740D01*
X51244499Y-87246939D01*
X51244499Y-86997061D01*
X51206455Y-86756856D01*
X52200047Y-85763263D01*
X52354563Y-85756247D01*
X52585376Y-85707186D01*
X52805076Y-85621086D01*
X53007765Y-85500260D01*
X53187997Y-85347951D01*
X53340934Y-85168251D01*
X53462467Y-84965986D01*
X53549333Y-84746587D01*
X53599199Y-84515947D01*
X53602553Y-84378713D01*
X53602553Y-84924000D01*
X53633879Y-85121785D01*
X53702190Y-85266954D01*
X53804458Y-85390574D01*
X53934255Y-85484877D01*
X53939464Y-85486939D01*
X53913083Y-85585393D01*
X53903347Y-85771171D01*
X53932450Y-85954914D01*
X53999118Y-86128593D01*
X54057601Y-86218648D01*
X54057601Y-86707286D01*
X51300072Y-89464816D01*
X51264344Y-89493542D01*
X51227829Y-89537059D01*
X51224036Y-89540852D01*
X51195699Y-89575350D01*
X51133875Y-89649029D01*
X51131238Y-89653826D01*
X51127770Y-89658048D01*
X51082408Y-89742648D01*
X51036092Y-89826898D01*
X51034438Y-89832114D01*
X51031855Y-89836930D01*
X51003782Y-89928751D01*
X50974719Y-90020370D01*
X50974168Y-90025615D01*
X50972511Y-90031034D01*
X50951998Y-90232969D01*
X50956999Y-90285873D01*
X50957000Y-91642634D01*
X50898990Y-91409972D01*
X50783742Y-91109742D01*
X50632765Y-90825794D01*
X50448308Y-90562362D01*
X50233121Y-90323373D01*
X49990414Y-90112391D01*
X49723803Y-89932559D01*
X49437263Y-89786560D01*
X49135067Y-89676569D01*
X48821718Y-89604227D01*
X48501889Y-89570612D01*
X48180347Y-89576224D01*
X47861886Y-89620981D01*
X47551253Y-89704215D01*
X47253079Y-89824685D01*
X46971809Y-89980595D01*
X46711637Y-90169622D01*
X46476440Y-90388946D01*
X46269725Y-90635299D01*
X46094574Y-90905008D01*
X45953598Y-91194052D01*
X45848899Y-91498122D01*
X45782036Y-91812686D01*
X45754008Y-92133053D01*
X45765231Y-92454448D01*
X45815539Y-92772079D01*
X45904181Y-93081212D01*
X46029837Y-93377238D01*
X46190632Y-93655744D01*
X46384171Y-93912578D01*
X46607566Y-94143911D01*
X46857489Y-94346295D01*
X47130214Y-94516712D01*
X47421674Y-94652622D01*
X47727525Y-94751999D01*
X48043208Y-94813362D01*
X48364015Y-94835795D01*
X48685165Y-94818964D01*
X49001871Y-94763120D01*
X49309409Y-94669096D01*
X49436999Y-94612289D01*
X49437000Y-96594534D01*
X49432049Y-96640109D01*
X49437000Y-96696700D01*
X49437000Y-96702064D01*
X49441356Y-96746486D01*
X49449739Y-96842309D01*
X49451267Y-96847568D01*
X49451800Y-96853004D01*
X49479542Y-96944890D01*
X49506368Y-97037224D01*
X49508886Y-97042082D01*
X49510466Y-97047315D01*
X49555558Y-97132122D01*
X49599776Y-97217426D01*
X49603094Y-97221523D01*
X49605756Y-97226530D01*
X49734041Y-97383824D01*
X49774989Y-97417699D01*
X50980453Y-98623164D01*
X50954046Y-98635590D01*
X50830426Y-98737858D01*
X50736123Y-98867655D01*
X50677061Y-99016827D01*
X50656953Y-99176000D01*
X50656953Y-100976000D01*
X50663257Y-101015800D01*
X45791536Y-101015800D01*
X45841564Y-100954895D01*
X45965816Y-100741409D01*
X46054337Y-100510804D01*
X46104850Y-100269012D01*
X46116055Y-100022255D01*
X46087664Y-99776880D01*
X46020408Y-99539201D01*
X45916016Y-99315333D01*
X45777175Y-99111035D01*
X45707789Y-99037662D01*
X45776170Y-99045513D01*
X46037612Y-99036612D01*
X46294866Y-98989165D01*
X46542282Y-98904214D01*
X46774423Y-98783626D01*
X46986191Y-98630050D01*
X47172932Y-98446860D01*
X47330545Y-98238080D01*
X47455568Y-98008296D01*
X47545252Y-97762557D01*
X47597629Y-97506261D01*
X47607195Y-97152739D01*
X47568755Y-96893986D01*
X47492491Y-96643756D01*
X47380078Y-96407548D01*
X47233986Y-96190549D01*
X47057425Y-95997528D01*
X46854272Y-95832725D01*
X46628992Y-95699760D01*
X46386532Y-95601554D01*
X46132220Y-95540264D01*
X45871642Y-95517237D01*
X45610523Y-95532979D01*
X45354599Y-95587144D01*
X45109492Y-95678542D01*
X44880587Y-95805165D01*
X44672912Y-95964232D01*
X44491030Y-96152248D01*
X44338936Y-96365083D01*
X44219971Y-96598060D01*
X44136750Y-96846063D01*
X44091100Y-97103642D01*
X44084024Y-97365140D01*
X44115678Y-97624811D01*
X44185366Y-97876951D01*
X44291557Y-98116021D01*
X44431918Y-98336770D01*
X44603366Y-98534346D01*
X44611143Y-98541000D01*
X44514943Y-98541000D01*
X44330784Y-98555817D01*
X44090903Y-98614738D01*
X43863527Y-98711253D01*
X43654508Y-98842879D01*
X43469222Y-99006231D01*
X43312436Y-99197105D01*
X43188184Y-99410591D01*
X43099663Y-99641196D01*
X43049150Y-99882988D01*
X43037945Y-100129745D01*
X43066336Y-100375120D01*
X43133592Y-100612799D01*
X43237984Y-100836667D01*
X43359723Y-101015800D01*
X37481847Y-101015800D01*
X37481847Y-99327600D01*
X37450521Y-99129815D01*
X37382210Y-98984646D01*
X37279942Y-98861026D01*
X37150145Y-98766723D01*
X37000973Y-98707661D01*
X36841800Y-98687553D01*
X35141800Y-98687553D01*
X34944015Y-98718879D01*
X34798846Y-98787190D01*
X34676263Y-98888600D01*
X34479819Y-98888600D01*
X34477921Y-98876615D01*
X34409610Y-98731446D01*
X34307342Y-98607826D01*
X34177545Y-98513523D01*
X34028373Y-98454461D01*
X34004200Y-98451407D01*
X34004200Y-97376858D01*
X34009150Y-97331292D01*
X34004200Y-97274712D01*
X34004200Y-97269337D01*
X33999835Y-97224825D01*
X33991460Y-97129091D01*
X33989933Y-97123836D01*
X33989400Y-97118397D01*
X33961639Y-97026449D01*
X33934831Y-96934176D01*
X33932315Y-96929322D01*
X33930734Y-96924086D01*
X33885622Y-96839243D01*
X33841423Y-96753974D01*
X33838106Y-96749878D01*
X33835444Y-96744871D01*
X33707159Y-96587577D01*
X33666211Y-96553702D01*
X33518221Y-96405712D01*
X33639082Y-96364214D01*
X33871223Y-96243626D01*
X34082991Y-96090050D01*
X34269732Y-95906860D01*
X34427345Y-95698080D01*
X34552368Y-95468296D01*
X34580723Y-95390600D01*
X35441553Y-95390600D01*
X35441553Y-97090600D01*
X35472879Y-97288385D01*
X35541190Y-97433554D01*
X35643458Y-97557174D01*
X35773255Y-97651477D01*
X35922427Y-97710539D01*
X36081600Y-97730647D01*
X37781600Y-97730647D01*
X37979385Y-97699321D01*
X38124554Y-97631010D01*
X38248174Y-97528742D01*
X38342477Y-97398945D01*
X38401539Y-97249773D01*
X38421647Y-97090600D01*
X38421647Y-95390600D01*
X38397510Y-95238200D01*
X39251553Y-95238200D01*
X39251553Y-96938200D01*
X39282879Y-97135985D01*
X39351190Y-97281154D01*
X39453458Y-97404774D01*
X39583255Y-97499077D01*
X39732427Y-97558139D01*
X39891600Y-97578247D01*
X41591600Y-97578247D01*
X41789385Y-97546921D01*
X41934554Y-97478610D01*
X42058174Y-97376342D01*
X42152477Y-97246545D01*
X42211539Y-97097373D01*
X42231647Y-96938200D01*
X42231647Y-95238200D01*
X42200321Y-95040415D01*
X42132010Y-94895246D01*
X42029742Y-94771626D01*
X41899945Y-94677323D01*
X41750773Y-94618261D01*
X41591600Y-94598153D01*
X39891600Y-94598153D01*
X39693815Y-94629479D01*
X39548646Y-94697790D01*
X39425026Y-94800058D01*
X39330723Y-94929855D01*
X39271661Y-95079027D01*
X39251553Y-95238200D01*
X38397510Y-95238200D01*
X38390321Y-95192815D01*
X38322010Y-95047646D01*
X38219742Y-94924026D01*
X38089945Y-94829723D01*
X37940773Y-94770661D01*
X37781600Y-94750553D01*
X36081600Y-94750553D01*
X35883815Y-94781879D01*
X35738646Y-94850190D01*
X35615026Y-94952458D01*
X35520723Y-95082255D01*
X35461661Y-95231427D01*
X35441553Y-95390600D01*
X34580723Y-95390600D01*
X34642052Y-95222557D01*
X34694429Y-94966261D01*
X34703995Y-94612739D01*
X34665555Y-94353986D01*
X34589291Y-94103756D01*
X34476878Y-93867548D01*
X34366943Y-93704254D01*
X34492470Y-93691061D01*
X34726958Y-93627352D01*
X34948244Y-93526972D01*
X35150634Y-93392504D01*
X35328922Y-93227408D01*
X35441553Y-93083247D01*
X35441553Y-93331400D01*
X35472879Y-93529185D01*
X35541190Y-93674354D01*
X35643458Y-93797974D01*
X35773255Y-93892277D01*
X35922427Y-93951339D01*
X36081600Y-93971447D01*
X37781600Y-93971447D01*
X37979385Y-93940121D01*
X38124554Y-93871810D01*
X38248174Y-93769542D01*
X38342477Y-93639745D01*
X38401539Y-93490573D01*
X38421647Y-93331400D01*
X38421647Y-91631400D01*
X38390321Y-91433615D01*
X38322010Y-91288446D01*
X38219742Y-91164826D01*
X38089945Y-91070523D01*
X37940773Y-91011461D01*
X37781600Y-90991353D01*
X36081600Y-90991353D01*
X35883815Y-91022679D01*
X35738646Y-91090990D01*
X35615026Y-91193258D01*
X35520723Y-91323055D01*
X35493506Y-91391796D01*
X35350152Y-91200171D01*
X35175361Y-91031377D01*
X34975831Y-90892700D01*
X34756696Y-90787708D01*
X34523594Y-90719102D01*
X34282521Y-90688647D01*
X34039680Y-90697128D01*
X33801319Y-90744324D01*
X33773799Y-90754559D01*
X33773799Y-89332989D01*
X35442816Y-89332989D01*
X35472879Y-89490585D01*
X35541190Y-89635754D01*
X35643458Y-89759374D01*
X35773255Y-89853677D01*
X35922427Y-89912739D01*
X36081600Y-89932847D01*
X36645850Y-89927800D01*
X36804600Y-89769050D01*
X36804600Y-88569800D01*
X37058600Y-88569800D01*
X37058600Y-89769050D01*
X37217350Y-89927800D01*
X37781600Y-89932847D01*
X37940773Y-89912739D01*
X38089945Y-89853677D01*
X38219742Y-89759374D01*
X38322010Y-89635754D01*
X38390321Y-89490585D01*
X38420384Y-89332989D01*
X39125816Y-89332989D01*
X39155879Y-89490585D01*
X39224190Y-89635754D01*
X39326458Y-89759374D01*
X39456255Y-89853677D01*
X39605427Y-89912739D01*
X39764600Y-89932847D01*
X40328850Y-89927800D01*
X40487600Y-89769050D01*
X40487600Y-88569800D01*
X40741600Y-88569800D01*
X40741600Y-89769050D01*
X40900350Y-89927800D01*
X41464600Y-89932847D01*
X41623773Y-89912739D01*
X41772945Y-89853677D01*
X41902742Y-89759374D01*
X42005010Y-89635754D01*
X42073321Y-89490585D01*
X42103384Y-89332989D01*
X42099600Y-88728550D01*
X41940850Y-88569800D01*
X40741600Y-88569800D01*
X40487600Y-88569800D01*
X39288350Y-88569800D01*
X39129600Y-88728550D01*
X39125816Y-89332989D01*
X38420384Y-89332989D01*
X38416600Y-88728550D01*
X38257850Y-88569800D01*
X37058600Y-88569800D01*
X36804600Y-88569800D01*
X35605350Y-88569800D01*
X35446600Y-88728550D01*
X35442816Y-89332989D01*
X33773799Y-89332989D01*
X33773799Y-89304111D01*
X35443329Y-87634581D01*
X35446600Y-88157050D01*
X35605350Y-88315800D01*
X36804600Y-88315800D01*
X36804600Y-87116550D01*
X37058600Y-87116550D01*
X37058600Y-88315800D01*
X38257850Y-88315800D01*
X38416600Y-88157050D01*
X38420384Y-87552611D01*
X39125816Y-87552611D01*
X39129600Y-88157050D01*
X39288350Y-88315800D01*
X40487600Y-88315800D01*
X40487600Y-87116550D01*
X40741600Y-87116550D01*
X40741600Y-88315800D01*
X41940850Y-88315800D01*
X42099600Y-88157050D01*
X42103384Y-87552611D01*
X42073321Y-87395015D01*
X42005010Y-87249846D01*
X41902742Y-87126226D01*
X41772945Y-87031923D01*
X41623773Y-86972861D01*
X41464600Y-86952753D01*
X40900350Y-86957800D01*
X40741600Y-87116550D01*
X40487600Y-87116550D01*
X40328850Y-86957800D01*
X39764600Y-86952753D01*
X39605427Y-86972861D01*
X39456255Y-87031923D01*
X39326458Y-87126226D01*
X39224190Y-87249846D01*
X39155879Y-87395015D01*
X39125816Y-87552611D01*
X38420384Y-87552611D01*
X38390321Y-87395015D01*
X38322010Y-87249846D01*
X38219742Y-87126226D01*
X38089945Y-87031923D01*
X37940773Y-86972861D01*
X37781600Y-86952753D01*
X37217350Y-86957800D01*
X37058600Y-87116550D01*
X36804600Y-87116550D01*
X36645850Y-86957800D01*
X36124772Y-86953139D01*
X36582132Y-86495779D01*
X36617855Y-86467057D01*
X36654365Y-86423546D01*
X36658163Y-86419748D01*
X36686539Y-86385203D01*
X36748324Y-86311570D01*
X36750960Y-86306775D01*
X36754429Y-86302552D01*
X36799801Y-86217932D01*
X36846107Y-86133702D01*
X36847761Y-86128486D01*
X36850344Y-86123670D01*
X36878417Y-86031849D01*
X36907480Y-85940230D01*
X36908031Y-85934985D01*
X36909688Y-85929566D01*
X36930201Y-85727631D01*
X36925200Y-85674727D01*
X36925200Y-85534746D01*
X36937985Y-85532721D01*
X37083154Y-85464410D01*
X37206774Y-85362142D01*
X37301077Y-85232345D01*
X37360139Y-85083173D01*
X37380247Y-84924000D01*
X37380247Y-83388200D01*
X43465166Y-83388200D01*
X43352262Y-83531162D01*
X43352262Y-83531162D01*
G37*
X43352262Y-83531162D02*
X43238222Y-83737744D01*
X43159454Y-83960179D01*
X43118072Y-84192492D01*
X43115190Y-84428444D01*
X43150883Y-84661698D01*
X43224193Y-84885991D01*
X43333151Y-85095298D01*
X43474832Y-85283999D01*
X43516600Y-85323914D01*
X43516600Y-85510434D01*
X43516601Y-85510444D01*
X43516601Y-87118370D01*
X43516600Y-88345686D01*
X40870935Y-90991353D01*
X39891600Y-90991353D01*
X39693815Y-91022679D01*
X39548646Y-91090990D01*
X39425026Y-91193258D01*
X39330723Y-91323055D01*
X39271661Y-91472227D01*
X39251553Y-91631400D01*
X39251553Y-93331400D01*
X39282879Y-93529185D01*
X39351190Y-93674354D01*
X39453458Y-93797974D01*
X39583255Y-93892277D01*
X39732427Y-93951339D01*
X39891600Y-93971447D01*
X41591600Y-93971447D01*
X41789385Y-93940121D01*
X41934554Y-93871810D01*
X42058174Y-93769542D01*
X42152477Y-93639745D01*
X42211539Y-93490573D01*
X42231647Y-93331400D01*
X42231647Y-93267157D01*
X42243300Y-93280657D01*
X42429440Y-93436847D01*
X42638157Y-93561267D01*
X42864083Y-93650718D01*
X43101403Y-93702896D01*
X43344013Y-93716460D01*
X43585670Y-93691061D01*
X43820158Y-93627352D01*
X44041444Y-93526972D01*
X44243834Y-93392504D01*
X44422122Y-93227408D01*
X44571721Y-93035930D01*
X44688782Y-92822997D01*
X44770293Y-92594088D01*
X44814157Y-92355091D01*
X44817032Y-92080506D01*
X44778183Y-91840643D01*
X44701484Y-91610077D01*
X44588908Y-91394739D01*
X44443352Y-91200171D01*
X44268561Y-91031377D01*
X44069031Y-90892700D01*
X43952731Y-90836978D01*
X45243532Y-89546177D01*
X45279255Y-89517455D01*
X45315765Y-89473944D01*
X45319564Y-89470145D01*
X45347933Y-89435607D01*
X45409724Y-89361968D01*
X45412361Y-89357171D01*
X45415829Y-89352949D01*
X45461209Y-89268316D01*
X45507507Y-89184100D01*
X45509160Y-89178889D01*
X45511745Y-89174068D01*
X45539840Y-89082172D01*
X45568880Y-88990628D01*
X45569431Y-88985386D01*
X45571089Y-88979963D01*
X45591601Y-88778028D01*
X45586600Y-88725125D01*
X45586600Y-88337783D01*
X45624090Y-88417454D01*
X45726358Y-88541074D01*
X45856155Y-88635377D01*
X46005327Y-88694439D01*
X46164500Y-88714547D01*
X46831250Y-88709500D01*
X46990000Y-88550750D01*
X46990000Y-87249000D01*
X46970000Y-87249000D01*
X46970000Y-86995000D01*
X46990000Y-86995000D01*
X46990000Y-85693250D01*
X46831250Y-85534500D01*
X46164500Y-85529453D01*
X46005327Y-85549561D01*
X45856155Y-85608623D01*
X45726358Y-85702926D01*
X45624090Y-85826546D01*
X45586600Y-85906217D01*
X45586600Y-85326482D01*
X45604689Y-85310022D01*
X45750938Y-85124838D01*
X45864978Y-84918256D01*
X45943746Y-84695821D01*
X45985128Y-84463508D01*
X45988010Y-84227556D01*
X45952317Y-83994302D01*
X45879007Y-83770009D01*
X45770049Y-83560702D01*
X45640531Y-83388200D01*
X51086037Y-83388200D01*
X50982086Y-83516569D01*
X50865531Y-83721743D01*
X50784051Y-83943199D01*
X50739835Y-84174988D01*
X50736802Y-84299087D01*
X49495617Y-85540273D01*
X49285260Y-85573590D01*
X49047612Y-85650807D01*
X48824969Y-85764249D01*
X48642857Y-85896561D01*
X48609910Y-85826546D01*
X48507642Y-85702926D01*
X48377845Y-85608623D01*
X48228673Y-85549561D01*
X48069500Y-85529453D01*
X47402750Y-85534500D01*
X47244000Y-85693250D01*
X47244000Y-86995000D01*
X47264000Y-86995000D01*
X47264000Y-87249000D01*
X47244000Y-87249000D01*
X47244000Y-88550750D01*
X47402750Y-88709500D01*
X48069500Y-88714547D01*
X48228673Y-88694439D01*
X48377845Y-88635377D01*
X48507642Y-88541074D01*
X48609910Y-88417454D01*
X48642857Y-88347439D01*
X48824969Y-88479751D01*
X49047612Y-88593193D01*
X49285260Y-88670410D01*
X49532061Y-88709499D01*
X49781939Y-88709499D01*
X50028740Y-88670410D01*
X50266388Y-88593193D01*
X50489031Y-88479751D01*
X50691186Y-88332877D01*
X50867877Y-88156186D01*
X51014751Y-87954031D01*
X51128193Y-87731388D01*
X51205410Y-87493740D01*
X51244499Y-87246939D01*
X51244499Y-86997061D01*
X51206455Y-86756856D01*
X52200047Y-85763263D01*
X52354563Y-85756247D01*
X52585376Y-85707186D01*
X52805076Y-85621086D01*
X53007765Y-85500260D01*
X53187997Y-85347951D01*
X53340934Y-85168251D01*
X53462467Y-84965986D01*
X53549333Y-84746587D01*
X53599199Y-84515947D01*
X53602553Y-84378713D01*
X53602553Y-84924000D01*
X53633879Y-85121785D01*
X53702190Y-85266954D01*
X53804458Y-85390574D01*
X53934255Y-85484877D01*
X53939464Y-85486939D01*
X53913083Y-85585393D01*
X53903347Y-85771171D01*
X53932450Y-85954914D01*
X53999118Y-86128593D01*
X54057601Y-86218648D01*
X54057601Y-86707286D01*
X51300072Y-89464816D01*
X51264344Y-89493542D01*
X51227829Y-89537059D01*
X51224036Y-89540852D01*
X51195699Y-89575350D01*
X51133875Y-89649029D01*
X51131238Y-89653826D01*
X51127770Y-89658048D01*
X51082408Y-89742648D01*
X51036092Y-89826898D01*
X51034438Y-89832114D01*
X51031855Y-89836930D01*
X51003782Y-89928751D01*
X50974719Y-90020370D01*
X50974168Y-90025615D01*
X50972511Y-90031034D01*
X50951998Y-90232969D01*
X50956999Y-90285873D01*
X50957000Y-91642634D01*
X50898990Y-91409972D01*
X50783742Y-91109742D01*
X50632765Y-90825794D01*
X50448308Y-90562362D01*
X50233121Y-90323373D01*
X49990414Y-90112391D01*
X49723803Y-89932559D01*
X49437263Y-89786560D01*
X49135067Y-89676569D01*
X48821718Y-89604227D01*
X48501889Y-89570612D01*
X48180347Y-89576224D01*
X47861886Y-89620981D01*
X47551253Y-89704215D01*
X47253079Y-89824685D01*
X46971809Y-89980595D01*
X46711637Y-90169622D01*
X46476440Y-90388946D01*
X46269725Y-90635299D01*
X46094574Y-90905008D01*
X45953598Y-91194052D01*
X45848899Y-91498122D01*
X45782036Y-91812686D01*
X45754008Y-92133053D01*
X45765231Y-92454448D01*
X45815539Y-92772079D01*
X45904181Y-93081212D01*
X46029837Y-93377238D01*
X46190632Y-93655744D01*
X46384171Y-93912578D01*
X46607566Y-94143911D01*
X46857489Y-94346295D01*
X47130214Y-94516712D01*
X47421674Y-94652622D01*
X47727525Y-94751999D01*
X48043208Y-94813362D01*
X48364015Y-94835795D01*
X48685165Y-94818964D01*
X49001871Y-94763120D01*
X49309409Y-94669096D01*
X49436999Y-94612289D01*
X49437000Y-96594534D01*
X49432049Y-96640109D01*
X49437000Y-96696700D01*
X49437000Y-96702064D01*
X49441356Y-96746486D01*
X49449739Y-96842309D01*
X49451267Y-96847568D01*
X49451800Y-96853004D01*
X49479542Y-96944890D01*
X49506368Y-97037224D01*
X49508886Y-97042082D01*
X49510466Y-97047315D01*
X49555558Y-97132122D01*
X49599776Y-97217426D01*
X49603094Y-97221523D01*
X49605756Y-97226530D01*
X49734041Y-97383824D01*
X49774989Y-97417699D01*
X50980453Y-98623164D01*
X50954046Y-98635590D01*
X50830426Y-98737858D01*
X50736123Y-98867655D01*
X50677061Y-99016827D01*
X50656953Y-99176000D01*
X50656953Y-100976000D01*
X50663257Y-101015800D01*
X45791536Y-101015800D01*
X45841564Y-100954895D01*
X45965816Y-100741409D01*
X46054337Y-100510804D01*
X46104850Y-100269012D01*
X46116055Y-100022255D01*
X46087664Y-99776880D01*
X46020408Y-99539201D01*
X45916016Y-99315333D01*
X45777175Y-99111035D01*
X45707789Y-99037662D01*
X45776170Y-99045513D01*
X46037612Y-99036612D01*
X46294866Y-98989165D01*
X46542282Y-98904214D01*
X46774423Y-98783626D01*
X46986191Y-98630050D01*
X47172932Y-98446860D01*
X47330545Y-98238080D01*
X47455568Y-98008296D01*
X47545252Y-97762557D01*
X47597629Y-97506261D01*
X47607195Y-97152739D01*
X47568755Y-96893986D01*
X47492491Y-96643756D01*
X47380078Y-96407548D01*
X47233986Y-96190549D01*
X47057425Y-95997528D01*
X46854272Y-95832725D01*
X46628992Y-95699760D01*
X46386532Y-95601554D01*
X46132220Y-95540264D01*
X45871642Y-95517237D01*
X45610523Y-95532979D01*
X45354599Y-95587144D01*
X45109492Y-95678542D01*
X44880587Y-95805165D01*
X44672912Y-95964232D01*
X44491030Y-96152248D01*
X44338936Y-96365083D01*
X44219971Y-96598060D01*
X44136750Y-96846063D01*
X44091100Y-97103642D01*
X44084024Y-97365140D01*
X44115678Y-97624811D01*
X44185366Y-97876951D01*
X44291557Y-98116021D01*
X44431918Y-98336770D01*
X44603366Y-98534346D01*
X44611143Y-98541000D01*
X44514943Y-98541000D01*
X44330784Y-98555817D01*
X44090903Y-98614738D01*
X43863527Y-98711253D01*
X43654508Y-98842879D01*
X43469222Y-99006231D01*
X43312436Y-99197105D01*
X43188184Y-99410591D01*
X43099663Y-99641196D01*
X43049150Y-99882988D01*
X43037945Y-100129745D01*
X43066336Y-100375120D01*
X43133592Y-100612799D01*
X43237984Y-100836667D01*
X43359723Y-101015800D01*
X37481847Y-101015800D01*
X37481847Y-99327600D01*
X37450521Y-99129815D01*
X37382210Y-98984646D01*
X37279942Y-98861026D01*
X37150145Y-98766723D01*
X37000973Y-98707661D01*
X36841800Y-98687553D01*
X35141800Y-98687553D01*
X34944015Y-98718879D01*
X34798846Y-98787190D01*
X34676263Y-98888600D01*
X34479819Y-98888600D01*
X34477921Y-98876615D01*
X34409610Y-98731446D01*
X34307342Y-98607826D01*
X34177545Y-98513523D01*
X34028373Y-98454461D01*
X34004200Y-98451407D01*
X34004200Y-97376858D01*
X34009150Y-97331292D01*
X34004200Y-97274712D01*
X34004200Y-97269337D01*
X33999835Y-97224825D01*
X33991460Y-97129091D01*
X33989933Y-97123836D01*
X33989400Y-97118397D01*
X33961639Y-97026449D01*
X33934831Y-96934176D01*
X33932315Y-96929322D01*
X33930734Y-96924086D01*
X33885622Y-96839243D01*
X33841423Y-96753974D01*
X33838106Y-96749878D01*
X33835444Y-96744871D01*
X33707159Y-96587577D01*
X33666211Y-96553702D01*
X33518221Y-96405712D01*
X33639082Y-96364214D01*
X33871223Y-96243626D01*
X34082991Y-96090050D01*
X34269732Y-95906860D01*
X34427345Y-95698080D01*
X34552368Y-95468296D01*
X34580723Y-95390600D01*
X35441553Y-95390600D01*
X35441553Y-97090600D01*
X35472879Y-97288385D01*
X35541190Y-97433554D01*
X35643458Y-97557174D01*
X35773255Y-97651477D01*
X35922427Y-97710539D01*
X36081600Y-97730647D01*
X37781600Y-97730647D01*
X37979385Y-97699321D01*
X38124554Y-97631010D01*
X38248174Y-97528742D01*
X38342477Y-97398945D01*
X38401539Y-97249773D01*
X38421647Y-97090600D01*
X38421647Y-95390600D01*
X38397510Y-95238200D01*
X39251553Y-95238200D01*
X39251553Y-96938200D01*
X39282879Y-97135985D01*
X39351190Y-97281154D01*
X39453458Y-97404774D01*
X39583255Y-97499077D01*
X39732427Y-97558139D01*
X39891600Y-97578247D01*
X41591600Y-97578247D01*
X41789385Y-97546921D01*
X41934554Y-97478610D01*
X42058174Y-97376342D01*
X42152477Y-97246545D01*
X42211539Y-97097373D01*
X42231647Y-96938200D01*
X42231647Y-95238200D01*
X42200321Y-95040415D01*
X42132010Y-94895246D01*
X42029742Y-94771626D01*
X41899945Y-94677323D01*
X41750773Y-94618261D01*
X41591600Y-94598153D01*
X39891600Y-94598153D01*
X39693815Y-94629479D01*
X39548646Y-94697790D01*
X39425026Y-94800058D01*
X39330723Y-94929855D01*
X39271661Y-95079027D01*
X39251553Y-95238200D01*
X38397510Y-95238200D01*
X38390321Y-95192815D01*
X38322010Y-95047646D01*
X38219742Y-94924026D01*
X38089945Y-94829723D01*
X37940773Y-94770661D01*
X37781600Y-94750553D01*
X36081600Y-94750553D01*
X35883815Y-94781879D01*
X35738646Y-94850190D01*
X35615026Y-94952458D01*
X35520723Y-95082255D01*
X35461661Y-95231427D01*
X35441553Y-95390600D01*
X34580723Y-95390600D01*
X34642052Y-95222557D01*
X34694429Y-94966261D01*
X34703995Y-94612739D01*
X34665555Y-94353986D01*
X34589291Y-94103756D01*
X34476878Y-93867548D01*
X34366943Y-93704254D01*
X34492470Y-93691061D01*
X34726958Y-93627352D01*
X34948244Y-93526972D01*
X35150634Y-93392504D01*
X35328922Y-93227408D01*
X35441553Y-93083247D01*
X35441553Y-93331400D01*
X35472879Y-93529185D01*
X35541190Y-93674354D01*
X35643458Y-93797974D01*
X35773255Y-93892277D01*
X35922427Y-93951339D01*
X36081600Y-93971447D01*
X37781600Y-93971447D01*
X37979385Y-93940121D01*
X38124554Y-93871810D01*
X38248174Y-93769542D01*
X38342477Y-93639745D01*
X38401539Y-93490573D01*
X38421647Y-93331400D01*
X38421647Y-91631400D01*
X38390321Y-91433615D01*
X38322010Y-91288446D01*
X38219742Y-91164826D01*
X38089945Y-91070523D01*
X37940773Y-91011461D01*
X37781600Y-90991353D01*
X36081600Y-90991353D01*
X35883815Y-91022679D01*
X35738646Y-91090990D01*
X35615026Y-91193258D01*
X35520723Y-91323055D01*
X35493506Y-91391796D01*
X35350152Y-91200171D01*
X35175361Y-91031377D01*
X34975831Y-90892700D01*
X34756696Y-90787708D01*
X34523594Y-90719102D01*
X34282521Y-90688647D01*
X34039680Y-90697128D01*
X33801319Y-90744324D01*
X33773799Y-90754559D01*
X33773799Y-89332989D01*
X35442816Y-89332989D01*
X35472879Y-89490585D01*
X35541190Y-89635754D01*
X35643458Y-89759374D01*
X35773255Y-89853677D01*
X35922427Y-89912739D01*
X36081600Y-89932847D01*
X36645850Y-89927800D01*
X36804600Y-89769050D01*
X36804600Y-88569800D01*
X37058600Y-88569800D01*
X37058600Y-89769050D01*
X37217350Y-89927800D01*
X37781600Y-89932847D01*
X37940773Y-89912739D01*
X38089945Y-89853677D01*
X38219742Y-89759374D01*
X38322010Y-89635754D01*
X38390321Y-89490585D01*
X38420384Y-89332989D01*
X39125816Y-89332989D01*
X39155879Y-89490585D01*
X39224190Y-89635754D01*
X39326458Y-89759374D01*
X39456255Y-89853677D01*
X39605427Y-89912739D01*
X39764600Y-89932847D01*
X40328850Y-89927800D01*
X40487600Y-89769050D01*
X40487600Y-88569800D01*
X40741600Y-88569800D01*
X40741600Y-89769050D01*
X40900350Y-89927800D01*
X41464600Y-89932847D01*
X41623773Y-89912739D01*
X41772945Y-89853677D01*
X41902742Y-89759374D01*
X42005010Y-89635754D01*
X42073321Y-89490585D01*
X42103384Y-89332989D01*
X42099600Y-88728550D01*
X41940850Y-88569800D01*
X40741600Y-88569800D01*
X40487600Y-88569800D01*
X39288350Y-88569800D01*
X39129600Y-88728550D01*
X39125816Y-89332989D01*
X38420384Y-89332989D01*
X38416600Y-88728550D01*
X38257850Y-88569800D01*
X37058600Y-88569800D01*
X36804600Y-88569800D01*
X35605350Y-88569800D01*
X35446600Y-88728550D01*
X35442816Y-89332989D01*
X33773799Y-89332989D01*
X33773799Y-89304111D01*
X35443329Y-87634581D01*
X35446600Y-88157050D01*
X35605350Y-88315800D01*
X36804600Y-88315800D01*
X36804600Y-87116550D01*
X37058600Y-87116550D01*
X37058600Y-88315800D01*
X38257850Y-88315800D01*
X38416600Y-88157050D01*
X38420384Y-87552611D01*
X39125816Y-87552611D01*
X39129600Y-88157050D01*
X39288350Y-88315800D01*
X40487600Y-88315800D01*
X40487600Y-87116550D01*
X40741600Y-87116550D01*
X40741600Y-88315800D01*
X41940850Y-88315800D01*
X42099600Y-88157050D01*
X42103384Y-87552611D01*
X42073321Y-87395015D01*
X42005010Y-87249846D01*
X41902742Y-87126226D01*
X41772945Y-87031923D01*
X41623773Y-86972861D01*
X41464600Y-86952753D01*
X40900350Y-86957800D01*
X40741600Y-87116550D01*
X40487600Y-87116550D01*
X40328850Y-86957800D01*
X39764600Y-86952753D01*
X39605427Y-86972861D01*
X39456255Y-87031923D01*
X39326458Y-87126226D01*
X39224190Y-87249846D01*
X39155879Y-87395015D01*
X39125816Y-87552611D01*
X38420384Y-87552611D01*
X38390321Y-87395015D01*
X38322010Y-87249846D01*
X38219742Y-87126226D01*
X38089945Y-87031923D01*
X37940773Y-86972861D01*
X37781600Y-86952753D01*
X37217350Y-86957800D01*
X37058600Y-87116550D01*
X36804600Y-87116550D01*
X36645850Y-86957800D01*
X36124772Y-86953139D01*
X36582132Y-86495779D01*
X36617855Y-86467057D01*
X36654365Y-86423546D01*
X36658163Y-86419748D01*
X36686539Y-86385203D01*
X36748324Y-86311570D01*
X36750960Y-86306775D01*
X36754429Y-86302552D01*
X36799801Y-86217932D01*
X36846107Y-86133702D01*
X36847761Y-86128486D01*
X36850344Y-86123670D01*
X36878417Y-86031849D01*
X36907480Y-85940230D01*
X36908031Y-85934985D01*
X36909688Y-85929566D01*
X36930201Y-85727631D01*
X36925200Y-85674727D01*
X36925200Y-85534746D01*
X36937985Y-85532721D01*
X37083154Y-85464410D01*
X37206774Y-85362142D01*
X37301077Y-85232345D01*
X37360139Y-85083173D01*
X37380247Y-84924000D01*
X37380247Y-83388200D01*
X43465166Y-83388200D01*
X43352262Y-83531162D01*
G36*
X81858662Y-83531162D02*
G01*
X81744622Y-83737744D01*
X81665854Y-83960179D01*
X81624472Y-84192492D01*
X81621590Y-84428444D01*
X81657283Y-84661698D01*
X81730593Y-84885991D01*
X81839551Y-85095298D01*
X81981232Y-85283999D01*
X82023000Y-85323914D01*
X82023000Y-87618066D01*
X82023001Y-87618074D01*
X82023001Y-87887088D01*
X80608474Y-89301615D01*
X80606000Y-88906350D01*
X80447250Y-88747600D01*
X79248000Y-88747600D01*
X79248000Y-89946850D01*
X79406750Y-90105600D01*
X79800964Y-90109126D01*
X79147337Y-90762753D01*
X78271000Y-90762753D01*
X78073215Y-90794079D01*
X77928046Y-90862390D01*
X77804426Y-90964658D01*
X77710123Y-91094455D01*
X77651061Y-91243627D01*
X77630953Y-91402800D01*
X77630953Y-93102800D01*
X77662279Y-93300585D01*
X77730590Y-93445754D01*
X77832858Y-93569374D01*
X77962655Y-93663677D01*
X78111827Y-93722739D01*
X78271000Y-93742847D01*
X79971000Y-93742847D01*
X80168785Y-93711521D01*
X80313954Y-93643210D01*
X80437574Y-93540942D01*
X80531877Y-93411145D01*
X80590939Y-93261973D01*
X80605906Y-93143496D01*
X80724300Y-93280657D01*
X80910440Y-93436847D01*
X81119157Y-93561267D01*
X81345083Y-93650718D01*
X81582403Y-93702896D01*
X81825013Y-93716460D01*
X82066670Y-93691061D01*
X82301158Y-93627352D01*
X82522444Y-93526972D01*
X82724834Y-93392504D01*
X82903122Y-93227408D01*
X83052721Y-93035930D01*
X83169782Y-92822997D01*
X83251293Y-92594088D01*
X83295157Y-92355091D01*
X83298032Y-92080506D01*
X83259183Y-91840643D01*
X83182484Y-91610077D01*
X83069908Y-91394739D01*
X82924352Y-91200171D01*
X82749561Y-91031377D01*
X82550031Y-90892700D01*
X82330896Y-90787708D01*
X82113721Y-90723790D01*
X83749932Y-89087579D01*
X83785655Y-89058857D01*
X83822165Y-89015346D01*
X83825964Y-89011547D01*
X83854345Y-88976996D01*
X83916124Y-88903370D01*
X83918760Y-88898576D01*
X83922229Y-88894352D01*
X83967621Y-88809697D01*
X84013907Y-88725502D01*
X84015560Y-88720291D01*
X84018145Y-88715470D01*
X84046240Y-88623574D01*
X84075280Y-88532030D01*
X84075831Y-88526788D01*
X84077489Y-88521365D01*
X84091070Y-88387661D01*
X84105090Y-88417454D01*
X84207358Y-88541074D01*
X84337155Y-88635377D01*
X84486327Y-88694439D01*
X84645500Y-88714547D01*
X85312250Y-88709500D01*
X85471000Y-88550750D01*
X85471000Y-87249000D01*
X85451000Y-87249000D01*
X85451000Y-86995000D01*
X85471000Y-86995000D01*
X85471000Y-85693250D01*
X85312250Y-85534500D01*
X84645500Y-85529453D01*
X84486327Y-85549561D01*
X84337155Y-85608623D01*
X84207358Y-85702926D01*
X84105090Y-85826546D01*
X84093000Y-85852239D01*
X84093000Y-85326482D01*
X84111089Y-85310022D01*
X84257338Y-85124838D01*
X84371378Y-84918256D01*
X84450146Y-84695821D01*
X84491528Y-84463508D01*
X84494410Y-84227556D01*
X84458717Y-83994302D01*
X84385407Y-83770009D01*
X84276449Y-83560702D01*
X84146931Y-83388200D01*
X89592437Y-83388200D01*
X89488486Y-83516569D01*
X89371931Y-83721743D01*
X89290451Y-83943199D01*
X89246235Y-84174988D01*
X89240470Y-84410887D01*
X89258329Y-84537961D01*
X88261789Y-85534501D01*
X88013061Y-85534501D01*
X87766260Y-85573590D01*
X87528612Y-85650807D01*
X87305969Y-85764249D01*
X87123857Y-85896561D01*
X87090910Y-85826546D01*
X86988642Y-85702926D01*
X86858845Y-85608623D01*
X86709673Y-85549561D01*
X86550500Y-85529453D01*
X85883750Y-85534500D01*
X85725000Y-85693250D01*
X85725000Y-86995000D01*
X85745000Y-86995000D01*
X85745000Y-87249000D01*
X85725000Y-87249000D01*
X85725000Y-88550750D01*
X85883750Y-88709500D01*
X86550500Y-88714547D01*
X86709673Y-88694439D01*
X86858845Y-88635377D01*
X86988642Y-88541074D01*
X87090910Y-88417454D01*
X87123857Y-88347439D01*
X87305969Y-88479751D01*
X87528612Y-88593193D01*
X87766260Y-88670410D01*
X88013061Y-88709499D01*
X88262939Y-88709499D01*
X88509740Y-88670410D01*
X88747388Y-88593193D01*
X88970031Y-88479751D01*
X89172186Y-88332877D01*
X89348877Y-88156186D01*
X89495751Y-87954031D01*
X89609193Y-87731388D01*
X89686410Y-87493740D01*
X89725499Y-87246939D01*
X89725499Y-86998211D01*
X90996212Y-85727499D01*
X91091776Y-85707186D01*
X91311476Y-85621086D01*
X91514165Y-85500260D01*
X91694397Y-85347951D01*
X91847334Y-85168251D01*
X91968867Y-84965986D01*
X92055733Y-84746587D01*
X92105599Y-84515947D01*
X92113076Y-84210015D01*
X92074536Y-83977214D01*
X91998491Y-83753834D01*
X91886984Y-83545873D01*
X91765559Y-83388200D01*
X92134353Y-83388200D01*
X92134353Y-84924000D01*
X92165679Y-85121785D01*
X92233990Y-85266954D01*
X92336258Y-85390574D01*
X92427688Y-85457002D01*
X89781068Y-88103622D01*
X89745345Y-88132344D01*
X89708835Y-88175855D01*
X89705036Y-88179654D01*
X89676653Y-88214208D01*
X89614876Y-88287831D01*
X89612241Y-88292625D01*
X89608770Y-88296850D01*
X89563380Y-88381503D01*
X89517093Y-88465699D01*
X89515439Y-88470912D01*
X89512855Y-88475732D01*
X89484764Y-88567613D01*
X89455720Y-88659171D01*
X89455169Y-88664413D01*
X89453511Y-88669836D01*
X89432998Y-88871771D01*
X89438000Y-88924685D01*
X89437999Y-91642634D01*
X89379990Y-91409972D01*
X89264742Y-91109742D01*
X89113765Y-90825794D01*
X88929308Y-90562362D01*
X88714121Y-90323373D01*
X88471414Y-90112391D01*
X88204803Y-89932559D01*
X87918263Y-89786560D01*
X87616067Y-89676569D01*
X87302718Y-89604227D01*
X86982889Y-89570612D01*
X86661347Y-89576224D01*
X86342886Y-89620981D01*
X86032253Y-89704215D01*
X85734079Y-89824685D01*
X85452809Y-89980595D01*
X85192637Y-90169622D01*
X84957440Y-90388946D01*
X84750725Y-90635299D01*
X84575574Y-90905008D01*
X84434598Y-91194052D01*
X84329899Y-91498122D01*
X84263036Y-91812686D01*
X84235008Y-92133053D01*
X84246231Y-92454448D01*
X84296539Y-92772079D01*
X84385181Y-93081212D01*
X84510837Y-93377238D01*
X84671632Y-93655744D01*
X84865171Y-93912578D01*
X85088566Y-94143911D01*
X85338489Y-94346295D01*
X85611214Y-94516712D01*
X85902674Y-94652622D01*
X86208525Y-94751999D01*
X86524208Y-94813362D01*
X86845015Y-94835795D01*
X87166165Y-94818964D01*
X87482871Y-94763120D01*
X87790409Y-94669096D01*
X87918000Y-94612289D01*
X87917999Y-95513545D01*
X87913049Y-95559111D01*
X87917999Y-95615690D01*
X87917999Y-95621065D01*
X87922363Y-95665573D01*
X87930739Y-95761311D01*
X87932266Y-95766566D01*
X87932799Y-95772005D01*
X87960560Y-95863953D01*
X87987368Y-95956226D01*
X87989884Y-95961080D01*
X87991465Y-95966316D01*
X88036586Y-96051178D01*
X88080776Y-96136428D01*
X88084091Y-96140522D01*
X88086755Y-96145532D01*
X88215040Y-96302826D01*
X88255994Y-96336706D01*
X89643001Y-97723714D01*
X89643001Y-98481135D01*
X89580215Y-98491079D01*
X89435046Y-98559390D01*
X89311426Y-98661658D01*
X89217123Y-98791455D01*
X89158061Y-98940627D01*
X89137953Y-99099800D01*
X89137953Y-100899800D01*
X89156326Y-101015800D01*
X84209944Y-101015800D01*
X84322564Y-100878695D01*
X84446816Y-100665209D01*
X84535337Y-100434604D01*
X84585850Y-100192812D01*
X84597055Y-99946055D01*
X84568664Y-99700680D01*
X84501408Y-99463001D01*
X84397016Y-99239133D01*
X84265245Y-99045238D01*
X84518612Y-99036612D01*
X84775866Y-98989165D01*
X85023282Y-98904214D01*
X85255423Y-98783626D01*
X85467191Y-98630050D01*
X85653932Y-98446860D01*
X85811545Y-98238080D01*
X85936568Y-98008296D01*
X86026252Y-97762557D01*
X86078629Y-97506261D01*
X86088195Y-97152739D01*
X86049755Y-96893986D01*
X85973491Y-96643756D01*
X85861078Y-96407548D01*
X85714986Y-96190549D01*
X85538425Y-95997528D01*
X85335272Y-95832725D01*
X85109992Y-95699760D01*
X84867532Y-95601554D01*
X84613220Y-95540264D01*
X84352642Y-95517237D01*
X84091523Y-95532979D01*
X83835599Y-95587144D01*
X83590492Y-95678542D01*
X83361587Y-95805165D01*
X83153912Y-95964232D01*
X82972030Y-96152248D01*
X82819936Y-96365083D01*
X82700971Y-96598060D01*
X82617750Y-96846063D01*
X82572100Y-97103642D01*
X82565024Y-97365140D01*
X82596678Y-97624811D01*
X82666366Y-97876951D01*
X82772557Y-98116021D01*
X82912918Y-98336770D01*
X83024017Y-98464800D01*
X82995943Y-98464800D01*
X82811784Y-98479617D01*
X82571903Y-98538538D01*
X82344527Y-98635053D01*
X82135508Y-98766679D01*
X81950222Y-98930031D01*
X81793436Y-99120905D01*
X81669184Y-99334391D01*
X81580663Y-99564996D01*
X81530150Y-99806788D01*
X81518945Y-100053545D01*
X81547336Y-100298920D01*
X81614592Y-100536599D01*
X81718984Y-100760467D01*
X81857825Y-100964765D01*
X81906086Y-101015800D01*
X75962847Y-101015800D01*
X75962847Y-99327600D01*
X75931521Y-99129815D01*
X75863210Y-98984646D01*
X75760942Y-98861026D01*
X75631145Y-98766723D01*
X75481973Y-98707661D01*
X75322800Y-98687553D01*
X73622800Y-98687553D01*
X73425015Y-98718879D01*
X73279846Y-98787190D01*
X73156226Y-98889458D01*
X73061923Y-99019255D01*
X73013087Y-99142600D01*
X72990247Y-99142600D01*
X72990247Y-99074400D01*
X72958921Y-98876615D01*
X72890610Y-98731446D01*
X72788342Y-98607826D01*
X72658545Y-98513523D01*
X72509373Y-98454461D01*
X72485200Y-98451407D01*
X72485200Y-98330856D01*
X72490150Y-98285290D01*
X72485200Y-98228710D01*
X72485200Y-98223335D01*
X72480835Y-98178823D01*
X72472460Y-98083089D01*
X72470933Y-98077834D01*
X72470400Y-98072395D01*
X72442639Y-97980447D01*
X72415831Y-97888174D01*
X72413315Y-97883320D01*
X72411734Y-97878084D01*
X72366622Y-97793241D01*
X72322423Y-97707972D01*
X72319106Y-97703876D01*
X72316444Y-97698869D01*
X72188159Y-97541575D01*
X72147211Y-97507700D01*
X71113602Y-96474091D01*
X71119484Y-96475673D01*
X71379370Y-96505513D01*
X71640812Y-96496612D01*
X71898066Y-96449165D01*
X72145482Y-96364214D01*
X72377623Y-96243626D01*
X72589391Y-96090050D01*
X72776132Y-95906860D01*
X72933745Y-95698080D01*
X73058768Y-95468296D01*
X73105663Y-95339800D01*
X73871753Y-95339800D01*
X73871753Y-97039800D01*
X73903079Y-97237585D01*
X73971390Y-97382754D01*
X74073658Y-97506374D01*
X74203455Y-97600677D01*
X74352627Y-97659739D01*
X74511800Y-97679847D01*
X76211800Y-97679847D01*
X76409585Y-97648521D01*
X76554754Y-97580210D01*
X76678374Y-97477942D01*
X76772677Y-97348145D01*
X76831739Y-97198973D01*
X76851847Y-97039800D01*
X76851847Y-95339800D01*
X77630953Y-95339800D01*
X77630953Y-97039800D01*
X77662279Y-97237585D01*
X77730590Y-97382754D01*
X77832858Y-97506374D01*
X77962655Y-97600677D01*
X78111827Y-97659739D01*
X78271000Y-97679847D01*
X79971000Y-97679847D01*
X80168785Y-97648521D01*
X80313954Y-97580210D01*
X80437574Y-97477942D01*
X80531877Y-97348145D01*
X80590939Y-97198973D01*
X80611047Y-97039800D01*
X80611047Y-95339800D01*
X80579721Y-95142015D01*
X80511410Y-94996846D01*
X80409142Y-94873226D01*
X80279345Y-94778923D01*
X80130173Y-94719861D01*
X79971000Y-94699753D01*
X78271000Y-94699753D01*
X78073215Y-94731079D01*
X77928046Y-94799390D01*
X77804426Y-94901658D01*
X77710123Y-95031455D01*
X77651061Y-95180627D01*
X77630953Y-95339800D01*
X76851847Y-95339800D01*
X76820521Y-95142015D01*
X76752210Y-94996846D01*
X76649942Y-94873226D01*
X76520145Y-94778923D01*
X76370973Y-94719861D01*
X76211800Y-94699753D01*
X74511800Y-94699753D01*
X74314015Y-94731079D01*
X74168846Y-94799390D01*
X74045226Y-94901658D01*
X73950923Y-95031455D01*
X73891861Y-95180627D01*
X73871753Y-95339800D01*
X73105663Y-95339800D01*
X73148452Y-95222557D01*
X73200829Y-94966261D01*
X73210395Y-94612739D01*
X73171955Y-94353986D01*
X73095691Y-94103756D01*
X72983278Y-93867548D01*
X72873343Y-93704254D01*
X72998870Y-93691061D01*
X73233358Y-93627352D01*
X73454644Y-93526972D01*
X73657034Y-93392504D01*
X73835322Y-93227408D01*
X73952068Y-93077980D01*
X73979279Y-93249785D01*
X74047590Y-93394954D01*
X74149858Y-93518574D01*
X74279655Y-93612877D01*
X74428827Y-93671939D01*
X74588000Y-93692047D01*
X76288000Y-93692047D01*
X76485785Y-93660721D01*
X76630954Y-93592410D01*
X76754574Y-93490142D01*
X76848877Y-93360345D01*
X76907939Y-93211173D01*
X76928047Y-93052000D01*
X76928047Y-91352000D01*
X76896721Y-91154215D01*
X76828410Y-91009046D01*
X76726142Y-90885426D01*
X76596345Y-90791123D01*
X76447173Y-90732061D01*
X76288000Y-90711953D01*
X74588000Y-90711953D01*
X74390215Y-90743279D01*
X74245046Y-90811590D01*
X74121426Y-90913858D01*
X74027123Y-91043655D01*
X73968061Y-91192827D01*
X73951158Y-91326632D01*
X73856552Y-91200171D01*
X73681761Y-91031377D01*
X73482231Y-90892700D01*
X73263096Y-90787708D01*
X73029994Y-90719102D01*
X72788921Y-90688647D01*
X72546080Y-90697128D01*
X72307719Y-90744324D01*
X72280199Y-90754559D01*
X72280199Y-89459989D01*
X73949216Y-89459989D01*
X73979279Y-89617585D01*
X74047590Y-89762754D01*
X74149858Y-89886374D01*
X74279655Y-89980677D01*
X74428827Y-90039739D01*
X74588000Y-90059847D01*
X75152250Y-90054800D01*
X75311000Y-89896050D01*
X75311000Y-88696800D01*
X75565000Y-88696800D01*
X75565000Y-89896050D01*
X75723750Y-90054800D01*
X76288000Y-90059847D01*
X76447173Y-90039739D01*
X76596345Y-89980677D01*
X76726142Y-89886374D01*
X76828410Y-89762754D01*
X76896721Y-89617585D01*
X76917093Y-89510789D01*
X77632216Y-89510789D01*
X77662279Y-89668385D01*
X77730590Y-89813554D01*
X77832858Y-89937174D01*
X77962655Y-90031477D01*
X78111827Y-90090539D01*
X78271000Y-90110647D01*
X78835250Y-90105600D01*
X78994000Y-89946850D01*
X78994000Y-88747600D01*
X77794750Y-88747600D01*
X77636000Y-88906350D01*
X77632216Y-89510789D01*
X76917093Y-89510789D01*
X76926784Y-89459989D01*
X76923000Y-88855550D01*
X76764250Y-88696800D01*
X75565000Y-88696800D01*
X75311000Y-88696800D01*
X74111750Y-88696800D01*
X73953000Y-88855550D01*
X73949216Y-89459989D01*
X72280199Y-89459989D01*
X72280199Y-89278711D01*
X73965697Y-87593213D01*
X73949216Y-87679611D01*
X73953000Y-88284050D01*
X74111750Y-88442800D01*
X75311000Y-88442800D01*
X75311000Y-87243550D01*
X75565000Y-87243550D01*
X75565000Y-88442800D01*
X76764250Y-88442800D01*
X76923000Y-88284050D01*
X76926465Y-87730411D01*
X77632216Y-87730411D01*
X77636000Y-88334850D01*
X77794750Y-88493600D01*
X78994000Y-88493600D01*
X78994000Y-87294350D01*
X79248000Y-87294350D01*
X79248000Y-88493600D01*
X80447250Y-88493600D01*
X80606000Y-88334850D01*
X80609784Y-87730411D01*
X80579721Y-87572815D01*
X80511410Y-87427646D01*
X80409142Y-87304026D01*
X80279345Y-87209723D01*
X80130173Y-87150661D01*
X79971000Y-87130553D01*
X79406750Y-87135600D01*
X79248000Y-87294350D01*
X78994000Y-87294350D01*
X78835250Y-87135600D01*
X78271000Y-87130553D01*
X78111827Y-87150661D01*
X77962655Y-87209723D01*
X77832858Y-87304026D01*
X77730590Y-87427646D01*
X77662279Y-87572815D01*
X77632216Y-87730411D01*
X76926465Y-87730411D01*
X76926784Y-87679611D01*
X76896721Y-87522015D01*
X76828410Y-87376846D01*
X76726142Y-87253226D01*
X76596345Y-87158923D01*
X76447173Y-87099861D01*
X76288000Y-87079753D01*
X75723750Y-87084800D01*
X75565000Y-87243550D01*
X75311000Y-87243550D01*
X75152250Y-87084800D01*
X74588000Y-87079753D01*
X74463420Y-87095491D01*
X75063132Y-86495779D01*
X75098855Y-86467057D01*
X75135365Y-86423546D01*
X75139163Y-86419748D01*
X75167539Y-86385203D01*
X75229324Y-86311570D01*
X75231960Y-86306775D01*
X75235429Y-86302552D01*
X75280801Y-86217932D01*
X75327107Y-86133702D01*
X75328761Y-86128486D01*
X75331344Y-86123670D01*
X75359417Y-86031849D01*
X75388480Y-85940230D01*
X75389031Y-85934985D01*
X75390688Y-85929566D01*
X75411201Y-85727631D01*
X75406200Y-85674727D01*
X75406200Y-85534746D01*
X75418985Y-85532721D01*
X75564154Y-85464410D01*
X75687774Y-85362142D01*
X75782077Y-85232345D01*
X75841139Y-85083173D01*
X75861247Y-84924000D01*
X75861247Y-83388200D01*
X81971566Y-83388200D01*
X81858662Y-83531162D01*
X81858662Y-83531162D01*
G37*
X81858662Y-83531162D02*
X81744622Y-83737744D01*
X81665854Y-83960179D01*
X81624472Y-84192492D01*
X81621590Y-84428444D01*
X81657283Y-84661698D01*
X81730593Y-84885991D01*
X81839551Y-85095298D01*
X81981232Y-85283999D01*
X82023000Y-85323914D01*
X82023000Y-87618066D01*
X82023001Y-87618074D01*
X82023001Y-87887088D01*
X80608474Y-89301615D01*
X80606000Y-88906350D01*
X80447250Y-88747600D01*
X79248000Y-88747600D01*
X79248000Y-89946850D01*
X79406750Y-90105600D01*
X79800964Y-90109126D01*
X79147337Y-90762753D01*
X78271000Y-90762753D01*
X78073215Y-90794079D01*
X77928046Y-90862390D01*
X77804426Y-90964658D01*
X77710123Y-91094455D01*
X77651061Y-91243627D01*
X77630953Y-91402800D01*
X77630953Y-93102800D01*
X77662279Y-93300585D01*
X77730590Y-93445754D01*
X77832858Y-93569374D01*
X77962655Y-93663677D01*
X78111827Y-93722739D01*
X78271000Y-93742847D01*
X79971000Y-93742847D01*
X80168785Y-93711521D01*
X80313954Y-93643210D01*
X80437574Y-93540942D01*
X80531877Y-93411145D01*
X80590939Y-93261973D01*
X80605906Y-93143496D01*
X80724300Y-93280657D01*
X80910440Y-93436847D01*
X81119157Y-93561267D01*
X81345083Y-93650718D01*
X81582403Y-93702896D01*
X81825013Y-93716460D01*
X82066670Y-93691061D01*
X82301158Y-93627352D01*
X82522444Y-93526972D01*
X82724834Y-93392504D01*
X82903122Y-93227408D01*
X83052721Y-93035930D01*
X83169782Y-92822997D01*
X83251293Y-92594088D01*
X83295157Y-92355091D01*
X83298032Y-92080506D01*
X83259183Y-91840643D01*
X83182484Y-91610077D01*
X83069908Y-91394739D01*
X82924352Y-91200171D01*
X82749561Y-91031377D01*
X82550031Y-90892700D01*
X82330896Y-90787708D01*
X82113721Y-90723790D01*
X83749932Y-89087579D01*
X83785655Y-89058857D01*
X83822165Y-89015346D01*
X83825964Y-89011547D01*
X83854345Y-88976996D01*
X83916124Y-88903370D01*
X83918760Y-88898576D01*
X83922229Y-88894352D01*
X83967621Y-88809697D01*
X84013907Y-88725502D01*
X84015560Y-88720291D01*
X84018145Y-88715470D01*
X84046240Y-88623574D01*
X84075280Y-88532030D01*
X84075831Y-88526788D01*
X84077489Y-88521365D01*
X84091070Y-88387661D01*
X84105090Y-88417454D01*
X84207358Y-88541074D01*
X84337155Y-88635377D01*
X84486327Y-88694439D01*
X84645500Y-88714547D01*
X85312250Y-88709500D01*
X85471000Y-88550750D01*
X85471000Y-87249000D01*
X85451000Y-87249000D01*
X85451000Y-86995000D01*
X85471000Y-86995000D01*
X85471000Y-85693250D01*
X85312250Y-85534500D01*
X84645500Y-85529453D01*
X84486327Y-85549561D01*
X84337155Y-85608623D01*
X84207358Y-85702926D01*
X84105090Y-85826546D01*
X84093000Y-85852239D01*
X84093000Y-85326482D01*
X84111089Y-85310022D01*
X84257338Y-85124838D01*
X84371378Y-84918256D01*
X84450146Y-84695821D01*
X84491528Y-84463508D01*
X84494410Y-84227556D01*
X84458717Y-83994302D01*
X84385407Y-83770009D01*
X84276449Y-83560702D01*
X84146931Y-83388200D01*
X89592437Y-83388200D01*
X89488486Y-83516569D01*
X89371931Y-83721743D01*
X89290451Y-83943199D01*
X89246235Y-84174988D01*
X89240470Y-84410887D01*
X89258329Y-84537961D01*
X88261789Y-85534501D01*
X88013061Y-85534501D01*
X87766260Y-85573590D01*
X87528612Y-85650807D01*
X87305969Y-85764249D01*
X87123857Y-85896561D01*
X87090910Y-85826546D01*
X86988642Y-85702926D01*
X86858845Y-85608623D01*
X86709673Y-85549561D01*
X86550500Y-85529453D01*
X85883750Y-85534500D01*
X85725000Y-85693250D01*
X85725000Y-86995000D01*
X85745000Y-86995000D01*
X85745000Y-87249000D01*
X85725000Y-87249000D01*
X85725000Y-88550750D01*
X85883750Y-88709500D01*
X86550500Y-88714547D01*
X86709673Y-88694439D01*
X86858845Y-88635377D01*
X86988642Y-88541074D01*
X87090910Y-88417454D01*
X87123857Y-88347439D01*
X87305969Y-88479751D01*
X87528612Y-88593193D01*
X87766260Y-88670410D01*
X88013061Y-88709499D01*
X88262939Y-88709499D01*
X88509740Y-88670410D01*
X88747388Y-88593193D01*
X88970031Y-88479751D01*
X89172186Y-88332877D01*
X89348877Y-88156186D01*
X89495751Y-87954031D01*
X89609193Y-87731388D01*
X89686410Y-87493740D01*
X89725499Y-87246939D01*
X89725499Y-86998211D01*
X90996212Y-85727499D01*
X91091776Y-85707186D01*
X91311476Y-85621086D01*
X91514165Y-85500260D01*
X91694397Y-85347951D01*
X91847334Y-85168251D01*
X91968867Y-84965986D01*
X92055733Y-84746587D01*
X92105599Y-84515947D01*
X92113076Y-84210015D01*
X92074536Y-83977214D01*
X91998491Y-83753834D01*
X91886984Y-83545873D01*
X91765559Y-83388200D01*
X92134353Y-83388200D01*
X92134353Y-84924000D01*
X92165679Y-85121785D01*
X92233990Y-85266954D01*
X92336258Y-85390574D01*
X92427688Y-85457002D01*
X89781068Y-88103622D01*
X89745345Y-88132344D01*
X89708835Y-88175855D01*
X89705036Y-88179654D01*
X89676653Y-88214208D01*
X89614876Y-88287831D01*
X89612241Y-88292625D01*
X89608770Y-88296850D01*
X89563380Y-88381503D01*
X89517093Y-88465699D01*
X89515439Y-88470912D01*
X89512855Y-88475732D01*
X89484764Y-88567613D01*
X89455720Y-88659171D01*
X89455169Y-88664413D01*
X89453511Y-88669836D01*
X89432998Y-88871771D01*
X89438000Y-88924685D01*
X89437999Y-91642634D01*
X89379990Y-91409972D01*
X89264742Y-91109742D01*
X89113765Y-90825794D01*
X88929308Y-90562362D01*
X88714121Y-90323373D01*
X88471414Y-90112391D01*
X88204803Y-89932559D01*
X87918263Y-89786560D01*
X87616067Y-89676569D01*
X87302718Y-89604227D01*
X86982889Y-89570612D01*
X86661347Y-89576224D01*
X86342886Y-89620981D01*
X86032253Y-89704215D01*
X85734079Y-89824685D01*
X85452809Y-89980595D01*
X85192637Y-90169622D01*
X84957440Y-90388946D01*
X84750725Y-90635299D01*
X84575574Y-90905008D01*
X84434598Y-91194052D01*
X84329899Y-91498122D01*
X84263036Y-91812686D01*
X84235008Y-92133053D01*
X84246231Y-92454448D01*
X84296539Y-92772079D01*
X84385181Y-93081212D01*
X84510837Y-93377238D01*
X84671632Y-93655744D01*
X84865171Y-93912578D01*
X85088566Y-94143911D01*
X85338489Y-94346295D01*
X85611214Y-94516712D01*
X85902674Y-94652622D01*
X86208525Y-94751999D01*
X86524208Y-94813362D01*
X86845015Y-94835795D01*
X87166165Y-94818964D01*
X87482871Y-94763120D01*
X87790409Y-94669096D01*
X87918000Y-94612289D01*
X87917999Y-95513545D01*
X87913049Y-95559111D01*
X87917999Y-95615690D01*
X87917999Y-95621065D01*
X87922363Y-95665573D01*
X87930739Y-95761311D01*
X87932266Y-95766566D01*
X87932799Y-95772005D01*
X87960560Y-95863953D01*
X87987368Y-95956226D01*
X87989884Y-95961080D01*
X87991465Y-95966316D01*
X88036586Y-96051178D01*
X88080776Y-96136428D01*
X88084091Y-96140522D01*
X88086755Y-96145532D01*
X88215040Y-96302826D01*
X88255994Y-96336706D01*
X89643001Y-97723714D01*
X89643001Y-98481135D01*
X89580215Y-98491079D01*
X89435046Y-98559390D01*
X89311426Y-98661658D01*
X89217123Y-98791455D01*
X89158061Y-98940627D01*
X89137953Y-99099800D01*
X89137953Y-100899800D01*
X89156326Y-101015800D01*
X84209944Y-101015800D01*
X84322564Y-100878695D01*
X84446816Y-100665209D01*
X84535337Y-100434604D01*
X84585850Y-100192812D01*
X84597055Y-99946055D01*
X84568664Y-99700680D01*
X84501408Y-99463001D01*
X84397016Y-99239133D01*
X84265245Y-99045238D01*
X84518612Y-99036612D01*
X84775866Y-98989165D01*
X85023282Y-98904214D01*
X85255423Y-98783626D01*
X85467191Y-98630050D01*
X85653932Y-98446860D01*
X85811545Y-98238080D01*
X85936568Y-98008296D01*
X86026252Y-97762557D01*
X86078629Y-97506261D01*
X86088195Y-97152739D01*
X86049755Y-96893986D01*
X85973491Y-96643756D01*
X85861078Y-96407548D01*
X85714986Y-96190549D01*
X85538425Y-95997528D01*
X85335272Y-95832725D01*
X85109992Y-95699760D01*
X84867532Y-95601554D01*
X84613220Y-95540264D01*
X84352642Y-95517237D01*
X84091523Y-95532979D01*
X83835599Y-95587144D01*
X83590492Y-95678542D01*
X83361587Y-95805165D01*
X83153912Y-95964232D01*
X82972030Y-96152248D01*
X82819936Y-96365083D01*
X82700971Y-96598060D01*
X82617750Y-96846063D01*
X82572100Y-97103642D01*
X82565024Y-97365140D01*
X82596678Y-97624811D01*
X82666366Y-97876951D01*
X82772557Y-98116021D01*
X82912918Y-98336770D01*
X83024017Y-98464800D01*
X82995943Y-98464800D01*
X82811784Y-98479617D01*
X82571903Y-98538538D01*
X82344527Y-98635053D01*
X82135508Y-98766679D01*
X81950222Y-98930031D01*
X81793436Y-99120905D01*
X81669184Y-99334391D01*
X81580663Y-99564996D01*
X81530150Y-99806788D01*
X81518945Y-100053545D01*
X81547336Y-100298920D01*
X81614592Y-100536599D01*
X81718984Y-100760467D01*
X81857825Y-100964765D01*
X81906086Y-101015800D01*
X75962847Y-101015800D01*
X75962847Y-99327600D01*
X75931521Y-99129815D01*
X75863210Y-98984646D01*
X75760942Y-98861026D01*
X75631145Y-98766723D01*
X75481973Y-98707661D01*
X75322800Y-98687553D01*
X73622800Y-98687553D01*
X73425015Y-98718879D01*
X73279846Y-98787190D01*
X73156226Y-98889458D01*
X73061923Y-99019255D01*
X73013087Y-99142600D01*
X72990247Y-99142600D01*
X72990247Y-99074400D01*
X72958921Y-98876615D01*
X72890610Y-98731446D01*
X72788342Y-98607826D01*
X72658545Y-98513523D01*
X72509373Y-98454461D01*
X72485200Y-98451407D01*
X72485200Y-98330856D01*
X72490150Y-98285290D01*
X72485200Y-98228710D01*
X72485200Y-98223335D01*
X72480835Y-98178823D01*
X72472460Y-98083089D01*
X72470933Y-98077834D01*
X72470400Y-98072395D01*
X72442639Y-97980447D01*
X72415831Y-97888174D01*
X72413315Y-97883320D01*
X72411734Y-97878084D01*
X72366622Y-97793241D01*
X72322423Y-97707972D01*
X72319106Y-97703876D01*
X72316444Y-97698869D01*
X72188159Y-97541575D01*
X72147211Y-97507700D01*
X71113602Y-96474091D01*
X71119484Y-96475673D01*
X71379370Y-96505513D01*
X71640812Y-96496612D01*
X71898066Y-96449165D01*
X72145482Y-96364214D01*
X72377623Y-96243626D01*
X72589391Y-96090050D01*
X72776132Y-95906860D01*
X72933745Y-95698080D01*
X73058768Y-95468296D01*
X73105663Y-95339800D01*
X73871753Y-95339800D01*
X73871753Y-97039800D01*
X73903079Y-97237585D01*
X73971390Y-97382754D01*
X74073658Y-97506374D01*
X74203455Y-97600677D01*
X74352627Y-97659739D01*
X74511800Y-97679847D01*
X76211800Y-97679847D01*
X76409585Y-97648521D01*
X76554754Y-97580210D01*
X76678374Y-97477942D01*
X76772677Y-97348145D01*
X76831739Y-97198973D01*
X76851847Y-97039800D01*
X76851847Y-95339800D01*
X77630953Y-95339800D01*
X77630953Y-97039800D01*
X77662279Y-97237585D01*
X77730590Y-97382754D01*
X77832858Y-97506374D01*
X77962655Y-97600677D01*
X78111827Y-97659739D01*
X78271000Y-97679847D01*
X79971000Y-97679847D01*
X80168785Y-97648521D01*
X80313954Y-97580210D01*
X80437574Y-97477942D01*
X80531877Y-97348145D01*
X80590939Y-97198973D01*
X80611047Y-97039800D01*
X80611047Y-95339800D01*
X80579721Y-95142015D01*
X80511410Y-94996846D01*
X80409142Y-94873226D01*
X80279345Y-94778923D01*
X80130173Y-94719861D01*
X79971000Y-94699753D01*
X78271000Y-94699753D01*
X78073215Y-94731079D01*
X77928046Y-94799390D01*
X77804426Y-94901658D01*
X77710123Y-95031455D01*
X77651061Y-95180627D01*
X77630953Y-95339800D01*
X76851847Y-95339800D01*
X76820521Y-95142015D01*
X76752210Y-94996846D01*
X76649942Y-94873226D01*
X76520145Y-94778923D01*
X76370973Y-94719861D01*
X76211800Y-94699753D01*
X74511800Y-94699753D01*
X74314015Y-94731079D01*
X74168846Y-94799390D01*
X74045226Y-94901658D01*
X73950923Y-95031455D01*
X73891861Y-95180627D01*
X73871753Y-95339800D01*
X73105663Y-95339800D01*
X73148452Y-95222557D01*
X73200829Y-94966261D01*
X73210395Y-94612739D01*
X73171955Y-94353986D01*
X73095691Y-94103756D01*
X72983278Y-93867548D01*
X72873343Y-93704254D01*
X72998870Y-93691061D01*
X73233358Y-93627352D01*
X73454644Y-93526972D01*
X73657034Y-93392504D01*
X73835322Y-93227408D01*
X73952068Y-93077980D01*
X73979279Y-93249785D01*
X74047590Y-93394954D01*
X74149858Y-93518574D01*
X74279655Y-93612877D01*
X74428827Y-93671939D01*
X74588000Y-93692047D01*
X76288000Y-93692047D01*
X76485785Y-93660721D01*
X76630954Y-93592410D01*
X76754574Y-93490142D01*
X76848877Y-93360345D01*
X76907939Y-93211173D01*
X76928047Y-93052000D01*
X76928047Y-91352000D01*
X76896721Y-91154215D01*
X76828410Y-91009046D01*
X76726142Y-90885426D01*
X76596345Y-90791123D01*
X76447173Y-90732061D01*
X76288000Y-90711953D01*
X74588000Y-90711953D01*
X74390215Y-90743279D01*
X74245046Y-90811590D01*
X74121426Y-90913858D01*
X74027123Y-91043655D01*
X73968061Y-91192827D01*
X73951158Y-91326632D01*
X73856552Y-91200171D01*
X73681761Y-91031377D01*
X73482231Y-90892700D01*
X73263096Y-90787708D01*
X73029994Y-90719102D01*
X72788921Y-90688647D01*
X72546080Y-90697128D01*
X72307719Y-90744324D01*
X72280199Y-90754559D01*
X72280199Y-89459989D01*
X73949216Y-89459989D01*
X73979279Y-89617585D01*
X74047590Y-89762754D01*
X74149858Y-89886374D01*
X74279655Y-89980677D01*
X74428827Y-90039739D01*
X74588000Y-90059847D01*
X75152250Y-90054800D01*
X75311000Y-89896050D01*
X75311000Y-88696800D01*
X75565000Y-88696800D01*
X75565000Y-89896050D01*
X75723750Y-90054800D01*
X76288000Y-90059847D01*
X76447173Y-90039739D01*
X76596345Y-89980677D01*
X76726142Y-89886374D01*
X76828410Y-89762754D01*
X76896721Y-89617585D01*
X76917093Y-89510789D01*
X77632216Y-89510789D01*
X77662279Y-89668385D01*
X77730590Y-89813554D01*
X77832858Y-89937174D01*
X77962655Y-90031477D01*
X78111827Y-90090539D01*
X78271000Y-90110647D01*
X78835250Y-90105600D01*
X78994000Y-89946850D01*
X78994000Y-88747600D01*
X77794750Y-88747600D01*
X77636000Y-88906350D01*
X77632216Y-89510789D01*
X76917093Y-89510789D01*
X76926784Y-89459989D01*
X76923000Y-88855550D01*
X76764250Y-88696800D01*
X75565000Y-88696800D01*
X75311000Y-88696800D01*
X74111750Y-88696800D01*
X73953000Y-88855550D01*
X73949216Y-89459989D01*
X72280199Y-89459989D01*
X72280199Y-89278711D01*
X73965697Y-87593213D01*
X73949216Y-87679611D01*
X73953000Y-88284050D01*
X74111750Y-88442800D01*
X75311000Y-88442800D01*
X75311000Y-87243550D01*
X75565000Y-87243550D01*
X75565000Y-88442800D01*
X76764250Y-88442800D01*
X76923000Y-88284050D01*
X76926465Y-87730411D01*
X77632216Y-87730411D01*
X77636000Y-88334850D01*
X77794750Y-88493600D01*
X78994000Y-88493600D01*
X78994000Y-87294350D01*
X79248000Y-87294350D01*
X79248000Y-88493600D01*
X80447250Y-88493600D01*
X80606000Y-88334850D01*
X80609784Y-87730411D01*
X80579721Y-87572815D01*
X80511410Y-87427646D01*
X80409142Y-87304026D01*
X80279345Y-87209723D01*
X80130173Y-87150661D01*
X79971000Y-87130553D01*
X79406750Y-87135600D01*
X79248000Y-87294350D01*
X78994000Y-87294350D01*
X78835250Y-87135600D01*
X78271000Y-87130553D01*
X78111827Y-87150661D01*
X77962655Y-87209723D01*
X77832858Y-87304026D01*
X77730590Y-87427646D01*
X77662279Y-87572815D01*
X77632216Y-87730411D01*
X76926465Y-87730411D01*
X76926784Y-87679611D01*
X76896721Y-87522015D01*
X76828410Y-87376846D01*
X76726142Y-87253226D01*
X76596345Y-87158923D01*
X76447173Y-87099861D01*
X76288000Y-87079753D01*
X75723750Y-87084800D01*
X75565000Y-87243550D01*
X75311000Y-87243550D01*
X75152250Y-87084800D01*
X74588000Y-87079753D01*
X74463420Y-87095491D01*
X75063132Y-86495779D01*
X75098855Y-86467057D01*
X75135365Y-86423546D01*
X75139163Y-86419748D01*
X75167539Y-86385203D01*
X75229324Y-86311570D01*
X75231960Y-86306775D01*
X75235429Y-86302552D01*
X75280801Y-86217932D01*
X75327107Y-86133702D01*
X75328761Y-86128486D01*
X75331344Y-86123670D01*
X75359417Y-86031849D01*
X75388480Y-85940230D01*
X75389031Y-85934985D01*
X75390688Y-85929566D01*
X75411201Y-85727631D01*
X75406200Y-85674727D01*
X75406200Y-85534746D01*
X75418985Y-85532721D01*
X75564154Y-85464410D01*
X75687774Y-85362142D01*
X75782077Y-85232345D01*
X75841139Y-85083173D01*
X75861247Y-84924000D01*
X75861247Y-83388200D01*
X81971566Y-83388200D01*
X81858662Y-83531162D01*
G36*
X62630862Y-83531162D02*
G01*
X62516822Y-83737744D01*
X62438054Y-83960179D01*
X62396672Y-84192492D01*
X62395370Y-84299120D01*
X62338274Y-84356216D01*
X62302546Y-84384942D01*
X62266031Y-84428459D01*
X62262238Y-84432252D01*
X62233901Y-84466750D01*
X62172077Y-84540429D01*
X62169440Y-84545226D01*
X62165972Y-84549448D01*
X62120610Y-84634048D01*
X62074294Y-84718298D01*
X62072640Y-84723514D01*
X62070057Y-84728330D01*
X62041984Y-84820151D01*
X62012921Y-84911770D01*
X62012370Y-84917015D01*
X62010713Y-84922434D01*
X61990200Y-85124369D01*
X61995201Y-85177273D01*
X61995202Y-88915687D01*
X61406074Y-89504815D01*
X61403600Y-89109550D01*
X61244850Y-88950800D01*
X60045600Y-88950800D01*
X60045600Y-90150050D01*
X60204350Y-90308800D01*
X60598563Y-90312326D01*
X59944937Y-90965953D01*
X59068600Y-90965953D01*
X58870815Y-90997279D01*
X58725646Y-91065590D01*
X58602026Y-91167858D01*
X58507723Y-91297655D01*
X58448661Y-91446827D01*
X58428553Y-91606000D01*
X58428553Y-93306000D01*
X58459879Y-93503785D01*
X58528190Y-93648954D01*
X58630458Y-93772574D01*
X58760255Y-93866877D01*
X58909427Y-93925939D01*
X59068600Y-93946047D01*
X60768600Y-93946047D01*
X60966385Y-93914721D01*
X61111554Y-93846410D01*
X61235174Y-93744142D01*
X61329477Y-93614345D01*
X61388539Y-93465173D01*
X61408647Y-93306000D01*
X61408647Y-93178879D01*
X61496500Y-93280657D01*
X61682640Y-93436847D01*
X61891357Y-93561267D01*
X62117283Y-93650718D01*
X62354603Y-93702896D01*
X62597213Y-93716460D01*
X62838870Y-93691061D01*
X63073358Y-93627352D01*
X63294644Y-93526972D01*
X63497034Y-93392504D01*
X63675322Y-93227408D01*
X63824921Y-93035930D01*
X63941982Y-92822997D01*
X64023493Y-92594088D01*
X64067357Y-92355091D01*
X64070232Y-92080506D01*
X64031383Y-91840643D01*
X63954684Y-91610077D01*
X63842108Y-91394739D01*
X63696552Y-91200171D01*
X63521761Y-91031377D01*
X63322231Y-90892700D01*
X63103096Y-90787708D01*
X63062539Y-90775771D01*
X63722133Y-90116178D01*
X63757856Y-90087456D01*
X63794366Y-90043945D01*
X63798164Y-90040147D01*
X63826540Y-90005602D01*
X63888325Y-89931969D01*
X63890961Y-89927174D01*
X63894430Y-89922951D01*
X63939802Y-89838331D01*
X63986108Y-89754101D01*
X63987762Y-89748885D01*
X63990345Y-89744069D01*
X64018418Y-89652248D01*
X64047481Y-89560629D01*
X64048032Y-89555384D01*
X64049689Y-89549965D01*
X64070202Y-89348030D01*
X64065201Y-89295126D01*
X64065201Y-88114689D01*
X64778916Y-88114689D01*
X64808979Y-88272285D01*
X64877290Y-88417454D01*
X64979558Y-88541074D01*
X65109355Y-88635377D01*
X65258527Y-88694439D01*
X65417700Y-88714547D01*
X66084450Y-88709500D01*
X66243200Y-88550750D01*
X66243200Y-87249000D01*
X64941450Y-87249000D01*
X64782700Y-87407750D01*
X64778916Y-88114689D01*
X64065201Y-88114689D01*
X64065201Y-86129311D01*
X64778916Y-86129311D01*
X64782700Y-86836250D01*
X64941450Y-86995000D01*
X66243200Y-86995000D01*
X66243200Y-85693250D01*
X66084450Y-85534500D01*
X65417700Y-85529453D01*
X65258527Y-85549561D01*
X65109355Y-85608623D01*
X64979558Y-85702926D01*
X64877290Y-85826546D01*
X64808979Y-85971715D01*
X64778916Y-86129311D01*
X64065201Y-86129311D01*
X64065201Y-85748597D01*
X64065376Y-85748583D01*
X64294236Y-85691097D01*
X64510634Y-85597005D01*
X64708759Y-85468832D01*
X64883289Y-85310022D01*
X65029538Y-85124838D01*
X65143578Y-84918256D01*
X65222346Y-84695821D01*
X65263728Y-84463508D01*
X65266610Y-84227556D01*
X65230917Y-83994302D01*
X65157607Y-83770009D01*
X65048649Y-83560702D01*
X64919131Y-83388200D01*
X70364637Y-83388200D01*
X70260686Y-83516569D01*
X70144131Y-83721743D01*
X70062651Y-83943199D01*
X70018435Y-84174988D01*
X70012670Y-84410887D01*
X70030529Y-84537961D01*
X69033989Y-85534501D01*
X68785261Y-85534501D01*
X68538460Y-85573590D01*
X68300812Y-85650807D01*
X68078169Y-85764249D01*
X67896057Y-85896561D01*
X67863110Y-85826546D01*
X67760842Y-85702926D01*
X67631045Y-85608623D01*
X67481873Y-85549561D01*
X67322700Y-85529453D01*
X66655950Y-85534500D01*
X66497200Y-85693250D01*
X66497200Y-86995000D01*
X66517200Y-86995000D01*
X66517200Y-87249000D01*
X66497200Y-87249000D01*
X66497200Y-88550750D01*
X66655950Y-88709500D01*
X67322700Y-88714547D01*
X67481873Y-88694439D01*
X67631045Y-88635377D01*
X67760842Y-88541074D01*
X67863110Y-88417454D01*
X67896057Y-88347439D01*
X68078169Y-88479751D01*
X68300812Y-88593193D01*
X68538460Y-88670410D01*
X68785261Y-88709499D01*
X69035139Y-88709499D01*
X69281940Y-88670410D01*
X69519588Y-88593193D01*
X69742231Y-88479751D01*
X69944386Y-88332877D01*
X70121077Y-88156186D01*
X70267951Y-87954031D01*
X70381393Y-87731388D01*
X70458610Y-87493740D01*
X70497699Y-87246939D01*
X70497699Y-86998211D01*
X71768412Y-85727499D01*
X71863976Y-85707186D01*
X72083676Y-85621086D01*
X72286365Y-85500260D01*
X72466597Y-85347951D01*
X72619534Y-85168251D01*
X72741067Y-84965986D01*
X72827933Y-84746587D01*
X72877799Y-84515947D01*
X72881153Y-84378713D01*
X72881153Y-84924000D01*
X72912479Y-85121785D01*
X72980790Y-85266954D01*
X73083058Y-85390574D01*
X73174488Y-85457002D01*
X70553272Y-88078218D01*
X70517544Y-88106944D01*
X70481029Y-88150461D01*
X70477236Y-88154254D01*
X70448899Y-88188752D01*
X70387075Y-88262431D01*
X70384438Y-88267228D01*
X70380970Y-88271450D01*
X70335608Y-88356050D01*
X70289292Y-88440300D01*
X70287638Y-88445516D01*
X70285055Y-88450332D01*
X70256982Y-88542153D01*
X70227919Y-88633772D01*
X70227368Y-88639017D01*
X70225711Y-88644436D01*
X70205198Y-88846371D01*
X70210199Y-88899275D01*
X70210200Y-91642634D01*
X70152190Y-91409972D01*
X70036942Y-91109742D01*
X69885965Y-90825794D01*
X69701508Y-90562362D01*
X69486321Y-90323373D01*
X69243614Y-90112391D01*
X68977003Y-89932559D01*
X68690463Y-89786560D01*
X68388267Y-89676569D01*
X68074918Y-89604227D01*
X67755089Y-89570612D01*
X67433547Y-89576224D01*
X67115086Y-89620981D01*
X66804453Y-89704215D01*
X66506279Y-89824685D01*
X66225009Y-89980595D01*
X65964837Y-90169622D01*
X65729640Y-90388946D01*
X65522925Y-90635299D01*
X65347774Y-90905008D01*
X65206798Y-91194052D01*
X65102099Y-91498122D01*
X65035236Y-91812686D01*
X65007208Y-92133053D01*
X65018431Y-92454448D01*
X65068739Y-92772079D01*
X65157381Y-93081212D01*
X65283037Y-93377238D01*
X65443832Y-93655744D01*
X65637371Y-93912578D01*
X65860766Y-94143911D01*
X66110689Y-94346295D01*
X66383414Y-94516712D01*
X66674874Y-94652622D01*
X66980725Y-94751999D01*
X67296408Y-94813362D01*
X67617215Y-94835795D01*
X67938365Y-94818964D01*
X68255071Y-94763120D01*
X68562609Y-94669096D01*
X68690199Y-94612289D01*
X68690200Y-96492934D01*
X68685249Y-96538509D01*
X68690200Y-96595100D01*
X68690200Y-96600464D01*
X68694556Y-96644886D01*
X68702939Y-96740709D01*
X68704467Y-96745968D01*
X68705000Y-96751404D01*
X68732742Y-96843290D01*
X68759568Y-96935624D01*
X68762086Y-96940482D01*
X68763666Y-96945715D01*
X68808758Y-97030522D01*
X68852976Y-97115826D01*
X68856294Y-97119923D01*
X68858956Y-97124930D01*
X68987241Y-97282224D01*
X69028189Y-97316099D01*
X70233653Y-98521564D01*
X70207246Y-98533990D01*
X70083626Y-98636258D01*
X69989323Y-98766055D01*
X69930261Y-98915227D01*
X69910153Y-99074400D01*
X69910153Y-100874400D01*
X69932549Y-101015800D01*
X64961281Y-101015800D01*
X65094764Y-100853295D01*
X65219016Y-100639809D01*
X65307537Y-100409204D01*
X65358050Y-100167412D01*
X65369255Y-99920655D01*
X65340864Y-99675280D01*
X65273608Y-99437601D01*
X65169216Y-99213733D01*
X65054316Y-99044664D01*
X65290812Y-99036612D01*
X65548066Y-98989165D01*
X65795482Y-98904214D01*
X66027623Y-98783626D01*
X66239391Y-98630050D01*
X66426132Y-98446860D01*
X66583745Y-98238080D01*
X66708768Y-98008296D01*
X66798452Y-97762557D01*
X66850829Y-97506261D01*
X66860395Y-97152739D01*
X66821955Y-96893986D01*
X66745691Y-96643756D01*
X66633278Y-96407548D01*
X66487186Y-96190549D01*
X66310625Y-95997528D01*
X66107472Y-95832725D01*
X65882192Y-95699760D01*
X65639732Y-95601554D01*
X65385420Y-95540264D01*
X65124842Y-95517237D01*
X64863723Y-95532979D01*
X64607799Y-95587144D01*
X64362692Y-95678542D01*
X64133787Y-95805165D01*
X63926112Y-95964232D01*
X63744230Y-96152248D01*
X63592136Y-96365083D01*
X63473171Y-96598060D01*
X63389950Y-96846063D01*
X63344300Y-97103642D01*
X63337224Y-97365140D01*
X63368878Y-97624811D01*
X63438566Y-97876951D01*
X63544757Y-98116021D01*
X63685118Y-98336770D01*
X63774176Y-98439400D01*
X63768143Y-98439400D01*
X63583984Y-98454217D01*
X63344103Y-98513138D01*
X63116727Y-98609653D01*
X62907708Y-98741279D01*
X62722422Y-98904631D01*
X62565636Y-99095505D01*
X62441384Y-99308991D01*
X62352863Y-99539596D01*
X62302350Y-99781388D01*
X62291145Y-100028145D01*
X62319536Y-100273520D01*
X62386792Y-100511199D01*
X62491184Y-100735067D01*
X62630025Y-100939365D01*
X62702306Y-101015800D01*
X56709647Y-101015800D01*
X56709647Y-99429200D01*
X56678321Y-99231415D01*
X56610010Y-99086246D01*
X56507742Y-98962626D01*
X56377945Y-98868323D01*
X56228773Y-98809261D01*
X56069600Y-98789153D01*
X54369600Y-98789153D01*
X54171815Y-98820479D01*
X54026646Y-98888790D01*
X53903026Y-98991058D01*
X53866741Y-99041000D01*
X53715665Y-99041000D01*
X53705721Y-98978215D01*
X53637410Y-98833046D01*
X53535142Y-98709426D01*
X53405345Y-98615123D01*
X53256173Y-98556061D01*
X53232000Y-98553007D01*
X53232000Y-98432456D01*
X53236950Y-98386890D01*
X53232000Y-98330310D01*
X53232000Y-98324935D01*
X53227635Y-98280423D01*
X53219260Y-98184689D01*
X53217733Y-98179434D01*
X53217200Y-98173995D01*
X53189439Y-98082047D01*
X53162631Y-97989774D01*
X53160115Y-97984920D01*
X53158534Y-97979684D01*
X53113422Y-97894841D01*
X53069223Y-97809572D01*
X53065906Y-97805476D01*
X53063244Y-97800469D01*
X52934959Y-97643175D01*
X52894011Y-97609300D01*
X51721436Y-96436725D01*
X51866284Y-96475673D01*
X52126170Y-96505513D01*
X52387612Y-96496612D01*
X52644866Y-96449165D01*
X52892282Y-96364214D01*
X53124423Y-96243626D01*
X53336191Y-96090050D01*
X53522932Y-95906860D01*
X53680545Y-95698080D01*
X53805568Y-95468296D01*
X53895252Y-95222557D01*
X53897245Y-95212800D01*
X54669353Y-95212800D01*
X54669353Y-96912800D01*
X54700679Y-97110585D01*
X54768990Y-97255754D01*
X54871258Y-97379374D01*
X55001055Y-97473677D01*
X55150227Y-97532739D01*
X55309400Y-97552847D01*
X57009400Y-97552847D01*
X57207185Y-97521521D01*
X57352354Y-97453210D01*
X57475974Y-97350942D01*
X57570277Y-97221145D01*
X57629339Y-97071973D01*
X57649447Y-96912800D01*
X57649447Y-95238200D01*
X58428553Y-95238200D01*
X58428553Y-96938200D01*
X58459879Y-97135985D01*
X58528190Y-97281154D01*
X58630458Y-97404774D01*
X58760255Y-97499077D01*
X58909427Y-97558139D01*
X59068600Y-97578247D01*
X60768600Y-97578247D01*
X60966385Y-97546921D01*
X61111554Y-97478610D01*
X61235174Y-97376342D01*
X61329477Y-97246545D01*
X61388539Y-97097373D01*
X61408647Y-96938200D01*
X61408647Y-95238200D01*
X61377321Y-95040415D01*
X61309010Y-94895246D01*
X61206742Y-94771626D01*
X61076945Y-94677323D01*
X60927773Y-94618261D01*
X60768600Y-94598153D01*
X59068600Y-94598153D01*
X58870815Y-94629479D01*
X58725646Y-94697790D01*
X58602026Y-94800058D01*
X58507723Y-94929855D01*
X58448661Y-95079027D01*
X58428553Y-95238200D01*
X57649447Y-95238200D01*
X57649447Y-95212800D01*
X57618121Y-95015015D01*
X57549810Y-94869846D01*
X57447542Y-94746226D01*
X57317745Y-94651923D01*
X57168573Y-94592861D01*
X57009400Y-94572753D01*
X55309400Y-94572753D01*
X55111615Y-94604079D01*
X54966446Y-94672390D01*
X54842826Y-94774658D01*
X54748523Y-94904455D01*
X54689461Y-95053627D01*
X54669353Y-95212800D01*
X53897245Y-95212800D01*
X53947629Y-94966261D01*
X53957195Y-94612739D01*
X53918755Y-94353986D01*
X53842491Y-94103756D01*
X53730078Y-93867548D01*
X53620143Y-93704254D01*
X53745670Y-93691061D01*
X53980158Y-93627352D01*
X54201444Y-93526972D01*
X54403834Y-93392504D01*
X54582122Y-93227408D01*
X54669353Y-93115757D01*
X54669353Y-93306000D01*
X54700679Y-93503785D01*
X54768990Y-93648954D01*
X54871258Y-93772574D01*
X55001055Y-93866877D01*
X55150227Y-93925939D01*
X55309400Y-93946047D01*
X57009400Y-93946047D01*
X57207185Y-93914721D01*
X57352354Y-93846410D01*
X57475974Y-93744142D01*
X57570277Y-93614345D01*
X57629339Y-93465173D01*
X57649447Y-93306000D01*
X57649447Y-91606000D01*
X57618121Y-91408215D01*
X57549810Y-91263046D01*
X57447542Y-91139426D01*
X57317745Y-91045123D01*
X57168573Y-90986061D01*
X57009400Y-90965953D01*
X55309400Y-90965953D01*
X55111615Y-90997279D01*
X54966446Y-91065590D01*
X54842826Y-91167858D01*
X54748523Y-91297655D01*
X54723521Y-91360803D01*
X54603352Y-91200171D01*
X54428561Y-91031377D01*
X54229031Y-90892700D01*
X54009896Y-90787708D01*
X53776794Y-90719102D01*
X53535721Y-90688647D01*
X53292880Y-90697128D01*
X53054519Y-90744324D01*
X53026999Y-90754559D01*
X53026999Y-90665309D01*
X54716107Y-88976202D01*
X54833148Y-88976202D01*
X54674400Y-89134950D01*
X54670616Y-89739389D01*
X54700679Y-89896985D01*
X54768990Y-90042154D01*
X54871258Y-90165774D01*
X55001055Y-90260077D01*
X55150227Y-90319139D01*
X55309400Y-90339247D01*
X55873650Y-90334200D01*
X56032400Y-90175450D01*
X56032400Y-88976200D01*
X56286400Y-88976200D01*
X56286400Y-90175450D01*
X56445150Y-90334200D01*
X57009400Y-90339247D01*
X57168573Y-90319139D01*
X57317745Y-90260077D01*
X57447542Y-90165774D01*
X57549810Y-90042154D01*
X57618121Y-89896985D01*
X57648184Y-89739389D01*
X57648025Y-89713989D01*
X58429816Y-89713989D01*
X58459879Y-89871585D01*
X58528190Y-90016754D01*
X58630458Y-90140374D01*
X58760255Y-90234677D01*
X58909427Y-90293739D01*
X59068600Y-90313847D01*
X59632850Y-90308800D01*
X59791600Y-90150050D01*
X59791600Y-88950800D01*
X58592350Y-88950800D01*
X58433600Y-89109550D01*
X58429816Y-89713989D01*
X57648025Y-89713989D01*
X57644400Y-89134950D01*
X57485650Y-88976200D01*
X56286400Y-88976200D01*
X56032400Y-88976200D01*
X56012400Y-88976200D01*
X56012400Y-88722200D01*
X56032400Y-88722200D01*
X56032400Y-87574999D01*
X56048507Y-87545700D01*
X56050161Y-87540484D01*
X56052744Y-87535668D01*
X56056632Y-87522950D01*
X56286400Y-87522950D01*
X56286400Y-88722200D01*
X57485650Y-88722200D01*
X57644400Y-88563450D01*
X57648184Y-87959011D01*
X57643339Y-87933611D01*
X58429816Y-87933611D01*
X58433600Y-88538050D01*
X58592350Y-88696800D01*
X59791600Y-88696800D01*
X59791600Y-87497550D01*
X60045600Y-87497550D01*
X60045600Y-88696800D01*
X61244850Y-88696800D01*
X61403600Y-88538050D01*
X61407384Y-87933611D01*
X61377321Y-87776015D01*
X61309010Y-87630846D01*
X61206742Y-87507226D01*
X61076945Y-87412923D01*
X60927773Y-87353861D01*
X60768600Y-87333753D01*
X60204350Y-87338800D01*
X60045600Y-87497550D01*
X59791600Y-87497550D01*
X59632850Y-87338800D01*
X59068600Y-87333753D01*
X58909427Y-87353861D01*
X58760255Y-87412923D01*
X58630458Y-87507226D01*
X58528190Y-87630846D01*
X58459879Y-87776015D01*
X58429816Y-87933611D01*
X57643339Y-87933611D01*
X57618121Y-87801415D01*
X57549810Y-87656246D01*
X57447542Y-87532626D01*
X57317745Y-87438323D01*
X57168573Y-87379261D01*
X57009400Y-87359153D01*
X56445150Y-87364200D01*
X56286400Y-87522950D01*
X56056632Y-87522950D01*
X56080817Y-87443847D01*
X56109880Y-87352228D01*
X56110431Y-87346983D01*
X56112088Y-87341564D01*
X56132601Y-87139629D01*
X56127600Y-87086725D01*
X56127600Y-85534746D01*
X56140385Y-85532721D01*
X56285554Y-85464410D01*
X56409174Y-85362142D01*
X56503477Y-85232345D01*
X56562539Y-85083173D01*
X56582647Y-84924000D01*
X56582647Y-83388200D01*
X62743766Y-83388200D01*
X62630862Y-83531162D01*
X62630862Y-83531162D01*
G37*
X62630862Y-83531162D02*
X62516822Y-83737744D01*
X62438054Y-83960179D01*
X62396672Y-84192492D01*
X62395370Y-84299120D01*
X62338274Y-84356216D01*
X62302546Y-84384942D01*
X62266031Y-84428459D01*
X62262238Y-84432252D01*
X62233901Y-84466750D01*
X62172077Y-84540429D01*
X62169440Y-84545226D01*
X62165972Y-84549448D01*
X62120610Y-84634048D01*
X62074294Y-84718298D01*
X62072640Y-84723514D01*
X62070057Y-84728330D01*
X62041984Y-84820151D01*
X62012921Y-84911770D01*
X62012370Y-84917015D01*
X62010713Y-84922434D01*
X61990200Y-85124369D01*
X61995201Y-85177273D01*
X61995202Y-88915687D01*
X61406074Y-89504815D01*
X61403600Y-89109550D01*
X61244850Y-88950800D01*
X60045600Y-88950800D01*
X60045600Y-90150050D01*
X60204350Y-90308800D01*
X60598563Y-90312326D01*
X59944937Y-90965953D01*
X59068600Y-90965953D01*
X58870815Y-90997279D01*
X58725646Y-91065590D01*
X58602026Y-91167858D01*
X58507723Y-91297655D01*
X58448661Y-91446827D01*
X58428553Y-91606000D01*
X58428553Y-93306000D01*
X58459879Y-93503785D01*
X58528190Y-93648954D01*
X58630458Y-93772574D01*
X58760255Y-93866877D01*
X58909427Y-93925939D01*
X59068600Y-93946047D01*
X60768600Y-93946047D01*
X60966385Y-93914721D01*
X61111554Y-93846410D01*
X61235174Y-93744142D01*
X61329477Y-93614345D01*
X61388539Y-93465173D01*
X61408647Y-93306000D01*
X61408647Y-93178879D01*
X61496500Y-93280657D01*
X61682640Y-93436847D01*
X61891357Y-93561267D01*
X62117283Y-93650718D01*
X62354603Y-93702896D01*
X62597213Y-93716460D01*
X62838870Y-93691061D01*
X63073358Y-93627352D01*
X63294644Y-93526972D01*
X63497034Y-93392504D01*
X63675322Y-93227408D01*
X63824921Y-93035930D01*
X63941982Y-92822997D01*
X64023493Y-92594088D01*
X64067357Y-92355091D01*
X64070232Y-92080506D01*
X64031383Y-91840643D01*
X63954684Y-91610077D01*
X63842108Y-91394739D01*
X63696552Y-91200171D01*
X63521761Y-91031377D01*
X63322231Y-90892700D01*
X63103096Y-90787708D01*
X63062539Y-90775771D01*
X63722133Y-90116178D01*
X63757856Y-90087456D01*
X63794366Y-90043945D01*
X63798164Y-90040147D01*
X63826540Y-90005602D01*
X63888325Y-89931969D01*
X63890961Y-89927174D01*
X63894430Y-89922951D01*
X63939802Y-89838331D01*
X63986108Y-89754101D01*
X63987762Y-89748885D01*
X63990345Y-89744069D01*
X64018418Y-89652248D01*
X64047481Y-89560629D01*
X64048032Y-89555384D01*
X64049689Y-89549965D01*
X64070202Y-89348030D01*
X64065201Y-89295126D01*
X64065201Y-88114689D01*
X64778916Y-88114689D01*
X64808979Y-88272285D01*
X64877290Y-88417454D01*
X64979558Y-88541074D01*
X65109355Y-88635377D01*
X65258527Y-88694439D01*
X65417700Y-88714547D01*
X66084450Y-88709500D01*
X66243200Y-88550750D01*
X66243200Y-87249000D01*
X64941450Y-87249000D01*
X64782700Y-87407750D01*
X64778916Y-88114689D01*
X64065201Y-88114689D01*
X64065201Y-86129311D01*
X64778916Y-86129311D01*
X64782700Y-86836250D01*
X64941450Y-86995000D01*
X66243200Y-86995000D01*
X66243200Y-85693250D01*
X66084450Y-85534500D01*
X65417700Y-85529453D01*
X65258527Y-85549561D01*
X65109355Y-85608623D01*
X64979558Y-85702926D01*
X64877290Y-85826546D01*
X64808979Y-85971715D01*
X64778916Y-86129311D01*
X64065201Y-86129311D01*
X64065201Y-85748597D01*
X64065376Y-85748583D01*
X64294236Y-85691097D01*
X64510634Y-85597005D01*
X64708759Y-85468832D01*
X64883289Y-85310022D01*
X65029538Y-85124838D01*
X65143578Y-84918256D01*
X65222346Y-84695821D01*
X65263728Y-84463508D01*
X65266610Y-84227556D01*
X65230917Y-83994302D01*
X65157607Y-83770009D01*
X65048649Y-83560702D01*
X64919131Y-83388200D01*
X70364637Y-83388200D01*
X70260686Y-83516569D01*
X70144131Y-83721743D01*
X70062651Y-83943199D01*
X70018435Y-84174988D01*
X70012670Y-84410887D01*
X70030529Y-84537961D01*
X69033989Y-85534501D01*
X68785261Y-85534501D01*
X68538460Y-85573590D01*
X68300812Y-85650807D01*
X68078169Y-85764249D01*
X67896057Y-85896561D01*
X67863110Y-85826546D01*
X67760842Y-85702926D01*
X67631045Y-85608623D01*
X67481873Y-85549561D01*
X67322700Y-85529453D01*
X66655950Y-85534500D01*
X66497200Y-85693250D01*
X66497200Y-86995000D01*
X66517200Y-86995000D01*
X66517200Y-87249000D01*
X66497200Y-87249000D01*
X66497200Y-88550750D01*
X66655950Y-88709500D01*
X67322700Y-88714547D01*
X67481873Y-88694439D01*
X67631045Y-88635377D01*
X67760842Y-88541074D01*
X67863110Y-88417454D01*
X67896057Y-88347439D01*
X68078169Y-88479751D01*
X68300812Y-88593193D01*
X68538460Y-88670410D01*
X68785261Y-88709499D01*
X69035139Y-88709499D01*
X69281940Y-88670410D01*
X69519588Y-88593193D01*
X69742231Y-88479751D01*
X69944386Y-88332877D01*
X70121077Y-88156186D01*
X70267951Y-87954031D01*
X70381393Y-87731388D01*
X70458610Y-87493740D01*
X70497699Y-87246939D01*
X70497699Y-86998211D01*
X71768412Y-85727499D01*
X71863976Y-85707186D01*
X72083676Y-85621086D01*
X72286365Y-85500260D01*
X72466597Y-85347951D01*
X72619534Y-85168251D01*
X72741067Y-84965986D01*
X72827933Y-84746587D01*
X72877799Y-84515947D01*
X72881153Y-84378713D01*
X72881153Y-84924000D01*
X72912479Y-85121785D01*
X72980790Y-85266954D01*
X73083058Y-85390574D01*
X73174488Y-85457002D01*
X70553272Y-88078218D01*
X70517544Y-88106944D01*
X70481029Y-88150461D01*
X70477236Y-88154254D01*
X70448899Y-88188752D01*
X70387075Y-88262431D01*
X70384438Y-88267228D01*
X70380970Y-88271450D01*
X70335608Y-88356050D01*
X70289292Y-88440300D01*
X70287638Y-88445516D01*
X70285055Y-88450332D01*
X70256982Y-88542153D01*
X70227919Y-88633772D01*
X70227368Y-88639017D01*
X70225711Y-88644436D01*
X70205198Y-88846371D01*
X70210199Y-88899275D01*
X70210200Y-91642634D01*
X70152190Y-91409972D01*
X70036942Y-91109742D01*
X69885965Y-90825794D01*
X69701508Y-90562362D01*
X69486321Y-90323373D01*
X69243614Y-90112391D01*
X68977003Y-89932559D01*
X68690463Y-89786560D01*
X68388267Y-89676569D01*
X68074918Y-89604227D01*
X67755089Y-89570612D01*
X67433547Y-89576224D01*
X67115086Y-89620981D01*
X66804453Y-89704215D01*
X66506279Y-89824685D01*
X66225009Y-89980595D01*
X65964837Y-90169622D01*
X65729640Y-90388946D01*
X65522925Y-90635299D01*
X65347774Y-90905008D01*
X65206798Y-91194052D01*
X65102099Y-91498122D01*
X65035236Y-91812686D01*
X65007208Y-92133053D01*
X65018431Y-92454448D01*
X65068739Y-92772079D01*
X65157381Y-93081212D01*
X65283037Y-93377238D01*
X65443832Y-93655744D01*
X65637371Y-93912578D01*
X65860766Y-94143911D01*
X66110689Y-94346295D01*
X66383414Y-94516712D01*
X66674874Y-94652622D01*
X66980725Y-94751999D01*
X67296408Y-94813362D01*
X67617215Y-94835795D01*
X67938365Y-94818964D01*
X68255071Y-94763120D01*
X68562609Y-94669096D01*
X68690199Y-94612289D01*
X68690200Y-96492934D01*
X68685249Y-96538509D01*
X68690200Y-96595100D01*
X68690200Y-96600464D01*
X68694556Y-96644886D01*
X68702939Y-96740709D01*
X68704467Y-96745968D01*
X68705000Y-96751404D01*
X68732742Y-96843290D01*
X68759568Y-96935624D01*
X68762086Y-96940482D01*
X68763666Y-96945715D01*
X68808758Y-97030522D01*
X68852976Y-97115826D01*
X68856294Y-97119923D01*
X68858956Y-97124930D01*
X68987241Y-97282224D01*
X69028189Y-97316099D01*
X70233653Y-98521564D01*
X70207246Y-98533990D01*
X70083626Y-98636258D01*
X69989323Y-98766055D01*
X69930261Y-98915227D01*
X69910153Y-99074400D01*
X69910153Y-100874400D01*
X69932549Y-101015800D01*
X64961281Y-101015800D01*
X65094764Y-100853295D01*
X65219016Y-100639809D01*
X65307537Y-100409204D01*
X65358050Y-100167412D01*
X65369255Y-99920655D01*
X65340864Y-99675280D01*
X65273608Y-99437601D01*
X65169216Y-99213733D01*
X65054316Y-99044664D01*
X65290812Y-99036612D01*
X65548066Y-98989165D01*
X65795482Y-98904214D01*
X66027623Y-98783626D01*
X66239391Y-98630050D01*
X66426132Y-98446860D01*
X66583745Y-98238080D01*
X66708768Y-98008296D01*
X66798452Y-97762557D01*
X66850829Y-97506261D01*
X66860395Y-97152739D01*
X66821955Y-96893986D01*
X66745691Y-96643756D01*
X66633278Y-96407548D01*
X66487186Y-96190549D01*
X66310625Y-95997528D01*
X66107472Y-95832725D01*
X65882192Y-95699760D01*
X65639732Y-95601554D01*
X65385420Y-95540264D01*
X65124842Y-95517237D01*
X64863723Y-95532979D01*
X64607799Y-95587144D01*
X64362692Y-95678542D01*
X64133787Y-95805165D01*
X63926112Y-95964232D01*
X63744230Y-96152248D01*
X63592136Y-96365083D01*
X63473171Y-96598060D01*
X63389950Y-96846063D01*
X63344300Y-97103642D01*
X63337224Y-97365140D01*
X63368878Y-97624811D01*
X63438566Y-97876951D01*
X63544757Y-98116021D01*
X63685118Y-98336770D01*
X63774176Y-98439400D01*
X63768143Y-98439400D01*
X63583984Y-98454217D01*
X63344103Y-98513138D01*
X63116727Y-98609653D01*
X62907708Y-98741279D01*
X62722422Y-98904631D01*
X62565636Y-99095505D01*
X62441384Y-99308991D01*
X62352863Y-99539596D01*
X62302350Y-99781388D01*
X62291145Y-100028145D01*
X62319536Y-100273520D01*
X62386792Y-100511199D01*
X62491184Y-100735067D01*
X62630025Y-100939365D01*
X62702306Y-101015800D01*
X56709647Y-101015800D01*
X56709647Y-99429200D01*
X56678321Y-99231415D01*
X56610010Y-99086246D01*
X56507742Y-98962626D01*
X56377945Y-98868323D01*
X56228773Y-98809261D01*
X56069600Y-98789153D01*
X54369600Y-98789153D01*
X54171815Y-98820479D01*
X54026646Y-98888790D01*
X53903026Y-98991058D01*
X53866741Y-99041000D01*
X53715665Y-99041000D01*
X53705721Y-98978215D01*
X53637410Y-98833046D01*
X53535142Y-98709426D01*
X53405345Y-98615123D01*
X53256173Y-98556061D01*
X53232000Y-98553007D01*
X53232000Y-98432456D01*
X53236950Y-98386890D01*
X53232000Y-98330310D01*
X53232000Y-98324935D01*
X53227635Y-98280423D01*
X53219260Y-98184689D01*
X53217733Y-98179434D01*
X53217200Y-98173995D01*
X53189439Y-98082047D01*
X53162631Y-97989774D01*
X53160115Y-97984920D01*
X53158534Y-97979684D01*
X53113422Y-97894841D01*
X53069223Y-97809572D01*
X53065906Y-97805476D01*
X53063244Y-97800469D01*
X52934959Y-97643175D01*
X52894011Y-97609300D01*
X51721436Y-96436725D01*
X51866284Y-96475673D01*
X52126170Y-96505513D01*
X52387612Y-96496612D01*
X52644866Y-96449165D01*
X52892282Y-96364214D01*
X53124423Y-96243626D01*
X53336191Y-96090050D01*
X53522932Y-95906860D01*
X53680545Y-95698080D01*
X53805568Y-95468296D01*
X53895252Y-95222557D01*
X53897245Y-95212800D01*
X54669353Y-95212800D01*
X54669353Y-96912800D01*
X54700679Y-97110585D01*
X54768990Y-97255754D01*
X54871258Y-97379374D01*
X55001055Y-97473677D01*
X55150227Y-97532739D01*
X55309400Y-97552847D01*
X57009400Y-97552847D01*
X57207185Y-97521521D01*
X57352354Y-97453210D01*
X57475974Y-97350942D01*
X57570277Y-97221145D01*
X57629339Y-97071973D01*
X57649447Y-96912800D01*
X57649447Y-95238200D01*
X58428553Y-95238200D01*
X58428553Y-96938200D01*
X58459879Y-97135985D01*
X58528190Y-97281154D01*
X58630458Y-97404774D01*
X58760255Y-97499077D01*
X58909427Y-97558139D01*
X59068600Y-97578247D01*
X60768600Y-97578247D01*
X60966385Y-97546921D01*
X61111554Y-97478610D01*
X61235174Y-97376342D01*
X61329477Y-97246545D01*
X61388539Y-97097373D01*
X61408647Y-96938200D01*
X61408647Y-95238200D01*
X61377321Y-95040415D01*
X61309010Y-94895246D01*
X61206742Y-94771626D01*
X61076945Y-94677323D01*
X60927773Y-94618261D01*
X60768600Y-94598153D01*
X59068600Y-94598153D01*
X58870815Y-94629479D01*
X58725646Y-94697790D01*
X58602026Y-94800058D01*
X58507723Y-94929855D01*
X58448661Y-95079027D01*
X58428553Y-95238200D01*
X57649447Y-95238200D01*
X57649447Y-95212800D01*
X57618121Y-95015015D01*
X57549810Y-94869846D01*
X57447542Y-94746226D01*
X57317745Y-94651923D01*
X57168573Y-94592861D01*
X57009400Y-94572753D01*
X55309400Y-94572753D01*
X55111615Y-94604079D01*
X54966446Y-94672390D01*
X54842826Y-94774658D01*
X54748523Y-94904455D01*
X54689461Y-95053627D01*
X54669353Y-95212800D01*
X53897245Y-95212800D01*
X53947629Y-94966261D01*
X53957195Y-94612739D01*
X53918755Y-94353986D01*
X53842491Y-94103756D01*
X53730078Y-93867548D01*
X53620143Y-93704254D01*
X53745670Y-93691061D01*
X53980158Y-93627352D01*
X54201444Y-93526972D01*
X54403834Y-93392504D01*
X54582122Y-93227408D01*
X54669353Y-93115757D01*
X54669353Y-93306000D01*
X54700679Y-93503785D01*
X54768990Y-93648954D01*
X54871258Y-93772574D01*
X55001055Y-93866877D01*
X55150227Y-93925939D01*
X55309400Y-93946047D01*
X57009400Y-93946047D01*
X57207185Y-93914721D01*
X57352354Y-93846410D01*
X57475974Y-93744142D01*
X57570277Y-93614345D01*
X57629339Y-93465173D01*
X57649447Y-93306000D01*
X57649447Y-91606000D01*
X57618121Y-91408215D01*
X57549810Y-91263046D01*
X57447542Y-91139426D01*
X57317745Y-91045123D01*
X57168573Y-90986061D01*
X57009400Y-90965953D01*
X55309400Y-90965953D01*
X55111615Y-90997279D01*
X54966446Y-91065590D01*
X54842826Y-91167858D01*
X54748523Y-91297655D01*
X54723521Y-91360803D01*
X54603352Y-91200171D01*
X54428561Y-91031377D01*
X54229031Y-90892700D01*
X54009896Y-90787708D01*
X53776794Y-90719102D01*
X53535721Y-90688647D01*
X53292880Y-90697128D01*
X53054519Y-90744324D01*
X53026999Y-90754559D01*
X53026999Y-90665309D01*
X54716107Y-88976202D01*
X54833148Y-88976202D01*
X54674400Y-89134950D01*
X54670616Y-89739389D01*
X54700679Y-89896985D01*
X54768990Y-90042154D01*
X54871258Y-90165774D01*
X55001055Y-90260077D01*
X55150227Y-90319139D01*
X55309400Y-90339247D01*
X55873650Y-90334200D01*
X56032400Y-90175450D01*
X56032400Y-88976200D01*
X56286400Y-88976200D01*
X56286400Y-90175450D01*
X56445150Y-90334200D01*
X57009400Y-90339247D01*
X57168573Y-90319139D01*
X57317745Y-90260077D01*
X57447542Y-90165774D01*
X57549810Y-90042154D01*
X57618121Y-89896985D01*
X57648184Y-89739389D01*
X57648025Y-89713989D01*
X58429816Y-89713989D01*
X58459879Y-89871585D01*
X58528190Y-90016754D01*
X58630458Y-90140374D01*
X58760255Y-90234677D01*
X58909427Y-90293739D01*
X59068600Y-90313847D01*
X59632850Y-90308800D01*
X59791600Y-90150050D01*
X59791600Y-88950800D01*
X58592350Y-88950800D01*
X58433600Y-89109550D01*
X58429816Y-89713989D01*
X57648025Y-89713989D01*
X57644400Y-89134950D01*
X57485650Y-88976200D01*
X56286400Y-88976200D01*
X56032400Y-88976200D01*
X56012400Y-88976200D01*
X56012400Y-88722200D01*
X56032400Y-88722200D01*
X56032400Y-87574999D01*
X56048507Y-87545700D01*
X56050161Y-87540484D01*
X56052744Y-87535668D01*
X56056632Y-87522950D01*
X56286400Y-87522950D01*
X56286400Y-88722200D01*
X57485650Y-88722200D01*
X57644400Y-88563450D01*
X57648184Y-87959011D01*
X57643339Y-87933611D01*
X58429816Y-87933611D01*
X58433600Y-88538050D01*
X58592350Y-88696800D01*
X59791600Y-88696800D01*
X59791600Y-87497550D01*
X60045600Y-87497550D01*
X60045600Y-88696800D01*
X61244850Y-88696800D01*
X61403600Y-88538050D01*
X61407384Y-87933611D01*
X61377321Y-87776015D01*
X61309010Y-87630846D01*
X61206742Y-87507226D01*
X61076945Y-87412923D01*
X60927773Y-87353861D01*
X60768600Y-87333753D01*
X60204350Y-87338800D01*
X60045600Y-87497550D01*
X59791600Y-87497550D01*
X59632850Y-87338800D01*
X59068600Y-87333753D01*
X58909427Y-87353861D01*
X58760255Y-87412923D01*
X58630458Y-87507226D01*
X58528190Y-87630846D01*
X58459879Y-87776015D01*
X58429816Y-87933611D01*
X57643339Y-87933611D01*
X57618121Y-87801415D01*
X57549810Y-87656246D01*
X57447542Y-87532626D01*
X57317745Y-87438323D01*
X57168573Y-87379261D01*
X57009400Y-87359153D01*
X56445150Y-87364200D01*
X56286400Y-87522950D01*
X56056632Y-87522950D01*
X56080817Y-87443847D01*
X56109880Y-87352228D01*
X56110431Y-87346983D01*
X56112088Y-87341564D01*
X56132601Y-87139629D01*
X56127600Y-87086725D01*
X56127600Y-85534746D01*
X56140385Y-85532721D01*
X56285554Y-85464410D01*
X56409174Y-85362142D01*
X56503477Y-85232345D01*
X56562539Y-85083173D01*
X56582647Y-84924000D01*
X56582647Y-83388200D01*
X62743766Y-83388200D01*
X62630862Y-83531162D01*
G36*
X114940725Y-86992588D02*
G01*
X114924945Y-86981123D01*
X114775773Y-86922061D01*
X114616600Y-86901953D01*
X114052350Y-86907000D01*
X113893600Y-87065750D01*
X113893600Y-88265000D01*
X113913600Y-88265000D01*
X113913600Y-88519000D01*
X113893600Y-88519000D01*
X113893600Y-89718250D01*
X114052350Y-89877000D01*
X114616600Y-89882047D01*
X114775773Y-89861939D01*
X114924945Y-89802877D01*
X114944478Y-89788685D01*
X114945673Y-90679183D01*
X114924945Y-90664123D01*
X114775773Y-90605061D01*
X114616600Y-90584953D01*
X112916600Y-90584953D01*
X112718815Y-90616279D01*
X112573646Y-90684590D01*
X112450026Y-90786858D01*
X112355723Y-90916655D01*
X112296661Y-91065827D01*
X112285981Y-91150369D01*
X112162761Y-91031377D01*
X111963231Y-90892700D01*
X111744096Y-90787708D01*
X111510994Y-90719102D01*
X111269921Y-90688647D01*
X111027080Y-90697128D01*
X110788719Y-90744324D01*
X110761199Y-90754559D01*
X110761199Y-89282189D01*
X112277816Y-89282189D01*
X112307879Y-89439785D01*
X112376190Y-89584954D01*
X112478458Y-89708574D01*
X112608255Y-89802877D01*
X112757427Y-89861939D01*
X112916600Y-89882047D01*
X113480850Y-89877000D01*
X113639600Y-89718250D01*
X113639600Y-88519000D01*
X112440350Y-88519000D01*
X112281600Y-88677750D01*
X112277816Y-89282189D01*
X110761199Y-89282189D01*
X110761199Y-89177111D01*
X112278803Y-87659507D01*
X112281600Y-88106250D01*
X112440350Y-88265000D01*
X113639600Y-88265000D01*
X113639600Y-87065750D01*
X113480850Y-86907000D01*
X113035296Y-86903015D01*
X113518732Y-86419579D01*
X113554455Y-86390857D01*
X113590965Y-86347346D01*
X113594763Y-86343548D01*
X113623142Y-86308999D01*
X113684924Y-86235370D01*
X113687560Y-86230575D01*
X113691029Y-86226352D01*
X113736401Y-86141732D01*
X113782707Y-86057502D01*
X113784361Y-86052286D01*
X113786944Y-86047470D01*
X113815017Y-85955649D01*
X113844080Y-85864030D01*
X113844631Y-85858785D01*
X113846288Y-85853366D01*
X113866801Y-85651431D01*
X113861800Y-85598527D01*
X113861800Y-85458546D01*
X113874585Y-85456521D01*
X114019754Y-85388210D01*
X114143374Y-85285942D01*
X114237677Y-85156145D01*
X114296739Y-85006973D01*
X114316847Y-84847800D01*
X114316847Y-83364453D01*
X114935854Y-83363636D01*
X114940725Y-86992588D01*
X114940725Y-86992588D01*
G37*
X114940725Y-86992588D02*
X114924945Y-86981123D01*
X114775773Y-86922061D01*
X114616600Y-86901953D01*
X114052350Y-86907000D01*
X113893600Y-87065750D01*
X113893600Y-88265000D01*
X113913600Y-88265000D01*
X113913600Y-88519000D01*
X113893600Y-88519000D01*
X113893600Y-89718250D01*
X114052350Y-89877000D01*
X114616600Y-89882047D01*
X114775773Y-89861939D01*
X114924945Y-89802877D01*
X114944478Y-89788685D01*
X114945673Y-90679183D01*
X114924945Y-90664123D01*
X114775773Y-90605061D01*
X114616600Y-90584953D01*
X112916600Y-90584953D01*
X112718815Y-90616279D01*
X112573646Y-90684590D01*
X112450026Y-90786858D01*
X112355723Y-90916655D01*
X112296661Y-91065827D01*
X112285981Y-91150369D01*
X112162761Y-91031377D01*
X111963231Y-90892700D01*
X111744096Y-90787708D01*
X111510994Y-90719102D01*
X111269921Y-90688647D01*
X111027080Y-90697128D01*
X110788719Y-90744324D01*
X110761199Y-90754559D01*
X110761199Y-89282189D01*
X112277816Y-89282189D01*
X112307879Y-89439785D01*
X112376190Y-89584954D01*
X112478458Y-89708574D01*
X112608255Y-89802877D01*
X112757427Y-89861939D01*
X112916600Y-89882047D01*
X113480850Y-89877000D01*
X113639600Y-89718250D01*
X113639600Y-88519000D01*
X112440350Y-88519000D01*
X112281600Y-88677750D01*
X112277816Y-89282189D01*
X110761199Y-89282189D01*
X110761199Y-89177111D01*
X112278803Y-87659507D01*
X112281600Y-88106250D01*
X112440350Y-88265000D01*
X113639600Y-88265000D01*
X113639600Y-87065750D01*
X113480850Y-86907000D01*
X113035296Y-86903015D01*
X113518732Y-86419579D01*
X113554455Y-86390857D01*
X113590965Y-86347346D01*
X113594763Y-86343548D01*
X113623142Y-86308999D01*
X113684924Y-86235370D01*
X113687560Y-86230575D01*
X113691029Y-86226352D01*
X113736401Y-86141732D01*
X113782707Y-86057502D01*
X113784361Y-86052286D01*
X113786944Y-86047470D01*
X113815017Y-85955649D01*
X113844080Y-85864030D01*
X113844631Y-85858785D01*
X113846288Y-85853366D01*
X113866801Y-85651431D01*
X113861800Y-85598527D01*
X113861800Y-85458546D01*
X113874585Y-85456521D01*
X114019754Y-85388210D01*
X114143374Y-85285942D01*
X114237677Y-85156145D01*
X114296739Y-85006973D01*
X114316847Y-84847800D01*
X114316847Y-83364453D01*
X114935854Y-83363636D01*
X114940725Y-86992588D01*
G36*
X24124462Y-83531162D02*
G01*
X24010422Y-83737744D01*
X23931654Y-83960179D01*
X23890272Y-84192492D01*
X23887390Y-84428444D01*
X23923083Y-84661698D01*
X23996393Y-84885991D01*
X24105351Y-85095298D01*
X24247032Y-85283999D01*
X24288800Y-85323914D01*
X24288800Y-87618066D01*
X24288801Y-87618074D01*
X24288801Y-88242688D01*
X21489337Y-91042153D01*
X20613000Y-91042153D01*
X20415215Y-91073479D01*
X20320000Y-91118284D01*
X20320000Y-89879866D01*
X20403027Y-89912739D01*
X20562200Y-89932847D01*
X21126450Y-89927800D01*
X21285200Y-89769050D01*
X21285200Y-88569800D01*
X21539200Y-88569800D01*
X21539200Y-89769050D01*
X21697950Y-89927800D01*
X22262200Y-89932847D01*
X22421373Y-89912739D01*
X22570545Y-89853677D01*
X22700342Y-89759374D01*
X22802610Y-89635754D01*
X22870921Y-89490585D01*
X22900984Y-89332989D01*
X22897200Y-88728550D01*
X22738450Y-88569800D01*
X21539200Y-88569800D01*
X21285200Y-88569800D01*
X21265200Y-88569800D01*
X21265200Y-88315800D01*
X21285200Y-88315800D01*
X21285200Y-87116550D01*
X21539200Y-87116550D01*
X21539200Y-88315800D01*
X22738450Y-88315800D01*
X22897200Y-88157050D01*
X22900984Y-87552611D01*
X22870921Y-87395015D01*
X22802610Y-87249846D01*
X22700342Y-87126226D01*
X22570545Y-87031923D01*
X22421373Y-86972861D01*
X22262200Y-86952753D01*
X21697950Y-86957800D01*
X21539200Y-87116550D01*
X21285200Y-87116550D01*
X21126450Y-86957800D01*
X20562200Y-86952753D01*
X20403027Y-86972861D01*
X20320000Y-87005734D01*
X20320000Y-83388200D01*
X24237366Y-83388200D01*
X24124462Y-83531162D01*
X24124462Y-83531162D01*
G37*
X24124462Y-83531162D02*
X24010422Y-83737744D01*
X23931654Y-83960179D01*
X23890272Y-84192492D01*
X23887390Y-84428444D01*
X23923083Y-84661698D01*
X23996393Y-84885991D01*
X24105351Y-85095298D01*
X24247032Y-85283999D01*
X24288800Y-85323914D01*
X24288800Y-87618066D01*
X24288801Y-87618074D01*
X24288801Y-88242688D01*
X21489337Y-91042153D01*
X20613000Y-91042153D01*
X20415215Y-91073479D01*
X20320000Y-91118284D01*
X20320000Y-89879866D01*
X20403027Y-89912739D01*
X20562200Y-89932847D01*
X21126450Y-89927800D01*
X21285200Y-89769050D01*
X21285200Y-88569800D01*
X21539200Y-88569800D01*
X21539200Y-89769050D01*
X21697950Y-89927800D01*
X22262200Y-89932847D01*
X22421373Y-89912739D01*
X22570545Y-89853677D01*
X22700342Y-89759374D01*
X22802610Y-89635754D01*
X22870921Y-89490585D01*
X22900984Y-89332989D01*
X22897200Y-88728550D01*
X22738450Y-88569800D01*
X21539200Y-88569800D01*
X21285200Y-88569800D01*
X21265200Y-88569800D01*
X21265200Y-88315800D01*
X21285200Y-88315800D01*
X21285200Y-87116550D01*
X21539200Y-87116550D01*
X21539200Y-88315800D01*
X22738450Y-88315800D01*
X22897200Y-88157050D01*
X22900984Y-87552611D01*
X22870921Y-87395015D01*
X22802610Y-87249846D01*
X22700342Y-87126226D01*
X22570545Y-87031923D01*
X22421373Y-86972861D01*
X22262200Y-86952753D01*
X21697950Y-86957800D01*
X21539200Y-87116550D01*
X21285200Y-87116550D01*
X21126450Y-86957800D01*
X20562200Y-86952753D01*
X20403027Y-86972861D01*
X20320000Y-87005734D01*
X20320000Y-83388200D01*
X24237366Y-83388200D01*
X24124462Y-83531162D01*
M02*
