G04 #@! TF.GenerationSoftware,KiCad,Pcbnew,6.0.0-unknown-cbea514~86~ubuntu18.04.1*
G04 #@! TF.CreationDate,2019-06-03T21:41:18+01:00*
G04 #@! TF.ProjectId,keyb,6b657962-2e6b-4696-9361-645f70636258,rev?*
G04 #@! TF.SameCoordinates,Original*
G04 #@! TF.FileFunction,Soldermask,Bot*
G04 #@! TF.FilePolarity,Negative*
%FSLAX46Y46*%
G04 Gerber Fmt 4.6, Leading zero omitted, Abs format (unit mm)*
G04 Created by KiCad (PCBNEW 6.0.0-unknown-cbea514~86~ubuntu18.04.1) date 2019-06-03 21:41:18*
%MOMM*%
%LPD*%
G04 APERTURE LIST*
%ADD10C,0.100000*%
G04 APERTURE END LIST*
D10*
G36*
X56120600Y-101180200D02*
G01*
X54318600Y-101180200D01*
X54318600Y-99378200D01*
X56120600Y-99378200D01*
X56120600Y-101180200D01*
X56120600Y-101180200D01*
G37*
G36*
X113829400Y-101104000D02*
G01*
X112027400Y-101104000D01*
X112027400Y-99302000D01*
X113829400Y-99302000D01*
X113829400Y-101104000D01*
X113829400Y-101104000D01*
G37*
G36*
X94601600Y-101104000D02*
G01*
X92799600Y-101104000D01*
X92799600Y-99302000D01*
X94601600Y-99302000D01*
X94601600Y-101104000D01*
X94601600Y-101104000D01*
G37*
G36*
X36892800Y-101078600D02*
G01*
X35090800Y-101078600D01*
X35090800Y-99276600D01*
X36892800Y-99276600D01*
X36892800Y-101078600D01*
X36892800Y-101078600D01*
G37*
G36*
X75373800Y-101078600D02*
G01*
X73571800Y-101078600D01*
X73571800Y-99276600D01*
X75373800Y-99276600D01*
X75373800Y-101078600D01*
X75373800Y-101078600D01*
G37*
G36*
X53148000Y-101027000D02*
G01*
X51246000Y-101027000D01*
X51246000Y-99125000D01*
X53148000Y-99125000D01*
X53148000Y-101027000D01*
X53148000Y-101027000D01*
G37*
G36*
X44711139Y-99140862D02*
G01*
X44851189Y-99161168D01*
X44856726Y-99163400D01*
X44866037Y-99164841D01*
X44943772Y-99198480D01*
X45016641Y-99227847D01*
X45026814Y-99234415D01*
X45043347Y-99241570D01*
X45107930Y-99286791D01*
X45169093Y-99326284D01*
X45182063Y-99338700D01*
X45201607Y-99352385D01*
X45251757Y-99405417D01*
X45300177Y-99451769D01*
X45313947Y-99471181D01*
X45334353Y-99492760D01*
X45369749Y-99549848D01*
X45405169Y-99599781D01*
X45417432Y-99626753D01*
X45436161Y-99656959D01*
X45457347Y-99714542D01*
X45480278Y-99764975D01*
X45488585Y-99799442D01*
X45502873Y-99838276D01*
X45511176Y-99893180D01*
X45522797Y-99941397D01*
X45524706Y-99982641D01*
X45531763Y-100029304D01*
X45529162Y-100078924D01*
X45531187Y-100122668D01*
X45524426Y-100169300D01*
X45521651Y-100222240D01*
X45510596Y-100264682D01*
X45505148Y-100302255D01*
X45487785Y-100352254D01*
X45472952Y-100409201D01*
X45456158Y-100443331D01*
X45445618Y-100473683D01*
X45416208Y-100524520D01*
X45387653Y-100582552D01*
X45367916Y-100607997D01*
X45354746Y-100630762D01*
X45312446Y-100679508D01*
X45269239Y-100735210D01*
X45249222Y-100752367D01*
X45235813Y-100767819D01*
X45180507Y-100811262D01*
X45122547Y-100860940D01*
X45104599Y-100870889D01*
X45093103Y-100879919D01*
X45025423Y-100914777D01*
X44953571Y-100954605D01*
X44939578Y-100958990D01*
X44931777Y-100963008D01*
X44853178Y-100986066D01*
X44769211Y-101012380D01*
X44760448Y-101013270D01*
X44757650Y-101014091D01*
X44670654Y-101022391D01*
X44625279Y-101027000D01*
X44545322Y-101027000D01*
X44442861Y-101011138D01*
X44302811Y-100990832D01*
X44297274Y-100988600D01*
X44287963Y-100987159D01*
X44210228Y-100953520D01*
X44137359Y-100924153D01*
X44127186Y-100917585D01*
X44110653Y-100910430D01*
X44046070Y-100865209D01*
X43984907Y-100825716D01*
X43971937Y-100813300D01*
X43952393Y-100799615D01*
X43902243Y-100746583D01*
X43853823Y-100700231D01*
X43840053Y-100680819D01*
X43819647Y-100659240D01*
X43784251Y-100602152D01*
X43748831Y-100552219D01*
X43736568Y-100525247D01*
X43717839Y-100495041D01*
X43696653Y-100437458D01*
X43673722Y-100387025D01*
X43665415Y-100352558D01*
X43651127Y-100313724D01*
X43642824Y-100258820D01*
X43631203Y-100210603D01*
X43629294Y-100169359D01*
X43622237Y-100122696D01*
X43624838Y-100073076D01*
X43622813Y-100029332D01*
X43629574Y-99982700D01*
X43632349Y-99929760D01*
X43643404Y-99887318D01*
X43648852Y-99849745D01*
X43666215Y-99799746D01*
X43681048Y-99742799D01*
X43697842Y-99708669D01*
X43708382Y-99678317D01*
X43737792Y-99627480D01*
X43766347Y-99569448D01*
X43786084Y-99544003D01*
X43799254Y-99521238D01*
X43841554Y-99472492D01*
X43884761Y-99416790D01*
X43904778Y-99399633D01*
X43918187Y-99384181D01*
X43973493Y-99340738D01*
X44031453Y-99291060D01*
X44049401Y-99281111D01*
X44060897Y-99272081D01*
X44128577Y-99237223D01*
X44200429Y-99197395D01*
X44214422Y-99193010D01*
X44222223Y-99188992D01*
X44300822Y-99165934D01*
X44384789Y-99139620D01*
X44393552Y-99138730D01*
X44396350Y-99137909D01*
X44483346Y-99129609D01*
X44528721Y-99125000D01*
X44608678Y-99125000D01*
X44711139Y-99140862D01*
X44711139Y-99140862D01*
G37*
G36*
X91629000Y-100950800D02*
G01*
X89727000Y-100950800D01*
X89727000Y-99048800D01*
X91629000Y-99048800D01*
X91629000Y-100950800D01*
X91629000Y-100950800D01*
G37*
G36*
X83192139Y-99064662D02*
G01*
X83332189Y-99084968D01*
X83337726Y-99087200D01*
X83347037Y-99088641D01*
X83424772Y-99122280D01*
X83497641Y-99151647D01*
X83507814Y-99158215D01*
X83524347Y-99165370D01*
X83588930Y-99210591D01*
X83650093Y-99250084D01*
X83663063Y-99262500D01*
X83682607Y-99276185D01*
X83732757Y-99329217D01*
X83781177Y-99375569D01*
X83794947Y-99394981D01*
X83815353Y-99416560D01*
X83850749Y-99473648D01*
X83886169Y-99523581D01*
X83898432Y-99550553D01*
X83917161Y-99580759D01*
X83938347Y-99638342D01*
X83961278Y-99688775D01*
X83969585Y-99723242D01*
X83983873Y-99762076D01*
X83992176Y-99816980D01*
X84003797Y-99865197D01*
X84005706Y-99906441D01*
X84012763Y-99953104D01*
X84010162Y-100002724D01*
X84012187Y-100046468D01*
X84005426Y-100093100D01*
X84002651Y-100146040D01*
X83991596Y-100188482D01*
X83986148Y-100226055D01*
X83968785Y-100276054D01*
X83953952Y-100333001D01*
X83937158Y-100367131D01*
X83926618Y-100397483D01*
X83897208Y-100448320D01*
X83868653Y-100506352D01*
X83848916Y-100531797D01*
X83835746Y-100554562D01*
X83793446Y-100603308D01*
X83750239Y-100659010D01*
X83730222Y-100676167D01*
X83716813Y-100691619D01*
X83661507Y-100735062D01*
X83603547Y-100784740D01*
X83585599Y-100794689D01*
X83574103Y-100803719D01*
X83506423Y-100838577D01*
X83434571Y-100878405D01*
X83420578Y-100882790D01*
X83412777Y-100886808D01*
X83334178Y-100909866D01*
X83250211Y-100936180D01*
X83241448Y-100937070D01*
X83238650Y-100937891D01*
X83151654Y-100946191D01*
X83106279Y-100950800D01*
X83026322Y-100950800D01*
X82923861Y-100934938D01*
X82783811Y-100914632D01*
X82778274Y-100912400D01*
X82768963Y-100910959D01*
X82691228Y-100877320D01*
X82618359Y-100847953D01*
X82608186Y-100841385D01*
X82591653Y-100834230D01*
X82527070Y-100789009D01*
X82465907Y-100749516D01*
X82452937Y-100737100D01*
X82433393Y-100723415D01*
X82383243Y-100670383D01*
X82334823Y-100624031D01*
X82321053Y-100604619D01*
X82300647Y-100583040D01*
X82265251Y-100525952D01*
X82229831Y-100476019D01*
X82217568Y-100449047D01*
X82198839Y-100418841D01*
X82177653Y-100361258D01*
X82154722Y-100310825D01*
X82146415Y-100276358D01*
X82132127Y-100237524D01*
X82123824Y-100182620D01*
X82112203Y-100134403D01*
X82110294Y-100093159D01*
X82103237Y-100046496D01*
X82105838Y-99996876D01*
X82103813Y-99953132D01*
X82110574Y-99906500D01*
X82113349Y-99853560D01*
X82124404Y-99811118D01*
X82129852Y-99773545D01*
X82147215Y-99723546D01*
X82162048Y-99666599D01*
X82178842Y-99632469D01*
X82189382Y-99602117D01*
X82218792Y-99551280D01*
X82247347Y-99493248D01*
X82267084Y-99467803D01*
X82280254Y-99445038D01*
X82322554Y-99396292D01*
X82365761Y-99340590D01*
X82385778Y-99323433D01*
X82399187Y-99307981D01*
X82454493Y-99264538D01*
X82512453Y-99214860D01*
X82530401Y-99204911D01*
X82541897Y-99195881D01*
X82609577Y-99161023D01*
X82681429Y-99121195D01*
X82695422Y-99116810D01*
X82703223Y-99112792D01*
X82781822Y-99089734D01*
X82865789Y-99063420D01*
X82874552Y-99062530D01*
X82877350Y-99061709D01*
X82964346Y-99053409D01*
X83009721Y-99048800D01*
X83089678Y-99048800D01*
X83192139Y-99064662D01*
X83192139Y-99064662D01*
G37*
G36*
X102419939Y-99064662D02*
G01*
X102559989Y-99084968D01*
X102565526Y-99087200D01*
X102574837Y-99088641D01*
X102652572Y-99122280D01*
X102725441Y-99151647D01*
X102735614Y-99158215D01*
X102752147Y-99165370D01*
X102816730Y-99210591D01*
X102877893Y-99250084D01*
X102890863Y-99262500D01*
X102910407Y-99276185D01*
X102960557Y-99329217D01*
X103008977Y-99375569D01*
X103022747Y-99394981D01*
X103043153Y-99416560D01*
X103078549Y-99473648D01*
X103113969Y-99523581D01*
X103126232Y-99550553D01*
X103144961Y-99580759D01*
X103166147Y-99638342D01*
X103189078Y-99688775D01*
X103197385Y-99723242D01*
X103211673Y-99762076D01*
X103219976Y-99816980D01*
X103231597Y-99865197D01*
X103233506Y-99906441D01*
X103240563Y-99953104D01*
X103237962Y-100002724D01*
X103239987Y-100046468D01*
X103233226Y-100093100D01*
X103230451Y-100146040D01*
X103219396Y-100188482D01*
X103213948Y-100226055D01*
X103196585Y-100276054D01*
X103181752Y-100333001D01*
X103164958Y-100367131D01*
X103154418Y-100397483D01*
X103125008Y-100448320D01*
X103096453Y-100506352D01*
X103076716Y-100531797D01*
X103063546Y-100554562D01*
X103021246Y-100603308D01*
X102978039Y-100659010D01*
X102958022Y-100676167D01*
X102944613Y-100691619D01*
X102889307Y-100735062D01*
X102831347Y-100784740D01*
X102813399Y-100794689D01*
X102801903Y-100803719D01*
X102734223Y-100838577D01*
X102662371Y-100878405D01*
X102648378Y-100882790D01*
X102640577Y-100886808D01*
X102561978Y-100909866D01*
X102478011Y-100936180D01*
X102469248Y-100937070D01*
X102466450Y-100937891D01*
X102379454Y-100946191D01*
X102334079Y-100950800D01*
X102254122Y-100950800D01*
X102151661Y-100934938D01*
X102011611Y-100914632D01*
X102006074Y-100912400D01*
X101996763Y-100910959D01*
X101919028Y-100877320D01*
X101846159Y-100847953D01*
X101835986Y-100841385D01*
X101819453Y-100834230D01*
X101754870Y-100789009D01*
X101693707Y-100749516D01*
X101680737Y-100737100D01*
X101661193Y-100723415D01*
X101611043Y-100670383D01*
X101562623Y-100624031D01*
X101548853Y-100604619D01*
X101528447Y-100583040D01*
X101493051Y-100525952D01*
X101457631Y-100476019D01*
X101445368Y-100449047D01*
X101426639Y-100418841D01*
X101405453Y-100361258D01*
X101382522Y-100310825D01*
X101374215Y-100276358D01*
X101359927Y-100237524D01*
X101351624Y-100182620D01*
X101340003Y-100134403D01*
X101338094Y-100093159D01*
X101331037Y-100046496D01*
X101333638Y-99996876D01*
X101331613Y-99953132D01*
X101338374Y-99906500D01*
X101341149Y-99853560D01*
X101352204Y-99811118D01*
X101357652Y-99773545D01*
X101375015Y-99723546D01*
X101389848Y-99666599D01*
X101406642Y-99632469D01*
X101417182Y-99602117D01*
X101446592Y-99551280D01*
X101475147Y-99493248D01*
X101494884Y-99467803D01*
X101508054Y-99445038D01*
X101550354Y-99396292D01*
X101593561Y-99340590D01*
X101613578Y-99323433D01*
X101626987Y-99307981D01*
X101682293Y-99264538D01*
X101740253Y-99214860D01*
X101758201Y-99204911D01*
X101769697Y-99195881D01*
X101837377Y-99161023D01*
X101909229Y-99121195D01*
X101923222Y-99116810D01*
X101931023Y-99112792D01*
X102009622Y-99089734D01*
X102093589Y-99063420D01*
X102102352Y-99062530D01*
X102105150Y-99061709D01*
X102192146Y-99053409D01*
X102237521Y-99048800D01*
X102317478Y-99048800D01*
X102419939Y-99064662D01*
X102419939Y-99064662D01*
G37*
G36*
X110856800Y-100950800D02*
G01*
X108954800Y-100950800D01*
X108954800Y-99048800D01*
X110856800Y-99048800D01*
X110856800Y-100950800D01*
X110856800Y-100950800D01*
G37*
G36*
X63964339Y-99039262D02*
G01*
X64104389Y-99059568D01*
X64109926Y-99061800D01*
X64119237Y-99063241D01*
X64196972Y-99096880D01*
X64269841Y-99126247D01*
X64280014Y-99132815D01*
X64296547Y-99139970D01*
X64361130Y-99185191D01*
X64422293Y-99224684D01*
X64435263Y-99237100D01*
X64454807Y-99250785D01*
X64504957Y-99303817D01*
X64553377Y-99350169D01*
X64567147Y-99369581D01*
X64587553Y-99391160D01*
X64622949Y-99448248D01*
X64658369Y-99498181D01*
X64670632Y-99525153D01*
X64689361Y-99555359D01*
X64710547Y-99612942D01*
X64733478Y-99663375D01*
X64741785Y-99697842D01*
X64756073Y-99736676D01*
X64764376Y-99791580D01*
X64775997Y-99839797D01*
X64777906Y-99881041D01*
X64784963Y-99927704D01*
X64782362Y-99977324D01*
X64784387Y-100021068D01*
X64777626Y-100067700D01*
X64774851Y-100120640D01*
X64763796Y-100163082D01*
X64758348Y-100200655D01*
X64740985Y-100250654D01*
X64726152Y-100307601D01*
X64709358Y-100341731D01*
X64698818Y-100372083D01*
X64669408Y-100422920D01*
X64640853Y-100480952D01*
X64621116Y-100506397D01*
X64607946Y-100529162D01*
X64565646Y-100577908D01*
X64522439Y-100633610D01*
X64502422Y-100650767D01*
X64489013Y-100666219D01*
X64433707Y-100709662D01*
X64375747Y-100759340D01*
X64357799Y-100769289D01*
X64346303Y-100778319D01*
X64278623Y-100813177D01*
X64206771Y-100853005D01*
X64192778Y-100857390D01*
X64184977Y-100861408D01*
X64106378Y-100884466D01*
X64022411Y-100910780D01*
X64013648Y-100911670D01*
X64010850Y-100912491D01*
X63923854Y-100920791D01*
X63878479Y-100925400D01*
X63798522Y-100925400D01*
X63696061Y-100909538D01*
X63556011Y-100889232D01*
X63550474Y-100887000D01*
X63541163Y-100885559D01*
X63463428Y-100851920D01*
X63390559Y-100822553D01*
X63380386Y-100815985D01*
X63363853Y-100808830D01*
X63299270Y-100763609D01*
X63238107Y-100724116D01*
X63225137Y-100711700D01*
X63205593Y-100698015D01*
X63155443Y-100644983D01*
X63107023Y-100598631D01*
X63093253Y-100579219D01*
X63072847Y-100557640D01*
X63037451Y-100500552D01*
X63002031Y-100450619D01*
X62989768Y-100423647D01*
X62971039Y-100393441D01*
X62949853Y-100335858D01*
X62926922Y-100285425D01*
X62918615Y-100250958D01*
X62904327Y-100212124D01*
X62896024Y-100157220D01*
X62884403Y-100109003D01*
X62882494Y-100067759D01*
X62875437Y-100021096D01*
X62878038Y-99971476D01*
X62876013Y-99927732D01*
X62882774Y-99881100D01*
X62885549Y-99828160D01*
X62896604Y-99785718D01*
X62902052Y-99748145D01*
X62919415Y-99698146D01*
X62934248Y-99641199D01*
X62951042Y-99607069D01*
X62961582Y-99576717D01*
X62990992Y-99525880D01*
X63019547Y-99467848D01*
X63039284Y-99442403D01*
X63052454Y-99419638D01*
X63094754Y-99370892D01*
X63137961Y-99315190D01*
X63157978Y-99298033D01*
X63171387Y-99282581D01*
X63226693Y-99239138D01*
X63284653Y-99189460D01*
X63302601Y-99179511D01*
X63314097Y-99170481D01*
X63381777Y-99135623D01*
X63453629Y-99095795D01*
X63467622Y-99091410D01*
X63475423Y-99087392D01*
X63554022Y-99064334D01*
X63637989Y-99038020D01*
X63646752Y-99037130D01*
X63649550Y-99036309D01*
X63736546Y-99028009D01*
X63781921Y-99023400D01*
X63861878Y-99023400D01*
X63964339Y-99039262D01*
X63964339Y-99039262D01*
G37*
G36*
X33920200Y-100925400D02*
G01*
X32018200Y-100925400D01*
X32018200Y-99023400D01*
X33920200Y-99023400D01*
X33920200Y-100925400D01*
X33920200Y-100925400D01*
G37*
G36*
X25483339Y-99039262D02*
G01*
X25623389Y-99059568D01*
X25628926Y-99061800D01*
X25638237Y-99063241D01*
X25715972Y-99096880D01*
X25788841Y-99126247D01*
X25799014Y-99132815D01*
X25815547Y-99139970D01*
X25880130Y-99185191D01*
X25941293Y-99224684D01*
X25954263Y-99237100D01*
X25973807Y-99250785D01*
X26023957Y-99303817D01*
X26072377Y-99350169D01*
X26086147Y-99369581D01*
X26106553Y-99391160D01*
X26141949Y-99448248D01*
X26177369Y-99498181D01*
X26189632Y-99525153D01*
X26208361Y-99555359D01*
X26229547Y-99612942D01*
X26252478Y-99663375D01*
X26260785Y-99697842D01*
X26275073Y-99736676D01*
X26283376Y-99791580D01*
X26294997Y-99839797D01*
X26296906Y-99881041D01*
X26303963Y-99927704D01*
X26301362Y-99977324D01*
X26303387Y-100021068D01*
X26296626Y-100067700D01*
X26293851Y-100120640D01*
X26282796Y-100163082D01*
X26277348Y-100200655D01*
X26259985Y-100250654D01*
X26245152Y-100307601D01*
X26228358Y-100341731D01*
X26217818Y-100372083D01*
X26188408Y-100422920D01*
X26159853Y-100480952D01*
X26140116Y-100506397D01*
X26126946Y-100529162D01*
X26084646Y-100577908D01*
X26041439Y-100633610D01*
X26021422Y-100650767D01*
X26008013Y-100666219D01*
X25952707Y-100709662D01*
X25894747Y-100759340D01*
X25876799Y-100769289D01*
X25865303Y-100778319D01*
X25797623Y-100813177D01*
X25725771Y-100853005D01*
X25711778Y-100857390D01*
X25703977Y-100861408D01*
X25625378Y-100884466D01*
X25541411Y-100910780D01*
X25532648Y-100911670D01*
X25529850Y-100912491D01*
X25442854Y-100920791D01*
X25397479Y-100925400D01*
X25317522Y-100925400D01*
X25215061Y-100909538D01*
X25075011Y-100889232D01*
X25069474Y-100887000D01*
X25060163Y-100885559D01*
X24982428Y-100851920D01*
X24909559Y-100822553D01*
X24899386Y-100815985D01*
X24882853Y-100808830D01*
X24818270Y-100763609D01*
X24757107Y-100724116D01*
X24744137Y-100711700D01*
X24724593Y-100698015D01*
X24674443Y-100644983D01*
X24626023Y-100598631D01*
X24612253Y-100579219D01*
X24591847Y-100557640D01*
X24556451Y-100500552D01*
X24521031Y-100450619D01*
X24508768Y-100423647D01*
X24490039Y-100393441D01*
X24468853Y-100335858D01*
X24445922Y-100285425D01*
X24437615Y-100250958D01*
X24423327Y-100212124D01*
X24415024Y-100157220D01*
X24403403Y-100109003D01*
X24401494Y-100067759D01*
X24394437Y-100021096D01*
X24397038Y-99971476D01*
X24395013Y-99927732D01*
X24401774Y-99881100D01*
X24404549Y-99828160D01*
X24415604Y-99785718D01*
X24421052Y-99748145D01*
X24438415Y-99698146D01*
X24453248Y-99641199D01*
X24470042Y-99607069D01*
X24480582Y-99576717D01*
X24509992Y-99525880D01*
X24538547Y-99467848D01*
X24558284Y-99442403D01*
X24571454Y-99419638D01*
X24613754Y-99370892D01*
X24656961Y-99315190D01*
X24676978Y-99298033D01*
X24690387Y-99282581D01*
X24745693Y-99239138D01*
X24803653Y-99189460D01*
X24821601Y-99179511D01*
X24833097Y-99170481D01*
X24900777Y-99135623D01*
X24972629Y-99095795D01*
X24986622Y-99091410D01*
X24994423Y-99087392D01*
X25073022Y-99064334D01*
X25156989Y-99038020D01*
X25165752Y-99037130D01*
X25168550Y-99036309D01*
X25255546Y-99028009D01*
X25300921Y-99023400D01*
X25380878Y-99023400D01*
X25483339Y-99039262D01*
X25483339Y-99039262D01*
G37*
G36*
X72401200Y-100925400D02*
G01*
X70499200Y-100925400D01*
X70499200Y-99023400D01*
X72401200Y-99023400D01*
X72401200Y-100925400D01*
X72401200Y-100925400D01*
G37*
G36*
X84390948Y-96106001D02*
G01*
X84430887Y-96106001D01*
X84491067Y-96116612D01*
X84559420Y-96123857D01*
X84599210Y-96135681D01*
X84633532Y-96141733D01*
X84695613Y-96164328D01*
X84766600Y-96185423D01*
X84798934Y-96201934D01*
X84826899Y-96212112D01*
X84888366Y-96247600D01*
X84959090Y-96283714D01*
X84983752Y-96302672D01*
X85005103Y-96314999D01*
X85063152Y-96363707D01*
X85130446Y-96415437D01*
X85147766Y-96434706D01*
X85162734Y-96447266D01*
X85214416Y-96508859D01*
X85274928Y-96576182D01*
X85285739Y-96593859D01*
X85295001Y-96604897D01*
X85337340Y-96678230D01*
X85387696Y-96760565D01*
X85393246Y-96775061D01*
X85397888Y-96783101D01*
X85428001Y-96865837D01*
X85464976Y-96962411D01*
X85466851Y-96972578D01*
X85468267Y-96976468D01*
X85483460Y-97062633D01*
X85504177Y-97174959D01*
X85503999Y-97181538D01*
X85503999Y-97384887D01*
X85497500Y-97421745D01*
X85496668Y-97452490D01*
X85479566Y-97523450D01*
X85468267Y-97587532D01*
X85456000Y-97621237D01*
X85446029Y-97662608D01*
X85418447Y-97724412D01*
X85397888Y-97780899D01*
X85377409Y-97816370D01*
X85357947Y-97859979D01*
X85322555Y-97911379D01*
X85295001Y-97959103D01*
X85265416Y-97994362D01*
X85235372Y-98037994D01*
X85194923Y-98078373D01*
X85162734Y-98116734D01*
X85123599Y-98149572D01*
X85082409Y-98190690D01*
X85039587Y-98220066D01*
X85005103Y-98249001D01*
X84956510Y-98277056D01*
X84904181Y-98312954D01*
X84861491Y-98331916D01*
X84826899Y-98351888D01*
X84769470Y-98372790D01*
X84706656Y-98400691D01*
X84666285Y-98410346D01*
X84633532Y-98422267D01*
X84568466Y-98433740D01*
X84496450Y-98450963D01*
X84460193Y-98452832D01*
X84430887Y-98457999D01*
X84359925Y-98457999D01*
X84280603Y-98462087D01*
X84249761Y-98457999D01*
X84225113Y-98457999D01*
X84150498Y-98444842D01*
X84066343Y-98433688D01*
X84041706Y-98425659D01*
X84022468Y-98422267D01*
X83946919Y-98394770D01*
X83860846Y-98366720D01*
X83842648Y-98356819D01*
X83829101Y-98351888D01*
X83755756Y-98309542D01*
X83670994Y-98263424D01*
X83658937Y-98253643D01*
X83650897Y-98249001D01*
X83583415Y-98192378D01*
X83503145Y-98127260D01*
X83496445Y-98119402D01*
X83493266Y-98116734D01*
X83436934Y-98049600D01*
X83362921Y-97962788D01*
X83261121Y-97786111D01*
X83258112Y-97780899D01*
X83258102Y-97780870D01*
X83255017Y-97775517D01*
X83217973Y-97670616D01*
X83187733Y-97587532D01*
X83186836Y-97582443D01*
X83183048Y-97571717D01*
X83167196Y-97471061D01*
X83152001Y-97384887D01*
X83152001Y-97374578D01*
X83149424Y-97358215D01*
X83152001Y-97262975D01*
X83152001Y-97179113D01*
X83154681Y-97163912D01*
X83155270Y-97142160D01*
X83173932Y-97054739D01*
X83187733Y-96976468D01*
X83194763Y-96957152D01*
X83200391Y-96930789D01*
X83232524Y-96853404D01*
X83258112Y-96783101D01*
X83270949Y-96760867D01*
X83283276Y-96731180D01*
X83326003Y-96665512D01*
X83360999Y-96604897D01*
X83380780Y-96581322D01*
X83401149Y-96550017D01*
X83451430Y-96497124D01*
X83493266Y-96447266D01*
X83520750Y-96424204D01*
X83550063Y-96393369D01*
X83604848Y-96353639D01*
X83650897Y-96314999D01*
X83686366Y-96294521D01*
X83725029Y-96266482D01*
X83781377Y-96239666D01*
X83829101Y-96212112D01*
X83872354Y-96196369D01*
X83920190Y-96173604D01*
X83975420Y-96158857D01*
X84022468Y-96141733D01*
X84072769Y-96132864D01*
X84129008Y-96117847D01*
X84180783Y-96113818D01*
X84225113Y-96106001D01*
X84281220Y-96106001D01*
X84344490Y-96101077D01*
X84390948Y-96106001D01*
X84390948Y-96106001D01*
G37*
G36*
X65163148Y-96106001D02*
G01*
X65203087Y-96106001D01*
X65263267Y-96116612D01*
X65331620Y-96123857D01*
X65371410Y-96135681D01*
X65405732Y-96141733D01*
X65467813Y-96164328D01*
X65538800Y-96185423D01*
X65571134Y-96201934D01*
X65599099Y-96212112D01*
X65660566Y-96247600D01*
X65731290Y-96283714D01*
X65755952Y-96302672D01*
X65777303Y-96314999D01*
X65835352Y-96363707D01*
X65902646Y-96415437D01*
X65919966Y-96434706D01*
X65934934Y-96447266D01*
X65986616Y-96508859D01*
X66047128Y-96576182D01*
X66057939Y-96593859D01*
X66067201Y-96604897D01*
X66109540Y-96678230D01*
X66159896Y-96760565D01*
X66165446Y-96775061D01*
X66170088Y-96783101D01*
X66200201Y-96865837D01*
X66237176Y-96962411D01*
X66239051Y-96972578D01*
X66240467Y-96976468D01*
X66255660Y-97062633D01*
X66276377Y-97174959D01*
X66276199Y-97181538D01*
X66276199Y-97384887D01*
X66269700Y-97421745D01*
X66268868Y-97452490D01*
X66251766Y-97523450D01*
X66240467Y-97587532D01*
X66228200Y-97621237D01*
X66218229Y-97662608D01*
X66190647Y-97724412D01*
X66170088Y-97780899D01*
X66149609Y-97816370D01*
X66130147Y-97859979D01*
X66094755Y-97911379D01*
X66067201Y-97959103D01*
X66037616Y-97994362D01*
X66007572Y-98037994D01*
X65967123Y-98078373D01*
X65934934Y-98116734D01*
X65895799Y-98149572D01*
X65854609Y-98190690D01*
X65811787Y-98220066D01*
X65777303Y-98249001D01*
X65728710Y-98277056D01*
X65676381Y-98312954D01*
X65633691Y-98331916D01*
X65599099Y-98351888D01*
X65541670Y-98372790D01*
X65478856Y-98400691D01*
X65438485Y-98410346D01*
X65405732Y-98422267D01*
X65340666Y-98433740D01*
X65268650Y-98450963D01*
X65232393Y-98452832D01*
X65203087Y-98457999D01*
X65132125Y-98457999D01*
X65052803Y-98462087D01*
X65021961Y-98457999D01*
X64997313Y-98457999D01*
X64922698Y-98444842D01*
X64838543Y-98433688D01*
X64813906Y-98425659D01*
X64794668Y-98422267D01*
X64719119Y-98394770D01*
X64633046Y-98366720D01*
X64614848Y-98356819D01*
X64601301Y-98351888D01*
X64527956Y-98309542D01*
X64443194Y-98263424D01*
X64431137Y-98253643D01*
X64423097Y-98249001D01*
X64355615Y-98192378D01*
X64275345Y-98127260D01*
X64268645Y-98119402D01*
X64265466Y-98116734D01*
X64209134Y-98049600D01*
X64135121Y-97962788D01*
X64033321Y-97786111D01*
X64030312Y-97780899D01*
X64030302Y-97780870D01*
X64027217Y-97775517D01*
X63990173Y-97670616D01*
X63959933Y-97587532D01*
X63959036Y-97582443D01*
X63955248Y-97571717D01*
X63939396Y-97471061D01*
X63924201Y-97384887D01*
X63924201Y-97374578D01*
X63921624Y-97358215D01*
X63924201Y-97262975D01*
X63924201Y-97179113D01*
X63926881Y-97163912D01*
X63927470Y-97142160D01*
X63946132Y-97054739D01*
X63959933Y-96976468D01*
X63966963Y-96957152D01*
X63972591Y-96930789D01*
X64004724Y-96853404D01*
X64030312Y-96783101D01*
X64043149Y-96760867D01*
X64055476Y-96731180D01*
X64098203Y-96665512D01*
X64133199Y-96604897D01*
X64152980Y-96581322D01*
X64173349Y-96550017D01*
X64223630Y-96497124D01*
X64265466Y-96447266D01*
X64292950Y-96424204D01*
X64322263Y-96393369D01*
X64377048Y-96353639D01*
X64423097Y-96314999D01*
X64458566Y-96294521D01*
X64497229Y-96266482D01*
X64553577Y-96239666D01*
X64601301Y-96212112D01*
X64644554Y-96196369D01*
X64692390Y-96173604D01*
X64747620Y-96158857D01*
X64794668Y-96141733D01*
X64844969Y-96132864D01*
X64901208Y-96117847D01*
X64952983Y-96113818D01*
X64997313Y-96106001D01*
X65053420Y-96106001D01*
X65116690Y-96101077D01*
X65163148Y-96106001D01*
X65163148Y-96106001D01*
G37*
G36*
X26656748Y-96106001D02*
G01*
X26696687Y-96106001D01*
X26756867Y-96116612D01*
X26825220Y-96123857D01*
X26865010Y-96135681D01*
X26899332Y-96141733D01*
X26961413Y-96164328D01*
X27032400Y-96185423D01*
X27064734Y-96201934D01*
X27092699Y-96212112D01*
X27154166Y-96247600D01*
X27224890Y-96283714D01*
X27249552Y-96302672D01*
X27270903Y-96314999D01*
X27328952Y-96363707D01*
X27396246Y-96415437D01*
X27413566Y-96434706D01*
X27428534Y-96447266D01*
X27480216Y-96508859D01*
X27540728Y-96576182D01*
X27551539Y-96593859D01*
X27560801Y-96604897D01*
X27603140Y-96678230D01*
X27653496Y-96760565D01*
X27659046Y-96775061D01*
X27663688Y-96783101D01*
X27693801Y-96865837D01*
X27730776Y-96962411D01*
X27732651Y-96972578D01*
X27734067Y-96976468D01*
X27749260Y-97062633D01*
X27769977Y-97174959D01*
X27769799Y-97181538D01*
X27769799Y-97384887D01*
X27763300Y-97421745D01*
X27762468Y-97452490D01*
X27745366Y-97523450D01*
X27734067Y-97587532D01*
X27721800Y-97621237D01*
X27711829Y-97662608D01*
X27684247Y-97724412D01*
X27663688Y-97780899D01*
X27643209Y-97816370D01*
X27623747Y-97859979D01*
X27588355Y-97911379D01*
X27560801Y-97959103D01*
X27531216Y-97994362D01*
X27501172Y-98037994D01*
X27460723Y-98078373D01*
X27428534Y-98116734D01*
X27389399Y-98149572D01*
X27348209Y-98190690D01*
X27305387Y-98220066D01*
X27270903Y-98249001D01*
X27222310Y-98277056D01*
X27169981Y-98312954D01*
X27127291Y-98331916D01*
X27092699Y-98351888D01*
X27035270Y-98372790D01*
X26972456Y-98400691D01*
X26932085Y-98410346D01*
X26899332Y-98422267D01*
X26834266Y-98433740D01*
X26762250Y-98450963D01*
X26725993Y-98452832D01*
X26696687Y-98457999D01*
X26625725Y-98457999D01*
X26546403Y-98462087D01*
X26515561Y-98457999D01*
X26490913Y-98457999D01*
X26416298Y-98444842D01*
X26332143Y-98433688D01*
X26307506Y-98425659D01*
X26288268Y-98422267D01*
X26212719Y-98394770D01*
X26126646Y-98366720D01*
X26108448Y-98356819D01*
X26094901Y-98351888D01*
X26021556Y-98309542D01*
X25936794Y-98263424D01*
X25924737Y-98253643D01*
X25916697Y-98249001D01*
X25849215Y-98192378D01*
X25768945Y-98127260D01*
X25762245Y-98119402D01*
X25759066Y-98116734D01*
X25702734Y-98049600D01*
X25628721Y-97962788D01*
X25526921Y-97786111D01*
X25523912Y-97780899D01*
X25523902Y-97780870D01*
X25520817Y-97775517D01*
X25483773Y-97670616D01*
X25453533Y-97587532D01*
X25452636Y-97582443D01*
X25448848Y-97571717D01*
X25432996Y-97471061D01*
X25417801Y-97384887D01*
X25417801Y-97374578D01*
X25415224Y-97358215D01*
X25417801Y-97262975D01*
X25417801Y-97179113D01*
X25420481Y-97163912D01*
X25421070Y-97142160D01*
X25439732Y-97054739D01*
X25453533Y-96976468D01*
X25460563Y-96957152D01*
X25466191Y-96930789D01*
X25498324Y-96853404D01*
X25523912Y-96783101D01*
X25536749Y-96760867D01*
X25549076Y-96731180D01*
X25591803Y-96665512D01*
X25626799Y-96604897D01*
X25646580Y-96581322D01*
X25666949Y-96550017D01*
X25717230Y-96497124D01*
X25759066Y-96447266D01*
X25786550Y-96424204D01*
X25815863Y-96393369D01*
X25870648Y-96353639D01*
X25916697Y-96314999D01*
X25952166Y-96294521D01*
X25990829Y-96266482D01*
X26047177Y-96239666D01*
X26094901Y-96212112D01*
X26138154Y-96196369D01*
X26185990Y-96173604D01*
X26241220Y-96158857D01*
X26288268Y-96141733D01*
X26338569Y-96132864D01*
X26394808Y-96117847D01*
X26446583Y-96113818D01*
X26490913Y-96106001D01*
X26547020Y-96106001D01*
X26610290Y-96101077D01*
X26656748Y-96106001D01*
X26656748Y-96106001D01*
G37*
G36*
X103644148Y-96106001D02*
G01*
X103684087Y-96106001D01*
X103744267Y-96116612D01*
X103812620Y-96123857D01*
X103852410Y-96135681D01*
X103886732Y-96141733D01*
X103948813Y-96164328D01*
X104019800Y-96185423D01*
X104052134Y-96201934D01*
X104080099Y-96212112D01*
X104141566Y-96247600D01*
X104212290Y-96283714D01*
X104236952Y-96302672D01*
X104258303Y-96314999D01*
X104316352Y-96363707D01*
X104383646Y-96415437D01*
X104400966Y-96434706D01*
X104415934Y-96447266D01*
X104467616Y-96508859D01*
X104528128Y-96576182D01*
X104538939Y-96593859D01*
X104548201Y-96604897D01*
X104590540Y-96678230D01*
X104640896Y-96760565D01*
X104646446Y-96775061D01*
X104651088Y-96783101D01*
X104681201Y-96865837D01*
X104718176Y-96962411D01*
X104720051Y-96972578D01*
X104721467Y-96976468D01*
X104736660Y-97062633D01*
X104757377Y-97174959D01*
X104757199Y-97181538D01*
X104757199Y-97384887D01*
X104750700Y-97421745D01*
X104749868Y-97452490D01*
X104732766Y-97523450D01*
X104721467Y-97587532D01*
X104709200Y-97621237D01*
X104699229Y-97662608D01*
X104671647Y-97724412D01*
X104651088Y-97780899D01*
X104630609Y-97816370D01*
X104611147Y-97859979D01*
X104575755Y-97911379D01*
X104548201Y-97959103D01*
X104518616Y-97994362D01*
X104488572Y-98037994D01*
X104448123Y-98078373D01*
X104415934Y-98116734D01*
X104376799Y-98149572D01*
X104335609Y-98190690D01*
X104292787Y-98220066D01*
X104258303Y-98249001D01*
X104209710Y-98277056D01*
X104157381Y-98312954D01*
X104114691Y-98331916D01*
X104080099Y-98351888D01*
X104022670Y-98372790D01*
X103959856Y-98400691D01*
X103919485Y-98410346D01*
X103886732Y-98422267D01*
X103821666Y-98433740D01*
X103749650Y-98450963D01*
X103713393Y-98452832D01*
X103684087Y-98457999D01*
X103613125Y-98457999D01*
X103533803Y-98462087D01*
X103502961Y-98457999D01*
X103478313Y-98457999D01*
X103403698Y-98444842D01*
X103319543Y-98433688D01*
X103294906Y-98425659D01*
X103275668Y-98422267D01*
X103200119Y-98394770D01*
X103114046Y-98366720D01*
X103095848Y-98356819D01*
X103082301Y-98351888D01*
X103008956Y-98309542D01*
X102924194Y-98263424D01*
X102912137Y-98253643D01*
X102904097Y-98249001D01*
X102836615Y-98192378D01*
X102756345Y-98127260D01*
X102749645Y-98119402D01*
X102746466Y-98116734D01*
X102690134Y-98049600D01*
X102616121Y-97962788D01*
X102514321Y-97786111D01*
X102511312Y-97780899D01*
X102511302Y-97780870D01*
X102508217Y-97775517D01*
X102471173Y-97670616D01*
X102440933Y-97587532D01*
X102440036Y-97582443D01*
X102436248Y-97571717D01*
X102420396Y-97471061D01*
X102405201Y-97384887D01*
X102405201Y-97374578D01*
X102402624Y-97358215D01*
X102405201Y-97262975D01*
X102405201Y-97179113D01*
X102407881Y-97163912D01*
X102408470Y-97142160D01*
X102427132Y-97054739D01*
X102440933Y-96976468D01*
X102447963Y-96957152D01*
X102453591Y-96930789D01*
X102485724Y-96853404D01*
X102511312Y-96783101D01*
X102524149Y-96760867D01*
X102536476Y-96731180D01*
X102579203Y-96665512D01*
X102614199Y-96604897D01*
X102633980Y-96581322D01*
X102654349Y-96550017D01*
X102704630Y-96497124D01*
X102746466Y-96447266D01*
X102773950Y-96424204D01*
X102803263Y-96393369D01*
X102858048Y-96353639D01*
X102904097Y-96314999D01*
X102939566Y-96294521D01*
X102978229Y-96266482D01*
X103034577Y-96239666D01*
X103082301Y-96212112D01*
X103125554Y-96196369D01*
X103173390Y-96173604D01*
X103228620Y-96158857D01*
X103275668Y-96141733D01*
X103325969Y-96132864D01*
X103382208Y-96117847D01*
X103433983Y-96113818D01*
X103478313Y-96106001D01*
X103534420Y-96106001D01*
X103597690Y-96101077D01*
X103644148Y-96106001D01*
X103644148Y-96106001D01*
G37*
G36*
X45909948Y-96106001D02*
G01*
X45949887Y-96106001D01*
X46010067Y-96116612D01*
X46078420Y-96123857D01*
X46118210Y-96135681D01*
X46152532Y-96141733D01*
X46214613Y-96164328D01*
X46285600Y-96185423D01*
X46317934Y-96201934D01*
X46345899Y-96212112D01*
X46407366Y-96247600D01*
X46478090Y-96283714D01*
X46502752Y-96302672D01*
X46524103Y-96314999D01*
X46582152Y-96363707D01*
X46649446Y-96415437D01*
X46666766Y-96434706D01*
X46681734Y-96447266D01*
X46733416Y-96508859D01*
X46793928Y-96576182D01*
X46804739Y-96593859D01*
X46814001Y-96604897D01*
X46856340Y-96678230D01*
X46906696Y-96760565D01*
X46912246Y-96775061D01*
X46916888Y-96783101D01*
X46947001Y-96865837D01*
X46983976Y-96962411D01*
X46985851Y-96972578D01*
X46987267Y-96976468D01*
X47002460Y-97062633D01*
X47023177Y-97174959D01*
X47022999Y-97181538D01*
X47022999Y-97384887D01*
X47016500Y-97421745D01*
X47015668Y-97452490D01*
X46998566Y-97523450D01*
X46987267Y-97587532D01*
X46975000Y-97621237D01*
X46965029Y-97662608D01*
X46937447Y-97724412D01*
X46916888Y-97780899D01*
X46896409Y-97816370D01*
X46876947Y-97859979D01*
X46841555Y-97911379D01*
X46814001Y-97959103D01*
X46784416Y-97994362D01*
X46754372Y-98037994D01*
X46713923Y-98078373D01*
X46681734Y-98116734D01*
X46642599Y-98149572D01*
X46601409Y-98190690D01*
X46558587Y-98220066D01*
X46524103Y-98249001D01*
X46475510Y-98277056D01*
X46423181Y-98312954D01*
X46380491Y-98331916D01*
X46345899Y-98351888D01*
X46288470Y-98372790D01*
X46225656Y-98400691D01*
X46185285Y-98410346D01*
X46152532Y-98422267D01*
X46087466Y-98433740D01*
X46015450Y-98450963D01*
X45979193Y-98452832D01*
X45949887Y-98457999D01*
X45878925Y-98457999D01*
X45799603Y-98462087D01*
X45768761Y-98457999D01*
X45744113Y-98457999D01*
X45669498Y-98444842D01*
X45585343Y-98433688D01*
X45560706Y-98425659D01*
X45541468Y-98422267D01*
X45465919Y-98394770D01*
X45379846Y-98366720D01*
X45361648Y-98356819D01*
X45348101Y-98351888D01*
X45274756Y-98309542D01*
X45189994Y-98263424D01*
X45177937Y-98253643D01*
X45169897Y-98249001D01*
X45102415Y-98192378D01*
X45022145Y-98127260D01*
X45015445Y-98119402D01*
X45012266Y-98116734D01*
X44955934Y-98049600D01*
X44881921Y-97962788D01*
X44780121Y-97786111D01*
X44777112Y-97780899D01*
X44777102Y-97780870D01*
X44774017Y-97775517D01*
X44736973Y-97670616D01*
X44706733Y-97587532D01*
X44705836Y-97582443D01*
X44702048Y-97571717D01*
X44686196Y-97471061D01*
X44671001Y-97384887D01*
X44671001Y-97374578D01*
X44668424Y-97358215D01*
X44671001Y-97262975D01*
X44671001Y-97179113D01*
X44673681Y-97163912D01*
X44674270Y-97142160D01*
X44692932Y-97054739D01*
X44706733Y-96976468D01*
X44713763Y-96957152D01*
X44719391Y-96930789D01*
X44751524Y-96853404D01*
X44777112Y-96783101D01*
X44789949Y-96760867D01*
X44802276Y-96731180D01*
X44845003Y-96665512D01*
X44879999Y-96604897D01*
X44899780Y-96581322D01*
X44920149Y-96550017D01*
X44970430Y-96497124D01*
X45012266Y-96447266D01*
X45039750Y-96424204D01*
X45069063Y-96393369D01*
X45123848Y-96353639D01*
X45169897Y-96314999D01*
X45205366Y-96294521D01*
X45244029Y-96266482D01*
X45300377Y-96239666D01*
X45348101Y-96212112D01*
X45391354Y-96196369D01*
X45439190Y-96173604D01*
X45494420Y-96158857D01*
X45541468Y-96141733D01*
X45591769Y-96132864D01*
X45648008Y-96117847D01*
X45699783Y-96113818D01*
X45744113Y-96106001D01*
X45800220Y-96106001D01*
X45863490Y-96101077D01*
X45909948Y-96106001D01*
X45909948Y-96106001D01*
G37*
G36*
X37832600Y-97141600D02*
G01*
X36030600Y-97141600D01*
X36030600Y-95339600D01*
X37832600Y-95339600D01*
X37832600Y-97141600D01*
X37832600Y-97141600D01*
G37*
G36*
X80022000Y-97090800D02*
G01*
X78220000Y-97090800D01*
X78220000Y-95288800D01*
X80022000Y-95288800D01*
X80022000Y-97090800D01*
X80022000Y-97090800D01*
G37*
G36*
X76262800Y-97090800D02*
G01*
X74460800Y-97090800D01*
X74460800Y-95288800D01*
X76262800Y-95288800D01*
X76262800Y-97090800D01*
X76262800Y-97090800D01*
G37*
G36*
X22364000Y-97040000D02*
G01*
X20562000Y-97040000D01*
X20562000Y-95238000D01*
X22364000Y-95238000D01*
X22364000Y-97040000D01*
X22364000Y-97040000D01*
G37*
G36*
X41642600Y-96989200D02*
G01*
X39840600Y-96989200D01*
X39840600Y-95187200D01*
X41642600Y-95187200D01*
X41642600Y-96989200D01*
X41642600Y-96989200D01*
G37*
G36*
X60819600Y-96989200D02*
G01*
X59017600Y-96989200D01*
X59017600Y-95187200D01*
X60819600Y-95187200D01*
X60819600Y-96989200D01*
X60819600Y-96989200D01*
G37*
G36*
X57060400Y-96963800D02*
G01*
X55258400Y-96963800D01*
X55258400Y-95161800D01*
X57060400Y-95161800D01*
X57060400Y-96963800D01*
X57060400Y-96963800D01*
G37*
G36*
X95490600Y-96684400D02*
G01*
X93688600Y-96684400D01*
X93688600Y-94882400D01*
X95490600Y-94882400D01*
X95490600Y-96684400D01*
X95490600Y-96684400D01*
G37*
G36*
X99275200Y-96684400D02*
G01*
X97473200Y-96684400D01*
X97473200Y-94882400D01*
X99275200Y-94882400D01*
X99275200Y-96684400D01*
X99275200Y-96684400D01*
G37*
G36*
X114667600Y-96608200D02*
G01*
X112865600Y-96608200D01*
X112865600Y-94806200D01*
X114667600Y-94806200D01*
X114667600Y-96608200D01*
X114667600Y-96608200D01*
G37*
G36*
X71513148Y-93566001D02*
G01*
X71553087Y-93566001D01*
X71613267Y-93576612D01*
X71681620Y-93583857D01*
X71721410Y-93595681D01*
X71755732Y-93601733D01*
X71817813Y-93624328D01*
X71888800Y-93645423D01*
X71921134Y-93661934D01*
X71949099Y-93672112D01*
X72010566Y-93707600D01*
X72081290Y-93743714D01*
X72105952Y-93762672D01*
X72127303Y-93774999D01*
X72185352Y-93823707D01*
X72252646Y-93875437D01*
X72269966Y-93894706D01*
X72284934Y-93907266D01*
X72336616Y-93968859D01*
X72397128Y-94036182D01*
X72407939Y-94053859D01*
X72417201Y-94064897D01*
X72459540Y-94138230D01*
X72509896Y-94220565D01*
X72515446Y-94235061D01*
X72520088Y-94243101D01*
X72550201Y-94325837D01*
X72587176Y-94422411D01*
X72589051Y-94432578D01*
X72590467Y-94436468D01*
X72605660Y-94522633D01*
X72626377Y-94634959D01*
X72626199Y-94641538D01*
X72626199Y-94844887D01*
X72619700Y-94881745D01*
X72618868Y-94912490D01*
X72601766Y-94983450D01*
X72590467Y-95047532D01*
X72578200Y-95081237D01*
X72568229Y-95122608D01*
X72540647Y-95184412D01*
X72520088Y-95240899D01*
X72499609Y-95276370D01*
X72480147Y-95319979D01*
X72444755Y-95371379D01*
X72417201Y-95419103D01*
X72387616Y-95454362D01*
X72357572Y-95497994D01*
X72317123Y-95538373D01*
X72284934Y-95576734D01*
X72245799Y-95609572D01*
X72204609Y-95650690D01*
X72161787Y-95680066D01*
X72127303Y-95709001D01*
X72078710Y-95737056D01*
X72026381Y-95772954D01*
X71983691Y-95791916D01*
X71949099Y-95811888D01*
X71891670Y-95832790D01*
X71828856Y-95860691D01*
X71788485Y-95870346D01*
X71755732Y-95882267D01*
X71690666Y-95893740D01*
X71618650Y-95910963D01*
X71582393Y-95912832D01*
X71553087Y-95917999D01*
X71482125Y-95917999D01*
X71402803Y-95922087D01*
X71371961Y-95917999D01*
X71347313Y-95917999D01*
X71272698Y-95904842D01*
X71188543Y-95893688D01*
X71163906Y-95885659D01*
X71144668Y-95882267D01*
X71069119Y-95854770D01*
X70983046Y-95826720D01*
X70964848Y-95816819D01*
X70951301Y-95811888D01*
X70877956Y-95769542D01*
X70793194Y-95723424D01*
X70781137Y-95713643D01*
X70773097Y-95709001D01*
X70705615Y-95652378D01*
X70625345Y-95587260D01*
X70618645Y-95579402D01*
X70615466Y-95576734D01*
X70559134Y-95509600D01*
X70485121Y-95422788D01*
X70383321Y-95246111D01*
X70380312Y-95240899D01*
X70380302Y-95240870D01*
X70377217Y-95235517D01*
X70340173Y-95130616D01*
X70309933Y-95047532D01*
X70309036Y-95042443D01*
X70305248Y-95031717D01*
X70289396Y-94931061D01*
X70274201Y-94844887D01*
X70274201Y-94834578D01*
X70271624Y-94818215D01*
X70274201Y-94722975D01*
X70274201Y-94639113D01*
X70276881Y-94623912D01*
X70277470Y-94602160D01*
X70296132Y-94514739D01*
X70309933Y-94436468D01*
X70316963Y-94417152D01*
X70322591Y-94390789D01*
X70354724Y-94313404D01*
X70380312Y-94243101D01*
X70393149Y-94220867D01*
X70405476Y-94191180D01*
X70448203Y-94125512D01*
X70483199Y-94064897D01*
X70502980Y-94041322D01*
X70523349Y-94010017D01*
X70573630Y-93957124D01*
X70615466Y-93907266D01*
X70642950Y-93884204D01*
X70672263Y-93853369D01*
X70727048Y-93813639D01*
X70773097Y-93774999D01*
X70808566Y-93754521D01*
X70847229Y-93726482D01*
X70903577Y-93699666D01*
X70951301Y-93672112D01*
X70994554Y-93656369D01*
X71042390Y-93633604D01*
X71097620Y-93618857D01*
X71144668Y-93601733D01*
X71194969Y-93592864D01*
X71251208Y-93577847D01*
X71302983Y-93573818D01*
X71347313Y-93566001D01*
X71403420Y-93566001D01*
X71466690Y-93561077D01*
X71513148Y-93566001D01*
X71513148Y-93566001D01*
G37*
G36*
X52259948Y-93566001D02*
G01*
X52299887Y-93566001D01*
X52360067Y-93576612D01*
X52428420Y-93583857D01*
X52468210Y-93595681D01*
X52502532Y-93601733D01*
X52564613Y-93624328D01*
X52635600Y-93645423D01*
X52667934Y-93661934D01*
X52695899Y-93672112D01*
X52757366Y-93707600D01*
X52828090Y-93743714D01*
X52852752Y-93762672D01*
X52874103Y-93774999D01*
X52932152Y-93823707D01*
X52999446Y-93875437D01*
X53016766Y-93894706D01*
X53031734Y-93907266D01*
X53083416Y-93968859D01*
X53143928Y-94036182D01*
X53154739Y-94053859D01*
X53164001Y-94064897D01*
X53206340Y-94138230D01*
X53256696Y-94220565D01*
X53262246Y-94235061D01*
X53266888Y-94243101D01*
X53297001Y-94325837D01*
X53333976Y-94422411D01*
X53335851Y-94432578D01*
X53337267Y-94436468D01*
X53352460Y-94522633D01*
X53373177Y-94634959D01*
X53372999Y-94641538D01*
X53372999Y-94844887D01*
X53366500Y-94881745D01*
X53365668Y-94912490D01*
X53348566Y-94983450D01*
X53337267Y-95047532D01*
X53325000Y-95081237D01*
X53315029Y-95122608D01*
X53287447Y-95184412D01*
X53266888Y-95240899D01*
X53246409Y-95276370D01*
X53226947Y-95319979D01*
X53191555Y-95371379D01*
X53164001Y-95419103D01*
X53134416Y-95454362D01*
X53104372Y-95497994D01*
X53063923Y-95538373D01*
X53031734Y-95576734D01*
X52992599Y-95609572D01*
X52951409Y-95650690D01*
X52908587Y-95680066D01*
X52874103Y-95709001D01*
X52825510Y-95737056D01*
X52773181Y-95772954D01*
X52730491Y-95791916D01*
X52695899Y-95811888D01*
X52638470Y-95832790D01*
X52575656Y-95860691D01*
X52535285Y-95870346D01*
X52502532Y-95882267D01*
X52437466Y-95893740D01*
X52365450Y-95910963D01*
X52329193Y-95912832D01*
X52299887Y-95917999D01*
X52228925Y-95917999D01*
X52149603Y-95922087D01*
X52118761Y-95917999D01*
X52094113Y-95917999D01*
X52019498Y-95904842D01*
X51935343Y-95893688D01*
X51910706Y-95885659D01*
X51891468Y-95882267D01*
X51815919Y-95854770D01*
X51729846Y-95826720D01*
X51711648Y-95816819D01*
X51698101Y-95811888D01*
X51624756Y-95769542D01*
X51539994Y-95723424D01*
X51527937Y-95713643D01*
X51519897Y-95709001D01*
X51452415Y-95652378D01*
X51372145Y-95587260D01*
X51365445Y-95579402D01*
X51362266Y-95576734D01*
X51305934Y-95509600D01*
X51231921Y-95422788D01*
X51130121Y-95246111D01*
X51127112Y-95240899D01*
X51127102Y-95240870D01*
X51124017Y-95235517D01*
X51086973Y-95130616D01*
X51056733Y-95047532D01*
X51055836Y-95042443D01*
X51052048Y-95031717D01*
X51036196Y-94931061D01*
X51021001Y-94844887D01*
X51021001Y-94834578D01*
X51018424Y-94818215D01*
X51021001Y-94722975D01*
X51021001Y-94639113D01*
X51023681Y-94623912D01*
X51024270Y-94602160D01*
X51042932Y-94514739D01*
X51056733Y-94436468D01*
X51063763Y-94417152D01*
X51069391Y-94390789D01*
X51101524Y-94313404D01*
X51127112Y-94243101D01*
X51139949Y-94220867D01*
X51152276Y-94191180D01*
X51195003Y-94125512D01*
X51229999Y-94064897D01*
X51249780Y-94041322D01*
X51270149Y-94010017D01*
X51320430Y-93957124D01*
X51362266Y-93907266D01*
X51389750Y-93884204D01*
X51419063Y-93853369D01*
X51473848Y-93813639D01*
X51519897Y-93774999D01*
X51555366Y-93754521D01*
X51594029Y-93726482D01*
X51650377Y-93699666D01*
X51698101Y-93672112D01*
X51741354Y-93656369D01*
X51789190Y-93633604D01*
X51844420Y-93618857D01*
X51891468Y-93601733D01*
X51941769Y-93592864D01*
X51998008Y-93577847D01*
X52049783Y-93573818D01*
X52094113Y-93566001D01*
X52150220Y-93566001D01*
X52213490Y-93561077D01*
X52259948Y-93566001D01*
X52259948Y-93566001D01*
G37*
G36*
X33006748Y-93566001D02*
G01*
X33046687Y-93566001D01*
X33106867Y-93576612D01*
X33175220Y-93583857D01*
X33215010Y-93595681D01*
X33249332Y-93601733D01*
X33311413Y-93624328D01*
X33382400Y-93645423D01*
X33414734Y-93661934D01*
X33442699Y-93672112D01*
X33504166Y-93707600D01*
X33574890Y-93743714D01*
X33599552Y-93762672D01*
X33620903Y-93774999D01*
X33678952Y-93823707D01*
X33746246Y-93875437D01*
X33763566Y-93894706D01*
X33778534Y-93907266D01*
X33830216Y-93968859D01*
X33890728Y-94036182D01*
X33901539Y-94053859D01*
X33910801Y-94064897D01*
X33953140Y-94138230D01*
X34003496Y-94220565D01*
X34009046Y-94235061D01*
X34013688Y-94243101D01*
X34043801Y-94325837D01*
X34080776Y-94422411D01*
X34082651Y-94432578D01*
X34084067Y-94436468D01*
X34099260Y-94522633D01*
X34119977Y-94634959D01*
X34119799Y-94641538D01*
X34119799Y-94844887D01*
X34113300Y-94881745D01*
X34112468Y-94912490D01*
X34095366Y-94983450D01*
X34084067Y-95047532D01*
X34071800Y-95081237D01*
X34061829Y-95122608D01*
X34034247Y-95184412D01*
X34013688Y-95240899D01*
X33993209Y-95276370D01*
X33973747Y-95319979D01*
X33938355Y-95371379D01*
X33910801Y-95419103D01*
X33881216Y-95454362D01*
X33851172Y-95497994D01*
X33810723Y-95538373D01*
X33778534Y-95576734D01*
X33739399Y-95609572D01*
X33698209Y-95650690D01*
X33655387Y-95680066D01*
X33620903Y-95709001D01*
X33572310Y-95737056D01*
X33519981Y-95772954D01*
X33477291Y-95791916D01*
X33442699Y-95811888D01*
X33385270Y-95832790D01*
X33322456Y-95860691D01*
X33282085Y-95870346D01*
X33249332Y-95882267D01*
X33184266Y-95893740D01*
X33112250Y-95910963D01*
X33075993Y-95912832D01*
X33046687Y-95917999D01*
X32975725Y-95917999D01*
X32896403Y-95922087D01*
X32865561Y-95917999D01*
X32840913Y-95917999D01*
X32766298Y-95904842D01*
X32682143Y-95893688D01*
X32657506Y-95885659D01*
X32638268Y-95882267D01*
X32562719Y-95854770D01*
X32476646Y-95826720D01*
X32458448Y-95816819D01*
X32444901Y-95811888D01*
X32371556Y-95769542D01*
X32286794Y-95723424D01*
X32274737Y-95713643D01*
X32266697Y-95709001D01*
X32199215Y-95652378D01*
X32118945Y-95587260D01*
X32112245Y-95579402D01*
X32109066Y-95576734D01*
X32052734Y-95509600D01*
X31978721Y-95422788D01*
X31876921Y-95246111D01*
X31873912Y-95240899D01*
X31873902Y-95240870D01*
X31870817Y-95235517D01*
X31833773Y-95130616D01*
X31803533Y-95047532D01*
X31802636Y-95042443D01*
X31798848Y-95031717D01*
X31782996Y-94931061D01*
X31767801Y-94844887D01*
X31767801Y-94834578D01*
X31765224Y-94818215D01*
X31767801Y-94722975D01*
X31767801Y-94639113D01*
X31770481Y-94623912D01*
X31771070Y-94602160D01*
X31789732Y-94514739D01*
X31803533Y-94436468D01*
X31810563Y-94417152D01*
X31816191Y-94390789D01*
X31848324Y-94313404D01*
X31873912Y-94243101D01*
X31886749Y-94220867D01*
X31899076Y-94191180D01*
X31941803Y-94125512D01*
X31976799Y-94064897D01*
X31996580Y-94041322D01*
X32016949Y-94010017D01*
X32067230Y-93957124D01*
X32109066Y-93907266D01*
X32136550Y-93884204D01*
X32165863Y-93853369D01*
X32220648Y-93813639D01*
X32266697Y-93774999D01*
X32302166Y-93754521D01*
X32340829Y-93726482D01*
X32397177Y-93699666D01*
X32444901Y-93672112D01*
X32488154Y-93656369D01*
X32535990Y-93633604D01*
X32591220Y-93618857D01*
X32638268Y-93601733D01*
X32688569Y-93592864D01*
X32744808Y-93577847D01*
X32796583Y-93573818D01*
X32840913Y-93566001D01*
X32897020Y-93566001D01*
X32960290Y-93561077D01*
X33006748Y-93566001D01*
X33006748Y-93566001D01*
G37*
G36*
X90740948Y-93566001D02*
G01*
X90780887Y-93566001D01*
X90841067Y-93576612D01*
X90909420Y-93583857D01*
X90949210Y-93595681D01*
X90983532Y-93601733D01*
X91045613Y-93624328D01*
X91116600Y-93645423D01*
X91148934Y-93661934D01*
X91176899Y-93672112D01*
X91238366Y-93707600D01*
X91309090Y-93743714D01*
X91333752Y-93762672D01*
X91355103Y-93774999D01*
X91413152Y-93823707D01*
X91480446Y-93875437D01*
X91497766Y-93894706D01*
X91512734Y-93907266D01*
X91564416Y-93968859D01*
X91624928Y-94036182D01*
X91635739Y-94053859D01*
X91645001Y-94064897D01*
X91687340Y-94138230D01*
X91737696Y-94220565D01*
X91743246Y-94235061D01*
X91747888Y-94243101D01*
X91778001Y-94325837D01*
X91814976Y-94422411D01*
X91816851Y-94432578D01*
X91818267Y-94436468D01*
X91833460Y-94522633D01*
X91854177Y-94634959D01*
X91853999Y-94641538D01*
X91853999Y-94844887D01*
X91847500Y-94881745D01*
X91846668Y-94912490D01*
X91829566Y-94983450D01*
X91818267Y-95047532D01*
X91806000Y-95081237D01*
X91796029Y-95122608D01*
X91768447Y-95184412D01*
X91747888Y-95240899D01*
X91727409Y-95276370D01*
X91707947Y-95319979D01*
X91672555Y-95371379D01*
X91645001Y-95419103D01*
X91615416Y-95454362D01*
X91585372Y-95497994D01*
X91544923Y-95538373D01*
X91512734Y-95576734D01*
X91473599Y-95609572D01*
X91432409Y-95650690D01*
X91389587Y-95680066D01*
X91355103Y-95709001D01*
X91306510Y-95737056D01*
X91254181Y-95772954D01*
X91211491Y-95791916D01*
X91176899Y-95811888D01*
X91119470Y-95832790D01*
X91056656Y-95860691D01*
X91016285Y-95870346D01*
X90983532Y-95882267D01*
X90918466Y-95893740D01*
X90846450Y-95910963D01*
X90810193Y-95912832D01*
X90780887Y-95917999D01*
X90709925Y-95917999D01*
X90630603Y-95922087D01*
X90599761Y-95917999D01*
X90575113Y-95917999D01*
X90500498Y-95904842D01*
X90416343Y-95893688D01*
X90391706Y-95885659D01*
X90372468Y-95882267D01*
X90296919Y-95854770D01*
X90210846Y-95826720D01*
X90192648Y-95816819D01*
X90179101Y-95811888D01*
X90105756Y-95769542D01*
X90020994Y-95723424D01*
X90008937Y-95713643D01*
X90000897Y-95709001D01*
X89933415Y-95652378D01*
X89853145Y-95587260D01*
X89846445Y-95579402D01*
X89843266Y-95576734D01*
X89786934Y-95509600D01*
X89712921Y-95422788D01*
X89611121Y-95246111D01*
X89608112Y-95240899D01*
X89608102Y-95240870D01*
X89605017Y-95235517D01*
X89567973Y-95130616D01*
X89537733Y-95047532D01*
X89536836Y-95042443D01*
X89533048Y-95031717D01*
X89517196Y-94931061D01*
X89502001Y-94844887D01*
X89502001Y-94834578D01*
X89499424Y-94818215D01*
X89502001Y-94722975D01*
X89502001Y-94639113D01*
X89504681Y-94623912D01*
X89505270Y-94602160D01*
X89523932Y-94514739D01*
X89537733Y-94436468D01*
X89544763Y-94417152D01*
X89550391Y-94390789D01*
X89582524Y-94313404D01*
X89608112Y-94243101D01*
X89620949Y-94220867D01*
X89633276Y-94191180D01*
X89676003Y-94125512D01*
X89710999Y-94064897D01*
X89730780Y-94041322D01*
X89751149Y-94010017D01*
X89801430Y-93957124D01*
X89843266Y-93907266D01*
X89870750Y-93884204D01*
X89900063Y-93853369D01*
X89954848Y-93813639D01*
X90000897Y-93774999D01*
X90036366Y-93754521D01*
X90075029Y-93726482D01*
X90131377Y-93699666D01*
X90179101Y-93672112D01*
X90222354Y-93656369D01*
X90270190Y-93633604D01*
X90325420Y-93618857D01*
X90372468Y-93601733D01*
X90422769Y-93592864D01*
X90479008Y-93577847D01*
X90530783Y-93573818D01*
X90575113Y-93566001D01*
X90631220Y-93566001D01*
X90694490Y-93561077D01*
X90740948Y-93566001D01*
X90740948Y-93566001D01*
G37*
G36*
X109994148Y-93566001D02*
G01*
X110034087Y-93566001D01*
X110094267Y-93576612D01*
X110162620Y-93583857D01*
X110202410Y-93595681D01*
X110236732Y-93601733D01*
X110298813Y-93624328D01*
X110369800Y-93645423D01*
X110402134Y-93661934D01*
X110430099Y-93672112D01*
X110491566Y-93707600D01*
X110562290Y-93743714D01*
X110586952Y-93762672D01*
X110608303Y-93774999D01*
X110666352Y-93823707D01*
X110733646Y-93875437D01*
X110750966Y-93894706D01*
X110765934Y-93907266D01*
X110817616Y-93968859D01*
X110878128Y-94036182D01*
X110888939Y-94053859D01*
X110898201Y-94064897D01*
X110940540Y-94138230D01*
X110990896Y-94220565D01*
X110996446Y-94235061D01*
X111001088Y-94243101D01*
X111031201Y-94325837D01*
X111068176Y-94422411D01*
X111070051Y-94432578D01*
X111071467Y-94436468D01*
X111086660Y-94522633D01*
X111107377Y-94634959D01*
X111107199Y-94641538D01*
X111107199Y-94844887D01*
X111100700Y-94881745D01*
X111099868Y-94912490D01*
X111082766Y-94983450D01*
X111071467Y-95047532D01*
X111059200Y-95081237D01*
X111049229Y-95122608D01*
X111021647Y-95184412D01*
X111001088Y-95240899D01*
X110980609Y-95276370D01*
X110961147Y-95319979D01*
X110925755Y-95371379D01*
X110898201Y-95419103D01*
X110868616Y-95454362D01*
X110838572Y-95497994D01*
X110798123Y-95538373D01*
X110765934Y-95576734D01*
X110726799Y-95609572D01*
X110685609Y-95650690D01*
X110642787Y-95680066D01*
X110608303Y-95709001D01*
X110559710Y-95737056D01*
X110507381Y-95772954D01*
X110464691Y-95791916D01*
X110430099Y-95811888D01*
X110372670Y-95832790D01*
X110309856Y-95860691D01*
X110269485Y-95870346D01*
X110236732Y-95882267D01*
X110171666Y-95893740D01*
X110099650Y-95910963D01*
X110063393Y-95912832D01*
X110034087Y-95917999D01*
X109963125Y-95917999D01*
X109883803Y-95922087D01*
X109852961Y-95917999D01*
X109828313Y-95917999D01*
X109753698Y-95904842D01*
X109669543Y-95893688D01*
X109644906Y-95885659D01*
X109625668Y-95882267D01*
X109550119Y-95854770D01*
X109464046Y-95826720D01*
X109445848Y-95816819D01*
X109432301Y-95811888D01*
X109358956Y-95769542D01*
X109274194Y-95723424D01*
X109262137Y-95713643D01*
X109254097Y-95709001D01*
X109186615Y-95652378D01*
X109106345Y-95587260D01*
X109099645Y-95579402D01*
X109096466Y-95576734D01*
X109040134Y-95509600D01*
X108966121Y-95422788D01*
X108864321Y-95246111D01*
X108861312Y-95240899D01*
X108861302Y-95240870D01*
X108858217Y-95235517D01*
X108821173Y-95130616D01*
X108790933Y-95047532D01*
X108790036Y-95042443D01*
X108786248Y-95031717D01*
X108770396Y-94931061D01*
X108755201Y-94844887D01*
X108755201Y-94834578D01*
X108752624Y-94818215D01*
X108755201Y-94722975D01*
X108755201Y-94639113D01*
X108757881Y-94623912D01*
X108758470Y-94602160D01*
X108777132Y-94514739D01*
X108790933Y-94436468D01*
X108797963Y-94417152D01*
X108803591Y-94390789D01*
X108835724Y-94313404D01*
X108861312Y-94243101D01*
X108874149Y-94220867D01*
X108886476Y-94191180D01*
X108929203Y-94125512D01*
X108964199Y-94064897D01*
X108983980Y-94041322D01*
X109004349Y-94010017D01*
X109054630Y-93957124D01*
X109096466Y-93907266D01*
X109123950Y-93884204D01*
X109153263Y-93853369D01*
X109208048Y-93813639D01*
X109254097Y-93774999D01*
X109289566Y-93754521D01*
X109328229Y-93726482D01*
X109384577Y-93699666D01*
X109432301Y-93672112D01*
X109475554Y-93656369D01*
X109523390Y-93633604D01*
X109578620Y-93618857D01*
X109625668Y-93601733D01*
X109675969Y-93592864D01*
X109732208Y-93577847D01*
X109783983Y-93573818D01*
X109828313Y-93566001D01*
X109884420Y-93566001D01*
X109947690Y-93561077D01*
X109994148Y-93566001D01*
X109994148Y-93566001D01*
G37*
G36*
X106232706Y-90159748D02*
G01*
X106335472Y-90163337D01*
X106373937Y-90170119D01*
X106410004Y-90172768D01*
X106512433Y-90194540D01*
X106617114Y-90212998D01*
X106650867Y-90223965D01*
X106682727Y-90230737D01*
X106784695Y-90267448D01*
X106889103Y-90301372D01*
X106917805Y-90315371D01*
X106945059Y-90325183D01*
X107044350Y-90377091D01*
X107146147Y-90426741D01*
X107169667Y-90442606D01*
X107192157Y-90454363D01*
X107286527Y-90521429D01*
X107383240Y-90586662D01*
X107401669Y-90603256D01*
X107419429Y-90615877D01*
X107506601Y-90697737D01*
X107595770Y-90778025D01*
X107609411Y-90794281D01*
X107622681Y-90806743D01*
X107700420Y-90902742D01*
X107779598Y-90997103D01*
X107788944Y-91012060D01*
X107798141Y-91023417D01*
X107864232Y-91132546D01*
X107931148Y-91239634D01*
X107936869Y-91252483D01*
X107942584Y-91261920D01*
X107995014Y-91383080D01*
X108047469Y-91500895D01*
X108050360Y-91510977D01*
X108053313Y-91517801D01*
X108090194Y-91649894D01*
X108126298Y-91775803D01*
X108127260Y-91782651D01*
X108128294Y-91786353D01*
X108148047Y-91930555D01*
X108166100Y-92059007D01*
X108166100Y-92344993D01*
X108162836Y-92368216D01*
X108162662Y-92384854D01*
X108143451Y-92506150D01*
X108126298Y-92628197D01*
X108121434Y-92645161D01*
X108119148Y-92659592D01*
X108082274Y-92781728D01*
X108047469Y-92903105D01*
X108041750Y-92915950D01*
X108038563Y-92926506D01*
X107983630Y-93046489D01*
X107931148Y-93164366D01*
X107925588Y-93173264D01*
X107922492Y-93180026D01*
X107849000Y-93295830D01*
X107779598Y-93406897D01*
X107775153Y-93412195D01*
X107773097Y-93415434D01*
X107679285Y-93526446D01*
X107595770Y-93625975D01*
X107593286Y-93628211D01*
X107593126Y-93628401D01*
X107385926Y-93814965D01*
X107385720Y-93815105D01*
X107383240Y-93817338D01*
X107275790Y-93889814D01*
X107155321Y-93971685D01*
X107151874Y-93973396D01*
X107146147Y-93977259D01*
X107028481Y-94034649D01*
X106905580Y-94095657D01*
X106898534Y-94098028D01*
X106889103Y-94102628D01*
X106766376Y-94142504D01*
X106641323Y-94184589D01*
X106630493Y-94186655D01*
X106617114Y-94191002D01*
X106492751Y-94212931D01*
X106367444Y-94236834D01*
X106352849Y-94237599D01*
X106335472Y-94240663D01*
X106212344Y-94244963D01*
X106089006Y-94251427D01*
X106070864Y-94249904D01*
X106049660Y-94250644D01*
X105930349Y-94238104D01*
X105811164Y-94228096D01*
X105789899Y-94223343D01*
X105765240Y-94220751D01*
X105652062Y-94192532D01*
X105539054Y-94167272D01*
X105515264Y-94158424D01*
X105487748Y-94151564D01*
X105382781Y-94109155D01*
X105277728Y-94070086D01*
X105252191Y-94056393D01*
X105222586Y-94044432D01*
X105127507Y-93989538D01*
X105032005Y-93938330D01*
X105005660Y-93919189D01*
X104974914Y-93901438D01*
X104891126Y-93835976D01*
X104806431Y-93774441D01*
X104780335Y-93749416D01*
X104749554Y-93725367D01*
X104678124Y-93651399D01*
X104605195Y-93581463D01*
X104580506Y-93550313D01*
X104550891Y-93519646D01*
X104492490Y-93439265D01*
X104432006Y-93362952D01*
X104409951Y-93325659D01*
X104382792Y-93288278D01*
X104337794Y-93203649D01*
X104290074Y-93122959D01*
X104271891Y-93079702D01*
X104248530Y-93035767D01*
X104216951Y-92949004D01*
X104182029Y-92865928D01*
X104168958Y-92817146D01*
X104150716Y-92767027D01*
X104132248Y-92680144D01*
X104109864Y-92596604D01*
X104103084Y-92542935D01*
X104091256Y-92487290D01*
X104085308Y-92402235D01*
X104074918Y-92319989D01*
X104075523Y-92262286D01*
X104071307Y-92202000D01*
X104077008Y-92120465D01*
X104077839Y-92041185D01*
X104086791Y-91980559D01*
X104091256Y-91916710D01*
X104107515Y-91840218D01*
X104118569Y-91765359D01*
X104136669Y-91703058D01*
X104150716Y-91636973D01*
X104176251Y-91566815D01*
X104196359Y-91497605D01*
X104224212Y-91435046D01*
X104248530Y-91368233D01*
X104281907Y-91305460D01*
X104309762Y-91242896D01*
X104347746Y-91181633D01*
X104382792Y-91115722D01*
X104422498Y-91061072D01*
X104456689Y-91005927D01*
X104504932Y-90947611D01*
X104550891Y-90884354D01*
X104595343Y-90838323D01*
X104634413Y-90791095D01*
X104692778Y-90737426D01*
X104749554Y-90678633D01*
X104797187Y-90641418D01*
X104839655Y-90602367D01*
X104907713Y-90555065D01*
X104974914Y-90502562D01*
X105024182Y-90474117D01*
X105068608Y-90443240D01*
X105145678Y-90403971D01*
X105222586Y-90359568D01*
X105272032Y-90339591D01*
X105317034Y-90316661D01*
X105402137Y-90287025D01*
X105487748Y-90252436D01*
X105536036Y-90240396D01*
X105580343Y-90224967D01*
X105672228Y-90206440D01*
X105765240Y-90183249D01*
X105811193Y-90178419D01*
X105853667Y-90169855D01*
X105950858Y-90163740D01*
X106049660Y-90153356D01*
X106092263Y-90154844D01*
X106131932Y-90152348D01*
X106232706Y-90159748D01*
X106232706Y-90159748D01*
G37*
G36*
X86979506Y-90159748D02*
G01*
X87082272Y-90163337D01*
X87120737Y-90170119D01*
X87156804Y-90172768D01*
X87259233Y-90194540D01*
X87363914Y-90212998D01*
X87397667Y-90223965D01*
X87429527Y-90230737D01*
X87531495Y-90267448D01*
X87635903Y-90301372D01*
X87664605Y-90315371D01*
X87691859Y-90325183D01*
X87791150Y-90377091D01*
X87892947Y-90426741D01*
X87916467Y-90442606D01*
X87938957Y-90454363D01*
X88033327Y-90521429D01*
X88130040Y-90586662D01*
X88148469Y-90603256D01*
X88166229Y-90615877D01*
X88253401Y-90697737D01*
X88342570Y-90778025D01*
X88356211Y-90794281D01*
X88369481Y-90806743D01*
X88447220Y-90902742D01*
X88526398Y-90997103D01*
X88535744Y-91012060D01*
X88544941Y-91023417D01*
X88611032Y-91132546D01*
X88677948Y-91239634D01*
X88683669Y-91252483D01*
X88689384Y-91261920D01*
X88741814Y-91383080D01*
X88794269Y-91500895D01*
X88797160Y-91510977D01*
X88800113Y-91517801D01*
X88836994Y-91649894D01*
X88873098Y-91775803D01*
X88874060Y-91782651D01*
X88875094Y-91786353D01*
X88894847Y-91930555D01*
X88912900Y-92059007D01*
X88912900Y-92344993D01*
X88909636Y-92368216D01*
X88909462Y-92384854D01*
X88890251Y-92506150D01*
X88873098Y-92628197D01*
X88868234Y-92645161D01*
X88865948Y-92659592D01*
X88829074Y-92781728D01*
X88794269Y-92903105D01*
X88788550Y-92915950D01*
X88785363Y-92926506D01*
X88730430Y-93046489D01*
X88677948Y-93164366D01*
X88672388Y-93173264D01*
X88669292Y-93180026D01*
X88595800Y-93295830D01*
X88526398Y-93406897D01*
X88521953Y-93412195D01*
X88519897Y-93415434D01*
X88426085Y-93526446D01*
X88342570Y-93625975D01*
X88340086Y-93628211D01*
X88339926Y-93628401D01*
X88132726Y-93814965D01*
X88132520Y-93815105D01*
X88130040Y-93817338D01*
X88022590Y-93889814D01*
X87902121Y-93971685D01*
X87898674Y-93973396D01*
X87892947Y-93977259D01*
X87775281Y-94034649D01*
X87652380Y-94095657D01*
X87645334Y-94098028D01*
X87635903Y-94102628D01*
X87513176Y-94142504D01*
X87388123Y-94184589D01*
X87377293Y-94186655D01*
X87363914Y-94191002D01*
X87239551Y-94212931D01*
X87114244Y-94236834D01*
X87099649Y-94237599D01*
X87082272Y-94240663D01*
X86959144Y-94244963D01*
X86835806Y-94251427D01*
X86817664Y-94249904D01*
X86796460Y-94250644D01*
X86677149Y-94238104D01*
X86557964Y-94228096D01*
X86536699Y-94223343D01*
X86512040Y-94220751D01*
X86398862Y-94192532D01*
X86285854Y-94167272D01*
X86262064Y-94158424D01*
X86234548Y-94151564D01*
X86129581Y-94109155D01*
X86024528Y-94070086D01*
X85998991Y-94056393D01*
X85969386Y-94044432D01*
X85874307Y-93989538D01*
X85778805Y-93938330D01*
X85752460Y-93919189D01*
X85721714Y-93901438D01*
X85637926Y-93835976D01*
X85553231Y-93774441D01*
X85527135Y-93749416D01*
X85496354Y-93725367D01*
X85424924Y-93651399D01*
X85351995Y-93581463D01*
X85327306Y-93550313D01*
X85297691Y-93519646D01*
X85239290Y-93439265D01*
X85178806Y-93362952D01*
X85156751Y-93325659D01*
X85129592Y-93288278D01*
X85084594Y-93203649D01*
X85036874Y-93122959D01*
X85018691Y-93079702D01*
X84995330Y-93035767D01*
X84963751Y-92949004D01*
X84928829Y-92865928D01*
X84915758Y-92817146D01*
X84897516Y-92767027D01*
X84879048Y-92680144D01*
X84856664Y-92596604D01*
X84849884Y-92542935D01*
X84838056Y-92487290D01*
X84832108Y-92402235D01*
X84821718Y-92319989D01*
X84822323Y-92262286D01*
X84818107Y-92202000D01*
X84823808Y-92120465D01*
X84824639Y-92041185D01*
X84833591Y-91980559D01*
X84838056Y-91916710D01*
X84854315Y-91840218D01*
X84865369Y-91765359D01*
X84883469Y-91703058D01*
X84897516Y-91636973D01*
X84923051Y-91566815D01*
X84943159Y-91497605D01*
X84971012Y-91435046D01*
X84995330Y-91368233D01*
X85028707Y-91305460D01*
X85056562Y-91242896D01*
X85094546Y-91181633D01*
X85129592Y-91115722D01*
X85169298Y-91061072D01*
X85203489Y-91005927D01*
X85251732Y-90947611D01*
X85297691Y-90884354D01*
X85342143Y-90838323D01*
X85381213Y-90791095D01*
X85439578Y-90737426D01*
X85496354Y-90678633D01*
X85543987Y-90641418D01*
X85586455Y-90602367D01*
X85654513Y-90555065D01*
X85721714Y-90502562D01*
X85770982Y-90474117D01*
X85815408Y-90443240D01*
X85892478Y-90403971D01*
X85969386Y-90359568D01*
X86018832Y-90339591D01*
X86063834Y-90316661D01*
X86148937Y-90287025D01*
X86234548Y-90252436D01*
X86282836Y-90240396D01*
X86327143Y-90224967D01*
X86419028Y-90206440D01*
X86512040Y-90183249D01*
X86557993Y-90178419D01*
X86600467Y-90169855D01*
X86697658Y-90163740D01*
X86796460Y-90153356D01*
X86839063Y-90154844D01*
X86878732Y-90152348D01*
X86979506Y-90159748D01*
X86979506Y-90159748D01*
G37*
G36*
X67751706Y-90159748D02*
G01*
X67854472Y-90163337D01*
X67892937Y-90170119D01*
X67929004Y-90172768D01*
X68031433Y-90194540D01*
X68136114Y-90212998D01*
X68169867Y-90223965D01*
X68201727Y-90230737D01*
X68303695Y-90267448D01*
X68408103Y-90301372D01*
X68436805Y-90315371D01*
X68464059Y-90325183D01*
X68563350Y-90377091D01*
X68665147Y-90426741D01*
X68688667Y-90442606D01*
X68711157Y-90454363D01*
X68805527Y-90521429D01*
X68902240Y-90586662D01*
X68920669Y-90603256D01*
X68938429Y-90615877D01*
X69025601Y-90697737D01*
X69114770Y-90778025D01*
X69128411Y-90794281D01*
X69141681Y-90806743D01*
X69219420Y-90902742D01*
X69298598Y-90997103D01*
X69307944Y-91012060D01*
X69317141Y-91023417D01*
X69383232Y-91132546D01*
X69450148Y-91239634D01*
X69455869Y-91252483D01*
X69461584Y-91261920D01*
X69514014Y-91383080D01*
X69566469Y-91500895D01*
X69569360Y-91510977D01*
X69572313Y-91517801D01*
X69609194Y-91649894D01*
X69645298Y-91775803D01*
X69646260Y-91782651D01*
X69647294Y-91786353D01*
X69667047Y-91930555D01*
X69685100Y-92059007D01*
X69685100Y-92344993D01*
X69681836Y-92368216D01*
X69681662Y-92384854D01*
X69662451Y-92506150D01*
X69645298Y-92628197D01*
X69640434Y-92645161D01*
X69638148Y-92659592D01*
X69601274Y-92781728D01*
X69566469Y-92903105D01*
X69560750Y-92915950D01*
X69557563Y-92926506D01*
X69502630Y-93046489D01*
X69450148Y-93164366D01*
X69444588Y-93173264D01*
X69441492Y-93180026D01*
X69368000Y-93295830D01*
X69298598Y-93406897D01*
X69294153Y-93412195D01*
X69292097Y-93415434D01*
X69198285Y-93526446D01*
X69114770Y-93625975D01*
X69112286Y-93628211D01*
X69112126Y-93628401D01*
X68904926Y-93814965D01*
X68904720Y-93815105D01*
X68902240Y-93817338D01*
X68794790Y-93889814D01*
X68674321Y-93971685D01*
X68670874Y-93973396D01*
X68665147Y-93977259D01*
X68547481Y-94034649D01*
X68424580Y-94095657D01*
X68417534Y-94098028D01*
X68408103Y-94102628D01*
X68285376Y-94142504D01*
X68160323Y-94184589D01*
X68149493Y-94186655D01*
X68136114Y-94191002D01*
X68011751Y-94212931D01*
X67886444Y-94236834D01*
X67871849Y-94237599D01*
X67854472Y-94240663D01*
X67731344Y-94244963D01*
X67608006Y-94251427D01*
X67589864Y-94249904D01*
X67568660Y-94250644D01*
X67449349Y-94238104D01*
X67330164Y-94228096D01*
X67308899Y-94223343D01*
X67284240Y-94220751D01*
X67171062Y-94192532D01*
X67058054Y-94167272D01*
X67034264Y-94158424D01*
X67006748Y-94151564D01*
X66901781Y-94109155D01*
X66796728Y-94070086D01*
X66771191Y-94056393D01*
X66741586Y-94044432D01*
X66646507Y-93989538D01*
X66551005Y-93938330D01*
X66524660Y-93919189D01*
X66493914Y-93901438D01*
X66410126Y-93835976D01*
X66325431Y-93774441D01*
X66299335Y-93749416D01*
X66268554Y-93725367D01*
X66197124Y-93651399D01*
X66124195Y-93581463D01*
X66099506Y-93550313D01*
X66069891Y-93519646D01*
X66011490Y-93439265D01*
X65951006Y-93362952D01*
X65928951Y-93325659D01*
X65901792Y-93288278D01*
X65856794Y-93203649D01*
X65809074Y-93122959D01*
X65790891Y-93079702D01*
X65767530Y-93035767D01*
X65735951Y-92949004D01*
X65701029Y-92865928D01*
X65687958Y-92817146D01*
X65669716Y-92767027D01*
X65651248Y-92680144D01*
X65628864Y-92596604D01*
X65622084Y-92542935D01*
X65610256Y-92487290D01*
X65604308Y-92402235D01*
X65593918Y-92319989D01*
X65594523Y-92262286D01*
X65590307Y-92202000D01*
X65596008Y-92120465D01*
X65596839Y-92041185D01*
X65605791Y-91980559D01*
X65610256Y-91916710D01*
X65626515Y-91840218D01*
X65637569Y-91765359D01*
X65655669Y-91703058D01*
X65669716Y-91636973D01*
X65695251Y-91566815D01*
X65715359Y-91497605D01*
X65743212Y-91435046D01*
X65767530Y-91368233D01*
X65800907Y-91305460D01*
X65828762Y-91242896D01*
X65866746Y-91181633D01*
X65901792Y-91115722D01*
X65941498Y-91061072D01*
X65975689Y-91005927D01*
X66023932Y-90947611D01*
X66069891Y-90884354D01*
X66114343Y-90838323D01*
X66153413Y-90791095D01*
X66211778Y-90737426D01*
X66268554Y-90678633D01*
X66316187Y-90641418D01*
X66358655Y-90602367D01*
X66426713Y-90555065D01*
X66493914Y-90502562D01*
X66543182Y-90474117D01*
X66587608Y-90443240D01*
X66664678Y-90403971D01*
X66741586Y-90359568D01*
X66791032Y-90339591D01*
X66836034Y-90316661D01*
X66921137Y-90287025D01*
X67006748Y-90252436D01*
X67055036Y-90240396D01*
X67099343Y-90224967D01*
X67191228Y-90206440D01*
X67284240Y-90183249D01*
X67330193Y-90178419D01*
X67372667Y-90169855D01*
X67469858Y-90163740D01*
X67568660Y-90153356D01*
X67611263Y-90154844D01*
X67650932Y-90152348D01*
X67751706Y-90159748D01*
X67751706Y-90159748D01*
G37*
G36*
X48498506Y-90159748D02*
G01*
X48601272Y-90163337D01*
X48639737Y-90170119D01*
X48675804Y-90172768D01*
X48778233Y-90194540D01*
X48882914Y-90212998D01*
X48916667Y-90223965D01*
X48948527Y-90230737D01*
X49050495Y-90267448D01*
X49154903Y-90301372D01*
X49183605Y-90315371D01*
X49210859Y-90325183D01*
X49310150Y-90377091D01*
X49411947Y-90426741D01*
X49435467Y-90442606D01*
X49457957Y-90454363D01*
X49552327Y-90521429D01*
X49649040Y-90586662D01*
X49667469Y-90603256D01*
X49685229Y-90615877D01*
X49772401Y-90697737D01*
X49861570Y-90778025D01*
X49875211Y-90794281D01*
X49888481Y-90806743D01*
X49966220Y-90902742D01*
X50045398Y-90997103D01*
X50054744Y-91012060D01*
X50063941Y-91023417D01*
X50130032Y-91132546D01*
X50196948Y-91239634D01*
X50202669Y-91252483D01*
X50208384Y-91261920D01*
X50260814Y-91383080D01*
X50313269Y-91500895D01*
X50316160Y-91510977D01*
X50319113Y-91517801D01*
X50355994Y-91649894D01*
X50392098Y-91775803D01*
X50393060Y-91782651D01*
X50394094Y-91786353D01*
X50413847Y-91930555D01*
X50431900Y-92059007D01*
X50431900Y-92344993D01*
X50428636Y-92368216D01*
X50428462Y-92384854D01*
X50409251Y-92506150D01*
X50392098Y-92628197D01*
X50387234Y-92645161D01*
X50384948Y-92659592D01*
X50348074Y-92781728D01*
X50313269Y-92903105D01*
X50307550Y-92915950D01*
X50304363Y-92926506D01*
X50249430Y-93046489D01*
X50196948Y-93164366D01*
X50191388Y-93173264D01*
X50188292Y-93180026D01*
X50114800Y-93295830D01*
X50045398Y-93406897D01*
X50040953Y-93412195D01*
X50038897Y-93415434D01*
X49945085Y-93526446D01*
X49861570Y-93625975D01*
X49859086Y-93628211D01*
X49858926Y-93628401D01*
X49651726Y-93814965D01*
X49651520Y-93815105D01*
X49649040Y-93817338D01*
X49541590Y-93889814D01*
X49421121Y-93971685D01*
X49417674Y-93973396D01*
X49411947Y-93977259D01*
X49294281Y-94034649D01*
X49171380Y-94095657D01*
X49164334Y-94098028D01*
X49154903Y-94102628D01*
X49032176Y-94142504D01*
X48907123Y-94184589D01*
X48896293Y-94186655D01*
X48882914Y-94191002D01*
X48758551Y-94212931D01*
X48633244Y-94236834D01*
X48618649Y-94237599D01*
X48601272Y-94240663D01*
X48478144Y-94244963D01*
X48354806Y-94251427D01*
X48336664Y-94249904D01*
X48315460Y-94250644D01*
X48196149Y-94238104D01*
X48076964Y-94228096D01*
X48055699Y-94223343D01*
X48031040Y-94220751D01*
X47917862Y-94192532D01*
X47804854Y-94167272D01*
X47781064Y-94158424D01*
X47753548Y-94151564D01*
X47648581Y-94109155D01*
X47543528Y-94070086D01*
X47517991Y-94056393D01*
X47488386Y-94044432D01*
X47393307Y-93989538D01*
X47297805Y-93938330D01*
X47271460Y-93919189D01*
X47240714Y-93901438D01*
X47156926Y-93835976D01*
X47072231Y-93774441D01*
X47046135Y-93749416D01*
X47015354Y-93725367D01*
X46943924Y-93651399D01*
X46870995Y-93581463D01*
X46846306Y-93550313D01*
X46816691Y-93519646D01*
X46758290Y-93439265D01*
X46697806Y-93362952D01*
X46675751Y-93325659D01*
X46648592Y-93288278D01*
X46603594Y-93203649D01*
X46555874Y-93122959D01*
X46537691Y-93079702D01*
X46514330Y-93035767D01*
X46482751Y-92949004D01*
X46447829Y-92865928D01*
X46434758Y-92817146D01*
X46416516Y-92767027D01*
X46398048Y-92680144D01*
X46375664Y-92596604D01*
X46368884Y-92542935D01*
X46357056Y-92487290D01*
X46351108Y-92402235D01*
X46340718Y-92319989D01*
X46341323Y-92262286D01*
X46337107Y-92202000D01*
X46342808Y-92120465D01*
X46343639Y-92041185D01*
X46352591Y-91980559D01*
X46357056Y-91916710D01*
X46373315Y-91840218D01*
X46384369Y-91765359D01*
X46402469Y-91703058D01*
X46416516Y-91636973D01*
X46442051Y-91566815D01*
X46462159Y-91497605D01*
X46490012Y-91435046D01*
X46514330Y-91368233D01*
X46547707Y-91305460D01*
X46575562Y-91242896D01*
X46613546Y-91181633D01*
X46648592Y-91115722D01*
X46688298Y-91061072D01*
X46722489Y-91005927D01*
X46770732Y-90947611D01*
X46816691Y-90884354D01*
X46861143Y-90838323D01*
X46900213Y-90791095D01*
X46958578Y-90737426D01*
X47015354Y-90678633D01*
X47062987Y-90641418D01*
X47105455Y-90602367D01*
X47173513Y-90555065D01*
X47240714Y-90502562D01*
X47289982Y-90474117D01*
X47334408Y-90443240D01*
X47411478Y-90403971D01*
X47488386Y-90359568D01*
X47537832Y-90339591D01*
X47582834Y-90316661D01*
X47667937Y-90287025D01*
X47753548Y-90252436D01*
X47801836Y-90240396D01*
X47846143Y-90224967D01*
X47938028Y-90206440D01*
X48031040Y-90183249D01*
X48076993Y-90178419D01*
X48119467Y-90169855D01*
X48216658Y-90163740D01*
X48315460Y-90153356D01*
X48358063Y-90154844D01*
X48397732Y-90152348D01*
X48498506Y-90159748D01*
X48498506Y-90159748D01*
G37*
G36*
X29245306Y-90159748D02*
G01*
X29348072Y-90163337D01*
X29386537Y-90170119D01*
X29422604Y-90172768D01*
X29525033Y-90194540D01*
X29629714Y-90212998D01*
X29663467Y-90223965D01*
X29695327Y-90230737D01*
X29797295Y-90267448D01*
X29901703Y-90301372D01*
X29930405Y-90315371D01*
X29957659Y-90325183D01*
X30056950Y-90377091D01*
X30158747Y-90426741D01*
X30182267Y-90442606D01*
X30204757Y-90454363D01*
X30299127Y-90521429D01*
X30395840Y-90586662D01*
X30414269Y-90603256D01*
X30432029Y-90615877D01*
X30519201Y-90697737D01*
X30608370Y-90778025D01*
X30622011Y-90794281D01*
X30635281Y-90806743D01*
X30713020Y-90902742D01*
X30792198Y-90997103D01*
X30801544Y-91012060D01*
X30810741Y-91023417D01*
X30876832Y-91132546D01*
X30943748Y-91239634D01*
X30949469Y-91252483D01*
X30955184Y-91261920D01*
X31007614Y-91383080D01*
X31060069Y-91500895D01*
X31062960Y-91510977D01*
X31065913Y-91517801D01*
X31102794Y-91649894D01*
X31138898Y-91775803D01*
X31139860Y-91782651D01*
X31140894Y-91786353D01*
X31160647Y-91930555D01*
X31178700Y-92059007D01*
X31178700Y-92344993D01*
X31175436Y-92368216D01*
X31175262Y-92384854D01*
X31156051Y-92506150D01*
X31138898Y-92628197D01*
X31134034Y-92645161D01*
X31131748Y-92659592D01*
X31094874Y-92781728D01*
X31060069Y-92903105D01*
X31054350Y-92915950D01*
X31051163Y-92926506D01*
X30996230Y-93046489D01*
X30943748Y-93164366D01*
X30938188Y-93173264D01*
X30935092Y-93180026D01*
X30861600Y-93295830D01*
X30792198Y-93406897D01*
X30787753Y-93412195D01*
X30785697Y-93415434D01*
X30691885Y-93526446D01*
X30608370Y-93625975D01*
X30605886Y-93628211D01*
X30605726Y-93628401D01*
X30398526Y-93814965D01*
X30398320Y-93815105D01*
X30395840Y-93817338D01*
X30288390Y-93889814D01*
X30167921Y-93971685D01*
X30164474Y-93973396D01*
X30158747Y-93977259D01*
X30041081Y-94034649D01*
X29918180Y-94095657D01*
X29911134Y-94098028D01*
X29901703Y-94102628D01*
X29778976Y-94142504D01*
X29653923Y-94184589D01*
X29643093Y-94186655D01*
X29629714Y-94191002D01*
X29505351Y-94212931D01*
X29380044Y-94236834D01*
X29365449Y-94237599D01*
X29348072Y-94240663D01*
X29224944Y-94244963D01*
X29101606Y-94251427D01*
X29083464Y-94249904D01*
X29062260Y-94250644D01*
X28942949Y-94238104D01*
X28823764Y-94228096D01*
X28802499Y-94223343D01*
X28777840Y-94220751D01*
X28664662Y-94192532D01*
X28551654Y-94167272D01*
X28527864Y-94158424D01*
X28500348Y-94151564D01*
X28395381Y-94109155D01*
X28290328Y-94070086D01*
X28264791Y-94056393D01*
X28235186Y-94044432D01*
X28140107Y-93989538D01*
X28044605Y-93938330D01*
X28018260Y-93919189D01*
X27987514Y-93901438D01*
X27903726Y-93835976D01*
X27819031Y-93774441D01*
X27792935Y-93749416D01*
X27762154Y-93725367D01*
X27690724Y-93651399D01*
X27617795Y-93581463D01*
X27593106Y-93550313D01*
X27563491Y-93519646D01*
X27505090Y-93439265D01*
X27444606Y-93362952D01*
X27422551Y-93325659D01*
X27395392Y-93288278D01*
X27350394Y-93203649D01*
X27302674Y-93122959D01*
X27284491Y-93079702D01*
X27261130Y-93035767D01*
X27229551Y-92949004D01*
X27194629Y-92865928D01*
X27181558Y-92817146D01*
X27163316Y-92767027D01*
X27144848Y-92680144D01*
X27122464Y-92596604D01*
X27115684Y-92542935D01*
X27103856Y-92487290D01*
X27097908Y-92402235D01*
X27087518Y-92319989D01*
X27088123Y-92262286D01*
X27083907Y-92202000D01*
X27089608Y-92120465D01*
X27090439Y-92041185D01*
X27099391Y-91980559D01*
X27103856Y-91916710D01*
X27120115Y-91840218D01*
X27131169Y-91765359D01*
X27149269Y-91703058D01*
X27163316Y-91636973D01*
X27188851Y-91566815D01*
X27208959Y-91497605D01*
X27236812Y-91435046D01*
X27261130Y-91368233D01*
X27294507Y-91305460D01*
X27322362Y-91242896D01*
X27360346Y-91181633D01*
X27395392Y-91115722D01*
X27435098Y-91061072D01*
X27469289Y-91005927D01*
X27517532Y-90947611D01*
X27563491Y-90884354D01*
X27607943Y-90838323D01*
X27647013Y-90791095D01*
X27705378Y-90737426D01*
X27762154Y-90678633D01*
X27809787Y-90641418D01*
X27852255Y-90602367D01*
X27920313Y-90555065D01*
X27987514Y-90502562D01*
X28036782Y-90474117D01*
X28081208Y-90443240D01*
X28158278Y-90403971D01*
X28235186Y-90359568D01*
X28284632Y-90339591D01*
X28329634Y-90316661D01*
X28414737Y-90287025D01*
X28500348Y-90252436D01*
X28548636Y-90240396D01*
X28592943Y-90224967D01*
X28684828Y-90206440D01*
X28777840Y-90183249D01*
X28823793Y-90178419D01*
X28866267Y-90169855D01*
X28963458Y-90163740D01*
X29062260Y-90153356D01*
X29104863Y-90154844D01*
X29144532Y-90152348D01*
X29245306Y-90159748D01*
X29245306Y-90159748D01*
G37*
G36*
X22364000Y-93433200D02*
G01*
X20562000Y-93433200D01*
X20562000Y-91631200D01*
X22364000Y-91631200D01*
X22364000Y-93433200D01*
X22364000Y-93433200D01*
G37*
G36*
X41642600Y-93382400D02*
G01*
X39840600Y-93382400D01*
X39840600Y-91580400D01*
X41642600Y-91580400D01*
X41642600Y-93382400D01*
X41642600Y-93382400D01*
G37*
G36*
X37832600Y-93382400D02*
G01*
X36030600Y-93382400D01*
X36030600Y-91580400D01*
X37832600Y-91580400D01*
X37832600Y-93382400D01*
X37832600Y-93382400D01*
G37*
G36*
X57060400Y-93357000D02*
G01*
X55258400Y-93357000D01*
X55258400Y-91555000D01*
X57060400Y-91555000D01*
X57060400Y-93357000D01*
X57060400Y-93357000D01*
G37*
G36*
X60819600Y-93357000D02*
G01*
X59017600Y-93357000D01*
X59017600Y-91555000D01*
X60819600Y-91555000D01*
X60819600Y-93357000D01*
X60819600Y-93357000D01*
G37*
G36*
X80022000Y-93153800D02*
G01*
X78220000Y-93153800D01*
X78220000Y-91351800D01*
X80022000Y-91351800D01*
X80022000Y-93153800D01*
X80022000Y-93153800D01*
G37*
G36*
X34265084Y-91276290D02*
G01*
X34311062Y-91276611D01*
X34356102Y-91285857D01*
X34407387Y-91291247D01*
X34450326Y-91305199D01*
X34488953Y-91313128D01*
X34537377Y-91333484D01*
X34592512Y-91351398D01*
X34626030Y-91370750D01*
X34656360Y-91383499D01*
X34705362Y-91416552D01*
X34761087Y-91448724D01*
X34785056Y-91470306D01*
X34806915Y-91485050D01*
X34853236Y-91531695D01*
X34905742Y-91578972D01*
X34920894Y-91599827D01*
X34934874Y-91613905D01*
X34974988Y-91674281D01*
X35020156Y-91736450D01*
X35028004Y-91754077D01*
X35035371Y-91765165D01*
X35065666Y-91838666D01*
X35099329Y-91914274D01*
X35101991Y-91926797D01*
X35104573Y-91933062D01*
X35121599Y-92019048D01*
X35139799Y-92104674D01*
X35139799Y-92299326D01*
X35136839Y-92313252D01*
X35136752Y-92319480D01*
X35117552Y-92403990D01*
X35099329Y-92489726D01*
X35096767Y-92495480D01*
X35096715Y-92495709D01*
X35022853Y-92661605D01*
X35022717Y-92661798D01*
X35020156Y-92667550D01*
X34968643Y-92738451D01*
X34918173Y-92809997D01*
X34913271Y-92814665D01*
X34905742Y-92825028D01*
X34844205Y-92880436D01*
X34786662Y-92935234D01*
X34775428Y-92942364D01*
X34761087Y-92955276D01*
X34694543Y-92993695D01*
X34633338Y-93032537D01*
X34614835Y-93039714D01*
X34592512Y-93052602D01*
X34525326Y-93074432D01*
X34464023Y-93098210D01*
X34438053Y-93102789D01*
X34407387Y-93112753D01*
X34343398Y-93119479D01*
X34285189Y-93129742D01*
X34252301Y-93129053D01*
X34213800Y-93133100D01*
X34156141Y-93127040D01*
X34103624Y-93125940D01*
X34065109Y-93117472D01*
X34020213Y-93112753D01*
X33971169Y-93096818D01*
X33926262Y-93086944D01*
X33884127Y-93068536D01*
X33835088Y-93052602D01*
X33795997Y-93030033D01*
X33759857Y-93014244D01*
X33716722Y-92984264D01*
X33666513Y-92955276D01*
X33637743Y-92929371D01*
X33610735Y-92910600D01*
X33569683Y-92868090D01*
X33521858Y-92825028D01*
X33502901Y-92798935D01*
X33484583Y-92779967D01*
X33448970Y-92724706D01*
X33407444Y-92667550D01*
X33396958Y-92643998D01*
X33386211Y-92627322D01*
X33359530Y-92559935D01*
X33328271Y-92489726D01*
X33324259Y-92470851D01*
X33319359Y-92458475D01*
X33305006Y-92380268D01*
X33287801Y-92299326D01*
X33287801Y-92286528D01*
X33286578Y-92279864D01*
X33287801Y-92192292D01*
X33287801Y-92104674D01*
X33289111Y-92098512D01*
X33289114Y-92098276D01*
X33326870Y-91920651D01*
X33326960Y-91920440D01*
X33328271Y-91914274D01*
X33363933Y-91834175D01*
X33398409Y-91753738D01*
X33402234Y-91748151D01*
X33407444Y-91736450D01*
X33456107Y-91669471D01*
X33501007Y-91603895D01*
X33510516Y-91594584D01*
X33521858Y-91578972D01*
X33578974Y-91527545D01*
X33630754Y-91476838D01*
X33647353Y-91465976D01*
X33666513Y-91448724D01*
X33727701Y-91413398D01*
X33782712Y-91377399D01*
X33807164Y-91367520D01*
X33835088Y-91351398D01*
X33896275Y-91331517D01*
X33951084Y-91309373D01*
X33983400Y-91303208D01*
X34020213Y-91291247D01*
X34077870Y-91285187D01*
X34129468Y-91275344D01*
X34168901Y-91275619D01*
X34213800Y-91270900D01*
X34265084Y-91276290D01*
X34265084Y-91276290D01*
G37*
G36*
X81839284Y-91276290D02*
G01*
X81885262Y-91276611D01*
X81930302Y-91285857D01*
X81981587Y-91291247D01*
X82024526Y-91305199D01*
X82063153Y-91313128D01*
X82111577Y-91333484D01*
X82166712Y-91351398D01*
X82200230Y-91370750D01*
X82230560Y-91383499D01*
X82279562Y-91416552D01*
X82335287Y-91448724D01*
X82359256Y-91470306D01*
X82381115Y-91485050D01*
X82427436Y-91531695D01*
X82479942Y-91578972D01*
X82495094Y-91599827D01*
X82509074Y-91613905D01*
X82549188Y-91674281D01*
X82594356Y-91736450D01*
X82602204Y-91754077D01*
X82609571Y-91765165D01*
X82639866Y-91838666D01*
X82673529Y-91914274D01*
X82676191Y-91926797D01*
X82678773Y-91933062D01*
X82695799Y-92019048D01*
X82713999Y-92104674D01*
X82713999Y-92299326D01*
X82711039Y-92313252D01*
X82710952Y-92319480D01*
X82691752Y-92403990D01*
X82673529Y-92489726D01*
X82670967Y-92495480D01*
X82670915Y-92495709D01*
X82597053Y-92661605D01*
X82596917Y-92661798D01*
X82594356Y-92667550D01*
X82542843Y-92738451D01*
X82492373Y-92809997D01*
X82487471Y-92814665D01*
X82479942Y-92825028D01*
X82418405Y-92880436D01*
X82360862Y-92935234D01*
X82349628Y-92942364D01*
X82335287Y-92955276D01*
X82268743Y-92993695D01*
X82207538Y-93032537D01*
X82189035Y-93039714D01*
X82166712Y-93052602D01*
X82099526Y-93074432D01*
X82038223Y-93098210D01*
X82012253Y-93102789D01*
X81981587Y-93112753D01*
X81917598Y-93119479D01*
X81859389Y-93129742D01*
X81826501Y-93129053D01*
X81788000Y-93133100D01*
X81730341Y-93127040D01*
X81677824Y-93125940D01*
X81639309Y-93117472D01*
X81594413Y-93112753D01*
X81545369Y-93096818D01*
X81500462Y-93086944D01*
X81458327Y-93068536D01*
X81409288Y-93052602D01*
X81370197Y-93030033D01*
X81334057Y-93014244D01*
X81290922Y-92984264D01*
X81240713Y-92955276D01*
X81211943Y-92929371D01*
X81184935Y-92910600D01*
X81143883Y-92868090D01*
X81096058Y-92825028D01*
X81077101Y-92798935D01*
X81058783Y-92779967D01*
X81023170Y-92724706D01*
X80981644Y-92667550D01*
X80971158Y-92643998D01*
X80960411Y-92627322D01*
X80933730Y-92559935D01*
X80902471Y-92489726D01*
X80898459Y-92470851D01*
X80893559Y-92458475D01*
X80879206Y-92380268D01*
X80862001Y-92299326D01*
X80862001Y-92286528D01*
X80860778Y-92279864D01*
X80862001Y-92192292D01*
X80862001Y-92104674D01*
X80863311Y-92098512D01*
X80863314Y-92098276D01*
X80901070Y-91920651D01*
X80901160Y-91920440D01*
X80902471Y-91914274D01*
X80938133Y-91834175D01*
X80972609Y-91753738D01*
X80976434Y-91748151D01*
X80981644Y-91736450D01*
X81030307Y-91669471D01*
X81075207Y-91603895D01*
X81084716Y-91594584D01*
X81096058Y-91578972D01*
X81153174Y-91527545D01*
X81204954Y-91476838D01*
X81221553Y-91465976D01*
X81240713Y-91448724D01*
X81301901Y-91413398D01*
X81356912Y-91377399D01*
X81381364Y-91367520D01*
X81409288Y-91351398D01*
X81470475Y-91331517D01*
X81525284Y-91309373D01*
X81557600Y-91303208D01*
X81594413Y-91291247D01*
X81652070Y-91285187D01*
X81703668Y-91275344D01*
X81743101Y-91275619D01*
X81788000Y-91270900D01*
X81839284Y-91276290D01*
X81839284Y-91276290D01*
G37*
G36*
X111252484Y-91276290D02*
G01*
X111298462Y-91276611D01*
X111343502Y-91285857D01*
X111394787Y-91291247D01*
X111437726Y-91305199D01*
X111476353Y-91313128D01*
X111524777Y-91333484D01*
X111579912Y-91351398D01*
X111613430Y-91370750D01*
X111643760Y-91383499D01*
X111692762Y-91416552D01*
X111748487Y-91448724D01*
X111772456Y-91470306D01*
X111794315Y-91485050D01*
X111840636Y-91531695D01*
X111893142Y-91578972D01*
X111908294Y-91599827D01*
X111922274Y-91613905D01*
X111962388Y-91674281D01*
X112007556Y-91736450D01*
X112015404Y-91754077D01*
X112022771Y-91765165D01*
X112053066Y-91838666D01*
X112086729Y-91914274D01*
X112089391Y-91926797D01*
X112091973Y-91933062D01*
X112108999Y-92019048D01*
X112127199Y-92104674D01*
X112127199Y-92299326D01*
X112124239Y-92313252D01*
X112124152Y-92319480D01*
X112104952Y-92403990D01*
X112086729Y-92489726D01*
X112084167Y-92495480D01*
X112084115Y-92495709D01*
X112010253Y-92661605D01*
X112010117Y-92661798D01*
X112007556Y-92667550D01*
X111956043Y-92738451D01*
X111905573Y-92809997D01*
X111900671Y-92814665D01*
X111893142Y-92825028D01*
X111831605Y-92880436D01*
X111774062Y-92935234D01*
X111762828Y-92942364D01*
X111748487Y-92955276D01*
X111681943Y-92993695D01*
X111620738Y-93032537D01*
X111602235Y-93039714D01*
X111579912Y-93052602D01*
X111512726Y-93074432D01*
X111451423Y-93098210D01*
X111425453Y-93102789D01*
X111394787Y-93112753D01*
X111330798Y-93119479D01*
X111272589Y-93129742D01*
X111239701Y-93129053D01*
X111201200Y-93133100D01*
X111143541Y-93127040D01*
X111091024Y-93125940D01*
X111052509Y-93117472D01*
X111007613Y-93112753D01*
X110958569Y-93096818D01*
X110913662Y-93086944D01*
X110871527Y-93068536D01*
X110822488Y-93052602D01*
X110783397Y-93030033D01*
X110747257Y-93014244D01*
X110704122Y-92984264D01*
X110653913Y-92955276D01*
X110625143Y-92929371D01*
X110598135Y-92910600D01*
X110557083Y-92868090D01*
X110509258Y-92825028D01*
X110490301Y-92798935D01*
X110471983Y-92779967D01*
X110436370Y-92724706D01*
X110394844Y-92667550D01*
X110384358Y-92643998D01*
X110373611Y-92627322D01*
X110346930Y-92559935D01*
X110315671Y-92489726D01*
X110311659Y-92470851D01*
X110306759Y-92458475D01*
X110292406Y-92380268D01*
X110275201Y-92299326D01*
X110275201Y-92286528D01*
X110273978Y-92279864D01*
X110275201Y-92192292D01*
X110275201Y-92104674D01*
X110276511Y-92098512D01*
X110276514Y-92098276D01*
X110314270Y-91920651D01*
X110314360Y-91920440D01*
X110315671Y-91914274D01*
X110351333Y-91834175D01*
X110385809Y-91753738D01*
X110389634Y-91748151D01*
X110394844Y-91736450D01*
X110443507Y-91669471D01*
X110488407Y-91603895D01*
X110497916Y-91594584D01*
X110509258Y-91578972D01*
X110566374Y-91527545D01*
X110618154Y-91476838D01*
X110634753Y-91465976D01*
X110653913Y-91448724D01*
X110715101Y-91413398D01*
X110770112Y-91377399D01*
X110794564Y-91367520D01*
X110822488Y-91351398D01*
X110883675Y-91331517D01*
X110938484Y-91309373D01*
X110970800Y-91303208D01*
X111007613Y-91291247D01*
X111065270Y-91285187D01*
X111116868Y-91275344D01*
X111156301Y-91275619D01*
X111201200Y-91270900D01*
X111252484Y-91276290D01*
X111252484Y-91276290D01*
G37*
G36*
X24105084Y-91276290D02*
G01*
X24151062Y-91276611D01*
X24196102Y-91285857D01*
X24247387Y-91291247D01*
X24290326Y-91305199D01*
X24328953Y-91313128D01*
X24377377Y-91333484D01*
X24432512Y-91351398D01*
X24466030Y-91370750D01*
X24496360Y-91383499D01*
X24545362Y-91416552D01*
X24601087Y-91448724D01*
X24625056Y-91470306D01*
X24646915Y-91485050D01*
X24693236Y-91531695D01*
X24745742Y-91578972D01*
X24760894Y-91599827D01*
X24774874Y-91613905D01*
X24814988Y-91674281D01*
X24860156Y-91736450D01*
X24868004Y-91754077D01*
X24875371Y-91765165D01*
X24905666Y-91838666D01*
X24939329Y-91914274D01*
X24941991Y-91926797D01*
X24944573Y-91933062D01*
X24961599Y-92019048D01*
X24979799Y-92104674D01*
X24979799Y-92299326D01*
X24976839Y-92313252D01*
X24976752Y-92319480D01*
X24957552Y-92403990D01*
X24939329Y-92489726D01*
X24936767Y-92495480D01*
X24936715Y-92495709D01*
X24862853Y-92661605D01*
X24862717Y-92661798D01*
X24860156Y-92667550D01*
X24808643Y-92738451D01*
X24758173Y-92809997D01*
X24753271Y-92814665D01*
X24745742Y-92825028D01*
X24684205Y-92880436D01*
X24626662Y-92935234D01*
X24615428Y-92942364D01*
X24601087Y-92955276D01*
X24534543Y-92993695D01*
X24473338Y-93032537D01*
X24454835Y-93039714D01*
X24432512Y-93052602D01*
X24365326Y-93074432D01*
X24304023Y-93098210D01*
X24278053Y-93102789D01*
X24247387Y-93112753D01*
X24183398Y-93119479D01*
X24125189Y-93129742D01*
X24092301Y-93129053D01*
X24053800Y-93133100D01*
X23996141Y-93127040D01*
X23943624Y-93125940D01*
X23905109Y-93117472D01*
X23860213Y-93112753D01*
X23811169Y-93096818D01*
X23766262Y-93086944D01*
X23724127Y-93068536D01*
X23675088Y-93052602D01*
X23635997Y-93030033D01*
X23599857Y-93014244D01*
X23556722Y-92984264D01*
X23506513Y-92955276D01*
X23477743Y-92929371D01*
X23450735Y-92910600D01*
X23409683Y-92868090D01*
X23361858Y-92825028D01*
X23342901Y-92798935D01*
X23324583Y-92779967D01*
X23288970Y-92724706D01*
X23247444Y-92667550D01*
X23236958Y-92643998D01*
X23226211Y-92627322D01*
X23199530Y-92559935D01*
X23168271Y-92489726D01*
X23164259Y-92470851D01*
X23159359Y-92458475D01*
X23145006Y-92380268D01*
X23127801Y-92299326D01*
X23127801Y-92286528D01*
X23126578Y-92279864D01*
X23127801Y-92192292D01*
X23127801Y-92104674D01*
X23129111Y-92098512D01*
X23129114Y-92098276D01*
X23166870Y-91920651D01*
X23166960Y-91920440D01*
X23168271Y-91914274D01*
X23203933Y-91834175D01*
X23238409Y-91753738D01*
X23242234Y-91748151D01*
X23247444Y-91736450D01*
X23296107Y-91669471D01*
X23341007Y-91603895D01*
X23350516Y-91594584D01*
X23361858Y-91578972D01*
X23418974Y-91527545D01*
X23470754Y-91476838D01*
X23487353Y-91465976D01*
X23506513Y-91448724D01*
X23567701Y-91413398D01*
X23622712Y-91377399D01*
X23647164Y-91367520D01*
X23675088Y-91351398D01*
X23736275Y-91331517D01*
X23791084Y-91309373D01*
X23823400Y-91303208D01*
X23860213Y-91291247D01*
X23917870Y-91285187D01*
X23969468Y-91275344D01*
X24008901Y-91275619D01*
X24053800Y-91270900D01*
X24105084Y-91276290D01*
X24105084Y-91276290D01*
G37*
G36*
X101092484Y-91276290D02*
G01*
X101138462Y-91276611D01*
X101183502Y-91285857D01*
X101234787Y-91291247D01*
X101277726Y-91305199D01*
X101316353Y-91313128D01*
X101364777Y-91333484D01*
X101419912Y-91351398D01*
X101453430Y-91370750D01*
X101483760Y-91383499D01*
X101532762Y-91416552D01*
X101588487Y-91448724D01*
X101612456Y-91470306D01*
X101634315Y-91485050D01*
X101680636Y-91531695D01*
X101733142Y-91578972D01*
X101748294Y-91599827D01*
X101762274Y-91613905D01*
X101802388Y-91674281D01*
X101847556Y-91736450D01*
X101855404Y-91754077D01*
X101862771Y-91765165D01*
X101893066Y-91838666D01*
X101926729Y-91914274D01*
X101929391Y-91926797D01*
X101931973Y-91933062D01*
X101948999Y-92019048D01*
X101967199Y-92104674D01*
X101967199Y-92299326D01*
X101964239Y-92313252D01*
X101964152Y-92319480D01*
X101944952Y-92403990D01*
X101926729Y-92489726D01*
X101924167Y-92495480D01*
X101924115Y-92495709D01*
X101850253Y-92661605D01*
X101850117Y-92661798D01*
X101847556Y-92667550D01*
X101796043Y-92738451D01*
X101745573Y-92809997D01*
X101740671Y-92814665D01*
X101733142Y-92825028D01*
X101671605Y-92880436D01*
X101614062Y-92935234D01*
X101602828Y-92942364D01*
X101588487Y-92955276D01*
X101521943Y-92993695D01*
X101460738Y-93032537D01*
X101442235Y-93039714D01*
X101419912Y-93052602D01*
X101352726Y-93074432D01*
X101291423Y-93098210D01*
X101265453Y-93102789D01*
X101234787Y-93112753D01*
X101170798Y-93119479D01*
X101112589Y-93129742D01*
X101079701Y-93129053D01*
X101041200Y-93133100D01*
X100983541Y-93127040D01*
X100931024Y-93125940D01*
X100892509Y-93117472D01*
X100847613Y-93112753D01*
X100798569Y-93096818D01*
X100753662Y-93086944D01*
X100711527Y-93068536D01*
X100662488Y-93052602D01*
X100623397Y-93030033D01*
X100587257Y-93014244D01*
X100544122Y-92984264D01*
X100493913Y-92955276D01*
X100465143Y-92929371D01*
X100438135Y-92910600D01*
X100397083Y-92868090D01*
X100349258Y-92825028D01*
X100330301Y-92798935D01*
X100311983Y-92779967D01*
X100276370Y-92724706D01*
X100234844Y-92667550D01*
X100224358Y-92643998D01*
X100213611Y-92627322D01*
X100186930Y-92559935D01*
X100155671Y-92489726D01*
X100151659Y-92470851D01*
X100146759Y-92458475D01*
X100132406Y-92380268D01*
X100115201Y-92299326D01*
X100115201Y-92286528D01*
X100113978Y-92279864D01*
X100115201Y-92192292D01*
X100115201Y-92104674D01*
X100116511Y-92098512D01*
X100116514Y-92098276D01*
X100154270Y-91920651D01*
X100154360Y-91920440D01*
X100155671Y-91914274D01*
X100191333Y-91834175D01*
X100225809Y-91753738D01*
X100229634Y-91748151D01*
X100234844Y-91736450D01*
X100283507Y-91669471D01*
X100328407Y-91603895D01*
X100337916Y-91594584D01*
X100349258Y-91578972D01*
X100406374Y-91527545D01*
X100458154Y-91476838D01*
X100474753Y-91465976D01*
X100493913Y-91448724D01*
X100555101Y-91413398D01*
X100610112Y-91377399D01*
X100634564Y-91367520D01*
X100662488Y-91351398D01*
X100723675Y-91331517D01*
X100778484Y-91309373D01*
X100810800Y-91303208D01*
X100847613Y-91291247D01*
X100905270Y-91285187D01*
X100956868Y-91275344D01*
X100996301Y-91275619D01*
X101041200Y-91270900D01*
X101092484Y-91276290D01*
X101092484Y-91276290D01*
G37*
G36*
X72771484Y-91276290D02*
G01*
X72817462Y-91276611D01*
X72862502Y-91285857D01*
X72913787Y-91291247D01*
X72956726Y-91305199D01*
X72995353Y-91313128D01*
X73043777Y-91333484D01*
X73098912Y-91351398D01*
X73132430Y-91370750D01*
X73162760Y-91383499D01*
X73211762Y-91416552D01*
X73267487Y-91448724D01*
X73291456Y-91470306D01*
X73313315Y-91485050D01*
X73359636Y-91531695D01*
X73412142Y-91578972D01*
X73427294Y-91599827D01*
X73441274Y-91613905D01*
X73481388Y-91674281D01*
X73526556Y-91736450D01*
X73534404Y-91754077D01*
X73541771Y-91765165D01*
X73572066Y-91838666D01*
X73605729Y-91914274D01*
X73608391Y-91926797D01*
X73610973Y-91933062D01*
X73627999Y-92019048D01*
X73646199Y-92104674D01*
X73646199Y-92299326D01*
X73643239Y-92313252D01*
X73643152Y-92319480D01*
X73623952Y-92403990D01*
X73605729Y-92489726D01*
X73603167Y-92495480D01*
X73603115Y-92495709D01*
X73529253Y-92661605D01*
X73529117Y-92661798D01*
X73526556Y-92667550D01*
X73475043Y-92738451D01*
X73424573Y-92809997D01*
X73419671Y-92814665D01*
X73412142Y-92825028D01*
X73350605Y-92880436D01*
X73293062Y-92935234D01*
X73281828Y-92942364D01*
X73267487Y-92955276D01*
X73200943Y-92993695D01*
X73139738Y-93032537D01*
X73121235Y-93039714D01*
X73098912Y-93052602D01*
X73031726Y-93074432D01*
X72970423Y-93098210D01*
X72944453Y-93102789D01*
X72913787Y-93112753D01*
X72849798Y-93119479D01*
X72791589Y-93129742D01*
X72758701Y-93129053D01*
X72720200Y-93133100D01*
X72662541Y-93127040D01*
X72610024Y-93125940D01*
X72571509Y-93117472D01*
X72526613Y-93112753D01*
X72477569Y-93096818D01*
X72432662Y-93086944D01*
X72390527Y-93068536D01*
X72341488Y-93052602D01*
X72302397Y-93030033D01*
X72266257Y-93014244D01*
X72223122Y-92984264D01*
X72172913Y-92955276D01*
X72144143Y-92929371D01*
X72117135Y-92910600D01*
X72076083Y-92868090D01*
X72028258Y-92825028D01*
X72009301Y-92798935D01*
X71990983Y-92779967D01*
X71955370Y-92724706D01*
X71913844Y-92667550D01*
X71903358Y-92643998D01*
X71892611Y-92627322D01*
X71865930Y-92559935D01*
X71834671Y-92489726D01*
X71830659Y-92470851D01*
X71825759Y-92458475D01*
X71811406Y-92380268D01*
X71794201Y-92299326D01*
X71794201Y-92286528D01*
X71792978Y-92279864D01*
X71794201Y-92192292D01*
X71794201Y-92104674D01*
X71795511Y-92098512D01*
X71795514Y-92098276D01*
X71833270Y-91920651D01*
X71833360Y-91920440D01*
X71834671Y-91914274D01*
X71870333Y-91834175D01*
X71904809Y-91753738D01*
X71908634Y-91748151D01*
X71913844Y-91736450D01*
X71962507Y-91669471D01*
X72007407Y-91603895D01*
X72016916Y-91594584D01*
X72028258Y-91578972D01*
X72085374Y-91527545D01*
X72137154Y-91476838D01*
X72153753Y-91465976D01*
X72172913Y-91448724D01*
X72234101Y-91413398D01*
X72289112Y-91377399D01*
X72313564Y-91367520D01*
X72341488Y-91351398D01*
X72402675Y-91331517D01*
X72457484Y-91309373D01*
X72489800Y-91303208D01*
X72526613Y-91291247D01*
X72584270Y-91285187D01*
X72635868Y-91275344D01*
X72675301Y-91275619D01*
X72720200Y-91270900D01*
X72771484Y-91276290D01*
X72771484Y-91276290D01*
G37*
G36*
X43358284Y-91276290D02*
G01*
X43404262Y-91276611D01*
X43449302Y-91285857D01*
X43500587Y-91291247D01*
X43543526Y-91305199D01*
X43582153Y-91313128D01*
X43630577Y-91333484D01*
X43685712Y-91351398D01*
X43719230Y-91370750D01*
X43749560Y-91383499D01*
X43798562Y-91416552D01*
X43854287Y-91448724D01*
X43878256Y-91470306D01*
X43900115Y-91485050D01*
X43946436Y-91531695D01*
X43998942Y-91578972D01*
X44014094Y-91599827D01*
X44028074Y-91613905D01*
X44068188Y-91674281D01*
X44113356Y-91736450D01*
X44121204Y-91754077D01*
X44128571Y-91765165D01*
X44158866Y-91838666D01*
X44192529Y-91914274D01*
X44195191Y-91926797D01*
X44197773Y-91933062D01*
X44214799Y-92019048D01*
X44232999Y-92104674D01*
X44232999Y-92299326D01*
X44230039Y-92313252D01*
X44229952Y-92319480D01*
X44210752Y-92403990D01*
X44192529Y-92489726D01*
X44189967Y-92495480D01*
X44189915Y-92495709D01*
X44116053Y-92661605D01*
X44115917Y-92661798D01*
X44113356Y-92667550D01*
X44061843Y-92738451D01*
X44011373Y-92809997D01*
X44006471Y-92814665D01*
X43998942Y-92825028D01*
X43937405Y-92880436D01*
X43879862Y-92935234D01*
X43868628Y-92942364D01*
X43854287Y-92955276D01*
X43787743Y-92993695D01*
X43726538Y-93032537D01*
X43708035Y-93039714D01*
X43685712Y-93052602D01*
X43618526Y-93074432D01*
X43557223Y-93098210D01*
X43531253Y-93102789D01*
X43500587Y-93112753D01*
X43436598Y-93119479D01*
X43378389Y-93129742D01*
X43345501Y-93129053D01*
X43307000Y-93133100D01*
X43249341Y-93127040D01*
X43196824Y-93125940D01*
X43158309Y-93117472D01*
X43113413Y-93112753D01*
X43064369Y-93096818D01*
X43019462Y-93086944D01*
X42977327Y-93068536D01*
X42928288Y-93052602D01*
X42889197Y-93030033D01*
X42853057Y-93014244D01*
X42809922Y-92984264D01*
X42759713Y-92955276D01*
X42730943Y-92929371D01*
X42703935Y-92910600D01*
X42662883Y-92868090D01*
X42615058Y-92825028D01*
X42596101Y-92798935D01*
X42577783Y-92779967D01*
X42542170Y-92724706D01*
X42500644Y-92667550D01*
X42490158Y-92643998D01*
X42479411Y-92627322D01*
X42452730Y-92559935D01*
X42421471Y-92489726D01*
X42417459Y-92470851D01*
X42412559Y-92458475D01*
X42398206Y-92380268D01*
X42381001Y-92299326D01*
X42381001Y-92286528D01*
X42379778Y-92279864D01*
X42381001Y-92192292D01*
X42381001Y-92104674D01*
X42382311Y-92098512D01*
X42382314Y-92098276D01*
X42420070Y-91920651D01*
X42420160Y-91920440D01*
X42421471Y-91914274D01*
X42457133Y-91834175D01*
X42491609Y-91753738D01*
X42495434Y-91748151D01*
X42500644Y-91736450D01*
X42549307Y-91669471D01*
X42594207Y-91603895D01*
X42603716Y-91594584D01*
X42615058Y-91578972D01*
X42672174Y-91527545D01*
X42723954Y-91476838D01*
X42740553Y-91465976D01*
X42759713Y-91448724D01*
X42820901Y-91413398D01*
X42875912Y-91377399D01*
X42900364Y-91367520D01*
X42928288Y-91351398D01*
X42989475Y-91331517D01*
X43044284Y-91309373D01*
X43076600Y-91303208D01*
X43113413Y-91291247D01*
X43171070Y-91285187D01*
X43222668Y-91275344D01*
X43262101Y-91275619D01*
X43307000Y-91270900D01*
X43358284Y-91276290D01*
X43358284Y-91276290D01*
G37*
G36*
X53518284Y-91276290D02*
G01*
X53564262Y-91276611D01*
X53609302Y-91285857D01*
X53660587Y-91291247D01*
X53703526Y-91305199D01*
X53742153Y-91313128D01*
X53790577Y-91333484D01*
X53845712Y-91351398D01*
X53879230Y-91370750D01*
X53909560Y-91383499D01*
X53958562Y-91416552D01*
X54014287Y-91448724D01*
X54038256Y-91470306D01*
X54060115Y-91485050D01*
X54106436Y-91531695D01*
X54158942Y-91578972D01*
X54174094Y-91599827D01*
X54188074Y-91613905D01*
X54228188Y-91674281D01*
X54273356Y-91736450D01*
X54281204Y-91754077D01*
X54288571Y-91765165D01*
X54318866Y-91838666D01*
X54352529Y-91914274D01*
X54355191Y-91926797D01*
X54357773Y-91933062D01*
X54374799Y-92019048D01*
X54392999Y-92104674D01*
X54392999Y-92299326D01*
X54390039Y-92313252D01*
X54389952Y-92319480D01*
X54370752Y-92403990D01*
X54352529Y-92489726D01*
X54349967Y-92495480D01*
X54349915Y-92495709D01*
X54276053Y-92661605D01*
X54275917Y-92661798D01*
X54273356Y-92667550D01*
X54221843Y-92738451D01*
X54171373Y-92809997D01*
X54166471Y-92814665D01*
X54158942Y-92825028D01*
X54097405Y-92880436D01*
X54039862Y-92935234D01*
X54028628Y-92942364D01*
X54014287Y-92955276D01*
X53947743Y-92993695D01*
X53886538Y-93032537D01*
X53868035Y-93039714D01*
X53845712Y-93052602D01*
X53778526Y-93074432D01*
X53717223Y-93098210D01*
X53691253Y-93102789D01*
X53660587Y-93112753D01*
X53596598Y-93119479D01*
X53538389Y-93129742D01*
X53505501Y-93129053D01*
X53467000Y-93133100D01*
X53409341Y-93127040D01*
X53356824Y-93125940D01*
X53318309Y-93117472D01*
X53273413Y-93112753D01*
X53224369Y-93096818D01*
X53179462Y-93086944D01*
X53137327Y-93068536D01*
X53088288Y-93052602D01*
X53049197Y-93030033D01*
X53013057Y-93014244D01*
X52969922Y-92984264D01*
X52919713Y-92955276D01*
X52890943Y-92929371D01*
X52863935Y-92910600D01*
X52822883Y-92868090D01*
X52775058Y-92825028D01*
X52756101Y-92798935D01*
X52737783Y-92779967D01*
X52702170Y-92724706D01*
X52660644Y-92667550D01*
X52650158Y-92643998D01*
X52639411Y-92627322D01*
X52612730Y-92559935D01*
X52581471Y-92489726D01*
X52577459Y-92470851D01*
X52572559Y-92458475D01*
X52558206Y-92380268D01*
X52541001Y-92299326D01*
X52541001Y-92286528D01*
X52539778Y-92279864D01*
X52541001Y-92192292D01*
X52541001Y-92104674D01*
X52542311Y-92098512D01*
X52542314Y-92098276D01*
X52580070Y-91920651D01*
X52580160Y-91920440D01*
X52581471Y-91914274D01*
X52617133Y-91834175D01*
X52651609Y-91753738D01*
X52655434Y-91748151D01*
X52660644Y-91736450D01*
X52709307Y-91669471D01*
X52754207Y-91603895D01*
X52763716Y-91594584D01*
X52775058Y-91578972D01*
X52832174Y-91527545D01*
X52883954Y-91476838D01*
X52900553Y-91465976D01*
X52919713Y-91448724D01*
X52980901Y-91413398D01*
X53035912Y-91377399D01*
X53060364Y-91367520D01*
X53088288Y-91351398D01*
X53149475Y-91331517D01*
X53204284Y-91309373D01*
X53236600Y-91303208D01*
X53273413Y-91291247D01*
X53331070Y-91285187D01*
X53382668Y-91275344D01*
X53422101Y-91275619D01*
X53467000Y-91270900D01*
X53518284Y-91276290D01*
X53518284Y-91276290D01*
G37*
G36*
X62611484Y-91276290D02*
G01*
X62657462Y-91276611D01*
X62702502Y-91285857D01*
X62753787Y-91291247D01*
X62796726Y-91305199D01*
X62835353Y-91313128D01*
X62883777Y-91333484D01*
X62938912Y-91351398D01*
X62972430Y-91370750D01*
X63002760Y-91383499D01*
X63051762Y-91416552D01*
X63107487Y-91448724D01*
X63131456Y-91470306D01*
X63153315Y-91485050D01*
X63199636Y-91531695D01*
X63252142Y-91578972D01*
X63267294Y-91599827D01*
X63281274Y-91613905D01*
X63321388Y-91674281D01*
X63366556Y-91736450D01*
X63374404Y-91754077D01*
X63381771Y-91765165D01*
X63412066Y-91838666D01*
X63445729Y-91914274D01*
X63448391Y-91926797D01*
X63450973Y-91933062D01*
X63467999Y-92019048D01*
X63486199Y-92104674D01*
X63486199Y-92299326D01*
X63483239Y-92313252D01*
X63483152Y-92319480D01*
X63463952Y-92403990D01*
X63445729Y-92489726D01*
X63443167Y-92495480D01*
X63443115Y-92495709D01*
X63369253Y-92661605D01*
X63369117Y-92661798D01*
X63366556Y-92667550D01*
X63315043Y-92738451D01*
X63264573Y-92809997D01*
X63259671Y-92814665D01*
X63252142Y-92825028D01*
X63190605Y-92880436D01*
X63133062Y-92935234D01*
X63121828Y-92942364D01*
X63107487Y-92955276D01*
X63040943Y-92993695D01*
X62979738Y-93032537D01*
X62961235Y-93039714D01*
X62938912Y-93052602D01*
X62871726Y-93074432D01*
X62810423Y-93098210D01*
X62784453Y-93102789D01*
X62753787Y-93112753D01*
X62689798Y-93119479D01*
X62631589Y-93129742D01*
X62598701Y-93129053D01*
X62560200Y-93133100D01*
X62502541Y-93127040D01*
X62450024Y-93125940D01*
X62411509Y-93117472D01*
X62366613Y-93112753D01*
X62317569Y-93096818D01*
X62272662Y-93086944D01*
X62230527Y-93068536D01*
X62181488Y-93052602D01*
X62142397Y-93030033D01*
X62106257Y-93014244D01*
X62063122Y-92984264D01*
X62012913Y-92955276D01*
X61984143Y-92929371D01*
X61957135Y-92910600D01*
X61916083Y-92868090D01*
X61868258Y-92825028D01*
X61849301Y-92798935D01*
X61830983Y-92779967D01*
X61795370Y-92724706D01*
X61753844Y-92667550D01*
X61743358Y-92643998D01*
X61732611Y-92627322D01*
X61705930Y-92559935D01*
X61674671Y-92489726D01*
X61670659Y-92470851D01*
X61665759Y-92458475D01*
X61651406Y-92380268D01*
X61634201Y-92299326D01*
X61634201Y-92286528D01*
X61632978Y-92279864D01*
X61634201Y-92192292D01*
X61634201Y-92104674D01*
X61635511Y-92098512D01*
X61635514Y-92098276D01*
X61673270Y-91920651D01*
X61673360Y-91920440D01*
X61674671Y-91914274D01*
X61710333Y-91834175D01*
X61744809Y-91753738D01*
X61748634Y-91748151D01*
X61753844Y-91736450D01*
X61802507Y-91669471D01*
X61847407Y-91603895D01*
X61856916Y-91594584D01*
X61868258Y-91578972D01*
X61925374Y-91527545D01*
X61977154Y-91476838D01*
X61993753Y-91465976D01*
X62012913Y-91448724D01*
X62074101Y-91413398D01*
X62129112Y-91377399D01*
X62153564Y-91367520D01*
X62181488Y-91351398D01*
X62242675Y-91331517D01*
X62297484Y-91309373D01*
X62329800Y-91303208D01*
X62366613Y-91291247D01*
X62424270Y-91285187D01*
X62475868Y-91275344D01*
X62515301Y-91275619D01*
X62560200Y-91270900D01*
X62611484Y-91276290D01*
X62611484Y-91276290D01*
G37*
G36*
X91999284Y-91276290D02*
G01*
X92045262Y-91276611D01*
X92090302Y-91285857D01*
X92141587Y-91291247D01*
X92184526Y-91305199D01*
X92223153Y-91313128D01*
X92271577Y-91333484D01*
X92326712Y-91351398D01*
X92360230Y-91370750D01*
X92390560Y-91383499D01*
X92439562Y-91416552D01*
X92495287Y-91448724D01*
X92519256Y-91470306D01*
X92541115Y-91485050D01*
X92587436Y-91531695D01*
X92639942Y-91578972D01*
X92655094Y-91599827D01*
X92669074Y-91613905D01*
X92709188Y-91674281D01*
X92754356Y-91736450D01*
X92762204Y-91754077D01*
X92769571Y-91765165D01*
X92799866Y-91838666D01*
X92833529Y-91914274D01*
X92836191Y-91926797D01*
X92838773Y-91933062D01*
X92855799Y-92019048D01*
X92873999Y-92104674D01*
X92873999Y-92299326D01*
X92871039Y-92313252D01*
X92870952Y-92319480D01*
X92851752Y-92403990D01*
X92833529Y-92489726D01*
X92830967Y-92495480D01*
X92830915Y-92495709D01*
X92757053Y-92661605D01*
X92756917Y-92661798D01*
X92754356Y-92667550D01*
X92702843Y-92738451D01*
X92652373Y-92809997D01*
X92647471Y-92814665D01*
X92639942Y-92825028D01*
X92578405Y-92880436D01*
X92520862Y-92935234D01*
X92509628Y-92942364D01*
X92495287Y-92955276D01*
X92428743Y-92993695D01*
X92367538Y-93032537D01*
X92349035Y-93039714D01*
X92326712Y-93052602D01*
X92259526Y-93074432D01*
X92198223Y-93098210D01*
X92172253Y-93102789D01*
X92141587Y-93112753D01*
X92077598Y-93119479D01*
X92019389Y-93129742D01*
X91986501Y-93129053D01*
X91948000Y-93133100D01*
X91890341Y-93127040D01*
X91837824Y-93125940D01*
X91799309Y-93117472D01*
X91754413Y-93112753D01*
X91705369Y-93096818D01*
X91660462Y-93086944D01*
X91618327Y-93068536D01*
X91569288Y-93052602D01*
X91530197Y-93030033D01*
X91494057Y-93014244D01*
X91450922Y-92984264D01*
X91400713Y-92955276D01*
X91371943Y-92929371D01*
X91344935Y-92910600D01*
X91303883Y-92868090D01*
X91256058Y-92825028D01*
X91237101Y-92798935D01*
X91218783Y-92779967D01*
X91183170Y-92724706D01*
X91141644Y-92667550D01*
X91131158Y-92643998D01*
X91120411Y-92627322D01*
X91093730Y-92559935D01*
X91062471Y-92489726D01*
X91058459Y-92470851D01*
X91053559Y-92458475D01*
X91039206Y-92380268D01*
X91022001Y-92299326D01*
X91022001Y-92286528D01*
X91020778Y-92279864D01*
X91022001Y-92192292D01*
X91022001Y-92104674D01*
X91023311Y-92098512D01*
X91023314Y-92098276D01*
X91061070Y-91920651D01*
X91061160Y-91920440D01*
X91062471Y-91914274D01*
X91098133Y-91834175D01*
X91132609Y-91753738D01*
X91136434Y-91748151D01*
X91141644Y-91736450D01*
X91190307Y-91669471D01*
X91235207Y-91603895D01*
X91244716Y-91594584D01*
X91256058Y-91578972D01*
X91313174Y-91527545D01*
X91364954Y-91476838D01*
X91381553Y-91465976D01*
X91400713Y-91448724D01*
X91461901Y-91413398D01*
X91516912Y-91377399D01*
X91541364Y-91367520D01*
X91569288Y-91351398D01*
X91630475Y-91331517D01*
X91685284Y-91309373D01*
X91717600Y-91303208D01*
X91754413Y-91291247D01*
X91812070Y-91285187D01*
X91863668Y-91275344D01*
X91903101Y-91275619D01*
X91948000Y-91270900D01*
X91999284Y-91276290D01*
X91999284Y-91276290D01*
G37*
G36*
X76339000Y-93103000D02*
G01*
X74537000Y-93103000D01*
X74537000Y-91301000D01*
X76339000Y-91301000D01*
X76339000Y-93103000D01*
X76339000Y-93103000D01*
G37*
G36*
X95490600Y-93077600D02*
G01*
X93688600Y-93077600D01*
X93688600Y-91275600D01*
X95490600Y-91275600D01*
X95490600Y-93077600D01*
X95490600Y-93077600D01*
G37*
G36*
X99275200Y-93052200D02*
G01*
X97473200Y-93052200D01*
X97473200Y-91250200D01*
X99275200Y-91250200D01*
X99275200Y-93052200D01*
X99275200Y-93052200D01*
G37*
G36*
X114667600Y-92976000D02*
G01*
X112865600Y-92976000D01*
X112865600Y-91174000D01*
X114667600Y-91174000D01*
X114667600Y-92976000D01*
X114667600Y-92976000D01*
G37*
G36*
X57060400Y-89750200D02*
G01*
X55258400Y-89750200D01*
X55258400Y-87948200D01*
X57060400Y-87948200D01*
X57060400Y-89750200D01*
X57060400Y-89750200D01*
G37*
G36*
X60819600Y-89724800D02*
G01*
X59017600Y-89724800D01*
X59017600Y-87922800D01*
X60819600Y-87922800D01*
X60819600Y-89724800D01*
X60819600Y-89724800D01*
G37*
G36*
X80022000Y-89521600D02*
G01*
X78220000Y-89521600D01*
X78220000Y-87719600D01*
X80022000Y-87719600D01*
X80022000Y-89521600D01*
X80022000Y-89521600D01*
G37*
G36*
X95490600Y-89470800D02*
G01*
X93688600Y-89470800D01*
X93688600Y-87668800D01*
X95490600Y-87668800D01*
X95490600Y-89470800D01*
X95490600Y-89470800D01*
G37*
G36*
X76339000Y-89470800D02*
G01*
X74537000Y-89470800D01*
X74537000Y-87668800D01*
X76339000Y-87668800D01*
X76339000Y-89470800D01*
X76339000Y-89470800D01*
G37*
G36*
X99249800Y-89420000D02*
G01*
X97447800Y-89420000D01*
X97447800Y-87618000D01*
X99249800Y-87618000D01*
X99249800Y-89420000D01*
X99249800Y-89420000D01*
G37*
G36*
X37832600Y-89343800D02*
G01*
X36030600Y-89343800D01*
X36030600Y-87541800D01*
X37832600Y-87541800D01*
X37832600Y-89343800D01*
X37832600Y-89343800D01*
G37*
G36*
X22313200Y-89343800D02*
G01*
X20511200Y-89343800D01*
X20511200Y-87541800D01*
X22313200Y-87541800D01*
X22313200Y-89343800D01*
X22313200Y-89343800D01*
G37*
G36*
X41515600Y-89343800D02*
G01*
X39713600Y-89343800D01*
X39713600Y-87541800D01*
X41515600Y-87541800D01*
X41515600Y-89343800D01*
X41515600Y-89343800D01*
G37*
G36*
X114667600Y-89293000D02*
G01*
X112865600Y-89293000D01*
X112865600Y-87491000D01*
X114667600Y-87491000D01*
X114667600Y-89293000D01*
X114667600Y-89293000D01*
G37*
G36*
X30505813Y-86122327D02*
G01*
X30549317Y-86124493D01*
X30600147Y-86136931D01*
X30658056Y-86145896D01*
X30698979Y-86161115D01*
X30735321Y-86170008D01*
X30788460Y-86194393D01*
X30849136Y-86216958D01*
X30880937Y-86236829D01*
X30909357Y-86249871D01*
X30961918Y-86287432D01*
X31022024Y-86324990D01*
X31044720Y-86346603D01*
X31065149Y-86361202D01*
X31113874Y-86412458D01*
X31169658Y-86465580D01*
X31184026Y-86486253D01*
X31197082Y-86499987D01*
X31238536Y-86564683D01*
X31286007Y-86632985D01*
X31293495Y-86650455D01*
X31300391Y-86661218D01*
X31331129Y-86738263D01*
X31366318Y-86820365D01*
X31368897Y-86832927D01*
X31371347Y-86839069D01*
X31388105Y-86926501D01*
X31407311Y-87020067D01*
X31407288Y-87026590D01*
X31407361Y-87026970D01*
X31406673Y-87224033D01*
X31406598Y-87224411D01*
X31406575Y-87230936D01*
X31386711Y-87324389D01*
X31369348Y-87411679D01*
X31366856Y-87417802D01*
X31364189Y-87430347D01*
X31328425Y-87512208D01*
X31297153Y-87589029D01*
X31290182Y-87599743D01*
X31282572Y-87617162D01*
X31234626Y-87685130D01*
X31192720Y-87749537D01*
X31179566Y-87763182D01*
X31165057Y-87783750D01*
X31108910Y-87836476D01*
X31059821Y-87887397D01*
X31039290Y-87901854D01*
X31016445Y-87923306D01*
X30956079Y-87960444D01*
X30903256Y-87997637D01*
X30874747Y-88010479D01*
X30842807Y-88030129D01*
X30781978Y-88052269D01*
X30728664Y-88076285D01*
X30692253Y-88084926D01*
X30651235Y-88099855D01*
X30593279Y-88108413D01*
X30542356Y-88120498D01*
X30498836Y-88122360D01*
X30449557Y-88129637D01*
X30397183Y-88126709D01*
X30351040Y-88128683D01*
X30301890Y-88121381D01*
X30246008Y-88118257D01*
X30201240Y-88106429D01*
X30161635Y-88100545D01*
X30108958Y-88082046D01*
X30048906Y-88066180D01*
X30012953Y-88048333D01*
X29980966Y-88037100D01*
X29927430Y-88005879D01*
X29866301Y-87975534D01*
X29839524Y-87954613D01*
X29815553Y-87940634D01*
X29764279Y-87895826D01*
X29705652Y-87850021D01*
X29687618Y-87828831D01*
X29671362Y-87814625D01*
X29625719Y-87756100D01*
X29573523Y-87694770D01*
X29563095Y-87675802D01*
X29553608Y-87663637D01*
X29517078Y-87592097D01*
X29475310Y-87516121D01*
X29470733Y-87501335D01*
X29466524Y-87493092D01*
X29442494Y-87410111D01*
X29415025Y-87321372D01*
X29414118Y-87312118D01*
X29413263Y-87309167D01*
X29404835Y-87217444D01*
X29395131Y-87118479D01*
X29405515Y-87019683D01*
X29414593Y-86927921D01*
X29415470Y-86924971D01*
X29416441Y-86915730D01*
X29444519Y-86827218D01*
X29469137Y-86744375D01*
X29473404Y-86736161D01*
X29478084Y-86721407D01*
X29520381Y-86645726D01*
X29557408Y-86574445D01*
X29566980Y-86562347D01*
X29577542Y-86543448D01*
X29630171Y-86482476D01*
X29676220Y-86424273D01*
X29692574Y-86410181D01*
X29710752Y-86389122D01*
X29769694Y-86343730D01*
X29821279Y-86299282D01*
X29845345Y-86285471D01*
X29872273Y-86264734D01*
X29933622Y-86234812D01*
X29987367Y-86203970D01*
X30019431Y-86192961D01*
X30055506Y-86175366D01*
X30115655Y-86159922D01*
X30168473Y-86141787D01*
X30208130Y-86136178D01*
X30252967Y-86124666D01*
X30308856Y-86121933D01*
X30358071Y-86114972D01*
X30404209Y-86117269D01*
X30456590Y-86114707D01*
X30505813Y-86122327D01*
X30505813Y-86122327D01*
G37*
G36*
X69012213Y-86122327D02*
G01*
X69055717Y-86124493D01*
X69106547Y-86136931D01*
X69164456Y-86145896D01*
X69205379Y-86161115D01*
X69241721Y-86170008D01*
X69294860Y-86194393D01*
X69355536Y-86216958D01*
X69387337Y-86236829D01*
X69415757Y-86249871D01*
X69468318Y-86287432D01*
X69528424Y-86324990D01*
X69551120Y-86346603D01*
X69571549Y-86361202D01*
X69620274Y-86412458D01*
X69676058Y-86465580D01*
X69690426Y-86486253D01*
X69703482Y-86499987D01*
X69744936Y-86564683D01*
X69792407Y-86632985D01*
X69799895Y-86650455D01*
X69806791Y-86661218D01*
X69837529Y-86738263D01*
X69872718Y-86820365D01*
X69875297Y-86832927D01*
X69877747Y-86839069D01*
X69894505Y-86926501D01*
X69913711Y-87020067D01*
X69913688Y-87026590D01*
X69913761Y-87026970D01*
X69913073Y-87224033D01*
X69912998Y-87224411D01*
X69912975Y-87230936D01*
X69893111Y-87324389D01*
X69875748Y-87411679D01*
X69873256Y-87417802D01*
X69870589Y-87430347D01*
X69834825Y-87512208D01*
X69803553Y-87589029D01*
X69796582Y-87599743D01*
X69788972Y-87617162D01*
X69741026Y-87685130D01*
X69699120Y-87749537D01*
X69685966Y-87763182D01*
X69671457Y-87783750D01*
X69615310Y-87836476D01*
X69566221Y-87887397D01*
X69545690Y-87901854D01*
X69522845Y-87923306D01*
X69462479Y-87960444D01*
X69409656Y-87997637D01*
X69381147Y-88010479D01*
X69349207Y-88030129D01*
X69288378Y-88052269D01*
X69235064Y-88076285D01*
X69198653Y-88084926D01*
X69157635Y-88099855D01*
X69099679Y-88108413D01*
X69048756Y-88120498D01*
X69005236Y-88122360D01*
X68955957Y-88129637D01*
X68903583Y-88126709D01*
X68857440Y-88128683D01*
X68808290Y-88121381D01*
X68752408Y-88118257D01*
X68707640Y-88106429D01*
X68668035Y-88100545D01*
X68615358Y-88082046D01*
X68555306Y-88066180D01*
X68519353Y-88048333D01*
X68487366Y-88037100D01*
X68433830Y-88005879D01*
X68372701Y-87975534D01*
X68345924Y-87954613D01*
X68321953Y-87940634D01*
X68270679Y-87895826D01*
X68212052Y-87850021D01*
X68194018Y-87828831D01*
X68177762Y-87814625D01*
X68132119Y-87756100D01*
X68079923Y-87694770D01*
X68069495Y-87675802D01*
X68060008Y-87663637D01*
X68023478Y-87592097D01*
X67981710Y-87516121D01*
X67977133Y-87501335D01*
X67972924Y-87493092D01*
X67948894Y-87410111D01*
X67921425Y-87321372D01*
X67920518Y-87312118D01*
X67919663Y-87309167D01*
X67911235Y-87217444D01*
X67901531Y-87118479D01*
X67911915Y-87019683D01*
X67920993Y-86927921D01*
X67921870Y-86924971D01*
X67922841Y-86915730D01*
X67950919Y-86827218D01*
X67975537Y-86744375D01*
X67979804Y-86736161D01*
X67984484Y-86721407D01*
X68026781Y-86645726D01*
X68063808Y-86574445D01*
X68073380Y-86562347D01*
X68083942Y-86543448D01*
X68136571Y-86482476D01*
X68182620Y-86424273D01*
X68198974Y-86410181D01*
X68217152Y-86389122D01*
X68276094Y-86343730D01*
X68327679Y-86299282D01*
X68351745Y-86285471D01*
X68378673Y-86264734D01*
X68440022Y-86234812D01*
X68493767Y-86203970D01*
X68525831Y-86192961D01*
X68561906Y-86175366D01*
X68622055Y-86159922D01*
X68674873Y-86141787D01*
X68714530Y-86136178D01*
X68759367Y-86124666D01*
X68815256Y-86121933D01*
X68864471Y-86114972D01*
X68910609Y-86117269D01*
X68962990Y-86114707D01*
X69012213Y-86122327D01*
X69012213Y-86122327D01*
G37*
G36*
X107493213Y-86122327D02*
G01*
X107536717Y-86124493D01*
X107587547Y-86136931D01*
X107645456Y-86145896D01*
X107686379Y-86161115D01*
X107722721Y-86170008D01*
X107775860Y-86194393D01*
X107836536Y-86216958D01*
X107868337Y-86236829D01*
X107896757Y-86249871D01*
X107949318Y-86287432D01*
X108009424Y-86324990D01*
X108032120Y-86346603D01*
X108052549Y-86361202D01*
X108101274Y-86412458D01*
X108157058Y-86465580D01*
X108171426Y-86486253D01*
X108184482Y-86499987D01*
X108225936Y-86564683D01*
X108273407Y-86632985D01*
X108280895Y-86650455D01*
X108287791Y-86661218D01*
X108318529Y-86738263D01*
X108353718Y-86820365D01*
X108356297Y-86832927D01*
X108358747Y-86839069D01*
X108375505Y-86926501D01*
X108394711Y-87020067D01*
X108394688Y-87026590D01*
X108394761Y-87026970D01*
X108394073Y-87224033D01*
X108393998Y-87224411D01*
X108393975Y-87230936D01*
X108374111Y-87324389D01*
X108356748Y-87411679D01*
X108354256Y-87417802D01*
X108351589Y-87430347D01*
X108315825Y-87512208D01*
X108284553Y-87589029D01*
X108277582Y-87599743D01*
X108269972Y-87617162D01*
X108222026Y-87685130D01*
X108180120Y-87749537D01*
X108166966Y-87763182D01*
X108152457Y-87783750D01*
X108096310Y-87836476D01*
X108047221Y-87887397D01*
X108026690Y-87901854D01*
X108003845Y-87923306D01*
X107943479Y-87960444D01*
X107890656Y-87997637D01*
X107862147Y-88010479D01*
X107830207Y-88030129D01*
X107769378Y-88052269D01*
X107716064Y-88076285D01*
X107679653Y-88084926D01*
X107638635Y-88099855D01*
X107580679Y-88108413D01*
X107529756Y-88120498D01*
X107486236Y-88122360D01*
X107436957Y-88129637D01*
X107384583Y-88126709D01*
X107338440Y-88128683D01*
X107289290Y-88121381D01*
X107233408Y-88118257D01*
X107188640Y-88106429D01*
X107149035Y-88100545D01*
X107096358Y-88082046D01*
X107036306Y-88066180D01*
X107000353Y-88048333D01*
X106968366Y-88037100D01*
X106914830Y-88005879D01*
X106853701Y-87975534D01*
X106826924Y-87954613D01*
X106802953Y-87940634D01*
X106751679Y-87895826D01*
X106693052Y-87850021D01*
X106675018Y-87828831D01*
X106658762Y-87814625D01*
X106613119Y-87756100D01*
X106560923Y-87694770D01*
X106550495Y-87675802D01*
X106541008Y-87663637D01*
X106504478Y-87592097D01*
X106462710Y-87516121D01*
X106458133Y-87501335D01*
X106453924Y-87493092D01*
X106429894Y-87410111D01*
X106402425Y-87321372D01*
X106401518Y-87312118D01*
X106400663Y-87309167D01*
X106392235Y-87217444D01*
X106382531Y-87118479D01*
X106392915Y-87019683D01*
X106401993Y-86927921D01*
X106402870Y-86924971D01*
X106403841Y-86915730D01*
X106431919Y-86827218D01*
X106456537Y-86744375D01*
X106460804Y-86736161D01*
X106465484Y-86721407D01*
X106507781Y-86645726D01*
X106544808Y-86574445D01*
X106554380Y-86562347D01*
X106564942Y-86543448D01*
X106617571Y-86482476D01*
X106663620Y-86424273D01*
X106679974Y-86410181D01*
X106698152Y-86389122D01*
X106757094Y-86343730D01*
X106808679Y-86299282D01*
X106832745Y-86285471D01*
X106859673Y-86264734D01*
X106921022Y-86234812D01*
X106974767Y-86203970D01*
X107006831Y-86192961D01*
X107042906Y-86175366D01*
X107103055Y-86159922D01*
X107155873Y-86141787D01*
X107195530Y-86136178D01*
X107240367Y-86124666D01*
X107296256Y-86121933D01*
X107345471Y-86114972D01*
X107391609Y-86117269D01*
X107443990Y-86114707D01*
X107493213Y-86122327D01*
X107493213Y-86122327D01*
G37*
G36*
X88240013Y-86122327D02*
G01*
X88283517Y-86124493D01*
X88334347Y-86136931D01*
X88392256Y-86145896D01*
X88433179Y-86161115D01*
X88469521Y-86170008D01*
X88522660Y-86194393D01*
X88583336Y-86216958D01*
X88615137Y-86236829D01*
X88643557Y-86249871D01*
X88696118Y-86287432D01*
X88756224Y-86324990D01*
X88778920Y-86346603D01*
X88799349Y-86361202D01*
X88848074Y-86412458D01*
X88903858Y-86465580D01*
X88918226Y-86486253D01*
X88931282Y-86499987D01*
X88972736Y-86564683D01*
X89020207Y-86632985D01*
X89027695Y-86650455D01*
X89034591Y-86661218D01*
X89065329Y-86738263D01*
X89100518Y-86820365D01*
X89103097Y-86832927D01*
X89105547Y-86839069D01*
X89122305Y-86926501D01*
X89141511Y-87020067D01*
X89141488Y-87026590D01*
X89141561Y-87026970D01*
X89140873Y-87224033D01*
X89140798Y-87224411D01*
X89140775Y-87230936D01*
X89120911Y-87324389D01*
X89103548Y-87411679D01*
X89101056Y-87417802D01*
X89098389Y-87430347D01*
X89062625Y-87512208D01*
X89031353Y-87589029D01*
X89024382Y-87599743D01*
X89016772Y-87617162D01*
X88968826Y-87685130D01*
X88926920Y-87749537D01*
X88913766Y-87763182D01*
X88899257Y-87783750D01*
X88843110Y-87836476D01*
X88794021Y-87887397D01*
X88773490Y-87901854D01*
X88750645Y-87923306D01*
X88690279Y-87960444D01*
X88637456Y-87997637D01*
X88608947Y-88010479D01*
X88577007Y-88030129D01*
X88516178Y-88052269D01*
X88462864Y-88076285D01*
X88426453Y-88084926D01*
X88385435Y-88099855D01*
X88327479Y-88108413D01*
X88276556Y-88120498D01*
X88233036Y-88122360D01*
X88183757Y-88129637D01*
X88131383Y-88126709D01*
X88085240Y-88128683D01*
X88036090Y-88121381D01*
X87980208Y-88118257D01*
X87935440Y-88106429D01*
X87895835Y-88100545D01*
X87843158Y-88082046D01*
X87783106Y-88066180D01*
X87747153Y-88048333D01*
X87715166Y-88037100D01*
X87661630Y-88005879D01*
X87600501Y-87975534D01*
X87573724Y-87954613D01*
X87549753Y-87940634D01*
X87498479Y-87895826D01*
X87439852Y-87850021D01*
X87421818Y-87828831D01*
X87405562Y-87814625D01*
X87359919Y-87756100D01*
X87307723Y-87694770D01*
X87297295Y-87675802D01*
X87287808Y-87663637D01*
X87251278Y-87592097D01*
X87209510Y-87516121D01*
X87204933Y-87501335D01*
X87200724Y-87493092D01*
X87176694Y-87410111D01*
X87149225Y-87321372D01*
X87148318Y-87312118D01*
X87147463Y-87309167D01*
X87139035Y-87217444D01*
X87129331Y-87118479D01*
X87139715Y-87019683D01*
X87148793Y-86927921D01*
X87149670Y-86924971D01*
X87150641Y-86915730D01*
X87178719Y-86827218D01*
X87203337Y-86744375D01*
X87207604Y-86736161D01*
X87212284Y-86721407D01*
X87254581Y-86645726D01*
X87291608Y-86574445D01*
X87301180Y-86562347D01*
X87311742Y-86543448D01*
X87364371Y-86482476D01*
X87410420Y-86424273D01*
X87426774Y-86410181D01*
X87444952Y-86389122D01*
X87503894Y-86343730D01*
X87555479Y-86299282D01*
X87579545Y-86285471D01*
X87606473Y-86264734D01*
X87667822Y-86234812D01*
X87721567Y-86203970D01*
X87753631Y-86192961D01*
X87789706Y-86175366D01*
X87849855Y-86159922D01*
X87902673Y-86141787D01*
X87942330Y-86136178D01*
X87987167Y-86124666D01*
X88043056Y-86121933D01*
X88092271Y-86114972D01*
X88138409Y-86117269D01*
X88190790Y-86114707D01*
X88240013Y-86122327D01*
X88240013Y-86122327D01*
G37*
G36*
X49759013Y-86122327D02*
G01*
X49802517Y-86124493D01*
X49853347Y-86136931D01*
X49911256Y-86145896D01*
X49952179Y-86161115D01*
X49988521Y-86170008D01*
X50041660Y-86194393D01*
X50102336Y-86216958D01*
X50134137Y-86236829D01*
X50162557Y-86249871D01*
X50215118Y-86287432D01*
X50275224Y-86324990D01*
X50297920Y-86346603D01*
X50318349Y-86361202D01*
X50367074Y-86412458D01*
X50422858Y-86465580D01*
X50437226Y-86486253D01*
X50450282Y-86499987D01*
X50491736Y-86564683D01*
X50539207Y-86632985D01*
X50546695Y-86650455D01*
X50553591Y-86661218D01*
X50584329Y-86738263D01*
X50619518Y-86820365D01*
X50622097Y-86832927D01*
X50624547Y-86839069D01*
X50641305Y-86926501D01*
X50660511Y-87020067D01*
X50660488Y-87026590D01*
X50660561Y-87026970D01*
X50659873Y-87224033D01*
X50659798Y-87224411D01*
X50659775Y-87230936D01*
X50639911Y-87324389D01*
X50622548Y-87411679D01*
X50620056Y-87417802D01*
X50617389Y-87430347D01*
X50581625Y-87512208D01*
X50550353Y-87589029D01*
X50543382Y-87599743D01*
X50535772Y-87617162D01*
X50487826Y-87685130D01*
X50445920Y-87749537D01*
X50432766Y-87763182D01*
X50418257Y-87783750D01*
X50362110Y-87836476D01*
X50313021Y-87887397D01*
X50292490Y-87901854D01*
X50269645Y-87923306D01*
X50209279Y-87960444D01*
X50156456Y-87997637D01*
X50127947Y-88010479D01*
X50096007Y-88030129D01*
X50035178Y-88052269D01*
X49981864Y-88076285D01*
X49945453Y-88084926D01*
X49904435Y-88099855D01*
X49846479Y-88108413D01*
X49795556Y-88120498D01*
X49752036Y-88122360D01*
X49702757Y-88129637D01*
X49650383Y-88126709D01*
X49604240Y-88128683D01*
X49555090Y-88121381D01*
X49499208Y-88118257D01*
X49454440Y-88106429D01*
X49414835Y-88100545D01*
X49362158Y-88082046D01*
X49302106Y-88066180D01*
X49266153Y-88048333D01*
X49234166Y-88037100D01*
X49180630Y-88005879D01*
X49119501Y-87975534D01*
X49092724Y-87954613D01*
X49068753Y-87940634D01*
X49017479Y-87895826D01*
X48958852Y-87850021D01*
X48940818Y-87828831D01*
X48924562Y-87814625D01*
X48878919Y-87756100D01*
X48826723Y-87694770D01*
X48816295Y-87675802D01*
X48806808Y-87663637D01*
X48770278Y-87592097D01*
X48728510Y-87516121D01*
X48723933Y-87501335D01*
X48719724Y-87493092D01*
X48695694Y-87410111D01*
X48668225Y-87321372D01*
X48667318Y-87312118D01*
X48666463Y-87309167D01*
X48658035Y-87217444D01*
X48648331Y-87118479D01*
X48658715Y-87019683D01*
X48667793Y-86927921D01*
X48668670Y-86924971D01*
X48669641Y-86915730D01*
X48697719Y-86827218D01*
X48722337Y-86744375D01*
X48726604Y-86736161D01*
X48731284Y-86721407D01*
X48773581Y-86645726D01*
X48810608Y-86574445D01*
X48820180Y-86562347D01*
X48830742Y-86543448D01*
X48883371Y-86482476D01*
X48929420Y-86424273D01*
X48945774Y-86410181D01*
X48963952Y-86389122D01*
X49022894Y-86343730D01*
X49074479Y-86299282D01*
X49098545Y-86285471D01*
X49125473Y-86264734D01*
X49186822Y-86234812D01*
X49240567Y-86203970D01*
X49272631Y-86192961D01*
X49308706Y-86175366D01*
X49368855Y-86159922D01*
X49421673Y-86141787D01*
X49461330Y-86136178D01*
X49506167Y-86124666D01*
X49562056Y-86121933D01*
X49611271Y-86114972D01*
X49657409Y-86117269D01*
X49709790Y-86114707D01*
X49759013Y-86122327D01*
X49759013Y-86122327D01*
G37*
G36*
X86601500Y-88125500D02*
G01*
X84594500Y-88125500D01*
X84594500Y-86118500D01*
X86601500Y-86118500D01*
X86601500Y-88125500D01*
X86601500Y-88125500D01*
G37*
G36*
X48120500Y-88125500D02*
G01*
X46113500Y-88125500D01*
X46113500Y-86118500D01*
X48120500Y-86118500D01*
X48120500Y-88125500D01*
X48120500Y-88125500D01*
G37*
G36*
X105854700Y-88125500D02*
G01*
X103847700Y-88125500D01*
X103847700Y-86118500D01*
X105854700Y-86118500D01*
X105854700Y-88125500D01*
X105854700Y-88125500D01*
G37*
G36*
X28867300Y-88125500D02*
G01*
X26860300Y-88125500D01*
X26860300Y-86118500D01*
X28867300Y-86118500D01*
X28867300Y-88125500D01*
X28867300Y-88125500D01*
G37*
G36*
X67373700Y-88125500D02*
G01*
X65366700Y-88125500D01*
X65366700Y-86118500D01*
X67373700Y-86118500D01*
X67373700Y-88125500D01*
X67373700Y-88125500D01*
G37*
G36*
X32946776Y-83475826D02*
G01*
X32988566Y-83473782D01*
X33032856Y-83480639D01*
X33083610Y-83483476D01*
X33123963Y-83494743D01*
X33159421Y-83500232D01*
X33207004Y-83517928D01*
X33261698Y-83533199D01*
X33293422Y-83550067D01*
X33321459Y-83560494D01*
X33369557Y-83590549D01*
X33424953Y-83620004D01*
X33447768Y-83639421D01*
X33468071Y-83652108D01*
X33513441Y-83695313D01*
X33565761Y-83739841D01*
X33580263Y-83758947D01*
X33593272Y-83771335D01*
X33632416Y-83827655D01*
X33677551Y-83887118D01*
X33685102Y-83903459D01*
X33691942Y-83913301D01*
X33721308Y-83981817D01*
X33755107Y-84054965D01*
X33757685Y-84066692D01*
X33760047Y-84072202D01*
X33776229Y-84151036D01*
X33794811Y-84235551D01*
X33794145Y-84426388D01*
X33774981Y-84510738D01*
X33758243Y-84589485D01*
X33755841Y-84594982D01*
X33753181Y-84606692D01*
X33718869Y-84679609D01*
X33689027Y-84747915D01*
X33682118Y-84757709D01*
X33674455Y-84773994D01*
X33628914Y-84833130D01*
X33589370Y-84889187D01*
X33576272Y-84901487D01*
X33561640Y-84920487D01*
X33509027Y-84964635D01*
X33463344Y-85007534D01*
X33442947Y-85020082D01*
X33419999Y-85039338D01*
X33364400Y-85068405D01*
X33316093Y-85098123D01*
X33287984Y-85108354D01*
X33256141Y-85125001D01*
X33201334Y-85139892D01*
X33153631Y-85157254D01*
X33118140Y-85162495D01*
X33077711Y-85173479D01*
X33026939Y-85175962D01*
X32982603Y-85182509D01*
X32940827Y-85180174D01*
X32893033Y-85182511D01*
X32848792Y-85175028D01*
X32809989Y-85172859D01*
X32763780Y-85160650D01*
X32710723Y-85151676D01*
X32674639Y-85137097D01*
X32642835Y-85128694D01*
X32594697Y-85104799D01*
X32539288Y-85082412D01*
X32512111Y-85063804D01*
X32487982Y-85051826D01*
X32440928Y-85015063D01*
X32386726Y-84977950D01*
X32368269Y-84958295D01*
X32351750Y-84945389D01*
X32309200Y-84895393D01*
X32260154Y-84843164D01*
X32249408Y-84825138D01*
X32239696Y-84813726D01*
X32205201Y-84750981D01*
X32165478Y-84684344D01*
X32160743Y-84670111D01*
X32156410Y-84662229D01*
X32133492Y-84588192D01*
X32107114Y-84508898D01*
X32106172Y-84499934D01*
X32105286Y-84497072D01*
X32097147Y-84414068D01*
X32087787Y-84325012D01*
X32097767Y-84236044D01*
X32106487Y-84153078D01*
X32107393Y-84150220D01*
X32108398Y-84141265D01*
X32135330Y-84062153D01*
X32158763Y-83988281D01*
X32163150Y-83980432D01*
X32167984Y-83966231D01*
X32208182Y-83899857D01*
X32243104Y-83837371D01*
X32252892Y-83826031D01*
X32263767Y-83808075D01*
X32313185Y-83756181D01*
X32356073Y-83706495D01*
X32372679Y-83693707D01*
X32391277Y-83674177D01*
X32445752Y-83637433D01*
X32493050Y-83601009D01*
X32517258Y-83589202D01*
X32544565Y-83570783D01*
X32600119Y-83548787D01*
X32648433Y-83525223D01*
X32680303Y-83517040D01*
X32716479Y-83502717D01*
X32769595Y-83494114D01*
X32815888Y-83482228D01*
X32854703Y-83480330D01*
X32898999Y-83473155D01*
X32946776Y-83475826D01*
X32946776Y-83475826D01*
G37*
G36*
X71453176Y-83475826D02*
G01*
X71494966Y-83473782D01*
X71539256Y-83480639D01*
X71590010Y-83483476D01*
X71630363Y-83494743D01*
X71665821Y-83500232D01*
X71713404Y-83517928D01*
X71768098Y-83533199D01*
X71799822Y-83550067D01*
X71827859Y-83560494D01*
X71875957Y-83590549D01*
X71931353Y-83620004D01*
X71954168Y-83639421D01*
X71974471Y-83652108D01*
X72019841Y-83695313D01*
X72072161Y-83739841D01*
X72086663Y-83758947D01*
X72099672Y-83771335D01*
X72138816Y-83827655D01*
X72183951Y-83887118D01*
X72191502Y-83903459D01*
X72198342Y-83913301D01*
X72227708Y-83981817D01*
X72261507Y-84054965D01*
X72264085Y-84066692D01*
X72266447Y-84072202D01*
X72282629Y-84151036D01*
X72301211Y-84235551D01*
X72300545Y-84426388D01*
X72281381Y-84510738D01*
X72264643Y-84589485D01*
X72262241Y-84594982D01*
X72259581Y-84606692D01*
X72225269Y-84679609D01*
X72195427Y-84747915D01*
X72188518Y-84757709D01*
X72180855Y-84773994D01*
X72135314Y-84833130D01*
X72095770Y-84889187D01*
X72082672Y-84901487D01*
X72068040Y-84920487D01*
X72015427Y-84964635D01*
X71969744Y-85007534D01*
X71949347Y-85020082D01*
X71926399Y-85039338D01*
X71870800Y-85068405D01*
X71822493Y-85098123D01*
X71794384Y-85108354D01*
X71762541Y-85125001D01*
X71707734Y-85139892D01*
X71660031Y-85157254D01*
X71624540Y-85162495D01*
X71584111Y-85173479D01*
X71533339Y-85175962D01*
X71489003Y-85182509D01*
X71447227Y-85180174D01*
X71399433Y-85182511D01*
X71355192Y-85175028D01*
X71316389Y-85172859D01*
X71270180Y-85160650D01*
X71217123Y-85151676D01*
X71181039Y-85137097D01*
X71149235Y-85128694D01*
X71101097Y-85104799D01*
X71045688Y-85082412D01*
X71018511Y-85063804D01*
X70994382Y-85051826D01*
X70947328Y-85015063D01*
X70893126Y-84977950D01*
X70874669Y-84958295D01*
X70858150Y-84945389D01*
X70815600Y-84895393D01*
X70766554Y-84843164D01*
X70755808Y-84825138D01*
X70746096Y-84813726D01*
X70711601Y-84750981D01*
X70671878Y-84684344D01*
X70667143Y-84670111D01*
X70662810Y-84662229D01*
X70639892Y-84588192D01*
X70613514Y-84508898D01*
X70612572Y-84499934D01*
X70611686Y-84497072D01*
X70603547Y-84414068D01*
X70594187Y-84325012D01*
X70604167Y-84236044D01*
X70612887Y-84153078D01*
X70613793Y-84150220D01*
X70614798Y-84141265D01*
X70641730Y-84062153D01*
X70665163Y-83988281D01*
X70669550Y-83980432D01*
X70674384Y-83966231D01*
X70714582Y-83899857D01*
X70749504Y-83837371D01*
X70759292Y-83826031D01*
X70770167Y-83808075D01*
X70819585Y-83756181D01*
X70862473Y-83706495D01*
X70879079Y-83693707D01*
X70897677Y-83674177D01*
X70952152Y-83637433D01*
X70999450Y-83601009D01*
X71023658Y-83589202D01*
X71050965Y-83570783D01*
X71106519Y-83548787D01*
X71154833Y-83525223D01*
X71186703Y-83517040D01*
X71222879Y-83502717D01*
X71275995Y-83494114D01*
X71322288Y-83482228D01*
X71361103Y-83480330D01*
X71405399Y-83473155D01*
X71453176Y-83475826D01*
X71453176Y-83475826D01*
G37*
G36*
X52174576Y-83475826D02*
G01*
X52216366Y-83473782D01*
X52260656Y-83480639D01*
X52311410Y-83483476D01*
X52351763Y-83494743D01*
X52387221Y-83500232D01*
X52434804Y-83517928D01*
X52489498Y-83533199D01*
X52521222Y-83550067D01*
X52549259Y-83560494D01*
X52597357Y-83590549D01*
X52652753Y-83620004D01*
X52675568Y-83639421D01*
X52695871Y-83652108D01*
X52741241Y-83695313D01*
X52793561Y-83739841D01*
X52808063Y-83758947D01*
X52821072Y-83771335D01*
X52860216Y-83827655D01*
X52905351Y-83887118D01*
X52912902Y-83903459D01*
X52919742Y-83913301D01*
X52949108Y-83981817D01*
X52982907Y-84054965D01*
X52985485Y-84066692D01*
X52987847Y-84072202D01*
X53004029Y-84151036D01*
X53022611Y-84235551D01*
X53021945Y-84426388D01*
X53002781Y-84510738D01*
X52986043Y-84589485D01*
X52983641Y-84594982D01*
X52980981Y-84606692D01*
X52946669Y-84679609D01*
X52916827Y-84747915D01*
X52909918Y-84757709D01*
X52902255Y-84773994D01*
X52856714Y-84833130D01*
X52817170Y-84889187D01*
X52804072Y-84901487D01*
X52789440Y-84920487D01*
X52736827Y-84964635D01*
X52691144Y-85007534D01*
X52670747Y-85020082D01*
X52647799Y-85039338D01*
X52592200Y-85068405D01*
X52543893Y-85098123D01*
X52515784Y-85108354D01*
X52483941Y-85125001D01*
X52429134Y-85139892D01*
X52381431Y-85157254D01*
X52345940Y-85162495D01*
X52305511Y-85173479D01*
X52254739Y-85175962D01*
X52210403Y-85182509D01*
X52168627Y-85180174D01*
X52120833Y-85182511D01*
X52076592Y-85175028D01*
X52037789Y-85172859D01*
X51991580Y-85160650D01*
X51938523Y-85151676D01*
X51902439Y-85137097D01*
X51870635Y-85128694D01*
X51822497Y-85104799D01*
X51767088Y-85082412D01*
X51739911Y-85063804D01*
X51715782Y-85051826D01*
X51668728Y-85015063D01*
X51614526Y-84977950D01*
X51596069Y-84958295D01*
X51579550Y-84945389D01*
X51537000Y-84895393D01*
X51487954Y-84843164D01*
X51477208Y-84825138D01*
X51467496Y-84813726D01*
X51433001Y-84750981D01*
X51393278Y-84684344D01*
X51388543Y-84670111D01*
X51384210Y-84662229D01*
X51361292Y-84588192D01*
X51334914Y-84508898D01*
X51333972Y-84499934D01*
X51333086Y-84497072D01*
X51324947Y-84414068D01*
X51315587Y-84325012D01*
X51325567Y-84236044D01*
X51334287Y-84153078D01*
X51335193Y-84150220D01*
X51336198Y-84141265D01*
X51363130Y-84062153D01*
X51386563Y-83988281D01*
X51390950Y-83980432D01*
X51395784Y-83966231D01*
X51435982Y-83899857D01*
X51470904Y-83837371D01*
X51480692Y-83826031D01*
X51491567Y-83808075D01*
X51540985Y-83756181D01*
X51583873Y-83706495D01*
X51600479Y-83693707D01*
X51619077Y-83674177D01*
X51673552Y-83637433D01*
X51720850Y-83601009D01*
X51745058Y-83589202D01*
X51772365Y-83570783D01*
X51827919Y-83548787D01*
X51876233Y-83525223D01*
X51908103Y-83517040D01*
X51944279Y-83502717D01*
X51997395Y-83494114D01*
X52043688Y-83482228D01*
X52082503Y-83480330D01*
X52126799Y-83473155D01*
X52174576Y-83475826D01*
X52174576Y-83475826D01*
G37*
G36*
X90680976Y-83475826D02*
G01*
X90722766Y-83473782D01*
X90767056Y-83480639D01*
X90817810Y-83483476D01*
X90858163Y-83494743D01*
X90893621Y-83500232D01*
X90941204Y-83517928D01*
X90995898Y-83533199D01*
X91027622Y-83550067D01*
X91055659Y-83560494D01*
X91103757Y-83590549D01*
X91159153Y-83620004D01*
X91181968Y-83639421D01*
X91202271Y-83652108D01*
X91247641Y-83695313D01*
X91299961Y-83739841D01*
X91314463Y-83758947D01*
X91327472Y-83771335D01*
X91366616Y-83827655D01*
X91411751Y-83887118D01*
X91419302Y-83903459D01*
X91426142Y-83913301D01*
X91455508Y-83981817D01*
X91489307Y-84054965D01*
X91491885Y-84066692D01*
X91494247Y-84072202D01*
X91510429Y-84151036D01*
X91529011Y-84235551D01*
X91528345Y-84426388D01*
X91509181Y-84510738D01*
X91492443Y-84589485D01*
X91490041Y-84594982D01*
X91487381Y-84606692D01*
X91453069Y-84679609D01*
X91423227Y-84747915D01*
X91416318Y-84757709D01*
X91408655Y-84773994D01*
X91363114Y-84833130D01*
X91323570Y-84889187D01*
X91310472Y-84901487D01*
X91295840Y-84920487D01*
X91243227Y-84964635D01*
X91197544Y-85007534D01*
X91177147Y-85020082D01*
X91154199Y-85039338D01*
X91098600Y-85068405D01*
X91050293Y-85098123D01*
X91022184Y-85108354D01*
X90990341Y-85125001D01*
X90935534Y-85139892D01*
X90887831Y-85157254D01*
X90852340Y-85162495D01*
X90811911Y-85173479D01*
X90761139Y-85175962D01*
X90716803Y-85182509D01*
X90675027Y-85180174D01*
X90627233Y-85182511D01*
X90582992Y-85175028D01*
X90544189Y-85172859D01*
X90497980Y-85160650D01*
X90444923Y-85151676D01*
X90408839Y-85137097D01*
X90377035Y-85128694D01*
X90328897Y-85104799D01*
X90273488Y-85082412D01*
X90246311Y-85063804D01*
X90222182Y-85051826D01*
X90175128Y-85015063D01*
X90120926Y-84977950D01*
X90102469Y-84958295D01*
X90085950Y-84945389D01*
X90043400Y-84895393D01*
X89994354Y-84843164D01*
X89983608Y-84825138D01*
X89973896Y-84813726D01*
X89939401Y-84750981D01*
X89899678Y-84684344D01*
X89894943Y-84670111D01*
X89890610Y-84662229D01*
X89867692Y-84588192D01*
X89841314Y-84508898D01*
X89840372Y-84499934D01*
X89839486Y-84497072D01*
X89831347Y-84414068D01*
X89821987Y-84325012D01*
X89831967Y-84236044D01*
X89840687Y-84153078D01*
X89841593Y-84150220D01*
X89842598Y-84141265D01*
X89869530Y-84062153D01*
X89892963Y-83988281D01*
X89897350Y-83980432D01*
X89902184Y-83966231D01*
X89942382Y-83899857D01*
X89977304Y-83837371D01*
X89987092Y-83826031D01*
X89997967Y-83808075D01*
X90047385Y-83756181D01*
X90090273Y-83706495D01*
X90106879Y-83693707D01*
X90125477Y-83674177D01*
X90179952Y-83637433D01*
X90227250Y-83601009D01*
X90251458Y-83589202D01*
X90278765Y-83570783D01*
X90334319Y-83548787D01*
X90382633Y-83525223D01*
X90414503Y-83517040D01*
X90450679Y-83502717D01*
X90503795Y-83494114D01*
X90550088Y-83482228D01*
X90588903Y-83480330D01*
X90633199Y-83473155D01*
X90680976Y-83475826D01*
X90680976Y-83475826D01*
G37*
G36*
X63967470Y-83494707D02*
G01*
X64091889Y-83513968D01*
X64096890Y-83516132D01*
X64106065Y-83517651D01*
X64179103Y-83551709D01*
X64247512Y-83581313D01*
X64257329Y-83588187D01*
X64273640Y-83595793D01*
X64332926Y-83641121D01*
X64389129Y-83680474D01*
X64401476Y-83693530D01*
X64420527Y-83708096D01*
X64464857Y-83760554D01*
X64507915Y-83806086D01*
X64520535Y-83826439D01*
X64539871Y-83849321D01*
X64569130Y-83904816D01*
X64599019Y-83953022D01*
X64609350Y-83981099D01*
X64626105Y-84012879D01*
X64641183Y-84067619D01*
X64658716Y-84115272D01*
X64664082Y-84150753D01*
X64675206Y-84191139D01*
X64677866Y-84241903D01*
X64684568Y-84286216D01*
X64682378Y-84327995D01*
X64684883Y-84375784D01*
X64677554Y-84420056D01*
X64675520Y-84458863D01*
X64663472Y-84505117D01*
X64654684Y-84558200D01*
X64640235Y-84594325D01*
X64631941Y-84626167D01*
X64608209Y-84674396D01*
X64586019Y-84729876D01*
X64567503Y-84757121D01*
X64555613Y-84781285D01*
X64519025Y-84828454D01*
X64482090Y-84882802D01*
X64462496Y-84901332D01*
X64449647Y-84917896D01*
X64399805Y-84960616D01*
X64347748Y-85009844D01*
X64329757Y-85020654D01*
X64318385Y-85030401D01*
X64255789Y-85065098D01*
X64189259Y-85105074D01*
X64175038Y-85109860D01*
X64167172Y-85114220D01*
X64093191Y-85137404D01*
X64014017Y-85164049D01*
X64005063Y-85165022D01*
X64002200Y-85165919D01*
X63919154Y-85174354D01*
X63876391Y-85179000D01*
X63799889Y-85179000D01*
X63692930Y-85161293D01*
X63568511Y-85142032D01*
X63563510Y-85139868D01*
X63554335Y-85138349D01*
X63481297Y-85104291D01*
X63412888Y-85074687D01*
X63403071Y-85067813D01*
X63386760Y-85060207D01*
X63327474Y-85014879D01*
X63271271Y-84975526D01*
X63258924Y-84962470D01*
X63239873Y-84947904D01*
X63195543Y-84895446D01*
X63152485Y-84849914D01*
X63139865Y-84829561D01*
X63120529Y-84806679D01*
X63091270Y-84751184D01*
X63061381Y-84702978D01*
X63051050Y-84674901D01*
X63034295Y-84643121D01*
X63019217Y-84588381D01*
X63001684Y-84540728D01*
X62996318Y-84505247D01*
X62985194Y-84464861D01*
X62982534Y-84414097D01*
X62975832Y-84369784D01*
X62978022Y-84328005D01*
X62975517Y-84280216D01*
X62982846Y-84235944D01*
X62984880Y-84197137D01*
X62996928Y-84150883D01*
X63005716Y-84097800D01*
X63020165Y-84061675D01*
X63028459Y-84029833D01*
X63052191Y-83981604D01*
X63074381Y-83926124D01*
X63092897Y-83898879D01*
X63104787Y-83874715D01*
X63141375Y-83827546D01*
X63178310Y-83773198D01*
X63197904Y-83754668D01*
X63210753Y-83738104D01*
X63260595Y-83695384D01*
X63312652Y-83646156D01*
X63330643Y-83635346D01*
X63342015Y-83625599D01*
X63404611Y-83590902D01*
X63471141Y-83550926D01*
X63485362Y-83546140D01*
X63493228Y-83541780D01*
X63567209Y-83518596D01*
X63646383Y-83491951D01*
X63655337Y-83490978D01*
X63658200Y-83490081D01*
X63741246Y-83481646D01*
X63784009Y-83477000D01*
X63860511Y-83477000D01*
X63967470Y-83494707D01*
X63967470Y-83494707D01*
G37*
G36*
X83195270Y-83494707D02*
G01*
X83319689Y-83513968D01*
X83324690Y-83516132D01*
X83333865Y-83517651D01*
X83406903Y-83551709D01*
X83475312Y-83581313D01*
X83485129Y-83588187D01*
X83501440Y-83595793D01*
X83560726Y-83641121D01*
X83616929Y-83680474D01*
X83629276Y-83693530D01*
X83648327Y-83708096D01*
X83692657Y-83760554D01*
X83735715Y-83806086D01*
X83748335Y-83826439D01*
X83767671Y-83849321D01*
X83796930Y-83904816D01*
X83826819Y-83953022D01*
X83837150Y-83981099D01*
X83853905Y-84012879D01*
X83868983Y-84067619D01*
X83886516Y-84115272D01*
X83891882Y-84150753D01*
X83903006Y-84191139D01*
X83905666Y-84241903D01*
X83912368Y-84286216D01*
X83910178Y-84327995D01*
X83912683Y-84375784D01*
X83905354Y-84420056D01*
X83903320Y-84458863D01*
X83891272Y-84505117D01*
X83882484Y-84558200D01*
X83868035Y-84594325D01*
X83859741Y-84626167D01*
X83836009Y-84674396D01*
X83813819Y-84729876D01*
X83795303Y-84757121D01*
X83783413Y-84781285D01*
X83746825Y-84828454D01*
X83709890Y-84882802D01*
X83690296Y-84901332D01*
X83677447Y-84917896D01*
X83627605Y-84960616D01*
X83575548Y-85009844D01*
X83557557Y-85020654D01*
X83546185Y-85030401D01*
X83483589Y-85065098D01*
X83417059Y-85105074D01*
X83402838Y-85109860D01*
X83394972Y-85114220D01*
X83320991Y-85137404D01*
X83241817Y-85164049D01*
X83232863Y-85165022D01*
X83230000Y-85165919D01*
X83146954Y-85174354D01*
X83104191Y-85179000D01*
X83027689Y-85179000D01*
X82920730Y-85161293D01*
X82796311Y-85142032D01*
X82791310Y-85139868D01*
X82782135Y-85138349D01*
X82709097Y-85104291D01*
X82640688Y-85074687D01*
X82630871Y-85067813D01*
X82614560Y-85060207D01*
X82555274Y-85014879D01*
X82499071Y-84975526D01*
X82486724Y-84962470D01*
X82467673Y-84947904D01*
X82423343Y-84895446D01*
X82380285Y-84849914D01*
X82367665Y-84829561D01*
X82348329Y-84806679D01*
X82319070Y-84751184D01*
X82289181Y-84702978D01*
X82278850Y-84674901D01*
X82262095Y-84643121D01*
X82247017Y-84588381D01*
X82229484Y-84540728D01*
X82224118Y-84505247D01*
X82212994Y-84464861D01*
X82210334Y-84414097D01*
X82203632Y-84369784D01*
X82205822Y-84328005D01*
X82203317Y-84280216D01*
X82210646Y-84235944D01*
X82212680Y-84197137D01*
X82224728Y-84150883D01*
X82233516Y-84097800D01*
X82247965Y-84061675D01*
X82256259Y-84029833D01*
X82279991Y-83981604D01*
X82302181Y-83926124D01*
X82320697Y-83898879D01*
X82332587Y-83874715D01*
X82369175Y-83827546D01*
X82406110Y-83773198D01*
X82425704Y-83754668D01*
X82438553Y-83738104D01*
X82488395Y-83695384D01*
X82540452Y-83646156D01*
X82558443Y-83635346D01*
X82569815Y-83625599D01*
X82632411Y-83590902D01*
X82698941Y-83550926D01*
X82713162Y-83546140D01*
X82721028Y-83541780D01*
X82795009Y-83518596D01*
X82874183Y-83491951D01*
X82883137Y-83490978D01*
X82886000Y-83490081D01*
X82969046Y-83481646D01*
X83011809Y-83477000D01*
X83088311Y-83477000D01*
X83195270Y-83494707D01*
X83195270Y-83494707D01*
G37*
G36*
X44688870Y-83494707D02*
G01*
X44813289Y-83513968D01*
X44818290Y-83516132D01*
X44827465Y-83517651D01*
X44900503Y-83551709D01*
X44968912Y-83581313D01*
X44978729Y-83588187D01*
X44995040Y-83595793D01*
X45054326Y-83641121D01*
X45110529Y-83680474D01*
X45122876Y-83693530D01*
X45141927Y-83708096D01*
X45186257Y-83760554D01*
X45229315Y-83806086D01*
X45241935Y-83826439D01*
X45261271Y-83849321D01*
X45290530Y-83904816D01*
X45320419Y-83953022D01*
X45330750Y-83981099D01*
X45347505Y-84012879D01*
X45362583Y-84067619D01*
X45380116Y-84115272D01*
X45385482Y-84150753D01*
X45396606Y-84191139D01*
X45399266Y-84241903D01*
X45405968Y-84286216D01*
X45403778Y-84327995D01*
X45406283Y-84375784D01*
X45398954Y-84420056D01*
X45396920Y-84458863D01*
X45384872Y-84505117D01*
X45376084Y-84558200D01*
X45361635Y-84594325D01*
X45353341Y-84626167D01*
X45329609Y-84674396D01*
X45307419Y-84729876D01*
X45288903Y-84757121D01*
X45277013Y-84781285D01*
X45240425Y-84828454D01*
X45203490Y-84882802D01*
X45183896Y-84901332D01*
X45171047Y-84917896D01*
X45121205Y-84960616D01*
X45069148Y-85009844D01*
X45051157Y-85020654D01*
X45039785Y-85030401D01*
X44977189Y-85065098D01*
X44910659Y-85105074D01*
X44896438Y-85109860D01*
X44888572Y-85114220D01*
X44814591Y-85137404D01*
X44735417Y-85164049D01*
X44726463Y-85165022D01*
X44723600Y-85165919D01*
X44640554Y-85174354D01*
X44597791Y-85179000D01*
X44521289Y-85179000D01*
X44414330Y-85161293D01*
X44289911Y-85142032D01*
X44284910Y-85139868D01*
X44275735Y-85138349D01*
X44202697Y-85104291D01*
X44134288Y-85074687D01*
X44124471Y-85067813D01*
X44108160Y-85060207D01*
X44048874Y-85014879D01*
X43992671Y-84975526D01*
X43980324Y-84962470D01*
X43961273Y-84947904D01*
X43916943Y-84895446D01*
X43873885Y-84849914D01*
X43861265Y-84829561D01*
X43841929Y-84806679D01*
X43812670Y-84751184D01*
X43782781Y-84702978D01*
X43772450Y-84674901D01*
X43755695Y-84643121D01*
X43740617Y-84588381D01*
X43723084Y-84540728D01*
X43717718Y-84505247D01*
X43706594Y-84464861D01*
X43703934Y-84414097D01*
X43697232Y-84369784D01*
X43699422Y-84328005D01*
X43696917Y-84280216D01*
X43704246Y-84235944D01*
X43706280Y-84197137D01*
X43718328Y-84150883D01*
X43727116Y-84097800D01*
X43741565Y-84061675D01*
X43749859Y-84029833D01*
X43773591Y-83981604D01*
X43795781Y-83926124D01*
X43814297Y-83898879D01*
X43826187Y-83874715D01*
X43862775Y-83827546D01*
X43899710Y-83773198D01*
X43919304Y-83754668D01*
X43932153Y-83738104D01*
X43981995Y-83695384D01*
X44034052Y-83646156D01*
X44052043Y-83635346D01*
X44063415Y-83625599D01*
X44126011Y-83590902D01*
X44192541Y-83550926D01*
X44206762Y-83546140D01*
X44214628Y-83541780D01*
X44288609Y-83518596D01*
X44367783Y-83491951D01*
X44376737Y-83490978D01*
X44379600Y-83490081D01*
X44462646Y-83481646D01*
X44505409Y-83477000D01*
X44581911Y-83477000D01*
X44688870Y-83494707D01*
X44688870Y-83494707D01*
G37*
G36*
X25461070Y-83494707D02*
G01*
X25585489Y-83513968D01*
X25590490Y-83516132D01*
X25599665Y-83517651D01*
X25672703Y-83551709D01*
X25741112Y-83581313D01*
X25750929Y-83588187D01*
X25767240Y-83595793D01*
X25826526Y-83641121D01*
X25882729Y-83680474D01*
X25895076Y-83693530D01*
X25914127Y-83708096D01*
X25958457Y-83760554D01*
X26001515Y-83806086D01*
X26014135Y-83826439D01*
X26033471Y-83849321D01*
X26062730Y-83904816D01*
X26092619Y-83953022D01*
X26102950Y-83981099D01*
X26119705Y-84012879D01*
X26134783Y-84067619D01*
X26152316Y-84115272D01*
X26157682Y-84150753D01*
X26168806Y-84191139D01*
X26171466Y-84241903D01*
X26178168Y-84286216D01*
X26175978Y-84327995D01*
X26178483Y-84375784D01*
X26171154Y-84420056D01*
X26169120Y-84458863D01*
X26157072Y-84505117D01*
X26148284Y-84558200D01*
X26133835Y-84594325D01*
X26125541Y-84626167D01*
X26101809Y-84674396D01*
X26079619Y-84729876D01*
X26061103Y-84757121D01*
X26049213Y-84781285D01*
X26012625Y-84828454D01*
X25975690Y-84882802D01*
X25956096Y-84901332D01*
X25943247Y-84917896D01*
X25893405Y-84960616D01*
X25841348Y-85009844D01*
X25823357Y-85020654D01*
X25811985Y-85030401D01*
X25749389Y-85065098D01*
X25682859Y-85105074D01*
X25668638Y-85109860D01*
X25660772Y-85114220D01*
X25586791Y-85137404D01*
X25507617Y-85164049D01*
X25498663Y-85165022D01*
X25495800Y-85165919D01*
X25412754Y-85174354D01*
X25369991Y-85179000D01*
X25293489Y-85179000D01*
X25186530Y-85161293D01*
X25062111Y-85142032D01*
X25057110Y-85139868D01*
X25047935Y-85138349D01*
X24974897Y-85104291D01*
X24906488Y-85074687D01*
X24896671Y-85067813D01*
X24880360Y-85060207D01*
X24821074Y-85014879D01*
X24764871Y-84975526D01*
X24752524Y-84962470D01*
X24733473Y-84947904D01*
X24689143Y-84895446D01*
X24646085Y-84849914D01*
X24633465Y-84829561D01*
X24614129Y-84806679D01*
X24584870Y-84751184D01*
X24554981Y-84702978D01*
X24544650Y-84674901D01*
X24527895Y-84643121D01*
X24512817Y-84588381D01*
X24495284Y-84540728D01*
X24489918Y-84505247D01*
X24478794Y-84464861D01*
X24476134Y-84414097D01*
X24469432Y-84369784D01*
X24471622Y-84328005D01*
X24469117Y-84280216D01*
X24476446Y-84235944D01*
X24478480Y-84197137D01*
X24490528Y-84150883D01*
X24499316Y-84097800D01*
X24513765Y-84061675D01*
X24522059Y-84029833D01*
X24545791Y-83981604D01*
X24567981Y-83926124D01*
X24586497Y-83898879D01*
X24598387Y-83874715D01*
X24634975Y-83827546D01*
X24671910Y-83773198D01*
X24691504Y-83754668D01*
X24704353Y-83738104D01*
X24754195Y-83695384D01*
X24806252Y-83646156D01*
X24824243Y-83635346D01*
X24835615Y-83625599D01*
X24898211Y-83590902D01*
X24964741Y-83550926D01*
X24978962Y-83546140D01*
X24986828Y-83541780D01*
X25060809Y-83518596D01*
X25139983Y-83491951D01*
X25148937Y-83490978D01*
X25151800Y-83490081D01*
X25234846Y-83481646D01*
X25277609Y-83477000D01*
X25354111Y-83477000D01*
X25461070Y-83494707D01*
X25461070Y-83494707D01*
G37*
G36*
X109883376Y-83399626D02*
G01*
X109925166Y-83397582D01*
X109969456Y-83404439D01*
X110020210Y-83407276D01*
X110060563Y-83418543D01*
X110096021Y-83424032D01*
X110143604Y-83441728D01*
X110198298Y-83456999D01*
X110230022Y-83473867D01*
X110258059Y-83484294D01*
X110306157Y-83514349D01*
X110361553Y-83543804D01*
X110384368Y-83563221D01*
X110404671Y-83575908D01*
X110450041Y-83619113D01*
X110502361Y-83663641D01*
X110516863Y-83682747D01*
X110529872Y-83695135D01*
X110569016Y-83751455D01*
X110614151Y-83810918D01*
X110621702Y-83827259D01*
X110628542Y-83837101D01*
X110657908Y-83905617D01*
X110691707Y-83978765D01*
X110694285Y-83990492D01*
X110696647Y-83996002D01*
X110712829Y-84074836D01*
X110731411Y-84159351D01*
X110730745Y-84350188D01*
X110711581Y-84434538D01*
X110694843Y-84513285D01*
X110692441Y-84518782D01*
X110689781Y-84530492D01*
X110655469Y-84603409D01*
X110625627Y-84671715D01*
X110618718Y-84681509D01*
X110611055Y-84697794D01*
X110565514Y-84756930D01*
X110525970Y-84812987D01*
X110512872Y-84825287D01*
X110498240Y-84844287D01*
X110445627Y-84888435D01*
X110399944Y-84931334D01*
X110379547Y-84943882D01*
X110356599Y-84963138D01*
X110301000Y-84992205D01*
X110252693Y-85021923D01*
X110224584Y-85032154D01*
X110192741Y-85048801D01*
X110137934Y-85063692D01*
X110090231Y-85081054D01*
X110054740Y-85086295D01*
X110014311Y-85097279D01*
X109963539Y-85099762D01*
X109919203Y-85106309D01*
X109877427Y-85103974D01*
X109829633Y-85106311D01*
X109785392Y-85098828D01*
X109746589Y-85096659D01*
X109700380Y-85084450D01*
X109647323Y-85075476D01*
X109611239Y-85060897D01*
X109579435Y-85052494D01*
X109531297Y-85028599D01*
X109475888Y-85006212D01*
X109448711Y-84987604D01*
X109424582Y-84975626D01*
X109377528Y-84938863D01*
X109323326Y-84901750D01*
X109304869Y-84882095D01*
X109288350Y-84869189D01*
X109245800Y-84819193D01*
X109196754Y-84766964D01*
X109186008Y-84748938D01*
X109176296Y-84737526D01*
X109141801Y-84674781D01*
X109102078Y-84608144D01*
X109097343Y-84593911D01*
X109093010Y-84586029D01*
X109070092Y-84511992D01*
X109043714Y-84432698D01*
X109042772Y-84423734D01*
X109041886Y-84420872D01*
X109033747Y-84337868D01*
X109024387Y-84248812D01*
X109034367Y-84159844D01*
X109043087Y-84076878D01*
X109043993Y-84074020D01*
X109044998Y-84065065D01*
X109071930Y-83985953D01*
X109095363Y-83912081D01*
X109099750Y-83904232D01*
X109104584Y-83890031D01*
X109144782Y-83823657D01*
X109179704Y-83761171D01*
X109189492Y-83749831D01*
X109200367Y-83731875D01*
X109249785Y-83679981D01*
X109292673Y-83630295D01*
X109309279Y-83617507D01*
X109327877Y-83597977D01*
X109382352Y-83561233D01*
X109429650Y-83524809D01*
X109453858Y-83513002D01*
X109481165Y-83494583D01*
X109536719Y-83472587D01*
X109585033Y-83449023D01*
X109616903Y-83440840D01*
X109653079Y-83426517D01*
X109706195Y-83417914D01*
X109752488Y-83406028D01*
X109791303Y-83404130D01*
X109835599Y-83396955D01*
X109883376Y-83399626D01*
X109883376Y-83399626D01*
G37*
G36*
X102397670Y-83418507D02*
G01*
X102522089Y-83437768D01*
X102527090Y-83439932D01*
X102536265Y-83441451D01*
X102609303Y-83475509D01*
X102677712Y-83505113D01*
X102687529Y-83511987D01*
X102703840Y-83519593D01*
X102763126Y-83564921D01*
X102819329Y-83604274D01*
X102831676Y-83617330D01*
X102850727Y-83631896D01*
X102895057Y-83684354D01*
X102938115Y-83729886D01*
X102950735Y-83750239D01*
X102970071Y-83773121D01*
X102999330Y-83828616D01*
X103029219Y-83876822D01*
X103039550Y-83904899D01*
X103056305Y-83936679D01*
X103071383Y-83991419D01*
X103088916Y-84039072D01*
X103094282Y-84074553D01*
X103105406Y-84114939D01*
X103108066Y-84165703D01*
X103114768Y-84210016D01*
X103112578Y-84251795D01*
X103115083Y-84299584D01*
X103107754Y-84343856D01*
X103105720Y-84382663D01*
X103093672Y-84428917D01*
X103084884Y-84482000D01*
X103070435Y-84518125D01*
X103062141Y-84549967D01*
X103038409Y-84598196D01*
X103016219Y-84653676D01*
X102997703Y-84680921D01*
X102985813Y-84705085D01*
X102949225Y-84752254D01*
X102912290Y-84806602D01*
X102892696Y-84825132D01*
X102879847Y-84841696D01*
X102830005Y-84884416D01*
X102777948Y-84933644D01*
X102759957Y-84944454D01*
X102748585Y-84954201D01*
X102685989Y-84988898D01*
X102619459Y-85028874D01*
X102605238Y-85033660D01*
X102597372Y-85038020D01*
X102523391Y-85061204D01*
X102444217Y-85087849D01*
X102435263Y-85088822D01*
X102432400Y-85089719D01*
X102349354Y-85098154D01*
X102306591Y-85102800D01*
X102230089Y-85102800D01*
X102123130Y-85085093D01*
X101998711Y-85065832D01*
X101993710Y-85063668D01*
X101984535Y-85062149D01*
X101911497Y-85028091D01*
X101843088Y-84998487D01*
X101833271Y-84991613D01*
X101816960Y-84984007D01*
X101757674Y-84938679D01*
X101701471Y-84899326D01*
X101689124Y-84886270D01*
X101670073Y-84871704D01*
X101625743Y-84819246D01*
X101582685Y-84773714D01*
X101570065Y-84753361D01*
X101550729Y-84730479D01*
X101521470Y-84674984D01*
X101491581Y-84626778D01*
X101481250Y-84598701D01*
X101464495Y-84566921D01*
X101449417Y-84512181D01*
X101431884Y-84464528D01*
X101426518Y-84429047D01*
X101415394Y-84388661D01*
X101412734Y-84337897D01*
X101406032Y-84293584D01*
X101408222Y-84251805D01*
X101405717Y-84204016D01*
X101413046Y-84159744D01*
X101415080Y-84120937D01*
X101427128Y-84074683D01*
X101435916Y-84021600D01*
X101450365Y-83985475D01*
X101458659Y-83953633D01*
X101482391Y-83905404D01*
X101504581Y-83849924D01*
X101523097Y-83822679D01*
X101534987Y-83798515D01*
X101571575Y-83751346D01*
X101608510Y-83696998D01*
X101628104Y-83678468D01*
X101640953Y-83661904D01*
X101690795Y-83619184D01*
X101742852Y-83569956D01*
X101760843Y-83559146D01*
X101772215Y-83549399D01*
X101834811Y-83514702D01*
X101901341Y-83474726D01*
X101915562Y-83469940D01*
X101923428Y-83465580D01*
X101997409Y-83442396D01*
X102076583Y-83415751D01*
X102085537Y-83414778D01*
X102088400Y-83413881D01*
X102171446Y-83405446D01*
X102214209Y-83400800D01*
X102290711Y-83400800D01*
X102397670Y-83418507D01*
X102397670Y-83418507D01*
G37*
G36*
X94525400Y-84975000D02*
G01*
X92723400Y-84975000D01*
X92723400Y-83173000D01*
X94525400Y-83173000D01*
X94525400Y-84975000D01*
X94525400Y-84975000D01*
G37*
G36*
X75272200Y-84975000D02*
G01*
X73470200Y-84975000D01*
X73470200Y-83173000D01*
X75272200Y-83173000D01*
X75272200Y-84975000D01*
X75272200Y-84975000D01*
G37*
G36*
X55993600Y-84975000D02*
G01*
X54191600Y-84975000D01*
X54191600Y-83173000D01*
X55993600Y-83173000D01*
X55993600Y-84975000D01*
X55993600Y-84975000D01*
G37*
G36*
X36791200Y-84975000D02*
G01*
X34989200Y-84975000D01*
X34989200Y-83173000D01*
X36791200Y-83173000D01*
X36791200Y-84975000D01*
X36791200Y-84975000D01*
G37*
G36*
X113727800Y-84898800D02*
G01*
X111925800Y-84898800D01*
X111925800Y-83096800D01*
X113727800Y-83096800D01*
X113727800Y-84898800D01*
X113727800Y-84898800D01*
G37*
M02*
